G04 #@! TF.GenerationSoftware,KiCad,Pcbnew,(6.0.5)*
G04 #@! TF.CreationDate,2022-07-15T19:16:37+01:00*
G04 #@! TF.ProjectId,LED-RPi-PCB,4c45442d-5250-4692-9d50-43422e6b6963,rev?*
G04 #@! TF.SameCoordinates,Original*
G04 #@! TF.FileFunction,Legend,Top*
G04 #@! TF.FilePolarity,Positive*
%FSLAX46Y46*%
G04 Gerber Fmt 4.6, Leading zero omitted, Abs format (unit mm)*
G04 Created by KiCad (PCBNEW (6.0.5)) date 2022-07-15 19:16:37*
%MOMM*%
%LPD*%
G01*
G04 APERTURE LIST*
G04 Aperture macros list*
%AMRoundRect*
0 Rectangle with rounded corners*
0 $1 Rounding radius*
0 $2 $3 $4 $5 $6 $7 $8 $9 X,Y pos of 4 corners*
0 Add a 4 corners polygon primitive as box body*
4,1,4,$2,$3,$4,$5,$6,$7,$8,$9,$2,$3,0*
0 Add four circle primitives for the rounded corners*
1,1,$1+$1,$2,$3*
1,1,$1+$1,$4,$5*
1,1,$1+$1,$6,$7*
1,1,$1+$1,$8,$9*
0 Add four rect primitives between the rounded corners*
20,1,$1+$1,$2,$3,$4,$5,0*
20,1,$1+$1,$4,$5,$6,$7,0*
20,1,$1+$1,$6,$7,$8,$9,0*
20,1,$1+$1,$8,$9,$2,$3,0*%
G04 Aperture macros list end*
%ADD10C,0.150000*%
%ADD11C,0.120000*%
%ADD12R,1.800000X1.800000*%
%ADD13C,1.800000*%
%ADD14C,3.000000*%
%ADD15R,1.000000X0.700000*%
%ADD16R,2.540000X2.540000*%
%ADD17C,2.540000*%
%ADD18C,1.600000*%
%ADD19RoundRect,0.875000X-1.125000X0.875000X-1.125000X-0.875000X1.125000X-0.875000X1.125000X0.875000X0*%
%ADD20RoundRect,1.000000X-1.000000X1.000000X-1.000000X-1.000000X1.000000X-1.000000X1.000000X1.000000X0*%
%ADD21R,4.000000X3.500000*%
%ADD22RoundRect,0.250000X-0.400000X-0.625000X0.400000X-0.625000X0.400000X0.625000X-0.400000X0.625000X0*%
%ADD23RoundRect,0.250000X0.400000X0.625000X-0.400000X0.625000X-0.400000X-0.625000X0.400000X-0.625000X0*%
%ADD24O,1.700000X1.700000*%
%ADD25R,1.700000X1.700000*%
%ADD26C,5.600000*%
%ADD27R,1.100000X1.100000*%
G04 APERTURE END LIST*
D10*
X114443142Y-103719380D02*
X114776476Y-104719380D01*
X115109809Y-103719380D01*
X115586000Y-104719380D02*
X115490761Y-104671761D01*
X115443142Y-104624142D01*
X115395523Y-104528904D01*
X115395523Y-104243190D01*
X115443142Y-104147952D01*
X115490761Y-104100333D01*
X115586000Y-104052714D01*
X115728857Y-104052714D01*
X115824095Y-104100333D01*
X115871714Y-104147952D01*
X115919333Y-104243190D01*
X115919333Y-104528904D01*
X115871714Y-104624142D01*
X115824095Y-104671761D01*
X115728857Y-104719380D01*
X115586000Y-104719380D01*
X116776476Y-104052714D02*
X116776476Y-104719380D01*
X116347904Y-104052714D02*
X116347904Y-104576523D01*
X116395523Y-104671761D01*
X116490761Y-104719380D01*
X116633619Y-104719380D01*
X116728857Y-104671761D01*
X116776476Y-104624142D01*
X117109809Y-104052714D02*
X117490761Y-104052714D01*
X117252666Y-103719380D02*
X117252666Y-104576523D01*
X117300285Y-104671761D01*
X117395523Y-104719380D01*
X117490761Y-104719380D01*
X117824095Y-104338428D02*
X118586000Y-104338428D01*
X114316142Y-108418380D02*
X114649476Y-109418380D01*
X114982809Y-108418380D01*
X115459000Y-109418380D02*
X115363761Y-109370761D01*
X115316142Y-109323142D01*
X115268523Y-109227904D01*
X115268523Y-108942190D01*
X115316142Y-108846952D01*
X115363761Y-108799333D01*
X115459000Y-108751714D01*
X115601857Y-108751714D01*
X115697095Y-108799333D01*
X115744714Y-108846952D01*
X115792333Y-108942190D01*
X115792333Y-109227904D01*
X115744714Y-109323142D01*
X115697095Y-109370761D01*
X115601857Y-109418380D01*
X115459000Y-109418380D01*
X116649476Y-108751714D02*
X116649476Y-109418380D01*
X116220904Y-108751714D02*
X116220904Y-109275523D01*
X116268523Y-109370761D01*
X116363761Y-109418380D01*
X116506619Y-109418380D01*
X116601857Y-109370761D01*
X116649476Y-109323142D01*
X116982809Y-108751714D02*
X117363761Y-108751714D01*
X117125666Y-108418380D02*
X117125666Y-109275523D01*
X117173285Y-109370761D01*
X117268523Y-109418380D01*
X117363761Y-109418380D01*
X117697095Y-109037428D02*
X118459000Y-109037428D01*
X118078047Y-109418380D02*
X118078047Y-108656476D01*
X101735142Y-103719380D02*
X102068476Y-104719380D01*
X102401809Y-103719380D01*
X102735142Y-104719380D02*
X102735142Y-104052714D01*
X102735142Y-103719380D02*
X102687523Y-103767000D01*
X102735142Y-103814619D01*
X102782761Y-103767000D01*
X102735142Y-103719380D01*
X102735142Y-103814619D01*
X103211333Y-104052714D02*
X103211333Y-104719380D01*
X103211333Y-104147952D02*
X103258952Y-104100333D01*
X103354190Y-104052714D01*
X103497047Y-104052714D01*
X103592285Y-104100333D01*
X103639904Y-104195571D01*
X103639904Y-104719380D01*
X104116095Y-104338428D02*
X104878000Y-104338428D01*
X101735142Y-108418380D02*
X102068476Y-109418380D01*
X102401809Y-108418380D01*
X102735142Y-109418380D02*
X102735142Y-108751714D01*
X102735142Y-108418380D02*
X102687523Y-108466000D01*
X102735142Y-108513619D01*
X102782761Y-108466000D01*
X102735142Y-108418380D01*
X102735142Y-108513619D01*
X103211333Y-108751714D02*
X103211333Y-109418380D01*
X103211333Y-108846952D02*
X103258952Y-108799333D01*
X103354190Y-108751714D01*
X103497047Y-108751714D01*
X103592285Y-108799333D01*
X103639904Y-108894571D01*
X103639904Y-109418380D01*
X104116095Y-109037428D02*
X104878000Y-109037428D01*
X104497047Y-109418380D02*
X104497047Y-108656476D01*
X124095142Y-115022380D02*
X124428476Y-116022380D01*
X124761809Y-115022380D01*
X125238000Y-116022380D02*
X125142761Y-115974761D01*
X125095142Y-115927142D01*
X125047523Y-115831904D01*
X125047523Y-115546190D01*
X125095142Y-115450952D01*
X125142761Y-115403333D01*
X125238000Y-115355714D01*
X125380857Y-115355714D01*
X125476095Y-115403333D01*
X125523714Y-115450952D01*
X125571333Y-115546190D01*
X125571333Y-115831904D01*
X125523714Y-115927142D01*
X125476095Y-115974761D01*
X125380857Y-116022380D01*
X125238000Y-116022380D01*
X126428476Y-115355714D02*
X126428476Y-116022380D01*
X125999904Y-115355714D02*
X125999904Y-115879523D01*
X126047523Y-115974761D01*
X126142761Y-116022380D01*
X126285619Y-116022380D01*
X126380857Y-115974761D01*
X126428476Y-115927142D01*
X126761809Y-115355714D02*
X127142761Y-115355714D01*
X126904666Y-115022380D02*
X126904666Y-115879523D01*
X126952285Y-115974761D01*
X127047523Y-116022380D01*
X127142761Y-116022380D01*
X127476095Y-115641428D02*
X128238000Y-115641428D01*
X123968142Y-97115380D02*
X124301476Y-98115380D01*
X124634809Y-97115380D01*
X125111000Y-98115380D02*
X125015761Y-98067761D01*
X124968142Y-98020142D01*
X124920523Y-97924904D01*
X124920523Y-97639190D01*
X124968142Y-97543952D01*
X125015761Y-97496333D01*
X125111000Y-97448714D01*
X125253857Y-97448714D01*
X125349095Y-97496333D01*
X125396714Y-97543952D01*
X125444333Y-97639190D01*
X125444333Y-97924904D01*
X125396714Y-98020142D01*
X125349095Y-98067761D01*
X125253857Y-98115380D01*
X125111000Y-98115380D01*
X126301476Y-97448714D02*
X126301476Y-98115380D01*
X125872904Y-97448714D02*
X125872904Y-97972523D01*
X125920523Y-98067761D01*
X126015761Y-98115380D01*
X126158619Y-98115380D01*
X126253857Y-98067761D01*
X126301476Y-98020142D01*
X126634809Y-97448714D02*
X127015761Y-97448714D01*
X126777666Y-97115380D02*
X126777666Y-97972523D01*
X126825285Y-98067761D01*
X126920523Y-98115380D01*
X127015761Y-98115380D01*
X127349095Y-97734428D02*
X128111000Y-97734428D01*
X127730047Y-98115380D02*
X127730047Y-97353476D01*
X91321142Y-115403380D02*
X91654476Y-116403380D01*
X91987809Y-115403380D01*
X92321142Y-116403380D02*
X92321142Y-115736714D01*
X92321142Y-115403380D02*
X92273523Y-115451000D01*
X92321142Y-115498619D01*
X92368761Y-115451000D01*
X92321142Y-115403380D01*
X92321142Y-115498619D01*
X92797333Y-115736714D02*
X92797333Y-116403380D01*
X92797333Y-115831952D02*
X92844952Y-115784333D01*
X92940190Y-115736714D01*
X93083047Y-115736714D01*
X93178285Y-115784333D01*
X93225904Y-115879571D01*
X93225904Y-116403380D01*
X93702095Y-116022428D02*
X94464000Y-116022428D01*
X91194142Y-97496380D02*
X91527476Y-98496380D01*
X91860809Y-97496380D01*
X92194142Y-98496380D02*
X92194142Y-97829714D01*
X92194142Y-97496380D02*
X92146523Y-97544000D01*
X92194142Y-97591619D01*
X92241761Y-97544000D01*
X92194142Y-97496380D01*
X92194142Y-97591619D01*
X92670333Y-97829714D02*
X92670333Y-98496380D01*
X92670333Y-97924952D02*
X92717952Y-97877333D01*
X92813190Y-97829714D01*
X92956047Y-97829714D01*
X93051285Y-97877333D01*
X93098904Y-97972571D01*
X93098904Y-98496380D01*
X93575095Y-98115428D02*
X94337000Y-98115428D01*
X93956047Y-98496380D02*
X93956047Y-97734476D01*
X107307333Y-97734380D02*
X106831142Y-97734380D01*
X106831142Y-96734380D01*
X107640666Y-97734380D02*
X107640666Y-96734380D01*
X107974000Y-97448666D01*
X108307333Y-96734380D01*
X108307333Y-97734380D01*
X108735904Y-96829619D02*
X108783523Y-96782000D01*
X108878761Y-96734380D01*
X109116857Y-96734380D01*
X109212095Y-96782000D01*
X109259714Y-96829619D01*
X109307333Y-96924857D01*
X109307333Y-97020095D01*
X109259714Y-97162952D01*
X108688285Y-97734380D01*
X109307333Y-97734380D01*
X110212095Y-96734380D02*
X109735904Y-96734380D01*
X109688285Y-97210571D01*
X109735904Y-97162952D01*
X109831142Y-97115333D01*
X110069238Y-97115333D01*
X110164476Y-97162952D01*
X110212095Y-97210571D01*
X110259714Y-97305809D01*
X110259714Y-97543904D01*
X110212095Y-97639142D01*
X110164476Y-97686761D01*
X110069238Y-97734380D01*
X109831142Y-97734380D01*
X109735904Y-97686761D01*
X109688285Y-97639142D01*
X110735904Y-97734380D02*
X110926380Y-97734380D01*
X111021619Y-97686761D01*
X111069238Y-97639142D01*
X111164476Y-97496285D01*
X111212095Y-97305809D01*
X111212095Y-96924857D01*
X111164476Y-96829619D01*
X111116857Y-96782000D01*
X111021619Y-96734380D01*
X110831142Y-96734380D01*
X110735904Y-96782000D01*
X110688285Y-96829619D01*
X110640666Y-96924857D01*
X110640666Y-97162952D01*
X110688285Y-97258190D01*
X110735904Y-97305809D01*
X110831142Y-97353428D01*
X111021619Y-97353428D01*
X111116857Y-97305809D01*
X111164476Y-97258190D01*
X111212095Y-97162952D01*
X112069238Y-96734380D02*
X111878761Y-96734380D01*
X111783523Y-96782000D01*
X111735904Y-96829619D01*
X111640666Y-96972476D01*
X111593047Y-97162952D01*
X111593047Y-97543904D01*
X111640666Y-97639142D01*
X111688285Y-97686761D01*
X111783523Y-97734380D01*
X111974000Y-97734380D01*
X112069238Y-97686761D01*
X112116857Y-97639142D01*
X112164476Y-97543904D01*
X112164476Y-97305809D01*
X112116857Y-97210571D01*
X112069238Y-97162952D01*
X111974000Y-97115333D01*
X111783523Y-97115333D01*
X111688285Y-97162952D01*
X111640666Y-97210571D01*
X111593047Y-97305809D01*
X107116904Y-111577380D02*
X107116904Y-110577380D01*
X107450238Y-111291666D01*
X107783571Y-110577380D01*
X107783571Y-111577380D01*
X108259761Y-111577380D02*
X108259761Y-110577380D01*
X108640714Y-110577380D01*
X108735952Y-110625000D01*
X108783571Y-110672619D01*
X108831190Y-110767857D01*
X108831190Y-110910714D01*
X108783571Y-111005952D01*
X108735952Y-111053571D01*
X108640714Y-111101190D01*
X108259761Y-111101190D01*
X109212142Y-110672619D02*
X109259761Y-110625000D01*
X109355000Y-110577380D01*
X109593095Y-110577380D01*
X109688333Y-110625000D01*
X109735952Y-110672619D01*
X109783571Y-110767857D01*
X109783571Y-110863095D01*
X109735952Y-111005952D01*
X109164523Y-111577380D01*
X109783571Y-111577380D01*
X110116904Y-110577380D02*
X110735952Y-110577380D01*
X110402619Y-110958333D01*
X110545476Y-110958333D01*
X110640714Y-111005952D01*
X110688333Y-111053571D01*
X110735952Y-111148809D01*
X110735952Y-111386904D01*
X110688333Y-111482142D01*
X110640714Y-111529761D01*
X110545476Y-111577380D01*
X110259761Y-111577380D01*
X110164523Y-111529761D01*
X110116904Y-111482142D01*
X111355000Y-110577380D02*
X111450238Y-110577380D01*
X111545476Y-110625000D01*
X111593095Y-110672619D01*
X111640714Y-110767857D01*
X111688333Y-110958333D01*
X111688333Y-111196428D01*
X111640714Y-111386904D01*
X111593095Y-111482142D01*
X111545476Y-111529761D01*
X111450238Y-111577380D01*
X111355000Y-111577380D01*
X111259761Y-111529761D01*
X111212142Y-111482142D01*
X111164523Y-111386904D01*
X111116904Y-111196428D01*
X111116904Y-110958333D01*
X111164523Y-110767857D01*
X111212142Y-110672619D01*
X111259761Y-110625000D01*
X111355000Y-110577380D01*
X112021666Y-110577380D02*
X112688333Y-110577380D01*
X112259761Y-111577380D01*
X87193380Y-92725333D02*
X86193380Y-92725333D01*
X86193380Y-92487238D01*
X86241000Y-92344380D01*
X86336238Y-92249142D01*
X86431476Y-92201523D01*
X86621952Y-92153904D01*
X86764809Y-92153904D01*
X86955285Y-92201523D01*
X87050523Y-92249142D01*
X87145761Y-92344380D01*
X87193380Y-92487238D01*
X87193380Y-92725333D01*
X87098142Y-91153904D02*
X87145761Y-91201523D01*
X87193380Y-91344380D01*
X87193380Y-91439619D01*
X87145761Y-91582476D01*
X87050523Y-91677714D01*
X86955285Y-91725333D01*
X86764809Y-91772952D01*
X86621952Y-91772952D01*
X86431476Y-91725333D01*
X86336238Y-91677714D01*
X86241000Y-91582476D01*
X86193380Y-91439619D01*
X86193380Y-91344380D01*
X86241000Y-91201523D01*
X86288619Y-91153904D01*
X87193380Y-89963428D02*
X86193380Y-89963428D01*
X87193380Y-89487238D02*
X86193380Y-89487238D01*
X87193380Y-88915809D01*
X86193380Y-88915809D01*
X87574333Y-87392000D02*
X87526714Y-87439619D01*
X87383857Y-87534857D01*
X87288619Y-87582476D01*
X87145761Y-87630095D01*
X86907666Y-87677714D01*
X86717190Y-87677714D01*
X86479095Y-87630095D01*
X86336238Y-87582476D01*
X86241000Y-87534857D01*
X86098142Y-87439619D01*
X86050523Y-87392000D01*
X87193380Y-86487238D02*
X87193380Y-87058666D01*
X87193380Y-86772952D02*
X86193380Y-86772952D01*
X86336238Y-86868190D01*
X86431476Y-86963428D01*
X86479095Y-87058666D01*
X86288619Y-86106285D02*
X86241000Y-86058666D01*
X86193380Y-85963428D01*
X86193380Y-85725333D01*
X86241000Y-85630095D01*
X86288619Y-85582476D01*
X86383857Y-85534857D01*
X86479095Y-85534857D01*
X86621952Y-85582476D01*
X87193380Y-86153904D01*
X87193380Y-85534857D01*
X86193380Y-85249142D02*
X87193380Y-84915809D01*
X86193380Y-84582476D01*
X87574333Y-84344380D02*
X87526714Y-84296761D01*
X87383857Y-84201523D01*
X87288619Y-84153904D01*
X87145761Y-84106285D01*
X86907666Y-84058666D01*
X86717190Y-84058666D01*
X86479095Y-84106285D01*
X86336238Y-84153904D01*
X86241000Y-84201523D01*
X86098142Y-84296761D01*
X86050523Y-84344380D01*
X124428428Y-125658571D02*
X124095095Y-125658571D01*
X124095095Y-126182380D02*
X124095095Y-125182380D01*
X124571285Y-125182380D01*
X124904619Y-125896666D02*
X125380809Y-125896666D01*
X124809380Y-126182380D02*
X125142714Y-125182380D01*
X125476047Y-126182380D01*
X125809380Y-126182380D02*
X125809380Y-125182380D01*
X126380809Y-126182380D01*
X126380809Y-125182380D01*
X126857000Y-125801428D02*
X127618904Y-125801428D01*
X124428428Y-118800571D02*
X124095095Y-118800571D01*
X124095095Y-119324380D02*
X124095095Y-118324380D01*
X124571285Y-118324380D01*
X124904619Y-119038666D02*
X125380809Y-119038666D01*
X124809380Y-119324380D02*
X125142714Y-118324380D01*
X125476047Y-119324380D01*
X125809380Y-119324380D02*
X125809380Y-118324380D01*
X126380809Y-119324380D01*
X126380809Y-118324380D01*
X126857000Y-118943428D02*
X127618904Y-118943428D01*
X127237952Y-119324380D02*
X127237952Y-118562476D01*
X95273761Y-125309000D02*
X95321380Y-125166142D01*
X95321380Y-124928047D01*
X95273761Y-124832809D01*
X95226142Y-124785190D01*
X95130904Y-124737571D01*
X95035666Y-124737571D01*
X94940428Y-124785190D01*
X94892809Y-124832809D01*
X94845190Y-124928047D01*
X94797571Y-125118523D01*
X94749952Y-125213761D01*
X94702333Y-125261380D01*
X94607095Y-125309000D01*
X94511857Y-125309000D01*
X94416619Y-125261380D01*
X94369000Y-125213761D01*
X94321380Y-125118523D01*
X94321380Y-124880428D01*
X94369000Y-124737571D01*
X94321380Y-124404238D02*
X95321380Y-124166142D01*
X94607095Y-123975666D01*
X95321380Y-123785190D01*
X94321380Y-123547095D01*
X95321380Y-123166142D02*
X94321380Y-123166142D01*
X94321380Y-122832809D02*
X94321380Y-122261380D01*
X95321380Y-122547095D02*
X94321380Y-122547095D01*
X95226142Y-121356619D02*
X95273761Y-121404238D01*
X95321380Y-121547095D01*
X95321380Y-121642333D01*
X95273761Y-121785190D01*
X95178523Y-121880428D01*
X95083285Y-121928047D01*
X94892809Y-121975666D01*
X94749952Y-121975666D01*
X94559476Y-121928047D01*
X94464238Y-121880428D01*
X94369000Y-121785190D01*
X94321380Y-121642333D01*
X94321380Y-121547095D01*
X94369000Y-121404238D01*
X94416619Y-121356619D01*
X95321380Y-120928047D02*
X94321380Y-120928047D01*
X94797571Y-120928047D02*
X94797571Y-120356619D01*
X95321380Y-120356619D02*
X94321380Y-120356619D01*
X88082380Y-124880428D02*
X88082380Y-125356619D01*
X87082380Y-125356619D01*
X87558571Y-124547095D02*
X87558571Y-124213761D01*
X88082380Y-124070904D02*
X88082380Y-124547095D01*
X87082380Y-124547095D01*
X87082380Y-124070904D01*
X88082380Y-123642333D02*
X87082380Y-123642333D01*
X87082380Y-123404238D01*
X87130000Y-123261380D01*
X87225238Y-123166142D01*
X87320476Y-123118523D01*
X87510952Y-123070904D01*
X87653809Y-123070904D01*
X87844285Y-123118523D01*
X87939523Y-123166142D01*
X88034761Y-123261380D01*
X88082380Y-123404238D01*
X88082380Y-123642333D01*
X87082380Y-121689952D02*
X87082380Y-121499476D01*
X87130000Y-121404238D01*
X87225238Y-121309000D01*
X87415714Y-121261380D01*
X87749047Y-121261380D01*
X87939523Y-121309000D01*
X88034761Y-121404238D01*
X88082380Y-121499476D01*
X88082380Y-121689952D01*
X88034761Y-121785190D01*
X87939523Y-121880428D01*
X87749047Y-121928047D01*
X87415714Y-121928047D01*
X87225238Y-121880428D01*
X87130000Y-121785190D01*
X87082380Y-121689952D01*
X88082380Y-120832809D02*
X87082380Y-120832809D01*
X88082380Y-120261380D01*
X87082380Y-120261380D01*
X105338809Y-123769380D02*
X105338809Y-122769380D01*
X105719761Y-122769380D01*
X105815000Y-122817000D01*
X105862619Y-122864619D01*
X105910238Y-122959857D01*
X105910238Y-123102714D01*
X105862619Y-123197952D01*
X105815000Y-123245571D01*
X105719761Y-123293190D01*
X105338809Y-123293190D01*
X106481666Y-123769380D02*
X106386428Y-123721761D01*
X106338809Y-123674142D01*
X106291190Y-123578904D01*
X106291190Y-123293190D01*
X106338809Y-123197952D01*
X106386428Y-123150333D01*
X106481666Y-123102714D01*
X106624523Y-123102714D01*
X106719761Y-123150333D01*
X106767380Y-123197952D01*
X106815000Y-123293190D01*
X106815000Y-123578904D01*
X106767380Y-123674142D01*
X106719761Y-123721761D01*
X106624523Y-123769380D01*
X106481666Y-123769380D01*
X107148333Y-123102714D02*
X107338809Y-123769380D01*
X107529285Y-123293190D01*
X107719761Y-123769380D01*
X107910238Y-123102714D01*
X108672142Y-123721761D02*
X108576904Y-123769380D01*
X108386428Y-123769380D01*
X108291190Y-123721761D01*
X108243571Y-123626523D01*
X108243571Y-123245571D01*
X108291190Y-123150333D01*
X108386428Y-123102714D01*
X108576904Y-123102714D01*
X108672142Y-123150333D01*
X108719761Y-123245571D01*
X108719761Y-123340809D01*
X108243571Y-123436047D01*
X109148333Y-123769380D02*
X109148333Y-123102714D01*
X109148333Y-123293190D02*
X109195952Y-123197952D01*
X109243571Y-123150333D01*
X109338809Y-123102714D01*
X109434047Y-123102714D01*
X96385333Y-123721761D02*
X96528190Y-123769380D01*
X96766285Y-123769380D01*
X96861523Y-123721761D01*
X96909142Y-123674142D01*
X96956761Y-123578904D01*
X96956761Y-123483666D01*
X96909142Y-123388428D01*
X96861523Y-123340809D01*
X96766285Y-123293190D01*
X96575809Y-123245571D01*
X96480571Y-123197952D01*
X96432952Y-123150333D01*
X96385333Y-123055095D01*
X96385333Y-122959857D01*
X96432952Y-122864619D01*
X96480571Y-122817000D01*
X96575809Y-122769380D01*
X96813904Y-122769380D01*
X96956761Y-122817000D01*
X97242476Y-123102714D02*
X97623428Y-123102714D01*
X97385333Y-122769380D02*
X97385333Y-123626523D01*
X97432952Y-123721761D01*
X97528190Y-123769380D01*
X97623428Y-123769380D01*
X98385333Y-123769380D02*
X98385333Y-123245571D01*
X98337714Y-123150333D01*
X98242476Y-123102714D01*
X98052000Y-123102714D01*
X97956761Y-123150333D01*
X98385333Y-123721761D02*
X98290095Y-123769380D01*
X98052000Y-123769380D01*
X97956761Y-123721761D01*
X97909142Y-123626523D01*
X97909142Y-123531285D01*
X97956761Y-123436047D01*
X98052000Y-123388428D01*
X98290095Y-123388428D01*
X98385333Y-123340809D01*
X98718666Y-123102714D02*
X99099619Y-123102714D01*
X98861523Y-122769380D02*
X98861523Y-123626523D01*
X98909142Y-123721761D01*
X99004380Y-123769380D01*
X99099619Y-123769380D01*
X99861523Y-123102714D02*
X99861523Y-123769380D01*
X99432952Y-123102714D02*
X99432952Y-123626523D01*
X99480571Y-123721761D01*
X99575809Y-123769380D01*
X99718666Y-123769380D01*
X99813904Y-123721761D01*
X99861523Y-123674142D01*
X100290095Y-123721761D02*
X100385333Y-123769380D01*
X100575809Y-123769380D01*
X100671047Y-123721761D01*
X100718666Y-123626523D01*
X100718666Y-123578904D01*
X100671047Y-123483666D01*
X100575809Y-123436047D01*
X100432952Y-123436047D01*
X100337714Y-123388428D01*
X100290095Y-123293190D01*
X100290095Y-123245571D01*
X100337714Y-123150333D01*
X100432952Y-123102714D01*
X100575809Y-123102714D01*
X100671047Y-123150333D01*
X104165476Y-83420000D02*
X104089285Y-83381904D01*
X103975000Y-83381904D01*
X103860714Y-83420000D01*
X103784523Y-83496190D01*
X103746428Y-83572380D01*
X103708333Y-83724761D01*
X103708333Y-83839047D01*
X103746428Y-83991428D01*
X103784523Y-84067619D01*
X103860714Y-84143809D01*
X103975000Y-84181904D01*
X104051190Y-84181904D01*
X104165476Y-84143809D01*
X104203571Y-84105714D01*
X104203571Y-83839047D01*
X104051190Y-83839047D01*
X104546428Y-84181904D02*
X104546428Y-83381904D01*
X105003571Y-84181904D01*
X105003571Y-83381904D01*
X105384523Y-84181904D02*
X105384523Y-83381904D01*
X105575000Y-83381904D01*
X105689285Y-83420000D01*
X105765476Y-83496190D01*
X105803571Y-83572380D01*
X105841666Y-83724761D01*
X105841666Y-83839047D01*
X105803571Y-83991428D01*
X105765476Y-84067619D01*
X105689285Y-84143809D01*
X105575000Y-84181904D01*
X105384523Y-84181904D01*
X109721714Y-84181904D02*
X109340761Y-84181904D01*
X109340761Y-83381904D01*
X109988380Y-83762857D02*
X110255047Y-83762857D01*
X110369333Y-84181904D02*
X109988380Y-84181904D01*
X109988380Y-83381904D01*
X110369333Y-83381904D01*
X110712190Y-84181904D02*
X110712190Y-83381904D01*
X110902666Y-83381904D01*
X111016952Y-83420000D01*
X111093142Y-83496190D01*
X111131238Y-83572380D01*
X111169333Y-83724761D01*
X111169333Y-83839047D01*
X111131238Y-83991428D01*
X111093142Y-84067619D01*
X111016952Y-84143809D01*
X110902666Y-84181904D01*
X110712190Y-84181904D01*
X106318190Y-84181904D02*
X106318190Y-83381904D01*
X106622952Y-83381904D01*
X106699142Y-83420000D01*
X106737238Y-83458095D01*
X106775333Y-83534285D01*
X106775333Y-83648571D01*
X106737238Y-83724761D01*
X106699142Y-83762857D01*
X106622952Y-83800952D01*
X106318190Y-83800952D01*
X107042000Y-83381904D02*
X107232476Y-84181904D01*
X107384857Y-83610476D01*
X107537238Y-84181904D01*
X107727714Y-83381904D01*
X108032476Y-84181904D02*
X108032476Y-83381904D01*
X108299142Y-83953333D01*
X108565809Y-83381904D01*
X108565809Y-84181904D01*
X124358523Y-83381904D02*
X124853761Y-83381904D01*
X124587095Y-83686666D01*
X124701380Y-83686666D01*
X124777571Y-83724761D01*
X124815666Y-83762857D01*
X124853761Y-83839047D01*
X124853761Y-84029523D01*
X124815666Y-84105714D01*
X124777571Y-84143809D01*
X124701380Y-84181904D01*
X124472809Y-84181904D01*
X124396619Y-84143809D01*
X124358523Y-84105714D01*
X125082333Y-83381904D02*
X125349000Y-84181904D01*
X125615666Y-83381904D01*
X125806142Y-83381904D02*
X126301380Y-83381904D01*
X126034714Y-83686666D01*
X126149000Y-83686666D01*
X126225190Y-83724761D01*
X126263285Y-83762857D01*
X126301380Y-83839047D01*
X126301380Y-84029523D01*
X126263285Y-84105714D01*
X126225190Y-84143809D01*
X126149000Y-84181904D01*
X125920428Y-84181904D01*
X125844238Y-84143809D01*
X125806142Y-84105714D01*
X121691523Y-83381904D02*
X122186761Y-83381904D01*
X121920095Y-83686666D01*
X122034380Y-83686666D01*
X122110571Y-83724761D01*
X122148666Y-83762857D01*
X122186761Y-83839047D01*
X122186761Y-84029523D01*
X122148666Y-84105714D01*
X122110571Y-84143809D01*
X122034380Y-84181904D01*
X121805809Y-84181904D01*
X121729619Y-84143809D01*
X121691523Y-84105714D01*
X122415333Y-83381904D02*
X122682000Y-84181904D01*
X122948666Y-83381904D01*
X123139142Y-83381904D02*
X123634380Y-83381904D01*
X123367714Y-83686666D01*
X123482000Y-83686666D01*
X123558190Y-83724761D01*
X123596285Y-83762857D01*
X123634380Y-83839047D01*
X123634380Y-84029523D01*
X123596285Y-84105714D01*
X123558190Y-84143809D01*
X123482000Y-84181904D01*
X123253428Y-84181904D01*
X123177238Y-84143809D01*
X123139142Y-84105714D01*
X119151523Y-83381904D02*
X119646761Y-83381904D01*
X119380095Y-83686666D01*
X119494380Y-83686666D01*
X119570571Y-83724761D01*
X119608666Y-83762857D01*
X119646761Y-83839047D01*
X119646761Y-84029523D01*
X119608666Y-84105714D01*
X119570571Y-84143809D01*
X119494380Y-84181904D01*
X119265809Y-84181904D01*
X119189619Y-84143809D01*
X119151523Y-84105714D01*
X119875333Y-83381904D02*
X120142000Y-84181904D01*
X120408666Y-83381904D01*
X120599142Y-83381904D02*
X121094380Y-83381904D01*
X120827714Y-83686666D01*
X120942000Y-83686666D01*
X121018190Y-83724761D01*
X121056285Y-83762857D01*
X121094380Y-83839047D01*
X121094380Y-84029523D01*
X121056285Y-84105714D01*
X121018190Y-84143809D01*
X120942000Y-84181904D01*
X120713428Y-84181904D01*
X120637238Y-84143809D01*
X120599142Y-84105714D01*
X117449619Y-83381904D02*
X117068666Y-83381904D01*
X117030571Y-83762857D01*
X117068666Y-83724761D01*
X117144857Y-83686666D01*
X117335333Y-83686666D01*
X117411523Y-83724761D01*
X117449619Y-83762857D01*
X117487714Y-83839047D01*
X117487714Y-84029523D01*
X117449619Y-84105714D01*
X117411523Y-84143809D01*
X117335333Y-84181904D01*
X117144857Y-84181904D01*
X117068666Y-84143809D01*
X117030571Y-84105714D01*
X117716285Y-83381904D02*
X117982952Y-84181904D01*
X118249619Y-83381904D01*
X114782619Y-83381904D02*
X114401666Y-83381904D01*
X114363571Y-83762857D01*
X114401666Y-83724761D01*
X114477857Y-83686666D01*
X114668333Y-83686666D01*
X114744523Y-83724761D01*
X114782619Y-83762857D01*
X114820714Y-83839047D01*
X114820714Y-84029523D01*
X114782619Y-84105714D01*
X114744523Y-84143809D01*
X114668333Y-84181904D01*
X114477857Y-84181904D01*
X114401666Y-84143809D01*
X114363571Y-84105714D01*
X115049285Y-83381904D02*
X115315952Y-84181904D01*
X115582619Y-83381904D01*
X112369619Y-83381904D02*
X111988666Y-83381904D01*
X111950571Y-83762857D01*
X111988666Y-83724761D01*
X112064857Y-83686666D01*
X112255333Y-83686666D01*
X112331523Y-83724761D01*
X112369619Y-83762857D01*
X112407714Y-83839047D01*
X112407714Y-84029523D01*
X112369619Y-84105714D01*
X112331523Y-84143809D01*
X112255333Y-84181904D01*
X112064857Y-84181904D01*
X111988666Y-84143809D01*
X111950571Y-84105714D01*
X112636285Y-83381904D02*
X112902952Y-84181904D01*
X113169619Y-83381904D01*
X123694698Y-91625194D02*
X123593683Y-91658866D01*
X123492668Y-91759881D01*
X123425324Y-91894568D01*
X123425324Y-92029255D01*
X123458996Y-92130270D01*
X123560011Y-92298629D01*
X123661026Y-92399644D01*
X123829385Y-92500660D01*
X123930400Y-92534331D01*
X124065087Y-92534331D01*
X124199774Y-92466988D01*
X124267118Y-92399644D01*
X124334461Y-92264957D01*
X124334461Y-92197614D01*
X124098759Y-91961912D01*
X123964072Y-92096599D01*
X124704851Y-91961912D02*
X123997744Y-91254805D01*
X125108912Y-91557851D01*
X124401805Y-90850744D01*
X125445629Y-91221133D02*
X124738522Y-90514026D01*
X124906881Y-90345668D01*
X125041568Y-90278324D01*
X125176255Y-90278324D01*
X125277270Y-90311996D01*
X125445629Y-90413011D01*
X125546644Y-90514026D01*
X125647660Y-90682385D01*
X125681331Y-90783400D01*
X125681331Y-90918087D01*
X125613988Y-91052774D01*
X125445629Y-91221133D01*
X121154698Y-91625194D02*
X121053683Y-91658866D01*
X120952668Y-91759881D01*
X120885324Y-91894568D01*
X120885324Y-92029255D01*
X120918996Y-92130270D01*
X121020011Y-92298629D01*
X121121026Y-92399644D01*
X121289385Y-92500660D01*
X121390400Y-92534331D01*
X121525087Y-92534331D01*
X121659774Y-92466988D01*
X121727118Y-92399644D01*
X121794461Y-92264957D01*
X121794461Y-92197614D01*
X121558759Y-91961912D01*
X121424072Y-92096599D01*
X122164851Y-91961912D02*
X121457744Y-91254805D01*
X122568912Y-91557851D01*
X121861805Y-90850744D01*
X122905629Y-91221133D02*
X122198522Y-90514026D01*
X122366881Y-90345668D01*
X122501568Y-90278324D01*
X122636255Y-90278324D01*
X122737270Y-90311996D01*
X122905629Y-90413011D01*
X123006644Y-90514026D01*
X123107660Y-90682385D01*
X123141331Y-90783400D01*
X123141331Y-90918087D01*
X123073988Y-91052774D01*
X122905629Y-91221133D01*
X118741698Y-91498194D02*
X118640683Y-91531866D01*
X118539668Y-91632881D01*
X118472324Y-91767568D01*
X118472324Y-91902255D01*
X118505996Y-92003270D01*
X118607011Y-92171629D01*
X118708026Y-92272644D01*
X118876385Y-92373660D01*
X118977400Y-92407331D01*
X119112087Y-92407331D01*
X119246774Y-92339988D01*
X119314118Y-92272644D01*
X119381461Y-92137957D01*
X119381461Y-92070614D01*
X119145759Y-91834912D01*
X119011072Y-91969599D01*
X119751851Y-91834912D02*
X119044744Y-91127805D01*
X120155912Y-91430851D01*
X119448805Y-90723744D01*
X120492629Y-91094133D02*
X119785522Y-90387026D01*
X119953881Y-90218668D01*
X120088568Y-90151324D01*
X120223255Y-90151324D01*
X120324270Y-90184996D01*
X120492629Y-90286011D01*
X120593644Y-90387026D01*
X120694660Y-90555385D01*
X120728331Y-90656400D01*
X120728331Y-90791087D01*
X120660988Y-90925774D01*
X120492629Y-91094133D01*
X115820698Y-91498194D02*
X115719683Y-91531866D01*
X115618668Y-91632881D01*
X115551324Y-91767568D01*
X115551324Y-91902255D01*
X115584996Y-92003270D01*
X115686011Y-92171629D01*
X115787026Y-92272644D01*
X115955385Y-92373660D01*
X116056400Y-92407331D01*
X116191087Y-92407331D01*
X116325774Y-92339988D01*
X116393118Y-92272644D01*
X116460461Y-92137957D01*
X116460461Y-92070614D01*
X116224759Y-91834912D01*
X116090072Y-91969599D01*
X116830851Y-91834912D02*
X116123744Y-91127805D01*
X117234912Y-91430851D01*
X116527805Y-90723744D01*
X117571629Y-91094133D02*
X116864522Y-90387026D01*
X117032881Y-90218668D01*
X117167568Y-90151324D01*
X117302255Y-90151324D01*
X117403270Y-90184996D01*
X117571629Y-90286011D01*
X117672644Y-90387026D01*
X117773660Y-90555385D01*
X117807331Y-90656400D01*
X117807331Y-90791087D01*
X117739988Y-90925774D01*
X117571629Y-91094133D01*
X113534698Y-91498194D02*
X113433683Y-91531866D01*
X113332668Y-91632881D01*
X113265324Y-91767568D01*
X113265324Y-91902255D01*
X113298996Y-92003270D01*
X113400011Y-92171629D01*
X113501026Y-92272644D01*
X113669385Y-92373660D01*
X113770400Y-92407331D01*
X113905087Y-92407331D01*
X114039774Y-92339988D01*
X114107118Y-92272644D01*
X114174461Y-92137957D01*
X114174461Y-92070614D01*
X113938759Y-91834912D01*
X113804072Y-91969599D01*
X114544851Y-91834912D02*
X113837744Y-91127805D01*
X114948912Y-91430851D01*
X114241805Y-90723744D01*
X115285629Y-91094133D02*
X114578522Y-90387026D01*
X114746881Y-90218668D01*
X114881568Y-90151324D01*
X115016255Y-90151324D01*
X115117270Y-90184996D01*
X115285629Y-90286011D01*
X115386644Y-90387026D01*
X115487660Y-90555385D01*
X115521331Y-90656400D01*
X115521331Y-90791087D01*
X115453988Y-90925774D01*
X115285629Y-91094133D01*
X111121698Y-91498194D02*
X111020683Y-91531866D01*
X110919668Y-91632881D01*
X110852324Y-91767568D01*
X110852324Y-91902255D01*
X110885996Y-92003270D01*
X110987011Y-92171629D01*
X111088026Y-92272644D01*
X111256385Y-92373660D01*
X111357400Y-92407331D01*
X111492087Y-92407331D01*
X111626774Y-92339988D01*
X111694118Y-92272644D01*
X111761461Y-92137957D01*
X111761461Y-92070614D01*
X111525759Y-91834912D01*
X111391072Y-91969599D01*
X112131851Y-91834912D02*
X111424744Y-91127805D01*
X112535912Y-91430851D01*
X111828805Y-90723744D01*
X112872629Y-91094133D02*
X112165522Y-90387026D01*
X112333881Y-90218668D01*
X112468568Y-90151324D01*
X112603255Y-90151324D01*
X112704270Y-90184996D01*
X112872629Y-90286011D01*
X112973644Y-90387026D01*
X113074660Y-90555385D01*
X113108331Y-90656400D01*
X113108331Y-90791087D01*
X113040988Y-90925774D01*
X112872629Y-91094133D01*
X108975148Y-92070614D02*
X108571087Y-92474675D01*
X108773118Y-92272644D02*
X108066011Y-91565538D01*
X108099683Y-91733896D01*
X108099683Y-91868583D01*
X108066011Y-91969599D01*
X108604759Y-91161477D02*
X108604759Y-91094133D01*
X108638431Y-90993118D01*
X108806790Y-90824759D01*
X108907805Y-90791087D01*
X108975148Y-90791087D01*
X109076164Y-90824759D01*
X109143507Y-90892103D01*
X109210851Y-91026790D01*
X109210851Y-91834912D01*
X109648583Y-91397179D01*
X109143507Y-90488042D02*
X110086316Y-90959446D01*
X109614912Y-90016637D01*
X106435148Y-92070614D02*
X106031087Y-92474675D01*
X106233118Y-92272644D02*
X105526011Y-91565538D01*
X105559683Y-91733896D01*
X105559683Y-91868583D01*
X105526011Y-91969599D01*
X106064759Y-91161477D02*
X106064759Y-91094133D01*
X106098431Y-90993118D01*
X106266790Y-90824759D01*
X106367805Y-90791087D01*
X106435148Y-90791087D01*
X106536164Y-90824759D01*
X106603507Y-90892103D01*
X106670851Y-91026790D01*
X106670851Y-91834912D01*
X107108583Y-91397179D01*
X106603507Y-90488042D02*
X107546316Y-90959446D01*
X107074912Y-90016637D01*
X104149148Y-92197614D02*
X103745087Y-92601675D01*
X103947118Y-92399644D02*
X103240011Y-91692538D01*
X103273683Y-91860896D01*
X103273683Y-91995583D01*
X103240011Y-92096599D01*
X103778759Y-91288477D02*
X103778759Y-91221133D01*
X103812431Y-91120118D01*
X103980790Y-90951759D01*
X104081805Y-90918087D01*
X104149148Y-90918087D01*
X104250164Y-90951759D01*
X104317507Y-91019103D01*
X104384851Y-91153790D01*
X104384851Y-91961912D01*
X104822583Y-91524179D01*
X104317507Y-90615042D02*
X105260316Y-91086446D01*
X104788912Y-90143637D01*
G04 #@! TO.C,D2*
X103401904Y-125801380D02*
X103401904Y-124801380D01*
X103640000Y-124801380D01*
X103782857Y-124849000D01*
X103878095Y-124944238D01*
X103925714Y-125039476D01*
X103973333Y-125229952D01*
X103973333Y-125372809D01*
X103925714Y-125563285D01*
X103878095Y-125658523D01*
X103782857Y-125753761D01*
X103640000Y-125801380D01*
X103401904Y-125801380D01*
X104354285Y-124896619D02*
X104401904Y-124849000D01*
X104497142Y-124801380D01*
X104735238Y-124801380D01*
X104830476Y-124849000D01*
X104878095Y-124896619D01*
X104925714Y-124991857D01*
X104925714Y-125087095D01*
X104878095Y-125229952D01*
X104306666Y-125801380D01*
X104925714Y-125801380D01*
G04 #@! TO.C,D3*
X101369904Y-125801380D02*
X101369904Y-124801380D01*
X101608000Y-124801380D01*
X101750857Y-124849000D01*
X101846095Y-124944238D01*
X101893714Y-125039476D01*
X101941333Y-125229952D01*
X101941333Y-125372809D01*
X101893714Y-125563285D01*
X101846095Y-125658523D01*
X101750857Y-125753761D01*
X101608000Y-125801380D01*
X101369904Y-125801380D01*
X102274666Y-124801380D02*
X102893714Y-124801380D01*
X102560380Y-125182333D01*
X102703238Y-125182333D01*
X102798476Y-125229952D01*
X102846095Y-125277571D01*
X102893714Y-125372809D01*
X102893714Y-125610904D01*
X102846095Y-125706142D01*
X102798476Y-125753761D01*
X102703238Y-125801380D01*
X102417523Y-125801380D01*
X102322285Y-125753761D01*
X102274666Y-125706142D01*
G04 #@! TO.C,Q1*
X119538761Y-119038619D02*
X119443523Y-118991000D01*
X119348285Y-118895761D01*
X119205428Y-118752904D01*
X119110190Y-118705285D01*
X119014952Y-118705285D01*
X119062571Y-118943380D02*
X118967333Y-118895761D01*
X118872095Y-118800523D01*
X118824476Y-118610047D01*
X118824476Y-118276714D01*
X118872095Y-118086238D01*
X118967333Y-117991000D01*
X119062571Y-117943380D01*
X119253047Y-117943380D01*
X119348285Y-117991000D01*
X119443523Y-118086238D01*
X119491142Y-118276714D01*
X119491142Y-118610047D01*
X119443523Y-118800523D01*
X119348285Y-118895761D01*
X119253047Y-118943380D01*
X119062571Y-118943380D01*
X120443523Y-118943380D02*
X119872095Y-118943380D01*
X120157809Y-118943380D02*
X120157809Y-117943380D01*
X120062571Y-118086238D01*
X119967333Y-118181476D01*
X119872095Y-118229095D01*
G04 #@! TO.C,U2*
X110236095Y-93559380D02*
X110236095Y-94368904D01*
X110283714Y-94464142D01*
X110331333Y-94511761D01*
X110426571Y-94559380D01*
X110617047Y-94559380D01*
X110712285Y-94511761D01*
X110759904Y-94464142D01*
X110807523Y-94368904D01*
X110807523Y-93559380D01*
X111236095Y-93654619D02*
X111283714Y-93607000D01*
X111378952Y-93559380D01*
X111617047Y-93559380D01*
X111712285Y-93607000D01*
X111759904Y-93654619D01*
X111807523Y-93749857D01*
X111807523Y-93845095D01*
X111759904Y-93987952D01*
X111188476Y-94559380D01*
X111807523Y-94559380D01*
G04 #@! TO.C,U1*
X104394095Y-101433380D02*
X104394095Y-102242904D01*
X104441714Y-102338142D01*
X104489333Y-102385761D01*
X104584571Y-102433380D01*
X104775047Y-102433380D01*
X104870285Y-102385761D01*
X104917904Y-102338142D01*
X104965523Y-102242904D01*
X104965523Y-101433380D01*
X105965523Y-102433380D02*
X105394095Y-102433380D01*
X105679809Y-102433380D02*
X105679809Y-101433380D01*
X105584571Y-101576238D01*
X105489333Y-101671476D01*
X105394095Y-101719095D01*
G04 #@! TO.C,R4*
X98385333Y-119959380D02*
X98052000Y-119483190D01*
X97813904Y-119959380D02*
X97813904Y-118959380D01*
X98194857Y-118959380D01*
X98290095Y-119007000D01*
X98337714Y-119054619D01*
X98385333Y-119149857D01*
X98385333Y-119292714D01*
X98337714Y-119387952D01*
X98290095Y-119435571D01*
X98194857Y-119483190D01*
X97813904Y-119483190D01*
X99242476Y-119292714D02*
X99242476Y-119959380D01*
X99004380Y-118911761D02*
X98766285Y-119626047D01*
X99385333Y-119626047D01*
G04 #@! TO.C,R3*
X107529333Y-120044380D02*
X107196000Y-119568190D01*
X106957904Y-120044380D02*
X106957904Y-119044380D01*
X107338857Y-119044380D01*
X107434095Y-119092000D01*
X107481714Y-119139619D01*
X107529333Y-119234857D01*
X107529333Y-119377714D01*
X107481714Y-119472952D01*
X107434095Y-119520571D01*
X107338857Y-119568190D01*
X106957904Y-119568190D01*
X107862666Y-119044380D02*
X108481714Y-119044380D01*
X108148380Y-119425333D01*
X108291238Y-119425333D01*
X108386476Y-119472952D01*
X108434095Y-119520571D01*
X108481714Y-119615809D01*
X108481714Y-119853904D01*
X108434095Y-119949142D01*
X108386476Y-119996761D01*
X108291238Y-120044380D01*
X108005523Y-120044380D01*
X107910285Y-119996761D01*
X107862666Y-119949142D01*
G04 #@! TO.C,R2*
X114006333Y-126055380D02*
X113673000Y-125579190D01*
X113434904Y-126055380D02*
X113434904Y-125055380D01*
X113815857Y-125055380D01*
X113911095Y-125103000D01*
X113958714Y-125150619D01*
X114006333Y-125245857D01*
X114006333Y-125388714D01*
X113958714Y-125483952D01*
X113911095Y-125531571D01*
X113815857Y-125579190D01*
X113434904Y-125579190D01*
X114387285Y-125150619D02*
X114434904Y-125103000D01*
X114530142Y-125055380D01*
X114768238Y-125055380D01*
X114863476Y-125103000D01*
X114911095Y-125150619D01*
X114958714Y-125245857D01*
X114958714Y-125341095D01*
X114911095Y-125483952D01*
X114339666Y-126055380D01*
X114958714Y-126055380D01*
G04 #@! TO.C,R1*
X114006333Y-120086380D02*
X113673000Y-119610190D01*
X113434904Y-120086380D02*
X113434904Y-119086380D01*
X113815857Y-119086380D01*
X113911095Y-119134000D01*
X113958714Y-119181619D01*
X114006333Y-119276857D01*
X114006333Y-119419714D01*
X113958714Y-119514952D01*
X113911095Y-119562571D01*
X113815857Y-119610190D01*
X113434904Y-119610190D01*
X114958714Y-120086380D02*
X114387285Y-120086380D01*
X114673000Y-120086380D02*
X114673000Y-119086380D01*
X114577761Y-119229238D01*
X114482523Y-119324476D01*
X114387285Y-119372095D01*
G04 #@! TO.C,D1*
X119403904Y-126055380D02*
X119403904Y-125055380D01*
X119642000Y-125055380D01*
X119784857Y-125103000D01*
X119880095Y-125198238D01*
X119927714Y-125293476D01*
X119975333Y-125483952D01*
X119975333Y-125626809D01*
X119927714Y-125817285D01*
X119880095Y-125912523D01*
X119784857Y-126007761D01*
X119642000Y-126055380D01*
X119403904Y-126055380D01*
X120927714Y-126055380D02*
X120356285Y-126055380D01*
X120642000Y-126055380D02*
X120642000Y-125055380D01*
X120546761Y-125198238D01*
X120451523Y-125293476D01*
X120356285Y-125341095D01*
D11*
G04 #@! TO.C,Q1*
X119448000Y-122641000D02*
X121598000Y-122641000D01*
X119023000Y-119421000D02*
X121598000Y-119421000D01*
X121598000Y-121731000D02*
X121598000Y-122641000D01*
X121598000Y-119421000D02*
X121598000Y-120331000D01*
G04 #@! TO.C,U2*
X131603000Y-117532000D02*
X131603000Y-96082000D01*
X131603000Y-96082000D02*
X87853000Y-96082000D01*
X87853000Y-96082000D02*
X87853000Y-117532000D01*
X87853000Y-117532000D02*
X131603000Y-117532000D01*
X128468000Y-117277000D02*
X128468000Y-114117000D01*
X128468000Y-117277000D02*
X131583000Y-117277000D01*
X128468000Y-114117000D02*
X131583000Y-114117000D01*
X128468000Y-99497000D02*
X128468000Y-96337000D01*
X128468000Y-99497000D02*
X131628000Y-99497000D01*
X128468000Y-96337000D02*
X131583000Y-96337000D01*
X87858000Y-117277000D02*
X90988000Y-117277000D01*
X90988000Y-114117000D02*
X90988000Y-117277000D01*
X87858000Y-114117000D02*
X90988000Y-114117000D01*
X87858000Y-99492000D02*
X90988000Y-99497000D01*
X87858000Y-96337000D02*
X89158000Y-96337000D01*
X90988000Y-99187000D02*
X90988000Y-99497000D01*
G04 #@! TO.C,U1*
X112649000Y-103378000D02*
X111379000Y-104648000D01*
X111379000Y-102108000D02*
X112649000Y-103378000D01*
X112649000Y-103378000D02*
X111379000Y-102108000D01*
X107569000Y-103378000D02*
X112649000Y-103378000D01*
X118999000Y-100838000D02*
X101219000Y-100838000D01*
X118999000Y-112268000D02*
X118999000Y-100838000D01*
X101219000Y-112268000D02*
X118999000Y-112268000D01*
X101219000Y-100838000D02*
X101219000Y-112268000D01*
G04 #@! TO.C,J7*
X99088000Y-94118000D02*
X96488000Y-94118000D01*
X99088000Y-79418000D02*
X99088000Y-94118000D01*
X89888000Y-94118000D02*
X89888000Y-92218000D01*
X92588000Y-94118000D02*
X89888000Y-94118000D01*
X89888000Y-79418000D02*
X99088000Y-79418000D01*
X89888000Y-88218000D02*
X89888000Y-79418000D01*
X99288000Y-93268000D02*
X99288000Y-94318000D01*
X98238000Y-94318000D02*
X99288000Y-94318000D01*
G04 #@! TO.C,R4*
X97824936Y-122195000D02*
X99279064Y-122195000D01*
X97824936Y-120375000D02*
X99279064Y-120375000D01*
G04 #@! TO.C,R3*
X106968936Y-122322000D02*
X108423064Y-122322000D01*
X106968936Y-120502000D02*
X108423064Y-120502000D01*
G04 #@! TO.C,R2*
X113445936Y-124735000D02*
X114900064Y-124735000D01*
X113445936Y-122915000D02*
X114900064Y-122915000D01*
G04 #@! TO.C,R1*
X114900064Y-120502000D02*
X113445936Y-120502000D01*
X114900064Y-122322000D02*
X113445936Y-122322000D01*
G04 #@! TO.C,JP2*
X91119000Y-125409000D02*
X89789000Y-125409000D01*
X91119000Y-124079000D02*
X91119000Y-125409000D01*
X91119000Y-122809000D02*
X88459000Y-122809000D01*
X88459000Y-122809000D02*
X88459000Y-120209000D01*
X91119000Y-122809000D02*
X91119000Y-120209000D01*
X91119000Y-120209000D02*
X88459000Y-120209000D01*
G04 #@! TO.C,JP1*
X93913000Y-125409000D02*
X92583000Y-125409000D01*
X93913000Y-124079000D02*
X93913000Y-125409000D01*
X93913000Y-122809000D02*
X91253000Y-122809000D01*
X91253000Y-122809000D02*
X91253000Y-120209000D01*
X93913000Y-122809000D02*
X93913000Y-120209000D01*
X93913000Y-120209000D02*
X91253000Y-120209000D01*
G04 #@! TO.C,J8*
X118812000Y-89849000D02*
X118812000Y-88519000D01*
X120142000Y-89849000D02*
X118812000Y-89849000D01*
X121412000Y-89849000D02*
X121412000Y-87189000D01*
X121412000Y-87189000D02*
X126552000Y-87189000D01*
X121412000Y-89849000D02*
X126552000Y-89849000D01*
X126552000Y-89849000D02*
X126552000Y-87189000D01*
G04 #@! TO.C,J6*
X118812000Y-87182000D02*
X118812000Y-85852000D01*
X120142000Y-87182000D02*
X118812000Y-87182000D01*
X121412000Y-87182000D02*
X121412000Y-84522000D01*
X121412000Y-84522000D02*
X126552000Y-84522000D01*
X121412000Y-87182000D02*
X126552000Y-87182000D01*
X126552000Y-87182000D02*
X126552000Y-84522000D01*
G04 #@! TO.C,J5*
X111192000Y-87182000D02*
X111192000Y-85852000D01*
X112522000Y-87182000D02*
X111192000Y-87182000D01*
X113792000Y-87182000D02*
X113792000Y-84522000D01*
X113792000Y-84522000D02*
X118932000Y-84522000D01*
X113792000Y-87182000D02*
X118932000Y-87182000D01*
X118932000Y-87182000D02*
X118932000Y-84522000D01*
G04 #@! TO.C,J4*
X111312000Y-89849000D02*
X111312000Y-87189000D01*
X106172000Y-89849000D02*
X111312000Y-89849000D01*
X106172000Y-87189000D02*
X111312000Y-87189000D01*
X106172000Y-89849000D02*
X106172000Y-87189000D01*
X104902000Y-89849000D02*
X103572000Y-89849000D01*
X103572000Y-89849000D02*
X103572000Y-88519000D01*
G04 #@! TO.C,J3*
X111192000Y-89849000D02*
X111192000Y-88519000D01*
X112522000Y-89849000D02*
X111192000Y-89849000D01*
X113792000Y-89849000D02*
X113792000Y-87189000D01*
X113792000Y-87189000D02*
X118932000Y-87189000D01*
X113792000Y-89849000D02*
X118932000Y-89849000D01*
X118932000Y-89849000D02*
X118932000Y-87189000D01*
G04 #@! TO.C,J2*
X103572000Y-87182000D02*
X103572000Y-85852000D01*
X104902000Y-87182000D02*
X103572000Y-87182000D01*
X106172000Y-87182000D02*
X106172000Y-84522000D01*
X106172000Y-84522000D02*
X111312000Y-84522000D01*
X106172000Y-87182000D02*
X111312000Y-87182000D01*
X111312000Y-87182000D02*
X111312000Y-84522000D01*
G04 #@! TO.C,J1*
X124273000Y-119701000D02*
X125603000Y-119701000D01*
X124273000Y-121031000D02*
X124273000Y-119701000D01*
X124273000Y-122301000D02*
X126933000Y-122301000D01*
X126933000Y-122301000D02*
X126933000Y-124901000D01*
X124273000Y-122301000D02*
X124273000Y-124901000D01*
X124273000Y-124901000D02*
X126933000Y-124901000D01*
G04 #@! TO.C,D1*
X118069000Y-122825000D02*
X121919000Y-122825000D01*
X118069000Y-124825000D02*
X121919000Y-124825000D01*
X118069000Y-122825000D02*
X118069000Y-124825000D01*
G04 #@! TD*
%LPC*%
D12*
G04 #@! TO.C,D2*
X106299000Y-125222000D03*
D13*
X108839000Y-125222000D03*
G04 #@! TD*
G04 #@! TO.C,D3*
X99949000Y-125222000D03*
D12*
X97409000Y-125222000D03*
G04 #@! TD*
D14*
G04 #@! TO.C,F1*
X81407000Y-94367000D03*
X81407000Y-116967000D03*
G04 #@! TD*
D15*
G04 #@! TO.C,Q1*
X121723000Y-121031000D03*
X119323000Y-121981000D03*
X119323000Y-120081000D03*
G04 #@! TD*
D16*
G04 #@! TO.C,U2*
X89408000Y-97917000D03*
D17*
X89408000Y-115697000D03*
X130048000Y-97917000D03*
X130048000Y-115697000D03*
G04 #@! TD*
D18*
G04 #@! TO.C,U1*
X117389000Y-110858000D03*
X102489000Y-110858000D03*
X117389000Y-102108000D03*
X102489000Y-102108000D03*
G04 #@! TD*
D19*
G04 #@! TO.C,J7*
X89788000Y-90218000D03*
D20*
X94488000Y-87218000D03*
D21*
X94488000Y-93218000D03*
G04 #@! TD*
D22*
G04 #@! TO.C,R4*
X100102000Y-121285000D03*
X97002000Y-121285000D03*
G04 #@! TD*
G04 #@! TO.C,R3*
X109246000Y-121412000D03*
X106146000Y-121412000D03*
G04 #@! TD*
G04 #@! TO.C,R2*
X115723000Y-123825000D03*
X112623000Y-123825000D03*
G04 #@! TD*
D23*
G04 #@! TO.C,R1*
X112623000Y-121412000D03*
X115723000Y-121412000D03*
G04 #@! TD*
D24*
G04 #@! TO.C,JP2*
X89789000Y-121539000D03*
D25*
X89789000Y-124079000D03*
G04 #@! TD*
D24*
G04 #@! TO.C,JP1*
X92583000Y-121539000D03*
D25*
X92583000Y-124079000D03*
G04 #@! TD*
D24*
G04 #@! TO.C,J8*
X125222000Y-88519000D03*
X122682000Y-88519000D03*
D25*
X120142000Y-88519000D03*
G04 #@! TD*
D24*
G04 #@! TO.C,J6*
X125222000Y-85852000D03*
X122682000Y-85852000D03*
D25*
X120142000Y-85852000D03*
G04 #@! TD*
D24*
G04 #@! TO.C,J5*
X117602000Y-85852000D03*
X115062000Y-85852000D03*
D25*
X112522000Y-85852000D03*
G04 #@! TD*
G04 #@! TO.C,J4*
X104902000Y-88519000D03*
D24*
X107442000Y-88519000D03*
X109982000Y-88519000D03*
G04 #@! TD*
G04 #@! TO.C,J3*
X117602000Y-88519000D03*
X115062000Y-88519000D03*
D25*
X112522000Y-88519000D03*
G04 #@! TD*
D24*
G04 #@! TO.C,J2*
X109982000Y-85852000D03*
X107442000Y-85852000D03*
D25*
X104902000Y-85852000D03*
G04 #@! TD*
D24*
G04 #@! TO.C,J1*
X125603000Y-123571000D03*
D25*
X125603000Y-121031000D03*
G04 #@! TD*
D26*
G04 #@! TO.C,H4*
X80010000Y-123063000D03*
G04 #@! TD*
G04 #@! TO.C,H3*
X130683000Y-122809000D03*
G04 #@! TD*
G04 #@! TO.C,H2*
X79883000Y-87249000D03*
G04 #@! TD*
G04 #@! TO.C,H1*
X130683000Y-86995000D03*
G04 #@! TD*
D27*
G04 #@! TO.C,D1*
X121669000Y-123825000D03*
X118869000Y-123825000D03*
G04 #@! TD*
M02*
