G04 #@! TF.GenerationSoftware,KiCad,Pcbnew,(6.0.5)*
G04 #@! TF.CreationDate,2022-08-01T18:55:39+01:00*
G04 #@! TF.ProjectId,LED-RPi-PCB,4c45442d-5250-4692-9d50-43422e6b6963,rev?*
G04 #@! TF.SameCoordinates,Original*
G04 #@! TF.FileFunction,Copper,L1,Top*
G04 #@! TF.FilePolarity,Positive*
%FSLAX46Y46*%
G04 Gerber Fmt 4.6, Leading zero omitted, Abs format (unit mm)*
G04 Created by KiCad (PCBNEW (6.0.5)) date 2022-08-01 18:55:39*
%MOMM*%
%LPD*%
G01*
G04 APERTURE LIST*
G04 Aperture macros list*
%AMRoundRect*
0 Rectangle with rounded corners*
0 $1 Rounding radius*
0 $2 $3 $4 $5 $6 $7 $8 $9 X,Y pos of 4 corners*
0 Add a 4 corners polygon primitive as box body*
4,1,4,$2,$3,$4,$5,$6,$7,$8,$9,$2,$3,0*
0 Add four circle primitives for the rounded corners*
1,1,$1+$1,$2,$3*
1,1,$1+$1,$4,$5*
1,1,$1+$1,$6,$7*
1,1,$1+$1,$8,$9*
0 Add four rect primitives between the rounded corners*
20,1,$1+$1,$2,$3,$4,$5,0*
20,1,$1+$1,$4,$5,$6,$7,0*
20,1,$1+$1,$6,$7,$8,$9,0*
20,1,$1+$1,$8,$9,$2,$3,0*%
G04 Aperture macros list end*
G04 #@! TA.AperFunction,SMDPad,CuDef*
%ADD10R,1.100000X1.100000*%
G04 #@! TD*
G04 #@! TA.AperFunction,ComponentPad*
%ADD11R,1.800000X1.800000*%
G04 #@! TD*
G04 #@! TA.AperFunction,ComponentPad*
%ADD12C,1.800000*%
G04 #@! TD*
G04 #@! TA.AperFunction,ComponentPad*
%ADD13C,3.000000*%
G04 #@! TD*
G04 #@! TA.AperFunction,ComponentPad*
%ADD14C,5.600000*%
G04 #@! TD*
G04 #@! TA.AperFunction,ComponentPad*
%ADD15R,1.700000X1.700000*%
G04 #@! TD*
G04 #@! TA.AperFunction,ComponentPad*
%ADD16O,1.700000X1.700000*%
G04 #@! TD*
G04 #@! TA.AperFunction,SMDPad,CuDef*
%ADD17R,1.000000X0.700000*%
G04 #@! TD*
G04 #@! TA.AperFunction,SMDPad,CuDef*
%ADD18RoundRect,0.250000X0.400000X0.625000X-0.400000X0.625000X-0.400000X-0.625000X0.400000X-0.625000X0*%
G04 #@! TD*
G04 #@! TA.AperFunction,SMDPad,CuDef*
%ADD19RoundRect,0.250000X-0.400000X-0.625000X0.400000X-0.625000X0.400000X0.625000X-0.400000X0.625000X0*%
G04 #@! TD*
G04 #@! TA.AperFunction,ComponentPad*
%ADD20R,4.000000X3.500000*%
G04 #@! TD*
G04 #@! TA.AperFunction,ComponentPad*
%ADD21RoundRect,1.000000X-1.000000X1.000000X-1.000000X-1.000000X1.000000X-1.000000X1.000000X1.000000X0*%
G04 #@! TD*
G04 #@! TA.AperFunction,ComponentPad*
%ADD22RoundRect,0.875000X-1.125000X0.875000X-1.125000X-0.875000X1.125000X-0.875000X1.125000X0.875000X0*%
G04 #@! TD*
G04 #@! TA.AperFunction,ComponentPad*
%ADD23C,1.600000*%
G04 #@! TD*
G04 #@! TA.AperFunction,ComponentPad*
%ADD24R,2.540000X2.540000*%
G04 #@! TD*
G04 #@! TA.AperFunction,ComponentPad*
%ADD25C,2.540000*%
G04 #@! TD*
G04 #@! TA.AperFunction,ViaPad*
%ADD26C,0.800000*%
G04 #@! TD*
G04 #@! TA.AperFunction,Conductor*
%ADD27C,0.700000*%
G04 #@! TD*
G04 #@! TA.AperFunction,Conductor*
%ADD28C,0.500000*%
G04 #@! TD*
G04 #@! TA.AperFunction,Conductor*
%ADD29C,2.000000*%
G04 #@! TD*
G04 APERTURE END LIST*
D10*
X118869000Y-123825000D03*
X121669000Y-123825000D03*
D11*
X106299000Y-125222000D03*
D12*
X108839000Y-125222000D03*
D11*
X97409000Y-125222000D03*
D12*
X99949000Y-125222000D03*
D13*
X81407000Y-116967000D03*
X81407000Y-94367000D03*
D14*
X130683000Y-86995000D03*
X79883000Y-87249000D03*
X130683000Y-122809000D03*
X80010000Y-123063000D03*
D15*
X125603000Y-121031000D03*
D16*
X125603000Y-123571000D03*
D15*
X112522000Y-88519000D03*
D16*
X115062000Y-88519000D03*
X117602000Y-88519000D03*
D15*
X104902000Y-88519000D03*
D16*
X107442000Y-88519000D03*
X109982000Y-88519000D03*
D15*
X112522000Y-85852000D03*
D16*
X115062000Y-85852000D03*
X117602000Y-85852000D03*
D15*
X120142000Y-85852000D03*
D16*
X122682000Y-85852000D03*
X125222000Y-85852000D03*
D15*
X120142000Y-88519000D03*
D16*
X122682000Y-88519000D03*
X125222000Y-88519000D03*
D15*
X92583000Y-124079000D03*
D16*
X92583000Y-121539000D03*
D15*
X89789000Y-124079000D03*
D16*
X89789000Y-121539000D03*
D17*
X119323000Y-120081000D03*
X119323000Y-121981000D03*
X121723000Y-121031000D03*
D18*
X115723000Y-121412000D03*
X112623000Y-121412000D03*
D19*
X112623000Y-123825000D03*
X115723000Y-123825000D03*
X106146000Y-121412000D03*
X109246000Y-121412000D03*
X97002000Y-121285000D03*
X100102000Y-121285000D03*
D20*
X94488000Y-93218000D03*
D21*
X94488000Y-87218000D03*
D22*
X89788000Y-90218000D03*
D23*
X102489000Y-110858000D03*
X102489000Y-102108000D03*
X117389000Y-110858000D03*
X117389000Y-102108000D03*
D15*
X104902000Y-85852000D03*
D16*
X107442000Y-85852000D03*
X109982000Y-85852000D03*
D24*
X89408000Y-97917000D03*
D25*
X89408000Y-115697000D03*
X130048000Y-115697000D03*
X130048000Y-97917000D03*
D26*
X100711000Y-94361000D03*
X107315000Y-93091000D03*
X111887000Y-93091000D03*
X121031000Y-93091000D03*
X116459000Y-93091000D03*
X114173000Y-93091000D03*
X123317000Y-93091000D03*
X118745000Y-93091000D03*
X109601000Y-93091000D03*
X121031000Y-94996000D03*
X107315000Y-94996000D03*
X114173000Y-94996000D03*
X118745000Y-94996000D03*
X111887000Y-94996000D03*
X123317000Y-94996000D03*
X109601000Y-94996000D03*
X116459000Y-94996000D03*
X82931000Y-98425000D03*
X82931000Y-100795666D03*
X82931000Y-105536998D03*
X82931000Y-103166332D03*
X82931000Y-107907664D03*
X82931000Y-110278330D03*
X82931000Y-112649000D03*
X84963000Y-107907664D03*
X105664000Y-111887000D03*
X109601000Y-91313000D03*
X105664000Y-104648000D03*
X108458000Y-101981000D03*
X78740000Y-98425000D03*
X118745000Y-91313000D03*
X108458000Y-117221000D03*
X114300000Y-107188000D03*
X114300000Y-109601000D03*
X111125000Y-104648000D03*
X81026000Y-98425000D03*
X78740000Y-112649000D03*
X78740000Y-105536998D03*
X114173000Y-91313000D03*
X84963000Y-98425000D03*
X78740000Y-103166332D03*
X78740000Y-107907664D03*
X84963000Y-103166332D03*
X81026000Y-100795666D03*
X111125000Y-107188000D03*
X78740000Y-100795666D03*
X111125000Y-111887000D03*
X121031000Y-91313000D03*
X123317000Y-91313000D03*
X81026000Y-112649000D03*
X81026000Y-105536998D03*
X114300000Y-101981000D03*
X105664000Y-99695000D03*
X114300000Y-104648000D03*
X105664000Y-109601000D03*
X107315000Y-91313000D03*
X84963000Y-100795666D03*
X108458000Y-114427000D03*
X84963000Y-110278330D03*
X81026000Y-107907664D03*
X108458000Y-109601000D03*
X84963000Y-112649000D03*
X108458000Y-104648000D03*
X78740000Y-110278330D03*
X105664000Y-107188000D03*
X108458000Y-107188000D03*
X108458000Y-111887000D03*
X111887000Y-91313000D03*
X84963000Y-105536998D03*
X105664000Y-114427000D03*
X111125000Y-99695000D03*
X111125000Y-109601000D03*
X114300000Y-99695000D03*
X116459000Y-91313000D03*
X108458000Y-99695000D03*
X105664000Y-101981000D03*
X81026000Y-103166332D03*
X81026000Y-110278330D03*
X105664000Y-117221000D03*
X111125000Y-101981000D03*
X116332000Y-118491000D03*
D27*
X121669000Y-123825000D02*
X123444000Y-123825000D01*
X124333000Y-121031000D02*
X125603000Y-121031000D01*
X123825000Y-121539000D02*
X124333000Y-121031000D01*
X120711000Y-121981000D02*
X121669000Y-122939000D01*
X119323000Y-121981000D02*
X120711000Y-121981000D01*
X123444000Y-123825000D02*
X123825000Y-123444000D01*
D28*
X121669000Y-123320000D02*
X121669000Y-123825000D01*
D27*
X123825000Y-123444000D02*
X123825000Y-121539000D01*
X121669000Y-122939000D02*
X121669000Y-123320000D01*
D29*
X130048000Y-104140000D02*
X123330000Y-110858000D01*
X130048000Y-97917000D02*
X130048000Y-104140000D01*
D27*
X125603000Y-125095000D02*
X125603000Y-123571000D01*
X119888000Y-126111000D02*
X124587000Y-126111000D01*
D28*
X108839000Y-125222000D02*
X109728000Y-126111000D01*
D27*
X124587000Y-126111000D02*
X125603000Y-125095000D01*
X118869000Y-123701000D02*
X118869000Y-125092000D01*
D28*
X117850000Y-126111000D02*
X118869000Y-125092000D01*
D29*
X123330000Y-110858000D02*
X117389000Y-110858000D01*
D28*
X109728000Y-126111000D02*
X117850000Y-126111000D01*
D27*
X118869000Y-125092000D02*
X119888000Y-126111000D01*
D28*
X106299000Y-125222000D02*
X106146000Y-125069000D01*
X106146000Y-125069000D02*
X106146000Y-121412000D01*
X109982000Y-85852000D02*
X109982000Y-84455000D01*
X101473000Y-84328000D02*
X101473000Y-93599000D01*
X109220000Y-83693000D02*
X102108000Y-83693000D01*
X101473000Y-93599000D02*
X100711000Y-94361000D01*
X102108000Y-83693000D02*
X101473000Y-84328000D01*
X109982000Y-84455000D02*
X109220000Y-83693000D01*
X97409000Y-125222000D02*
X97002000Y-124815000D01*
X97002000Y-124815000D02*
X97002000Y-121285000D01*
D29*
X94488000Y-93218000D02*
X93980000Y-93726000D01*
X93980000Y-93726000D02*
X82048000Y-93726000D01*
X82048000Y-93726000D02*
X81407000Y-94367000D01*
D28*
X82556000Y-93218000D02*
X81407000Y-94367000D01*
D29*
X102489000Y-113157000D02*
X102489000Y-110858000D01*
X89408000Y-97917000D02*
X89408000Y-104521000D01*
X101600000Y-114046000D02*
X102489000Y-113157000D01*
X107442000Y-88519000D02*
X104902000Y-88519000D01*
X92583000Y-117983000D02*
X96520000Y-114046000D01*
X95745000Y-110858000D02*
X102489000Y-110858000D01*
X100711000Y-97917000D02*
X104902000Y-93726000D01*
X89408000Y-104521000D02*
X95745000Y-110858000D01*
X92583000Y-121539000D02*
X92583000Y-117983000D01*
X96520000Y-114046000D02*
X101600000Y-114046000D01*
X109982000Y-88519000D02*
X107442000Y-88519000D01*
X89408000Y-97917000D02*
X100711000Y-97917000D01*
X104902000Y-93726000D02*
X104902000Y-88519000D01*
D27*
X113792000Y-118491000D02*
X116332000Y-118491000D01*
X112623000Y-121412000D02*
X112623000Y-119660000D01*
X112623000Y-119660000D02*
X113792000Y-118491000D01*
D28*
X100102000Y-119660000D02*
X100102000Y-120243000D01*
X90678000Y-126238000D02*
X94107000Y-126238000D01*
X89789000Y-125349000D02*
X90678000Y-126238000D01*
X89789000Y-124079000D02*
X89789000Y-125349000D01*
X100838000Y-118999000D02*
X108458000Y-118999000D01*
X100102000Y-119735000D02*
X100838000Y-118999000D01*
X94996000Y-125349000D02*
X94996000Y-120523000D01*
X94996000Y-120523000D02*
X96520000Y-118999000D01*
X96520000Y-118999000D02*
X99441000Y-118999000D01*
X100102000Y-121285000D02*
X100102000Y-120243000D01*
X99441000Y-118999000D02*
X100102000Y-119660000D01*
X108458000Y-118999000D02*
X109246000Y-119787000D01*
X100102000Y-120243000D02*
X100102000Y-119735000D01*
X94107000Y-126238000D02*
X94996000Y-125349000D01*
X109246000Y-119787000D02*
X109246000Y-121412000D01*
D27*
X115723000Y-121412000D02*
X117054000Y-120081000D01*
X112623000Y-123825000D02*
X113665000Y-123825000D01*
D28*
X115824000Y-121311000D02*
X115723000Y-121412000D01*
D27*
X114681000Y-121412000D02*
X115723000Y-121412000D01*
X114173000Y-121920000D02*
X114681000Y-121412000D01*
X113665000Y-123825000D02*
X114173000Y-123317000D01*
X117054000Y-120081000D02*
X119023000Y-120081000D01*
X114173000Y-123317000D02*
X114173000Y-121920000D01*
G04 #@! TA.AperFunction,Conductor*
G36*
X101665960Y-83205502D02*
G01*
X101712453Y-83259158D01*
X101722557Y-83329432D01*
X101693063Y-83394012D01*
X101686934Y-83400595D01*
X101166206Y-83921323D01*
X101156766Y-83928865D01*
X101157089Y-83929245D01*
X101150253Y-83935063D01*
X101142661Y-83939853D01*
X101136719Y-83946581D01*
X101107329Y-83979859D01*
X101101983Y-83985546D01*
X101090649Y-83996880D01*
X101087964Y-84000463D01*
X101087962Y-84000465D01*
X101084447Y-84005155D01*
X101078062Y-84012998D01*
X101046999Y-84048170D01*
X101043186Y-84056292D01*
X101041346Y-84059093D01*
X101032937Y-84073088D01*
X101031315Y-84076051D01*
X101025930Y-84083236D01*
X101022777Y-84091646D01*
X101022776Y-84091648D01*
X101009454Y-84127182D01*
X101005530Y-84136495D01*
X100985583Y-84178982D01*
X100984201Y-84187856D01*
X100983215Y-84191083D01*
X100979075Y-84206866D01*
X100978354Y-84210144D01*
X100975202Y-84218552D01*
X100974537Y-84227503D01*
X100971724Y-84265357D01*
X100970570Y-84275404D01*
X100968500Y-84288697D01*
X100968500Y-84304062D01*
X100968154Y-84313399D01*
X100964493Y-84362667D01*
X100966366Y-84371442D01*
X100966959Y-84380138D01*
X100968500Y-84394738D01*
X100968500Y-93337839D01*
X100948498Y-93405960D01*
X100931595Y-93426934D01*
X100683044Y-93675485D01*
X100623363Y-93708909D01*
X100611458Y-93711767D01*
X100488563Y-93741271D01*
X100488560Y-93741272D01*
X100481184Y-93743043D01*
X100340414Y-93815700D01*
X100221039Y-93919838D01*
X100129950Y-94049444D01*
X100072406Y-94197037D01*
X100071414Y-94204570D01*
X100071414Y-94204571D01*
X100058511Y-94302583D01*
X100051729Y-94354096D01*
X100069113Y-94511553D01*
X100071723Y-94518684D01*
X100071723Y-94518686D01*
X100120936Y-94653167D01*
X100123553Y-94660319D01*
X100211908Y-94791805D01*
X100217527Y-94796918D01*
X100217528Y-94796919D01*
X100228903Y-94807269D01*
X100329076Y-94898419D01*
X100468293Y-94974008D01*
X100621522Y-95014207D01*
X100705477Y-95015526D01*
X100772319Y-95016576D01*
X100772322Y-95016576D01*
X100779916Y-95016695D01*
X100934332Y-94981329D01*
X101004742Y-94945917D01*
X101069072Y-94913563D01*
X101069075Y-94913561D01*
X101075855Y-94910151D01*
X101081626Y-94905222D01*
X101081629Y-94905220D01*
X101190536Y-94812204D01*
X101190536Y-94812203D01*
X101196314Y-94807269D01*
X101288755Y-94678624D01*
X101347842Y-94531641D01*
X101357518Y-94463647D01*
X101386918Y-94399025D01*
X101393166Y-94392305D01*
X101779794Y-94005677D01*
X101789234Y-93998135D01*
X101788911Y-93997755D01*
X101795747Y-93991937D01*
X101803339Y-93987147D01*
X101838672Y-93947140D01*
X101844017Y-93941454D01*
X101855351Y-93930120D01*
X101858038Y-93926534D01*
X101858043Y-93926529D01*
X101861557Y-93921841D01*
X101867938Y-93914003D01*
X101893058Y-93885559D01*
X101899001Y-93878830D01*
X101902816Y-93870705D01*
X101904669Y-93867884D01*
X101913077Y-93853888D01*
X101914686Y-93850950D01*
X101920071Y-93843764D01*
X101928722Y-93820689D01*
X101936544Y-93799822D01*
X101940471Y-93790501D01*
X101956602Y-93756144D01*
X101956602Y-93756143D01*
X101960417Y-93748018D01*
X101961798Y-93739147D01*
X101962783Y-93735925D01*
X101966923Y-93720142D01*
X101967645Y-93716858D01*
X101970798Y-93708448D01*
X101974276Y-93661643D01*
X101975430Y-93651595D01*
X101976751Y-93643114D01*
X101976751Y-93643113D01*
X101977500Y-93638303D01*
X101977500Y-93622934D01*
X101977847Y-93613596D01*
X101980843Y-93573284D01*
X101980843Y-93573283D01*
X101981508Y-93564333D01*
X101979635Y-93555558D01*
X101979043Y-93546874D01*
X101977500Y-93532258D01*
X101977500Y-85579885D01*
X103544000Y-85579885D01*
X103548475Y-85595124D01*
X103549865Y-85596329D01*
X103557548Y-85598000D01*
X104629885Y-85598000D01*
X104645124Y-85593525D01*
X104646329Y-85592135D01*
X104648000Y-85584452D01*
X104648000Y-84512116D01*
X104643525Y-84496877D01*
X104642135Y-84495672D01*
X104634452Y-84494001D01*
X104007331Y-84494001D01*
X104000510Y-84494371D01*
X103949648Y-84499895D01*
X103934396Y-84503521D01*
X103813946Y-84548676D01*
X103798351Y-84557214D01*
X103696276Y-84633715D01*
X103683715Y-84646276D01*
X103607214Y-84748351D01*
X103598676Y-84763946D01*
X103553522Y-84884394D01*
X103549895Y-84899649D01*
X103544369Y-84950514D01*
X103544000Y-84957328D01*
X103544000Y-85579885D01*
X101977500Y-85579885D01*
X101977500Y-84589162D01*
X101997502Y-84521041D01*
X102014404Y-84500067D01*
X102280065Y-84234405D01*
X102342378Y-84200380D01*
X102369161Y-84197500D01*
X108958839Y-84197500D01*
X109026960Y-84217502D01*
X109047934Y-84234405D01*
X109440595Y-84627066D01*
X109474621Y-84689378D01*
X109477500Y-84716161D01*
X109477500Y-84795214D01*
X109457498Y-84863335D01*
X109415923Y-84903499D01*
X109334978Y-84951656D01*
X109334977Y-84951657D01*
X109330010Y-84954612D01*
X109325670Y-84958418D01*
X109325666Y-84958421D01*
X109181733Y-85084648D01*
X109177392Y-85088455D01*
X109173817Y-85092990D01*
X109173816Y-85092991D01*
X109161512Y-85108599D01*
X109051720Y-85247869D01*
X109049031Y-85252980D01*
X109049029Y-85252983D01*
X109037507Y-85274883D01*
X108957203Y-85427515D01*
X108948828Y-85454487D01*
X108900982Y-85608578D01*
X108897007Y-85621378D01*
X108873148Y-85822964D01*
X108886424Y-86025522D01*
X108887845Y-86031118D01*
X108887846Y-86031123D01*
X108918501Y-86151823D01*
X108936392Y-86222269D01*
X108938809Y-86227512D01*
X108976010Y-86308208D01*
X109021377Y-86406616D01*
X109024710Y-86411332D01*
X109103660Y-86523044D01*
X109138533Y-86572389D01*
X109283938Y-86714035D01*
X109288742Y-86717245D01*
X109342980Y-86753486D01*
X109452720Y-86826812D01*
X109458023Y-86829090D01*
X109458026Y-86829092D01*
X109605327Y-86892377D01*
X109639228Y-86906942D01*
X109712244Y-86923464D01*
X109831579Y-86950467D01*
X109831584Y-86950468D01*
X109837216Y-86951742D01*
X109842987Y-86951969D01*
X109842989Y-86951969D01*
X109902756Y-86954317D01*
X110040053Y-86959712D01*
X110140499Y-86945148D01*
X110235231Y-86931413D01*
X110235236Y-86931412D01*
X110240945Y-86930584D01*
X110246409Y-86928729D01*
X110246414Y-86928728D01*
X110427693Y-86867192D01*
X110427698Y-86867190D01*
X110433165Y-86865334D01*
X110460366Y-86850101D01*
X110514822Y-86819604D01*
X110610276Y-86766147D01*
X110625495Y-86753490D01*
X110761913Y-86640031D01*
X110766345Y-86636345D01*
X110873008Y-86508098D01*
X110892453Y-86484718D01*
X110892455Y-86484715D01*
X110896147Y-86480276D01*
X110995334Y-86303165D01*
X110997190Y-86297698D01*
X110997192Y-86297693D01*
X111058728Y-86116414D01*
X111058729Y-86116409D01*
X111060584Y-86110945D01*
X111061412Y-86105236D01*
X111061413Y-86105231D01*
X111086071Y-85935163D01*
X111089712Y-85910053D01*
X111091232Y-85852000D01*
X111079797Y-85727551D01*
X111073187Y-85655613D01*
X111073186Y-85655610D01*
X111072658Y-85649859D01*
X111071090Y-85644299D01*
X111019125Y-85460046D01*
X111019124Y-85460044D01*
X111017557Y-85454487D01*
X111011926Y-85443067D01*
X110930331Y-85277609D01*
X110927776Y-85272428D01*
X110922468Y-85265319D01*
X110885800Y-85216215D01*
X110806320Y-85109779D01*
X110657258Y-84971987D01*
X110652375Y-84968906D01*
X110652371Y-84968903D01*
X110545265Y-84901325D01*
X110498326Y-84848058D01*
X110486500Y-84794763D01*
X110486500Y-84525630D01*
X110487842Y-84513622D01*
X110487346Y-84513582D01*
X110488066Y-84504631D01*
X110490047Y-84495877D01*
X110489177Y-84481862D01*
X128532950Y-84481862D01*
X128532986Y-84482704D01*
X128538037Y-84490826D01*
X130670190Y-86622980D01*
X130684131Y-86630592D01*
X130685966Y-86630461D01*
X130692580Y-86626210D01*
X132825798Y-84492991D01*
X132833412Y-84479047D01*
X132833344Y-84478089D01*
X132828836Y-84471272D01*
X132827418Y-84470065D01*
X132547813Y-84257064D01*
X132542187Y-84253240D01*
X132241214Y-84071681D01*
X132235202Y-84068484D01*
X131916370Y-83920487D01*
X131910070Y-83917967D01*
X131577129Y-83805273D01*
X131570551Y-83803437D01*
X131227417Y-83727367D01*
X131220678Y-83726251D01*
X130871310Y-83687680D01*
X130864529Y-83687301D01*
X130513015Y-83686687D01*
X130506242Y-83687042D01*
X130156720Y-83724395D01*
X130150010Y-83725482D01*
X129806586Y-83800361D01*
X129800011Y-83802172D01*
X129466683Y-83913702D01*
X129460361Y-83916205D01*
X129141034Y-84063079D01*
X129134991Y-84066265D01*
X128833401Y-84246763D01*
X128827755Y-84250571D01*
X128547408Y-84462596D01*
X128542211Y-84466987D01*
X128540972Y-84468155D01*
X128532950Y-84481862D01*
X110489177Y-84481862D01*
X110486742Y-84442607D01*
X110486500Y-84434805D01*
X110486500Y-84418774D01*
X110485035Y-84408541D01*
X110484004Y-84398481D01*
X110481654Y-84360601D01*
X110481654Y-84360600D01*
X110481098Y-84351642D01*
X110478050Y-84343199D01*
X110477371Y-84339920D01*
X110473416Y-84324055D01*
X110472473Y-84320831D01*
X110471201Y-84311948D01*
X110467487Y-84303779D01*
X110467485Y-84303773D01*
X110451775Y-84269221D01*
X110447961Y-84259852D01*
X110445574Y-84253240D01*
X110432028Y-84215716D01*
X110426731Y-84208466D01*
X110425154Y-84205499D01*
X110416907Y-84191386D01*
X110415102Y-84188563D01*
X110411388Y-84180395D01*
X110380753Y-84144842D01*
X110374475Y-84136936D01*
X110366527Y-84126056D01*
X110355665Y-84115194D01*
X110349307Y-84108347D01*
X110322915Y-84077718D01*
X110317056Y-84070918D01*
X110309521Y-84066034D01*
X110302949Y-84060301D01*
X110291545Y-84051074D01*
X109641066Y-83400595D01*
X109607040Y-83338283D01*
X109612105Y-83267468D01*
X109654652Y-83210632D01*
X109721172Y-83185821D01*
X109730161Y-83185500D01*
X130778918Y-83185500D01*
X130799369Y-83187171D01*
X130806400Y-83188328D01*
X130806402Y-83188328D01*
X130818647Y-83190342D01*
X130830731Y-83187517D01*
X130843135Y-83187103D01*
X130854143Y-83185921D01*
X131161378Y-83190765D01*
X131173704Y-83191566D01*
X131508287Y-83229854D01*
X131520474Y-83231859D01*
X131761130Y-83283686D01*
X131849681Y-83302756D01*
X131861626Y-83305949D01*
X132156798Y-83400595D01*
X132182296Y-83408771D01*
X132193870Y-83413119D01*
X132502915Y-83546877D01*
X132513989Y-83552329D01*
X132620619Y-83611504D01*
X132808456Y-83715746D01*
X132818947Y-83722261D01*
X133095985Y-83913758D01*
X133105770Y-83921258D01*
X133296915Y-84083236D01*
X133362686Y-84138971D01*
X133371716Y-84147418D01*
X133449315Y-84227503D01*
X133571613Y-84353719D01*
X133606055Y-84389265D01*
X133614212Y-84398556D01*
X133811058Y-84646276D01*
X133823708Y-84662196D01*
X133830916Y-84672241D01*
X133864040Y-84723548D01*
X134013565Y-84955152D01*
X134019754Y-84965856D01*
X134031306Y-84988312D01*
X134173806Y-85265331D01*
X134178898Y-85276551D01*
X134302862Y-85589701D01*
X134306833Y-85601377D01*
X134399497Y-85925143D01*
X134402308Y-85937163D01*
X134455318Y-86227512D01*
X134462792Y-86268450D01*
X134464413Y-86280706D01*
X134488504Y-86572389D01*
X134489705Y-86586933D01*
X134489258Y-86598010D01*
X134489671Y-86610404D01*
X134487658Y-86622645D01*
X134490482Y-86634724D01*
X134490748Y-86642706D01*
X134492500Y-86657890D01*
X134492499Y-122904917D01*
X134490828Y-122925368D01*
X134489805Y-122931589D01*
X134487657Y-122944646D01*
X134490482Y-122956730D01*
X134490896Y-122969134D01*
X134492078Y-122980142D01*
X134487727Y-123256123D01*
X134487234Y-123287370D01*
X134486433Y-123299703D01*
X134448146Y-123634279D01*
X134446139Y-123646480D01*
X134375243Y-123975680D01*
X134372050Y-123987625D01*
X134308790Y-124184912D01*
X134274818Y-124290863D01*
X134269228Y-124308295D01*
X134264879Y-124319870D01*
X134131126Y-124628905D01*
X134125664Y-124639999D01*
X133962257Y-124934449D01*
X133955734Y-124944953D01*
X133764252Y-125221970D01*
X133756730Y-125231784D01*
X133539028Y-125488686D01*
X133530581Y-125497716D01*
X133328432Y-125693589D01*
X133288734Y-125732054D01*
X133279443Y-125740211D01*
X133105141Y-125878717D01*
X133015807Y-125949704D01*
X133005760Y-125956913D01*
X132722838Y-126139570D01*
X132712136Y-126145758D01*
X132412672Y-126299804D01*
X132401428Y-126304905D01*
X132088316Y-126428854D01*
X132076622Y-126432832D01*
X131752856Y-126525496D01*
X131740836Y-126528307D01*
X131409546Y-126588791D01*
X131397293Y-126590412D01*
X131091064Y-126615704D01*
X131079989Y-126615257D01*
X131067596Y-126615670D01*
X131055354Y-126613657D01*
X131043271Y-126616482D01*
X131036157Y-126616719D01*
X131019960Y-126618608D01*
X125224405Y-126632989D01*
X125156235Y-126613156D01*
X125109610Y-126559616D01*
X125099331Y-126489367D01*
X125128664Y-126424713D01*
X125134998Y-126417894D01*
X125996591Y-125556301D01*
X126008982Y-125545434D01*
X126027581Y-125531163D01*
X126027584Y-125531160D01*
X126034134Y-125526134D01*
X126051410Y-125503621D01*
X126059815Y-125492667D01*
X126069374Y-125480208D01*
X126069381Y-125480203D01*
X126069379Y-125480202D01*
X126126004Y-125406408D01*
X126131030Y-125399858D01*
X126135254Y-125389662D01*
X126161879Y-125325381D01*
X128532160Y-125325381D01*
X128532237Y-125326470D01*
X128534698Y-125330206D01*
X128808632Y-125540404D01*
X128814262Y-125544259D01*
X129114591Y-125726862D01*
X129120593Y-125730080D01*
X129438897Y-125879184D01*
X129445202Y-125881732D01*
X129777743Y-125995587D01*
X129784313Y-125997446D01*
X130127183Y-126074714D01*
X130133912Y-126075853D01*
X130483143Y-126115643D01*
X130489933Y-126116046D01*
X130841419Y-126117886D01*
X130848220Y-126117554D01*
X131197853Y-126081423D01*
X131204581Y-126080357D01*
X131548274Y-126006676D01*
X131554822Y-126004897D01*
X131888549Y-125894527D01*
X131894891Y-125892041D01*
X132214718Y-125746288D01*
X132220777Y-125743121D01*
X132522995Y-125563676D01*
X132528659Y-125559884D01*
X132809732Y-125348849D01*
X132814958Y-125344464D01*
X132824613Y-125335428D01*
X132832682Y-125321750D01*
X132832654Y-125321024D01*
X132827512Y-125312723D01*
X130695810Y-123181020D01*
X130681869Y-123173408D01*
X130680034Y-123173539D01*
X130673420Y-123177790D01*
X128539774Y-125311437D01*
X128532160Y-125325381D01*
X126161879Y-125325381D01*
X126179566Y-125282681D01*
X126188781Y-125260434D01*
X126191941Y-125252806D01*
X126199156Y-125198005D01*
X126211638Y-125103188D01*
X126212716Y-125095000D01*
X126208578Y-125063567D01*
X126207500Y-125047122D01*
X126207500Y-124564011D01*
X126227502Y-124495890D01*
X126252931Y-124467137D01*
X126382908Y-124359036D01*
X126382913Y-124359031D01*
X126387345Y-124355345D01*
X126440973Y-124290865D01*
X126513453Y-124203718D01*
X126513455Y-124203715D01*
X126517147Y-124199276D01*
X126586692Y-124075094D01*
X126613510Y-124027208D01*
X126613511Y-124027206D01*
X126616334Y-124022165D01*
X126618190Y-124016698D01*
X126618192Y-124016693D01*
X126679728Y-123835414D01*
X126679729Y-123835409D01*
X126681584Y-123829945D01*
X126682412Y-123824236D01*
X126682413Y-123824231D01*
X126708185Y-123646480D01*
X126710712Y-123629053D01*
X126712232Y-123571000D01*
X126693658Y-123368859D01*
X126686666Y-123344066D01*
X126640125Y-123179046D01*
X126640124Y-123179044D01*
X126638557Y-123173487D01*
X126634560Y-123165380D01*
X126551331Y-122996609D01*
X126548776Y-122991428D01*
X126427320Y-122828779D01*
X126397087Y-122800832D01*
X127370333Y-122800832D01*
X127388117Y-123151893D01*
X127388827Y-123158649D01*
X127444420Y-123505723D01*
X127445859Y-123512378D01*
X127538608Y-123851410D01*
X127540757Y-123857871D01*
X127669581Y-124184912D01*
X127672412Y-124191095D01*
X127835803Y-124502310D01*
X127839286Y-124508152D01*
X128035330Y-124799896D01*
X128039433Y-124805340D01*
X128159425Y-124947836D01*
X128172164Y-124956279D01*
X128182608Y-124950181D01*
X130310980Y-122821810D01*
X130317357Y-122810131D01*
X131047408Y-122810131D01*
X131047539Y-122811966D01*
X131051790Y-122818580D01*
X133182009Y-124948798D01*
X133195605Y-124956223D01*
X133205218Y-124949522D01*
X133305518Y-124832912D01*
X133309676Y-124827514D01*
X133508762Y-124537840D01*
X133512310Y-124532029D01*
X133678942Y-124222559D01*
X133681849Y-124216381D01*
X133814090Y-123890713D01*
X133816304Y-123884283D01*
X133912598Y-123546237D01*
X133914105Y-123539607D01*
X133973332Y-123193118D01*
X133974112Y-123186378D01*
X133995668Y-122833925D01*
X133995784Y-122830323D01*
X133995853Y-122810819D01*
X133995761Y-122807194D01*
X133976666Y-122454615D01*
X133975931Y-122447849D01*
X133919130Y-122100985D01*
X133917663Y-122094313D01*
X133823736Y-121755627D01*
X133821562Y-121749163D01*
X133691598Y-121422578D01*
X133688742Y-121416398D01*
X133524269Y-121105763D01*
X133520769Y-121099937D01*
X133323697Y-120808862D01*
X133319590Y-120803453D01*
X133206565Y-120670179D01*
X133193740Y-120661743D01*
X133183416Y-120667795D01*
X131055020Y-122796190D01*
X131047408Y-122810131D01*
X130317357Y-122810131D01*
X130318592Y-122807869D01*
X130318461Y-122806034D01*
X130314210Y-122799420D01*
X128183992Y-120669203D01*
X128170455Y-120661811D01*
X128160753Y-120668599D01*
X128053430Y-120794257D01*
X128049296Y-120799664D01*
X127851215Y-121090041D01*
X127847697Y-121095851D01*
X127682134Y-121405922D01*
X127679259Y-121412087D01*
X127548155Y-121738218D01*
X127545962Y-121744658D01*
X127450846Y-122083044D01*
X127449363Y-122089679D01*
X127391350Y-122436354D01*
X127390591Y-122443126D01*
X127370357Y-122794037D01*
X127370333Y-122800832D01*
X126397087Y-122800832D01*
X126295001Y-122706464D01*
X126282503Y-122694911D01*
X126278258Y-122690987D01*
X126273375Y-122687906D01*
X126273371Y-122687903D01*
X126111464Y-122585748D01*
X126106581Y-122582667D01*
X125918039Y-122507446D01*
X125912379Y-122506320D01*
X125912375Y-122506319D01*
X125724613Y-122468971D01*
X125724610Y-122468971D01*
X125718946Y-122467844D01*
X125713171Y-122467768D01*
X125713167Y-122467768D01*
X125611793Y-122466441D01*
X125515971Y-122465187D01*
X125510274Y-122466166D01*
X125510273Y-122466166D01*
X125382032Y-122488202D01*
X125315910Y-122499564D01*
X125125463Y-122569824D01*
X124951010Y-122673612D01*
X124946670Y-122677418D01*
X124946666Y-122677421D01*
X124811237Y-122796190D01*
X124798392Y-122807455D01*
X124672720Y-122966869D01*
X124668705Y-122974501D01*
X124667009Y-122977724D01*
X124617590Y-123028698D01*
X124548458Y-123044861D01*
X124481561Y-123021083D01*
X124438140Y-122964913D01*
X124429500Y-122919058D01*
X124429500Y-122206658D01*
X124449502Y-122138537D01*
X124503158Y-122092044D01*
X124573432Y-122081940D01*
X124625500Y-122101892D01*
X124653699Y-122120734D01*
X124727933Y-122135500D01*
X125602858Y-122135500D01*
X126478066Y-122135499D01*
X126513818Y-122128388D01*
X126540126Y-122123156D01*
X126540128Y-122123155D01*
X126552301Y-122120734D01*
X126562621Y-122113839D01*
X126562622Y-122113838D01*
X126626168Y-122071377D01*
X126636484Y-122064484D01*
X126692734Y-121980301D01*
X126707500Y-121906067D01*
X126707499Y-120295862D01*
X128532950Y-120295862D01*
X128532986Y-120296704D01*
X128538037Y-120304826D01*
X130670190Y-122436980D01*
X130684131Y-122444592D01*
X130685966Y-122444461D01*
X130692580Y-122440210D01*
X132825798Y-120306991D01*
X132833412Y-120293047D01*
X132833344Y-120292089D01*
X132828836Y-120285272D01*
X132827418Y-120284065D01*
X132547813Y-120071064D01*
X132542187Y-120067240D01*
X132241214Y-119885681D01*
X132235202Y-119882484D01*
X131916370Y-119734487D01*
X131910070Y-119731967D01*
X131577129Y-119619273D01*
X131570551Y-119617437D01*
X131227417Y-119541367D01*
X131220678Y-119540251D01*
X130871310Y-119501680D01*
X130864529Y-119501301D01*
X130513015Y-119500687D01*
X130506242Y-119501042D01*
X130156720Y-119538395D01*
X130150010Y-119539482D01*
X129806586Y-119614361D01*
X129800011Y-119616172D01*
X129466683Y-119727702D01*
X129460361Y-119730205D01*
X129141034Y-119877079D01*
X129134991Y-119880265D01*
X128833401Y-120060763D01*
X128827755Y-120064571D01*
X128547408Y-120276596D01*
X128542211Y-120280987D01*
X128540972Y-120282155D01*
X128532950Y-120295862D01*
X126707499Y-120295862D01*
X126707499Y-120155934D01*
X126692734Y-120081699D01*
X126681290Y-120064571D01*
X126643377Y-120007832D01*
X126636484Y-119997516D01*
X126552301Y-119941266D01*
X126478067Y-119926500D01*
X125603142Y-119926500D01*
X124727934Y-119926501D01*
X124692182Y-119933612D01*
X124665874Y-119938844D01*
X124665872Y-119938845D01*
X124653699Y-119941266D01*
X124643379Y-119948161D01*
X124643378Y-119948162D01*
X124593183Y-119981702D01*
X124569516Y-119997516D01*
X124513266Y-120081699D01*
X124498500Y-120155933D01*
X124498500Y-120299398D01*
X124478498Y-120367519D01*
X124424842Y-120414012D01*
X124356054Y-120424320D01*
X124341189Y-120422363D01*
X124341188Y-120422363D01*
X124333000Y-120421285D01*
X124324812Y-120422363D01*
X124324810Y-120422363D01*
X124293392Y-120426499D01*
X124293383Y-120426500D01*
X124293381Y-120426500D01*
X124293375Y-120426501D01*
X124293373Y-120426501D01*
X124192486Y-120439783D01*
X124183377Y-120440982D01*
X124183374Y-120440983D01*
X124175193Y-120442060D01*
X124167567Y-120445219D01*
X124167566Y-120445219D01*
X124132123Y-120459900D01*
X124035770Y-120499810D01*
X124035768Y-120499811D01*
X124028142Y-120502970D01*
X123992524Y-120530301D01*
X123933568Y-120575539D01*
X123933564Y-120575543D01*
X123901866Y-120599866D01*
X123882567Y-120625017D01*
X123871706Y-120637401D01*
X123431406Y-121077702D01*
X123419021Y-121088564D01*
X123393866Y-121107866D01*
X123388840Y-121114416D01*
X123346396Y-121169730D01*
X123296970Y-121234142D01*
X123293810Y-121241772D01*
X123268634Y-121302551D01*
X123251448Y-121344041D01*
X123236059Y-121381194D01*
X123234982Y-121389378D01*
X123234981Y-121389380D01*
X123223568Y-121476075D01*
X123215284Y-121539000D01*
X123219422Y-121570432D01*
X123220500Y-121586878D01*
X123220500Y-123094500D01*
X123200498Y-123162621D01*
X123146842Y-123209114D01*
X123094500Y-123220500D01*
X122556017Y-123220500D01*
X122487896Y-123200498D01*
X122451252Y-123164502D01*
X122447474Y-123158847D01*
X122402484Y-123091516D01*
X122333635Y-123045512D01*
X122288108Y-122991036D01*
X122278157Y-122943243D01*
X122278716Y-122939000D01*
X122257941Y-122781194D01*
X122227326Y-122707285D01*
X122197030Y-122634142D01*
X122157628Y-122582792D01*
X122105160Y-122514416D01*
X122100134Y-122507866D01*
X122074982Y-122488566D01*
X122062591Y-122477699D01*
X121505905Y-121921013D01*
X121478532Y-121870884D01*
X121977000Y-121870884D01*
X121981475Y-121886123D01*
X121982865Y-121887328D01*
X121990548Y-121888999D01*
X122267669Y-121888999D01*
X122274490Y-121888629D01*
X122325352Y-121883105D01*
X122340604Y-121879479D01*
X122461054Y-121834324D01*
X122476649Y-121825786D01*
X122578724Y-121749285D01*
X122591285Y-121736724D01*
X122667786Y-121634649D01*
X122676324Y-121619054D01*
X122721478Y-121498606D01*
X122725105Y-121483351D01*
X122730631Y-121432486D01*
X122731000Y-121425672D01*
X122731000Y-121303115D01*
X122726525Y-121287876D01*
X122725135Y-121286671D01*
X122717452Y-121285000D01*
X121995115Y-121285000D01*
X121979876Y-121289475D01*
X121978671Y-121290865D01*
X121977000Y-121298548D01*
X121977000Y-121870884D01*
X121478532Y-121870884D01*
X121471879Y-121858701D01*
X121469000Y-121831918D01*
X121469000Y-121303115D01*
X121464525Y-121287876D01*
X121463135Y-121286671D01*
X121455452Y-121285000D01*
X120733116Y-121285000D01*
X120717877Y-121289475D01*
X120704607Y-121304789D01*
X120685603Y-121339594D01*
X120623291Y-121373620D01*
X120596506Y-121376500D01*
X119283381Y-121376500D01*
X119283378Y-121376501D01*
X118797934Y-121376501D01*
X118762182Y-121383612D01*
X118735874Y-121388844D01*
X118735872Y-121388845D01*
X118723699Y-121391266D01*
X118713379Y-121398161D01*
X118713378Y-121398162D01*
X118676838Y-121422578D01*
X118639516Y-121447516D01*
X118583266Y-121531699D01*
X118568500Y-121605933D01*
X118568501Y-122356066D01*
X118570464Y-122365935D01*
X118580050Y-122414131D01*
X118583266Y-122430301D01*
X118590161Y-122440621D01*
X118590162Y-122440622D01*
X118615598Y-122478689D01*
X118639516Y-122514484D01*
X118723699Y-122570734D01*
X118797933Y-122585500D01*
X120408418Y-122585500D01*
X120476539Y-122605502D01*
X120497513Y-122622405D01*
X120874857Y-122999749D01*
X120908883Y-123062061D01*
X120903818Y-123132876D01*
X120890529Y-123158842D01*
X120879266Y-123175699D01*
X120864500Y-123249933D01*
X120864501Y-124400066D01*
X120870142Y-124428426D01*
X120873673Y-124446179D01*
X120879266Y-124474301D01*
X120886161Y-124484620D01*
X120886162Y-124484622D01*
X120917839Y-124532029D01*
X120935516Y-124558484D01*
X121019699Y-124614734D01*
X121093933Y-124629500D01*
X121668907Y-124629500D01*
X122244066Y-124629499D01*
X122284927Y-124621372D01*
X122306126Y-124617156D01*
X122306128Y-124617155D01*
X122318301Y-124614734D01*
X122328621Y-124607839D01*
X122328622Y-124607838D01*
X122392168Y-124565377D01*
X122402484Y-124558484D01*
X122451253Y-124485497D01*
X122505729Y-124439970D01*
X122556017Y-124429500D01*
X123396122Y-124429500D01*
X123412567Y-124430578D01*
X123444000Y-124434716D01*
X123452188Y-124433638D01*
X123456769Y-124433035D01*
X123483621Y-124429500D01*
X123593620Y-124415019D01*
X123593622Y-124415018D01*
X123601806Y-124413941D01*
X123675332Y-124383485D01*
X123748858Y-124353030D01*
X123779372Y-124329616D01*
X123868584Y-124261160D01*
X123875134Y-124256134D01*
X123894434Y-124230982D01*
X123905301Y-124218591D01*
X124218591Y-123905301D01*
X124230982Y-123894434D01*
X124249584Y-123880160D01*
X124256134Y-123875134D01*
X124311718Y-123802696D01*
X124369055Y-123760830D01*
X124439926Y-123756608D01*
X124501828Y-123791372D01*
X124533802Y-123848385D01*
X124557392Y-123941269D01*
X124559809Y-123946512D01*
X124627132Y-124092548D01*
X124642377Y-124125616D01*
X124645710Y-124130332D01*
X124754303Y-124283988D01*
X124759533Y-124291389D01*
X124763675Y-124295424D01*
X124771575Y-124303120D01*
X124904938Y-124433035D01*
X124942502Y-124458135D01*
X124988029Y-124512610D01*
X124998500Y-124562899D01*
X124998500Y-124792418D01*
X124978498Y-124860539D01*
X124961595Y-124881513D01*
X124373513Y-125469595D01*
X124311201Y-125503621D01*
X124284418Y-125506500D01*
X120190582Y-125506500D01*
X120122461Y-125486498D01*
X120101487Y-125469595D01*
X119510405Y-124878513D01*
X119476379Y-124816201D01*
X119473500Y-124789418D01*
X119473500Y-124712017D01*
X119493502Y-124643896D01*
X119529498Y-124607252D01*
X119543474Y-124597914D01*
X119602484Y-124558484D01*
X119658734Y-124474301D01*
X119673500Y-124400067D01*
X119673499Y-123249934D01*
X119664350Y-123203933D01*
X119661156Y-123187874D01*
X119661155Y-123187872D01*
X119658734Y-123175699D01*
X119651253Y-123164502D01*
X119609377Y-123101832D01*
X119602484Y-123091516D01*
X119558115Y-123061869D01*
X119528620Y-123042161D01*
X119518301Y-123035266D01*
X119444067Y-123020500D01*
X118869093Y-123020500D01*
X118293934Y-123020501D01*
X118258182Y-123027612D01*
X118231874Y-123032844D01*
X118231872Y-123032845D01*
X118219699Y-123035266D01*
X118209379Y-123042161D01*
X118209378Y-123042162D01*
X118179885Y-123061869D01*
X118135516Y-123091516D01*
X118079266Y-123175699D01*
X118064500Y-123249933D01*
X118064501Y-124400066D01*
X118070142Y-124428426D01*
X118073673Y-124446179D01*
X118079266Y-124474301D01*
X118086161Y-124484620D01*
X118086162Y-124484622D01*
X118117839Y-124532029D01*
X118135516Y-124558484D01*
X118194527Y-124597914D01*
X118208502Y-124607252D01*
X118254030Y-124661729D01*
X118264500Y-124712017D01*
X118264500Y-124930839D01*
X118244498Y-124998960D01*
X118227595Y-125019934D01*
X117677934Y-125569595D01*
X117615622Y-125603621D01*
X117588839Y-125606500D01*
X110095492Y-125606500D01*
X110027371Y-125586498D01*
X109980878Y-125532842D01*
X109970796Y-125462420D01*
X109987899Y-125344464D01*
X109996857Y-125282681D01*
X109998446Y-125222000D01*
X109983136Y-125055379D01*
X109979560Y-125016462D01*
X109979559Y-125016459D01*
X109979031Y-125010708D01*
X109973847Y-124992325D01*
X109923004Y-124812051D01*
X109923003Y-124812049D01*
X109921436Y-124806492D01*
X109918184Y-124799896D01*
X109830145Y-124621372D01*
X109827590Y-124616191D01*
X109789646Y-124565377D01*
X109739151Y-124497756D01*
X111718500Y-124497756D01*
X111718869Y-124501152D01*
X111718869Y-124501153D01*
X111723977Y-124548168D01*
X111725202Y-124559448D01*
X111727974Y-124566841D01*
X111727974Y-124566843D01*
X111736850Y-124590520D01*
X111775929Y-124694764D01*
X111781309Y-124701943D01*
X111781311Y-124701946D01*
X111788859Y-124712017D01*
X111862596Y-124810404D01*
X111869776Y-124815785D01*
X111971054Y-124891689D01*
X111971057Y-124891691D01*
X111978236Y-124897071D01*
X112061196Y-124928171D01*
X112106157Y-124945026D01*
X112106159Y-124945026D01*
X112113552Y-124947798D01*
X112121402Y-124948651D01*
X112121403Y-124948651D01*
X112171249Y-124954066D01*
X112175244Y-124954500D01*
X113070756Y-124954500D01*
X113074751Y-124954066D01*
X113124597Y-124948651D01*
X113124598Y-124948651D01*
X113132448Y-124947798D01*
X113139841Y-124945026D01*
X113139843Y-124945026D01*
X113184804Y-124928171D01*
X113267764Y-124897071D01*
X113274943Y-124891691D01*
X113274946Y-124891689D01*
X113376224Y-124815785D01*
X113383404Y-124810404D01*
X113457141Y-124712017D01*
X113464689Y-124701946D01*
X113464691Y-124701943D01*
X113470071Y-124694764D01*
X113509150Y-124590520D01*
X113518026Y-124566843D01*
X113518026Y-124566841D01*
X113520798Y-124559448D01*
X113522270Y-124545898D01*
X113549511Y-124480336D01*
X113607873Y-124439908D01*
X113648554Y-124436038D01*
X113648554Y-124433638D01*
X113656811Y-124433638D01*
X113665000Y-124434716D01*
X113673188Y-124433638D01*
X113677769Y-124433035D01*
X113704621Y-124429500D01*
X113814620Y-124415019D01*
X113814622Y-124415018D01*
X113822806Y-124413941D01*
X113896332Y-124383485D01*
X113969858Y-124353030D01*
X114000372Y-124329616D01*
X114089584Y-124261160D01*
X114096134Y-124256134D01*
X114115436Y-124230979D01*
X114126298Y-124218595D01*
X114349905Y-123994988D01*
X114412217Y-123960962D01*
X114483032Y-123966027D01*
X114539868Y-124008574D01*
X114564679Y-124075094D01*
X114565000Y-124084083D01*
X114565001Y-124497095D01*
X114565338Y-124503614D01*
X114575257Y-124599206D01*
X114578149Y-124612600D01*
X114629588Y-124766784D01*
X114635761Y-124779962D01*
X114721063Y-124917807D01*
X114730099Y-124929208D01*
X114844829Y-125043739D01*
X114856240Y-125052751D01*
X114994243Y-125137816D01*
X115007424Y-125143963D01*
X115161710Y-125195138D01*
X115175086Y-125198005D01*
X115269438Y-125207672D01*
X115275854Y-125208000D01*
X115450885Y-125208000D01*
X115466124Y-125203525D01*
X115467329Y-125202135D01*
X115469000Y-125194452D01*
X115469000Y-125189884D01*
X115977000Y-125189884D01*
X115981475Y-125205123D01*
X115982865Y-125206328D01*
X115990548Y-125207999D01*
X116170095Y-125207999D01*
X116176614Y-125207662D01*
X116272206Y-125197743D01*
X116285600Y-125194851D01*
X116439784Y-125143412D01*
X116452962Y-125137239D01*
X116590807Y-125051937D01*
X116602208Y-125042901D01*
X116716739Y-124928171D01*
X116725751Y-124916760D01*
X116810816Y-124778757D01*
X116816963Y-124765576D01*
X116868138Y-124611290D01*
X116871005Y-124597914D01*
X116880672Y-124503562D01*
X116881000Y-124497146D01*
X116881000Y-124097115D01*
X116876525Y-124081876D01*
X116875135Y-124080671D01*
X116867452Y-124079000D01*
X115995115Y-124079000D01*
X115979876Y-124083475D01*
X115978671Y-124084865D01*
X115977000Y-124092548D01*
X115977000Y-125189884D01*
X115469000Y-125189884D01*
X115469000Y-123697000D01*
X115489002Y-123628879D01*
X115542658Y-123582386D01*
X115595000Y-123571000D01*
X116862884Y-123571000D01*
X116878123Y-123566525D01*
X116879328Y-123565135D01*
X116880999Y-123557452D01*
X116880999Y-123152905D01*
X116880662Y-123146386D01*
X116870743Y-123050794D01*
X116867851Y-123037400D01*
X116816412Y-122883216D01*
X116810239Y-122870038D01*
X116724937Y-122732193D01*
X116715901Y-122720792D01*
X116601171Y-122606261D01*
X116589760Y-122597249D01*
X116532028Y-122561663D01*
X116484535Y-122508891D01*
X116473111Y-122438820D01*
X116497318Y-122378838D01*
X116506989Y-122365935D01*
X116552890Y-122304689D01*
X116564689Y-122288946D01*
X116564691Y-122288943D01*
X116570071Y-122281764D01*
X116620798Y-122146448D01*
X116621658Y-122138537D01*
X116627131Y-122088153D01*
X116627131Y-122088152D01*
X116627500Y-122084756D01*
X116627500Y-121414582D01*
X116647502Y-121346461D01*
X116664405Y-121325487D01*
X117231007Y-120758885D01*
X120715000Y-120758885D01*
X120719475Y-120774124D01*
X120720865Y-120775329D01*
X120728548Y-120777000D01*
X121450885Y-120777000D01*
X121466124Y-120772525D01*
X121467329Y-120771135D01*
X121469000Y-120763452D01*
X121469000Y-120758885D01*
X121977000Y-120758885D01*
X121981475Y-120774124D01*
X121982865Y-120775329D01*
X121990548Y-120777000D01*
X122712884Y-120777000D01*
X122728123Y-120772525D01*
X122729328Y-120771135D01*
X122730999Y-120763452D01*
X122730999Y-120636331D01*
X122730629Y-120629510D01*
X122725105Y-120578648D01*
X122721479Y-120563396D01*
X122676324Y-120442946D01*
X122667786Y-120427351D01*
X122591285Y-120325276D01*
X122578724Y-120312715D01*
X122476649Y-120236214D01*
X122461054Y-120227676D01*
X122340606Y-120182522D01*
X122325351Y-120178895D01*
X122274486Y-120173369D01*
X122267672Y-120173000D01*
X121995115Y-120173000D01*
X121979876Y-120177475D01*
X121978671Y-120178865D01*
X121977000Y-120186548D01*
X121977000Y-120758885D01*
X121469000Y-120758885D01*
X121469000Y-120191116D01*
X121464525Y-120175877D01*
X121463135Y-120174672D01*
X121455452Y-120173001D01*
X121178331Y-120173001D01*
X121171510Y-120173371D01*
X121120648Y-120178895D01*
X121105396Y-120182521D01*
X120984946Y-120227676D01*
X120969351Y-120236214D01*
X120867276Y-120312715D01*
X120854715Y-120325276D01*
X120778214Y-120427351D01*
X120769676Y-120442946D01*
X120724522Y-120563394D01*
X120720895Y-120578649D01*
X120715369Y-120629514D01*
X120715000Y-120636328D01*
X120715000Y-120758885D01*
X117231007Y-120758885D01*
X117267487Y-120722405D01*
X117329799Y-120688379D01*
X117356582Y-120685500D01*
X119062621Y-120685500D01*
X119848066Y-120685499D01*
X119888022Y-120677552D01*
X119910126Y-120673156D01*
X119910128Y-120673155D01*
X119922301Y-120670734D01*
X119932621Y-120663839D01*
X119932622Y-120663838D01*
X119996168Y-120621377D01*
X120006484Y-120614484D01*
X120062734Y-120530301D01*
X120077500Y-120456067D01*
X120077499Y-119705934D01*
X120070388Y-119670182D01*
X120065156Y-119643874D01*
X120065155Y-119643872D01*
X120062734Y-119631699D01*
X120053205Y-119617437D01*
X120013377Y-119557832D01*
X120006484Y-119547516D01*
X119922301Y-119491266D01*
X119848067Y-119476500D01*
X119841880Y-119476500D01*
X119063386Y-119476501D01*
X119062623Y-119476501D01*
X119062619Y-119476500D01*
X117101871Y-119476500D01*
X117085426Y-119475422D01*
X117062189Y-119472363D01*
X117054000Y-119471285D01*
X117045811Y-119472363D01*
X117045810Y-119472363D01*
X117014389Y-119476499D01*
X117014381Y-119476500D01*
X116977314Y-119481380D01*
X116977313Y-119481380D01*
X116904378Y-119490981D01*
X116904374Y-119490982D01*
X116896193Y-119492059D01*
X116888571Y-119495216D01*
X116888568Y-119495217D01*
X116851958Y-119510382D01*
X116810053Y-119527740D01*
X116749142Y-119552970D01*
X116742591Y-119557997D01*
X116742589Y-119557998D01*
X116666776Y-119616172D01*
X116622866Y-119649866D01*
X116617840Y-119656416D01*
X116603566Y-119675018D01*
X116592699Y-119687409D01*
X116034513Y-120245595D01*
X115972201Y-120279621D01*
X115945418Y-120282500D01*
X115275244Y-120282500D01*
X115271848Y-120282869D01*
X115271847Y-120282869D01*
X115221403Y-120288349D01*
X115221402Y-120288349D01*
X115213552Y-120289202D01*
X115206159Y-120291974D01*
X115206157Y-120291974D01*
X115185207Y-120299828D01*
X115078236Y-120339929D01*
X115071057Y-120345309D01*
X115071054Y-120345311D01*
X115012712Y-120389036D01*
X114962596Y-120426596D01*
X114957215Y-120433776D01*
X114881311Y-120535054D01*
X114881309Y-120535057D01*
X114875929Y-120542236D01*
X114843212Y-120629510D01*
X114828860Y-120667795D01*
X114825202Y-120677552D01*
X114824349Y-120685403D01*
X114824349Y-120685404D01*
X114823730Y-120691102D01*
X114796490Y-120756665D01*
X114738128Y-120797092D01*
X114697446Y-120800963D01*
X114697446Y-120803363D01*
X114689188Y-120803363D01*
X114681000Y-120802285D01*
X114672812Y-120803363D01*
X114672811Y-120803363D01*
X114641394Y-120807499D01*
X114641382Y-120807500D01*
X114641379Y-120807500D01*
X114641370Y-120807501D01*
X114548419Y-120819739D01*
X114531379Y-120821982D01*
X114531377Y-120821983D01*
X114523193Y-120823060D01*
X114515568Y-120826219D01*
X114515566Y-120826219D01*
X114494737Y-120834847D01*
X114376142Y-120883970D01*
X114369594Y-120888994D01*
X114369588Y-120888998D01*
X114327505Y-120921290D01*
X114327504Y-120921292D01*
X114281568Y-120956539D01*
X114281550Y-120956553D01*
X114256418Y-120975838D01*
X114256416Y-120975840D01*
X114249866Y-120980866D01*
X114230567Y-121006017D01*
X114219706Y-121018401D01*
X113779406Y-121458702D01*
X113767021Y-121469564D01*
X113741866Y-121488866D01*
X113740290Y-121490920D01*
X113680283Y-121523687D01*
X113609468Y-121518622D01*
X113552632Y-121476075D01*
X113527821Y-121409555D01*
X113527500Y-121400566D01*
X113527500Y-120739244D01*
X113521686Y-120685727D01*
X113521651Y-120685403D01*
X113521651Y-120685402D01*
X113520798Y-120677552D01*
X113517141Y-120667795D01*
X113502788Y-120629510D01*
X113470071Y-120542236D01*
X113464691Y-120535057D01*
X113464689Y-120535054D01*
X113388785Y-120433776D01*
X113383404Y-120426596D01*
X113277935Y-120347551D01*
X113235420Y-120290693D01*
X113227500Y-120246726D01*
X113227500Y-119962582D01*
X113247502Y-119894461D01*
X113264405Y-119873487D01*
X114005487Y-119132405D01*
X114067799Y-119098379D01*
X114094582Y-119095500D01*
X116046247Y-119095500D01*
X116088452Y-119103551D01*
X116089293Y-119104008D01*
X116242522Y-119144207D01*
X116326477Y-119145526D01*
X116393319Y-119146576D01*
X116393322Y-119146576D01*
X116400916Y-119146695D01*
X116555332Y-119111329D01*
X116625742Y-119075917D01*
X116690072Y-119043563D01*
X116690075Y-119043561D01*
X116696855Y-119040151D01*
X116702626Y-119035222D01*
X116702629Y-119035220D01*
X116811536Y-118942204D01*
X116811536Y-118942203D01*
X116817314Y-118937269D01*
X116909755Y-118808624D01*
X116968842Y-118661641D01*
X116982725Y-118564093D01*
X116990581Y-118508891D01*
X116990581Y-118508888D01*
X116991162Y-118504807D01*
X116991244Y-118496997D01*
X116991264Y-118495134D01*
X116991264Y-118495128D01*
X116991307Y-118491000D01*
X116972276Y-118333733D01*
X116916280Y-118185546D01*
X116874372Y-118124569D01*
X116830855Y-118061251D01*
X116830854Y-118061249D01*
X116826553Y-118054992D01*
X116708275Y-117949611D01*
X116568274Y-117875484D01*
X116414633Y-117836892D01*
X116407034Y-117836852D01*
X116407033Y-117836852D01*
X116341181Y-117836507D01*
X116256221Y-117836062D01*
X116248841Y-117837834D01*
X116248839Y-117837834D01*
X116173471Y-117855929D01*
X116102184Y-117873043D01*
X116095432Y-117876528D01*
X116089869Y-117878597D01*
X116045947Y-117886500D01*
X113839878Y-117886500D01*
X113823432Y-117885422D01*
X113821799Y-117885207D01*
X113792000Y-117881284D01*
X113783812Y-117882362D01*
X113642380Y-117900981D01*
X113642378Y-117900982D01*
X113634194Y-117902059D01*
X113626567Y-117905218D01*
X113626568Y-117905218D01*
X113560668Y-117932515D01*
X113560666Y-117932516D01*
X113507195Y-117954664D01*
X113487142Y-117962970D01*
X113480591Y-117967997D01*
X113480589Y-117967998D01*
X113400624Y-118029358D01*
X113360866Y-118059866D01*
X113355840Y-118066416D01*
X113341566Y-118085018D01*
X113330699Y-118097409D01*
X112229409Y-119198699D01*
X112217018Y-119209566D01*
X112191866Y-119228866D01*
X112167542Y-119260565D01*
X112167532Y-119260577D01*
X112156624Y-119274794D01*
X112156621Y-119274798D01*
X112094970Y-119355142D01*
X112067809Y-119420716D01*
X112034059Y-119502194D01*
X112013284Y-119660000D01*
X112014362Y-119668188D01*
X112017422Y-119691432D01*
X112018500Y-119707878D01*
X112018500Y-120246726D01*
X111998498Y-120314847D01*
X111968066Y-120347551D01*
X111862596Y-120426596D01*
X111857215Y-120433776D01*
X111781311Y-120535054D01*
X111781309Y-120535057D01*
X111775929Y-120542236D01*
X111743212Y-120629510D01*
X111728860Y-120667795D01*
X111725202Y-120677552D01*
X111724349Y-120685402D01*
X111724349Y-120685403D01*
X111724314Y-120685727D01*
X111718500Y-120739244D01*
X111718500Y-122084756D01*
X111718869Y-122088152D01*
X111718869Y-122088153D01*
X111724343Y-122138537D01*
X111725202Y-122146448D01*
X111775929Y-122281764D01*
X111781309Y-122288943D01*
X111781311Y-122288946D01*
X111830805Y-122354985D01*
X111862596Y-122397404D01*
X111869776Y-122402785D01*
X111971054Y-122478689D01*
X111971057Y-122478691D01*
X111978236Y-122484071D01*
X112012674Y-122496981D01*
X112022109Y-122500518D01*
X112078874Y-122543159D01*
X112103574Y-122609720D01*
X112088367Y-122679069D01*
X112038081Y-122729188D01*
X112022109Y-122736482D01*
X111978236Y-122752929D01*
X111971057Y-122758309D01*
X111971054Y-122758311D01*
X111907378Y-122806034D01*
X111862596Y-122839596D01*
X111857215Y-122846776D01*
X111781311Y-122948054D01*
X111781309Y-122948057D01*
X111775929Y-122955236D01*
X111746835Y-123032845D01*
X111729512Y-123079056D01*
X111725202Y-123090552D01*
X111724349Y-123098402D01*
X111724349Y-123098403D01*
X111722874Y-123111981D01*
X111718500Y-123152244D01*
X111718500Y-124497756D01*
X109739151Y-124497756D01*
X109704089Y-124450803D01*
X109704088Y-124450802D01*
X109700636Y-124446179D01*
X109692775Y-124438912D01*
X109549066Y-124306069D01*
X109549063Y-124306067D01*
X109544826Y-124302150D01*
X109365377Y-124188926D01*
X109168300Y-124110300D01*
X109162643Y-124109175D01*
X109162637Y-124109173D01*
X108965863Y-124070033D01*
X108965859Y-124070033D01*
X108960195Y-124068906D01*
X108954420Y-124068830D01*
X108954416Y-124068830D01*
X108847804Y-124067434D01*
X108748031Y-124066128D01*
X108742334Y-124067107D01*
X108742333Y-124067107D01*
X108594275Y-124092548D01*
X108538913Y-124102061D01*
X108339846Y-124175501D01*
X108334885Y-124178453D01*
X108334884Y-124178453D01*
X108162463Y-124281032D01*
X108162460Y-124281034D01*
X108157495Y-124283988D01*
X108153155Y-124287794D01*
X108153151Y-124287797D01*
X108044042Y-124383484D01*
X107997968Y-124423890D01*
X107994393Y-124428425D01*
X107994392Y-124428426D01*
X107885273Y-124566843D01*
X107866607Y-124590520D01*
X107767812Y-124778299D01*
X107704891Y-124980938D01*
X107704212Y-124986675D01*
X107703011Y-124992325D01*
X107700914Y-124991879D01*
X107676743Y-125048486D01*
X107617988Y-125088341D01*
X107547014Y-125090104D01*
X107486353Y-125053216D01*
X107455265Y-124989387D01*
X107453499Y-124968364D01*
X107453499Y-124296934D01*
X107444082Y-124249587D01*
X107441156Y-124234874D01*
X107441155Y-124234872D01*
X107438734Y-124222699D01*
X107416168Y-124188926D01*
X107389377Y-124148832D01*
X107382484Y-124138516D01*
X107298301Y-124082266D01*
X107224067Y-124067500D01*
X106776500Y-124067500D01*
X106708379Y-124047498D01*
X106661886Y-123993842D01*
X106650500Y-123941500D01*
X106650500Y-122623981D01*
X106670502Y-122555860D01*
X106724158Y-122509367D01*
X106732271Y-122505999D01*
X106756326Y-122496981D01*
X106790764Y-122484071D01*
X106797943Y-122478691D01*
X106797946Y-122478689D01*
X106899224Y-122402785D01*
X106906404Y-122397404D01*
X106938195Y-122354985D01*
X106987689Y-122288946D01*
X106987691Y-122288943D01*
X106993071Y-122281764D01*
X107043798Y-122146448D01*
X107044658Y-122138537D01*
X107050131Y-122088153D01*
X107050131Y-122088152D01*
X107050500Y-122084756D01*
X107050500Y-120739244D01*
X107044686Y-120685727D01*
X107044651Y-120685403D01*
X107044651Y-120685402D01*
X107043798Y-120677552D01*
X107040141Y-120667795D01*
X107025788Y-120629510D01*
X106993071Y-120542236D01*
X106987691Y-120535057D01*
X106987689Y-120535054D01*
X106911785Y-120433776D01*
X106906404Y-120426596D01*
X106856288Y-120389036D01*
X106797946Y-120345311D01*
X106797943Y-120345309D01*
X106790764Y-120339929D01*
X106683793Y-120299828D01*
X106662843Y-120291974D01*
X106662841Y-120291974D01*
X106655448Y-120289202D01*
X106647598Y-120288349D01*
X106647597Y-120288349D01*
X106597153Y-120282869D01*
X106597152Y-120282869D01*
X106593756Y-120282500D01*
X105698244Y-120282500D01*
X105694848Y-120282869D01*
X105694847Y-120282869D01*
X105644403Y-120288349D01*
X105644402Y-120288349D01*
X105636552Y-120289202D01*
X105629159Y-120291974D01*
X105629157Y-120291974D01*
X105608207Y-120299828D01*
X105501236Y-120339929D01*
X105494057Y-120345309D01*
X105494054Y-120345311D01*
X105435712Y-120389036D01*
X105385596Y-120426596D01*
X105380215Y-120433776D01*
X105304311Y-120535054D01*
X105304309Y-120535057D01*
X105298929Y-120542236D01*
X105266212Y-120629510D01*
X105251860Y-120667795D01*
X105248202Y-120677552D01*
X105247349Y-120685402D01*
X105247349Y-120685403D01*
X105247314Y-120685727D01*
X105241500Y-120739244D01*
X105241500Y-122084756D01*
X105241869Y-122088152D01*
X105241869Y-122088153D01*
X105247343Y-122138537D01*
X105248202Y-122146448D01*
X105298929Y-122281764D01*
X105304309Y-122288943D01*
X105304311Y-122288946D01*
X105353805Y-122354985D01*
X105385596Y-122397404D01*
X105392776Y-122402785D01*
X105494054Y-122478689D01*
X105494057Y-122478691D01*
X105501236Y-122484071D01*
X105535674Y-122496981D01*
X105559729Y-122505999D01*
X105616494Y-122548640D01*
X105641194Y-122615202D01*
X105641500Y-122623981D01*
X105641500Y-123941501D01*
X105621498Y-124009622D01*
X105567842Y-124056115D01*
X105515500Y-124067501D01*
X105373934Y-124067501D01*
X105338182Y-124074612D01*
X105311874Y-124079844D01*
X105311872Y-124079845D01*
X105299699Y-124082266D01*
X105289379Y-124089161D01*
X105289378Y-124089162D01*
X105234822Y-124125616D01*
X105215516Y-124138516D01*
X105159266Y-124222699D01*
X105144500Y-124296933D01*
X105144501Y-126147066D01*
X105159266Y-126221301D01*
X105166161Y-126231620D01*
X105166162Y-126231622D01*
X105184387Y-126258897D01*
X105215516Y-126305484D01*
X105299699Y-126361734D01*
X105373933Y-126376500D01*
X106298850Y-126376500D01*
X107224066Y-126376499D01*
X107264263Y-126368504D01*
X107286126Y-126364156D01*
X107286128Y-126364155D01*
X107298301Y-126361734D01*
X107308621Y-126354839D01*
X107308622Y-126354838D01*
X107372168Y-126312377D01*
X107382484Y-126305484D01*
X107413613Y-126258897D01*
X107431839Y-126231620D01*
X107438734Y-126221301D01*
X107453500Y-126147067D01*
X107453500Y-125465080D01*
X107473502Y-125396959D01*
X107527158Y-125350466D01*
X107597432Y-125340362D01*
X107662012Y-125369856D01*
X107701622Y-125434064D01*
X107746058Y-125609031D01*
X107834890Y-125801723D01*
X107957350Y-125975000D01*
X108109337Y-126123059D01*
X108114133Y-126126264D01*
X108114136Y-126126266D01*
X108237559Y-126208734D01*
X108285760Y-126240941D01*
X108291063Y-126243219D01*
X108291066Y-126243221D01*
X108429337Y-126302627D01*
X108480711Y-126324699D01*
X108540757Y-126338286D01*
X108682025Y-126370252D01*
X108682030Y-126370253D01*
X108687662Y-126371527D01*
X108693433Y-126371754D01*
X108693435Y-126371754D01*
X108758911Y-126374326D01*
X108899681Y-126379857D01*
X109007974Y-126364155D01*
X109103953Y-126350239D01*
X109103958Y-126350238D01*
X109109667Y-126349410D01*
X109142437Y-126338286D01*
X109213371Y-126335330D01*
X109272033Y-126368504D01*
X109321323Y-126417794D01*
X109328865Y-126427234D01*
X109329245Y-126426911D01*
X109335062Y-126433746D01*
X109339853Y-126441339D01*
X109351635Y-126451745D01*
X109352085Y-126452142D01*
X109389901Y-126512230D01*
X109389228Y-126583223D01*
X109350281Y-126642583D01*
X109285423Y-126671463D01*
X109268992Y-126672581D01*
X94654127Y-126708846D01*
X94585957Y-126689013D01*
X94539332Y-126635473D01*
X94529053Y-126565224D01*
X94558386Y-126500570D01*
X94564720Y-126493751D01*
X95302794Y-125755677D01*
X95312234Y-125748135D01*
X95311911Y-125747755D01*
X95318747Y-125741937D01*
X95326339Y-125737147D01*
X95361672Y-125697140D01*
X95367017Y-125691454D01*
X95378351Y-125680120D01*
X95384553Y-125671845D01*
X95390940Y-125664000D01*
X95416060Y-125635557D01*
X95422001Y-125628830D01*
X95425814Y-125620708D01*
X95427654Y-125617907D01*
X95436063Y-125603912D01*
X95437685Y-125600949D01*
X95443070Y-125593764D01*
X95446224Y-125585352D01*
X95459546Y-125549818D01*
X95463471Y-125540502D01*
X95464978Y-125537292D01*
X95483417Y-125498018D01*
X95484799Y-125489144D01*
X95485785Y-125485917D01*
X95489925Y-125470134D01*
X95490646Y-125466856D01*
X95493798Y-125458448D01*
X95497276Y-125411643D01*
X95498430Y-125401596D01*
X95499751Y-125393114D01*
X95499751Y-125393111D01*
X95500500Y-125388303D01*
X95500500Y-125372938D01*
X95500846Y-125363601D01*
X95502939Y-125335428D01*
X95504507Y-125314333D01*
X95502633Y-125305556D01*
X95502040Y-125296854D01*
X95500500Y-125282262D01*
X95500500Y-120784161D01*
X95520502Y-120716040D01*
X95537405Y-120695066D01*
X95946229Y-120286242D01*
X96008541Y-120252216D01*
X96079356Y-120257281D01*
X96136192Y-120299828D01*
X96161003Y-120366348D01*
X96153306Y-120419565D01*
X96138014Y-120460357D01*
X96108431Y-120539272D01*
X96104202Y-120550552D01*
X96103349Y-120558402D01*
X96103349Y-120558403D01*
X96101487Y-120575543D01*
X96097500Y-120612244D01*
X96097500Y-121957756D01*
X96104202Y-122019448D01*
X96154929Y-122154764D01*
X96160309Y-122161943D01*
X96160311Y-122161946D01*
X96193821Y-122206658D01*
X96241596Y-122270404D01*
X96248776Y-122275785D01*
X96350054Y-122351689D01*
X96350057Y-122351691D01*
X96357236Y-122357071D01*
X96398129Y-122372401D01*
X96415729Y-122378999D01*
X96472494Y-122421640D01*
X96497194Y-122488202D01*
X96497500Y-122496981D01*
X96497500Y-123964328D01*
X96477498Y-124032449D01*
X96420445Y-124080129D01*
X96409699Y-124082266D01*
X96399382Y-124089159D01*
X96399381Y-124089160D01*
X96344822Y-124125616D01*
X96325516Y-124138516D01*
X96269266Y-124222699D01*
X96254500Y-124296933D01*
X96254501Y-126147066D01*
X96269266Y-126221301D01*
X96276161Y-126231620D01*
X96276162Y-126231622D01*
X96294387Y-126258897D01*
X96325516Y-126305484D01*
X96409699Y-126361734D01*
X96483933Y-126376500D01*
X97408850Y-126376500D01*
X98334066Y-126376499D01*
X98374263Y-126368504D01*
X98396126Y-126364156D01*
X98396128Y-126364155D01*
X98408301Y-126361734D01*
X98418621Y-126354839D01*
X98418622Y-126354838D01*
X98482168Y-126312377D01*
X98492484Y-126305484D01*
X98523613Y-126258897D01*
X98541839Y-126231620D01*
X98548734Y-126221301D01*
X98563500Y-126147067D01*
X98563500Y-125465080D01*
X98583502Y-125396959D01*
X98637158Y-125350466D01*
X98707432Y-125340362D01*
X98772012Y-125369856D01*
X98811622Y-125434064D01*
X98856058Y-125609031D01*
X98944890Y-125801723D01*
X99067350Y-125975000D01*
X99219337Y-126123059D01*
X99224133Y-126126264D01*
X99224136Y-126126266D01*
X99347559Y-126208734D01*
X99395760Y-126240941D01*
X99401063Y-126243219D01*
X99401066Y-126243221D01*
X99539337Y-126302627D01*
X99590711Y-126324699D01*
X99650757Y-126338286D01*
X99792025Y-126370252D01*
X99792030Y-126370253D01*
X99797662Y-126371527D01*
X99803433Y-126371754D01*
X99803435Y-126371754D01*
X99868911Y-126374326D01*
X100009681Y-126379857D01*
X100117974Y-126364155D01*
X100213953Y-126350239D01*
X100213958Y-126350238D01*
X100219667Y-126349410D01*
X100225131Y-126347555D01*
X100225136Y-126347554D01*
X100350770Y-126304907D01*
X100420589Y-126281207D01*
X100457250Y-126260676D01*
X100600670Y-126180357D01*
X100600674Y-126180354D01*
X100605717Y-126177530D01*
X100768852Y-126041852D01*
X100904530Y-125878717D01*
X100907354Y-125873674D01*
X100907357Y-125873670D01*
X101005383Y-125698632D01*
X101005384Y-125698630D01*
X101008207Y-125693589D01*
X101046975Y-125579381D01*
X101074554Y-125498136D01*
X101074555Y-125498131D01*
X101076410Y-125492667D01*
X101077305Y-125486498D01*
X101097899Y-125344464D01*
X101106857Y-125282681D01*
X101108446Y-125222000D01*
X101093136Y-125055379D01*
X101089560Y-125016462D01*
X101089559Y-125016459D01*
X101089031Y-125010708D01*
X101083847Y-124992325D01*
X101033004Y-124812051D01*
X101033003Y-124812049D01*
X101031436Y-124806492D01*
X101028184Y-124799896D01*
X100940145Y-124621372D01*
X100937590Y-124616191D01*
X100899646Y-124565377D01*
X100814089Y-124450803D01*
X100814088Y-124450802D01*
X100810636Y-124446179D01*
X100802775Y-124438912D01*
X100659066Y-124306069D01*
X100659063Y-124306067D01*
X100654826Y-124302150D01*
X100475377Y-124188926D01*
X100278300Y-124110300D01*
X100272643Y-124109175D01*
X100272637Y-124109173D01*
X100075863Y-124070033D01*
X100075859Y-124070033D01*
X100070195Y-124068906D01*
X100064420Y-124068830D01*
X100064416Y-124068830D01*
X99957804Y-124067434D01*
X99858031Y-124066128D01*
X99852334Y-124067107D01*
X99852333Y-124067107D01*
X99704275Y-124092548D01*
X99648913Y-124102061D01*
X99449846Y-124175501D01*
X99444885Y-124178453D01*
X99444884Y-124178453D01*
X99272463Y-124281032D01*
X99272460Y-124281034D01*
X99267495Y-124283988D01*
X99263155Y-124287794D01*
X99263151Y-124287797D01*
X99154042Y-124383484D01*
X99107968Y-124423890D01*
X99104393Y-124428425D01*
X99104392Y-124428426D01*
X98995273Y-124566843D01*
X98976607Y-124590520D01*
X98877812Y-124778299D01*
X98814891Y-124980938D01*
X98814212Y-124986675D01*
X98813011Y-124992325D01*
X98810914Y-124991879D01*
X98786743Y-125048486D01*
X98727988Y-125088341D01*
X98657014Y-125090104D01*
X98596353Y-125053216D01*
X98565265Y-124989387D01*
X98563499Y-124968364D01*
X98563499Y-124296934D01*
X98554082Y-124249587D01*
X98551156Y-124234874D01*
X98551155Y-124234872D01*
X98548734Y-124222699D01*
X98526168Y-124188926D01*
X98499377Y-124148832D01*
X98492484Y-124138516D01*
X98408301Y-124082266D01*
X98334067Y-124067500D01*
X97632500Y-124067500D01*
X97564379Y-124047498D01*
X97517886Y-123993842D01*
X97506500Y-123941500D01*
X97506500Y-122496981D01*
X97526502Y-122428860D01*
X97580158Y-122382367D01*
X97588271Y-122378999D01*
X97605871Y-122372401D01*
X97646764Y-122357071D01*
X97653943Y-122351691D01*
X97653946Y-122351689D01*
X97755224Y-122275785D01*
X97762404Y-122270404D01*
X97810179Y-122206658D01*
X97843689Y-122161946D01*
X97843691Y-122161943D01*
X97849071Y-122154764D01*
X97899798Y-122019448D01*
X97906500Y-121957756D01*
X97906500Y-120612244D01*
X97902513Y-120575543D01*
X97900651Y-120558403D01*
X97900651Y-120558402D01*
X97899798Y-120550552D01*
X97895570Y-120539272D01*
X97880776Y-120499810D01*
X97849071Y-120415236D01*
X97843691Y-120408057D01*
X97843689Y-120408054D01*
X97767785Y-120306776D01*
X97762404Y-120299596D01*
X97720363Y-120268088D01*
X97653946Y-120218311D01*
X97653943Y-120218309D01*
X97646764Y-120212929D01*
X97541242Y-120173371D01*
X97518843Y-120164974D01*
X97518841Y-120164974D01*
X97511448Y-120162202D01*
X97503598Y-120161349D01*
X97503597Y-120161349D01*
X97453153Y-120155869D01*
X97453152Y-120155869D01*
X97449756Y-120155500D01*
X96554244Y-120155500D01*
X96550848Y-120155869D01*
X96550847Y-120155869D01*
X96500403Y-120161349D01*
X96500402Y-120161349D01*
X96492552Y-120162202D01*
X96485159Y-120164974D01*
X96485157Y-120164974D01*
X96451002Y-120177778D01*
X96361565Y-120211306D01*
X96290759Y-120216489D01*
X96228390Y-120182568D01*
X96194261Y-120120312D01*
X96199208Y-120049488D01*
X96228242Y-120004229D01*
X96692066Y-119540405D01*
X96754378Y-119506379D01*
X96781161Y-119503500D01*
X99179839Y-119503500D01*
X99247960Y-119523502D01*
X99268934Y-119540405D01*
X99560595Y-119832066D01*
X99594621Y-119894378D01*
X99597500Y-119921161D01*
X99597500Y-120073019D01*
X99577498Y-120141140D01*
X99523842Y-120187633D01*
X99515729Y-120191001D01*
X99503822Y-120195465D01*
X99457236Y-120212929D01*
X99450057Y-120218309D01*
X99450054Y-120218311D01*
X99383637Y-120268088D01*
X99341596Y-120299596D01*
X99336215Y-120306776D01*
X99260311Y-120408054D01*
X99260309Y-120408057D01*
X99254929Y-120415236D01*
X99223224Y-120499810D01*
X99208431Y-120539272D01*
X99204202Y-120550552D01*
X99203349Y-120558402D01*
X99203349Y-120558403D01*
X99201487Y-120575543D01*
X99197500Y-120612244D01*
X99197500Y-121957756D01*
X99204202Y-122019448D01*
X99254929Y-122154764D01*
X99260309Y-122161943D01*
X99260311Y-122161946D01*
X99293821Y-122206658D01*
X99341596Y-122270404D01*
X99348776Y-122275785D01*
X99450054Y-122351689D01*
X99450057Y-122351691D01*
X99457236Y-122357071D01*
X99515730Y-122378999D01*
X99585157Y-122405026D01*
X99585159Y-122405026D01*
X99592552Y-122407798D01*
X99600402Y-122408651D01*
X99600403Y-122408651D01*
X99650847Y-122414131D01*
X99654244Y-122414500D01*
X100549756Y-122414500D01*
X100553153Y-122414131D01*
X100603597Y-122408651D01*
X100603598Y-122408651D01*
X100611448Y-122407798D01*
X100618841Y-122405026D01*
X100618843Y-122405026D01*
X100688270Y-122378999D01*
X100746764Y-122357071D01*
X100753943Y-122351691D01*
X100753946Y-122351689D01*
X100855224Y-122275785D01*
X100862404Y-122270404D01*
X100910179Y-122206658D01*
X100943689Y-122161946D01*
X100943691Y-122161943D01*
X100949071Y-122154764D01*
X100999798Y-122019448D01*
X101006500Y-121957756D01*
X101006500Y-120612244D01*
X101002513Y-120575543D01*
X101000651Y-120558403D01*
X101000651Y-120558402D01*
X100999798Y-120550552D01*
X100995570Y-120539272D01*
X100980776Y-120499810D01*
X100949071Y-120415236D01*
X100943691Y-120408057D01*
X100943689Y-120408054D01*
X100867785Y-120306776D01*
X100862404Y-120299596D01*
X100820363Y-120268088D01*
X100753946Y-120218311D01*
X100753943Y-120218309D01*
X100746764Y-120212929D01*
X100700178Y-120195465D01*
X100688271Y-120191001D01*
X100631506Y-120148360D01*
X100606806Y-120081798D01*
X100606500Y-120073019D01*
X100606500Y-119996161D01*
X100626502Y-119928040D01*
X100643405Y-119907066D01*
X101010066Y-119540405D01*
X101072378Y-119506379D01*
X101099161Y-119503500D01*
X108196839Y-119503500D01*
X108264960Y-119523502D01*
X108285934Y-119540405D01*
X108704595Y-119959066D01*
X108738621Y-120021378D01*
X108741500Y-120048161D01*
X108741500Y-120200019D01*
X108721498Y-120268140D01*
X108667842Y-120314633D01*
X108659729Y-120318001D01*
X108642129Y-120324599D01*
X108601236Y-120339929D01*
X108594057Y-120345309D01*
X108594054Y-120345311D01*
X108535712Y-120389036D01*
X108485596Y-120426596D01*
X108480215Y-120433776D01*
X108404311Y-120535054D01*
X108404309Y-120535057D01*
X108398929Y-120542236D01*
X108366212Y-120629510D01*
X108351860Y-120667795D01*
X108348202Y-120677552D01*
X108347349Y-120685402D01*
X108347349Y-120685403D01*
X108347314Y-120685727D01*
X108341500Y-120739244D01*
X108341500Y-122084756D01*
X108341869Y-122088152D01*
X108341869Y-122088153D01*
X108347343Y-122138537D01*
X108348202Y-122146448D01*
X108398929Y-122281764D01*
X108404309Y-122288943D01*
X108404311Y-122288946D01*
X108453805Y-122354985D01*
X108485596Y-122397404D01*
X108492776Y-122402785D01*
X108594054Y-122478689D01*
X108594057Y-122478691D01*
X108601236Y-122484071D01*
X108668714Y-122509367D01*
X108729157Y-122532026D01*
X108729159Y-122532026D01*
X108736552Y-122534798D01*
X108744402Y-122535651D01*
X108744403Y-122535651D01*
X108794847Y-122541131D01*
X108798244Y-122541500D01*
X109693756Y-122541500D01*
X109697153Y-122541131D01*
X109747597Y-122535651D01*
X109747598Y-122535651D01*
X109755448Y-122534798D01*
X109762841Y-122532026D01*
X109762843Y-122532026D01*
X109823286Y-122509367D01*
X109890764Y-122484071D01*
X109897943Y-122478691D01*
X109897946Y-122478689D01*
X109999224Y-122402785D01*
X110006404Y-122397404D01*
X110038195Y-122354985D01*
X110087689Y-122288946D01*
X110087691Y-122288943D01*
X110093071Y-122281764D01*
X110143798Y-122146448D01*
X110144658Y-122138537D01*
X110150131Y-122088153D01*
X110150131Y-122088152D01*
X110150500Y-122084756D01*
X110150500Y-120739244D01*
X110144686Y-120685727D01*
X110144651Y-120685403D01*
X110144651Y-120685402D01*
X110143798Y-120677552D01*
X110140141Y-120667795D01*
X110125788Y-120629510D01*
X110093071Y-120542236D01*
X110087691Y-120535057D01*
X110087689Y-120535054D01*
X110011785Y-120433776D01*
X110006404Y-120426596D01*
X109956288Y-120389036D01*
X109897946Y-120345311D01*
X109897943Y-120345309D01*
X109890764Y-120339929D01*
X109849871Y-120324599D01*
X109832271Y-120318001D01*
X109775506Y-120275360D01*
X109750806Y-120208798D01*
X109750500Y-120200019D01*
X109750500Y-119857624D01*
X109751841Y-119845619D01*
X109751345Y-119845579D01*
X109752065Y-119836632D01*
X109754046Y-119827876D01*
X109750742Y-119774618D01*
X109750500Y-119766816D01*
X109750500Y-119750774D01*
X109749035Y-119740543D01*
X109748003Y-119730477D01*
X109745654Y-119692600D01*
X109745654Y-119692598D01*
X109745098Y-119683641D01*
X109742051Y-119675201D01*
X109741370Y-119671911D01*
X109737418Y-119656062D01*
X109736473Y-119652832D01*
X109735201Y-119643948D01*
X109715774Y-119601218D01*
X109711964Y-119591860D01*
X109699075Y-119556158D01*
X109699074Y-119556157D01*
X109696027Y-119547716D01*
X109690731Y-119540467D01*
X109689146Y-119537486D01*
X109680920Y-119523408D01*
X109679104Y-119520569D01*
X109675388Y-119512395D01*
X109644757Y-119476846D01*
X109638465Y-119468923D01*
X109630527Y-119458056D01*
X109619665Y-119447194D01*
X109613307Y-119440347D01*
X109586915Y-119409718D01*
X109581056Y-119402918D01*
X109573521Y-119398034D01*
X109566949Y-119392301D01*
X109555545Y-119383074D01*
X108864677Y-118692206D01*
X108857135Y-118682766D01*
X108856755Y-118683089D01*
X108850937Y-118676253D01*
X108846147Y-118668661D01*
X108806140Y-118633328D01*
X108800454Y-118627983D01*
X108789120Y-118616649D01*
X108780845Y-118610447D01*
X108773000Y-118604060D01*
X108772422Y-118603549D01*
X108737830Y-118572999D01*
X108729708Y-118569186D01*
X108726907Y-118567346D01*
X108712912Y-118558937D01*
X108709949Y-118557315D01*
X108702764Y-118551930D01*
X108694354Y-118548777D01*
X108694352Y-118548776D01*
X108658818Y-118535454D01*
X108649502Y-118531529D01*
X108644599Y-118529227D01*
X108607018Y-118511583D01*
X108598144Y-118510201D01*
X108594917Y-118509215D01*
X108579134Y-118505075D01*
X108575856Y-118504354D01*
X108567448Y-118501202D01*
X108553691Y-118500180D01*
X108520643Y-118497724D01*
X108510596Y-118496570D01*
X108502114Y-118495249D01*
X108502111Y-118495249D01*
X108497303Y-118494500D01*
X108481938Y-118494500D01*
X108472601Y-118494154D01*
X108465048Y-118493593D01*
X108423333Y-118490493D01*
X108414558Y-118492366D01*
X108405862Y-118492959D01*
X108391262Y-118494500D01*
X100908624Y-118494500D01*
X100896619Y-118493159D01*
X100896579Y-118493655D01*
X100887632Y-118492935D01*
X100878876Y-118490954D01*
X100835338Y-118493655D01*
X100825618Y-118494258D01*
X100817816Y-118494500D01*
X100801774Y-118494500D01*
X100797343Y-118495135D01*
X100797338Y-118495135D01*
X100793313Y-118495712D01*
X100791543Y-118495965D01*
X100781486Y-118496996D01*
X100759024Y-118498389D01*
X100743600Y-118499346D01*
X100743598Y-118499346D01*
X100734641Y-118499902D01*
X100726201Y-118502949D01*
X100722911Y-118503630D01*
X100707062Y-118507582D01*
X100703832Y-118508527D01*
X100694948Y-118509799D01*
X100655741Y-118527625D01*
X100652222Y-118529225D01*
X100642860Y-118533036D01*
X100607158Y-118545925D01*
X100607157Y-118545926D01*
X100598716Y-118548973D01*
X100591467Y-118554269D01*
X100588486Y-118555854D01*
X100574408Y-118564080D01*
X100571569Y-118565896D01*
X100563395Y-118569612D01*
X100556591Y-118575475D01*
X100527848Y-118600242D01*
X100519930Y-118606530D01*
X100509056Y-118614473D01*
X100498194Y-118625335D01*
X100491355Y-118631686D01*
X100453918Y-118663944D01*
X100449034Y-118671479D01*
X100443301Y-118678051D01*
X100434074Y-118689455D01*
X100228595Y-118894934D01*
X100166283Y-118928960D01*
X100095468Y-118923895D01*
X100050405Y-118894934D01*
X99847677Y-118692206D01*
X99840135Y-118682766D01*
X99839755Y-118683089D01*
X99833937Y-118676253D01*
X99829147Y-118668661D01*
X99789140Y-118633328D01*
X99783454Y-118627983D01*
X99772120Y-118616649D01*
X99763845Y-118610447D01*
X99756000Y-118604060D01*
X99755422Y-118603549D01*
X99720830Y-118572999D01*
X99712708Y-118569186D01*
X99709907Y-118567346D01*
X99695912Y-118558937D01*
X99692949Y-118557315D01*
X99685764Y-118551930D01*
X99677354Y-118548777D01*
X99677352Y-118548776D01*
X99641818Y-118535454D01*
X99632502Y-118531529D01*
X99627599Y-118529227D01*
X99590018Y-118511583D01*
X99581144Y-118510201D01*
X99577917Y-118509215D01*
X99562134Y-118505075D01*
X99558856Y-118504354D01*
X99550448Y-118501202D01*
X99536691Y-118500180D01*
X99503643Y-118497724D01*
X99493596Y-118496570D01*
X99485114Y-118495249D01*
X99485111Y-118495249D01*
X99480303Y-118494500D01*
X99464938Y-118494500D01*
X99455601Y-118494154D01*
X99448048Y-118493593D01*
X99406333Y-118490493D01*
X99397558Y-118492366D01*
X99388862Y-118492959D01*
X99374262Y-118494500D01*
X96590624Y-118494500D01*
X96578619Y-118493159D01*
X96578579Y-118493655D01*
X96569632Y-118492935D01*
X96560876Y-118490954D01*
X96517338Y-118493655D01*
X96507618Y-118494258D01*
X96499816Y-118494500D01*
X96483774Y-118494500D01*
X96479343Y-118495135D01*
X96479338Y-118495135D01*
X96475313Y-118495712D01*
X96473543Y-118495965D01*
X96463486Y-118496996D01*
X96441024Y-118498389D01*
X96425600Y-118499346D01*
X96425598Y-118499346D01*
X96416641Y-118499902D01*
X96408201Y-118502949D01*
X96404911Y-118503630D01*
X96389054Y-118507584D01*
X96385829Y-118508527D01*
X96376948Y-118509799D01*
X96368783Y-118513512D01*
X96368781Y-118513512D01*
X96334218Y-118529227D01*
X96324875Y-118533031D01*
X96280715Y-118548973D01*
X96273467Y-118554268D01*
X96270486Y-118555853D01*
X96256387Y-118564093D01*
X96253567Y-118565897D01*
X96245395Y-118569612D01*
X96238597Y-118575469D01*
X96238596Y-118575470D01*
X96209838Y-118600249D01*
X96201926Y-118606531D01*
X96194993Y-118611596D01*
X96194980Y-118611607D01*
X96191056Y-118614474D01*
X96180202Y-118625328D01*
X96173355Y-118631686D01*
X96142718Y-118658084D01*
X96142716Y-118658087D01*
X96135918Y-118663944D01*
X96131036Y-118671477D01*
X96125306Y-118678045D01*
X96116072Y-118689458D01*
X94689206Y-120116323D01*
X94679766Y-120123865D01*
X94680089Y-120124245D01*
X94673253Y-120130063D01*
X94665661Y-120134853D01*
X94659719Y-120141581D01*
X94630329Y-120174859D01*
X94624983Y-120180546D01*
X94613649Y-120191880D01*
X94610964Y-120195463D01*
X94610962Y-120195465D01*
X94607447Y-120200155D01*
X94601062Y-120207998D01*
X94569999Y-120243170D01*
X94566186Y-120251292D01*
X94564346Y-120254093D01*
X94555937Y-120268088D01*
X94554315Y-120271051D01*
X94548930Y-120278236D01*
X94545777Y-120286646D01*
X94545776Y-120286648D01*
X94532454Y-120322182D01*
X94528530Y-120331495D01*
X94508583Y-120373982D01*
X94507201Y-120382856D01*
X94506215Y-120386083D01*
X94502075Y-120401866D01*
X94501354Y-120405144D01*
X94498202Y-120413552D01*
X94497402Y-120424320D01*
X94494724Y-120460357D01*
X94493570Y-120470404D01*
X94491500Y-120483697D01*
X94491500Y-120499062D01*
X94491154Y-120508399D01*
X94487493Y-120557667D01*
X94489366Y-120566442D01*
X94489959Y-120575138D01*
X94491500Y-120589738D01*
X94491500Y-125087839D01*
X94471498Y-125155960D01*
X94454595Y-125176934D01*
X93934934Y-125696595D01*
X93872622Y-125730621D01*
X93845839Y-125733500D01*
X90939161Y-125733500D01*
X90871040Y-125713498D01*
X90850066Y-125696595D01*
X90552065Y-125398594D01*
X90518039Y-125336282D01*
X90523104Y-125265467D01*
X90565651Y-125208631D01*
X90632171Y-125183820D01*
X90641160Y-125183499D01*
X90664066Y-125183499D01*
X90699818Y-125176388D01*
X90726126Y-125171156D01*
X90726128Y-125171155D01*
X90738301Y-125168734D01*
X90748621Y-125161839D01*
X90748622Y-125161838D01*
X90812168Y-125119377D01*
X90822484Y-125112484D01*
X90878734Y-125028301D01*
X90893500Y-124954067D01*
X90893499Y-123203934D01*
X90885282Y-123162621D01*
X90881156Y-123141874D01*
X90881155Y-123141872D01*
X90878734Y-123129699D01*
X90857823Y-123098403D01*
X90829377Y-123055832D01*
X90822484Y-123045516D01*
X90738301Y-122989266D01*
X90664067Y-122974500D01*
X90489334Y-122974500D01*
X90421213Y-122954498D01*
X90374720Y-122900842D01*
X90364616Y-122830568D01*
X90394110Y-122765988D01*
X90433902Y-122735348D01*
X90482100Y-122711736D01*
X90490945Y-122706464D01*
X90664328Y-122582792D01*
X90672200Y-122576139D01*
X90823052Y-122425812D01*
X90829730Y-122417965D01*
X90954003Y-122245020D01*
X90959313Y-122236183D01*
X91053670Y-122045267D01*
X91057466Y-122035680D01*
X91120377Y-121828615D01*
X91159319Y-121769250D01*
X91224173Y-121740363D01*
X91294349Y-121751124D01*
X91347567Y-121798117D01*
X91362470Y-121831995D01*
X91377278Y-121886123D01*
X91402427Y-121978051D01*
X91404839Y-121983109D01*
X91404841Y-121983113D01*
X91486275Y-122153843D01*
X91498834Y-122180174D01*
X91502111Y-122184735D01*
X91502112Y-122184736D01*
X91625948Y-122357071D01*
X91629511Y-122362030D01*
X91671567Y-122402785D01*
X91781777Y-122509586D01*
X91790326Y-122517871D01*
X91794981Y-122520999D01*
X91971540Y-122639641D01*
X91971543Y-122639643D01*
X91976197Y-122642770D01*
X92153934Y-122720792D01*
X92181248Y-122732782D01*
X92180279Y-122734989D01*
X92230027Y-122769800D01*
X92256956Y-122835491D01*
X92244094Y-122905313D01*
X92195526Y-122957097D01*
X92131630Y-122974501D01*
X91707934Y-122974501D01*
X91672182Y-122981612D01*
X91645874Y-122986844D01*
X91645872Y-122986845D01*
X91633699Y-122989266D01*
X91623379Y-122996161D01*
X91623378Y-122996162D01*
X91568481Y-123032844D01*
X91549516Y-123045516D01*
X91493266Y-123129699D01*
X91478500Y-123203933D01*
X91478501Y-124954066D01*
X91483846Y-124980938D01*
X91489767Y-125010708D01*
X91493266Y-125028301D01*
X91500161Y-125038620D01*
X91500162Y-125038622D01*
X91533384Y-125088341D01*
X91549516Y-125112484D01*
X91633699Y-125168734D01*
X91707933Y-125183500D01*
X92582858Y-125183500D01*
X93458066Y-125183499D01*
X93493818Y-125176388D01*
X93520126Y-125171156D01*
X93520128Y-125171155D01*
X93532301Y-125168734D01*
X93542621Y-125161839D01*
X93542622Y-125161838D01*
X93606168Y-125119377D01*
X93616484Y-125112484D01*
X93672734Y-125028301D01*
X93687500Y-124954067D01*
X93687499Y-123203934D01*
X93679282Y-123162621D01*
X93675156Y-123141874D01*
X93675155Y-123141872D01*
X93672734Y-123129699D01*
X93651823Y-123098403D01*
X93623377Y-123055832D01*
X93616484Y-123045516D01*
X93532301Y-122989266D01*
X93458067Y-122974500D01*
X93021625Y-122974500D01*
X92953504Y-122954498D01*
X92907011Y-122900842D01*
X92896907Y-122830568D01*
X92926401Y-122765988D01*
X92984576Y-122728070D01*
X93047816Y-122708615D01*
X93058917Y-122705200D01*
X93063897Y-122702630D01*
X93063901Y-122702628D01*
X93252929Y-122605063D01*
X93252930Y-122605063D01*
X93257912Y-122602491D01*
X93435573Y-122466167D01*
X93439346Y-122462021D01*
X93439351Y-122462016D01*
X93582507Y-122304689D01*
X93586286Y-122300536D01*
X93705286Y-122110833D01*
X93788812Y-121903056D01*
X93808712Y-121806966D01*
X93833287Y-121688296D01*
X93834224Y-121683772D01*
X93837500Y-121626952D01*
X93837500Y-118554821D01*
X93857502Y-118486700D01*
X93874405Y-118465726D01*
X95219689Y-117120442D01*
X128989303Y-117120442D01*
X128998017Y-117131962D01*
X129099394Y-117206296D01*
X129107293Y-117211232D01*
X129332901Y-117329930D01*
X129341450Y-117333647D01*
X129582113Y-117417690D01*
X129591122Y-117420104D01*
X129841572Y-117467654D01*
X129850827Y-117468708D01*
X130105557Y-117478717D01*
X130114871Y-117478391D01*
X130368270Y-117450640D01*
X130377447Y-117448939D01*
X130623960Y-117384037D01*
X130632780Y-117381000D01*
X130866997Y-117280373D01*
X130875269Y-117276066D01*
X131092036Y-117141927D01*
X131099579Y-117136447D01*
X131101272Y-117135014D01*
X131109710Y-117122211D01*
X131103645Y-117111855D01*
X130060812Y-116069022D01*
X130046868Y-116061408D01*
X130045035Y-116061539D01*
X130038420Y-116065790D01*
X128995961Y-117108249D01*
X128989303Y-117120442D01*
X95219689Y-117120442D01*
X96685132Y-115654999D01*
X128265849Y-115654999D01*
X128278080Y-115909619D01*
X128279217Y-115918879D01*
X128328947Y-116168894D01*
X128331441Y-116177887D01*
X128417578Y-116417797D01*
X128421378Y-116426332D01*
X128542031Y-116650877D01*
X128547045Y-116658748D01*
X128613154Y-116747279D01*
X128624414Y-116755729D01*
X128636832Y-116748958D01*
X129675978Y-115709812D01*
X129682356Y-115698132D01*
X130412408Y-115698132D01*
X130412539Y-115699965D01*
X130416790Y-115706580D01*
X131462386Y-116752176D01*
X131474766Y-116758936D01*
X131483107Y-116752692D01*
X131612391Y-116551697D01*
X131616838Y-116543506D01*
X131721536Y-116311085D01*
X131724731Y-116302307D01*
X131793923Y-116056968D01*
X131795781Y-116047839D01*
X131828144Y-115793444D01*
X131828625Y-115787158D01*
X131830903Y-115700160D01*
X131830752Y-115693851D01*
X131811747Y-115438110D01*
X131810370Y-115428904D01*
X131754109Y-115180262D01*
X131751385Y-115171351D01*
X131658990Y-114933758D01*
X131654979Y-114925349D01*
X131528482Y-114704027D01*
X131523269Y-114696298D01*
X131483633Y-114646019D01*
X131471709Y-114637549D01*
X131460174Y-114644036D01*
X130420022Y-115684188D01*
X130412408Y-115698132D01*
X129682356Y-115698132D01*
X129683592Y-115695868D01*
X129683461Y-115694035D01*
X129679210Y-115687420D01*
X128635119Y-114643329D01*
X128621811Y-114636062D01*
X128611772Y-114643184D01*
X128599433Y-114658020D01*
X128594018Y-114665612D01*
X128461776Y-114883540D01*
X128457538Y-114891857D01*
X128358961Y-115126935D01*
X128356000Y-115135785D01*
X128293255Y-115382849D01*
X128291633Y-115392046D01*
X128266094Y-115645673D01*
X128265849Y-115654999D01*
X96685132Y-115654999D01*
X97002726Y-115337405D01*
X97065038Y-115303379D01*
X97091821Y-115300500D01*
X101508871Y-115300500D01*
X101525318Y-115301578D01*
X101547254Y-115304466D01*
X101552854Y-115304202D01*
X101552855Y-115304202D01*
X101628391Y-115300640D01*
X101634326Y-115300500D01*
X101656819Y-115300500D01*
X101677867Y-115298622D01*
X101682707Y-115298190D01*
X101687970Y-115297831D01*
X101723133Y-115296173D01*
X101770943Y-115293918D01*
X101788356Y-115289930D01*
X101805279Y-115287250D01*
X101823051Y-115285664D01*
X101903160Y-115263748D01*
X101908258Y-115262468D01*
X101949420Y-115253040D01*
X101983759Y-115245176D01*
X101983761Y-115245175D01*
X101989229Y-115243923D01*
X102005653Y-115236917D01*
X102021834Y-115231283D01*
X102033631Y-115228056D01*
X102033635Y-115228055D01*
X102039051Y-115226573D01*
X102044116Y-115224157D01*
X102044119Y-115224156D01*
X102114011Y-115190819D01*
X102118821Y-115188647D01*
X102190054Y-115158264D01*
X102190057Y-115158262D01*
X102195211Y-115156064D01*
X102210123Y-115146268D01*
X102225058Y-115137853D01*
X102236105Y-115132584D01*
X102236108Y-115132582D01*
X102241174Y-115130166D01*
X102308643Y-115081684D01*
X102312964Y-115078715D01*
X102378512Y-115035659D01*
X102378514Y-115035657D01*
X102382380Y-115033118D01*
X102403089Y-115014667D01*
X102413376Y-115006426D01*
X102418470Y-115002766D01*
X102418473Y-115002763D01*
X102423030Y-114999489D01*
X102497191Y-114922961D01*
X102498580Y-114921551D01*
X103148774Y-114271357D01*
X128986770Y-114271357D01*
X128991343Y-114281133D01*
X130035188Y-115324978D01*
X130049132Y-115332592D01*
X130050965Y-115332461D01*
X130057580Y-115328210D01*
X131100790Y-114285000D01*
X131107174Y-114273310D01*
X131097762Y-114261199D01*
X130956776Y-114163392D01*
X130948741Y-114158659D01*
X130720106Y-114045909D01*
X130711473Y-114042421D01*
X130468675Y-113964701D01*
X130459624Y-113962528D01*
X130208009Y-113921550D01*
X130198720Y-113920738D01*
X129943828Y-113917401D01*
X129934517Y-113917971D01*
X129681927Y-113952347D01*
X129672808Y-113954285D01*
X129428084Y-114025616D01*
X129419331Y-114028888D01*
X129187837Y-114135608D01*
X129179682Y-114140128D01*
X128995907Y-114260616D01*
X128986770Y-114271357D01*
X103148774Y-114271357D01*
X103311625Y-114108506D01*
X103324016Y-114097639D01*
X103337122Y-114087582D01*
X103341573Y-114084167D01*
X103345344Y-114080022D01*
X103345348Y-114080019D01*
X103396249Y-114024079D01*
X103400347Y-114019784D01*
X103416243Y-114003888D01*
X103432926Y-113983936D01*
X103436394Y-113979961D01*
X103459757Y-113954285D01*
X103492286Y-113918536D01*
X103501777Y-113903406D01*
X103511842Y-113889553D01*
X103523296Y-113875854D01*
X103564451Y-113803700D01*
X103567142Y-113799204D01*
X103611286Y-113728833D01*
X103617949Y-113712260D01*
X103625406Y-113696835D01*
X103634247Y-113681335D01*
X103661975Y-113603035D01*
X103663839Y-113598103D01*
X103692717Y-113526267D01*
X103694812Y-113521056D01*
X103695950Y-113515560D01*
X103695952Y-113515554D01*
X103698431Y-113503582D01*
X103703041Y-113487071D01*
X103707127Y-113475532D01*
X103709000Y-113470243D01*
X103722424Y-113388270D01*
X103723386Y-113383083D01*
X103739287Y-113306299D01*
X103739288Y-113306292D01*
X103740224Y-113301772D01*
X103741820Y-113274094D01*
X103743267Y-113260989D01*
X103744281Y-113254793D01*
X103745189Y-113249248D01*
X103743516Y-113142736D01*
X103743500Y-113140758D01*
X103743500Y-110899228D01*
X103743548Y-110897564D01*
X116130051Y-110897564D01*
X116156954Y-111119880D01*
X116222800Y-111333917D01*
X116325509Y-111532912D01*
X116461833Y-111710573D01*
X116465979Y-111714346D01*
X116465984Y-111714351D01*
X116584597Y-111822280D01*
X116627464Y-111861286D01*
X116817167Y-111980286D01*
X116822376Y-111982380D01*
X116822378Y-111982381D01*
X116873219Y-112002819D01*
X117024944Y-112063812D01*
X117030436Y-112064949D01*
X117030438Y-112064950D01*
X117097829Y-112078906D01*
X117244228Y-112109224D01*
X117248839Y-112109490D01*
X117248840Y-112109490D01*
X117299225Y-112112395D01*
X117299229Y-112112395D01*
X117301048Y-112112500D01*
X123238871Y-112112500D01*
X123255318Y-112113578D01*
X123277254Y-112116466D01*
X123282854Y-112116202D01*
X123282855Y-112116202D01*
X123358391Y-112112640D01*
X123364326Y-112112500D01*
X123386819Y-112112500D01*
X123407867Y-112110622D01*
X123412707Y-112110190D01*
X123417970Y-112109831D01*
X123453133Y-112108173D01*
X123500943Y-112105918D01*
X123518356Y-112101930D01*
X123535279Y-112099250D01*
X123553051Y-112097664D01*
X123633160Y-112075748D01*
X123638258Y-112074468D01*
X123684784Y-112063812D01*
X123713759Y-112057176D01*
X123713761Y-112057175D01*
X123719229Y-112055923D01*
X123735653Y-112048917D01*
X123751834Y-112043283D01*
X123763631Y-112040056D01*
X123763635Y-112040055D01*
X123769051Y-112038573D01*
X123774116Y-112036157D01*
X123774119Y-112036156D01*
X123844011Y-112002819D01*
X123848821Y-112000647D01*
X123920054Y-111970264D01*
X123920057Y-111970262D01*
X123925211Y-111968064D01*
X123940123Y-111958268D01*
X123955058Y-111949853D01*
X123966105Y-111944584D01*
X123966108Y-111944582D01*
X123971174Y-111942166D01*
X124038643Y-111893684D01*
X124042964Y-111890715D01*
X124046037Y-111888697D01*
X124093516Y-111857509D01*
X124108512Y-111847659D01*
X124108514Y-111847657D01*
X124112380Y-111845118D01*
X124133089Y-111826667D01*
X124143376Y-111818426D01*
X124148470Y-111814766D01*
X124148473Y-111814763D01*
X124153030Y-111811489D01*
X124227191Y-111734961D01*
X124228580Y-111733551D01*
X130870625Y-105091506D01*
X130883016Y-105080639D01*
X130896122Y-105070582D01*
X130900573Y-105067167D01*
X130904344Y-105063022D01*
X130904348Y-105063019D01*
X130955249Y-105007079D01*
X130959347Y-105002784D01*
X130975243Y-104986888D01*
X130991926Y-104966936D01*
X130995394Y-104962961D01*
X131013708Y-104942834D01*
X131051286Y-104901536D01*
X131060777Y-104886406D01*
X131070842Y-104872553D01*
X131082296Y-104858854D01*
X131123451Y-104786700D01*
X131126142Y-104782204D01*
X131170286Y-104711833D01*
X131176949Y-104695260D01*
X131184406Y-104679835D01*
X131193247Y-104664335D01*
X131220980Y-104586021D01*
X131222830Y-104581127D01*
X131253812Y-104504056D01*
X131257432Y-104486573D01*
X131262039Y-104470074D01*
X131268000Y-104453242D01*
X131281422Y-104371279D01*
X131282384Y-104366090D01*
X131298287Y-104289298D01*
X131298288Y-104289294D01*
X131299224Y-104284772D01*
X131300820Y-104257095D01*
X131302267Y-104243990D01*
X131303281Y-104237794D01*
X131303281Y-104237792D01*
X131304189Y-104232248D01*
X131302516Y-104125736D01*
X131302500Y-104123758D01*
X131302500Y-98823088D01*
X131321068Y-98757253D01*
X131407952Y-98615472D01*
X131410540Y-98611249D01*
X131502369Y-98389553D01*
X131521957Y-98307963D01*
X131557232Y-98161035D01*
X131557233Y-98161029D01*
X131558387Y-98156222D01*
X131577214Y-97917000D01*
X131558387Y-97677778D01*
X131557233Y-97672971D01*
X131557232Y-97672965D01*
X131503524Y-97449259D01*
X131502369Y-97444447D01*
X131410540Y-97222751D01*
X131285160Y-97018151D01*
X131129318Y-96835682D01*
X130946849Y-96679840D01*
X130742249Y-96554460D01*
X130737679Y-96552567D01*
X130737677Y-96552566D01*
X130525126Y-96464525D01*
X130525124Y-96464524D01*
X130520553Y-96462631D01*
X130438963Y-96443043D01*
X130292035Y-96407768D01*
X130292029Y-96407767D01*
X130287222Y-96406613D01*
X130048000Y-96387786D01*
X129808778Y-96406613D01*
X129803971Y-96407767D01*
X129803965Y-96407768D01*
X129657037Y-96443043D01*
X129575447Y-96462631D01*
X129570876Y-96464524D01*
X129570874Y-96464525D01*
X129358323Y-96552566D01*
X129358321Y-96552567D01*
X129353751Y-96554460D01*
X129149151Y-96679840D01*
X128966682Y-96835682D01*
X128810840Y-97018151D01*
X128685460Y-97222751D01*
X128593631Y-97444447D01*
X128592476Y-97449259D01*
X128538768Y-97672965D01*
X128538767Y-97672971D01*
X128537613Y-97677778D01*
X128518786Y-97917000D01*
X128537613Y-98156222D01*
X128538767Y-98161029D01*
X128538768Y-98161035D01*
X128574043Y-98307963D01*
X128593631Y-98389553D01*
X128685460Y-98611249D01*
X128688048Y-98615472D01*
X128774932Y-98757253D01*
X128793500Y-98823088D01*
X128793500Y-103568179D01*
X128773498Y-103636300D01*
X128756595Y-103657274D01*
X122847274Y-109566595D01*
X122784962Y-109600621D01*
X122758179Y-109603500D01*
X117332181Y-109603500D01*
X117329394Y-109603749D01*
X117329388Y-109603749D01*
X117271429Y-109608922D01*
X117165949Y-109618336D01*
X116949949Y-109677427D01*
X116944891Y-109679839D01*
X116944887Y-109679841D01*
X116752893Y-109771417D01*
X116747826Y-109773834D01*
X116743265Y-109777111D01*
X116743264Y-109777112D01*
X116595856Y-109883036D01*
X116565970Y-109904511D01*
X116410129Y-110065326D01*
X116407001Y-110069981D01*
X116311392Y-110212264D01*
X116285230Y-110251197D01*
X116225420Y-110387447D01*
X116209216Y-110424361D01*
X116195218Y-110456248D01*
X116193908Y-110461705D01*
X116159117Y-110606622D01*
X116142941Y-110673998D01*
X116130051Y-110897564D01*
X103743548Y-110897564D01*
X103743709Y-110891975D01*
X103747626Y-110824043D01*
X103747626Y-110824040D01*
X103747949Y-110818436D01*
X103737102Y-110728804D01*
X103736690Y-110724884D01*
X103729163Y-110640539D01*
X103729163Y-110640538D01*
X103728664Y-110634949D01*
X103725873Y-110624746D01*
X103722317Y-110606622D01*
X103721720Y-110601689D01*
X103721720Y-110601687D01*
X103721046Y-110596120D01*
X103694485Y-110509783D01*
X103693391Y-110506014D01*
X103671054Y-110424361D01*
X103671052Y-110424356D01*
X103669573Y-110418949D01*
X103665019Y-110409401D01*
X103658316Y-110392209D01*
X103656851Y-110387447D01*
X103656848Y-110387439D01*
X103655200Y-110382083D01*
X103613790Y-110301852D01*
X103612030Y-110298306D01*
X103575583Y-110221893D01*
X103575582Y-110221891D01*
X103573166Y-110216826D01*
X103566988Y-110208228D01*
X103557351Y-110192503D01*
X103555064Y-110188073D01*
X103552491Y-110183088D01*
X103549077Y-110178639D01*
X103549074Y-110178634D01*
X103497528Y-110111457D01*
X103495169Y-110108281D01*
X103445762Y-110039524D01*
X103445758Y-110039520D01*
X103442489Y-110034970D01*
X103434886Y-110027601D01*
X103422612Y-110013826D01*
X103419584Y-110009880D01*
X103416167Y-110005427D01*
X103349396Y-109944671D01*
X103346514Y-109941964D01*
X103281674Y-109879129D01*
X103272886Y-109873224D01*
X103258357Y-109861831D01*
X103254688Y-109858492D01*
X103254687Y-109858491D01*
X103250536Y-109854714D01*
X103245784Y-109851733D01*
X103245780Y-109851730D01*
X103174062Y-109806742D01*
X103170743Y-109804587D01*
X103121380Y-109771417D01*
X103095803Y-109754230D01*
X103086107Y-109749974D01*
X103069810Y-109741345D01*
X103060833Y-109735714D01*
X102977061Y-109702038D01*
X102973429Y-109700511D01*
X102895894Y-109666475D01*
X102895892Y-109666474D01*
X102890752Y-109664218D01*
X102885292Y-109662907D01*
X102880453Y-109661745D01*
X102862875Y-109656135D01*
X102862585Y-109656019D01*
X102853056Y-109652188D01*
X102798910Y-109640975D01*
X102764666Y-109633883D01*
X102760804Y-109633020D01*
X102678461Y-109613251D01*
X102678455Y-109613250D01*
X102673002Y-109611941D01*
X102662437Y-109611332D01*
X102644138Y-109608923D01*
X102633772Y-109606776D01*
X102619997Y-109605982D01*
X102578775Y-109603605D01*
X102578771Y-109603605D01*
X102576952Y-109603500D01*
X102530228Y-109603500D01*
X102522975Y-109603291D01*
X102455043Y-109599374D01*
X102455040Y-109599374D01*
X102449436Y-109599051D01*
X102420216Y-109602587D01*
X102405079Y-109603500D01*
X96316821Y-109603500D01*
X96248700Y-109583498D01*
X96227726Y-109566595D01*
X90699405Y-104038274D01*
X90665379Y-103975962D01*
X90662500Y-103949179D01*
X90662500Y-103194062D01*
X101767493Y-103194062D01*
X101776789Y-103206077D01*
X101827994Y-103241931D01*
X101837489Y-103247414D01*
X102034947Y-103339490D01*
X102045239Y-103343236D01*
X102255688Y-103399625D01*
X102266481Y-103401528D01*
X102483525Y-103420517D01*
X102494475Y-103420517D01*
X102711519Y-103401528D01*
X102722312Y-103399625D01*
X102932761Y-103343236D01*
X102943053Y-103339490D01*
X103140511Y-103247414D01*
X103150006Y-103241931D01*
X103202048Y-103205491D01*
X103210424Y-103195012D01*
X103209925Y-103194062D01*
X116667493Y-103194062D01*
X116676789Y-103206077D01*
X116727994Y-103241931D01*
X116737489Y-103247414D01*
X116934947Y-103339490D01*
X116945239Y-103343236D01*
X117155688Y-103399625D01*
X117166481Y-103401528D01*
X117383525Y-103420517D01*
X117394475Y-103420517D01*
X117611519Y-103401528D01*
X117622312Y-103399625D01*
X117832761Y-103343236D01*
X117843053Y-103339490D01*
X118040511Y-103247414D01*
X118050006Y-103241931D01*
X118102048Y-103205491D01*
X118110424Y-103195012D01*
X118103356Y-103181566D01*
X117401812Y-102480022D01*
X117387868Y-102472408D01*
X117386035Y-102472539D01*
X117379420Y-102476790D01*
X116673923Y-103182287D01*
X116667493Y-103194062D01*
X103209925Y-103194062D01*
X103203356Y-103181566D01*
X102501812Y-102480022D01*
X102487868Y-102472408D01*
X102486035Y-102472539D01*
X102479420Y-102476790D01*
X101773923Y-103182287D01*
X101767493Y-103194062D01*
X90662500Y-103194062D01*
X90662500Y-102113475D01*
X101176483Y-102113475D01*
X101195472Y-102330519D01*
X101197375Y-102341312D01*
X101253764Y-102551761D01*
X101257510Y-102562053D01*
X101349586Y-102759511D01*
X101355069Y-102769006D01*
X101391509Y-102821048D01*
X101401988Y-102829424D01*
X101415434Y-102822356D01*
X102116978Y-102120812D01*
X102123356Y-102109132D01*
X102853408Y-102109132D01*
X102853539Y-102110965D01*
X102857790Y-102117580D01*
X103563287Y-102823077D01*
X103575062Y-102829507D01*
X103587077Y-102820211D01*
X103622931Y-102769006D01*
X103628414Y-102759511D01*
X103720490Y-102562053D01*
X103724236Y-102551761D01*
X103780625Y-102341312D01*
X103782528Y-102330519D01*
X103801517Y-102113475D01*
X116076483Y-102113475D01*
X116095472Y-102330519D01*
X116097375Y-102341312D01*
X116153764Y-102551761D01*
X116157510Y-102562053D01*
X116249586Y-102759511D01*
X116255069Y-102769006D01*
X116291509Y-102821048D01*
X116301988Y-102829424D01*
X116315434Y-102822356D01*
X117016978Y-102120812D01*
X117023356Y-102109132D01*
X117753408Y-102109132D01*
X117753539Y-102110965D01*
X117757790Y-102117580D01*
X118463287Y-102823077D01*
X118475062Y-102829507D01*
X118487077Y-102820211D01*
X118522931Y-102769006D01*
X118528414Y-102759511D01*
X118620490Y-102562053D01*
X118624236Y-102551761D01*
X118680625Y-102341312D01*
X118682528Y-102330519D01*
X118701517Y-102113475D01*
X118701517Y-102102525D01*
X118682528Y-101885481D01*
X118680625Y-101874688D01*
X118624236Y-101664239D01*
X118620490Y-101653947D01*
X118528414Y-101456489D01*
X118522931Y-101446994D01*
X118486491Y-101394952D01*
X118476012Y-101386576D01*
X118462566Y-101393644D01*
X117761022Y-102095188D01*
X117753408Y-102109132D01*
X117023356Y-102109132D01*
X117024592Y-102106868D01*
X117024461Y-102105035D01*
X117020210Y-102098420D01*
X116314713Y-101392923D01*
X116302938Y-101386493D01*
X116290923Y-101395789D01*
X116255069Y-101446994D01*
X116249586Y-101456489D01*
X116157510Y-101653947D01*
X116153764Y-101664239D01*
X116097375Y-101874688D01*
X116095472Y-101885481D01*
X116076483Y-102102525D01*
X116076483Y-102113475D01*
X103801517Y-102113475D01*
X103801517Y-102102525D01*
X103782528Y-101885481D01*
X103780625Y-101874688D01*
X103724236Y-101664239D01*
X103720490Y-101653947D01*
X103628414Y-101456489D01*
X103622931Y-101446994D01*
X103586491Y-101394952D01*
X103576012Y-101386576D01*
X103562566Y-101393644D01*
X102861022Y-102095188D01*
X102853408Y-102109132D01*
X102123356Y-102109132D01*
X102124592Y-102106868D01*
X102124461Y-102105035D01*
X102120210Y-102098420D01*
X101414713Y-101392923D01*
X101402938Y-101386493D01*
X101390923Y-101395789D01*
X101355069Y-101446994D01*
X101349586Y-101456489D01*
X101257510Y-101653947D01*
X101253764Y-101664239D01*
X101197375Y-101874688D01*
X101195472Y-101885481D01*
X101176483Y-102102525D01*
X101176483Y-102113475D01*
X90662500Y-102113475D01*
X90662500Y-101020988D01*
X101767576Y-101020988D01*
X101774644Y-101034434D01*
X102476188Y-101735978D01*
X102490132Y-101743592D01*
X102491965Y-101743461D01*
X102498580Y-101739210D01*
X103204077Y-101033713D01*
X103210507Y-101021938D01*
X103209772Y-101020988D01*
X116667576Y-101020988D01*
X116674644Y-101034434D01*
X117376188Y-101735978D01*
X117390132Y-101743592D01*
X117391965Y-101743461D01*
X117398580Y-101739210D01*
X118104077Y-101033713D01*
X118110507Y-101021938D01*
X118101211Y-101009923D01*
X118050006Y-100974069D01*
X118040511Y-100968586D01*
X117843053Y-100876510D01*
X117832761Y-100872764D01*
X117622312Y-100816375D01*
X117611519Y-100814472D01*
X117394475Y-100795483D01*
X117383525Y-100795483D01*
X117166481Y-100814472D01*
X117155688Y-100816375D01*
X116945239Y-100872764D01*
X116934947Y-100876510D01*
X116737489Y-100968586D01*
X116727994Y-100974069D01*
X116675952Y-101010509D01*
X116667576Y-101020988D01*
X103209772Y-101020988D01*
X103201211Y-101009923D01*
X103150006Y-100974069D01*
X103140511Y-100968586D01*
X102943053Y-100876510D01*
X102932761Y-100872764D01*
X102722312Y-100816375D01*
X102711519Y-100814472D01*
X102494475Y-100795483D01*
X102483525Y-100795483D01*
X102266481Y-100814472D01*
X102255688Y-100816375D01*
X102045239Y-100872764D01*
X102034947Y-100876510D01*
X101837489Y-100968586D01*
X101827994Y-100974069D01*
X101775952Y-101010509D01*
X101767576Y-101020988D01*
X90662500Y-101020988D01*
X90662500Y-99552974D01*
X90682502Y-99484853D01*
X90736158Y-99438360D01*
X90763916Y-99429396D01*
X90777301Y-99426734D01*
X90787621Y-99419839D01*
X90787622Y-99419838D01*
X90851168Y-99377377D01*
X90861484Y-99370484D01*
X90917734Y-99286301D01*
X90920396Y-99272916D01*
X90921650Y-99270519D01*
X90924904Y-99262664D01*
X90925607Y-99262955D01*
X90953304Y-99210008D01*
X91015000Y-99174877D01*
X91043975Y-99171500D01*
X100619871Y-99171500D01*
X100636318Y-99172578D01*
X100658254Y-99175466D01*
X100663854Y-99175202D01*
X100663855Y-99175202D01*
X100739391Y-99171640D01*
X100745326Y-99171500D01*
X100767819Y-99171500D01*
X100788867Y-99169622D01*
X100793707Y-99169190D01*
X100798970Y-99168831D01*
X100834133Y-99167173D01*
X100881943Y-99164918D01*
X100899356Y-99160930D01*
X100916279Y-99158250D01*
X100934051Y-99156664D01*
X101014160Y-99134748D01*
X101019258Y-99133468D01*
X101060420Y-99124040D01*
X101094759Y-99116176D01*
X101094761Y-99116175D01*
X101100229Y-99114923D01*
X101116653Y-99107917D01*
X101132834Y-99102283D01*
X101144631Y-99099056D01*
X101144635Y-99099055D01*
X101150051Y-99097573D01*
X101155116Y-99095157D01*
X101155119Y-99095156D01*
X101225011Y-99061819D01*
X101229821Y-99059647D01*
X101301054Y-99029264D01*
X101301057Y-99029262D01*
X101306211Y-99027064D01*
X101321123Y-99017268D01*
X101336058Y-99008853D01*
X101347105Y-99003584D01*
X101347108Y-99003582D01*
X101352174Y-99001166D01*
X101419643Y-98952684D01*
X101423964Y-98949715D01*
X101489512Y-98906659D01*
X101489514Y-98906657D01*
X101493380Y-98904118D01*
X101514089Y-98885667D01*
X101524376Y-98877426D01*
X101529470Y-98873766D01*
X101529473Y-98873763D01*
X101534030Y-98870489D01*
X101608191Y-98793961D01*
X101609580Y-98792551D01*
X105724625Y-94677506D01*
X105737016Y-94666639D01*
X105750122Y-94656582D01*
X105754573Y-94653167D01*
X105758344Y-94649022D01*
X105758348Y-94649019D01*
X105809249Y-94593079D01*
X105813347Y-94588784D01*
X105829243Y-94572888D01*
X105845926Y-94552936D01*
X105849394Y-94548961D01*
X105890302Y-94504003D01*
X105905286Y-94487536D01*
X105914777Y-94472406D01*
X105924842Y-94458553D01*
X105936296Y-94444854D01*
X105977451Y-94372700D01*
X105980142Y-94368204D01*
X106024286Y-94297833D01*
X106030949Y-94281260D01*
X106038406Y-94265835D01*
X106047247Y-94250335D01*
X106074975Y-94172035D01*
X106076839Y-94167103D01*
X106105717Y-94095267D01*
X106107812Y-94090056D01*
X106108950Y-94084560D01*
X106108952Y-94084554D01*
X106111431Y-94072582D01*
X106116041Y-94056071D01*
X106120127Y-94044532D01*
X106122000Y-94039243D01*
X106135424Y-93957270D01*
X106136386Y-93952083D01*
X106152287Y-93875299D01*
X106152288Y-93875292D01*
X106153224Y-93870772D01*
X106153490Y-93866160D01*
X106154820Y-93843094D01*
X106156267Y-93829989D01*
X106157281Y-93823793D01*
X106158189Y-93818248D01*
X106158095Y-93812219D01*
X106156516Y-93711767D01*
X106156500Y-93709788D01*
X106156500Y-89899500D01*
X106176502Y-89831379D01*
X106230158Y-89784886D01*
X106282500Y-89773500D01*
X110038819Y-89773500D01*
X110041606Y-89773251D01*
X110041612Y-89773251D01*
X110110962Y-89767061D01*
X110205051Y-89758664D01*
X110421051Y-89699573D01*
X110426109Y-89697161D01*
X110426113Y-89697159D01*
X110618107Y-89605583D01*
X110618109Y-89605582D01*
X110623174Y-89603166D01*
X110627736Y-89599888D01*
X110800470Y-89475766D01*
X110800472Y-89475764D01*
X110805030Y-89472489D01*
X110947517Y-89325454D01*
X111009287Y-89290454D01*
X111080174Y-89294406D01*
X111137671Y-89336055D01*
X111163523Y-89402177D01*
X111164001Y-89413139D01*
X111164001Y-89413669D01*
X111164371Y-89420490D01*
X111169895Y-89471352D01*
X111173521Y-89486604D01*
X111218676Y-89607054D01*
X111227214Y-89622649D01*
X111303715Y-89724724D01*
X111316276Y-89737285D01*
X111418351Y-89813786D01*
X111433946Y-89822324D01*
X111554394Y-89867478D01*
X111569649Y-89871105D01*
X111620514Y-89876631D01*
X111627328Y-89877000D01*
X112249885Y-89877000D01*
X112265124Y-89872525D01*
X112266329Y-89871135D01*
X112268000Y-89863452D01*
X112268000Y-89858884D01*
X112776000Y-89858884D01*
X112780475Y-89874123D01*
X112781865Y-89875328D01*
X112789548Y-89876999D01*
X113416669Y-89876999D01*
X113423490Y-89876629D01*
X113474352Y-89871105D01*
X113489604Y-89867479D01*
X113610054Y-89822324D01*
X113625649Y-89813786D01*
X113727724Y-89737285D01*
X113740285Y-89724724D01*
X113816786Y-89622649D01*
X113825325Y-89607052D01*
X113866425Y-89497418D01*
X113909066Y-89440653D01*
X113975628Y-89415953D01*
X114044977Y-89431160D01*
X114079645Y-89459150D01*
X114105219Y-89488674D01*
X114112580Y-89495883D01*
X114276434Y-89631916D01*
X114284881Y-89637831D01*
X114468756Y-89745279D01*
X114478042Y-89749729D01*
X114677001Y-89825703D01*
X114686899Y-89828579D01*
X114790250Y-89849606D01*
X114804299Y-89848410D01*
X114808000Y-89838065D01*
X114808000Y-89837517D01*
X115316000Y-89837517D01*
X115320064Y-89851359D01*
X115333478Y-89853393D01*
X115340184Y-89852534D01*
X115350262Y-89850392D01*
X115554255Y-89789191D01*
X115563842Y-89785433D01*
X115755095Y-89691739D01*
X115763945Y-89686464D01*
X115937328Y-89562792D01*
X115945200Y-89556139D01*
X116096052Y-89405812D01*
X116102730Y-89397965D01*
X116230022Y-89220819D01*
X116231147Y-89221627D01*
X116278669Y-89177876D01*
X116348607Y-89165661D01*
X116414046Y-89193197D01*
X116441870Y-89225028D01*
X116499690Y-89319383D01*
X116505777Y-89327699D01*
X116645213Y-89488667D01*
X116652580Y-89495883D01*
X116816434Y-89631916D01*
X116824881Y-89637831D01*
X117008756Y-89745279D01*
X117018042Y-89749729D01*
X117217001Y-89825703D01*
X117226899Y-89828579D01*
X117330250Y-89849606D01*
X117344299Y-89848410D01*
X117348000Y-89838065D01*
X117348000Y-89837517D01*
X117856000Y-89837517D01*
X117860064Y-89851359D01*
X117873478Y-89853393D01*
X117880184Y-89852534D01*
X117890262Y-89850392D01*
X118094255Y-89789191D01*
X118103842Y-89785433D01*
X118295095Y-89691739D01*
X118303945Y-89686464D01*
X118477328Y-89562792D01*
X118485200Y-89556139D01*
X118590286Y-89451418D01*
X118652657Y-89417501D01*
X118723464Y-89422689D01*
X118780226Y-89465335D01*
X118797208Y-89496439D01*
X118838675Y-89607052D01*
X118847214Y-89622649D01*
X118923715Y-89724724D01*
X118936276Y-89737285D01*
X119038351Y-89813786D01*
X119053946Y-89822324D01*
X119174394Y-89867478D01*
X119189649Y-89871105D01*
X119240514Y-89876631D01*
X119247328Y-89877000D01*
X119869885Y-89877000D01*
X119885124Y-89872525D01*
X119886329Y-89871135D01*
X119888000Y-89863452D01*
X119888000Y-89858884D01*
X120396000Y-89858884D01*
X120400475Y-89874123D01*
X120401865Y-89875328D01*
X120409548Y-89876999D01*
X121036669Y-89876999D01*
X121043490Y-89876629D01*
X121094352Y-89871105D01*
X121109604Y-89867479D01*
X121230054Y-89822324D01*
X121245649Y-89813786D01*
X121347724Y-89737285D01*
X121360285Y-89724724D01*
X121436786Y-89622649D01*
X121445325Y-89607052D01*
X121486425Y-89497418D01*
X121529066Y-89440653D01*
X121595628Y-89415953D01*
X121664977Y-89431160D01*
X121699645Y-89459150D01*
X121725219Y-89488674D01*
X121732580Y-89495883D01*
X121896434Y-89631916D01*
X121904881Y-89637831D01*
X122088756Y-89745279D01*
X122098042Y-89749729D01*
X122297001Y-89825703D01*
X122306899Y-89828579D01*
X122410250Y-89849606D01*
X122424299Y-89848410D01*
X122428000Y-89838065D01*
X122428000Y-89837517D01*
X122936000Y-89837517D01*
X122940064Y-89851359D01*
X122953478Y-89853393D01*
X122960184Y-89852534D01*
X122970262Y-89850392D01*
X123174255Y-89789191D01*
X123183842Y-89785433D01*
X123375095Y-89691739D01*
X123383945Y-89686464D01*
X123557328Y-89562792D01*
X123565200Y-89556139D01*
X123716052Y-89405812D01*
X123722730Y-89397965D01*
X123850022Y-89220819D01*
X123851147Y-89221627D01*
X123898669Y-89177876D01*
X123968607Y-89165661D01*
X124034046Y-89193197D01*
X124061870Y-89225028D01*
X124119690Y-89319383D01*
X124125777Y-89327699D01*
X124265213Y-89488667D01*
X124272580Y-89495883D01*
X124436434Y-89631916D01*
X124444881Y-89637831D01*
X124628756Y-89745279D01*
X124638042Y-89749729D01*
X124837001Y-89825703D01*
X124846899Y-89828579D01*
X124950250Y-89849606D01*
X124964299Y-89848410D01*
X124968000Y-89838065D01*
X124968000Y-89837517D01*
X125476000Y-89837517D01*
X125480064Y-89851359D01*
X125493478Y-89853393D01*
X125500184Y-89852534D01*
X125510262Y-89850392D01*
X125714255Y-89789191D01*
X125723842Y-89785433D01*
X125915095Y-89691739D01*
X125923945Y-89686464D01*
X126097328Y-89562792D01*
X126105200Y-89556139D01*
X126150114Y-89511381D01*
X128532160Y-89511381D01*
X128532237Y-89512470D01*
X128534698Y-89516206D01*
X128808632Y-89726404D01*
X128814262Y-89730259D01*
X129114591Y-89912862D01*
X129120593Y-89916080D01*
X129438897Y-90065184D01*
X129445202Y-90067732D01*
X129777743Y-90181587D01*
X129784313Y-90183446D01*
X130127183Y-90260714D01*
X130133912Y-90261853D01*
X130483143Y-90301643D01*
X130489933Y-90302046D01*
X130841419Y-90303886D01*
X130848220Y-90303554D01*
X131197853Y-90267423D01*
X131204581Y-90266357D01*
X131548274Y-90192676D01*
X131554822Y-90190897D01*
X131888549Y-90080527D01*
X131894891Y-90078041D01*
X132214718Y-89932288D01*
X132220777Y-89929121D01*
X132522995Y-89749676D01*
X132528659Y-89745884D01*
X132809732Y-89534849D01*
X132814958Y-89530464D01*
X132824613Y-89521428D01*
X132832682Y-89507750D01*
X132832654Y-89507024D01*
X132827512Y-89498723D01*
X130695810Y-87367020D01*
X130681869Y-87359408D01*
X130680034Y-87359539D01*
X130673420Y-87363790D01*
X128539774Y-89497437D01*
X128532160Y-89511381D01*
X126150114Y-89511381D01*
X126256052Y-89405812D01*
X126262730Y-89397965D01*
X126387003Y-89225020D01*
X126392313Y-89216183D01*
X126486670Y-89025267D01*
X126490469Y-89015672D01*
X126552377Y-88811910D01*
X126554555Y-88801837D01*
X126555986Y-88790962D01*
X126553775Y-88776778D01*
X126540617Y-88773000D01*
X125494115Y-88773000D01*
X125478876Y-88777475D01*
X125477671Y-88778865D01*
X125476000Y-88786548D01*
X125476000Y-89837517D01*
X124968000Y-89837517D01*
X124968000Y-88791115D01*
X124963525Y-88775876D01*
X124962135Y-88774671D01*
X124954452Y-88773000D01*
X122954115Y-88773000D01*
X122938876Y-88777475D01*
X122937671Y-88778865D01*
X122936000Y-88786548D01*
X122936000Y-89837517D01*
X122428000Y-89837517D01*
X122428000Y-88791115D01*
X122423525Y-88775876D01*
X122422135Y-88774671D01*
X122414452Y-88773000D01*
X120414115Y-88773000D01*
X120398876Y-88777475D01*
X120397671Y-88778865D01*
X120396000Y-88786548D01*
X120396000Y-89858884D01*
X119888000Y-89858884D01*
X119888000Y-88791115D01*
X119883525Y-88775876D01*
X119882135Y-88774671D01*
X119874452Y-88773000D01*
X117874115Y-88773000D01*
X117858876Y-88777475D01*
X117857671Y-88778865D01*
X117856000Y-88786548D01*
X117856000Y-89837517D01*
X117348000Y-89837517D01*
X117348000Y-88791115D01*
X117343525Y-88775876D01*
X117342135Y-88774671D01*
X117334452Y-88773000D01*
X115334115Y-88773000D01*
X115318876Y-88777475D01*
X115317671Y-88778865D01*
X115316000Y-88786548D01*
X115316000Y-89837517D01*
X114808000Y-89837517D01*
X114808000Y-88791115D01*
X114803525Y-88775876D01*
X114802135Y-88774671D01*
X114794452Y-88773000D01*
X112794115Y-88773000D01*
X112778876Y-88777475D01*
X112777671Y-88778865D01*
X112776000Y-88786548D01*
X112776000Y-89858884D01*
X112268000Y-89858884D01*
X112268000Y-88391000D01*
X112288002Y-88322879D01*
X112341658Y-88276386D01*
X112394000Y-88265000D01*
X126540344Y-88265000D01*
X126553875Y-88261027D01*
X126555180Y-88251947D01*
X126513214Y-88084875D01*
X126509894Y-88075124D01*
X126424972Y-87879814D01*
X126420105Y-87870739D01*
X126304426Y-87691926D01*
X126298136Y-87683757D01*
X126154806Y-87526240D01*
X126147273Y-87519215D01*
X125980139Y-87387222D01*
X125971552Y-87381517D01*
X125785117Y-87278599D01*
X125775705Y-87274369D01*
X125574959Y-87203280D01*
X125564988Y-87200646D01*
X125459493Y-87181855D01*
X125395936Y-87150217D01*
X125359572Y-87089240D01*
X125361949Y-87018283D01*
X125383682Y-86986832D01*
X127370333Y-86986832D01*
X127388117Y-87337893D01*
X127388827Y-87344649D01*
X127444420Y-87691723D01*
X127445859Y-87698378D01*
X127538608Y-88037410D01*
X127540757Y-88043871D01*
X127669581Y-88370912D01*
X127672412Y-88377095D01*
X127835803Y-88688310D01*
X127839286Y-88694152D01*
X128035330Y-88985896D01*
X128039433Y-88991340D01*
X128159425Y-89133836D01*
X128172164Y-89142279D01*
X128182608Y-89136181D01*
X130310980Y-87007810D01*
X130317357Y-86996131D01*
X131047408Y-86996131D01*
X131047539Y-86997966D01*
X131051790Y-87004580D01*
X133182009Y-89134798D01*
X133195605Y-89142223D01*
X133205218Y-89135522D01*
X133305518Y-89018912D01*
X133309676Y-89013514D01*
X133508762Y-88723840D01*
X133512310Y-88718029D01*
X133678942Y-88408559D01*
X133681849Y-88402381D01*
X133814090Y-88076713D01*
X133816304Y-88070283D01*
X133912598Y-87732237D01*
X133914105Y-87725607D01*
X133973332Y-87379118D01*
X133974112Y-87372378D01*
X133995668Y-87019925D01*
X133995784Y-87016323D01*
X133995853Y-86996819D01*
X133995761Y-86993194D01*
X133976666Y-86640615D01*
X133975931Y-86633849D01*
X133919130Y-86286985D01*
X133917663Y-86280313D01*
X133823736Y-85941627D01*
X133821562Y-85935163D01*
X133691598Y-85608578D01*
X133688742Y-85602398D01*
X133524269Y-85291763D01*
X133520769Y-85285937D01*
X133323697Y-84994862D01*
X133319590Y-84989453D01*
X133206565Y-84856179D01*
X133193740Y-84847743D01*
X133183416Y-84853795D01*
X131055020Y-86982190D01*
X131047408Y-86996131D01*
X130317357Y-86996131D01*
X130318592Y-86993869D01*
X130318461Y-86992034D01*
X130314210Y-86985420D01*
X128183992Y-84855203D01*
X128170455Y-84847811D01*
X128160753Y-84854599D01*
X128053430Y-84980257D01*
X128049296Y-84985664D01*
X127851215Y-85276041D01*
X127847697Y-85281851D01*
X127682134Y-85591922D01*
X127679259Y-85598087D01*
X127548155Y-85924218D01*
X127545962Y-85930658D01*
X127450846Y-86269044D01*
X127449363Y-86275679D01*
X127391350Y-86622354D01*
X127390591Y-86629126D01*
X127370357Y-86980037D01*
X127370333Y-86986832D01*
X125383682Y-86986832D01*
X125402310Y-86959875D01*
X125463510Y-86933112D01*
X125475230Y-86931413D01*
X125475234Y-86931412D01*
X125480945Y-86930584D01*
X125486409Y-86928729D01*
X125486414Y-86928728D01*
X125667693Y-86867192D01*
X125667698Y-86867190D01*
X125673165Y-86865334D01*
X125700366Y-86850101D01*
X125754822Y-86819604D01*
X125850276Y-86766147D01*
X125865495Y-86753490D01*
X126001913Y-86640031D01*
X126006345Y-86636345D01*
X126113008Y-86508098D01*
X126132453Y-86484718D01*
X126132455Y-86484715D01*
X126136147Y-86480276D01*
X126235334Y-86303165D01*
X126237190Y-86297698D01*
X126237192Y-86297693D01*
X126298728Y-86116414D01*
X126298729Y-86116409D01*
X126300584Y-86110945D01*
X126301412Y-86105236D01*
X126301413Y-86105231D01*
X126326071Y-85935163D01*
X126329712Y-85910053D01*
X126331232Y-85852000D01*
X126319797Y-85727551D01*
X126313187Y-85655613D01*
X126313186Y-85655610D01*
X126312658Y-85649859D01*
X126311090Y-85644299D01*
X126259125Y-85460046D01*
X126259124Y-85460044D01*
X126257557Y-85454487D01*
X126251926Y-85443067D01*
X126170331Y-85277609D01*
X126167776Y-85272428D01*
X126162468Y-85265319D01*
X126125800Y-85216215D01*
X126046320Y-85109779D01*
X125897258Y-84971987D01*
X125892375Y-84968906D01*
X125892371Y-84968903D01*
X125732214Y-84867852D01*
X125725581Y-84863667D01*
X125537039Y-84788446D01*
X125531379Y-84787320D01*
X125531375Y-84787319D01*
X125343613Y-84749971D01*
X125343610Y-84749971D01*
X125337946Y-84748844D01*
X125332171Y-84748768D01*
X125332167Y-84748768D01*
X125230793Y-84747441D01*
X125134971Y-84746187D01*
X125129274Y-84747166D01*
X125129273Y-84747166D01*
X125041397Y-84762266D01*
X124934910Y-84780564D01*
X124744463Y-84850824D01*
X124739502Y-84853776D01*
X124739501Y-84853776D01*
X124735462Y-84856179D01*
X124570010Y-84954612D01*
X124565670Y-84958418D01*
X124565666Y-84958421D01*
X124421733Y-85084648D01*
X124417392Y-85088455D01*
X124413817Y-85092990D01*
X124413816Y-85092991D01*
X124401512Y-85108599D01*
X124291720Y-85247869D01*
X124289031Y-85252980D01*
X124289029Y-85252983D01*
X124277507Y-85274883D01*
X124197203Y-85427515D01*
X124188828Y-85454487D01*
X124140982Y-85608578D01*
X124137007Y-85621378D01*
X124113148Y-85822964D01*
X124126424Y-86025522D01*
X124127845Y-86031118D01*
X124127846Y-86031123D01*
X124158501Y-86151823D01*
X124176392Y-86222269D01*
X124178809Y-86227512D01*
X124216010Y-86308208D01*
X124261377Y-86406616D01*
X124264710Y-86411332D01*
X124343660Y-86523044D01*
X124378533Y-86572389D01*
X124523938Y-86714035D01*
X124528742Y-86717245D01*
X124582980Y-86753486D01*
X124692720Y-86826812D01*
X124698023Y-86829090D01*
X124698026Y-86829092D01*
X124845327Y-86892377D01*
X124879228Y-86906942D01*
X124996616Y-86933504D01*
X125058642Y-86968047D01*
X125092147Y-87030640D01*
X125086493Y-87101411D01*
X125043474Y-87157891D01*
X124987867Y-87180947D01*
X124911321Y-87192661D01*
X124901293Y-87195050D01*
X124698868Y-87261212D01*
X124689359Y-87265209D01*
X124500463Y-87363542D01*
X124491738Y-87369036D01*
X124321433Y-87496905D01*
X124313726Y-87503748D01*
X124166590Y-87657717D01*
X124160104Y-87665727D01*
X124055193Y-87819521D01*
X124000282Y-87864524D01*
X123929757Y-87872695D01*
X123866010Y-87841441D01*
X123845313Y-87816957D01*
X123764427Y-87691926D01*
X123758136Y-87683757D01*
X123614806Y-87526240D01*
X123607273Y-87519215D01*
X123440139Y-87387222D01*
X123431552Y-87381517D01*
X123245117Y-87278599D01*
X123235705Y-87274369D01*
X123034959Y-87203280D01*
X123024988Y-87200646D01*
X122919493Y-87181855D01*
X122855936Y-87150217D01*
X122819572Y-87089240D01*
X122821949Y-87018283D01*
X122862310Y-86959875D01*
X122923510Y-86933112D01*
X122935230Y-86931413D01*
X122935234Y-86931412D01*
X122940945Y-86930584D01*
X122946409Y-86928729D01*
X122946414Y-86928728D01*
X123127693Y-86867192D01*
X123127698Y-86867190D01*
X123133165Y-86865334D01*
X123160366Y-86850101D01*
X123214822Y-86819604D01*
X123310276Y-86766147D01*
X123325495Y-86753490D01*
X123461913Y-86640031D01*
X123466345Y-86636345D01*
X123573008Y-86508098D01*
X123592453Y-86484718D01*
X123592455Y-86484715D01*
X123596147Y-86480276D01*
X123695334Y-86303165D01*
X123697190Y-86297698D01*
X123697192Y-86297693D01*
X123758728Y-86116414D01*
X123758729Y-86116409D01*
X123760584Y-86110945D01*
X123761412Y-86105236D01*
X123761413Y-86105231D01*
X123786071Y-85935163D01*
X123789712Y-85910053D01*
X123791232Y-85852000D01*
X123779797Y-85727551D01*
X123773187Y-85655613D01*
X123773186Y-85655610D01*
X123772658Y-85649859D01*
X123771090Y-85644299D01*
X123719125Y-85460046D01*
X123719124Y-85460044D01*
X123717557Y-85454487D01*
X123711926Y-85443067D01*
X123630331Y-85277609D01*
X123627776Y-85272428D01*
X123622468Y-85265319D01*
X123585800Y-85216215D01*
X123506320Y-85109779D01*
X123357258Y-84971987D01*
X123352375Y-84968906D01*
X123352371Y-84968903D01*
X123192214Y-84867852D01*
X123185581Y-84863667D01*
X122997039Y-84788446D01*
X122991379Y-84787320D01*
X122991375Y-84787319D01*
X122803613Y-84749971D01*
X122803610Y-84749971D01*
X122797946Y-84748844D01*
X122792171Y-84748768D01*
X122792167Y-84748768D01*
X122690793Y-84747441D01*
X122594971Y-84746187D01*
X122589274Y-84747166D01*
X122589273Y-84747166D01*
X122501397Y-84762266D01*
X122394910Y-84780564D01*
X122204463Y-84850824D01*
X122199502Y-84853776D01*
X122199501Y-84853776D01*
X122195462Y-84856179D01*
X122030010Y-84954612D01*
X122025670Y-84958418D01*
X122025666Y-84958421D01*
X121881733Y-85084648D01*
X121877392Y-85088455D01*
X121873817Y-85092990D01*
X121873816Y-85092991D01*
X121861512Y-85108599D01*
X121751720Y-85247869D01*
X121749031Y-85252980D01*
X121749029Y-85252983D01*
X121737507Y-85274883D01*
X121657203Y-85427515D01*
X121648828Y-85454487D01*
X121600982Y-85608578D01*
X121597007Y-85621378D01*
X121573148Y-85822964D01*
X121586424Y-86025522D01*
X121587845Y-86031118D01*
X121587846Y-86031123D01*
X121618501Y-86151823D01*
X121636392Y-86222269D01*
X121638809Y-86227512D01*
X121676010Y-86308208D01*
X121721377Y-86406616D01*
X121724710Y-86411332D01*
X121803660Y-86523044D01*
X121838533Y-86572389D01*
X121983938Y-86714035D01*
X121988742Y-86717245D01*
X122042980Y-86753486D01*
X122152720Y-86826812D01*
X122158023Y-86829090D01*
X122158026Y-86829092D01*
X122305327Y-86892377D01*
X122339228Y-86906942D01*
X122456616Y-86933504D01*
X122518642Y-86968047D01*
X122552147Y-87030640D01*
X122546493Y-87101411D01*
X122503474Y-87157891D01*
X122447867Y-87180947D01*
X122371321Y-87192661D01*
X122361293Y-87195050D01*
X122158868Y-87261212D01*
X122149359Y-87265209D01*
X121960463Y-87363542D01*
X121951738Y-87369036D01*
X121781433Y-87496905D01*
X121773726Y-87503748D01*
X121696094Y-87584985D01*
X121634570Y-87620415D01*
X121563657Y-87616958D01*
X121505871Y-87575712D01*
X121487018Y-87542164D01*
X121445324Y-87430946D01*
X121436786Y-87415351D01*
X121360285Y-87313276D01*
X121347724Y-87300715D01*
X121245649Y-87224214D01*
X121230054Y-87215676D01*
X121105870Y-87169121D01*
X121049106Y-87126479D01*
X121024406Y-87059918D01*
X121039614Y-86990569D01*
X121087942Y-86942402D01*
X121091301Y-86941734D01*
X121101528Y-86934900D01*
X121101531Y-86934899D01*
X121165168Y-86892377D01*
X121175484Y-86885484D01*
X121231734Y-86801301D01*
X121246500Y-86727067D01*
X121246499Y-84976934D01*
X121231734Y-84902699D01*
X121205654Y-84863667D01*
X121182377Y-84828832D01*
X121175484Y-84818516D01*
X121091301Y-84762266D01*
X121017067Y-84747500D01*
X120142142Y-84747500D01*
X119266934Y-84747501D01*
X119231182Y-84754612D01*
X119204874Y-84759844D01*
X119204872Y-84759845D01*
X119192699Y-84762266D01*
X119182379Y-84769161D01*
X119182378Y-84769162D01*
X119144064Y-84794763D01*
X119108516Y-84818516D01*
X119052266Y-84902699D01*
X119037500Y-84976933D01*
X119037501Y-86727066D01*
X119052266Y-86801301D01*
X119059161Y-86811620D01*
X119059162Y-86811622D01*
X119097032Y-86868297D01*
X119108516Y-86885484D01*
X119118832Y-86892377D01*
X119192699Y-86941734D01*
X119192037Y-86942725D01*
X119237397Y-86979275D01*
X119259820Y-87046638D01*
X119242264Y-87115429D01*
X119190303Y-87163810D01*
X119178130Y-87169121D01*
X119053946Y-87215676D01*
X119038351Y-87224214D01*
X118936276Y-87300715D01*
X118923715Y-87313276D01*
X118847214Y-87415351D01*
X118838676Y-87430946D01*
X118797100Y-87541849D01*
X118754458Y-87598613D01*
X118687897Y-87623313D01*
X118618548Y-87608105D01*
X118585925Y-87582419D01*
X118534806Y-87526240D01*
X118527273Y-87519215D01*
X118360139Y-87387222D01*
X118351552Y-87381517D01*
X118165117Y-87278599D01*
X118155705Y-87274369D01*
X117954959Y-87203280D01*
X117944988Y-87200646D01*
X117839493Y-87181855D01*
X117775936Y-87150217D01*
X117739572Y-87089240D01*
X117741949Y-87018283D01*
X117782310Y-86959875D01*
X117843510Y-86933112D01*
X117855230Y-86931413D01*
X117855234Y-86931412D01*
X117860945Y-86930584D01*
X117866409Y-86928729D01*
X117866414Y-86928728D01*
X118047693Y-86867192D01*
X118047698Y-86867190D01*
X118053165Y-86865334D01*
X118080366Y-86850101D01*
X118134822Y-86819604D01*
X118230276Y-86766147D01*
X118245495Y-86753490D01*
X118381913Y-86640031D01*
X118386345Y-86636345D01*
X118493008Y-86508098D01*
X118512453Y-86484718D01*
X118512455Y-86484715D01*
X118516147Y-86480276D01*
X118615334Y-86303165D01*
X118617190Y-86297698D01*
X118617192Y-86297693D01*
X118678728Y-86116414D01*
X118678729Y-86116409D01*
X118680584Y-86110945D01*
X118681412Y-86105236D01*
X118681413Y-86105231D01*
X118706071Y-85935163D01*
X118709712Y-85910053D01*
X118711232Y-85852000D01*
X118699797Y-85727551D01*
X118693187Y-85655613D01*
X118693186Y-85655610D01*
X118692658Y-85649859D01*
X118691090Y-85644299D01*
X118639125Y-85460046D01*
X118639124Y-85460044D01*
X118637557Y-85454487D01*
X118631926Y-85443067D01*
X118550331Y-85277609D01*
X118547776Y-85272428D01*
X118542468Y-85265319D01*
X118505800Y-85216215D01*
X118426320Y-85109779D01*
X118277258Y-84971987D01*
X118272375Y-84968906D01*
X118272371Y-84968903D01*
X118112214Y-84867852D01*
X118105581Y-84863667D01*
X117917039Y-84788446D01*
X117911379Y-84787320D01*
X117911375Y-84787319D01*
X117723613Y-84749971D01*
X117723610Y-84749971D01*
X117717946Y-84748844D01*
X117712171Y-84748768D01*
X117712167Y-84748768D01*
X117610793Y-84747441D01*
X117514971Y-84746187D01*
X117509274Y-84747166D01*
X117509273Y-84747166D01*
X117421397Y-84762266D01*
X117314910Y-84780564D01*
X117124463Y-84850824D01*
X117119502Y-84853776D01*
X117119501Y-84853776D01*
X117115462Y-84856179D01*
X116950010Y-84954612D01*
X116945670Y-84958418D01*
X116945666Y-84958421D01*
X116801733Y-85084648D01*
X116797392Y-85088455D01*
X116793817Y-85092990D01*
X116793816Y-85092991D01*
X116781512Y-85108599D01*
X116671720Y-85247869D01*
X116669031Y-85252980D01*
X116669029Y-85252983D01*
X116657507Y-85274883D01*
X116577203Y-85427515D01*
X116568828Y-85454487D01*
X116520982Y-85608578D01*
X116517007Y-85621378D01*
X116493148Y-85822964D01*
X116506424Y-86025522D01*
X116507845Y-86031118D01*
X116507846Y-86031123D01*
X116538501Y-86151823D01*
X116556392Y-86222269D01*
X116558809Y-86227512D01*
X116596010Y-86308208D01*
X116641377Y-86406616D01*
X116644710Y-86411332D01*
X116723660Y-86523044D01*
X116758533Y-86572389D01*
X116903938Y-86714035D01*
X116908742Y-86717245D01*
X116962980Y-86753486D01*
X117072720Y-86826812D01*
X117078023Y-86829090D01*
X117078026Y-86829092D01*
X117225327Y-86892377D01*
X117259228Y-86906942D01*
X117376616Y-86933504D01*
X117438642Y-86968047D01*
X117472147Y-87030640D01*
X117466493Y-87101411D01*
X117423474Y-87157891D01*
X117367867Y-87180947D01*
X117291321Y-87192661D01*
X117281293Y-87195050D01*
X117078868Y-87261212D01*
X117069359Y-87265209D01*
X116880463Y-87363542D01*
X116871738Y-87369036D01*
X116701433Y-87496905D01*
X116693726Y-87503748D01*
X116546590Y-87657717D01*
X116540104Y-87665727D01*
X116435193Y-87819521D01*
X116380282Y-87864524D01*
X116309757Y-87872695D01*
X116246010Y-87841441D01*
X116225313Y-87816957D01*
X116144427Y-87691926D01*
X116138136Y-87683757D01*
X115994806Y-87526240D01*
X115987273Y-87519215D01*
X115820139Y-87387222D01*
X115811552Y-87381517D01*
X115625117Y-87278599D01*
X115615705Y-87274369D01*
X115414959Y-87203280D01*
X115404988Y-87200646D01*
X115299493Y-87181855D01*
X115235936Y-87150217D01*
X115199572Y-87089240D01*
X115201949Y-87018283D01*
X115242310Y-86959875D01*
X115303510Y-86933112D01*
X115315230Y-86931413D01*
X115315234Y-86931412D01*
X115320945Y-86930584D01*
X115326409Y-86928729D01*
X115326414Y-86928728D01*
X115507693Y-86867192D01*
X115507698Y-86867190D01*
X115513165Y-86865334D01*
X115540366Y-86850101D01*
X115594822Y-86819604D01*
X115690276Y-86766147D01*
X115705495Y-86753490D01*
X115841913Y-86640031D01*
X115846345Y-86636345D01*
X115953008Y-86508098D01*
X115972453Y-86484718D01*
X115972455Y-86484715D01*
X115976147Y-86480276D01*
X116075334Y-86303165D01*
X116077190Y-86297698D01*
X116077192Y-86297693D01*
X116138728Y-86116414D01*
X116138729Y-86116409D01*
X116140584Y-86110945D01*
X116141412Y-86105236D01*
X116141413Y-86105231D01*
X116166071Y-85935163D01*
X116169712Y-85910053D01*
X116171232Y-85852000D01*
X116159797Y-85727551D01*
X116153187Y-85655613D01*
X116153186Y-85655610D01*
X116152658Y-85649859D01*
X116151090Y-85644299D01*
X116099125Y-85460046D01*
X116099124Y-85460044D01*
X116097557Y-85454487D01*
X116091926Y-85443067D01*
X116010331Y-85277609D01*
X116007776Y-85272428D01*
X116002468Y-85265319D01*
X115965800Y-85216215D01*
X115886320Y-85109779D01*
X115737258Y-84971987D01*
X115732375Y-84968906D01*
X115732371Y-84968903D01*
X115572214Y-84867852D01*
X115565581Y-84863667D01*
X115377039Y-84788446D01*
X115371379Y-84787320D01*
X115371375Y-84787319D01*
X115183613Y-84749971D01*
X115183610Y-84749971D01*
X115177946Y-84748844D01*
X115172171Y-84748768D01*
X115172167Y-84748768D01*
X115070793Y-84747441D01*
X114974971Y-84746187D01*
X114969274Y-84747166D01*
X114969273Y-84747166D01*
X114881397Y-84762266D01*
X114774910Y-84780564D01*
X114584463Y-84850824D01*
X114579502Y-84853776D01*
X114579501Y-84853776D01*
X114575462Y-84856179D01*
X114410010Y-84954612D01*
X114405670Y-84958418D01*
X114405666Y-84958421D01*
X114261733Y-85084648D01*
X114257392Y-85088455D01*
X114253817Y-85092990D01*
X114253816Y-85092991D01*
X114241512Y-85108599D01*
X114131720Y-85247869D01*
X114129031Y-85252980D01*
X114129029Y-85252983D01*
X114117507Y-85274883D01*
X114037203Y-85427515D01*
X114028828Y-85454487D01*
X113980982Y-85608578D01*
X113977007Y-85621378D01*
X113953148Y-85822964D01*
X113966424Y-86025522D01*
X113967845Y-86031118D01*
X113967846Y-86031123D01*
X113998501Y-86151823D01*
X114016392Y-86222269D01*
X114018809Y-86227512D01*
X114056010Y-86308208D01*
X114101377Y-86406616D01*
X114104710Y-86411332D01*
X114183660Y-86523044D01*
X114218533Y-86572389D01*
X114363938Y-86714035D01*
X114368742Y-86717245D01*
X114422980Y-86753486D01*
X114532720Y-86826812D01*
X114538023Y-86829090D01*
X114538026Y-86829092D01*
X114685327Y-86892377D01*
X114719228Y-86906942D01*
X114836616Y-86933504D01*
X114898642Y-86968047D01*
X114932147Y-87030640D01*
X114926493Y-87101411D01*
X114883474Y-87157891D01*
X114827867Y-87180947D01*
X114751321Y-87192661D01*
X114741293Y-87195050D01*
X114538868Y-87261212D01*
X114529359Y-87265209D01*
X114340463Y-87363542D01*
X114331738Y-87369036D01*
X114161433Y-87496905D01*
X114153726Y-87503748D01*
X114076094Y-87584985D01*
X114014570Y-87620415D01*
X113943657Y-87616958D01*
X113885871Y-87575712D01*
X113867018Y-87542164D01*
X113825324Y-87430946D01*
X113816786Y-87415351D01*
X113740285Y-87313276D01*
X113727724Y-87300715D01*
X113625649Y-87224214D01*
X113610054Y-87215676D01*
X113485870Y-87169121D01*
X113429106Y-87126479D01*
X113404406Y-87059918D01*
X113419614Y-86990569D01*
X113467942Y-86942402D01*
X113471301Y-86941734D01*
X113481528Y-86934900D01*
X113481531Y-86934899D01*
X113545168Y-86892377D01*
X113555484Y-86885484D01*
X113611734Y-86801301D01*
X113626500Y-86727067D01*
X113626499Y-84976934D01*
X113611734Y-84902699D01*
X113585654Y-84863667D01*
X113562377Y-84828832D01*
X113555484Y-84818516D01*
X113471301Y-84762266D01*
X113397067Y-84747500D01*
X112522142Y-84747500D01*
X111646934Y-84747501D01*
X111611182Y-84754612D01*
X111584874Y-84759844D01*
X111584872Y-84759845D01*
X111572699Y-84762266D01*
X111562379Y-84769161D01*
X111562378Y-84769162D01*
X111524064Y-84794763D01*
X111488516Y-84818516D01*
X111432266Y-84902699D01*
X111417500Y-84976933D01*
X111417501Y-86727066D01*
X111432266Y-86801301D01*
X111439161Y-86811620D01*
X111439162Y-86811622D01*
X111477032Y-86868297D01*
X111488516Y-86885484D01*
X111498832Y-86892377D01*
X111572699Y-86941734D01*
X111572037Y-86942725D01*
X111617397Y-86979275D01*
X111639820Y-87046638D01*
X111622264Y-87115429D01*
X111570303Y-87163810D01*
X111558130Y-87169121D01*
X111433946Y-87215676D01*
X111418351Y-87224214D01*
X111316276Y-87300715D01*
X111303715Y-87313276D01*
X111227214Y-87415351D01*
X111218676Y-87430946D01*
X111173522Y-87551394D01*
X111169895Y-87566649D01*
X111164369Y-87617514D01*
X111164000Y-87624328D01*
X111164000Y-87627347D01*
X111143998Y-87695468D01*
X111090342Y-87741961D01*
X111020068Y-87752065D01*
X110955488Y-87722571D01*
X110938038Y-87704051D01*
X110912589Y-87670885D01*
X110912581Y-87670877D01*
X110909167Y-87666427D01*
X110905021Y-87662654D01*
X110905016Y-87662649D01*
X110747689Y-87519493D01*
X110743536Y-87515714D01*
X110553833Y-87396714D01*
X110516030Y-87381517D01*
X110430081Y-87346966D01*
X110346056Y-87313188D01*
X110340564Y-87312051D01*
X110340562Y-87312050D01*
X110199941Y-87282929D01*
X110126772Y-87267776D01*
X110122161Y-87267510D01*
X110122160Y-87267510D01*
X110071775Y-87264605D01*
X110071771Y-87264605D01*
X110069952Y-87264500D01*
X106217206Y-87264500D01*
X106149085Y-87244498D01*
X106102592Y-87190842D01*
X106092488Y-87120568D01*
X106116379Y-87062935D01*
X106196789Y-86955644D01*
X106205324Y-86940054D01*
X106250478Y-86819606D01*
X106254105Y-86804351D01*
X106259631Y-86753486D01*
X106260000Y-86746672D01*
X106260000Y-86489976D01*
X106280002Y-86421855D01*
X106333658Y-86375362D01*
X106403932Y-86365258D01*
X106468512Y-86394752D01*
X106488895Y-86417254D01*
X106598533Y-86572389D01*
X106743938Y-86714035D01*
X106748742Y-86717245D01*
X106802980Y-86753486D01*
X106912720Y-86826812D01*
X106918023Y-86829090D01*
X106918026Y-86829092D01*
X107065327Y-86892377D01*
X107099228Y-86906942D01*
X107172244Y-86923464D01*
X107291579Y-86950467D01*
X107291584Y-86950468D01*
X107297216Y-86951742D01*
X107302987Y-86951969D01*
X107302989Y-86951969D01*
X107362756Y-86954317D01*
X107500053Y-86959712D01*
X107600499Y-86945148D01*
X107695231Y-86931413D01*
X107695236Y-86931412D01*
X107700945Y-86930584D01*
X107706409Y-86928729D01*
X107706414Y-86928728D01*
X107887693Y-86867192D01*
X107887698Y-86867190D01*
X107893165Y-86865334D01*
X107920366Y-86850101D01*
X107974822Y-86819604D01*
X108070276Y-86766147D01*
X108085495Y-86753490D01*
X108221913Y-86640031D01*
X108226345Y-86636345D01*
X108333008Y-86508098D01*
X108352453Y-86484718D01*
X108352455Y-86484715D01*
X108356147Y-86480276D01*
X108455334Y-86303165D01*
X108457190Y-86297698D01*
X108457192Y-86297693D01*
X108518728Y-86116414D01*
X108518729Y-86116409D01*
X108520584Y-86110945D01*
X108521412Y-86105236D01*
X108521413Y-86105231D01*
X108546071Y-85935163D01*
X108549712Y-85910053D01*
X108551232Y-85852000D01*
X108539797Y-85727551D01*
X108533187Y-85655613D01*
X108533186Y-85655610D01*
X108532658Y-85649859D01*
X108531090Y-85644299D01*
X108479125Y-85460046D01*
X108479124Y-85460044D01*
X108477557Y-85454487D01*
X108471926Y-85443067D01*
X108390331Y-85277609D01*
X108387776Y-85272428D01*
X108382468Y-85265319D01*
X108345800Y-85216215D01*
X108266320Y-85109779D01*
X108117258Y-84971987D01*
X108112375Y-84968906D01*
X108112371Y-84968903D01*
X107952214Y-84867852D01*
X107945581Y-84863667D01*
X107757039Y-84788446D01*
X107751379Y-84787320D01*
X107751375Y-84787319D01*
X107563613Y-84749971D01*
X107563610Y-84749971D01*
X107557946Y-84748844D01*
X107552171Y-84748768D01*
X107552167Y-84748768D01*
X107450793Y-84747441D01*
X107354971Y-84746187D01*
X107349274Y-84747166D01*
X107349273Y-84747166D01*
X107261397Y-84762266D01*
X107154910Y-84780564D01*
X106964463Y-84850824D01*
X106959502Y-84853776D01*
X106959501Y-84853776D01*
X106955462Y-84856179D01*
X106790010Y-84954612D01*
X106785670Y-84958418D01*
X106785666Y-84958421D01*
X106641733Y-85084648D01*
X106637392Y-85088455D01*
X106633817Y-85092990D01*
X106633816Y-85092991D01*
X106621512Y-85108599D01*
X106511720Y-85247869D01*
X106509031Y-85252980D01*
X106509029Y-85252983D01*
X106497507Y-85274883D01*
X106448087Y-85325856D01*
X106378955Y-85342018D01*
X106312059Y-85318239D01*
X106268638Y-85262068D01*
X106259999Y-85216215D01*
X106259999Y-84957331D01*
X106259629Y-84950510D01*
X106254105Y-84899648D01*
X106250479Y-84884396D01*
X106205324Y-84763946D01*
X106196786Y-84748351D01*
X106120285Y-84646276D01*
X106107724Y-84633715D01*
X106005649Y-84557214D01*
X105990054Y-84548676D01*
X105869606Y-84503522D01*
X105854351Y-84499895D01*
X105803486Y-84494369D01*
X105796672Y-84494000D01*
X105174115Y-84494000D01*
X105158876Y-84498475D01*
X105157671Y-84499865D01*
X105156000Y-84507548D01*
X105156000Y-85980000D01*
X105135998Y-86048121D01*
X105082342Y-86094614D01*
X105030000Y-86106000D01*
X103562116Y-86106000D01*
X103546877Y-86110475D01*
X103545672Y-86111865D01*
X103544001Y-86119548D01*
X103544001Y-86746669D01*
X103544371Y-86753490D01*
X103549895Y-86804352D01*
X103553521Y-86819604D01*
X103598676Y-86940054D01*
X103607214Y-86955649D01*
X103683715Y-87057724D01*
X103696276Y-87070285D01*
X103798351Y-87146786D01*
X103813946Y-87155324D01*
X103938130Y-87201879D01*
X103994894Y-87244521D01*
X104019594Y-87311082D01*
X104004386Y-87380431D01*
X103956058Y-87428598D01*
X103952699Y-87429266D01*
X103942472Y-87436100D01*
X103942469Y-87436101D01*
X103888744Y-87472000D01*
X103868516Y-87485516D01*
X103812266Y-87569699D01*
X103797500Y-87643933D01*
X103797500Y-87883110D01*
X103783767Y-87940313D01*
X103782701Y-87942405D01*
X103779714Y-87947167D01*
X103746045Y-88030922D01*
X103744511Y-88034571D01*
X103740775Y-88043083D01*
X103708218Y-88117248D01*
X103706907Y-88122707D01*
X103706907Y-88122708D01*
X103705745Y-88127547D01*
X103700135Y-88145125D01*
X103696188Y-88154944D01*
X103695051Y-88160436D01*
X103677883Y-88243334D01*
X103677020Y-88247196D01*
X103657251Y-88329539D01*
X103657250Y-88329545D01*
X103655941Y-88334998D01*
X103655618Y-88340605D01*
X103655332Y-88345561D01*
X103652923Y-88363862D01*
X103650776Y-88374228D01*
X103647500Y-88431048D01*
X103647500Y-88477772D01*
X103647291Y-88485025D01*
X103643051Y-88558564D01*
X103646587Y-88587784D01*
X103647500Y-88602921D01*
X103647500Y-93154179D01*
X103627498Y-93222300D01*
X103610595Y-93243274D01*
X100228274Y-96625595D01*
X100165962Y-96659621D01*
X100139179Y-96662500D01*
X91043974Y-96662500D01*
X90975853Y-96642498D01*
X90929360Y-96588842D01*
X90920396Y-96561084D01*
X90917734Y-96547699D01*
X90861484Y-96463516D01*
X90777301Y-96407266D01*
X90703067Y-96392500D01*
X89408210Y-96392500D01*
X88112934Y-96392501D01*
X88077182Y-96399612D01*
X88050874Y-96404844D01*
X88050872Y-96404845D01*
X88038699Y-96407266D01*
X88028379Y-96414161D01*
X88028378Y-96414162D01*
X87967985Y-96454516D01*
X87954516Y-96463516D01*
X87898266Y-96547699D01*
X87883500Y-96621933D01*
X87883501Y-99212066D01*
X87890612Y-99247818D01*
X87893623Y-99262955D01*
X87898266Y-99286301D01*
X87954516Y-99370484D01*
X88038699Y-99426734D01*
X88052084Y-99429396D01*
X88054481Y-99430650D01*
X88062336Y-99433904D01*
X88062045Y-99434607D01*
X88114992Y-99462304D01*
X88150123Y-99524000D01*
X88153500Y-99552975D01*
X88153500Y-104429871D01*
X88152422Y-104446317D01*
X88149534Y-104468254D01*
X88149798Y-104473854D01*
X88149798Y-104473855D01*
X88153360Y-104549391D01*
X88153500Y-104555326D01*
X88153500Y-104577819D01*
X88153750Y-104580615D01*
X88155810Y-104603707D01*
X88156169Y-104608970D01*
X88160082Y-104691943D01*
X88161333Y-104697403D01*
X88164069Y-104709349D01*
X88166750Y-104726279D01*
X88168336Y-104744051D01*
X88190249Y-104824149D01*
X88191532Y-104829258D01*
X88210077Y-104910229D01*
X88217083Y-104926653D01*
X88222717Y-104942834D01*
X88227427Y-104960051D01*
X88229843Y-104965116D01*
X88229844Y-104965119D01*
X88263181Y-105035011D01*
X88265353Y-105039821D01*
X88278474Y-105070582D01*
X88297936Y-105116211D01*
X88307731Y-105131122D01*
X88316147Y-105146058D01*
X88323834Y-105162174D01*
X88372316Y-105229643D01*
X88375280Y-105233956D01*
X88420882Y-105303380D01*
X88439333Y-105324089D01*
X88447574Y-105334376D01*
X88454511Y-105344030D01*
X88458541Y-105347935D01*
X88531039Y-105418191D01*
X88532449Y-105419580D01*
X94793494Y-111680625D01*
X94804361Y-111693016D01*
X94817833Y-111710573D01*
X94821978Y-111714344D01*
X94821981Y-111714348D01*
X94877921Y-111765249D01*
X94882216Y-111769347D01*
X94898111Y-111785242D01*
X94918064Y-111801925D01*
X94922019Y-111805376D01*
X94983464Y-111861286D01*
X94988217Y-111864267D01*
X94988219Y-111864269D01*
X94998585Y-111870771D01*
X95012456Y-111880848D01*
X95026146Y-111892295D01*
X95098280Y-111933439D01*
X95102808Y-111936150D01*
X95168411Y-111977303D01*
X95168415Y-111977305D01*
X95173167Y-111980286D01*
X95189739Y-111986948D01*
X95205160Y-111994403D01*
X95220665Y-112003247D01*
X95298974Y-112030978D01*
X95303868Y-112032828D01*
X95380944Y-112063812D01*
X95398432Y-112067434D01*
X95414934Y-112072042D01*
X95426459Y-112076124D01*
X95426471Y-112076127D01*
X95431757Y-112077999D01*
X95437296Y-112078906D01*
X95513702Y-112091418D01*
X95518891Y-112092380D01*
X95595705Y-112108288D01*
X95595714Y-112108289D01*
X95600228Y-112109224D01*
X95604836Y-112109490D01*
X95604839Y-112109490D01*
X95612864Y-112109952D01*
X95627910Y-112110820D01*
X95641017Y-112112266D01*
X95652751Y-112114188D01*
X95658364Y-112114100D01*
X95658366Y-112114100D01*
X95759199Y-112112516D01*
X95761178Y-112112500D01*
X101108500Y-112112500D01*
X101176621Y-112132502D01*
X101223114Y-112186158D01*
X101234500Y-112238500D01*
X101234500Y-112585179D01*
X101214498Y-112653300D01*
X101197595Y-112674274D01*
X101117274Y-112754595D01*
X101054962Y-112788621D01*
X101028179Y-112791500D01*
X96611129Y-112791500D01*
X96594683Y-112790422D01*
X96591371Y-112789986D01*
X96572746Y-112787534D01*
X96567146Y-112787798D01*
X96567145Y-112787798D01*
X96491609Y-112791360D01*
X96485674Y-112791500D01*
X96463181Y-112791500D01*
X96442133Y-112793378D01*
X96437293Y-112793810D01*
X96432030Y-112794169D01*
X96396867Y-112795827D01*
X96349057Y-112798082D01*
X96331644Y-112802070D01*
X96314721Y-112804750D01*
X96296949Y-112806336D01*
X96216840Y-112828252D01*
X96211742Y-112829532D01*
X96170580Y-112838960D01*
X96136241Y-112846824D01*
X96136239Y-112846825D01*
X96130771Y-112848077D01*
X96114347Y-112855083D01*
X96098166Y-112860717D01*
X96086369Y-112863944D01*
X96086365Y-112863945D01*
X96080949Y-112865427D01*
X96075884Y-112867843D01*
X96075881Y-112867844D01*
X96005989Y-112901181D01*
X96001179Y-112903353D01*
X95929946Y-112933736D01*
X95929943Y-112933738D01*
X95924789Y-112935936D01*
X95909878Y-112945731D01*
X95894942Y-112954147D01*
X95883895Y-112959416D01*
X95883892Y-112959418D01*
X95878826Y-112961834D01*
X95811357Y-113010316D01*
X95807044Y-113013280D01*
X95737620Y-113058882D01*
X95716911Y-113077333D01*
X95706624Y-113085574D01*
X95701530Y-113089234D01*
X95701527Y-113089237D01*
X95696970Y-113092511D01*
X95622809Y-113169039D01*
X95621420Y-113170449D01*
X91760375Y-117031494D01*
X91747984Y-117042361D01*
X91730427Y-117055833D01*
X91726656Y-117059978D01*
X91726652Y-117059981D01*
X91675751Y-117115921D01*
X91671653Y-117120216D01*
X91655757Y-117136112D01*
X91653961Y-117138259D01*
X91653960Y-117138261D01*
X91639074Y-117156064D01*
X91635606Y-117160039D01*
X91579714Y-117221464D01*
X91570223Y-117236594D01*
X91560158Y-117250447D01*
X91548704Y-117264146D01*
X91518117Y-117317772D01*
X91507554Y-117336291D01*
X91504858Y-117340796D01*
X91460714Y-117411167D01*
X91458620Y-117416377D01*
X91458619Y-117416378D01*
X91454051Y-117427740D01*
X91446595Y-117443162D01*
X91437753Y-117458665D01*
X91435881Y-117463952D01*
X91410027Y-117536960D01*
X91408163Y-117541892D01*
X91377188Y-117618944D01*
X91376050Y-117624440D01*
X91376048Y-117624446D01*
X91373569Y-117636418D01*
X91368959Y-117652929D01*
X91363000Y-117669757D01*
X91362094Y-117675290D01*
X91349576Y-117751730D01*
X91348614Y-117756917D01*
X91332713Y-117833701D01*
X91331776Y-117838228D01*
X91331510Y-117842839D01*
X91331510Y-117842840D01*
X91330180Y-117865906D01*
X91328733Y-117879011D01*
X91328361Y-117881284D01*
X91326811Y-117890752D01*
X91326899Y-117896365D01*
X91326899Y-117896368D01*
X91328484Y-117997233D01*
X91328500Y-117999212D01*
X91328500Y-121074506D01*
X91308498Y-121142627D01*
X91254842Y-121189120D01*
X91184568Y-121199224D01*
X91119988Y-121169730D01*
X91082896Y-121109427D01*
X91081881Y-121109772D01*
X91080360Y-121105304D01*
X91080296Y-121105200D01*
X91080216Y-121104880D01*
X91076894Y-121095124D01*
X90991972Y-120899814D01*
X90987105Y-120890739D01*
X90871426Y-120711926D01*
X90865136Y-120703757D01*
X90721806Y-120546240D01*
X90714273Y-120539215D01*
X90547139Y-120407222D01*
X90538552Y-120401517D01*
X90352117Y-120298599D01*
X90342705Y-120294369D01*
X90141959Y-120223280D01*
X90131988Y-120220646D01*
X90060837Y-120207972D01*
X90047540Y-120209432D01*
X90043000Y-120223989D01*
X90043000Y-121667000D01*
X90022998Y-121735121D01*
X89969342Y-121781614D01*
X89917000Y-121793000D01*
X88472225Y-121793000D01*
X88458694Y-121796973D01*
X88457257Y-121806966D01*
X88487565Y-121941446D01*
X88490645Y-121951275D01*
X88570770Y-122148603D01*
X88575413Y-122157794D01*
X88686694Y-122339388D01*
X88692777Y-122347699D01*
X88832213Y-122508667D01*
X88839580Y-122515883D01*
X89003434Y-122651916D01*
X89011881Y-122657831D01*
X89152005Y-122739713D01*
X89200729Y-122791352D01*
X89213800Y-122861135D01*
X89187069Y-122926906D01*
X89129022Y-122967785D01*
X89088436Y-122974501D01*
X88913934Y-122974501D01*
X88878182Y-122981612D01*
X88851874Y-122986844D01*
X88851872Y-122986845D01*
X88839699Y-122989266D01*
X88829379Y-122996161D01*
X88829378Y-122996162D01*
X88774481Y-123032844D01*
X88755516Y-123045516D01*
X88699266Y-123129699D01*
X88684500Y-123203933D01*
X88684501Y-124954066D01*
X88689846Y-124980938D01*
X88695767Y-125010708D01*
X88699266Y-125028301D01*
X88706161Y-125038620D01*
X88706162Y-125038622D01*
X88739384Y-125088341D01*
X88755516Y-125112484D01*
X88839699Y-125168734D01*
X88913933Y-125183500D01*
X89155713Y-125183500D01*
X89223834Y-125203502D01*
X89270327Y-125257158D01*
X89279306Y-125308226D01*
X89280954Y-125308124D01*
X89284258Y-125361382D01*
X89284500Y-125369184D01*
X89284500Y-125385226D01*
X89285135Y-125389657D01*
X89285135Y-125389662D01*
X89285965Y-125395453D01*
X89286996Y-125405514D01*
X89289902Y-125452359D01*
X89292949Y-125460799D01*
X89293630Y-125464089D01*
X89297582Y-125479938D01*
X89298527Y-125483168D01*
X89299799Y-125492052D01*
X89303514Y-125500223D01*
X89319218Y-125534763D01*
X89323030Y-125544128D01*
X89335922Y-125579837D01*
X89335924Y-125579840D01*
X89338972Y-125588284D01*
X89344268Y-125595533D01*
X89345840Y-125598490D01*
X89354093Y-125612614D01*
X89355898Y-125615437D01*
X89359612Y-125623605D01*
X89365469Y-125630402D01*
X89365470Y-125630404D01*
X89390243Y-125659153D01*
X89396525Y-125667064D01*
X89404473Y-125677944D01*
X89415335Y-125688806D01*
X89421693Y-125695652D01*
X89453944Y-125733082D01*
X89461479Y-125737966D01*
X89468051Y-125743699D01*
X89479455Y-125752926D01*
X90231474Y-126504945D01*
X90265500Y-126567257D01*
X90260435Y-126638072D01*
X90217888Y-126694908D01*
X90151368Y-126719719D01*
X90142692Y-126720040D01*
X79913928Y-126745421D01*
X79893167Y-126743751D01*
X79886599Y-126742671D01*
X79874354Y-126740657D01*
X79862269Y-126743482D01*
X79849869Y-126743896D01*
X79838858Y-126745078D01*
X79531623Y-126740234D01*
X79519297Y-126739433D01*
X79184714Y-126701145D01*
X79172527Y-126699140D01*
X78909907Y-126642583D01*
X78843320Y-126628243D01*
X78831375Y-126625050D01*
X78612131Y-126554750D01*
X78510704Y-126522228D01*
X78499130Y-126517879D01*
X78190095Y-126384126D01*
X78179001Y-126378664D01*
X77884551Y-126215257D01*
X77874047Y-126208734D01*
X77597030Y-126017252D01*
X77587216Y-126009730D01*
X77330314Y-125792028D01*
X77321284Y-125783581D01*
X77148139Y-125604888D01*
X77123424Y-125579381D01*
X77859160Y-125579381D01*
X77859237Y-125580470D01*
X77861698Y-125584206D01*
X78135632Y-125794404D01*
X78141262Y-125798259D01*
X78441591Y-125980862D01*
X78447593Y-125984080D01*
X78765897Y-126133184D01*
X78772202Y-126135732D01*
X79104743Y-126249587D01*
X79111313Y-126251446D01*
X79454183Y-126328714D01*
X79460912Y-126329853D01*
X79810143Y-126369643D01*
X79816933Y-126370046D01*
X80168419Y-126371886D01*
X80175220Y-126371554D01*
X80524853Y-126335423D01*
X80531581Y-126334357D01*
X80875274Y-126260676D01*
X80881822Y-126258897D01*
X81215549Y-126148527D01*
X81221891Y-126146041D01*
X81541718Y-126000288D01*
X81547777Y-125997121D01*
X81849995Y-125817676D01*
X81855659Y-125813884D01*
X82136732Y-125602849D01*
X82141958Y-125598464D01*
X82151613Y-125589428D01*
X82159682Y-125575750D01*
X82159654Y-125575024D01*
X82154512Y-125566723D01*
X80022810Y-123435020D01*
X80008869Y-123427408D01*
X80007034Y-123427539D01*
X80000420Y-123431790D01*
X77866774Y-125565437D01*
X77859160Y-125579381D01*
X77123424Y-125579381D01*
X77086945Y-125541733D01*
X77078788Y-125532442D01*
X77077772Y-125531163D01*
X76869293Y-125268803D01*
X76862087Y-125258760D01*
X76679430Y-124975838D01*
X76673241Y-124965134D01*
X76670671Y-124960137D01*
X76519196Y-124665672D01*
X76514093Y-124654424D01*
X76390146Y-124341316D01*
X76386166Y-124329616D01*
X76379427Y-124306069D01*
X76293504Y-124005856D01*
X76290691Y-123993826D01*
X76287379Y-123975680D01*
X76230209Y-123662546D01*
X76228588Y-123650290D01*
X76228141Y-123644877D01*
X76203296Y-123344064D01*
X76203743Y-123332989D01*
X76203330Y-123320595D01*
X76205343Y-123308354D01*
X76202519Y-123296275D01*
X76202253Y-123288293D01*
X76200501Y-123273109D01*
X76200501Y-123054832D01*
X76697333Y-123054832D01*
X76715117Y-123405893D01*
X76715827Y-123412649D01*
X76771420Y-123759723D01*
X76772859Y-123766378D01*
X76865608Y-124105410D01*
X76867757Y-124111871D01*
X76996581Y-124438912D01*
X76999412Y-124445095D01*
X77162803Y-124756310D01*
X77166286Y-124762152D01*
X77362330Y-125053896D01*
X77366433Y-125059340D01*
X77486425Y-125201836D01*
X77499164Y-125210279D01*
X77509608Y-125204181D01*
X79637980Y-123075810D01*
X79644357Y-123064131D01*
X80374408Y-123064131D01*
X80374539Y-123065966D01*
X80378790Y-123072580D01*
X82509009Y-125202798D01*
X82522605Y-125210223D01*
X82532218Y-125203522D01*
X82632518Y-125086912D01*
X82636676Y-125081514D01*
X82835762Y-124791840D01*
X82839310Y-124786029D01*
X83005942Y-124476559D01*
X83008849Y-124470381D01*
X83141090Y-124144713D01*
X83143304Y-124138283D01*
X83239598Y-123800237D01*
X83241105Y-123793607D01*
X83300332Y-123447118D01*
X83301112Y-123440378D01*
X83322668Y-123087925D01*
X83322784Y-123084323D01*
X83322853Y-123064819D01*
X83322761Y-123061194D01*
X83303666Y-122708615D01*
X83302931Y-122701849D01*
X83246130Y-122354985D01*
X83244663Y-122348313D01*
X83150736Y-122009627D01*
X83148562Y-122003163D01*
X83018598Y-121676578D01*
X83015742Y-121670398D01*
X82851269Y-121359763D01*
X82847769Y-121353937D01*
X82793095Y-121273183D01*
X88453389Y-121273183D01*
X88454912Y-121281607D01*
X88467292Y-121285000D01*
X89516885Y-121285000D01*
X89532124Y-121280525D01*
X89533329Y-121279135D01*
X89535000Y-121271452D01*
X89535000Y-120222102D01*
X89531082Y-120208758D01*
X89516806Y-120206771D01*
X89478324Y-120212660D01*
X89468288Y-120215051D01*
X89265868Y-120281212D01*
X89256359Y-120285209D01*
X89067463Y-120383542D01*
X89058738Y-120389036D01*
X88888433Y-120516905D01*
X88880726Y-120523748D01*
X88733590Y-120677717D01*
X88727104Y-120685727D01*
X88607098Y-120861649D01*
X88602000Y-120870623D01*
X88512338Y-121063783D01*
X88508775Y-121073470D01*
X88453389Y-121273183D01*
X82793095Y-121273183D01*
X82650697Y-121062862D01*
X82646590Y-121057453D01*
X82533565Y-120924179D01*
X82520740Y-120915743D01*
X82510416Y-120921795D01*
X80382020Y-123050190D01*
X80374408Y-123064131D01*
X79644357Y-123064131D01*
X79645592Y-123061869D01*
X79645461Y-123060034D01*
X79641210Y-123053420D01*
X77510992Y-120923203D01*
X77497455Y-120915811D01*
X77487753Y-120922599D01*
X77380430Y-121048257D01*
X77376296Y-121053664D01*
X77178215Y-121344041D01*
X77174697Y-121349851D01*
X77009134Y-121659922D01*
X77006259Y-121666087D01*
X76875155Y-121992218D01*
X76872962Y-121998658D01*
X76777846Y-122337044D01*
X76776363Y-122343679D01*
X76718350Y-122690354D01*
X76717591Y-122697126D01*
X76697357Y-123048037D01*
X76697333Y-123054832D01*
X76200501Y-123054832D01*
X76200501Y-120549862D01*
X77859950Y-120549862D01*
X77859986Y-120550704D01*
X77865037Y-120558826D01*
X79997190Y-122690980D01*
X80011131Y-122698592D01*
X80012966Y-122698461D01*
X80019580Y-122694210D01*
X82152798Y-120560991D01*
X82160412Y-120547047D01*
X82160344Y-120546089D01*
X82155836Y-120539272D01*
X82154418Y-120538065D01*
X81874813Y-120325064D01*
X81869187Y-120321240D01*
X81568214Y-120139681D01*
X81562202Y-120136484D01*
X81243370Y-119988487D01*
X81237070Y-119985967D01*
X80904129Y-119873273D01*
X80897551Y-119871437D01*
X80554417Y-119795367D01*
X80547678Y-119794251D01*
X80198310Y-119755680D01*
X80191529Y-119755301D01*
X79840015Y-119754687D01*
X79833242Y-119755042D01*
X79483720Y-119792395D01*
X79477010Y-119793482D01*
X79133586Y-119868361D01*
X79127011Y-119870172D01*
X78793683Y-119981702D01*
X78787361Y-119984205D01*
X78468034Y-120131079D01*
X78461991Y-120134265D01*
X78160401Y-120314763D01*
X78154755Y-120318571D01*
X77874408Y-120530596D01*
X77869211Y-120534987D01*
X77867972Y-120536155D01*
X77859950Y-120549862D01*
X76200501Y-120549862D01*
X76200501Y-116920944D01*
X79648183Y-116920944D01*
X79660694Y-117181419D01*
X79711569Y-117437185D01*
X79799690Y-117682621D01*
X79801906Y-117686745D01*
X79911523Y-117890752D01*
X79923120Y-117912336D01*
X79925915Y-117916079D01*
X79925917Y-117916082D01*
X80076357Y-118117545D01*
X80076362Y-118117551D01*
X80079149Y-118121283D01*
X80082458Y-118124563D01*
X80082463Y-118124569D01*
X80183701Y-118224927D01*
X80264348Y-118304873D01*
X80268110Y-118307631D01*
X80268113Y-118307634D01*
X80384346Y-118392860D01*
X80474649Y-118459073D01*
X80478780Y-118461247D01*
X80478781Y-118461247D01*
X80701298Y-118578319D01*
X80701304Y-118578321D01*
X80705433Y-118580494D01*
X80852220Y-118631754D01*
X80940891Y-118662719D01*
X80951629Y-118666469D01*
X80956222Y-118667341D01*
X81203239Y-118714239D01*
X81203242Y-118714239D01*
X81207828Y-118715110D01*
X81331725Y-118719978D01*
X81463735Y-118725165D01*
X81463740Y-118725165D01*
X81468403Y-118725348D01*
X81561885Y-118715110D01*
X81722976Y-118697468D01*
X81722981Y-118697467D01*
X81727629Y-118696958D01*
X81745679Y-118692206D01*
X81975291Y-118631754D01*
X81979811Y-118630564D01*
X82169721Y-118548973D01*
X82215107Y-118529474D01*
X82215110Y-118529472D01*
X82219410Y-118527625D01*
X82223390Y-118525162D01*
X82223394Y-118525160D01*
X82437188Y-118392860D01*
X82437192Y-118392857D01*
X82441161Y-118390401D01*
X82640194Y-118221907D01*
X82812135Y-118025845D01*
X82857921Y-117954664D01*
X82950680Y-117810453D01*
X82953208Y-117806523D01*
X83060314Y-117568757D01*
X83131099Y-117317772D01*
X83147862Y-117186007D01*
X83156203Y-117120442D01*
X88349303Y-117120442D01*
X88358017Y-117131962D01*
X88459394Y-117206296D01*
X88467293Y-117211232D01*
X88692901Y-117329930D01*
X88701450Y-117333647D01*
X88942113Y-117417690D01*
X88951122Y-117420104D01*
X89201572Y-117467654D01*
X89210827Y-117468708D01*
X89465557Y-117478717D01*
X89474871Y-117478391D01*
X89728270Y-117450640D01*
X89737447Y-117448939D01*
X89983960Y-117384037D01*
X89992780Y-117381000D01*
X90226997Y-117280373D01*
X90235269Y-117276066D01*
X90452036Y-117141927D01*
X90459579Y-117136447D01*
X90461272Y-117135014D01*
X90469710Y-117122211D01*
X90463645Y-117111855D01*
X89420812Y-116069022D01*
X89406868Y-116061408D01*
X89405035Y-116061539D01*
X89398420Y-116065790D01*
X88355961Y-117108249D01*
X88349303Y-117120442D01*
X83156203Y-117120442D01*
X83163611Y-117062212D01*
X83163611Y-117062206D01*
X83164009Y-117059081D01*
X83164184Y-117052418D01*
X83166337Y-116970160D01*
X83166420Y-116967000D01*
X83150456Y-116752176D01*
X83147440Y-116711593D01*
X83147439Y-116711589D01*
X83147094Y-116706941D01*
X83089542Y-116452595D01*
X82995027Y-116209550D01*
X82865625Y-115983145D01*
X82704180Y-115778353D01*
X82573051Y-115654999D01*
X87625849Y-115654999D01*
X87638080Y-115909619D01*
X87639217Y-115918879D01*
X87688947Y-116168894D01*
X87691441Y-116177887D01*
X87777578Y-116417797D01*
X87781378Y-116426332D01*
X87902031Y-116650877D01*
X87907045Y-116658748D01*
X87973154Y-116747279D01*
X87984414Y-116755729D01*
X87996832Y-116748958D01*
X89035978Y-115709812D01*
X89042356Y-115698132D01*
X89772408Y-115698132D01*
X89772539Y-115699965D01*
X89776790Y-115706580D01*
X90822386Y-116752176D01*
X90834766Y-116758936D01*
X90843107Y-116752692D01*
X90972391Y-116551697D01*
X90976838Y-116543506D01*
X91081536Y-116311085D01*
X91084731Y-116302307D01*
X91153923Y-116056968D01*
X91155781Y-116047839D01*
X91188144Y-115793444D01*
X91188625Y-115787158D01*
X91190903Y-115700160D01*
X91190752Y-115693851D01*
X91171747Y-115438110D01*
X91170370Y-115428904D01*
X91114109Y-115180262D01*
X91111385Y-115171351D01*
X91018990Y-114933758D01*
X91014979Y-114925349D01*
X90888482Y-114704027D01*
X90883269Y-114696298D01*
X90843633Y-114646019D01*
X90831709Y-114637549D01*
X90820174Y-114644036D01*
X89780022Y-115684188D01*
X89772408Y-115698132D01*
X89042356Y-115698132D01*
X89043592Y-115695868D01*
X89043461Y-115694035D01*
X89039210Y-115687420D01*
X87995119Y-114643329D01*
X87981811Y-114636062D01*
X87971772Y-114643184D01*
X87959433Y-114658020D01*
X87954018Y-114665612D01*
X87821776Y-114883540D01*
X87817538Y-114891857D01*
X87718961Y-115126935D01*
X87716000Y-115135785D01*
X87653255Y-115382849D01*
X87651633Y-115392046D01*
X87626094Y-115645673D01*
X87625849Y-115654999D01*
X82573051Y-115654999D01*
X82514239Y-115599674D01*
X82299973Y-115451032D01*
X82295783Y-115448966D01*
X82295780Y-115448964D01*
X82070278Y-115337759D01*
X82070275Y-115337758D01*
X82066090Y-115335694D01*
X82056400Y-115332592D01*
X81956144Y-115300500D01*
X81817728Y-115256193D01*
X81813121Y-115255443D01*
X81813118Y-115255442D01*
X81564955Y-115215026D01*
X81564956Y-115215026D01*
X81560344Y-115214275D01*
X81433875Y-115212620D01*
X81304267Y-115210923D01*
X81304264Y-115210923D01*
X81299590Y-115210862D01*
X81041196Y-115246028D01*
X81036710Y-115247336D01*
X81036708Y-115247336D01*
X81006321Y-115256193D01*
X80790838Y-115319000D01*
X80554016Y-115428177D01*
X80550111Y-115430737D01*
X80550106Y-115430740D01*
X80339846Y-115568592D01*
X80339841Y-115568596D01*
X80335933Y-115571158D01*
X80252446Y-115645673D01*
X80193671Y-115698132D01*
X80141379Y-115744804D01*
X79974629Y-115945300D01*
X79839345Y-116168240D01*
X79738500Y-116408728D01*
X79674310Y-116661480D01*
X79648183Y-116920944D01*
X76200501Y-116920944D01*
X76200501Y-114271357D01*
X88346770Y-114271357D01*
X88351343Y-114281133D01*
X89395188Y-115324978D01*
X89409132Y-115332592D01*
X89410965Y-115332461D01*
X89417580Y-115328210D01*
X90460790Y-114285000D01*
X90467174Y-114273310D01*
X90457762Y-114261199D01*
X90316776Y-114163392D01*
X90308741Y-114158659D01*
X90080106Y-114045909D01*
X90071473Y-114042421D01*
X89828675Y-113964701D01*
X89819624Y-113962528D01*
X89568009Y-113921550D01*
X89558720Y-113920738D01*
X89303828Y-113917401D01*
X89294517Y-113917971D01*
X89041927Y-113952347D01*
X89032808Y-113954285D01*
X88788084Y-114025616D01*
X88779331Y-114028888D01*
X88547837Y-114135608D01*
X88539682Y-114140128D01*
X88355907Y-114260616D01*
X88346770Y-114271357D01*
X76200501Y-114271357D01*
X76200500Y-94320944D01*
X79648183Y-94320944D01*
X79648407Y-94325611D01*
X79648407Y-94325616D01*
X79651933Y-94399025D01*
X79660694Y-94581419D01*
X79711569Y-94837185D01*
X79799690Y-95082621D01*
X79801906Y-95086745D01*
X79874850Y-95222500D01*
X79923120Y-95312336D01*
X79925915Y-95316079D01*
X79925917Y-95316082D01*
X80076357Y-95517545D01*
X80076362Y-95517551D01*
X80079149Y-95521283D01*
X80082458Y-95524563D01*
X80082463Y-95524569D01*
X80183701Y-95624927D01*
X80264348Y-95704873D01*
X80268110Y-95707631D01*
X80268113Y-95707634D01*
X80384346Y-95792860D01*
X80474649Y-95859073D01*
X80478780Y-95861247D01*
X80478781Y-95861247D01*
X80701298Y-95978319D01*
X80701304Y-95978321D01*
X80705433Y-95980494D01*
X80951629Y-96066469D01*
X80956222Y-96067341D01*
X81203239Y-96114239D01*
X81203242Y-96114239D01*
X81207828Y-96115110D01*
X81331725Y-96119978D01*
X81463735Y-96125165D01*
X81463740Y-96125165D01*
X81468403Y-96125348D01*
X81561885Y-96115110D01*
X81722976Y-96097468D01*
X81722981Y-96097467D01*
X81727629Y-96096958D01*
X81979811Y-96030564D01*
X82101416Y-95978319D01*
X82215107Y-95929474D01*
X82215110Y-95929472D01*
X82219410Y-95927625D01*
X82223390Y-95925162D01*
X82223394Y-95925160D01*
X82437188Y-95792860D01*
X82437192Y-95792857D01*
X82441161Y-95790401D01*
X82640194Y-95621907D01*
X82812135Y-95425845D01*
X82953208Y-95206523D01*
X82955769Y-95200839D01*
X83021577Y-95054750D01*
X83067792Y-95000855D01*
X83136459Y-94980500D01*
X92130743Y-94980500D01*
X92198864Y-95000502D01*
X92246260Y-95057217D01*
X92248266Y-95067301D01*
X92255160Y-95077618D01*
X92255161Y-95077621D01*
X92261258Y-95086745D01*
X92304516Y-95151484D01*
X92388699Y-95207734D01*
X92462933Y-95222500D01*
X94487836Y-95222500D01*
X96513066Y-95222499D01*
X96548818Y-95215388D01*
X96575126Y-95210156D01*
X96575128Y-95210155D01*
X96587301Y-95207734D01*
X96597621Y-95200839D01*
X96597622Y-95200838D01*
X96661168Y-95158377D01*
X96671484Y-95151484D01*
X96727734Y-95067301D01*
X96742500Y-94993067D01*
X96742499Y-91442934D01*
X96735388Y-91407182D01*
X96730156Y-91380874D01*
X96730155Y-91380872D01*
X96727734Y-91368699D01*
X96671484Y-91284516D01*
X96587301Y-91228266D01*
X96513067Y-91213500D01*
X94488164Y-91213500D01*
X92462934Y-91213501D01*
X92427182Y-91220612D01*
X92400874Y-91225844D01*
X92400872Y-91225845D01*
X92388699Y-91228266D01*
X92378379Y-91235161D01*
X92378378Y-91235162D01*
X92317985Y-91275516D01*
X92304516Y-91284516D01*
X92297623Y-91294832D01*
X92262485Y-91347419D01*
X92208008Y-91392947D01*
X92182927Y-91396097D01*
X92220805Y-91437717D01*
X92233500Y-91492835D01*
X92233500Y-92345500D01*
X92213498Y-92413621D01*
X92159842Y-92460114D01*
X92107500Y-92471500D01*
X91051907Y-92471500D01*
X90983786Y-92451498D01*
X90937293Y-92397842D01*
X90927189Y-92327568D01*
X90956683Y-92262988D01*
X91016409Y-92224604D01*
X91039689Y-92220520D01*
X91039671Y-92220389D01*
X91043409Y-92219867D01*
X91044135Y-92219740D01*
X91044174Y-92219738D01*
X91049312Y-92219420D01*
X91259854Y-92173322D01*
X91391526Y-92116751D01*
X91452371Y-92090610D01*
X91452372Y-92090609D01*
X91457880Y-92088243D01*
X91636245Y-91967254D01*
X91788515Y-91814719D01*
X91909193Y-91636142D01*
X91991646Y-91443298D01*
X92036818Y-91388527D01*
X92080555Y-91374519D01*
X92073520Y-91371153D01*
X92036209Y-91310751D01*
X92034589Y-91250682D01*
X92037959Y-91235161D01*
X92039656Y-91227346D01*
X92042500Y-91179478D01*
X92042500Y-89256522D01*
X92039420Y-89206688D01*
X92038383Y-89201951D01*
X92037968Y-89198978D01*
X92048364Y-89128747D01*
X92095079Y-89075285D01*
X92163283Y-89055566D01*
X92231320Y-89075851D01*
X92260352Y-89103483D01*
X92260937Y-89102986D01*
X92414940Y-89283939D01*
X92422061Y-89291060D01*
X92599157Y-89441780D01*
X92607348Y-89447688D01*
X92806251Y-89568148D01*
X92815277Y-89572668D01*
X93030888Y-89659781D01*
X93040512Y-89662797D01*
X93267552Y-89714378D01*
X93276984Y-89715780D01*
X93417310Y-89725839D01*
X93421823Y-89726000D01*
X94215885Y-89726000D01*
X94231124Y-89721525D01*
X94232329Y-89720135D01*
X94234000Y-89712452D01*
X94234000Y-89707885D01*
X94742000Y-89707885D01*
X94746475Y-89723124D01*
X94747865Y-89724329D01*
X94755548Y-89726000D01*
X95554177Y-89726000D01*
X95558690Y-89725839D01*
X95699016Y-89715780D01*
X95708448Y-89714378D01*
X95935488Y-89662797D01*
X95945112Y-89659781D01*
X96160723Y-89572668D01*
X96169749Y-89568148D01*
X96368652Y-89447688D01*
X96376843Y-89441780D01*
X96553939Y-89291060D01*
X96561060Y-89283939D01*
X96711780Y-89106843D01*
X96717688Y-89098652D01*
X96838148Y-88899749D01*
X96842668Y-88890723D01*
X96929781Y-88675112D01*
X96932797Y-88665488D01*
X96984378Y-88438448D01*
X96985780Y-88429016D01*
X96995839Y-88288690D01*
X96996000Y-88284177D01*
X96996000Y-87490115D01*
X96991525Y-87474876D01*
X96990135Y-87473671D01*
X96982452Y-87472000D01*
X94760115Y-87472000D01*
X94744876Y-87476475D01*
X94743671Y-87477865D01*
X94742000Y-87485548D01*
X94742000Y-89707885D01*
X94234000Y-89707885D01*
X94234000Y-87490115D01*
X94229525Y-87474876D01*
X94228135Y-87473671D01*
X94220452Y-87472000D01*
X91998115Y-87472000D01*
X91982876Y-87476475D01*
X91981671Y-87477865D01*
X91980000Y-87485548D01*
X91980000Y-88284177D01*
X91980161Y-88288690D01*
X91990220Y-88429016D01*
X91991622Y-88438448D01*
X92008889Y-88514450D01*
X92004476Y-88585309D01*
X91962454Y-88642534D01*
X91896165Y-88667956D01*
X91826655Y-88653504D01*
X91789617Y-88623238D01*
X91787254Y-88619755D01*
X91762786Y-88595329D01*
X91681766Y-88514450D01*
X91634719Y-88467485D01*
X91629752Y-88464128D01*
X91629749Y-88464126D01*
X91461111Y-88350165D01*
X91461112Y-88350165D01*
X91456142Y-88346807D01*
X91415755Y-88329539D01*
X91263485Y-88264433D01*
X91263482Y-88264432D01*
X91257967Y-88262074D01*
X91180646Y-88245286D01*
X91052109Y-88217378D01*
X91052107Y-88217378D01*
X91047346Y-88216344D01*
X91036501Y-88215700D01*
X91001334Y-88213610D01*
X91001325Y-88213610D01*
X90999478Y-88213500D01*
X88576522Y-88213500D01*
X88526688Y-88216580D01*
X88521947Y-88217618D01*
X88323687Y-88261027D01*
X88316146Y-88262678D01*
X88184474Y-88319249D01*
X88125820Y-88344449D01*
X88118120Y-88347757D01*
X87939755Y-88468746D01*
X87935519Y-88472989D01*
X87935517Y-88472991D01*
X87927123Y-88481400D01*
X87787485Y-88621281D01*
X87784128Y-88626248D01*
X87784126Y-88626251D01*
X87732260Y-88703002D01*
X87666807Y-88799858D01*
X87664449Y-88805373D01*
X87584936Y-88991340D01*
X87582074Y-88998033D01*
X87580801Y-89003896D01*
X87543027Y-89177876D01*
X87536344Y-89208654D01*
X87533500Y-89256522D01*
X87533500Y-91179478D01*
X87536580Y-91229312D01*
X87582678Y-91439854D01*
X87605441Y-91492835D01*
X87664643Y-91630631D01*
X87667757Y-91637880D01*
X87788746Y-91816245D01*
X87941281Y-91968515D01*
X87946248Y-91971872D01*
X87946251Y-91971874D01*
X88089342Y-92068571D01*
X88119858Y-92089193D01*
X88125373Y-92091551D01*
X88312515Y-92171567D01*
X88312518Y-92171568D01*
X88318033Y-92173926D01*
X88323896Y-92175199D01*
X88523891Y-92218622D01*
X88523893Y-92218622D01*
X88528654Y-92219656D01*
X88533519Y-92219945D01*
X88538336Y-92220607D01*
X88538049Y-92222699D01*
X88596579Y-92243728D01*
X88639808Y-92300047D01*
X88645727Y-92370796D01*
X88612456Y-92433514D01*
X88550559Y-92468288D01*
X88522292Y-92471500D01*
X82139129Y-92471500D01*
X82122683Y-92470422D01*
X82119371Y-92469986D01*
X82100746Y-92467534D01*
X82095146Y-92467798D01*
X82095145Y-92467798D01*
X82019609Y-92471360D01*
X82013674Y-92471500D01*
X81991181Y-92471500D01*
X81970133Y-92473378D01*
X81965293Y-92473810D01*
X81960030Y-92474169D01*
X81924867Y-92475827D01*
X81877057Y-92478082D01*
X81859644Y-92482070D01*
X81842721Y-92484750D01*
X81824949Y-92486336D01*
X81744840Y-92508252D01*
X81739742Y-92509532D01*
X81698580Y-92518960D01*
X81664241Y-92526824D01*
X81664239Y-92526825D01*
X81658771Y-92528077D01*
X81642347Y-92535083D01*
X81626166Y-92540717D01*
X81614369Y-92543944D01*
X81614365Y-92543945D01*
X81608949Y-92545427D01*
X81603884Y-92547843D01*
X81603881Y-92547844D01*
X81533978Y-92581186D01*
X81529179Y-92583353D01*
X81484243Y-92602520D01*
X81433163Y-92612611D01*
X81356073Y-92611601D01*
X81304267Y-92610923D01*
X81304264Y-92610923D01*
X81299590Y-92610862D01*
X81041196Y-92646028D01*
X80790838Y-92719000D01*
X80554016Y-92828177D01*
X80550111Y-92830737D01*
X80550106Y-92830740D01*
X80339846Y-92968592D01*
X80339841Y-92968596D01*
X80335933Y-92971158D01*
X80141379Y-93144804D01*
X79974629Y-93345300D01*
X79839345Y-93568240D01*
X79837538Y-93572548D01*
X79837538Y-93572549D01*
X79742235Y-93799822D01*
X79738500Y-93808728D01*
X79737349Y-93813260D01*
X79737348Y-93813263D01*
X79718988Y-93885559D01*
X79674310Y-94061480D01*
X79648183Y-94320944D01*
X76200500Y-94320944D01*
X76200500Y-89765381D01*
X77732160Y-89765381D01*
X77732237Y-89766470D01*
X77734698Y-89770206D01*
X78008632Y-89980404D01*
X78014262Y-89984259D01*
X78314591Y-90166862D01*
X78320593Y-90170080D01*
X78638897Y-90319184D01*
X78645202Y-90321732D01*
X78977743Y-90435587D01*
X78984313Y-90437446D01*
X79327183Y-90514714D01*
X79333912Y-90515853D01*
X79683143Y-90555643D01*
X79689933Y-90556046D01*
X80041419Y-90557886D01*
X80048220Y-90557554D01*
X80397853Y-90521423D01*
X80404581Y-90520357D01*
X80748274Y-90446676D01*
X80754822Y-90444897D01*
X81088549Y-90334527D01*
X81094891Y-90332041D01*
X81414718Y-90186288D01*
X81420777Y-90183121D01*
X81722995Y-90003676D01*
X81728659Y-89999884D01*
X82009732Y-89788849D01*
X82014958Y-89784464D01*
X82024613Y-89775428D01*
X82032682Y-89761750D01*
X82032654Y-89761024D01*
X82027512Y-89752723D01*
X79895810Y-87621020D01*
X79881869Y-87613408D01*
X79880034Y-87613539D01*
X79873420Y-87617790D01*
X77739774Y-89751437D01*
X77732160Y-89765381D01*
X76200500Y-89765381D01*
X76200500Y-87286476D01*
X76202921Y-87261894D01*
X76203065Y-87261170D01*
X76205486Y-87249000D01*
X76203861Y-87240832D01*
X76570333Y-87240832D01*
X76588117Y-87591893D01*
X76588827Y-87598649D01*
X76644420Y-87945723D01*
X76645859Y-87952378D01*
X76738608Y-88291410D01*
X76740757Y-88297871D01*
X76869581Y-88624912D01*
X76872412Y-88631095D01*
X77035803Y-88942310D01*
X77039286Y-88948152D01*
X77235330Y-89239896D01*
X77239433Y-89245340D01*
X77359425Y-89387836D01*
X77372164Y-89396279D01*
X77382608Y-89390181D01*
X79510980Y-87261810D01*
X79517357Y-87250131D01*
X80247408Y-87250131D01*
X80247539Y-87251966D01*
X80251790Y-87258580D01*
X82382009Y-89388798D01*
X82395605Y-89396223D01*
X82405218Y-89389522D01*
X82505518Y-89272912D01*
X82509676Y-89267514D01*
X82708762Y-88977840D01*
X82712310Y-88972029D01*
X82878942Y-88662559D01*
X82881849Y-88656381D01*
X83014090Y-88330713D01*
X83016304Y-88324283D01*
X83112598Y-87986237D01*
X83114105Y-87979607D01*
X83173332Y-87633118D01*
X83174112Y-87626378D01*
X83195668Y-87273925D01*
X83195784Y-87270323D01*
X83195853Y-87250819D01*
X83195761Y-87247194D01*
X83179443Y-86945885D01*
X91980000Y-86945885D01*
X91984475Y-86961124D01*
X91985865Y-86962329D01*
X91993548Y-86964000D01*
X94215885Y-86964000D01*
X94231124Y-86959525D01*
X94232329Y-86958135D01*
X94234000Y-86950452D01*
X94234000Y-86945885D01*
X94742000Y-86945885D01*
X94746475Y-86961124D01*
X94747865Y-86962329D01*
X94755548Y-86964000D01*
X96977885Y-86964000D01*
X96993124Y-86959525D01*
X96994329Y-86958135D01*
X96996000Y-86950452D01*
X96996000Y-86151823D01*
X96995839Y-86147310D01*
X96985780Y-86006984D01*
X96984378Y-85997552D01*
X96932797Y-85770512D01*
X96929781Y-85760888D01*
X96842668Y-85545277D01*
X96838148Y-85536251D01*
X96717688Y-85337348D01*
X96711780Y-85329157D01*
X96561060Y-85152061D01*
X96553939Y-85144940D01*
X96376843Y-84994220D01*
X96368652Y-84988312D01*
X96169749Y-84867852D01*
X96160723Y-84863332D01*
X95945112Y-84776219D01*
X95935488Y-84773203D01*
X95708448Y-84721622D01*
X95699016Y-84720220D01*
X95558690Y-84710161D01*
X95554177Y-84710000D01*
X94760115Y-84710000D01*
X94744876Y-84714475D01*
X94743671Y-84715865D01*
X94742000Y-84723548D01*
X94742000Y-86945885D01*
X94234000Y-86945885D01*
X94234000Y-84728115D01*
X94229525Y-84712876D01*
X94228135Y-84711671D01*
X94220452Y-84710000D01*
X93421823Y-84710000D01*
X93417310Y-84710161D01*
X93276984Y-84720220D01*
X93267552Y-84721622D01*
X93040512Y-84773203D01*
X93030888Y-84776219D01*
X92815277Y-84863332D01*
X92806251Y-84867852D01*
X92607348Y-84988312D01*
X92599157Y-84994220D01*
X92422061Y-85144940D01*
X92414940Y-85152061D01*
X92264220Y-85329157D01*
X92258312Y-85337348D01*
X92137852Y-85536251D01*
X92133332Y-85545277D01*
X92046219Y-85760888D01*
X92043203Y-85770512D01*
X91991622Y-85997552D01*
X91990220Y-86006984D01*
X91980161Y-86147310D01*
X91980000Y-86151823D01*
X91980000Y-86945885D01*
X83179443Y-86945885D01*
X83176666Y-86894615D01*
X83175931Y-86887849D01*
X83119130Y-86540985D01*
X83117663Y-86534313D01*
X83023736Y-86195627D01*
X83021562Y-86189163D01*
X82891598Y-85862578D01*
X82888742Y-85856398D01*
X82724269Y-85545763D01*
X82720769Y-85539937D01*
X82523697Y-85248862D01*
X82519590Y-85243453D01*
X82406565Y-85110179D01*
X82393740Y-85101743D01*
X82383416Y-85107795D01*
X80255020Y-87236190D01*
X80247408Y-87250131D01*
X79517357Y-87250131D01*
X79518592Y-87247869D01*
X79518461Y-87246034D01*
X79514210Y-87239420D01*
X77383992Y-85109203D01*
X77370455Y-85101811D01*
X77360753Y-85108599D01*
X77253430Y-85234257D01*
X77249296Y-85239664D01*
X77051215Y-85530041D01*
X77047697Y-85535851D01*
X76882134Y-85845922D01*
X76879259Y-85852087D01*
X76748155Y-86178218D01*
X76745962Y-86184658D01*
X76650846Y-86523044D01*
X76649363Y-86529679D01*
X76591350Y-86876354D01*
X76590591Y-86883126D01*
X76570357Y-87234037D01*
X76570333Y-87240832D01*
X76203861Y-87240832D01*
X76203065Y-87236830D01*
X76203065Y-87225490D01*
X76202149Y-87213321D01*
X76204831Y-87155324D01*
X76217565Y-86879886D01*
X76218639Y-86868297D01*
X76268885Y-86508098D01*
X76271024Y-86496659D01*
X76344405Y-86184658D01*
X76354288Y-86142637D01*
X76357472Y-86131446D01*
X76362511Y-86116414D01*
X76449892Y-85855704D01*
X76473048Y-85786618D01*
X76477252Y-85775766D01*
X76624153Y-85443067D01*
X76629341Y-85432649D01*
X76806305Y-85114938D01*
X76812431Y-85105043D01*
X77017965Y-84805000D01*
X77024979Y-84795712D01*
X77074678Y-84735862D01*
X77732950Y-84735862D01*
X77732986Y-84736704D01*
X77738037Y-84744826D01*
X79870190Y-86876980D01*
X79884131Y-86884592D01*
X79885966Y-86884461D01*
X79892580Y-86880210D01*
X82025798Y-84746991D01*
X82033412Y-84733047D01*
X82033344Y-84732089D01*
X82028836Y-84725272D01*
X82027418Y-84724065D01*
X81747813Y-84511064D01*
X81742187Y-84507240D01*
X81441214Y-84325681D01*
X81435202Y-84322484D01*
X81116370Y-84174487D01*
X81110070Y-84171967D01*
X80777129Y-84059273D01*
X80770551Y-84057437D01*
X80427417Y-83981367D01*
X80420678Y-83980251D01*
X80071310Y-83941680D01*
X80064529Y-83941301D01*
X79713015Y-83940687D01*
X79706242Y-83941042D01*
X79356720Y-83978395D01*
X79350010Y-83979482D01*
X79006586Y-84054361D01*
X79000011Y-84056172D01*
X78666683Y-84167702D01*
X78660361Y-84170205D01*
X78341034Y-84317079D01*
X78334991Y-84320265D01*
X78033401Y-84500763D01*
X78027755Y-84504571D01*
X77747408Y-84716596D01*
X77742211Y-84720987D01*
X77740972Y-84722155D01*
X77732950Y-84735862D01*
X77074678Y-84735862D01*
X77257321Y-84515913D01*
X77265162Y-84507313D01*
X77522313Y-84250162D01*
X77530913Y-84242321D01*
X77810712Y-84009979D01*
X77820000Y-84002965D01*
X78120043Y-83797431D01*
X78129938Y-83791305D01*
X78447649Y-83614341D01*
X78458067Y-83609153D01*
X78790766Y-83462252D01*
X78801618Y-83458048D01*
X78992673Y-83394012D01*
X79146455Y-83342469D01*
X79157637Y-83339288D01*
X79335107Y-83297548D01*
X79511659Y-83256024D01*
X79523098Y-83253885D01*
X79883297Y-83203639D01*
X79894886Y-83202565D01*
X80228323Y-83187149D01*
X80240490Y-83188065D01*
X80251830Y-83188065D01*
X80264000Y-83190486D01*
X80276897Y-83187921D01*
X80301476Y-83185500D01*
X101597839Y-83185500D01*
X101665960Y-83205502D01*
G37*
G04 #@! TD.AperFunction*
M02*
