M48
; DRILL file {KiCad (6.0.5)} date Mon Aug  1 18:55:52 2022
; FORMAT={-:-/ absolute / metric / decimal}
; #@! TF.CreationDate,2022-08-01T18:55:52+01:00
; #@! TF.GenerationSoftware,Kicad,Pcbnew,(6.0.5)
; #@! TF.FileFunction,Plated,1,2,PTH
FMAT,2
METRIC
; #@! TA.AperFunction,Plated,PTH,ViaDrill
T1C0.400
; #@! TA.AperFunction,Plated,PTH,ComponentDrill
T2C0.800
; #@! TA.AperFunction,Plated,PTH,ComponentDrill
T3C0.900
; #@! TA.AperFunction,Plated,PTH,ComponentDrill
T4C1.000
; #@! TA.AperFunction,Plated,PTH,ComponentDrill
T5C1.500
; #@! TA.AperFunction,Plated,PTH,ComponentDrill
T6C2.000
; #@! TA.AperFunction,Plated,PTH,ComponentDrill
T7C3.200
%
G90
G05
T1
X78.74Y-98.425
X78.74Y-100.796
X78.74Y-103.166
X78.74Y-105.537
X78.74Y-107.908
X78.74Y-110.278
X78.74Y-112.649
X81.026Y-98.425
X81.026Y-100.796
X81.026Y-103.166
X81.026Y-105.537
X81.026Y-107.908
X81.026Y-110.278
X81.026Y-112.649
X82.931Y-98.425
X82.931Y-100.796
X82.931Y-103.166
X82.931Y-105.537
X82.931Y-107.908
X82.931Y-110.278
X82.931Y-112.649
X84.963Y-98.425
X84.963Y-100.796
X84.963Y-103.166
X84.963Y-105.537
X84.963Y-107.908
X84.963Y-110.278
X84.963Y-112.649
X100.711Y-94.361
X105.664Y-99.695
X105.664Y-101.981
X105.664Y-104.648
X105.664Y-107.188
X105.664Y-109.601
X105.664Y-111.887
X105.664Y-114.427
X105.664Y-117.221
X107.315Y-91.313
X107.315Y-93.091
X107.315Y-94.996
X108.458Y-99.695
X108.458Y-101.981
X108.458Y-104.648
X108.458Y-107.188
X108.458Y-109.601
X108.458Y-111.887
X108.458Y-114.427
X108.458Y-117.221
X109.601Y-91.313
X109.601Y-93.091
X109.601Y-94.996
X111.125Y-99.695
X111.125Y-101.981
X111.125Y-104.648
X111.125Y-107.188
X111.125Y-109.601
X111.125Y-111.887
X111.887Y-91.313
X111.887Y-93.091
X111.887Y-94.996
X114.173Y-91.313
X114.173Y-93.091
X114.173Y-94.996
X114.3Y-99.695
X114.3Y-101.981
X114.3Y-104.648
X114.3Y-107.188
X114.3Y-109.601
X116.332Y-118.491
X116.459Y-91.313
X116.459Y-93.091
X116.459Y-94.996
X118.745Y-91.313
X118.745Y-93.091
X118.745Y-94.996
X121.031Y-91.313
X121.031Y-93.091
X121.031Y-94.996
X123.317Y-91.313
X123.317Y-93.091
X123.317Y-94.996
T2
X102.489Y-102.108
X102.489Y-110.858
X117.389Y-102.108
X117.389Y-110.858
T3
X97.409Y-125.222
X99.949Y-125.222
X106.299Y-125.222
X108.839Y-125.222
T4
X89.408Y-97.917
X89.408Y-115.697
X89.789Y-121.539
X89.789Y-124.079
X92.583Y-121.539
X92.583Y-124.079
X104.902Y-85.852
X104.902Y-88.519
X107.442Y-85.852
X107.442Y-88.519
X109.982Y-85.852
X109.982Y-88.519
X112.522Y-85.852
X112.522Y-88.519
X115.062Y-85.852
X115.062Y-88.519
X117.602Y-85.852
X117.602Y-88.519
X120.142Y-85.852
X120.142Y-88.519
X122.682Y-85.852
X122.682Y-88.519
X125.222Y-85.852
X125.222Y-88.519
X125.603Y-121.031
X125.603Y-123.571
X130.048Y-97.917
X130.048Y-115.697
T5
X81.407Y-94.367
X81.407Y-116.967
T7
X79.883Y-87.249
X80.01Y-123.063
X130.683Y-86.995
X130.683Y-122.809
T6
X89.788Y-89.718G85X89.788Y-90.718
G05
X94.988Y-87.218G85X93.988Y-87.218
G05
X94.988Y-93.218G85X93.988Y-93.218
G05
T0
M30
