G04 #@! TF.GenerationSoftware,KiCad,Pcbnew,(5.1.10)-1*
G04 #@! TF.CreationDate,2022-07-15T18:28:36+01:00*
G04 #@! TF.ProjectId,LED-RPi-PCB,4c45442d-5250-4692-9d50-43422e6b6963,rev?*
G04 #@! TF.SameCoordinates,Original*
G04 #@! TF.FileFunction,Legend,Bot*
G04 #@! TF.FilePolarity,Positive*
%FSLAX46Y46*%
G04 Gerber Fmt 4.6, Leading zero omitted, Abs format (unit mm)*
G04 Created by KiCad (PCBNEW (5.1.10)-1) date 2022-07-15 18:28:36*
%MOMM*%
%LPD*%
G01*
G04 APERTURE LIST*
%ADD10C,0.200000*%
%ADD11C,0.010000*%
%ADD12C,3.000000*%
%ADD13R,2.540000X2.540000*%
%ADD14C,2.540000*%
%ADD15C,1.600000*%
%ADD16R,4.000000X3.500000*%
%ADD17O,1.700000X1.700000*%
%ADD18R,1.700000X1.700000*%
%ADD19C,5.600000*%
%ADD20C,1.800000*%
%ADD21R,1.800000X1.800000*%
G04 APERTURE END LIST*
D10*
X123950666Y-122340666D02*
X123569714Y-122340666D01*
X124026857Y-122626380D02*
X123760190Y-121626380D01*
X123493523Y-122626380D01*
X122884000Y-121959714D02*
X122884000Y-122626380D01*
X123226857Y-121959714D02*
X123226857Y-122483523D01*
X123188761Y-122578761D01*
X123112571Y-122626380D01*
X122998285Y-122626380D01*
X122922095Y-122578761D01*
X122884000Y-122531142D01*
X122160190Y-121959714D02*
X122160190Y-122769238D01*
X122198285Y-122864476D01*
X122236380Y-122912095D01*
X122312571Y-122959714D01*
X122426857Y-122959714D01*
X122503047Y-122912095D01*
X122160190Y-122578761D02*
X122236380Y-122626380D01*
X122388761Y-122626380D01*
X122464952Y-122578761D01*
X122503047Y-122531142D01*
X122541142Y-122435904D01*
X122541142Y-122150190D01*
X122503047Y-122054952D01*
X122464952Y-122007333D01*
X122388761Y-121959714D01*
X122236380Y-121959714D01*
X122160190Y-122007333D01*
X121436380Y-121959714D02*
X121436380Y-122626380D01*
X121779238Y-121959714D02*
X121779238Y-122483523D01*
X121741142Y-122578761D01*
X121664952Y-122626380D01*
X121550666Y-122626380D01*
X121474476Y-122578761D01*
X121436380Y-122531142D01*
X121093523Y-122578761D02*
X121017333Y-122626380D01*
X120864952Y-122626380D01*
X120788761Y-122578761D01*
X120750666Y-122483523D01*
X120750666Y-122435904D01*
X120788761Y-122340666D01*
X120864952Y-122293047D01*
X120979238Y-122293047D01*
X121055428Y-122245428D01*
X121093523Y-122150190D01*
X121093523Y-122102571D01*
X121055428Y-122007333D01*
X120979238Y-121959714D01*
X120864952Y-121959714D01*
X120788761Y-122007333D01*
X120522095Y-121959714D02*
X120217333Y-121959714D01*
X120407809Y-121626380D02*
X120407809Y-122483523D01*
X120369714Y-122578761D01*
X120293523Y-122626380D01*
X120217333Y-122626380D01*
X119836380Y-122626380D02*
X119912571Y-122578761D01*
X119950666Y-122531142D01*
X119988761Y-122435904D01*
X119988761Y-122150190D01*
X119950666Y-122054952D01*
X119912571Y-122007333D01*
X119836380Y-121959714D01*
X119722095Y-121959714D01*
X119645904Y-122007333D01*
X119607809Y-122054952D01*
X119569714Y-122150190D01*
X119569714Y-122435904D01*
X119607809Y-122531142D01*
X119645904Y-122578761D01*
X119722095Y-122626380D01*
X119836380Y-122626380D01*
X118617333Y-122626380D02*
X118617333Y-121626380D01*
X118617333Y-122102571D02*
X118160190Y-122102571D01*
X118160190Y-122626380D02*
X118160190Y-121626380D01*
X117436380Y-122626380D02*
X117436380Y-121626380D01*
X117436380Y-122578761D02*
X117512571Y-122626380D01*
X117664952Y-122626380D01*
X117741142Y-122578761D01*
X117779238Y-122531142D01*
X117817333Y-122435904D01*
X117817333Y-122150190D01*
X117779238Y-122054952D01*
X117741142Y-122007333D01*
X117664952Y-121959714D01*
X117512571Y-121959714D01*
X117436380Y-122007333D01*
X116750666Y-122578761D02*
X116826857Y-122626380D01*
X116979238Y-122626380D01*
X117055428Y-122578761D01*
X117093523Y-122483523D01*
X117093523Y-122102571D01*
X117055428Y-122007333D01*
X116979238Y-121959714D01*
X116826857Y-121959714D01*
X116750666Y-122007333D01*
X116712571Y-122102571D01*
X116712571Y-122197809D01*
X117093523Y-122293047D01*
X116445904Y-121959714D02*
X116026857Y-121959714D01*
X116445904Y-122626380D01*
X116026857Y-122626380D01*
X114884000Y-123007333D02*
X114922095Y-122959714D01*
X114998285Y-122816857D01*
X115036380Y-122721619D01*
X115074476Y-122578761D01*
X115112571Y-122340666D01*
X115112571Y-122150190D01*
X115074476Y-121912095D01*
X115036380Y-121769238D01*
X114998285Y-121674000D01*
X114922095Y-121531142D01*
X114884000Y-121483523D01*
X114160190Y-121674000D02*
X114236380Y-121626380D01*
X114350666Y-121626380D01*
X114464952Y-121674000D01*
X114541142Y-121769238D01*
X114579238Y-121864476D01*
X114617333Y-122054952D01*
X114617333Y-122197809D01*
X114579238Y-122388285D01*
X114541142Y-122483523D01*
X114464952Y-122578761D01*
X114350666Y-122626380D01*
X114274476Y-122626380D01*
X114160190Y-122578761D01*
X114122095Y-122531142D01*
X114122095Y-122197809D01*
X114274476Y-122197809D01*
X113779238Y-122626380D02*
X113779238Y-121959714D01*
X113779238Y-121626380D02*
X113817333Y-121674000D01*
X113779238Y-121721619D01*
X113741142Y-121674000D01*
X113779238Y-121626380D01*
X113779238Y-121721619D01*
X113512571Y-121959714D02*
X113207809Y-121959714D01*
X113398285Y-121626380D02*
X113398285Y-122483523D01*
X113360190Y-122578761D01*
X113284000Y-122626380D01*
X113207809Y-122626380D01*
X112941142Y-122626380D02*
X112941142Y-121626380D01*
X112598285Y-122626380D02*
X112598285Y-122102571D01*
X112636380Y-122007333D01*
X112712571Y-121959714D01*
X112826857Y-121959714D01*
X112903047Y-122007333D01*
X112941142Y-122054952D01*
X111874476Y-121959714D02*
X111874476Y-122626380D01*
X112217333Y-121959714D02*
X112217333Y-122483523D01*
X112179238Y-122578761D01*
X112103047Y-122626380D01*
X111988761Y-122626380D01*
X111912571Y-122578761D01*
X111874476Y-122531142D01*
X111493523Y-122626380D02*
X111493523Y-121626380D01*
X111493523Y-122007333D02*
X111417333Y-121959714D01*
X111264952Y-121959714D01*
X111188761Y-122007333D01*
X111150666Y-122054952D01*
X111112571Y-122150190D01*
X111112571Y-122435904D01*
X111150666Y-122531142D01*
X111188761Y-122578761D01*
X111264952Y-122626380D01*
X111417333Y-122626380D01*
X111493523Y-122578761D01*
X110769714Y-122531142D02*
X110731619Y-122578761D01*
X110769714Y-122626380D01*
X110807809Y-122578761D01*
X110769714Y-122531142D01*
X110769714Y-122626380D01*
X110769714Y-122007333D02*
X110731619Y-122054952D01*
X110769714Y-122102571D01*
X110807809Y-122054952D01*
X110769714Y-122007333D01*
X110769714Y-122102571D01*
X109817333Y-122340666D02*
X109436380Y-122340666D01*
X109893523Y-122626380D02*
X109626857Y-121626380D01*
X109360190Y-122626380D01*
X108750666Y-121959714D02*
X108750666Y-122626380D01*
X109093523Y-121959714D02*
X109093523Y-122483523D01*
X109055428Y-122578761D01*
X108979238Y-122626380D01*
X108864952Y-122626380D01*
X108788761Y-122578761D01*
X108750666Y-122531142D01*
X108026857Y-121959714D02*
X108026857Y-122769238D01*
X108064952Y-122864476D01*
X108103047Y-122912095D01*
X108179238Y-122959714D01*
X108293523Y-122959714D01*
X108369714Y-122912095D01*
X108026857Y-122578761D02*
X108103047Y-122626380D01*
X108255428Y-122626380D01*
X108331619Y-122578761D01*
X108369714Y-122531142D01*
X108407809Y-122435904D01*
X108407809Y-122150190D01*
X108369714Y-122054952D01*
X108331619Y-122007333D01*
X108255428Y-121959714D01*
X108103047Y-121959714D01*
X108026857Y-122007333D01*
X107303047Y-121959714D02*
X107303047Y-122626380D01*
X107645904Y-121959714D02*
X107645904Y-122483523D01*
X107607809Y-122578761D01*
X107531619Y-122626380D01*
X107417333Y-122626380D01*
X107341142Y-122578761D01*
X107303047Y-122531142D01*
X106960190Y-122578761D02*
X106884000Y-122626380D01*
X106731619Y-122626380D01*
X106655428Y-122578761D01*
X106617333Y-122483523D01*
X106617333Y-122435904D01*
X106655428Y-122340666D01*
X106731619Y-122293047D01*
X106845904Y-122293047D01*
X106922095Y-122245428D01*
X106960190Y-122150190D01*
X106960190Y-122102571D01*
X106922095Y-122007333D01*
X106845904Y-121959714D01*
X106731619Y-121959714D01*
X106655428Y-122007333D01*
X106388761Y-121959714D02*
X106084000Y-121959714D01*
X106274476Y-121626380D02*
X106274476Y-122483523D01*
X106236380Y-122578761D01*
X106160190Y-122626380D01*
X106084000Y-122626380D01*
X105703047Y-122626380D02*
X105779238Y-122578761D01*
X105817333Y-122531142D01*
X105855428Y-122435904D01*
X105855428Y-122150190D01*
X105817333Y-122054952D01*
X105779238Y-122007333D01*
X105703047Y-121959714D01*
X105588761Y-121959714D01*
X105512571Y-122007333D01*
X105474476Y-122054952D01*
X105436380Y-122150190D01*
X105436380Y-122435904D01*
X105474476Y-122531142D01*
X105512571Y-122578761D01*
X105588761Y-122626380D01*
X105703047Y-122626380D01*
X105131619Y-122578761D02*
X105017333Y-122626380D01*
X104826857Y-122626380D01*
X104750666Y-122578761D01*
X104712571Y-122531142D01*
X104674476Y-122435904D01*
X104674476Y-122340666D01*
X104712571Y-122245428D01*
X104750666Y-122197809D01*
X104826857Y-122150190D01*
X104979238Y-122102571D01*
X105055428Y-122054952D01*
X105093523Y-122007333D01*
X105131619Y-121912095D01*
X105131619Y-121816857D01*
X105093523Y-121721619D01*
X105055428Y-121674000D01*
X104979238Y-121626380D01*
X104788761Y-121626380D01*
X104674476Y-121674000D01*
X104293523Y-122626380D02*
X104141142Y-122626380D01*
X104064952Y-122578761D01*
X104026857Y-122531142D01*
X103950666Y-122388285D01*
X103912571Y-122197809D01*
X103912571Y-121816857D01*
X103950666Y-121721619D01*
X103988761Y-121674000D01*
X104064952Y-121626380D01*
X104217333Y-121626380D01*
X104293523Y-121674000D01*
X104331619Y-121721619D01*
X104369714Y-121816857D01*
X104369714Y-122054952D01*
X104331619Y-122150190D01*
X104293523Y-122197809D01*
X104217333Y-122245428D01*
X104064952Y-122245428D01*
X103988761Y-122197809D01*
X103950666Y-122150190D01*
X103912571Y-122054952D01*
X103645904Y-121626380D02*
X103112571Y-121626380D01*
X103455428Y-122626380D01*
X102884000Y-123007333D02*
X102845904Y-122959714D01*
X102769714Y-122816857D01*
X102731619Y-122721619D01*
X102693523Y-122578761D01*
X102655428Y-122340666D01*
X102655428Y-122150190D01*
X102693523Y-121912095D01*
X102731619Y-121769238D01*
X102769714Y-121674000D01*
X102845904Y-121531142D01*
X102884000Y-121483523D01*
X123373380Y-124785380D02*
X123640047Y-124309190D01*
X123830523Y-124785380D02*
X123830523Y-123785380D01*
X123525761Y-123785380D01*
X123449571Y-123833000D01*
X123411476Y-123880619D01*
X123373380Y-123975857D01*
X123373380Y-124118714D01*
X123411476Y-124213952D01*
X123449571Y-124261571D01*
X123525761Y-124309190D01*
X123830523Y-124309190D01*
X123030523Y-124785380D02*
X123030523Y-123785380D01*
X122725761Y-123785380D01*
X122649571Y-123833000D01*
X122611476Y-123880619D01*
X122573380Y-123975857D01*
X122573380Y-124118714D01*
X122611476Y-124213952D01*
X122649571Y-124261571D01*
X122725761Y-124309190D01*
X123030523Y-124309190D01*
X122230523Y-124785380D02*
X122230523Y-124118714D01*
X122230523Y-123785380D02*
X122268619Y-123833000D01*
X122230523Y-123880619D01*
X122192428Y-123833000D01*
X122230523Y-123785380D01*
X122230523Y-123880619D01*
X120782904Y-124690142D02*
X120821000Y-124737761D01*
X120935285Y-124785380D01*
X121011476Y-124785380D01*
X121125761Y-124737761D01*
X121201952Y-124642523D01*
X121240047Y-124547285D01*
X121278142Y-124356809D01*
X121278142Y-124213952D01*
X121240047Y-124023476D01*
X121201952Y-123928238D01*
X121125761Y-123833000D01*
X121011476Y-123785380D01*
X120935285Y-123785380D01*
X120821000Y-123833000D01*
X120782904Y-123880619D01*
X120325761Y-124785380D02*
X120401952Y-124737761D01*
X120440047Y-124690142D01*
X120478142Y-124594904D01*
X120478142Y-124309190D01*
X120440047Y-124213952D01*
X120401952Y-124166333D01*
X120325761Y-124118714D01*
X120211476Y-124118714D01*
X120135285Y-124166333D01*
X120097190Y-124213952D01*
X120059095Y-124309190D01*
X120059095Y-124594904D01*
X120097190Y-124690142D01*
X120135285Y-124737761D01*
X120211476Y-124785380D01*
X120325761Y-124785380D01*
X119716238Y-124118714D02*
X119716238Y-124785380D01*
X119716238Y-124213952D02*
X119678142Y-124166333D01*
X119601952Y-124118714D01*
X119487666Y-124118714D01*
X119411476Y-124166333D01*
X119373380Y-124261571D01*
X119373380Y-124785380D01*
X119106714Y-124118714D02*
X118801952Y-124118714D01*
X118992428Y-123785380D02*
X118992428Y-124642523D01*
X118954333Y-124737761D01*
X118878142Y-124785380D01*
X118801952Y-124785380D01*
X118535285Y-124785380D02*
X118535285Y-124118714D01*
X118535285Y-124309190D02*
X118497190Y-124213952D01*
X118459095Y-124166333D01*
X118382904Y-124118714D01*
X118306714Y-124118714D01*
X117925761Y-124785380D02*
X118001952Y-124737761D01*
X118040047Y-124690142D01*
X118078142Y-124594904D01*
X118078142Y-124309190D01*
X118040047Y-124213952D01*
X118001952Y-124166333D01*
X117925761Y-124118714D01*
X117811476Y-124118714D01*
X117735285Y-124166333D01*
X117697190Y-124213952D01*
X117659095Y-124309190D01*
X117659095Y-124594904D01*
X117697190Y-124690142D01*
X117735285Y-124737761D01*
X117811476Y-124785380D01*
X117925761Y-124785380D01*
X117201952Y-124785380D02*
X117278142Y-124737761D01*
X117316238Y-124642523D01*
X117316238Y-123785380D01*
X116782904Y-124785380D02*
X116859095Y-124737761D01*
X116897190Y-124642523D01*
X116897190Y-123785380D01*
X116173380Y-124737761D02*
X116249571Y-124785380D01*
X116401952Y-124785380D01*
X116478142Y-124737761D01*
X116516238Y-124642523D01*
X116516238Y-124261571D01*
X116478142Y-124166333D01*
X116401952Y-124118714D01*
X116249571Y-124118714D01*
X116173380Y-124166333D01*
X116135285Y-124261571D01*
X116135285Y-124356809D01*
X116516238Y-124452047D01*
X115792428Y-124785380D02*
X115792428Y-124118714D01*
X115792428Y-124309190D02*
X115754333Y-124213952D01*
X115716238Y-124166333D01*
X115640047Y-124118714D01*
X115563857Y-124118714D01*
X114687666Y-124785380D02*
X114687666Y-123785380D01*
X114382904Y-123785380D01*
X114306714Y-123833000D01*
X114268619Y-123880619D01*
X114230523Y-123975857D01*
X114230523Y-124118714D01*
X114268619Y-124213952D01*
X114306714Y-124261571D01*
X114382904Y-124309190D01*
X114687666Y-124309190D01*
X113430523Y-124690142D02*
X113468619Y-124737761D01*
X113582904Y-124785380D01*
X113659095Y-124785380D01*
X113773380Y-124737761D01*
X113849571Y-124642523D01*
X113887666Y-124547285D01*
X113925761Y-124356809D01*
X113925761Y-124213952D01*
X113887666Y-124023476D01*
X113849571Y-123928238D01*
X113773380Y-123833000D01*
X113659095Y-123785380D01*
X113582904Y-123785380D01*
X113468619Y-123833000D01*
X113430523Y-123880619D01*
X112821000Y-124261571D02*
X112706714Y-124309190D01*
X112668619Y-124356809D01*
X112630523Y-124452047D01*
X112630523Y-124594904D01*
X112668619Y-124690142D01*
X112706714Y-124737761D01*
X112782904Y-124785380D01*
X113087666Y-124785380D01*
X113087666Y-123785380D01*
X112821000Y-123785380D01*
X112744809Y-123833000D01*
X112706714Y-123880619D01*
X112668619Y-123975857D01*
X112668619Y-124071095D01*
X112706714Y-124166333D01*
X112744809Y-124213952D01*
X112821000Y-124261571D01*
X113087666Y-124261571D01*
X111792428Y-123785380D02*
X111525761Y-124785380D01*
X111259095Y-123785380D01*
X110573380Y-124785380D02*
X111030523Y-124785380D01*
X110801952Y-124785380D02*
X110801952Y-123785380D01*
X110878142Y-123928238D01*
X110954333Y-124023476D01*
X111030523Y-124071095D01*
D11*
G04 #@! TO.C,REF\u002A\u002A*
G36*
X104134177Y-97016533D02*
G01*
X104102798Y-97038776D01*
X104075089Y-97066485D01*
X104075089Y-97375920D01*
X104075162Y-97467799D01*
X104075505Y-97539840D01*
X104076308Y-97594780D01*
X104077759Y-97635360D01*
X104080048Y-97664317D01*
X104083364Y-97684391D01*
X104087895Y-97698321D01*
X104093831Y-97708845D01*
X104098486Y-97715100D01*
X104129217Y-97739673D01*
X104164504Y-97742341D01*
X104196755Y-97727271D01*
X104207412Y-97718374D01*
X104214536Y-97706557D01*
X104218833Y-97687526D01*
X104221009Y-97656992D01*
X104221772Y-97610662D01*
X104221845Y-97574871D01*
X104221845Y-97440045D01*
X104718556Y-97440045D01*
X104718556Y-97562700D01*
X104719069Y-97618787D01*
X104721124Y-97657333D01*
X104725492Y-97683361D01*
X104732944Y-97701897D01*
X104741953Y-97715100D01*
X104772856Y-97739604D01*
X104807804Y-97742506D01*
X104841262Y-97725089D01*
X104850396Y-97715959D01*
X104856848Y-97703855D01*
X104861103Y-97685001D01*
X104863648Y-97655620D01*
X104864971Y-97611937D01*
X104865557Y-97550175D01*
X104865625Y-97536000D01*
X104866109Y-97419631D01*
X104866359Y-97323727D01*
X104866277Y-97246177D01*
X104865769Y-97184869D01*
X104864738Y-97137690D01*
X104863087Y-97102530D01*
X104860721Y-97077276D01*
X104857543Y-97059817D01*
X104853456Y-97048041D01*
X104848366Y-97039835D01*
X104842734Y-97033645D01*
X104810872Y-97013844D01*
X104777643Y-97016533D01*
X104746265Y-97038776D01*
X104733567Y-97053126D01*
X104725474Y-97068978D01*
X104720958Y-97091554D01*
X104718994Y-97126078D01*
X104718556Y-97177776D01*
X104718556Y-97293289D01*
X104221845Y-97293289D01*
X104221845Y-97174756D01*
X104221338Y-97120148D01*
X104219302Y-97083275D01*
X104214965Y-97059307D01*
X104207553Y-97043415D01*
X104199267Y-97033645D01*
X104167406Y-97013844D01*
X104134177Y-97016533D01*
G37*
X104134177Y-97016533D02*
X104102798Y-97038776D01*
X104075089Y-97066485D01*
X104075089Y-97375920D01*
X104075162Y-97467799D01*
X104075505Y-97539840D01*
X104076308Y-97594780D01*
X104077759Y-97635360D01*
X104080048Y-97664317D01*
X104083364Y-97684391D01*
X104087895Y-97698321D01*
X104093831Y-97708845D01*
X104098486Y-97715100D01*
X104129217Y-97739673D01*
X104164504Y-97742341D01*
X104196755Y-97727271D01*
X104207412Y-97718374D01*
X104214536Y-97706557D01*
X104218833Y-97687526D01*
X104221009Y-97656992D01*
X104221772Y-97610662D01*
X104221845Y-97574871D01*
X104221845Y-97440045D01*
X104718556Y-97440045D01*
X104718556Y-97562700D01*
X104719069Y-97618787D01*
X104721124Y-97657333D01*
X104725492Y-97683361D01*
X104732944Y-97701897D01*
X104741953Y-97715100D01*
X104772856Y-97739604D01*
X104807804Y-97742506D01*
X104841262Y-97725089D01*
X104850396Y-97715959D01*
X104856848Y-97703855D01*
X104861103Y-97685001D01*
X104863648Y-97655620D01*
X104864971Y-97611937D01*
X104865557Y-97550175D01*
X104865625Y-97536000D01*
X104866109Y-97419631D01*
X104866359Y-97323727D01*
X104866277Y-97246177D01*
X104865769Y-97184869D01*
X104864738Y-97137690D01*
X104863087Y-97102530D01*
X104860721Y-97077276D01*
X104857543Y-97059817D01*
X104853456Y-97048041D01*
X104848366Y-97039835D01*
X104842734Y-97033645D01*
X104810872Y-97013844D01*
X104777643Y-97016533D01*
X104746265Y-97038776D01*
X104733567Y-97053126D01*
X104725474Y-97068978D01*
X104720958Y-97091554D01*
X104718994Y-97126078D01*
X104718556Y-97177776D01*
X104718556Y-97293289D01*
X104221845Y-97293289D01*
X104221845Y-97174756D01*
X104221338Y-97120148D01*
X104219302Y-97083275D01*
X104214965Y-97059307D01*
X104207553Y-97043415D01*
X104199267Y-97033645D01*
X104167406Y-97013844D01*
X104134177Y-97016533D01*
G36*
X105399935Y-97011163D02*
G01*
X105321228Y-97011542D01*
X105260137Y-97012333D01*
X105214183Y-97013670D01*
X105180886Y-97015683D01*
X105157764Y-97018506D01*
X105142338Y-97022269D01*
X105132129Y-97027105D01*
X105127187Y-97030822D01*
X105101543Y-97063358D01*
X105098441Y-97097138D01*
X105114289Y-97127826D01*
X105124652Y-97140089D01*
X105135804Y-97148450D01*
X105151965Y-97153657D01*
X105177358Y-97156457D01*
X105216202Y-97157596D01*
X105272720Y-97157821D01*
X105283820Y-97157822D01*
X105429756Y-97157822D01*
X105429756Y-97428756D01*
X105429852Y-97514154D01*
X105430289Y-97579864D01*
X105431288Y-97628774D01*
X105433072Y-97663773D01*
X105435863Y-97687749D01*
X105439883Y-97703593D01*
X105445355Y-97714191D01*
X105452334Y-97722267D01*
X105485266Y-97742112D01*
X105519646Y-97740548D01*
X105550824Y-97717906D01*
X105553114Y-97715100D01*
X105560571Y-97704492D01*
X105566253Y-97692081D01*
X105570399Y-97674850D01*
X105573250Y-97649784D01*
X105575046Y-97613867D01*
X105576028Y-97564083D01*
X105576436Y-97497417D01*
X105576511Y-97421589D01*
X105576511Y-97157822D01*
X105715873Y-97157822D01*
X105775678Y-97157418D01*
X105817082Y-97155840D01*
X105844252Y-97152547D01*
X105861354Y-97146992D01*
X105872557Y-97138631D01*
X105873917Y-97137178D01*
X105890275Y-97103939D01*
X105888828Y-97066362D01*
X105870022Y-97033645D01*
X105862750Y-97027298D01*
X105853373Y-97022266D01*
X105839391Y-97018396D01*
X105818304Y-97015537D01*
X105787611Y-97013535D01*
X105744811Y-97012239D01*
X105687405Y-97011498D01*
X105612890Y-97011158D01*
X105518767Y-97011068D01*
X105498740Y-97011067D01*
X105399935Y-97011163D01*
G37*
X105399935Y-97011163D02*
X105321228Y-97011542D01*
X105260137Y-97012333D01*
X105214183Y-97013670D01*
X105180886Y-97015683D01*
X105157764Y-97018506D01*
X105142338Y-97022269D01*
X105132129Y-97027105D01*
X105127187Y-97030822D01*
X105101543Y-97063358D01*
X105098441Y-97097138D01*
X105114289Y-97127826D01*
X105124652Y-97140089D01*
X105135804Y-97148450D01*
X105151965Y-97153657D01*
X105177358Y-97156457D01*
X105216202Y-97157596D01*
X105272720Y-97157821D01*
X105283820Y-97157822D01*
X105429756Y-97157822D01*
X105429756Y-97428756D01*
X105429852Y-97514154D01*
X105430289Y-97579864D01*
X105431288Y-97628774D01*
X105433072Y-97663773D01*
X105435863Y-97687749D01*
X105439883Y-97703593D01*
X105445355Y-97714191D01*
X105452334Y-97722267D01*
X105485266Y-97742112D01*
X105519646Y-97740548D01*
X105550824Y-97717906D01*
X105553114Y-97715100D01*
X105560571Y-97704492D01*
X105566253Y-97692081D01*
X105570399Y-97674850D01*
X105573250Y-97649784D01*
X105575046Y-97613867D01*
X105576028Y-97564083D01*
X105576436Y-97497417D01*
X105576511Y-97421589D01*
X105576511Y-97157822D01*
X105715873Y-97157822D01*
X105775678Y-97157418D01*
X105817082Y-97155840D01*
X105844252Y-97152547D01*
X105861354Y-97146992D01*
X105872557Y-97138631D01*
X105873917Y-97137178D01*
X105890275Y-97103939D01*
X105888828Y-97066362D01*
X105870022Y-97033645D01*
X105862750Y-97027298D01*
X105853373Y-97022266D01*
X105839391Y-97018396D01*
X105818304Y-97015537D01*
X105787611Y-97013535D01*
X105744811Y-97012239D01*
X105687405Y-97011498D01*
X105612890Y-97011158D01*
X105518767Y-97011068D01*
X105498740Y-97011067D01*
X105399935Y-97011163D01*
G36*
X106174386Y-97017877D02*
G01*
X106150673Y-97032647D01*
X106124022Y-97054227D01*
X106124022Y-97375773D01*
X106124107Y-97469830D01*
X106124471Y-97543932D01*
X106125276Y-97600704D01*
X106126687Y-97642768D01*
X106128867Y-97672748D01*
X106131979Y-97693267D01*
X106136186Y-97706949D01*
X106141652Y-97716416D01*
X106145528Y-97721082D01*
X106176966Y-97741575D01*
X106212767Y-97740739D01*
X106244127Y-97723264D01*
X106270778Y-97701684D01*
X106270778Y-97054227D01*
X106244127Y-97032647D01*
X106218406Y-97016949D01*
X106197400Y-97011067D01*
X106174386Y-97017877D01*
G37*
X106174386Y-97017877D02*
X106150673Y-97032647D01*
X106124022Y-97054227D01*
X106124022Y-97375773D01*
X106124107Y-97469830D01*
X106124471Y-97543932D01*
X106125276Y-97600704D01*
X106126687Y-97642768D01*
X106128867Y-97672748D01*
X106131979Y-97693267D01*
X106136186Y-97706949D01*
X106141652Y-97716416D01*
X106145528Y-97721082D01*
X106176966Y-97741575D01*
X106212767Y-97740739D01*
X106244127Y-97723264D01*
X106270778Y-97701684D01*
X106270778Y-97054227D01*
X106244127Y-97032647D01*
X106218406Y-97016949D01*
X106197400Y-97011067D01*
X106174386Y-97017877D01*
G36*
X106618335Y-97013034D02*
G01*
X106598745Y-97020035D01*
X106597990Y-97020377D01*
X106571387Y-97040678D01*
X106556730Y-97061561D01*
X106553862Y-97071352D01*
X106554004Y-97084361D01*
X106558039Y-97102895D01*
X106566854Y-97129257D01*
X106581331Y-97165752D01*
X106602355Y-97214687D01*
X106630812Y-97278365D01*
X106667585Y-97359093D01*
X106687825Y-97403216D01*
X106724375Y-97481985D01*
X106758685Y-97554423D01*
X106789448Y-97617880D01*
X106815352Y-97669708D01*
X106835090Y-97707259D01*
X106847350Y-97727884D01*
X106849776Y-97730733D01*
X106880817Y-97743302D01*
X106915879Y-97741619D01*
X106944000Y-97726332D01*
X106945146Y-97725089D01*
X106956332Y-97708154D01*
X106975096Y-97675170D01*
X106999125Y-97630380D01*
X107026103Y-97578032D01*
X107035799Y-97558742D01*
X107108986Y-97412150D01*
X107188760Y-97571393D01*
X107217233Y-97626415D01*
X107243650Y-97674132D01*
X107265852Y-97710893D01*
X107281681Y-97733044D01*
X107287046Y-97737741D01*
X107328743Y-97744102D01*
X107363151Y-97730733D01*
X107373272Y-97716446D01*
X107390786Y-97684692D01*
X107414265Y-97638597D01*
X107442280Y-97581285D01*
X107473401Y-97515880D01*
X107506201Y-97445507D01*
X107539250Y-97373291D01*
X107571119Y-97302355D01*
X107600381Y-97235825D01*
X107625605Y-97176826D01*
X107645364Y-97128481D01*
X107658228Y-97093915D01*
X107662769Y-97076253D01*
X107662723Y-97075613D01*
X107651674Y-97053388D01*
X107629590Y-97030753D01*
X107628290Y-97029768D01*
X107601147Y-97014425D01*
X107576042Y-97014574D01*
X107566632Y-97017466D01*
X107555166Y-97023718D01*
X107542990Y-97036014D01*
X107528643Y-97056908D01*
X107510664Y-97088949D01*
X107487593Y-97134688D01*
X107457970Y-97196677D01*
X107431255Y-97253898D01*
X107400520Y-97320226D01*
X107372979Y-97379874D01*
X107350062Y-97429725D01*
X107333202Y-97466664D01*
X107323827Y-97487573D01*
X107322460Y-97490845D01*
X107316311Y-97485497D01*
X107302178Y-97463109D01*
X107281943Y-97426946D01*
X107257485Y-97380277D01*
X107247752Y-97361022D01*
X107214783Y-97296004D01*
X107189357Y-97248654D01*
X107169388Y-97216219D01*
X107152790Y-97195946D01*
X107137476Y-97185082D01*
X107121360Y-97180875D01*
X107110857Y-97180400D01*
X107092330Y-97182042D01*
X107076096Y-97188831D01*
X107059965Y-97203566D01*
X107041749Y-97229044D01*
X107019261Y-97268061D01*
X106990311Y-97323414D01*
X106974338Y-97354903D01*
X106948430Y-97405087D01*
X106925833Y-97446704D01*
X106908542Y-97476242D01*
X106898550Y-97490189D01*
X106897191Y-97490770D01*
X106890739Y-97479793D01*
X106876292Y-97451290D01*
X106855297Y-97408244D01*
X106829203Y-97353638D01*
X106799454Y-97290454D01*
X106784820Y-97259071D01*
X106746750Y-97178078D01*
X106716095Y-97115756D01*
X106691263Y-97070071D01*
X106670663Y-97038989D01*
X106652702Y-97020478D01*
X106635790Y-97012504D01*
X106618335Y-97013034D01*
G37*
X106618335Y-97013034D02*
X106598745Y-97020035D01*
X106597990Y-97020377D01*
X106571387Y-97040678D01*
X106556730Y-97061561D01*
X106553862Y-97071352D01*
X106554004Y-97084361D01*
X106558039Y-97102895D01*
X106566854Y-97129257D01*
X106581331Y-97165752D01*
X106602355Y-97214687D01*
X106630812Y-97278365D01*
X106667585Y-97359093D01*
X106687825Y-97403216D01*
X106724375Y-97481985D01*
X106758685Y-97554423D01*
X106789448Y-97617880D01*
X106815352Y-97669708D01*
X106835090Y-97707259D01*
X106847350Y-97727884D01*
X106849776Y-97730733D01*
X106880817Y-97743302D01*
X106915879Y-97741619D01*
X106944000Y-97726332D01*
X106945146Y-97725089D01*
X106956332Y-97708154D01*
X106975096Y-97675170D01*
X106999125Y-97630380D01*
X107026103Y-97578032D01*
X107035799Y-97558742D01*
X107108986Y-97412150D01*
X107188760Y-97571393D01*
X107217233Y-97626415D01*
X107243650Y-97674132D01*
X107265852Y-97710893D01*
X107281681Y-97733044D01*
X107287046Y-97737741D01*
X107328743Y-97744102D01*
X107363151Y-97730733D01*
X107373272Y-97716446D01*
X107390786Y-97684692D01*
X107414265Y-97638597D01*
X107442280Y-97581285D01*
X107473401Y-97515880D01*
X107506201Y-97445507D01*
X107539250Y-97373291D01*
X107571119Y-97302355D01*
X107600381Y-97235825D01*
X107625605Y-97176826D01*
X107645364Y-97128481D01*
X107658228Y-97093915D01*
X107662769Y-97076253D01*
X107662723Y-97075613D01*
X107651674Y-97053388D01*
X107629590Y-97030753D01*
X107628290Y-97029768D01*
X107601147Y-97014425D01*
X107576042Y-97014574D01*
X107566632Y-97017466D01*
X107555166Y-97023718D01*
X107542990Y-97036014D01*
X107528643Y-97056908D01*
X107510664Y-97088949D01*
X107487593Y-97134688D01*
X107457970Y-97196677D01*
X107431255Y-97253898D01*
X107400520Y-97320226D01*
X107372979Y-97379874D01*
X107350062Y-97429725D01*
X107333202Y-97466664D01*
X107323827Y-97487573D01*
X107322460Y-97490845D01*
X107316311Y-97485497D01*
X107302178Y-97463109D01*
X107281943Y-97426946D01*
X107257485Y-97380277D01*
X107247752Y-97361022D01*
X107214783Y-97296004D01*
X107189357Y-97248654D01*
X107169388Y-97216219D01*
X107152790Y-97195946D01*
X107137476Y-97185082D01*
X107121360Y-97180875D01*
X107110857Y-97180400D01*
X107092330Y-97182042D01*
X107076096Y-97188831D01*
X107059965Y-97203566D01*
X107041749Y-97229044D01*
X107019261Y-97268061D01*
X106990311Y-97323414D01*
X106974338Y-97354903D01*
X106948430Y-97405087D01*
X106925833Y-97446704D01*
X106908542Y-97476242D01*
X106898550Y-97490189D01*
X106897191Y-97490770D01*
X106890739Y-97479793D01*
X106876292Y-97451290D01*
X106855297Y-97408244D01*
X106829203Y-97353638D01*
X106799454Y-97290454D01*
X106784820Y-97259071D01*
X106746750Y-97178078D01*
X106716095Y-97115756D01*
X106691263Y-97070071D01*
X106670663Y-97038989D01*
X106652702Y-97020478D01*
X106635790Y-97012504D01*
X106618335Y-97013034D01*
G36*
X109344691Y-97011275D02*
G01*
X109215712Y-97015636D01*
X109106009Y-97028861D01*
X109013774Y-97051741D01*
X108937198Y-97085070D01*
X108874473Y-97129638D01*
X108823788Y-97186236D01*
X108783337Y-97255658D01*
X108782541Y-97257351D01*
X108758399Y-97319483D01*
X108749797Y-97374509D01*
X108756769Y-97429887D01*
X108779346Y-97493073D01*
X108783628Y-97502689D01*
X108812828Y-97558966D01*
X108845644Y-97602451D01*
X108887998Y-97639417D01*
X108945810Y-97676135D01*
X108949169Y-97678052D01*
X108999496Y-97702227D01*
X109056379Y-97720282D01*
X109123473Y-97732839D01*
X109204435Y-97740522D01*
X109302918Y-97743953D01*
X109337714Y-97744251D01*
X109503406Y-97744845D01*
X109526803Y-97715100D01*
X109533743Y-97705319D01*
X109539158Y-97693897D01*
X109543235Y-97678095D01*
X109546163Y-97655175D01*
X109548133Y-97622396D01*
X109548775Y-97598089D01*
X109392156Y-97598089D01*
X109298274Y-97598089D01*
X109243336Y-97596483D01*
X109186940Y-97592255D01*
X109140655Y-97586292D01*
X109137861Y-97585790D01*
X109055652Y-97563736D01*
X108991886Y-97530600D01*
X108944548Y-97484847D01*
X108911618Y-97424939D01*
X108905892Y-97409061D01*
X108900279Y-97384333D01*
X108902709Y-97359902D01*
X108914533Y-97327400D01*
X108921660Y-97311434D01*
X108945000Y-97269006D01*
X108973120Y-97239240D01*
X109004060Y-97218511D01*
X109066034Y-97191537D01*
X109145349Y-97171998D01*
X109237747Y-97160746D01*
X109304667Y-97158270D01*
X109392156Y-97157822D01*
X109392156Y-97598089D01*
X109548775Y-97598089D01*
X109549332Y-97577021D01*
X109549950Y-97516311D01*
X109550175Y-97437526D01*
X109550200Y-97375920D01*
X109550200Y-97066485D01*
X109522491Y-97038776D01*
X109510194Y-97027544D01*
X109496897Y-97019853D01*
X109478328Y-97015040D01*
X109450214Y-97012446D01*
X109408283Y-97011410D01*
X109348263Y-97011270D01*
X109344691Y-97011275D01*
G37*
X109344691Y-97011275D02*
X109215712Y-97015636D01*
X109106009Y-97028861D01*
X109013774Y-97051741D01*
X108937198Y-97085070D01*
X108874473Y-97129638D01*
X108823788Y-97186236D01*
X108783337Y-97255658D01*
X108782541Y-97257351D01*
X108758399Y-97319483D01*
X108749797Y-97374509D01*
X108756769Y-97429887D01*
X108779346Y-97493073D01*
X108783628Y-97502689D01*
X108812828Y-97558966D01*
X108845644Y-97602451D01*
X108887998Y-97639417D01*
X108945810Y-97676135D01*
X108949169Y-97678052D01*
X108999496Y-97702227D01*
X109056379Y-97720282D01*
X109123473Y-97732839D01*
X109204435Y-97740522D01*
X109302918Y-97743953D01*
X109337714Y-97744251D01*
X109503406Y-97744845D01*
X109526803Y-97715100D01*
X109533743Y-97705319D01*
X109539158Y-97693897D01*
X109543235Y-97678095D01*
X109546163Y-97655175D01*
X109548133Y-97622396D01*
X109548775Y-97598089D01*
X109392156Y-97598089D01*
X109298274Y-97598089D01*
X109243336Y-97596483D01*
X109186940Y-97592255D01*
X109140655Y-97586292D01*
X109137861Y-97585790D01*
X109055652Y-97563736D01*
X108991886Y-97530600D01*
X108944548Y-97484847D01*
X108911618Y-97424939D01*
X108905892Y-97409061D01*
X108900279Y-97384333D01*
X108902709Y-97359902D01*
X108914533Y-97327400D01*
X108921660Y-97311434D01*
X108945000Y-97269006D01*
X108973120Y-97239240D01*
X109004060Y-97218511D01*
X109066034Y-97191537D01*
X109145349Y-97171998D01*
X109237747Y-97160746D01*
X109304667Y-97158270D01*
X109392156Y-97157822D01*
X109392156Y-97598089D01*
X109548775Y-97598089D01*
X109549332Y-97577021D01*
X109549950Y-97516311D01*
X109550175Y-97437526D01*
X109550200Y-97375920D01*
X109550200Y-97066485D01*
X109522491Y-97038776D01*
X109510194Y-97027544D01*
X109496897Y-97019853D01*
X109478328Y-97015040D01*
X109450214Y-97012446D01*
X109408283Y-97011410D01*
X109348263Y-97011270D01*
X109344691Y-97011275D01*
G36*
X110132657Y-97011260D02*
G01*
X110056299Y-97012174D01*
X109997783Y-97014311D01*
X109954745Y-97018175D01*
X109924817Y-97024267D01*
X109905632Y-97033090D01*
X109894824Y-97045146D01*
X109890027Y-97060939D01*
X109888873Y-97080970D01*
X109888867Y-97083335D01*
X109889869Y-97105992D01*
X109894604Y-97123503D01*
X109905667Y-97136574D01*
X109925652Y-97145913D01*
X109957154Y-97152227D01*
X110002768Y-97156222D01*
X110065087Y-97158606D01*
X110146707Y-97160086D01*
X110171723Y-97160414D01*
X110413800Y-97163467D01*
X110417186Y-97228378D01*
X110420571Y-97293289D01*
X110252424Y-97293289D01*
X110186734Y-97293531D01*
X110139828Y-97294556D01*
X110107917Y-97296811D01*
X110087209Y-97300742D01*
X110073916Y-97306798D01*
X110064245Y-97315424D01*
X110064183Y-97315493D01*
X110046644Y-97349112D01*
X110047278Y-97385448D01*
X110065686Y-97416423D01*
X110069329Y-97419607D01*
X110082259Y-97427812D01*
X110099976Y-97433521D01*
X110126430Y-97437162D01*
X110165568Y-97439167D01*
X110221338Y-97439964D01*
X110257006Y-97440045D01*
X110419445Y-97440045D01*
X110419445Y-97598089D01*
X110172839Y-97598089D01*
X110091420Y-97598231D01*
X110029590Y-97598814D01*
X109984363Y-97600068D01*
X109952752Y-97602227D01*
X109931769Y-97605523D01*
X109918427Y-97610189D01*
X109909739Y-97616457D01*
X109907550Y-97618733D01*
X109891386Y-97650280D01*
X109890203Y-97686168D01*
X109903464Y-97717285D01*
X109913957Y-97727271D01*
X109924871Y-97732769D01*
X109941783Y-97737022D01*
X109967367Y-97740180D01*
X110004299Y-97742392D01*
X110055254Y-97743806D01*
X110122906Y-97744572D01*
X110209931Y-97744838D01*
X110229606Y-97744845D01*
X110318089Y-97744787D01*
X110386773Y-97744467D01*
X110438436Y-97743667D01*
X110475855Y-97742167D01*
X110501810Y-97739749D01*
X110519078Y-97736194D01*
X110530438Y-97731282D01*
X110538668Y-97724795D01*
X110543183Y-97720138D01*
X110549979Y-97711889D01*
X110555288Y-97701669D01*
X110559294Y-97686800D01*
X110562179Y-97664602D01*
X110564126Y-97632393D01*
X110565319Y-97587496D01*
X110565939Y-97527228D01*
X110566171Y-97448911D01*
X110566200Y-97382994D01*
X110566129Y-97290628D01*
X110565792Y-97218117D01*
X110565002Y-97162737D01*
X110563574Y-97121765D01*
X110561321Y-97092478D01*
X110558057Y-97072153D01*
X110553596Y-97058066D01*
X110547752Y-97047495D01*
X110542803Y-97040811D01*
X110519406Y-97011067D01*
X110229226Y-97011067D01*
X110132657Y-97011260D01*
G37*
X110132657Y-97011260D02*
X110056299Y-97012174D01*
X109997783Y-97014311D01*
X109954745Y-97018175D01*
X109924817Y-97024267D01*
X109905632Y-97033090D01*
X109894824Y-97045146D01*
X109890027Y-97060939D01*
X109888873Y-97080970D01*
X109888867Y-97083335D01*
X109889869Y-97105992D01*
X109894604Y-97123503D01*
X109905667Y-97136574D01*
X109925652Y-97145913D01*
X109957154Y-97152227D01*
X110002768Y-97156222D01*
X110065087Y-97158606D01*
X110146707Y-97160086D01*
X110171723Y-97160414D01*
X110413800Y-97163467D01*
X110417186Y-97228378D01*
X110420571Y-97293289D01*
X110252424Y-97293289D01*
X110186734Y-97293531D01*
X110139828Y-97294556D01*
X110107917Y-97296811D01*
X110087209Y-97300742D01*
X110073916Y-97306798D01*
X110064245Y-97315424D01*
X110064183Y-97315493D01*
X110046644Y-97349112D01*
X110047278Y-97385448D01*
X110065686Y-97416423D01*
X110069329Y-97419607D01*
X110082259Y-97427812D01*
X110099976Y-97433521D01*
X110126430Y-97437162D01*
X110165568Y-97439167D01*
X110221338Y-97439964D01*
X110257006Y-97440045D01*
X110419445Y-97440045D01*
X110419445Y-97598089D01*
X110172839Y-97598089D01*
X110091420Y-97598231D01*
X110029590Y-97598814D01*
X109984363Y-97600068D01*
X109952752Y-97602227D01*
X109931769Y-97605523D01*
X109918427Y-97610189D01*
X109909739Y-97616457D01*
X109907550Y-97618733D01*
X109891386Y-97650280D01*
X109890203Y-97686168D01*
X109903464Y-97717285D01*
X109913957Y-97727271D01*
X109924871Y-97732769D01*
X109941783Y-97737022D01*
X109967367Y-97740180D01*
X110004299Y-97742392D01*
X110055254Y-97743806D01*
X110122906Y-97744572D01*
X110209931Y-97744838D01*
X110229606Y-97744845D01*
X110318089Y-97744787D01*
X110386773Y-97744467D01*
X110438436Y-97743667D01*
X110475855Y-97742167D01*
X110501810Y-97739749D01*
X110519078Y-97736194D01*
X110530438Y-97731282D01*
X110538668Y-97724795D01*
X110543183Y-97720138D01*
X110549979Y-97711889D01*
X110555288Y-97701669D01*
X110559294Y-97686800D01*
X110562179Y-97664602D01*
X110564126Y-97632393D01*
X110565319Y-97587496D01*
X110565939Y-97527228D01*
X110566171Y-97448911D01*
X110566200Y-97382994D01*
X110566129Y-97290628D01*
X110565792Y-97218117D01*
X110565002Y-97162737D01*
X110563574Y-97121765D01*
X110561321Y-97092478D01*
X110558057Y-97072153D01*
X110553596Y-97058066D01*
X110547752Y-97047495D01*
X110542803Y-97040811D01*
X110519406Y-97011067D01*
X110229226Y-97011067D01*
X110132657Y-97011260D01*
G36*
X111663114Y-97015448D02*
G01*
X111639548Y-97029273D01*
X111608735Y-97051881D01*
X111569078Y-97084338D01*
X111518980Y-97127708D01*
X111456843Y-97183058D01*
X111381072Y-97251451D01*
X111294334Y-97330084D01*
X111113711Y-97493878D01*
X111108067Y-97274029D01*
X111106029Y-97198351D01*
X111104063Y-97141994D01*
X111101734Y-97101706D01*
X111098606Y-97074235D01*
X111094245Y-97056329D01*
X111088216Y-97044737D01*
X111080084Y-97036208D01*
X111075772Y-97032623D01*
X111041241Y-97013670D01*
X111008383Y-97016441D01*
X110982318Y-97032633D01*
X110955667Y-97054199D01*
X110952352Y-97369151D01*
X110951435Y-97461779D01*
X110950968Y-97534544D01*
X110951113Y-97590161D01*
X110952032Y-97631342D01*
X110953887Y-97660803D01*
X110956839Y-97681255D01*
X110961050Y-97695413D01*
X110966682Y-97705991D01*
X110972927Y-97714474D01*
X110986439Y-97730207D01*
X110999883Y-97740636D01*
X111015124Y-97744639D01*
X111034026Y-97741094D01*
X111058455Y-97728879D01*
X111090273Y-97706871D01*
X111131348Y-97673949D01*
X111183542Y-97628991D01*
X111248722Y-97570875D01*
X111322556Y-97504099D01*
X111587845Y-97263458D01*
X111593489Y-97482589D01*
X111595531Y-97558128D01*
X111597502Y-97614354D01*
X111599839Y-97654524D01*
X111602981Y-97681896D01*
X111607364Y-97699728D01*
X111613424Y-97711279D01*
X111621600Y-97719807D01*
X111625784Y-97723282D01*
X111662765Y-97742372D01*
X111697708Y-97739493D01*
X111728136Y-97715100D01*
X111735097Y-97705286D01*
X111740523Y-97693826D01*
X111744603Y-97677968D01*
X111747529Y-97654963D01*
X111749492Y-97622062D01*
X111750683Y-97576516D01*
X111751292Y-97515573D01*
X111751511Y-97436486D01*
X111751534Y-97377956D01*
X111751460Y-97286407D01*
X111751113Y-97214687D01*
X111750301Y-97160045D01*
X111748833Y-97119732D01*
X111746519Y-97090998D01*
X111743167Y-97071093D01*
X111738588Y-97057268D01*
X111732589Y-97046772D01*
X111728136Y-97040811D01*
X111716850Y-97026691D01*
X111706301Y-97016029D01*
X111694893Y-97009892D01*
X111681030Y-97009343D01*
X111663114Y-97015448D01*
G37*
X111663114Y-97015448D02*
X111639548Y-97029273D01*
X111608735Y-97051881D01*
X111569078Y-97084338D01*
X111518980Y-97127708D01*
X111456843Y-97183058D01*
X111381072Y-97251451D01*
X111294334Y-97330084D01*
X111113711Y-97493878D01*
X111108067Y-97274029D01*
X111106029Y-97198351D01*
X111104063Y-97141994D01*
X111101734Y-97101706D01*
X111098606Y-97074235D01*
X111094245Y-97056329D01*
X111088216Y-97044737D01*
X111080084Y-97036208D01*
X111075772Y-97032623D01*
X111041241Y-97013670D01*
X111008383Y-97016441D01*
X110982318Y-97032633D01*
X110955667Y-97054199D01*
X110952352Y-97369151D01*
X110951435Y-97461779D01*
X110950968Y-97534544D01*
X110951113Y-97590161D01*
X110952032Y-97631342D01*
X110953887Y-97660803D01*
X110956839Y-97681255D01*
X110961050Y-97695413D01*
X110966682Y-97705991D01*
X110972927Y-97714474D01*
X110986439Y-97730207D01*
X110999883Y-97740636D01*
X111015124Y-97744639D01*
X111034026Y-97741094D01*
X111058455Y-97728879D01*
X111090273Y-97706871D01*
X111131348Y-97673949D01*
X111183542Y-97628991D01*
X111248722Y-97570875D01*
X111322556Y-97504099D01*
X111587845Y-97263458D01*
X111593489Y-97482589D01*
X111595531Y-97558128D01*
X111597502Y-97614354D01*
X111599839Y-97654524D01*
X111602981Y-97681896D01*
X111607364Y-97699728D01*
X111613424Y-97711279D01*
X111621600Y-97719807D01*
X111625784Y-97723282D01*
X111662765Y-97742372D01*
X111697708Y-97739493D01*
X111728136Y-97715100D01*
X111735097Y-97705286D01*
X111740523Y-97693826D01*
X111744603Y-97677968D01*
X111747529Y-97654963D01*
X111749492Y-97622062D01*
X111750683Y-97576516D01*
X111751292Y-97515573D01*
X111751511Y-97436486D01*
X111751534Y-97377956D01*
X111751460Y-97286407D01*
X111751113Y-97214687D01*
X111750301Y-97160045D01*
X111748833Y-97119732D01*
X111746519Y-97090998D01*
X111743167Y-97071093D01*
X111738588Y-97057268D01*
X111732589Y-97046772D01*
X111728136Y-97040811D01*
X111716850Y-97026691D01*
X111706301Y-97016029D01*
X111694893Y-97009892D01*
X111681030Y-97009343D01*
X111663114Y-97015448D01*
G36*
X112313081Y-97016599D02*
G01*
X112244565Y-97028095D01*
X112191943Y-97045967D01*
X112157708Y-97069499D01*
X112148379Y-97082924D01*
X112138893Y-97114148D01*
X112145277Y-97142395D01*
X112165430Y-97169182D01*
X112196745Y-97181713D01*
X112242183Y-97180696D01*
X112277326Y-97173906D01*
X112355419Y-97160971D01*
X112435226Y-97159742D01*
X112524555Y-97170241D01*
X112549229Y-97174690D01*
X112632291Y-97198108D01*
X112697273Y-97232945D01*
X112743461Y-97278604D01*
X112770145Y-97334494D01*
X112775663Y-97363388D01*
X112772051Y-97422012D01*
X112748729Y-97473879D01*
X112707824Y-97517978D01*
X112651459Y-97553299D01*
X112581760Y-97578829D01*
X112500852Y-97593559D01*
X112410860Y-97596478D01*
X112313910Y-97586575D01*
X112308436Y-97585641D01*
X112269875Y-97578459D01*
X112248494Y-97571521D01*
X112239227Y-97561227D01*
X112237006Y-97543976D01*
X112236956Y-97534841D01*
X112236956Y-97496489D01*
X112305431Y-97496489D01*
X112365900Y-97492347D01*
X112407165Y-97479147D01*
X112431175Y-97455730D01*
X112439877Y-97420936D01*
X112439983Y-97416394D01*
X112434892Y-97386654D01*
X112417433Y-97365419D01*
X112384939Y-97351366D01*
X112334743Y-97343173D01*
X112286123Y-97340161D01*
X112215456Y-97338433D01*
X112164198Y-97341070D01*
X112129239Y-97350800D01*
X112107470Y-97370353D01*
X112095780Y-97402456D01*
X112091060Y-97449838D01*
X112090200Y-97512071D01*
X112091609Y-97581535D01*
X112095848Y-97628786D01*
X112102936Y-97654012D01*
X112104311Y-97655988D01*
X112143228Y-97687508D01*
X112200286Y-97712470D01*
X112271869Y-97730340D01*
X112354358Y-97740586D01*
X112444139Y-97742673D01*
X112537592Y-97736068D01*
X112592556Y-97727956D01*
X112678766Y-97703554D01*
X112758892Y-97663662D01*
X112825977Y-97611887D01*
X112836173Y-97601539D01*
X112869302Y-97558035D01*
X112899194Y-97504118D01*
X112922357Y-97447592D01*
X112935298Y-97396259D01*
X112936858Y-97376544D01*
X112930218Y-97335419D01*
X112912568Y-97284252D01*
X112887297Y-97230394D01*
X112857789Y-97181195D01*
X112831719Y-97148334D01*
X112770765Y-97099452D01*
X112691969Y-97060545D01*
X112598157Y-97032494D01*
X112492150Y-97016179D01*
X112395000Y-97012192D01*
X112313081Y-97016599D01*
G37*
X112313081Y-97016599D02*
X112244565Y-97028095D01*
X112191943Y-97045967D01*
X112157708Y-97069499D01*
X112148379Y-97082924D01*
X112138893Y-97114148D01*
X112145277Y-97142395D01*
X112165430Y-97169182D01*
X112196745Y-97181713D01*
X112242183Y-97180696D01*
X112277326Y-97173906D01*
X112355419Y-97160971D01*
X112435226Y-97159742D01*
X112524555Y-97170241D01*
X112549229Y-97174690D01*
X112632291Y-97198108D01*
X112697273Y-97232945D01*
X112743461Y-97278604D01*
X112770145Y-97334494D01*
X112775663Y-97363388D01*
X112772051Y-97422012D01*
X112748729Y-97473879D01*
X112707824Y-97517978D01*
X112651459Y-97553299D01*
X112581760Y-97578829D01*
X112500852Y-97593559D01*
X112410860Y-97596478D01*
X112313910Y-97586575D01*
X112308436Y-97585641D01*
X112269875Y-97578459D01*
X112248494Y-97571521D01*
X112239227Y-97561227D01*
X112237006Y-97543976D01*
X112236956Y-97534841D01*
X112236956Y-97496489D01*
X112305431Y-97496489D01*
X112365900Y-97492347D01*
X112407165Y-97479147D01*
X112431175Y-97455730D01*
X112439877Y-97420936D01*
X112439983Y-97416394D01*
X112434892Y-97386654D01*
X112417433Y-97365419D01*
X112384939Y-97351366D01*
X112334743Y-97343173D01*
X112286123Y-97340161D01*
X112215456Y-97338433D01*
X112164198Y-97341070D01*
X112129239Y-97350800D01*
X112107470Y-97370353D01*
X112095780Y-97402456D01*
X112091060Y-97449838D01*
X112090200Y-97512071D01*
X112091609Y-97581535D01*
X112095848Y-97628786D01*
X112102936Y-97654012D01*
X112104311Y-97655988D01*
X112143228Y-97687508D01*
X112200286Y-97712470D01*
X112271869Y-97730340D01*
X112354358Y-97740586D01*
X112444139Y-97742673D01*
X112537592Y-97736068D01*
X112592556Y-97727956D01*
X112678766Y-97703554D01*
X112758892Y-97663662D01*
X112825977Y-97611887D01*
X112836173Y-97601539D01*
X112869302Y-97558035D01*
X112899194Y-97504118D01*
X112922357Y-97447592D01*
X112935298Y-97396259D01*
X112936858Y-97376544D01*
X112930218Y-97335419D01*
X112912568Y-97284252D01*
X112887297Y-97230394D01*
X112857789Y-97181195D01*
X112831719Y-97148334D01*
X112770765Y-97099452D01*
X112691969Y-97060545D01*
X112598157Y-97032494D01*
X112492150Y-97016179D01*
X112395000Y-97012192D01*
X112313081Y-97016599D01*
G36*
X113286822Y-97033645D02*
G01*
X113280242Y-97041218D01*
X113275079Y-97050987D01*
X113271164Y-97065571D01*
X113268324Y-97087585D01*
X113266387Y-97119648D01*
X113265183Y-97164375D01*
X113264539Y-97224385D01*
X113264284Y-97302294D01*
X113264245Y-97377956D01*
X113264314Y-97471802D01*
X113264638Y-97545689D01*
X113265386Y-97602232D01*
X113266732Y-97644049D01*
X113268846Y-97673757D01*
X113271900Y-97693973D01*
X113276066Y-97707314D01*
X113281516Y-97716398D01*
X113286822Y-97722267D01*
X113319826Y-97741947D01*
X113354991Y-97740181D01*
X113386455Y-97718717D01*
X113393684Y-97710337D01*
X113399334Y-97700614D01*
X113403599Y-97686861D01*
X113406673Y-97666389D01*
X113408752Y-97636512D01*
X113410030Y-97594541D01*
X113410701Y-97537789D01*
X113410959Y-97463567D01*
X113411000Y-97379537D01*
X113411000Y-97066485D01*
X113383291Y-97038776D01*
X113349137Y-97015463D01*
X113316006Y-97014623D01*
X113286822Y-97033645D01*
G37*
X113286822Y-97033645D02*
X113280242Y-97041218D01*
X113275079Y-97050987D01*
X113271164Y-97065571D01*
X113268324Y-97087585D01*
X113266387Y-97119648D01*
X113265183Y-97164375D01*
X113264539Y-97224385D01*
X113264284Y-97302294D01*
X113264245Y-97377956D01*
X113264314Y-97471802D01*
X113264638Y-97545689D01*
X113265386Y-97602232D01*
X113266732Y-97644049D01*
X113268846Y-97673757D01*
X113271900Y-97693973D01*
X113276066Y-97707314D01*
X113281516Y-97716398D01*
X113286822Y-97722267D01*
X113319826Y-97741947D01*
X113354991Y-97740181D01*
X113386455Y-97718717D01*
X113393684Y-97710337D01*
X113399334Y-97700614D01*
X113403599Y-97686861D01*
X113406673Y-97666389D01*
X113408752Y-97636512D01*
X113410030Y-97594541D01*
X113410701Y-97537789D01*
X113410959Y-97463567D01*
X113411000Y-97379537D01*
X113411000Y-97066485D01*
X113383291Y-97038776D01*
X113349137Y-97015463D01*
X113316006Y-97014623D01*
X113286822Y-97033645D01*
G36*
X114054703Y-97012351D02*
G01*
X113979888Y-97017581D01*
X113910306Y-97025750D01*
X113850002Y-97036550D01*
X113803020Y-97049673D01*
X113773406Y-97064813D01*
X113768860Y-97069269D01*
X113753054Y-97103850D01*
X113757847Y-97139351D01*
X113782364Y-97169725D01*
X113783534Y-97170596D01*
X113797954Y-97179954D01*
X113813008Y-97184876D01*
X113834005Y-97185473D01*
X113866257Y-97181861D01*
X113915073Y-97174154D01*
X113919000Y-97173505D01*
X113991739Y-97164569D01*
X114070217Y-97160161D01*
X114148927Y-97160119D01*
X114222361Y-97164279D01*
X114285011Y-97172479D01*
X114331370Y-97184557D01*
X114334416Y-97185771D01*
X114368048Y-97204615D01*
X114379864Y-97223685D01*
X114370614Y-97242439D01*
X114341047Y-97260337D01*
X114291911Y-97276837D01*
X114223957Y-97291396D01*
X114178645Y-97298406D01*
X114084456Y-97311889D01*
X114009544Y-97324214D01*
X113950717Y-97336449D01*
X113904785Y-97349661D01*
X113868555Y-97364917D01*
X113838838Y-97383285D01*
X113812442Y-97405831D01*
X113791230Y-97427971D01*
X113766065Y-97458819D01*
X113753681Y-97485345D01*
X113749808Y-97518026D01*
X113749667Y-97529995D01*
X113752576Y-97569712D01*
X113764202Y-97599259D01*
X113784323Y-97625486D01*
X113825216Y-97665576D01*
X113870817Y-97696149D01*
X113924513Y-97718203D01*
X113989692Y-97732735D01*
X114069744Y-97740741D01*
X114168057Y-97743218D01*
X114184289Y-97743177D01*
X114249849Y-97741818D01*
X114314866Y-97738730D01*
X114372252Y-97734356D01*
X114414922Y-97729140D01*
X114418372Y-97728541D01*
X114460796Y-97718491D01*
X114496780Y-97705796D01*
X114517150Y-97694190D01*
X114536107Y-97663572D01*
X114537427Y-97627918D01*
X114521085Y-97596144D01*
X114517429Y-97592551D01*
X114502315Y-97581876D01*
X114483415Y-97577276D01*
X114454162Y-97578059D01*
X114418651Y-97582127D01*
X114378970Y-97585762D01*
X114323345Y-97588828D01*
X114258406Y-97591053D01*
X114190785Y-97592164D01*
X114173000Y-97592237D01*
X114105128Y-97591964D01*
X114055454Y-97590646D01*
X114019610Y-97587827D01*
X113993224Y-97583050D01*
X113971926Y-97575857D01*
X113959126Y-97569867D01*
X113931000Y-97553233D01*
X113913068Y-97538168D01*
X113910447Y-97533897D01*
X113915976Y-97516263D01*
X113942260Y-97499192D01*
X113987478Y-97483458D01*
X114049808Y-97469838D01*
X114068171Y-97466804D01*
X114164090Y-97451738D01*
X114240641Y-97439146D01*
X114300780Y-97428111D01*
X114347460Y-97417720D01*
X114383637Y-97407056D01*
X114412265Y-97395205D01*
X114436298Y-97381251D01*
X114458692Y-97364281D01*
X114482402Y-97343378D01*
X114490380Y-97336049D01*
X114518353Y-97308699D01*
X114533160Y-97287029D01*
X114538952Y-97262232D01*
X114539889Y-97230983D01*
X114529575Y-97169705D01*
X114498752Y-97117640D01*
X114447595Y-97074958D01*
X114376283Y-97041825D01*
X114325400Y-97026964D01*
X114270100Y-97017366D01*
X114203853Y-97011936D01*
X114130706Y-97010367D01*
X114054703Y-97012351D01*
G37*
X114054703Y-97012351D02*
X113979888Y-97017581D01*
X113910306Y-97025750D01*
X113850002Y-97036550D01*
X113803020Y-97049673D01*
X113773406Y-97064813D01*
X113768860Y-97069269D01*
X113753054Y-97103850D01*
X113757847Y-97139351D01*
X113782364Y-97169725D01*
X113783534Y-97170596D01*
X113797954Y-97179954D01*
X113813008Y-97184876D01*
X113834005Y-97185473D01*
X113866257Y-97181861D01*
X113915073Y-97174154D01*
X113919000Y-97173505D01*
X113991739Y-97164569D01*
X114070217Y-97160161D01*
X114148927Y-97160119D01*
X114222361Y-97164279D01*
X114285011Y-97172479D01*
X114331370Y-97184557D01*
X114334416Y-97185771D01*
X114368048Y-97204615D01*
X114379864Y-97223685D01*
X114370614Y-97242439D01*
X114341047Y-97260337D01*
X114291911Y-97276837D01*
X114223957Y-97291396D01*
X114178645Y-97298406D01*
X114084456Y-97311889D01*
X114009544Y-97324214D01*
X113950717Y-97336449D01*
X113904785Y-97349661D01*
X113868555Y-97364917D01*
X113838838Y-97383285D01*
X113812442Y-97405831D01*
X113791230Y-97427971D01*
X113766065Y-97458819D01*
X113753681Y-97485345D01*
X113749808Y-97518026D01*
X113749667Y-97529995D01*
X113752576Y-97569712D01*
X113764202Y-97599259D01*
X113784323Y-97625486D01*
X113825216Y-97665576D01*
X113870817Y-97696149D01*
X113924513Y-97718203D01*
X113989692Y-97732735D01*
X114069744Y-97740741D01*
X114168057Y-97743218D01*
X114184289Y-97743177D01*
X114249849Y-97741818D01*
X114314866Y-97738730D01*
X114372252Y-97734356D01*
X114414922Y-97729140D01*
X114418372Y-97728541D01*
X114460796Y-97718491D01*
X114496780Y-97705796D01*
X114517150Y-97694190D01*
X114536107Y-97663572D01*
X114537427Y-97627918D01*
X114521085Y-97596144D01*
X114517429Y-97592551D01*
X114502315Y-97581876D01*
X114483415Y-97577276D01*
X114454162Y-97578059D01*
X114418651Y-97582127D01*
X114378970Y-97585762D01*
X114323345Y-97588828D01*
X114258406Y-97591053D01*
X114190785Y-97592164D01*
X114173000Y-97592237D01*
X114105128Y-97591964D01*
X114055454Y-97590646D01*
X114019610Y-97587827D01*
X113993224Y-97583050D01*
X113971926Y-97575857D01*
X113959126Y-97569867D01*
X113931000Y-97553233D01*
X113913068Y-97538168D01*
X113910447Y-97533897D01*
X113915976Y-97516263D01*
X113942260Y-97499192D01*
X113987478Y-97483458D01*
X114049808Y-97469838D01*
X114068171Y-97466804D01*
X114164090Y-97451738D01*
X114240641Y-97439146D01*
X114300780Y-97428111D01*
X114347460Y-97417720D01*
X114383637Y-97407056D01*
X114412265Y-97395205D01*
X114436298Y-97381251D01*
X114458692Y-97364281D01*
X114482402Y-97343378D01*
X114490380Y-97336049D01*
X114518353Y-97308699D01*
X114533160Y-97287029D01*
X114538952Y-97262232D01*
X114539889Y-97230983D01*
X114529575Y-97169705D01*
X114498752Y-97117640D01*
X114447595Y-97074958D01*
X114376283Y-97041825D01*
X114325400Y-97026964D01*
X114270100Y-97017366D01*
X114203853Y-97011936D01*
X114130706Y-97010367D01*
X114054703Y-97012351D01*
G36*
X115075794Y-97011146D02*
G01*
X115006386Y-97011518D01*
X114953997Y-97012385D01*
X114915847Y-97013946D01*
X114889159Y-97016403D01*
X114871153Y-97019957D01*
X114859049Y-97024810D01*
X114850069Y-97031161D01*
X114846818Y-97034084D01*
X114827043Y-97065142D01*
X114823482Y-97100828D01*
X114836491Y-97132510D01*
X114842506Y-97138913D01*
X114852235Y-97145121D01*
X114867901Y-97149910D01*
X114892408Y-97153514D01*
X114928661Y-97156164D01*
X114979565Y-97158095D01*
X115048026Y-97159539D01*
X115110617Y-97160418D01*
X115358334Y-97163467D01*
X115361719Y-97228378D01*
X115365105Y-97293289D01*
X115196958Y-97293289D01*
X115123959Y-97293919D01*
X115070517Y-97296553D01*
X115033628Y-97302309D01*
X115010288Y-97312304D01*
X114997494Y-97327656D01*
X114992242Y-97349482D01*
X114991445Y-97369738D01*
X114993923Y-97394592D01*
X115003277Y-97412906D01*
X115022383Y-97425637D01*
X115054118Y-97433741D01*
X115101359Y-97438176D01*
X115166983Y-97439899D01*
X115202801Y-97440045D01*
X115363978Y-97440045D01*
X115363978Y-97598089D01*
X115115622Y-97598089D01*
X115034213Y-97598202D01*
X114972342Y-97598712D01*
X114926968Y-97599870D01*
X114895054Y-97601930D01*
X114873559Y-97605146D01*
X114859443Y-97609772D01*
X114849668Y-97616059D01*
X114844689Y-97620667D01*
X114827610Y-97647560D01*
X114822111Y-97671467D01*
X114829963Y-97700667D01*
X114844689Y-97722267D01*
X114852546Y-97729066D01*
X114862688Y-97734346D01*
X114877844Y-97738298D01*
X114900741Y-97741113D01*
X114934109Y-97742982D01*
X114980675Y-97744098D01*
X115043167Y-97744651D01*
X115124314Y-97744833D01*
X115166422Y-97744845D01*
X115256598Y-97744765D01*
X115326924Y-97744398D01*
X115380129Y-97743552D01*
X115418940Y-97742036D01*
X115446087Y-97739659D01*
X115464298Y-97736229D01*
X115476300Y-97731554D01*
X115484822Y-97725444D01*
X115488156Y-97722267D01*
X115494755Y-97714670D01*
X115499927Y-97704870D01*
X115503846Y-97690239D01*
X115506684Y-97668152D01*
X115508615Y-97635982D01*
X115509812Y-97591103D01*
X115510448Y-97530889D01*
X115510697Y-97452713D01*
X115510734Y-97379923D01*
X115510700Y-97286707D01*
X115510465Y-97213431D01*
X115509830Y-97157458D01*
X115508594Y-97116151D01*
X115506556Y-97086872D01*
X115503517Y-97066984D01*
X115499277Y-97053850D01*
X115493635Y-97044832D01*
X115486391Y-97037293D01*
X115484606Y-97035612D01*
X115475945Y-97028172D01*
X115465882Y-97022409D01*
X115451625Y-97018112D01*
X115430383Y-97015064D01*
X115399364Y-97013051D01*
X115355777Y-97011860D01*
X115296831Y-97011275D01*
X115219734Y-97011083D01*
X115165001Y-97011067D01*
X115075794Y-97011146D01*
G37*
X115075794Y-97011146D02*
X115006386Y-97011518D01*
X114953997Y-97012385D01*
X114915847Y-97013946D01*
X114889159Y-97016403D01*
X114871153Y-97019957D01*
X114859049Y-97024810D01*
X114850069Y-97031161D01*
X114846818Y-97034084D01*
X114827043Y-97065142D01*
X114823482Y-97100828D01*
X114836491Y-97132510D01*
X114842506Y-97138913D01*
X114852235Y-97145121D01*
X114867901Y-97149910D01*
X114892408Y-97153514D01*
X114928661Y-97156164D01*
X114979565Y-97158095D01*
X115048026Y-97159539D01*
X115110617Y-97160418D01*
X115358334Y-97163467D01*
X115361719Y-97228378D01*
X115365105Y-97293289D01*
X115196958Y-97293289D01*
X115123959Y-97293919D01*
X115070517Y-97296553D01*
X115033628Y-97302309D01*
X115010288Y-97312304D01*
X114997494Y-97327656D01*
X114992242Y-97349482D01*
X114991445Y-97369738D01*
X114993923Y-97394592D01*
X115003277Y-97412906D01*
X115022383Y-97425637D01*
X115054118Y-97433741D01*
X115101359Y-97438176D01*
X115166983Y-97439899D01*
X115202801Y-97440045D01*
X115363978Y-97440045D01*
X115363978Y-97598089D01*
X115115622Y-97598089D01*
X115034213Y-97598202D01*
X114972342Y-97598712D01*
X114926968Y-97599870D01*
X114895054Y-97601930D01*
X114873559Y-97605146D01*
X114859443Y-97609772D01*
X114849668Y-97616059D01*
X114844689Y-97620667D01*
X114827610Y-97647560D01*
X114822111Y-97671467D01*
X114829963Y-97700667D01*
X114844689Y-97722267D01*
X114852546Y-97729066D01*
X114862688Y-97734346D01*
X114877844Y-97738298D01*
X114900741Y-97741113D01*
X114934109Y-97742982D01*
X114980675Y-97744098D01*
X115043167Y-97744651D01*
X115124314Y-97744833D01*
X115166422Y-97744845D01*
X115256598Y-97744765D01*
X115326924Y-97744398D01*
X115380129Y-97743552D01*
X115418940Y-97742036D01*
X115446087Y-97739659D01*
X115464298Y-97736229D01*
X115476300Y-97731554D01*
X115484822Y-97725444D01*
X115488156Y-97722267D01*
X115494755Y-97714670D01*
X115499927Y-97704870D01*
X115503846Y-97690239D01*
X115506684Y-97668152D01*
X115508615Y-97635982D01*
X115509812Y-97591103D01*
X115510448Y-97530889D01*
X115510697Y-97452713D01*
X115510734Y-97379923D01*
X115510700Y-97286707D01*
X115510465Y-97213431D01*
X115509830Y-97157458D01*
X115508594Y-97116151D01*
X115506556Y-97086872D01*
X115503517Y-97066984D01*
X115499277Y-97053850D01*
X115493635Y-97044832D01*
X115486391Y-97037293D01*
X115484606Y-97035612D01*
X115475945Y-97028172D01*
X115465882Y-97022409D01*
X115451625Y-97018112D01*
X115430383Y-97015064D01*
X115399364Y-97013051D01*
X115355777Y-97011860D01*
X115296831Y-97011275D01*
X115219734Y-97011083D01*
X115165001Y-97011067D01*
X115075794Y-97011146D01*
G36*
X116484371Y-97011066D02*
G01*
X116444889Y-97011467D01*
X116329200Y-97014259D01*
X116232311Y-97022550D01*
X116150919Y-97037232D01*
X116081723Y-97059193D01*
X116021420Y-97089322D01*
X115966708Y-97128510D01*
X115947167Y-97145532D01*
X115914750Y-97185363D01*
X115885520Y-97239413D01*
X115862991Y-97299323D01*
X115850679Y-97356739D01*
X115849400Y-97377956D01*
X115857417Y-97436769D01*
X115878899Y-97501013D01*
X115909999Y-97561821D01*
X115946866Y-97610330D01*
X115952854Y-97616182D01*
X116003579Y-97657321D01*
X116059125Y-97689435D01*
X116122696Y-97713365D01*
X116197494Y-97729953D01*
X116286722Y-97740041D01*
X116393582Y-97744469D01*
X116442528Y-97744845D01*
X116504762Y-97744545D01*
X116548528Y-97743292D01*
X116577931Y-97740554D01*
X116597079Y-97735801D01*
X116610077Y-97728501D01*
X116617045Y-97722267D01*
X116623626Y-97714694D01*
X116628788Y-97704924D01*
X116632703Y-97690340D01*
X116635543Y-97668326D01*
X116637480Y-97636264D01*
X116638684Y-97591536D01*
X116639328Y-97531526D01*
X116639583Y-97453617D01*
X116639622Y-97377956D01*
X116639870Y-97277041D01*
X116639817Y-97196427D01*
X116638857Y-97157822D01*
X116492867Y-97157822D01*
X116492867Y-97598089D01*
X116399734Y-97598004D01*
X116343693Y-97596396D01*
X116284999Y-97592256D01*
X116236028Y-97586464D01*
X116234538Y-97586226D01*
X116155392Y-97567090D01*
X116094002Y-97537287D01*
X116047305Y-97494878D01*
X116017635Y-97448961D01*
X115999353Y-97398026D01*
X116000771Y-97350200D01*
X116021988Y-97298933D01*
X116063489Y-97245899D01*
X116120998Y-97206600D01*
X116195750Y-97180331D01*
X116245708Y-97171035D01*
X116302416Y-97164507D01*
X116362519Y-97159782D01*
X116413639Y-97157817D01*
X116416667Y-97157808D01*
X116492867Y-97157822D01*
X116638857Y-97157822D01*
X116638260Y-97133851D01*
X116633998Y-97087055D01*
X116625830Y-97053778D01*
X116612556Y-97031759D01*
X116592974Y-97018739D01*
X116565883Y-97012457D01*
X116530082Y-97010653D01*
X116484371Y-97011066D01*
G37*
X116484371Y-97011066D02*
X116444889Y-97011467D01*
X116329200Y-97014259D01*
X116232311Y-97022550D01*
X116150919Y-97037232D01*
X116081723Y-97059193D01*
X116021420Y-97089322D01*
X115966708Y-97128510D01*
X115947167Y-97145532D01*
X115914750Y-97185363D01*
X115885520Y-97239413D01*
X115862991Y-97299323D01*
X115850679Y-97356739D01*
X115849400Y-97377956D01*
X115857417Y-97436769D01*
X115878899Y-97501013D01*
X115909999Y-97561821D01*
X115946866Y-97610330D01*
X115952854Y-97616182D01*
X116003579Y-97657321D01*
X116059125Y-97689435D01*
X116122696Y-97713365D01*
X116197494Y-97729953D01*
X116286722Y-97740041D01*
X116393582Y-97744469D01*
X116442528Y-97744845D01*
X116504762Y-97744545D01*
X116548528Y-97743292D01*
X116577931Y-97740554D01*
X116597079Y-97735801D01*
X116610077Y-97728501D01*
X116617045Y-97722267D01*
X116623626Y-97714694D01*
X116628788Y-97704924D01*
X116632703Y-97690340D01*
X116635543Y-97668326D01*
X116637480Y-97636264D01*
X116638684Y-97591536D01*
X116639328Y-97531526D01*
X116639583Y-97453617D01*
X116639622Y-97377956D01*
X116639870Y-97277041D01*
X116639817Y-97196427D01*
X116638857Y-97157822D01*
X116492867Y-97157822D01*
X116492867Y-97598089D01*
X116399734Y-97598004D01*
X116343693Y-97596396D01*
X116284999Y-97592256D01*
X116236028Y-97586464D01*
X116234538Y-97586226D01*
X116155392Y-97567090D01*
X116094002Y-97537287D01*
X116047305Y-97494878D01*
X116017635Y-97448961D01*
X115999353Y-97398026D01*
X116000771Y-97350200D01*
X116021988Y-97298933D01*
X116063489Y-97245899D01*
X116120998Y-97206600D01*
X116195750Y-97180331D01*
X116245708Y-97171035D01*
X116302416Y-97164507D01*
X116362519Y-97159782D01*
X116413639Y-97157817D01*
X116416667Y-97157808D01*
X116492867Y-97157822D01*
X116638857Y-97157822D01*
X116638260Y-97133851D01*
X116633998Y-97087055D01*
X116625830Y-97053778D01*
X116612556Y-97031759D01*
X116592974Y-97018739D01*
X116565883Y-97012457D01*
X116530082Y-97010653D01*
X116484371Y-97011066D01*
G36*
X112636043Y-91768571D02*
G01*
X112539768Y-91792809D01*
X112453184Y-91835641D01*
X112378373Y-91895419D01*
X112317418Y-91970494D01*
X112272399Y-92059220D01*
X112246136Y-92155530D01*
X112240286Y-92252795D01*
X112255140Y-92346654D01*
X112288840Y-92434511D01*
X112339528Y-92513770D01*
X112405345Y-92581836D01*
X112484434Y-92636112D01*
X112574934Y-92674002D01*
X112626200Y-92686426D01*
X112670698Y-92693947D01*
X112704999Y-92696919D01*
X112737960Y-92695094D01*
X112778434Y-92688225D01*
X112811531Y-92681250D01*
X112904947Y-92649741D01*
X112988619Y-92598617D01*
X113060665Y-92529429D01*
X113119200Y-92443728D01*
X113133148Y-92416489D01*
X113149586Y-92380122D01*
X113159894Y-92349582D01*
X113165460Y-92317450D01*
X113167669Y-92276307D01*
X113167948Y-92230222D01*
X113163861Y-92145865D01*
X113150446Y-92076586D01*
X113125256Y-92015961D01*
X113085846Y-91957567D01*
X113047298Y-91913302D01*
X112975406Y-91847484D01*
X112900313Y-91802053D01*
X112817562Y-91774850D01*
X112739928Y-91764576D01*
X112636043Y-91768571D01*
G37*
X112636043Y-91768571D02*
X112539768Y-91792809D01*
X112453184Y-91835641D01*
X112378373Y-91895419D01*
X112317418Y-91970494D01*
X112272399Y-92059220D01*
X112246136Y-92155530D01*
X112240286Y-92252795D01*
X112255140Y-92346654D01*
X112288840Y-92434511D01*
X112339528Y-92513770D01*
X112405345Y-92581836D01*
X112484434Y-92636112D01*
X112574934Y-92674002D01*
X112626200Y-92686426D01*
X112670698Y-92693947D01*
X112704999Y-92696919D01*
X112737960Y-92695094D01*
X112778434Y-92688225D01*
X112811531Y-92681250D01*
X112904947Y-92649741D01*
X112988619Y-92598617D01*
X113060665Y-92529429D01*
X113119200Y-92443728D01*
X113133148Y-92416489D01*
X113149586Y-92380122D01*
X113159894Y-92349582D01*
X113165460Y-92317450D01*
X113167669Y-92276307D01*
X113167948Y-92230222D01*
X113163861Y-92145865D01*
X113150446Y-92076586D01*
X113125256Y-92015961D01*
X113085846Y-91957567D01*
X113047298Y-91913302D01*
X112975406Y-91847484D01*
X112900313Y-91802053D01*
X112817562Y-91774850D01*
X112739928Y-91764576D01*
X112636043Y-91768571D01*
G36*
X104176493Y-94214245D02*
G01*
X104176474Y-94448662D01*
X104176448Y-94661603D01*
X104176375Y-94854168D01*
X104176218Y-95027459D01*
X104175936Y-95182576D01*
X104175491Y-95320620D01*
X104174844Y-95442692D01*
X104173955Y-95549894D01*
X104172787Y-95643326D01*
X104171299Y-95724090D01*
X104169454Y-95793286D01*
X104167211Y-95852015D01*
X104164531Y-95901379D01*
X104161377Y-95942478D01*
X104157708Y-95976413D01*
X104153487Y-96004286D01*
X104148673Y-96027198D01*
X104143227Y-96046249D01*
X104137112Y-96062540D01*
X104130288Y-96077173D01*
X104122715Y-96091249D01*
X104114355Y-96105868D01*
X104109161Y-96114974D01*
X104074896Y-96175689D01*
X104933045Y-96175689D01*
X104933045Y-96079733D01*
X104933776Y-96036370D01*
X104935728Y-96003205D01*
X104938537Y-95985424D01*
X104939779Y-95983778D01*
X104951201Y-95990662D01*
X104973916Y-96008505D01*
X104996615Y-96027879D01*
X105051200Y-96068614D01*
X105120679Y-96109617D01*
X105197730Y-96147123D01*
X105275035Y-96177364D01*
X105305887Y-96187012D01*
X105374384Y-96201578D01*
X105457236Y-96211539D01*
X105546629Y-96216583D01*
X105634752Y-96216396D01*
X105713793Y-96210666D01*
X105751489Y-96204858D01*
X105889586Y-96166797D01*
X106016887Y-96109073D01*
X106132708Y-96032211D01*
X106236363Y-95936739D01*
X106327167Y-95823179D01*
X106393969Y-95712381D01*
X106448836Y-95595625D01*
X106490837Y-95476276D01*
X106520833Y-95350283D01*
X106539689Y-95213594D01*
X106548268Y-95062158D01*
X106548994Y-94984711D01*
X106546900Y-94927934D01*
X105717783Y-94927934D01*
X105717576Y-95021002D01*
X105714663Y-95108692D01*
X105709000Y-95185772D01*
X105700545Y-95247009D01*
X105697962Y-95259350D01*
X105666160Y-95366633D01*
X105624502Y-95453658D01*
X105572637Y-95520642D01*
X105510219Y-95567805D01*
X105436900Y-95595365D01*
X105352331Y-95603541D01*
X105256165Y-95592551D01*
X105192689Y-95576829D01*
X105143546Y-95558639D01*
X105089417Y-95532791D01*
X105048756Y-95509089D01*
X104978200Y-95462721D01*
X104978200Y-94312530D01*
X105045608Y-94268962D01*
X105124133Y-94228040D01*
X105208319Y-94201389D01*
X105293443Y-94189465D01*
X105374784Y-94192722D01*
X105447620Y-94211615D01*
X105479574Y-94227184D01*
X105537499Y-94270181D01*
X105586456Y-94326953D01*
X105627610Y-94399575D01*
X105662126Y-94490121D01*
X105691167Y-94600666D01*
X105692448Y-94606533D01*
X105702619Y-94668788D01*
X105710261Y-94746594D01*
X105715330Y-94834720D01*
X105717783Y-94927934D01*
X106546900Y-94927934D01*
X106541143Y-94771895D01*
X106519198Y-94576059D01*
X106483214Y-94397332D01*
X106433241Y-94235845D01*
X106369332Y-94091726D01*
X106291538Y-93965106D01*
X106199911Y-93856115D01*
X106094503Y-93764883D01*
X106049338Y-93733932D01*
X105948389Y-93677785D01*
X105845099Y-93638174D01*
X105735011Y-93614014D01*
X105613670Y-93604219D01*
X105521164Y-93605265D01*
X105391510Y-93616231D01*
X105278916Y-93638046D01*
X105180125Y-93671714D01*
X105091879Y-93718236D01*
X105043014Y-93752448D01*
X105013647Y-93774362D01*
X104991957Y-93789333D01*
X104983747Y-93793733D01*
X104982132Y-93782904D01*
X104980841Y-93752251D01*
X104979862Y-93704526D01*
X104979183Y-93642479D01*
X104978790Y-93568862D01*
X104978670Y-93486427D01*
X104978812Y-93397925D01*
X104979203Y-93306107D01*
X104979829Y-93213724D01*
X104980680Y-93123528D01*
X104981740Y-93038271D01*
X104982999Y-92960703D01*
X104984444Y-92893576D01*
X104986062Y-92839641D01*
X104987839Y-92801650D01*
X104988331Y-92794667D01*
X104995908Y-92724251D01*
X105007469Y-92669102D01*
X105025208Y-92621981D01*
X105051318Y-92575647D01*
X105057585Y-92566067D01*
X105082017Y-92529378D01*
X104176689Y-92529378D01*
X104176493Y-94214245D01*
G37*
X104176493Y-94214245D02*
X104176474Y-94448662D01*
X104176448Y-94661603D01*
X104176375Y-94854168D01*
X104176218Y-95027459D01*
X104175936Y-95182576D01*
X104175491Y-95320620D01*
X104174844Y-95442692D01*
X104173955Y-95549894D01*
X104172787Y-95643326D01*
X104171299Y-95724090D01*
X104169454Y-95793286D01*
X104167211Y-95852015D01*
X104164531Y-95901379D01*
X104161377Y-95942478D01*
X104157708Y-95976413D01*
X104153487Y-96004286D01*
X104148673Y-96027198D01*
X104143227Y-96046249D01*
X104137112Y-96062540D01*
X104130288Y-96077173D01*
X104122715Y-96091249D01*
X104114355Y-96105868D01*
X104109161Y-96114974D01*
X104074896Y-96175689D01*
X104933045Y-96175689D01*
X104933045Y-96079733D01*
X104933776Y-96036370D01*
X104935728Y-96003205D01*
X104938537Y-95985424D01*
X104939779Y-95983778D01*
X104951201Y-95990662D01*
X104973916Y-96008505D01*
X104996615Y-96027879D01*
X105051200Y-96068614D01*
X105120679Y-96109617D01*
X105197730Y-96147123D01*
X105275035Y-96177364D01*
X105305887Y-96187012D01*
X105374384Y-96201578D01*
X105457236Y-96211539D01*
X105546629Y-96216583D01*
X105634752Y-96216396D01*
X105713793Y-96210666D01*
X105751489Y-96204858D01*
X105889586Y-96166797D01*
X106016887Y-96109073D01*
X106132708Y-96032211D01*
X106236363Y-95936739D01*
X106327167Y-95823179D01*
X106393969Y-95712381D01*
X106448836Y-95595625D01*
X106490837Y-95476276D01*
X106520833Y-95350283D01*
X106539689Y-95213594D01*
X106548268Y-95062158D01*
X106548994Y-94984711D01*
X106546900Y-94927934D01*
X105717783Y-94927934D01*
X105717576Y-95021002D01*
X105714663Y-95108692D01*
X105709000Y-95185772D01*
X105700545Y-95247009D01*
X105697962Y-95259350D01*
X105666160Y-95366633D01*
X105624502Y-95453658D01*
X105572637Y-95520642D01*
X105510219Y-95567805D01*
X105436900Y-95595365D01*
X105352331Y-95603541D01*
X105256165Y-95592551D01*
X105192689Y-95576829D01*
X105143546Y-95558639D01*
X105089417Y-95532791D01*
X105048756Y-95509089D01*
X104978200Y-95462721D01*
X104978200Y-94312530D01*
X105045608Y-94268962D01*
X105124133Y-94228040D01*
X105208319Y-94201389D01*
X105293443Y-94189465D01*
X105374784Y-94192722D01*
X105447620Y-94211615D01*
X105479574Y-94227184D01*
X105537499Y-94270181D01*
X105586456Y-94326953D01*
X105627610Y-94399575D01*
X105662126Y-94490121D01*
X105691167Y-94600666D01*
X105692448Y-94606533D01*
X105702619Y-94668788D01*
X105710261Y-94746594D01*
X105715330Y-94834720D01*
X105717783Y-94927934D01*
X106546900Y-94927934D01*
X106541143Y-94771895D01*
X106519198Y-94576059D01*
X106483214Y-94397332D01*
X106433241Y-94235845D01*
X106369332Y-94091726D01*
X106291538Y-93965106D01*
X106199911Y-93856115D01*
X106094503Y-93764883D01*
X106049338Y-93733932D01*
X105948389Y-93677785D01*
X105845099Y-93638174D01*
X105735011Y-93614014D01*
X105613670Y-93604219D01*
X105521164Y-93605265D01*
X105391510Y-93616231D01*
X105278916Y-93638046D01*
X105180125Y-93671714D01*
X105091879Y-93718236D01*
X105043014Y-93752448D01*
X105013647Y-93774362D01*
X104991957Y-93789333D01*
X104983747Y-93793733D01*
X104982132Y-93782904D01*
X104980841Y-93752251D01*
X104979862Y-93704526D01*
X104979183Y-93642479D01*
X104978790Y-93568862D01*
X104978670Y-93486427D01*
X104978812Y-93397925D01*
X104979203Y-93306107D01*
X104979829Y-93213724D01*
X104980680Y-93123528D01*
X104981740Y-93038271D01*
X104982999Y-92960703D01*
X104984444Y-92893576D01*
X104986062Y-92839641D01*
X104987839Y-92801650D01*
X104988331Y-92794667D01*
X104995908Y-92724251D01*
X105007469Y-92669102D01*
X105025208Y-92621981D01*
X105051318Y-92575647D01*
X105057585Y-92566067D01*
X105082017Y-92529378D01*
X104176689Y-92529378D01*
X104176493Y-94214245D01*
G36*
X107689426Y-93608552D02*
G01*
X107537508Y-93628567D01*
X107402244Y-93662202D01*
X107282761Y-93709725D01*
X107178185Y-93771405D01*
X107100576Y-93834965D01*
X107031735Y-93909099D01*
X106977994Y-93988871D01*
X106935090Y-94081091D01*
X106919616Y-94124161D01*
X106906756Y-94163142D01*
X106895554Y-94199289D01*
X106885880Y-94234434D01*
X106877604Y-94270410D01*
X106870597Y-94309050D01*
X106864728Y-94352185D01*
X106859869Y-94401649D01*
X106855890Y-94459273D01*
X106852660Y-94526891D01*
X106850051Y-94606334D01*
X106847933Y-94699436D01*
X106846176Y-94808027D01*
X106844651Y-94933942D01*
X106843228Y-95079012D01*
X106841975Y-95221778D01*
X106840649Y-95377968D01*
X106839444Y-95513239D01*
X106838234Y-95629246D01*
X106836894Y-95727645D01*
X106835300Y-95810093D01*
X106833325Y-95878246D01*
X106830844Y-95933760D01*
X106827731Y-95978292D01*
X106823862Y-96013498D01*
X106819111Y-96041034D01*
X106813352Y-96062556D01*
X106806461Y-96079722D01*
X106798311Y-96094186D01*
X106788777Y-96107606D01*
X106777734Y-96121638D01*
X106773434Y-96127071D01*
X106757614Y-96149910D01*
X106750578Y-96165463D01*
X106750556Y-96165922D01*
X106761433Y-96168121D01*
X106792418Y-96170147D01*
X106841043Y-96171942D01*
X106904837Y-96173451D01*
X106981331Y-96174616D01*
X107068056Y-96175380D01*
X107162543Y-96175686D01*
X107173450Y-96175689D01*
X107596343Y-96175689D01*
X107599605Y-96079622D01*
X107602867Y-95983556D01*
X107664956Y-96034543D01*
X107762286Y-96102057D01*
X107872187Y-96156749D01*
X107958651Y-96186978D01*
X108027722Y-96201666D01*
X108111075Y-96211659D01*
X108200841Y-96216646D01*
X108289155Y-96216313D01*
X108368149Y-96210351D01*
X108404378Y-96204638D01*
X108544397Y-96166776D01*
X108670822Y-96111932D01*
X108782740Y-96040924D01*
X108879238Y-95954568D01*
X108959400Y-95853679D01*
X109022313Y-95739076D01*
X109066688Y-95612984D01*
X109079022Y-95556401D01*
X109086632Y-95494202D01*
X109090261Y-95419363D01*
X109090755Y-95385467D01*
X109090690Y-95382282D01*
X108330752Y-95382282D01*
X108321459Y-95457333D01*
X108293272Y-95521160D01*
X108244803Y-95576798D01*
X108239746Y-95581211D01*
X108191452Y-95616037D01*
X108139743Y-95638620D01*
X108079011Y-95650540D01*
X108003648Y-95653383D01*
X107985541Y-95652978D01*
X107931722Y-95650325D01*
X107891692Y-95644909D01*
X107856676Y-95634745D01*
X107817897Y-95617850D01*
X107807255Y-95612672D01*
X107746604Y-95576844D01*
X107699785Y-95534212D01*
X107687048Y-95518973D01*
X107642378Y-95462462D01*
X107642378Y-95266586D01*
X107642914Y-95187939D01*
X107644604Y-95129988D01*
X107647572Y-95090875D01*
X107651943Y-95068741D01*
X107656028Y-95062274D01*
X107671953Y-95059111D01*
X107705736Y-95056488D01*
X107752660Y-95054655D01*
X107808007Y-95053857D01*
X107816894Y-95053842D01*
X107937670Y-95059096D01*
X108040340Y-95075263D01*
X108126894Y-95102961D01*
X108199319Y-95142808D01*
X108254249Y-95189758D01*
X108298796Y-95247645D01*
X108323520Y-95310693D01*
X108330752Y-95382282D01*
X109090690Y-95382282D01*
X109088822Y-95291712D01*
X109080478Y-95212812D01*
X109064232Y-95141590D01*
X109038595Y-95070864D01*
X109014599Y-95018493D01*
X108955980Y-94923196D01*
X108877883Y-94835170D01*
X108782685Y-94756017D01*
X108672762Y-94687340D01*
X108550490Y-94630741D01*
X108418245Y-94587821D01*
X108353578Y-94572882D01*
X108217396Y-94550777D01*
X108068951Y-94536194D01*
X107917495Y-94529813D01*
X107790936Y-94531445D01*
X107629050Y-94538224D01*
X107636470Y-94479245D01*
X107655762Y-94380092D01*
X107686896Y-94299372D01*
X107730731Y-94236466D01*
X107788129Y-94190756D01*
X107859952Y-94161622D01*
X107947059Y-94148447D01*
X108050314Y-94150611D01*
X108088289Y-94154612D01*
X108229480Y-94179780D01*
X108366293Y-94220814D01*
X108460822Y-94258815D01*
X108505982Y-94278190D01*
X108544415Y-94293760D01*
X108570766Y-94303405D01*
X108578454Y-94305452D01*
X108588198Y-94296374D01*
X108604917Y-94267405D01*
X108628768Y-94218217D01*
X108659907Y-94148484D01*
X108698493Y-94057879D01*
X108705090Y-94042089D01*
X108735147Y-93969772D01*
X108762126Y-93904425D01*
X108784864Y-93848906D01*
X108802194Y-93806072D01*
X108812952Y-93778781D01*
X108816059Y-93769942D01*
X108806060Y-93765187D01*
X108779783Y-93759910D01*
X108751511Y-93756231D01*
X108721354Y-93751474D01*
X108673567Y-93742028D01*
X108612388Y-93728820D01*
X108542054Y-93712776D01*
X108466806Y-93694820D01*
X108438245Y-93687797D01*
X108333184Y-93662209D01*
X108245520Y-93642147D01*
X108170932Y-93626969D01*
X108105097Y-93616035D01*
X108043693Y-93608704D01*
X107982398Y-93604335D01*
X107916890Y-93602287D01*
X107858872Y-93601889D01*
X107689426Y-93608552D01*
G37*
X107689426Y-93608552D02*
X107537508Y-93628567D01*
X107402244Y-93662202D01*
X107282761Y-93709725D01*
X107178185Y-93771405D01*
X107100576Y-93834965D01*
X107031735Y-93909099D01*
X106977994Y-93988871D01*
X106935090Y-94081091D01*
X106919616Y-94124161D01*
X106906756Y-94163142D01*
X106895554Y-94199289D01*
X106885880Y-94234434D01*
X106877604Y-94270410D01*
X106870597Y-94309050D01*
X106864728Y-94352185D01*
X106859869Y-94401649D01*
X106855890Y-94459273D01*
X106852660Y-94526891D01*
X106850051Y-94606334D01*
X106847933Y-94699436D01*
X106846176Y-94808027D01*
X106844651Y-94933942D01*
X106843228Y-95079012D01*
X106841975Y-95221778D01*
X106840649Y-95377968D01*
X106839444Y-95513239D01*
X106838234Y-95629246D01*
X106836894Y-95727645D01*
X106835300Y-95810093D01*
X106833325Y-95878246D01*
X106830844Y-95933760D01*
X106827731Y-95978292D01*
X106823862Y-96013498D01*
X106819111Y-96041034D01*
X106813352Y-96062556D01*
X106806461Y-96079722D01*
X106798311Y-96094186D01*
X106788777Y-96107606D01*
X106777734Y-96121638D01*
X106773434Y-96127071D01*
X106757614Y-96149910D01*
X106750578Y-96165463D01*
X106750556Y-96165922D01*
X106761433Y-96168121D01*
X106792418Y-96170147D01*
X106841043Y-96171942D01*
X106904837Y-96173451D01*
X106981331Y-96174616D01*
X107068056Y-96175380D01*
X107162543Y-96175686D01*
X107173450Y-96175689D01*
X107596343Y-96175689D01*
X107599605Y-96079622D01*
X107602867Y-95983556D01*
X107664956Y-96034543D01*
X107762286Y-96102057D01*
X107872187Y-96156749D01*
X107958651Y-96186978D01*
X108027722Y-96201666D01*
X108111075Y-96211659D01*
X108200841Y-96216646D01*
X108289155Y-96216313D01*
X108368149Y-96210351D01*
X108404378Y-96204638D01*
X108544397Y-96166776D01*
X108670822Y-96111932D01*
X108782740Y-96040924D01*
X108879238Y-95954568D01*
X108959400Y-95853679D01*
X109022313Y-95739076D01*
X109066688Y-95612984D01*
X109079022Y-95556401D01*
X109086632Y-95494202D01*
X109090261Y-95419363D01*
X109090755Y-95385467D01*
X109090690Y-95382282D01*
X108330752Y-95382282D01*
X108321459Y-95457333D01*
X108293272Y-95521160D01*
X108244803Y-95576798D01*
X108239746Y-95581211D01*
X108191452Y-95616037D01*
X108139743Y-95638620D01*
X108079011Y-95650540D01*
X108003648Y-95653383D01*
X107985541Y-95652978D01*
X107931722Y-95650325D01*
X107891692Y-95644909D01*
X107856676Y-95634745D01*
X107817897Y-95617850D01*
X107807255Y-95612672D01*
X107746604Y-95576844D01*
X107699785Y-95534212D01*
X107687048Y-95518973D01*
X107642378Y-95462462D01*
X107642378Y-95266586D01*
X107642914Y-95187939D01*
X107644604Y-95129988D01*
X107647572Y-95090875D01*
X107651943Y-95068741D01*
X107656028Y-95062274D01*
X107671953Y-95059111D01*
X107705736Y-95056488D01*
X107752660Y-95054655D01*
X107808007Y-95053857D01*
X107816894Y-95053842D01*
X107937670Y-95059096D01*
X108040340Y-95075263D01*
X108126894Y-95102961D01*
X108199319Y-95142808D01*
X108254249Y-95189758D01*
X108298796Y-95247645D01*
X108323520Y-95310693D01*
X108330752Y-95382282D01*
X109090690Y-95382282D01*
X109088822Y-95291712D01*
X109080478Y-95212812D01*
X109064232Y-95141590D01*
X109038595Y-95070864D01*
X109014599Y-95018493D01*
X108955980Y-94923196D01*
X108877883Y-94835170D01*
X108782685Y-94756017D01*
X108672762Y-94687340D01*
X108550490Y-94630741D01*
X108418245Y-94587821D01*
X108353578Y-94572882D01*
X108217396Y-94550777D01*
X108068951Y-94536194D01*
X107917495Y-94529813D01*
X107790936Y-94531445D01*
X107629050Y-94538224D01*
X107636470Y-94479245D01*
X107655762Y-94380092D01*
X107686896Y-94299372D01*
X107730731Y-94236466D01*
X107788129Y-94190756D01*
X107859952Y-94161622D01*
X107947059Y-94148447D01*
X108050314Y-94150611D01*
X108088289Y-94154612D01*
X108229480Y-94179780D01*
X108366293Y-94220814D01*
X108460822Y-94258815D01*
X108505982Y-94278190D01*
X108544415Y-94293760D01*
X108570766Y-94303405D01*
X108578454Y-94305452D01*
X108588198Y-94296374D01*
X108604917Y-94267405D01*
X108628768Y-94218217D01*
X108659907Y-94148484D01*
X108698493Y-94057879D01*
X108705090Y-94042089D01*
X108735147Y-93969772D01*
X108762126Y-93904425D01*
X108784864Y-93848906D01*
X108802194Y-93806072D01*
X108812952Y-93778781D01*
X108816059Y-93769942D01*
X108806060Y-93765187D01*
X108779783Y-93759910D01*
X108751511Y-93756231D01*
X108721354Y-93751474D01*
X108673567Y-93742028D01*
X108612388Y-93728820D01*
X108542054Y-93712776D01*
X108466806Y-93694820D01*
X108438245Y-93687797D01*
X108333184Y-93662209D01*
X108245520Y-93642147D01*
X108170932Y-93626969D01*
X108105097Y-93616035D01*
X108043693Y-93608704D01*
X107982398Y-93604335D01*
X107916890Y-93602287D01*
X107858872Y-93601889D01*
X107689426Y-93608552D01*
G36*
X110034571Y-92691071D02*
G01*
X109874430Y-92712245D01*
X109710490Y-92752385D01*
X109540687Y-92811889D01*
X109362957Y-92891154D01*
X109351690Y-92896699D01*
X109293995Y-92924725D01*
X109242448Y-92948802D01*
X109200809Y-92967249D01*
X109172838Y-92978386D01*
X109163267Y-92980933D01*
X109144050Y-92985941D01*
X109139439Y-92990147D01*
X109144542Y-93000580D01*
X109160582Y-93026868D01*
X109185712Y-93066257D01*
X109218086Y-93115991D01*
X109255857Y-93173315D01*
X109297178Y-93235476D01*
X109340202Y-93299718D01*
X109383083Y-93363285D01*
X109423974Y-93423425D01*
X109461029Y-93477380D01*
X109492400Y-93522397D01*
X109516241Y-93555721D01*
X109530706Y-93574597D01*
X109532691Y-93576787D01*
X109542809Y-93572138D01*
X109565150Y-93554962D01*
X109595720Y-93528440D01*
X109611464Y-93513964D01*
X109707953Y-93438682D01*
X109814664Y-93383241D01*
X109930168Y-93348141D01*
X110053038Y-93333880D01*
X110122439Y-93335051D01*
X110243577Y-93352212D01*
X110352795Y-93388094D01*
X110450418Y-93442959D01*
X110536772Y-93517070D01*
X110612185Y-93610688D01*
X110676982Y-93724076D01*
X110714399Y-93810667D01*
X110758252Y-93946366D01*
X110790572Y-94093850D01*
X110811443Y-94249314D01*
X110820949Y-94408956D01*
X110819173Y-94568973D01*
X110806197Y-94725561D01*
X110782106Y-94874918D01*
X110746982Y-95013240D01*
X110700908Y-95136724D01*
X110684627Y-95170978D01*
X110616380Y-95285064D01*
X110535921Y-95381557D01*
X110444430Y-95459670D01*
X110343089Y-95518617D01*
X110233080Y-95557612D01*
X110115585Y-95575868D01*
X110074117Y-95577211D01*
X109952559Y-95566290D01*
X109832122Y-95533474D01*
X109714334Y-95479439D01*
X109600723Y-95404865D01*
X109509315Y-95326539D01*
X109462785Y-95282008D01*
X109281517Y-95579271D01*
X109236420Y-95653433D01*
X109195181Y-95721646D01*
X109159265Y-95781459D01*
X109130134Y-95830420D01*
X109109250Y-95866079D01*
X109098076Y-95885984D01*
X109096625Y-95889079D01*
X109104854Y-95898718D01*
X109130433Y-95915999D01*
X109170127Y-95939283D01*
X109220703Y-95966934D01*
X109278926Y-95997315D01*
X109341563Y-96028790D01*
X109405379Y-96059722D01*
X109467140Y-96088473D01*
X109523612Y-96113408D01*
X109571562Y-96132889D01*
X109595014Y-96141318D01*
X109728779Y-96179133D01*
X109866673Y-96204136D01*
X110014378Y-96217140D01*
X110141167Y-96219468D01*
X110209122Y-96218373D01*
X110274723Y-96216275D01*
X110332153Y-96213434D01*
X110375597Y-96210106D01*
X110389702Y-96208422D01*
X110528716Y-96179587D01*
X110670243Y-96134468D01*
X110807725Y-96075750D01*
X110934606Y-96006120D01*
X111012111Y-95953441D01*
X111139519Y-95845239D01*
X111257822Y-95718671D01*
X111364828Y-95576866D01*
X111458348Y-95422951D01*
X111536190Y-95260053D01*
X111580044Y-95142756D01*
X111630292Y-94959128D01*
X111663791Y-94764581D01*
X111680551Y-94563325D01*
X111680584Y-94359568D01*
X111663899Y-94157521D01*
X111630507Y-93961392D01*
X111580420Y-93775391D01*
X111576603Y-93763803D01*
X111513719Y-93601750D01*
X111436972Y-93453832D01*
X111343758Y-93315865D01*
X111231473Y-93183661D01*
X111187608Y-93138399D01*
X111051466Y-93014457D01*
X110911509Y-92911915D01*
X110765589Y-92829656D01*
X110611558Y-92766564D01*
X110447268Y-92721523D01*
X110351711Y-92704033D01*
X110192977Y-92688466D01*
X110034571Y-92691071D01*
G37*
X110034571Y-92691071D02*
X109874430Y-92712245D01*
X109710490Y-92752385D01*
X109540687Y-92811889D01*
X109362957Y-92891154D01*
X109351690Y-92896699D01*
X109293995Y-92924725D01*
X109242448Y-92948802D01*
X109200809Y-92967249D01*
X109172838Y-92978386D01*
X109163267Y-92980933D01*
X109144050Y-92985941D01*
X109139439Y-92990147D01*
X109144542Y-93000580D01*
X109160582Y-93026868D01*
X109185712Y-93066257D01*
X109218086Y-93115991D01*
X109255857Y-93173315D01*
X109297178Y-93235476D01*
X109340202Y-93299718D01*
X109383083Y-93363285D01*
X109423974Y-93423425D01*
X109461029Y-93477380D01*
X109492400Y-93522397D01*
X109516241Y-93555721D01*
X109530706Y-93574597D01*
X109532691Y-93576787D01*
X109542809Y-93572138D01*
X109565150Y-93554962D01*
X109595720Y-93528440D01*
X109611464Y-93513964D01*
X109707953Y-93438682D01*
X109814664Y-93383241D01*
X109930168Y-93348141D01*
X110053038Y-93333880D01*
X110122439Y-93335051D01*
X110243577Y-93352212D01*
X110352795Y-93388094D01*
X110450418Y-93442959D01*
X110536772Y-93517070D01*
X110612185Y-93610688D01*
X110676982Y-93724076D01*
X110714399Y-93810667D01*
X110758252Y-93946366D01*
X110790572Y-94093850D01*
X110811443Y-94249314D01*
X110820949Y-94408956D01*
X110819173Y-94568973D01*
X110806197Y-94725561D01*
X110782106Y-94874918D01*
X110746982Y-95013240D01*
X110700908Y-95136724D01*
X110684627Y-95170978D01*
X110616380Y-95285064D01*
X110535921Y-95381557D01*
X110444430Y-95459670D01*
X110343089Y-95518617D01*
X110233080Y-95557612D01*
X110115585Y-95575868D01*
X110074117Y-95577211D01*
X109952559Y-95566290D01*
X109832122Y-95533474D01*
X109714334Y-95479439D01*
X109600723Y-95404865D01*
X109509315Y-95326539D01*
X109462785Y-95282008D01*
X109281517Y-95579271D01*
X109236420Y-95653433D01*
X109195181Y-95721646D01*
X109159265Y-95781459D01*
X109130134Y-95830420D01*
X109109250Y-95866079D01*
X109098076Y-95885984D01*
X109096625Y-95889079D01*
X109104854Y-95898718D01*
X109130433Y-95915999D01*
X109170127Y-95939283D01*
X109220703Y-95966934D01*
X109278926Y-95997315D01*
X109341563Y-96028790D01*
X109405379Y-96059722D01*
X109467140Y-96088473D01*
X109523612Y-96113408D01*
X109571562Y-96132889D01*
X109595014Y-96141318D01*
X109728779Y-96179133D01*
X109866673Y-96204136D01*
X110014378Y-96217140D01*
X110141167Y-96219468D01*
X110209122Y-96218373D01*
X110274723Y-96216275D01*
X110332153Y-96213434D01*
X110375597Y-96210106D01*
X110389702Y-96208422D01*
X110528716Y-96179587D01*
X110670243Y-96134468D01*
X110807725Y-96075750D01*
X110934606Y-96006120D01*
X111012111Y-95953441D01*
X111139519Y-95845239D01*
X111257822Y-95718671D01*
X111364828Y-95576866D01*
X111458348Y-95422951D01*
X111536190Y-95260053D01*
X111580044Y-95142756D01*
X111630292Y-94959128D01*
X111663791Y-94764581D01*
X111680551Y-94563325D01*
X111680584Y-94359568D01*
X111663899Y-94157521D01*
X111630507Y-93961392D01*
X111580420Y-93775391D01*
X111576603Y-93763803D01*
X111513719Y-93601750D01*
X111436972Y-93453832D01*
X111343758Y-93315865D01*
X111231473Y-93183661D01*
X111187608Y-93138399D01*
X111051466Y-93014457D01*
X110911509Y-92911915D01*
X110765589Y-92829656D01*
X110611558Y-92766564D01*
X110447268Y-92721523D01*
X110351711Y-92704033D01*
X110192977Y-92688466D01*
X110034571Y-92691071D01*
G36*
X113309400Y-92231054D02*
G01*
X113298535Y-92344993D01*
X113266918Y-92452616D01*
X113216015Y-92551615D01*
X113147293Y-92639684D01*
X113062219Y-92714516D01*
X112965232Y-92772384D01*
X112858964Y-92812005D01*
X112751950Y-92830573D01*
X112646300Y-92829434D01*
X112544125Y-92809930D01*
X112447534Y-92773406D01*
X112358638Y-92721205D01*
X112279546Y-92654673D01*
X112212369Y-92575152D01*
X112159217Y-92483987D01*
X112122199Y-92382523D01*
X112103427Y-92272102D01*
X112101489Y-92222206D01*
X112101489Y-92134267D01*
X112049560Y-92134267D01*
X112013253Y-92137111D01*
X111986355Y-92148911D01*
X111959249Y-92172649D01*
X111920867Y-92211031D01*
X111920867Y-94402602D01*
X111920876Y-94664739D01*
X111920908Y-94905241D01*
X111920972Y-95125048D01*
X111921076Y-95325101D01*
X111921227Y-95506344D01*
X111921434Y-95669716D01*
X111921706Y-95816160D01*
X111922050Y-95946617D01*
X111922474Y-96062029D01*
X111922987Y-96163338D01*
X111923597Y-96251484D01*
X111924312Y-96327410D01*
X111925140Y-96392057D01*
X111926089Y-96446367D01*
X111927167Y-96491280D01*
X111928383Y-96527740D01*
X111929745Y-96556687D01*
X111931261Y-96579063D01*
X111932938Y-96595809D01*
X111934786Y-96607868D01*
X111936813Y-96616180D01*
X111939025Y-96621687D01*
X111940108Y-96623537D01*
X111944271Y-96630549D01*
X111947805Y-96636996D01*
X111951635Y-96642900D01*
X111956682Y-96648286D01*
X111963871Y-96653178D01*
X111974123Y-96657598D01*
X111988364Y-96661572D01*
X112007514Y-96665121D01*
X112032499Y-96668270D01*
X112064240Y-96671042D01*
X112103662Y-96673461D01*
X112151686Y-96675551D01*
X112209237Y-96677335D01*
X112277237Y-96678837D01*
X112356610Y-96680080D01*
X112448279Y-96681089D01*
X112553166Y-96681885D01*
X112672196Y-96682494D01*
X112806290Y-96682939D01*
X112956373Y-96683243D01*
X113123367Y-96683430D01*
X113308196Y-96683524D01*
X113511783Y-96683548D01*
X113735050Y-96683525D01*
X113978922Y-96683480D01*
X114244321Y-96683437D01*
X114282704Y-96683432D01*
X114549682Y-96683389D01*
X114795002Y-96683318D01*
X115019583Y-96683213D01*
X115224345Y-96683066D01*
X115410206Y-96682869D01*
X115578088Y-96682616D01*
X115728908Y-96682300D01*
X115863587Y-96681913D01*
X115983044Y-96681447D01*
X116088199Y-96680897D01*
X116179971Y-96680253D01*
X116259279Y-96679511D01*
X116327043Y-96678661D01*
X116384182Y-96677697D01*
X116431617Y-96676611D01*
X116470266Y-96675397D01*
X116501049Y-96674047D01*
X116524885Y-96672555D01*
X116542694Y-96670911D01*
X116555395Y-96669111D01*
X116563908Y-96667145D01*
X116568266Y-96665477D01*
X116576728Y-96661906D01*
X116584497Y-96659270D01*
X116591602Y-96656634D01*
X116598073Y-96653062D01*
X116603939Y-96647621D01*
X116609229Y-96639375D01*
X116613974Y-96627390D01*
X116618202Y-96610731D01*
X116621943Y-96588463D01*
X116625227Y-96559652D01*
X116628083Y-96523363D01*
X116630540Y-96478661D01*
X116632629Y-96424611D01*
X116634378Y-96360279D01*
X116635817Y-96284730D01*
X116636976Y-96197030D01*
X116637883Y-96096243D01*
X116638569Y-95981434D01*
X116639063Y-95851670D01*
X116639395Y-95706015D01*
X116639593Y-95543535D01*
X116639687Y-95363295D01*
X116639708Y-95164360D01*
X116639685Y-94945796D01*
X116639646Y-94706668D01*
X116639622Y-94446040D01*
X116639622Y-94403889D01*
X116639636Y-94140992D01*
X116639661Y-93899732D01*
X116639671Y-93679165D01*
X116639642Y-93478352D01*
X116639548Y-93296349D01*
X116639362Y-93132216D01*
X116639059Y-92985011D01*
X116638614Y-92853792D01*
X116638034Y-92743867D01*
X116335197Y-92743867D01*
X116295407Y-92801711D01*
X116284236Y-92817479D01*
X116274166Y-92831441D01*
X116265138Y-92844784D01*
X116257097Y-92858693D01*
X116249986Y-92874356D01*
X116243747Y-92892958D01*
X116238325Y-92915686D01*
X116233662Y-92943727D01*
X116229701Y-92978267D01*
X116226385Y-93020492D01*
X116223659Y-93071589D01*
X116221464Y-93132744D01*
X116219745Y-93205144D01*
X116218444Y-93289975D01*
X116217505Y-93388422D01*
X116216870Y-93501674D01*
X116216484Y-93630916D01*
X116216288Y-93777334D01*
X116216227Y-93942116D01*
X116216243Y-94126447D01*
X116216280Y-94331513D01*
X116216289Y-94454133D01*
X116216265Y-94671082D01*
X116216231Y-94866642D01*
X116216243Y-95041999D01*
X116216358Y-95198341D01*
X116216630Y-95336857D01*
X116217118Y-95458734D01*
X116217876Y-95565160D01*
X116218962Y-95657322D01*
X116220431Y-95736409D01*
X116222340Y-95803608D01*
X116224744Y-95860107D01*
X116227701Y-95907093D01*
X116231266Y-95945755D01*
X116235495Y-95977280D01*
X116240446Y-96002855D01*
X116246173Y-96023670D01*
X116252733Y-96040911D01*
X116260183Y-96055765D01*
X116268579Y-96069422D01*
X116277976Y-96083069D01*
X116288432Y-96097893D01*
X116294523Y-96106783D01*
X116333296Y-96164400D01*
X115801732Y-96164400D01*
X115678483Y-96164365D01*
X115575987Y-96164215D01*
X115492420Y-96163878D01*
X115425956Y-96163286D01*
X115374771Y-96162367D01*
X115337041Y-96161051D01*
X115310940Y-96159269D01*
X115294644Y-96156951D01*
X115286328Y-96154026D01*
X115284168Y-96150424D01*
X115286339Y-96146075D01*
X115287535Y-96144645D01*
X115312685Y-96107573D01*
X115338583Y-96054772D01*
X115362192Y-95992770D01*
X115370461Y-95966357D01*
X115375078Y-95948416D01*
X115378979Y-95927355D01*
X115382248Y-95901089D01*
X115384966Y-95867532D01*
X115387215Y-95824599D01*
X115389077Y-95770204D01*
X115390636Y-95702262D01*
X115391972Y-95618688D01*
X115393169Y-95517395D01*
X115394308Y-95396300D01*
X115394685Y-95351600D01*
X115395702Y-95226449D01*
X115396460Y-95122082D01*
X115396903Y-95036707D01*
X115396970Y-94968533D01*
X115396605Y-94915765D01*
X115395748Y-94876614D01*
X115394341Y-94849285D01*
X115392325Y-94831986D01*
X115389643Y-94822926D01*
X115386236Y-94820312D01*
X115382044Y-94822351D01*
X115377571Y-94826667D01*
X115367216Y-94839602D01*
X115345158Y-94868676D01*
X115312957Y-94911759D01*
X115272174Y-94966718D01*
X115224370Y-95031423D01*
X115171105Y-95103742D01*
X115113940Y-95181544D01*
X115054437Y-95262698D01*
X114994155Y-95345072D01*
X114934655Y-95426536D01*
X114877498Y-95504957D01*
X114824245Y-95578204D01*
X114776457Y-95644147D01*
X114735693Y-95700654D01*
X114703516Y-95745593D01*
X114681485Y-95776834D01*
X114676917Y-95783466D01*
X114653996Y-95820369D01*
X114627188Y-95868359D01*
X114601789Y-95917897D01*
X114598568Y-95924577D01*
X114576890Y-95972772D01*
X114564304Y-96010334D01*
X114558574Y-96046160D01*
X114557456Y-96088200D01*
X114558090Y-96164400D01*
X113403651Y-96164400D01*
X113494815Y-96070669D01*
X113541612Y-96020775D01*
X113591899Y-95964295D01*
X113637944Y-95910026D01*
X113658369Y-95884673D01*
X113688807Y-95845128D01*
X113728862Y-95791916D01*
X113777361Y-95726667D01*
X113833135Y-95651011D01*
X113895011Y-95566577D01*
X113961819Y-95474994D01*
X114032387Y-95377892D01*
X114105545Y-95276901D01*
X114180121Y-95173650D01*
X114254944Y-95069768D01*
X114328843Y-94966885D01*
X114400646Y-94866631D01*
X114469184Y-94770636D01*
X114533284Y-94680527D01*
X114591775Y-94597936D01*
X114643486Y-94524492D01*
X114687247Y-94461824D01*
X114721885Y-94411561D01*
X114746230Y-94375334D01*
X114759111Y-94354771D01*
X114760869Y-94350668D01*
X114752910Y-94339342D01*
X114732115Y-94312162D01*
X114699847Y-94270829D01*
X114657470Y-94217044D01*
X114606347Y-94152506D01*
X114547841Y-94078918D01*
X114483314Y-93997978D01*
X114414131Y-93911388D01*
X114341653Y-93820848D01*
X114267246Y-93728060D01*
X114207517Y-93653702D01*
X113196511Y-93653702D01*
X113190602Y-93666659D01*
X113176272Y-93688908D01*
X113175225Y-93690391D01*
X113156438Y-93720544D01*
X113136791Y-93757375D01*
X113132892Y-93765511D01*
X113129356Y-93773940D01*
X113126230Y-93784059D01*
X113123486Y-93797260D01*
X113121092Y-93814938D01*
X113119019Y-93838484D01*
X113117235Y-93869293D01*
X113115712Y-93908757D01*
X113114419Y-93958269D01*
X113113326Y-94019223D01*
X113112403Y-94093011D01*
X113111619Y-94181028D01*
X113110945Y-94284665D01*
X113110350Y-94405316D01*
X113109805Y-94544374D01*
X113109279Y-94703232D01*
X113108745Y-94882089D01*
X113108206Y-95067207D01*
X113107772Y-95231145D01*
X113107509Y-95375303D01*
X113107484Y-95501079D01*
X113107765Y-95609871D01*
X113108419Y-95703077D01*
X113109514Y-95782097D01*
X113111118Y-95848328D01*
X113113297Y-95903170D01*
X113116119Y-95948021D01*
X113119651Y-95984278D01*
X113123961Y-96013341D01*
X113129117Y-96036609D01*
X113135185Y-96055479D01*
X113142233Y-96071351D01*
X113150329Y-96085622D01*
X113159540Y-96099691D01*
X113168040Y-96112158D01*
X113185176Y-96138452D01*
X113195322Y-96156037D01*
X113196511Y-96159257D01*
X113185604Y-96160334D01*
X113154411Y-96161335D01*
X113105223Y-96162235D01*
X113040333Y-96163010D01*
X112962030Y-96163637D01*
X112872607Y-96164091D01*
X112774356Y-96164349D01*
X112705445Y-96164400D01*
X112600452Y-96164180D01*
X112503610Y-96163548D01*
X112417107Y-96162549D01*
X112343132Y-96161227D01*
X112283874Y-96159626D01*
X112241520Y-96157791D01*
X112218260Y-96155765D01*
X112214378Y-96154493D01*
X112222076Y-96139591D01*
X112230074Y-96131560D01*
X112243246Y-96114434D01*
X112260485Y-96084183D01*
X112272407Y-96059622D01*
X112299045Y-96000711D01*
X112302120Y-94823845D01*
X112305195Y-93646978D01*
X112750853Y-93646978D01*
X112848670Y-93647142D01*
X112939064Y-93647611D01*
X113019630Y-93648347D01*
X113087962Y-93649316D01*
X113141656Y-93650480D01*
X113178305Y-93651803D01*
X113195504Y-93653249D01*
X113196511Y-93653702D01*
X114207517Y-93653702D01*
X114192270Y-93634722D01*
X114118090Y-93542537D01*
X114046069Y-93453204D01*
X113977569Y-93368424D01*
X113913955Y-93289898D01*
X113856588Y-93219326D01*
X113806833Y-93158409D01*
X113766052Y-93108847D01*
X113748888Y-93088178D01*
X113662596Y-92987516D01*
X113585997Y-92904259D01*
X113517183Y-92836438D01*
X113454248Y-92782089D01*
X113444867Y-92774722D01*
X113405356Y-92744117D01*
X114537116Y-92743867D01*
X114531827Y-92791844D01*
X114535130Y-92849188D01*
X114556661Y-92917463D01*
X114596635Y-92997212D01*
X114641943Y-93069495D01*
X114658161Y-93092140D01*
X114686214Y-93129696D01*
X114724430Y-93180021D01*
X114771137Y-93240973D01*
X114824661Y-93310411D01*
X114883331Y-93386194D01*
X114945475Y-93466180D01*
X115009421Y-93548228D01*
X115073495Y-93630196D01*
X115136027Y-93709943D01*
X115195343Y-93785327D01*
X115249771Y-93854207D01*
X115297639Y-93914442D01*
X115337275Y-93963889D01*
X115367006Y-94000408D01*
X115385161Y-94021858D01*
X115388220Y-94025156D01*
X115391079Y-94017149D01*
X115393293Y-93986855D01*
X115394857Y-93934556D01*
X115395767Y-93860531D01*
X115396020Y-93765063D01*
X115395613Y-93648434D01*
X115394704Y-93528445D01*
X115393382Y-93396333D01*
X115391857Y-93284594D01*
X115389881Y-93191025D01*
X115387206Y-93113419D01*
X115383582Y-93049574D01*
X115378761Y-92997283D01*
X115372494Y-92954344D01*
X115364532Y-92918551D01*
X115354627Y-92887700D01*
X115342531Y-92859586D01*
X115327993Y-92832005D01*
X115313311Y-92806966D01*
X115275314Y-92743867D01*
X116335197Y-92743867D01*
X116638034Y-92743867D01*
X116638001Y-92737617D01*
X116637195Y-92635544D01*
X116636170Y-92546633D01*
X116634900Y-92469941D01*
X116633360Y-92404527D01*
X116631524Y-92349449D01*
X116629367Y-92303765D01*
X116626863Y-92266534D01*
X116623987Y-92236813D01*
X116620713Y-92213662D01*
X116617015Y-92196139D01*
X116612869Y-92183301D01*
X116608247Y-92174208D01*
X116603126Y-92167918D01*
X116597478Y-92163488D01*
X116591279Y-92159978D01*
X116584504Y-92156445D01*
X116578508Y-92152876D01*
X116573275Y-92150300D01*
X116565099Y-92147972D01*
X116552886Y-92145878D01*
X116535541Y-92144007D01*
X116511969Y-92142347D01*
X116481077Y-92140884D01*
X116441768Y-92139608D01*
X116392950Y-92138504D01*
X116333527Y-92137561D01*
X116262404Y-92136767D01*
X116178488Y-92136109D01*
X116080683Y-92135575D01*
X115967894Y-92135153D01*
X115839029Y-92134829D01*
X115692991Y-92134592D01*
X115528686Y-92134430D01*
X115345020Y-92134330D01*
X115140897Y-92134280D01*
X114929753Y-92134267D01*
X113309400Y-92134267D01*
X113309400Y-92231054D01*
G37*
X113309400Y-92231054D02*
X113298535Y-92344993D01*
X113266918Y-92452616D01*
X113216015Y-92551615D01*
X113147293Y-92639684D01*
X113062219Y-92714516D01*
X112965232Y-92772384D01*
X112858964Y-92812005D01*
X112751950Y-92830573D01*
X112646300Y-92829434D01*
X112544125Y-92809930D01*
X112447534Y-92773406D01*
X112358638Y-92721205D01*
X112279546Y-92654673D01*
X112212369Y-92575152D01*
X112159217Y-92483987D01*
X112122199Y-92382523D01*
X112103427Y-92272102D01*
X112101489Y-92222206D01*
X112101489Y-92134267D01*
X112049560Y-92134267D01*
X112013253Y-92137111D01*
X111986355Y-92148911D01*
X111959249Y-92172649D01*
X111920867Y-92211031D01*
X111920867Y-94402602D01*
X111920876Y-94664739D01*
X111920908Y-94905241D01*
X111920972Y-95125048D01*
X111921076Y-95325101D01*
X111921227Y-95506344D01*
X111921434Y-95669716D01*
X111921706Y-95816160D01*
X111922050Y-95946617D01*
X111922474Y-96062029D01*
X111922987Y-96163338D01*
X111923597Y-96251484D01*
X111924312Y-96327410D01*
X111925140Y-96392057D01*
X111926089Y-96446367D01*
X111927167Y-96491280D01*
X111928383Y-96527740D01*
X111929745Y-96556687D01*
X111931261Y-96579063D01*
X111932938Y-96595809D01*
X111934786Y-96607868D01*
X111936813Y-96616180D01*
X111939025Y-96621687D01*
X111940108Y-96623537D01*
X111944271Y-96630549D01*
X111947805Y-96636996D01*
X111951635Y-96642900D01*
X111956682Y-96648286D01*
X111963871Y-96653178D01*
X111974123Y-96657598D01*
X111988364Y-96661572D01*
X112007514Y-96665121D01*
X112032499Y-96668270D01*
X112064240Y-96671042D01*
X112103662Y-96673461D01*
X112151686Y-96675551D01*
X112209237Y-96677335D01*
X112277237Y-96678837D01*
X112356610Y-96680080D01*
X112448279Y-96681089D01*
X112553166Y-96681885D01*
X112672196Y-96682494D01*
X112806290Y-96682939D01*
X112956373Y-96683243D01*
X113123367Y-96683430D01*
X113308196Y-96683524D01*
X113511783Y-96683548D01*
X113735050Y-96683525D01*
X113978922Y-96683480D01*
X114244321Y-96683437D01*
X114282704Y-96683432D01*
X114549682Y-96683389D01*
X114795002Y-96683318D01*
X115019583Y-96683213D01*
X115224345Y-96683066D01*
X115410206Y-96682869D01*
X115578088Y-96682616D01*
X115728908Y-96682300D01*
X115863587Y-96681913D01*
X115983044Y-96681447D01*
X116088199Y-96680897D01*
X116179971Y-96680253D01*
X116259279Y-96679511D01*
X116327043Y-96678661D01*
X116384182Y-96677697D01*
X116431617Y-96676611D01*
X116470266Y-96675397D01*
X116501049Y-96674047D01*
X116524885Y-96672555D01*
X116542694Y-96670911D01*
X116555395Y-96669111D01*
X116563908Y-96667145D01*
X116568266Y-96665477D01*
X116576728Y-96661906D01*
X116584497Y-96659270D01*
X116591602Y-96656634D01*
X116598073Y-96653062D01*
X116603939Y-96647621D01*
X116609229Y-96639375D01*
X116613974Y-96627390D01*
X116618202Y-96610731D01*
X116621943Y-96588463D01*
X116625227Y-96559652D01*
X116628083Y-96523363D01*
X116630540Y-96478661D01*
X116632629Y-96424611D01*
X116634378Y-96360279D01*
X116635817Y-96284730D01*
X116636976Y-96197030D01*
X116637883Y-96096243D01*
X116638569Y-95981434D01*
X116639063Y-95851670D01*
X116639395Y-95706015D01*
X116639593Y-95543535D01*
X116639687Y-95363295D01*
X116639708Y-95164360D01*
X116639685Y-94945796D01*
X116639646Y-94706668D01*
X116639622Y-94446040D01*
X116639622Y-94403889D01*
X116639636Y-94140992D01*
X116639661Y-93899732D01*
X116639671Y-93679165D01*
X116639642Y-93478352D01*
X116639548Y-93296349D01*
X116639362Y-93132216D01*
X116639059Y-92985011D01*
X116638614Y-92853792D01*
X116638034Y-92743867D01*
X116335197Y-92743867D01*
X116295407Y-92801711D01*
X116284236Y-92817479D01*
X116274166Y-92831441D01*
X116265138Y-92844784D01*
X116257097Y-92858693D01*
X116249986Y-92874356D01*
X116243747Y-92892958D01*
X116238325Y-92915686D01*
X116233662Y-92943727D01*
X116229701Y-92978267D01*
X116226385Y-93020492D01*
X116223659Y-93071589D01*
X116221464Y-93132744D01*
X116219745Y-93205144D01*
X116218444Y-93289975D01*
X116217505Y-93388422D01*
X116216870Y-93501674D01*
X116216484Y-93630916D01*
X116216288Y-93777334D01*
X116216227Y-93942116D01*
X116216243Y-94126447D01*
X116216280Y-94331513D01*
X116216289Y-94454133D01*
X116216265Y-94671082D01*
X116216231Y-94866642D01*
X116216243Y-95041999D01*
X116216358Y-95198341D01*
X116216630Y-95336857D01*
X116217118Y-95458734D01*
X116217876Y-95565160D01*
X116218962Y-95657322D01*
X116220431Y-95736409D01*
X116222340Y-95803608D01*
X116224744Y-95860107D01*
X116227701Y-95907093D01*
X116231266Y-95945755D01*
X116235495Y-95977280D01*
X116240446Y-96002855D01*
X116246173Y-96023670D01*
X116252733Y-96040911D01*
X116260183Y-96055765D01*
X116268579Y-96069422D01*
X116277976Y-96083069D01*
X116288432Y-96097893D01*
X116294523Y-96106783D01*
X116333296Y-96164400D01*
X115801732Y-96164400D01*
X115678483Y-96164365D01*
X115575987Y-96164215D01*
X115492420Y-96163878D01*
X115425956Y-96163286D01*
X115374771Y-96162367D01*
X115337041Y-96161051D01*
X115310940Y-96159269D01*
X115294644Y-96156951D01*
X115286328Y-96154026D01*
X115284168Y-96150424D01*
X115286339Y-96146075D01*
X115287535Y-96144645D01*
X115312685Y-96107573D01*
X115338583Y-96054772D01*
X115362192Y-95992770D01*
X115370461Y-95966357D01*
X115375078Y-95948416D01*
X115378979Y-95927355D01*
X115382248Y-95901089D01*
X115384966Y-95867532D01*
X115387215Y-95824599D01*
X115389077Y-95770204D01*
X115390636Y-95702262D01*
X115391972Y-95618688D01*
X115393169Y-95517395D01*
X115394308Y-95396300D01*
X115394685Y-95351600D01*
X115395702Y-95226449D01*
X115396460Y-95122082D01*
X115396903Y-95036707D01*
X115396970Y-94968533D01*
X115396605Y-94915765D01*
X115395748Y-94876614D01*
X115394341Y-94849285D01*
X115392325Y-94831986D01*
X115389643Y-94822926D01*
X115386236Y-94820312D01*
X115382044Y-94822351D01*
X115377571Y-94826667D01*
X115367216Y-94839602D01*
X115345158Y-94868676D01*
X115312957Y-94911759D01*
X115272174Y-94966718D01*
X115224370Y-95031423D01*
X115171105Y-95103742D01*
X115113940Y-95181544D01*
X115054437Y-95262698D01*
X114994155Y-95345072D01*
X114934655Y-95426536D01*
X114877498Y-95504957D01*
X114824245Y-95578204D01*
X114776457Y-95644147D01*
X114735693Y-95700654D01*
X114703516Y-95745593D01*
X114681485Y-95776834D01*
X114676917Y-95783466D01*
X114653996Y-95820369D01*
X114627188Y-95868359D01*
X114601789Y-95917897D01*
X114598568Y-95924577D01*
X114576890Y-95972772D01*
X114564304Y-96010334D01*
X114558574Y-96046160D01*
X114557456Y-96088200D01*
X114558090Y-96164400D01*
X113403651Y-96164400D01*
X113494815Y-96070669D01*
X113541612Y-96020775D01*
X113591899Y-95964295D01*
X113637944Y-95910026D01*
X113658369Y-95884673D01*
X113688807Y-95845128D01*
X113728862Y-95791916D01*
X113777361Y-95726667D01*
X113833135Y-95651011D01*
X113895011Y-95566577D01*
X113961819Y-95474994D01*
X114032387Y-95377892D01*
X114105545Y-95276901D01*
X114180121Y-95173650D01*
X114254944Y-95069768D01*
X114328843Y-94966885D01*
X114400646Y-94866631D01*
X114469184Y-94770636D01*
X114533284Y-94680527D01*
X114591775Y-94597936D01*
X114643486Y-94524492D01*
X114687247Y-94461824D01*
X114721885Y-94411561D01*
X114746230Y-94375334D01*
X114759111Y-94354771D01*
X114760869Y-94350668D01*
X114752910Y-94339342D01*
X114732115Y-94312162D01*
X114699847Y-94270829D01*
X114657470Y-94217044D01*
X114606347Y-94152506D01*
X114547841Y-94078918D01*
X114483314Y-93997978D01*
X114414131Y-93911388D01*
X114341653Y-93820848D01*
X114267246Y-93728060D01*
X114207517Y-93653702D01*
X113196511Y-93653702D01*
X113190602Y-93666659D01*
X113176272Y-93688908D01*
X113175225Y-93690391D01*
X113156438Y-93720544D01*
X113136791Y-93757375D01*
X113132892Y-93765511D01*
X113129356Y-93773940D01*
X113126230Y-93784059D01*
X113123486Y-93797260D01*
X113121092Y-93814938D01*
X113119019Y-93838484D01*
X113117235Y-93869293D01*
X113115712Y-93908757D01*
X113114419Y-93958269D01*
X113113326Y-94019223D01*
X113112403Y-94093011D01*
X113111619Y-94181028D01*
X113110945Y-94284665D01*
X113110350Y-94405316D01*
X113109805Y-94544374D01*
X113109279Y-94703232D01*
X113108745Y-94882089D01*
X113108206Y-95067207D01*
X113107772Y-95231145D01*
X113107509Y-95375303D01*
X113107484Y-95501079D01*
X113107765Y-95609871D01*
X113108419Y-95703077D01*
X113109514Y-95782097D01*
X113111118Y-95848328D01*
X113113297Y-95903170D01*
X113116119Y-95948021D01*
X113119651Y-95984278D01*
X113123961Y-96013341D01*
X113129117Y-96036609D01*
X113135185Y-96055479D01*
X113142233Y-96071351D01*
X113150329Y-96085622D01*
X113159540Y-96099691D01*
X113168040Y-96112158D01*
X113185176Y-96138452D01*
X113195322Y-96156037D01*
X113196511Y-96159257D01*
X113185604Y-96160334D01*
X113154411Y-96161335D01*
X113105223Y-96162235D01*
X113040333Y-96163010D01*
X112962030Y-96163637D01*
X112872607Y-96164091D01*
X112774356Y-96164349D01*
X112705445Y-96164400D01*
X112600452Y-96164180D01*
X112503610Y-96163548D01*
X112417107Y-96162549D01*
X112343132Y-96161227D01*
X112283874Y-96159626D01*
X112241520Y-96157791D01*
X112218260Y-96155765D01*
X112214378Y-96154493D01*
X112222076Y-96139591D01*
X112230074Y-96131560D01*
X112243246Y-96114434D01*
X112260485Y-96084183D01*
X112272407Y-96059622D01*
X112299045Y-96000711D01*
X112302120Y-94823845D01*
X112305195Y-93646978D01*
X112750853Y-93646978D01*
X112848670Y-93647142D01*
X112939064Y-93647611D01*
X113019630Y-93648347D01*
X113087962Y-93649316D01*
X113141656Y-93650480D01*
X113178305Y-93651803D01*
X113195504Y-93653249D01*
X113196511Y-93653702D01*
X114207517Y-93653702D01*
X114192270Y-93634722D01*
X114118090Y-93542537D01*
X114046069Y-93453204D01*
X113977569Y-93368424D01*
X113913955Y-93289898D01*
X113856588Y-93219326D01*
X113806833Y-93158409D01*
X113766052Y-93108847D01*
X113748888Y-93088178D01*
X113662596Y-92987516D01*
X113585997Y-92904259D01*
X113517183Y-92836438D01*
X113454248Y-92782089D01*
X113444867Y-92774722D01*
X113405356Y-92744117D01*
X114537116Y-92743867D01*
X114531827Y-92791844D01*
X114535130Y-92849188D01*
X114556661Y-92917463D01*
X114596635Y-92997212D01*
X114641943Y-93069495D01*
X114658161Y-93092140D01*
X114686214Y-93129696D01*
X114724430Y-93180021D01*
X114771137Y-93240973D01*
X114824661Y-93310411D01*
X114883331Y-93386194D01*
X114945475Y-93466180D01*
X115009421Y-93548228D01*
X115073495Y-93630196D01*
X115136027Y-93709943D01*
X115195343Y-93785327D01*
X115249771Y-93854207D01*
X115297639Y-93914442D01*
X115337275Y-93963889D01*
X115367006Y-94000408D01*
X115385161Y-94021858D01*
X115388220Y-94025156D01*
X115391079Y-94017149D01*
X115393293Y-93986855D01*
X115394857Y-93934556D01*
X115395767Y-93860531D01*
X115396020Y-93765063D01*
X115395613Y-93648434D01*
X115394704Y-93528445D01*
X115393382Y-93396333D01*
X115391857Y-93284594D01*
X115389881Y-93191025D01*
X115387206Y-93113419D01*
X115383582Y-93049574D01*
X115378761Y-92997283D01*
X115372494Y-92954344D01*
X115364532Y-92918551D01*
X115354627Y-92887700D01*
X115342531Y-92859586D01*
X115327993Y-92832005D01*
X115313311Y-92806966D01*
X115275314Y-92743867D01*
X116335197Y-92743867D01*
X116638034Y-92743867D01*
X116638001Y-92737617D01*
X116637195Y-92635544D01*
X116636170Y-92546633D01*
X116634900Y-92469941D01*
X116633360Y-92404527D01*
X116631524Y-92349449D01*
X116629367Y-92303765D01*
X116626863Y-92266534D01*
X116623987Y-92236813D01*
X116620713Y-92213662D01*
X116617015Y-92196139D01*
X116612869Y-92183301D01*
X116608247Y-92174208D01*
X116603126Y-92167918D01*
X116597478Y-92163488D01*
X116591279Y-92159978D01*
X116584504Y-92156445D01*
X116578508Y-92152876D01*
X116573275Y-92150300D01*
X116565099Y-92147972D01*
X116552886Y-92145878D01*
X116535541Y-92144007D01*
X116511969Y-92142347D01*
X116481077Y-92140884D01*
X116441768Y-92139608D01*
X116392950Y-92138504D01*
X116333527Y-92137561D01*
X116262404Y-92136767D01*
X116178488Y-92136109D01*
X116080683Y-92135575D01*
X115967894Y-92135153D01*
X115839029Y-92134829D01*
X115692991Y-92134592D01*
X115528686Y-92134430D01*
X115345020Y-92134330D01*
X115140897Y-92134280D01*
X114929753Y-92134267D01*
X113309400Y-92134267D01*
X113309400Y-92231054D01*
G04 #@! TO.C,G\u002A\u002A\u002A*
G36*
X122626246Y-92823247D02*
G01*
X122768209Y-92836554D01*
X122917513Y-92858653D01*
X123066043Y-92888487D01*
X123205687Y-92924996D01*
X123248767Y-92938436D01*
X123478602Y-93030151D01*
X123700999Y-93151118D01*
X123911589Y-93297612D01*
X124106004Y-93465905D01*
X124279874Y-93652272D01*
X124428831Y-93852986D01*
X124533837Y-94034550D01*
X124560284Y-94088235D01*
X124579322Y-94129313D01*
X124586986Y-94149216D01*
X124587000Y-94149463D01*
X124571290Y-94153062D01*
X124528995Y-94155024D01*
X124467367Y-94155143D01*
X124421935Y-94154179D01*
X124256870Y-94149333D01*
X124057868Y-93861900D01*
X123997841Y-93773791D01*
X123945073Y-93693650D01*
X123902474Y-93626115D01*
X123872952Y-93575826D01*
X123859414Y-93547424D01*
X123858866Y-93544400D01*
X123845163Y-93518419D01*
X123829233Y-93513439D01*
X123804088Y-93513253D01*
X123750478Y-93513237D01*
X123673804Y-93513379D01*
X123579465Y-93513668D01*
X123472863Y-93514094D01*
X123431821Y-93514281D01*
X123064043Y-93516017D01*
X122991555Y-93440479D01*
X122913217Y-93378763D01*
X122829394Y-93348255D01*
X122744531Y-93349220D01*
X122663070Y-93381925D01*
X122616437Y-93418056D01*
X122560033Y-93491206D01*
X122532446Y-93571756D01*
X122531372Y-93653880D01*
X122554504Y-93731753D01*
X122599540Y-93799550D01*
X122664173Y-93851446D01*
X122746100Y-93881616D01*
X122801917Y-93886866D01*
X122875230Y-93873282D01*
X122947286Y-93837573D01*
X123004417Y-93787306D01*
X123018915Y-93766737D01*
X123047981Y-93717533D01*
X123381457Y-93718181D01*
X123714933Y-93718830D01*
X123908314Y-94000370D01*
X123967894Y-94088487D01*
X124020796Y-94169345D01*
X124063942Y-94238023D01*
X124094251Y-94289600D01*
X124108645Y-94319155D01*
X124109255Y-94321454D01*
X124125258Y-94352385D01*
X124144474Y-94361990D01*
X124170550Y-94362547D01*
X124223757Y-94363416D01*
X124297362Y-94364496D01*
X124384631Y-94365685D01*
X124426116Y-94366223D01*
X124680099Y-94369466D01*
X124717098Y-94510541D01*
X124763386Y-94739622D01*
X124785996Y-94977829D01*
X124784740Y-95215807D01*
X124759429Y-95444204D01*
X124738006Y-95550566D01*
X124719088Y-95631000D01*
X124098695Y-95631000D01*
X124064617Y-95575966D01*
X124006632Y-95512283D01*
X123930735Y-95471745D01*
X123845386Y-95456247D01*
X123759045Y-95467688D01*
X123700128Y-95494218D01*
X123645100Y-95544746D01*
X123601059Y-95615591D01*
X123575177Y-95693417D01*
X123571278Y-95733712D01*
X123586858Y-95813684D01*
X123628288Y-95886115D01*
X123688782Y-95944953D01*
X123761551Y-95984145D01*
X123839807Y-95997636D01*
X123864877Y-95995540D01*
X123957456Y-95969608D01*
X124027036Y-95924663D01*
X124059308Y-95883909D01*
X124087466Y-95834414D01*
X124371100Y-95834307D01*
X124464805Y-95834988D01*
X124545425Y-95836942D01*
X124607427Y-95839924D01*
X124645278Y-95843687D01*
X124654489Y-95846900D01*
X124647450Y-95866394D01*
X124628527Y-95909682D01*
X124600703Y-95970127D01*
X124570836Y-96033044D01*
X124434720Y-96278733D01*
X124273871Y-96501784D01*
X124089208Y-96701244D01*
X123881654Y-96876160D01*
X123652129Y-97025579D01*
X123567454Y-97071327D01*
X123400300Y-97157188D01*
X123405216Y-96224754D01*
X123410133Y-95292320D01*
X123198466Y-95291674D01*
X122986800Y-95291028D01*
X122952933Y-95238246D01*
X122895425Y-95177050D01*
X122820946Y-95138288D01*
X122738439Y-95123928D01*
X122656851Y-95135942D01*
X122604473Y-95161502D01*
X122533075Y-95226784D01*
X122488607Y-95304126D01*
X122471004Y-95387386D01*
X122480202Y-95470418D01*
X122516135Y-95547081D01*
X122578739Y-95611231D01*
X122609423Y-95631001D01*
X122690908Y-95659730D01*
X122776236Y-95661070D01*
X122856892Y-95637119D01*
X122924360Y-95589973D01*
X122958787Y-95544987D01*
X122976785Y-95517891D01*
X122998259Y-95503112D01*
X123033296Y-95496933D01*
X123091985Y-95495641D01*
X123092787Y-95495640D01*
X123198774Y-95495533D01*
X123190000Y-97228767D01*
X123139200Y-97242616D01*
X123048988Y-97264170D01*
X122940915Y-97285484D01*
X122830881Y-97303672D01*
X122737033Y-97315625D01*
X122622733Y-97327028D01*
X122622733Y-96997844D01*
X122623093Y-96859141D01*
X122624570Y-96750181D01*
X122627759Y-96666844D01*
X122633256Y-96605010D01*
X122641656Y-96560559D01*
X122653554Y-96529372D01*
X122669545Y-96507328D01*
X122690224Y-96490307D01*
X122696679Y-96486045D01*
X122759576Y-96427858D01*
X122796177Y-96355025D01*
X122806670Y-96274008D01*
X122791243Y-96191272D01*
X122750083Y-96113278D01*
X122683945Y-96046912D01*
X122625702Y-96020780D01*
X122551227Y-96010374D01*
X122474269Y-96015670D01*
X122408576Y-96036644D01*
X122391141Y-96047423D01*
X122318752Y-96118709D01*
X122277159Y-96199462D01*
X122266640Y-96284959D01*
X122287471Y-96370478D01*
X122339930Y-96451296D01*
X122365889Y-96477666D01*
X122430237Y-96536933D01*
X122423074Y-96930633D01*
X122420574Y-97056689D01*
X122418022Y-97152803D01*
X122415066Y-97222898D01*
X122411355Y-97270898D01*
X122406538Y-97300726D01*
X122400264Y-97316305D01*
X122392182Y-97321559D01*
X122388088Y-97321623D01*
X122352464Y-97318056D01*
X122303991Y-97313100D01*
X122300999Y-97312791D01*
X122222540Y-97301385D01*
X122123604Y-97282259D01*
X122015935Y-97258127D01*
X121911275Y-97231701D01*
X121821368Y-97205694D01*
X121785908Y-97193801D01*
X121627034Y-97128469D01*
X121461142Y-97045645D01*
X121303666Y-96953193D01*
X121268201Y-96930019D01*
X121172271Y-96858073D01*
X121065437Y-96764946D01*
X120954948Y-96658047D01*
X120848053Y-96544786D01*
X120752002Y-96432571D01*
X120674043Y-96328813D01*
X120661172Y-96309592D01*
X120619486Y-96244827D01*
X120585723Y-96190513D01*
X120563645Y-96152824D01*
X120556866Y-96138327D01*
X120563896Y-96130555D01*
X120586470Y-96124005D01*
X120626812Y-96118591D01*
X120687149Y-96114227D01*
X120769704Y-96110826D01*
X120876704Y-96108304D01*
X121010373Y-96106574D01*
X121172936Y-96105550D01*
X121366620Y-96105147D01*
X121416400Y-96105133D01*
X122118806Y-96105133D01*
X122106672Y-95894745D01*
X122094537Y-95684356D01*
X122145333Y-95658088D01*
X122205630Y-95609266D01*
X122248876Y-95538896D01*
X122269160Y-95457415D01*
X122269955Y-95438105D01*
X122255585Y-95346076D01*
X122216279Y-95269968D01*
X122157748Y-95212213D01*
X122085699Y-95175239D01*
X122005842Y-95161479D01*
X121923887Y-95173360D01*
X121845541Y-95213315D01*
X121811235Y-95242835D01*
X121756035Y-95319207D01*
X121732003Y-95403169D01*
X121738939Y-95489551D01*
X121776640Y-95573180D01*
X121826390Y-95632331D01*
X121864472Y-95672912D01*
X121885152Y-95711100D01*
X121895279Y-95761959D01*
X121897948Y-95789683D01*
X121900701Y-95842951D01*
X121899512Y-95880539D01*
X121896052Y-95892373D01*
X121877545Y-95893770D01*
X121828714Y-95895332D01*
X121753102Y-95897001D01*
X121654250Y-95898718D01*
X121535701Y-95900426D01*
X121400997Y-95902066D01*
X121253681Y-95903581D01*
X121166705Y-95904354D01*
X120447277Y-95910400D01*
X120401919Y-95774933D01*
X120362374Y-95636685D01*
X120328321Y-95478104D01*
X120302476Y-95312610D01*
X120294871Y-95245766D01*
X120284251Y-95139933D01*
X120920933Y-95140147D01*
X120948945Y-95189387D01*
X121002340Y-95251323D01*
X121074801Y-95291512D01*
X121157814Y-95307856D01*
X121242862Y-95298260D01*
X121298309Y-95275401D01*
X121369789Y-95218776D01*
X121414965Y-95148500D01*
X121435134Y-95070543D01*
X121431596Y-94990874D01*
X121405649Y-94915465D01*
X121358593Y-94850284D01*
X121291726Y-94801303D01*
X121206347Y-94774490D01*
X121188894Y-94772460D01*
X121096610Y-94779472D01*
X121017582Y-94816092D01*
X120956422Y-94880148D01*
X120954800Y-94882646D01*
X120920933Y-94935428D01*
X120611900Y-94936081D01*
X120302866Y-94936733D01*
X120303131Y-94856299D01*
X120308334Y-94787146D01*
X120322229Y-94695782D01*
X120342791Y-94592120D01*
X120367993Y-94486076D01*
X120395808Y-94387564D01*
X120404390Y-94360871D01*
X120450523Y-94240786D01*
X120512102Y-94106991D01*
X120583119Y-93970970D01*
X120657563Y-93844207D01*
X120729424Y-93738185D01*
X120732213Y-93734466D01*
X120828765Y-93617044D01*
X120942759Y-93495574D01*
X121064379Y-93379684D01*
X121183810Y-93279002D01*
X121237450Y-93238923D01*
X121307583Y-93189501D01*
X121354540Y-93159827D01*
X121382962Y-93150329D01*
X121397489Y-93161438D01*
X121402762Y-93193584D01*
X121403422Y-93247195D01*
X121403412Y-93254288D01*
X121401591Y-93336964D01*
X121397029Y-93426962D01*
X121392807Y-93481384D01*
X121385421Y-93543141D01*
X121375114Y-93580781D01*
X121357819Y-93604037D01*
X121335113Y-93619463D01*
X121274294Y-93672580D01*
X121234836Y-93744887D01*
X121218825Y-93827731D01*
X121228346Y-93912455D01*
X121251131Y-93967909D01*
X121306551Y-94035597D01*
X121380322Y-94082387D01*
X121463912Y-94105529D01*
X121548786Y-94102270D01*
X121605557Y-94082208D01*
X121682663Y-94025676D01*
X121732985Y-93953408D01*
X121755690Y-93871426D01*
X121749943Y-93785755D01*
X121714910Y-93702418D01*
X121666407Y-93642608D01*
X121592781Y-93571052D01*
X121602335Y-93295760D01*
X121611888Y-93020468D01*
X121655877Y-93002911D01*
X121734249Y-92973396D01*
X121821680Y-92943259D01*
X121908292Y-92915637D01*
X121984208Y-92893663D01*
X122039550Y-92880476D01*
X122044060Y-92879679D01*
X122117321Y-92867452D01*
X122113440Y-93745459D01*
X122109558Y-94623466D01*
X122313713Y-94618091D01*
X122517869Y-94612715D01*
X122546508Y-94661198D01*
X122603901Y-94728475D01*
X122677503Y-94771475D01*
X122759973Y-94789841D01*
X122843969Y-94783212D01*
X122922148Y-94751229D01*
X122987168Y-94693533D01*
X122994970Y-94683149D01*
X123034634Y-94600431D01*
X123045019Y-94510954D01*
X123026663Y-94423190D01*
X122980104Y-94345610D01*
X122973010Y-94337770D01*
X122898158Y-94280262D01*
X122814909Y-94253437D01*
X122729024Y-94257216D01*
X122646268Y-94291519D01*
X122584021Y-94343182D01*
X122545645Y-94381779D01*
X122513957Y-94402284D01*
X122475257Y-94410393D01*
X122418921Y-94411799D01*
X122317933Y-94411799D01*
X122317933Y-92839075D01*
X122396795Y-92827249D01*
X122499737Y-92819792D01*
X122626246Y-92823247D01*
G37*
X122626246Y-92823247D02*
X122768209Y-92836554D01*
X122917513Y-92858653D01*
X123066043Y-92888487D01*
X123205687Y-92924996D01*
X123248767Y-92938436D01*
X123478602Y-93030151D01*
X123700999Y-93151118D01*
X123911589Y-93297612D01*
X124106004Y-93465905D01*
X124279874Y-93652272D01*
X124428831Y-93852986D01*
X124533837Y-94034550D01*
X124560284Y-94088235D01*
X124579322Y-94129313D01*
X124586986Y-94149216D01*
X124587000Y-94149463D01*
X124571290Y-94153062D01*
X124528995Y-94155024D01*
X124467367Y-94155143D01*
X124421935Y-94154179D01*
X124256870Y-94149333D01*
X124057868Y-93861900D01*
X123997841Y-93773791D01*
X123945073Y-93693650D01*
X123902474Y-93626115D01*
X123872952Y-93575826D01*
X123859414Y-93547424D01*
X123858866Y-93544400D01*
X123845163Y-93518419D01*
X123829233Y-93513439D01*
X123804088Y-93513253D01*
X123750478Y-93513237D01*
X123673804Y-93513379D01*
X123579465Y-93513668D01*
X123472863Y-93514094D01*
X123431821Y-93514281D01*
X123064043Y-93516017D01*
X122991555Y-93440479D01*
X122913217Y-93378763D01*
X122829394Y-93348255D01*
X122744531Y-93349220D01*
X122663070Y-93381925D01*
X122616437Y-93418056D01*
X122560033Y-93491206D01*
X122532446Y-93571756D01*
X122531372Y-93653880D01*
X122554504Y-93731753D01*
X122599540Y-93799550D01*
X122664173Y-93851446D01*
X122746100Y-93881616D01*
X122801917Y-93886866D01*
X122875230Y-93873282D01*
X122947286Y-93837573D01*
X123004417Y-93787306D01*
X123018915Y-93766737D01*
X123047981Y-93717533D01*
X123381457Y-93718181D01*
X123714933Y-93718830D01*
X123908314Y-94000370D01*
X123967894Y-94088487D01*
X124020796Y-94169345D01*
X124063942Y-94238023D01*
X124094251Y-94289600D01*
X124108645Y-94319155D01*
X124109255Y-94321454D01*
X124125258Y-94352385D01*
X124144474Y-94361990D01*
X124170550Y-94362547D01*
X124223757Y-94363416D01*
X124297362Y-94364496D01*
X124384631Y-94365685D01*
X124426116Y-94366223D01*
X124680099Y-94369466D01*
X124717098Y-94510541D01*
X124763386Y-94739622D01*
X124785996Y-94977829D01*
X124784740Y-95215807D01*
X124759429Y-95444204D01*
X124738006Y-95550566D01*
X124719088Y-95631000D01*
X124098695Y-95631000D01*
X124064617Y-95575966D01*
X124006632Y-95512283D01*
X123930735Y-95471745D01*
X123845386Y-95456247D01*
X123759045Y-95467688D01*
X123700128Y-95494218D01*
X123645100Y-95544746D01*
X123601059Y-95615591D01*
X123575177Y-95693417D01*
X123571278Y-95733712D01*
X123586858Y-95813684D01*
X123628288Y-95886115D01*
X123688782Y-95944953D01*
X123761551Y-95984145D01*
X123839807Y-95997636D01*
X123864877Y-95995540D01*
X123957456Y-95969608D01*
X124027036Y-95924663D01*
X124059308Y-95883909D01*
X124087466Y-95834414D01*
X124371100Y-95834307D01*
X124464805Y-95834988D01*
X124545425Y-95836942D01*
X124607427Y-95839924D01*
X124645278Y-95843687D01*
X124654489Y-95846900D01*
X124647450Y-95866394D01*
X124628527Y-95909682D01*
X124600703Y-95970127D01*
X124570836Y-96033044D01*
X124434720Y-96278733D01*
X124273871Y-96501784D01*
X124089208Y-96701244D01*
X123881654Y-96876160D01*
X123652129Y-97025579D01*
X123567454Y-97071327D01*
X123400300Y-97157188D01*
X123405216Y-96224754D01*
X123410133Y-95292320D01*
X123198466Y-95291674D01*
X122986800Y-95291028D01*
X122952933Y-95238246D01*
X122895425Y-95177050D01*
X122820946Y-95138288D01*
X122738439Y-95123928D01*
X122656851Y-95135942D01*
X122604473Y-95161502D01*
X122533075Y-95226784D01*
X122488607Y-95304126D01*
X122471004Y-95387386D01*
X122480202Y-95470418D01*
X122516135Y-95547081D01*
X122578739Y-95611231D01*
X122609423Y-95631001D01*
X122690908Y-95659730D01*
X122776236Y-95661070D01*
X122856892Y-95637119D01*
X122924360Y-95589973D01*
X122958787Y-95544987D01*
X122976785Y-95517891D01*
X122998259Y-95503112D01*
X123033296Y-95496933D01*
X123091985Y-95495641D01*
X123092787Y-95495640D01*
X123198774Y-95495533D01*
X123190000Y-97228767D01*
X123139200Y-97242616D01*
X123048988Y-97264170D01*
X122940915Y-97285484D01*
X122830881Y-97303672D01*
X122737033Y-97315625D01*
X122622733Y-97327028D01*
X122622733Y-96997844D01*
X122623093Y-96859141D01*
X122624570Y-96750181D01*
X122627759Y-96666844D01*
X122633256Y-96605010D01*
X122641656Y-96560559D01*
X122653554Y-96529372D01*
X122669545Y-96507328D01*
X122690224Y-96490307D01*
X122696679Y-96486045D01*
X122759576Y-96427858D01*
X122796177Y-96355025D01*
X122806670Y-96274008D01*
X122791243Y-96191272D01*
X122750083Y-96113278D01*
X122683945Y-96046912D01*
X122625702Y-96020780D01*
X122551227Y-96010374D01*
X122474269Y-96015670D01*
X122408576Y-96036644D01*
X122391141Y-96047423D01*
X122318752Y-96118709D01*
X122277159Y-96199462D01*
X122266640Y-96284959D01*
X122287471Y-96370478D01*
X122339930Y-96451296D01*
X122365889Y-96477666D01*
X122430237Y-96536933D01*
X122423074Y-96930633D01*
X122420574Y-97056689D01*
X122418022Y-97152803D01*
X122415066Y-97222898D01*
X122411355Y-97270898D01*
X122406538Y-97300726D01*
X122400264Y-97316305D01*
X122392182Y-97321559D01*
X122388088Y-97321623D01*
X122352464Y-97318056D01*
X122303991Y-97313100D01*
X122300999Y-97312791D01*
X122222540Y-97301385D01*
X122123604Y-97282259D01*
X122015935Y-97258127D01*
X121911275Y-97231701D01*
X121821368Y-97205694D01*
X121785908Y-97193801D01*
X121627034Y-97128469D01*
X121461142Y-97045645D01*
X121303666Y-96953193D01*
X121268201Y-96930019D01*
X121172271Y-96858073D01*
X121065437Y-96764946D01*
X120954948Y-96658047D01*
X120848053Y-96544786D01*
X120752002Y-96432571D01*
X120674043Y-96328813D01*
X120661172Y-96309592D01*
X120619486Y-96244827D01*
X120585723Y-96190513D01*
X120563645Y-96152824D01*
X120556866Y-96138327D01*
X120563896Y-96130555D01*
X120586470Y-96124005D01*
X120626812Y-96118591D01*
X120687149Y-96114227D01*
X120769704Y-96110826D01*
X120876704Y-96108304D01*
X121010373Y-96106574D01*
X121172936Y-96105550D01*
X121366620Y-96105147D01*
X121416400Y-96105133D01*
X122118806Y-96105133D01*
X122106672Y-95894745D01*
X122094537Y-95684356D01*
X122145333Y-95658088D01*
X122205630Y-95609266D01*
X122248876Y-95538896D01*
X122269160Y-95457415D01*
X122269955Y-95438105D01*
X122255585Y-95346076D01*
X122216279Y-95269968D01*
X122157748Y-95212213D01*
X122085699Y-95175239D01*
X122005842Y-95161479D01*
X121923887Y-95173360D01*
X121845541Y-95213315D01*
X121811235Y-95242835D01*
X121756035Y-95319207D01*
X121732003Y-95403169D01*
X121738939Y-95489551D01*
X121776640Y-95573180D01*
X121826390Y-95632331D01*
X121864472Y-95672912D01*
X121885152Y-95711100D01*
X121895279Y-95761959D01*
X121897948Y-95789683D01*
X121900701Y-95842951D01*
X121899512Y-95880539D01*
X121896052Y-95892373D01*
X121877545Y-95893770D01*
X121828714Y-95895332D01*
X121753102Y-95897001D01*
X121654250Y-95898718D01*
X121535701Y-95900426D01*
X121400997Y-95902066D01*
X121253681Y-95903581D01*
X121166705Y-95904354D01*
X120447277Y-95910400D01*
X120401919Y-95774933D01*
X120362374Y-95636685D01*
X120328321Y-95478104D01*
X120302476Y-95312610D01*
X120294871Y-95245766D01*
X120284251Y-95139933D01*
X120920933Y-95140147D01*
X120948945Y-95189387D01*
X121002340Y-95251323D01*
X121074801Y-95291512D01*
X121157814Y-95307856D01*
X121242862Y-95298260D01*
X121298309Y-95275401D01*
X121369789Y-95218776D01*
X121414965Y-95148500D01*
X121435134Y-95070543D01*
X121431596Y-94990874D01*
X121405649Y-94915465D01*
X121358593Y-94850284D01*
X121291726Y-94801303D01*
X121206347Y-94774490D01*
X121188894Y-94772460D01*
X121096610Y-94779472D01*
X121017582Y-94816092D01*
X120956422Y-94880148D01*
X120954800Y-94882646D01*
X120920933Y-94935428D01*
X120611900Y-94936081D01*
X120302866Y-94936733D01*
X120303131Y-94856299D01*
X120308334Y-94787146D01*
X120322229Y-94695782D01*
X120342791Y-94592120D01*
X120367993Y-94486076D01*
X120395808Y-94387564D01*
X120404390Y-94360871D01*
X120450523Y-94240786D01*
X120512102Y-94106991D01*
X120583119Y-93970970D01*
X120657563Y-93844207D01*
X120729424Y-93738185D01*
X120732213Y-93734466D01*
X120828765Y-93617044D01*
X120942759Y-93495574D01*
X121064379Y-93379684D01*
X121183810Y-93279002D01*
X121237450Y-93238923D01*
X121307583Y-93189501D01*
X121354540Y-93159827D01*
X121382962Y-93150329D01*
X121397489Y-93161438D01*
X121402762Y-93193584D01*
X121403422Y-93247195D01*
X121403412Y-93254288D01*
X121401591Y-93336964D01*
X121397029Y-93426962D01*
X121392807Y-93481384D01*
X121385421Y-93543141D01*
X121375114Y-93580781D01*
X121357819Y-93604037D01*
X121335113Y-93619463D01*
X121274294Y-93672580D01*
X121234836Y-93744887D01*
X121218825Y-93827731D01*
X121228346Y-93912455D01*
X121251131Y-93967909D01*
X121306551Y-94035597D01*
X121380322Y-94082387D01*
X121463912Y-94105529D01*
X121548786Y-94102270D01*
X121605557Y-94082208D01*
X121682663Y-94025676D01*
X121732985Y-93953408D01*
X121755690Y-93871426D01*
X121749943Y-93785755D01*
X121714910Y-93702418D01*
X121666407Y-93642608D01*
X121592781Y-93571052D01*
X121602335Y-93295760D01*
X121611888Y-93020468D01*
X121655877Y-93002911D01*
X121734249Y-92973396D01*
X121821680Y-92943259D01*
X121908292Y-92915637D01*
X121984208Y-92893663D01*
X122039550Y-92880476D01*
X122044060Y-92879679D01*
X122117321Y-92867452D01*
X122113440Y-93745459D01*
X122109558Y-94623466D01*
X122313713Y-94618091D01*
X122517869Y-94612715D01*
X122546508Y-94661198D01*
X122603901Y-94728475D01*
X122677503Y-94771475D01*
X122759973Y-94789841D01*
X122843969Y-94783212D01*
X122922148Y-94751229D01*
X122987168Y-94693533D01*
X122994970Y-94683149D01*
X123034634Y-94600431D01*
X123045019Y-94510954D01*
X123026663Y-94423190D01*
X122980104Y-94345610D01*
X122973010Y-94337770D01*
X122898158Y-94280262D01*
X122814909Y-94253437D01*
X122729024Y-94257216D01*
X122646268Y-94291519D01*
X122584021Y-94343182D01*
X122545645Y-94381779D01*
X122513957Y-94402284D01*
X122475257Y-94410393D01*
X122418921Y-94411799D01*
X122317933Y-94411799D01*
X122317933Y-92839075D01*
X122396795Y-92827249D01*
X122499737Y-92819792D01*
X122626246Y-92823247D01*
G36*
X122827497Y-90757578D02*
G01*
X122948794Y-90758209D01*
X123052008Y-90759415D01*
X123133410Y-90761150D01*
X123189275Y-90763367D01*
X123215875Y-90766018D01*
X123217476Y-90766698D01*
X123222439Y-90786200D01*
X123230343Y-90835104D01*
X123240627Y-90909124D01*
X123252730Y-91003976D01*
X123266092Y-91115377D01*
X123280151Y-91239042D01*
X123284556Y-91279133D01*
X123298809Y-91407118D01*
X123312564Y-91525422D01*
X123325247Y-91629496D01*
X123336284Y-91714791D01*
X123345099Y-91776760D01*
X123351119Y-91810854D01*
X123352215Y-91814758D01*
X123370540Y-91838483D01*
X123410589Y-91860829D01*
X123477877Y-91884754D01*
X123489383Y-91888277D01*
X123601119Y-91925588D01*
X123731925Y-91975041D01*
X123871272Y-92032316D01*
X124008633Y-92093094D01*
X124127754Y-92150172D01*
X124195697Y-92182838D01*
X124254784Y-92208587D01*
X124297012Y-92224073D01*
X124311494Y-92227051D01*
X124331819Y-92216733D01*
X124374949Y-92187695D01*
X124437381Y-92142540D01*
X124515609Y-92083873D01*
X124606128Y-92014296D01*
X124705434Y-91936414D01*
X124744577Y-91905318D01*
X124845923Y-91825085D01*
X124939395Y-91752170D01*
X125021560Y-91689164D01*
X125088991Y-91638656D01*
X125138256Y-91603238D01*
X125165926Y-91585499D01*
X125170104Y-91583933D01*
X125187762Y-91595413D01*
X125225848Y-91627655D01*
X125280953Y-91677360D01*
X125349672Y-91741231D01*
X125428597Y-91815969D01*
X125514320Y-91898277D01*
X125603435Y-91984857D01*
X125692534Y-92072411D01*
X125778210Y-92157640D01*
X125857056Y-92237247D01*
X125925665Y-92307933D01*
X125980629Y-92366402D01*
X125995999Y-92383354D01*
X126109598Y-92510299D01*
X125817917Y-92881082D01*
X125739583Y-92980860D01*
X125666266Y-93074623D01*
X125601139Y-93158286D01*
X125547375Y-93227760D01*
X125508147Y-93278958D01*
X125486628Y-93307793D01*
X125486265Y-93308303D01*
X125446294Y-93364740D01*
X125540506Y-93570770D01*
X125631856Y-93776409D01*
X125706018Y-93956116D01*
X125762597Y-94108906D01*
X125789589Y-94192752D01*
X125810978Y-94253634D01*
X125833651Y-94300880D01*
X125853020Y-94324970D01*
X125853408Y-94325186D01*
X125877065Y-94330812D01*
X125929993Y-94339246D01*
X126007766Y-94349918D01*
X126105957Y-94362256D01*
X126220140Y-94375691D01*
X126345888Y-94389651D01*
X126390399Y-94394406D01*
X126518106Y-94408270D01*
X126634896Y-94421631D01*
X126736519Y-94433951D01*
X126818729Y-94444689D01*
X126877277Y-94453303D01*
X126907915Y-94459255D01*
X126911301Y-94460649D01*
X126914048Y-94479815D01*
X126916371Y-94529119D01*
X126918223Y-94604836D01*
X126919557Y-94703240D01*
X126920327Y-94820605D01*
X126920485Y-94953205D01*
X126919985Y-95097314D01*
X126919768Y-95132285D01*
X126915333Y-95791407D01*
X126830666Y-95803371D01*
X126790004Y-95808504D01*
X126721520Y-95816461D01*
X126631080Y-95826591D01*
X126524548Y-95838241D01*
X126407792Y-95850762D01*
X126331133Y-95858854D01*
X126213983Y-95871324D01*
X126106159Y-95883145D01*
X126012845Y-95893721D01*
X125939224Y-95902456D01*
X125890480Y-95908754D01*
X125873933Y-95911394D01*
X125855253Y-95918444D01*
X125839044Y-95934312D01*
X125822614Y-95964386D01*
X125803266Y-96014053D01*
X125778306Y-96088699D01*
X125766047Y-96127075D01*
X125735384Y-96215882D01*
X125694179Y-96324113D01*
X125646825Y-96440792D01*
X125597712Y-96554946D01*
X125572933Y-96609671D01*
X125445371Y-96885609D01*
X125484591Y-96939871D01*
X125505516Y-96967480D01*
X125544339Y-97017416D01*
X125597811Y-97085549D01*
X125662683Y-97167753D01*
X125735707Y-97259900D01*
X125808939Y-97351969D01*
X125884401Y-97447628D01*
X125952366Y-97535612D01*
X126010075Y-97612199D01*
X126054767Y-97673670D01*
X126083684Y-97716303D01*
X126094065Y-97736377D01*
X126094066Y-97736444D01*
X126082615Y-97753368D01*
X126050369Y-97790938D01*
X126000490Y-97845903D01*
X125936139Y-97915014D01*
X125860477Y-97995017D01*
X125776665Y-98082663D01*
X125687866Y-98174700D01*
X125597239Y-98267876D01*
X125507946Y-98358942D01*
X125423149Y-98444645D01*
X125346009Y-98521735D01*
X125279686Y-98586960D01*
X125227343Y-98637069D01*
X125192141Y-98668812D01*
X125177564Y-98678999D01*
X125160996Y-98668814D01*
X125121521Y-98640033D01*
X125062599Y-98595314D01*
X124987688Y-98537319D01*
X124900248Y-98468706D01*
X124803736Y-98392137D01*
X124782081Y-98374849D01*
X124682253Y-98295274D01*
X124589201Y-98221499D01*
X124506731Y-98156508D01*
X124438647Y-98103288D01*
X124388755Y-98064825D01*
X124360860Y-98044104D01*
X124358701Y-98042640D01*
X124341629Y-98032741D01*
X124323836Y-98028235D01*
X124300146Y-98030663D01*
X124265383Y-98041568D01*
X124214370Y-98062493D01*
X124141930Y-98094981D01*
X124066205Y-98129810D01*
X123957308Y-98178215D01*
X123835586Y-98229317D01*
X123714531Y-98277623D01*
X123607636Y-98317634D01*
X123588767Y-98324289D01*
X123484769Y-98362089D01*
X123411433Y-98392616D01*
X123366583Y-98416876D01*
X123348209Y-98435436D01*
X123343220Y-98459909D01*
X123335346Y-98513571D01*
X123325144Y-98591922D01*
X123313175Y-98690460D01*
X123299997Y-98804682D01*
X123286169Y-98930088D01*
X123282228Y-98966866D01*
X123268539Y-99093449D01*
X123255632Y-99209082D01*
X123244016Y-99309483D01*
X123234202Y-99390371D01*
X123226699Y-99447463D01*
X123222018Y-99476477D01*
X123221220Y-99479100D01*
X123203120Y-99481908D01*
X123154844Y-99484501D01*
X123080079Y-99486809D01*
X122982514Y-99488760D01*
X122865840Y-99490286D01*
X122733744Y-99491316D01*
X122589915Y-99491780D01*
X122553469Y-99491800D01*
X122378380Y-99491566D01*
X122234596Y-99490811D01*
X122119560Y-99489454D01*
X122030712Y-99487414D01*
X121965495Y-99484609D01*
X121921350Y-99480959D01*
X121895718Y-99476382D01*
X121886042Y-99470797D01*
X121885978Y-99470633D01*
X121882292Y-99448892D01*
X121875614Y-99397929D01*
X121866466Y-99322207D01*
X121855373Y-99226187D01*
X121842859Y-99114332D01*
X121829447Y-98991103D01*
X121826851Y-98966866D01*
X121813211Y-98840555D01*
X121800298Y-98723476D01*
X121788656Y-98620373D01*
X121778829Y-98535986D01*
X121771361Y-98475057D01*
X121766798Y-98442328D01*
X121766382Y-98440070D01*
X121757945Y-98416545D01*
X121739059Y-98398541D01*
X121702654Y-98381903D01*
X121641656Y-98362477D01*
X121627075Y-98358236D01*
X121539465Y-98331323D01*
X121449900Y-98300141D01*
X121352144Y-98262211D01*
X121239961Y-98215058D01*
X121107115Y-98156202D01*
X121028105Y-98120291D01*
X120796611Y-98014386D01*
X120740239Y-98054296D01*
X120712204Y-98075167D01*
X120661664Y-98113838D01*
X120592704Y-98167137D01*
X120509414Y-98231896D01*
X120415880Y-98304943D01*
X120316190Y-98383109D01*
X120312874Y-98385715D01*
X119941881Y-98677225D01*
X119815046Y-98563812D01*
X119763326Y-98515955D01*
X119697929Y-98452960D01*
X119622158Y-98378241D01*
X119539312Y-98295213D01*
X119452694Y-98207293D01*
X119365605Y-98117894D01*
X119281344Y-98030433D01*
X119203215Y-97948325D01*
X119134517Y-97874985D01*
X119078552Y-97813828D01*
X119038620Y-97768270D01*
X119018024Y-97741725D01*
X119015933Y-97737060D01*
X119026134Y-97718930D01*
X119055010Y-97677862D01*
X119099974Y-97617275D01*
X119158435Y-97540590D01*
X119227804Y-97451224D01*
X119305492Y-97352600D01*
X119337318Y-97312577D01*
X119417589Y-97211133D01*
X119490558Y-97117462D01*
X119553626Y-97035011D01*
X119604197Y-96967231D01*
X119639677Y-96917570D01*
X119657468Y-96889477D01*
X119659051Y-96885146D01*
X119652267Y-96861882D01*
X119633358Y-96814134D01*
X119604877Y-96747936D01*
X119569376Y-96669324D01*
X119551622Y-96631146D01*
X119485407Y-96485327D01*
X119424997Y-96343147D01*
X119372942Y-96211090D01*
X119331793Y-96095635D01*
X119304102Y-96003265D01*
X119303401Y-96000499D01*
X119298517Y-95977779D01*
X119294315Y-95959431D01*
X119287442Y-95944629D01*
X119274549Y-95932551D01*
X119252284Y-95922372D01*
X119217297Y-95913267D01*
X119166238Y-95904414D01*
X119095756Y-95894987D01*
X119002499Y-95884163D01*
X118883118Y-95871117D01*
X118734262Y-95855026D01*
X118694199Y-95850665D01*
X118571564Y-95837095D01*
X118459481Y-95824329D01*
X118362504Y-95812916D01*
X118285185Y-95803402D01*
X118232076Y-95796335D01*
X118207732Y-95792264D01*
X118207169Y-95792086D01*
X118201599Y-95783279D01*
X118197140Y-95759575D01*
X118193725Y-95718342D01*
X118191288Y-95656947D01*
X118189762Y-95572754D01*
X118189082Y-95463131D01*
X118189181Y-95325445D01*
X118189992Y-95157062D01*
X118190236Y-95119222D01*
X118191297Y-94959833D01*
X119800352Y-94959833D01*
X119803137Y-95254621D01*
X119837907Y-95550496D01*
X119896096Y-95811382D01*
X119913565Y-95888157D01*
X119925902Y-95967381D01*
X119930333Y-96029122D01*
X119931927Y-96083121D01*
X119938521Y-96111219D01*
X119952829Y-96121303D01*
X119962324Y-96122066D01*
X119981729Y-96131043D01*
X120006001Y-96160440D01*
X120037634Y-96213957D01*
X120079120Y-96295293D01*
X120079286Y-96295633D01*
X120226939Y-96559941D01*
X120400336Y-96804263D01*
X120597247Y-97027063D01*
X120815440Y-97226805D01*
X121052683Y-97401954D01*
X121306745Y-97550973D01*
X121575395Y-97672327D01*
X121856400Y-97764480D01*
X122147530Y-97825896D01*
X122334866Y-97848092D01*
X122430776Y-97855860D01*
X122503356Y-97860707D01*
X122563014Y-97862634D01*
X122620161Y-97861643D01*
X122685206Y-97857734D01*
X122768559Y-97850908D01*
X122800533Y-97848130D01*
X123107903Y-97805133D01*
X123404637Y-97731038D01*
X123688557Y-97626577D01*
X123957487Y-97492485D01*
X124082144Y-97416820D01*
X124324513Y-97240592D01*
X124545812Y-97039216D01*
X124744265Y-96815378D01*
X124918097Y-96571762D01*
X125065534Y-96311053D01*
X125184801Y-96035936D01*
X125274123Y-95749095D01*
X125316743Y-95549342D01*
X125333702Y-95423250D01*
X125345267Y-95276768D01*
X125351228Y-95120596D01*
X125351379Y-94965437D01*
X125345511Y-94821993D01*
X125333418Y-94700966D01*
X125333230Y-94699666D01*
X125273148Y-94399539D01*
X125182581Y-94111427D01*
X125063103Y-93837290D01*
X124916288Y-93579090D01*
X124743709Y-93338788D01*
X124546941Y-93118342D01*
X124327558Y-92919716D01*
X124087134Y-92744868D01*
X123827241Y-92595760D01*
X123549456Y-92474353D01*
X123545729Y-92472964D01*
X123256927Y-92383306D01*
X122962482Y-92326164D01*
X122665110Y-92301239D01*
X122367530Y-92308227D01*
X122072460Y-92346828D01*
X121782615Y-92416740D01*
X121500715Y-92517662D01*
X121229477Y-92649293D01*
X121064866Y-92748129D01*
X120820626Y-92926096D01*
X120600203Y-93126557D01*
X120404505Y-93347134D01*
X120234438Y-93585449D01*
X120090911Y-93839123D01*
X119974832Y-94105776D01*
X119887107Y-94383032D01*
X119828645Y-94668510D01*
X119800352Y-94959833D01*
X118191297Y-94959833D01*
X118194666Y-94454133D01*
X118685733Y-94400051D01*
X118813386Y-94385713D01*
X118932041Y-94371855D01*
X119036957Y-94359074D01*
X119123393Y-94347964D01*
X119186608Y-94339120D01*
X119221861Y-94333138D01*
X119225210Y-94332318D01*
X119245159Y-94324459D01*
X119262202Y-94310024D01*
X119279066Y-94283846D01*
X119298478Y-94240762D01*
X119323165Y-94175607D01*
X119354140Y-94088122D01*
X119393158Y-93982974D01*
X119441719Y-93861866D01*
X119493944Y-93738987D01*
X119543952Y-93628526D01*
X119549302Y-93617245D01*
X119593524Y-93523139D01*
X119623968Y-93454242D01*
X119642349Y-93405648D01*
X119650383Y-93372452D01*
X119649786Y-93349748D01*
X119646321Y-93339789D01*
X119631368Y-93317094D01*
X119598110Y-93271862D01*
X119549488Y-93207921D01*
X119488448Y-93129105D01*
X119417934Y-93039244D01*
X119340890Y-92942170D01*
X119338040Y-92938600D01*
X119260981Y-92841754D01*
X119190406Y-92752437D01*
X119129231Y-92674390D01*
X119080374Y-92611355D01*
X119046752Y-92567074D01*
X119031283Y-92545287D01*
X119031057Y-92544891D01*
X119028827Y-92530197D01*
X119037442Y-92508438D01*
X119059531Y-92476175D01*
X119097722Y-92429968D01*
X119154643Y-92366380D01*
X119227788Y-92287456D01*
X119302285Y-92208962D01*
X119385170Y-92123593D01*
X119473068Y-92034630D01*
X119562606Y-91945352D01*
X119650408Y-91859041D01*
X119733102Y-91778976D01*
X119807312Y-91708438D01*
X119869665Y-91650707D01*
X119916786Y-91609062D01*
X119945301Y-91586785D01*
X119951461Y-91583933D01*
X119968305Y-91594122D01*
X120008053Y-91622924D01*
X120067251Y-91667686D01*
X120142441Y-91725759D01*
X120230170Y-91794491D01*
X120326980Y-91871233D01*
X120351079Y-91890466D01*
X120450702Y-91969698D01*
X120543086Y-92042453D01*
X120624554Y-92105893D01*
X120691430Y-92157178D01*
X120740038Y-92193471D01*
X120766701Y-92211933D01*
X120769114Y-92213253D01*
X120788852Y-92216789D01*
X120819660Y-92211525D01*
X120866043Y-92195888D01*
X120932508Y-92168303D01*
X121023560Y-92127195D01*
X121048514Y-92115634D01*
X121156911Y-92067149D01*
X121278519Y-92015829D01*
X121399544Y-91967325D01*
X121506193Y-91927289D01*
X121520860Y-91922096D01*
X121616503Y-91887561D01*
X121684094Y-91860401D01*
X121728084Y-91838467D01*
X121752920Y-91819612D01*
X121761847Y-91805688D01*
X121767399Y-91779013D01*
X121775711Y-91723779D01*
X121786124Y-91645119D01*
X121797978Y-91548169D01*
X121810613Y-91438062D01*
X121819245Y-91358938D01*
X121832153Y-91238768D01*
X121844555Y-91124482D01*
X121855785Y-91022140D01*
X121865175Y-90937803D01*
X121872057Y-90877529D01*
X121874660Y-90855800D01*
X121886268Y-90762666D01*
X122545552Y-90758231D01*
X122691840Y-90757570D01*
X122827497Y-90757578D01*
G37*
X122827497Y-90757578D02*
X122948794Y-90758209D01*
X123052008Y-90759415D01*
X123133410Y-90761150D01*
X123189275Y-90763367D01*
X123215875Y-90766018D01*
X123217476Y-90766698D01*
X123222439Y-90786200D01*
X123230343Y-90835104D01*
X123240627Y-90909124D01*
X123252730Y-91003976D01*
X123266092Y-91115377D01*
X123280151Y-91239042D01*
X123284556Y-91279133D01*
X123298809Y-91407118D01*
X123312564Y-91525422D01*
X123325247Y-91629496D01*
X123336284Y-91714791D01*
X123345099Y-91776760D01*
X123351119Y-91810854D01*
X123352215Y-91814758D01*
X123370540Y-91838483D01*
X123410589Y-91860829D01*
X123477877Y-91884754D01*
X123489383Y-91888277D01*
X123601119Y-91925588D01*
X123731925Y-91975041D01*
X123871272Y-92032316D01*
X124008633Y-92093094D01*
X124127754Y-92150172D01*
X124195697Y-92182838D01*
X124254784Y-92208587D01*
X124297012Y-92224073D01*
X124311494Y-92227051D01*
X124331819Y-92216733D01*
X124374949Y-92187695D01*
X124437381Y-92142540D01*
X124515609Y-92083873D01*
X124606128Y-92014296D01*
X124705434Y-91936414D01*
X124744577Y-91905318D01*
X124845923Y-91825085D01*
X124939395Y-91752170D01*
X125021560Y-91689164D01*
X125088991Y-91638656D01*
X125138256Y-91603238D01*
X125165926Y-91585499D01*
X125170104Y-91583933D01*
X125187762Y-91595413D01*
X125225848Y-91627655D01*
X125280953Y-91677360D01*
X125349672Y-91741231D01*
X125428597Y-91815969D01*
X125514320Y-91898277D01*
X125603435Y-91984857D01*
X125692534Y-92072411D01*
X125778210Y-92157640D01*
X125857056Y-92237247D01*
X125925665Y-92307933D01*
X125980629Y-92366402D01*
X125995999Y-92383354D01*
X126109598Y-92510299D01*
X125817917Y-92881082D01*
X125739583Y-92980860D01*
X125666266Y-93074623D01*
X125601139Y-93158286D01*
X125547375Y-93227760D01*
X125508147Y-93278958D01*
X125486628Y-93307793D01*
X125486265Y-93308303D01*
X125446294Y-93364740D01*
X125540506Y-93570770D01*
X125631856Y-93776409D01*
X125706018Y-93956116D01*
X125762597Y-94108906D01*
X125789589Y-94192752D01*
X125810978Y-94253634D01*
X125833651Y-94300880D01*
X125853020Y-94324970D01*
X125853408Y-94325186D01*
X125877065Y-94330812D01*
X125929993Y-94339246D01*
X126007766Y-94349918D01*
X126105957Y-94362256D01*
X126220140Y-94375691D01*
X126345888Y-94389651D01*
X126390399Y-94394406D01*
X126518106Y-94408270D01*
X126634896Y-94421631D01*
X126736519Y-94433951D01*
X126818729Y-94444689D01*
X126877277Y-94453303D01*
X126907915Y-94459255D01*
X126911301Y-94460649D01*
X126914048Y-94479815D01*
X126916371Y-94529119D01*
X126918223Y-94604836D01*
X126919557Y-94703240D01*
X126920327Y-94820605D01*
X126920485Y-94953205D01*
X126919985Y-95097314D01*
X126919768Y-95132285D01*
X126915333Y-95791407D01*
X126830666Y-95803371D01*
X126790004Y-95808504D01*
X126721520Y-95816461D01*
X126631080Y-95826591D01*
X126524548Y-95838241D01*
X126407792Y-95850762D01*
X126331133Y-95858854D01*
X126213983Y-95871324D01*
X126106159Y-95883145D01*
X126012845Y-95893721D01*
X125939224Y-95902456D01*
X125890480Y-95908754D01*
X125873933Y-95911394D01*
X125855253Y-95918444D01*
X125839044Y-95934312D01*
X125822614Y-95964386D01*
X125803266Y-96014053D01*
X125778306Y-96088699D01*
X125766047Y-96127075D01*
X125735384Y-96215882D01*
X125694179Y-96324113D01*
X125646825Y-96440792D01*
X125597712Y-96554946D01*
X125572933Y-96609671D01*
X125445371Y-96885609D01*
X125484591Y-96939871D01*
X125505516Y-96967480D01*
X125544339Y-97017416D01*
X125597811Y-97085549D01*
X125662683Y-97167753D01*
X125735707Y-97259900D01*
X125808939Y-97351969D01*
X125884401Y-97447628D01*
X125952366Y-97535612D01*
X126010075Y-97612199D01*
X126054767Y-97673670D01*
X126083684Y-97716303D01*
X126094065Y-97736377D01*
X126094066Y-97736444D01*
X126082615Y-97753368D01*
X126050369Y-97790938D01*
X126000490Y-97845903D01*
X125936139Y-97915014D01*
X125860477Y-97995017D01*
X125776665Y-98082663D01*
X125687866Y-98174700D01*
X125597239Y-98267876D01*
X125507946Y-98358942D01*
X125423149Y-98444645D01*
X125346009Y-98521735D01*
X125279686Y-98586960D01*
X125227343Y-98637069D01*
X125192141Y-98668812D01*
X125177564Y-98678999D01*
X125160996Y-98668814D01*
X125121521Y-98640033D01*
X125062599Y-98595314D01*
X124987688Y-98537319D01*
X124900248Y-98468706D01*
X124803736Y-98392137D01*
X124782081Y-98374849D01*
X124682253Y-98295274D01*
X124589201Y-98221499D01*
X124506731Y-98156508D01*
X124438647Y-98103288D01*
X124388755Y-98064825D01*
X124360860Y-98044104D01*
X124358701Y-98042640D01*
X124341629Y-98032741D01*
X124323836Y-98028235D01*
X124300146Y-98030663D01*
X124265383Y-98041568D01*
X124214370Y-98062493D01*
X124141930Y-98094981D01*
X124066205Y-98129810D01*
X123957308Y-98178215D01*
X123835586Y-98229317D01*
X123714531Y-98277623D01*
X123607636Y-98317634D01*
X123588767Y-98324289D01*
X123484769Y-98362089D01*
X123411433Y-98392616D01*
X123366583Y-98416876D01*
X123348209Y-98435436D01*
X123343220Y-98459909D01*
X123335346Y-98513571D01*
X123325144Y-98591922D01*
X123313175Y-98690460D01*
X123299997Y-98804682D01*
X123286169Y-98930088D01*
X123282228Y-98966866D01*
X123268539Y-99093449D01*
X123255632Y-99209082D01*
X123244016Y-99309483D01*
X123234202Y-99390371D01*
X123226699Y-99447463D01*
X123222018Y-99476477D01*
X123221220Y-99479100D01*
X123203120Y-99481908D01*
X123154844Y-99484501D01*
X123080079Y-99486809D01*
X122982514Y-99488760D01*
X122865840Y-99490286D01*
X122733744Y-99491316D01*
X122589915Y-99491780D01*
X122553469Y-99491800D01*
X122378380Y-99491566D01*
X122234596Y-99490811D01*
X122119560Y-99489454D01*
X122030712Y-99487414D01*
X121965495Y-99484609D01*
X121921350Y-99480959D01*
X121895718Y-99476382D01*
X121886042Y-99470797D01*
X121885978Y-99470633D01*
X121882292Y-99448892D01*
X121875614Y-99397929D01*
X121866466Y-99322207D01*
X121855373Y-99226187D01*
X121842859Y-99114332D01*
X121829447Y-98991103D01*
X121826851Y-98966866D01*
X121813211Y-98840555D01*
X121800298Y-98723476D01*
X121788656Y-98620373D01*
X121778829Y-98535986D01*
X121771361Y-98475057D01*
X121766798Y-98442328D01*
X121766382Y-98440070D01*
X121757945Y-98416545D01*
X121739059Y-98398541D01*
X121702654Y-98381903D01*
X121641656Y-98362477D01*
X121627075Y-98358236D01*
X121539465Y-98331323D01*
X121449900Y-98300141D01*
X121352144Y-98262211D01*
X121239961Y-98215058D01*
X121107115Y-98156202D01*
X121028105Y-98120291D01*
X120796611Y-98014386D01*
X120740239Y-98054296D01*
X120712204Y-98075167D01*
X120661664Y-98113838D01*
X120592704Y-98167137D01*
X120509414Y-98231896D01*
X120415880Y-98304943D01*
X120316190Y-98383109D01*
X120312874Y-98385715D01*
X119941881Y-98677225D01*
X119815046Y-98563812D01*
X119763326Y-98515955D01*
X119697929Y-98452960D01*
X119622158Y-98378241D01*
X119539312Y-98295213D01*
X119452694Y-98207293D01*
X119365605Y-98117894D01*
X119281344Y-98030433D01*
X119203215Y-97948325D01*
X119134517Y-97874985D01*
X119078552Y-97813828D01*
X119038620Y-97768270D01*
X119018024Y-97741725D01*
X119015933Y-97737060D01*
X119026134Y-97718930D01*
X119055010Y-97677862D01*
X119099974Y-97617275D01*
X119158435Y-97540590D01*
X119227804Y-97451224D01*
X119305492Y-97352600D01*
X119337318Y-97312577D01*
X119417589Y-97211133D01*
X119490558Y-97117462D01*
X119553626Y-97035011D01*
X119604197Y-96967231D01*
X119639677Y-96917570D01*
X119657468Y-96889477D01*
X119659051Y-96885146D01*
X119652267Y-96861882D01*
X119633358Y-96814134D01*
X119604877Y-96747936D01*
X119569376Y-96669324D01*
X119551622Y-96631146D01*
X119485407Y-96485327D01*
X119424997Y-96343147D01*
X119372942Y-96211090D01*
X119331793Y-96095635D01*
X119304102Y-96003265D01*
X119303401Y-96000499D01*
X119298517Y-95977779D01*
X119294315Y-95959431D01*
X119287442Y-95944629D01*
X119274549Y-95932551D01*
X119252284Y-95922372D01*
X119217297Y-95913267D01*
X119166238Y-95904414D01*
X119095756Y-95894987D01*
X119002499Y-95884163D01*
X118883118Y-95871117D01*
X118734262Y-95855026D01*
X118694199Y-95850665D01*
X118571564Y-95837095D01*
X118459481Y-95824329D01*
X118362504Y-95812916D01*
X118285185Y-95803402D01*
X118232076Y-95796335D01*
X118207732Y-95792264D01*
X118207169Y-95792086D01*
X118201599Y-95783279D01*
X118197140Y-95759575D01*
X118193725Y-95718342D01*
X118191288Y-95656947D01*
X118189762Y-95572754D01*
X118189082Y-95463131D01*
X118189181Y-95325445D01*
X118189992Y-95157062D01*
X118190236Y-95119222D01*
X118191297Y-94959833D01*
X119800352Y-94959833D01*
X119803137Y-95254621D01*
X119837907Y-95550496D01*
X119896096Y-95811382D01*
X119913565Y-95888157D01*
X119925902Y-95967381D01*
X119930333Y-96029122D01*
X119931927Y-96083121D01*
X119938521Y-96111219D01*
X119952829Y-96121303D01*
X119962324Y-96122066D01*
X119981729Y-96131043D01*
X120006001Y-96160440D01*
X120037634Y-96213957D01*
X120079120Y-96295293D01*
X120079286Y-96295633D01*
X120226939Y-96559941D01*
X120400336Y-96804263D01*
X120597247Y-97027063D01*
X120815440Y-97226805D01*
X121052683Y-97401954D01*
X121306745Y-97550973D01*
X121575395Y-97672327D01*
X121856400Y-97764480D01*
X122147530Y-97825896D01*
X122334866Y-97848092D01*
X122430776Y-97855860D01*
X122503356Y-97860707D01*
X122563014Y-97862634D01*
X122620161Y-97861643D01*
X122685206Y-97857734D01*
X122768559Y-97850908D01*
X122800533Y-97848130D01*
X123107903Y-97805133D01*
X123404637Y-97731038D01*
X123688557Y-97626577D01*
X123957487Y-97492485D01*
X124082144Y-97416820D01*
X124324513Y-97240592D01*
X124545812Y-97039216D01*
X124744265Y-96815378D01*
X124918097Y-96571762D01*
X125065534Y-96311053D01*
X125184801Y-96035936D01*
X125274123Y-95749095D01*
X125316743Y-95549342D01*
X125333702Y-95423250D01*
X125345267Y-95276768D01*
X125351228Y-95120596D01*
X125351379Y-94965437D01*
X125345511Y-94821993D01*
X125333418Y-94700966D01*
X125333230Y-94699666D01*
X125273148Y-94399539D01*
X125182581Y-94111427D01*
X125063103Y-93837290D01*
X124916288Y-93579090D01*
X124743709Y-93338788D01*
X124546941Y-93118342D01*
X124327558Y-92919716D01*
X124087134Y-92744868D01*
X123827241Y-92595760D01*
X123549456Y-92474353D01*
X123545729Y-92472964D01*
X123256927Y-92383306D01*
X122962482Y-92326164D01*
X122665110Y-92301239D01*
X122367530Y-92308227D01*
X122072460Y-92346828D01*
X121782615Y-92416740D01*
X121500715Y-92517662D01*
X121229477Y-92649293D01*
X121064866Y-92748129D01*
X120820626Y-92926096D01*
X120600203Y-93126557D01*
X120404505Y-93347134D01*
X120234438Y-93585449D01*
X120090911Y-93839123D01*
X119974832Y-94105776D01*
X119887107Y-94383032D01*
X119828645Y-94668510D01*
X119800352Y-94959833D01*
X118191297Y-94959833D01*
X118194666Y-94454133D01*
X118685733Y-94400051D01*
X118813386Y-94385713D01*
X118932041Y-94371855D01*
X119036957Y-94359074D01*
X119123393Y-94347964D01*
X119186608Y-94339120D01*
X119221861Y-94333138D01*
X119225210Y-94332318D01*
X119245159Y-94324459D01*
X119262202Y-94310024D01*
X119279066Y-94283846D01*
X119298478Y-94240762D01*
X119323165Y-94175607D01*
X119354140Y-94088122D01*
X119393158Y-93982974D01*
X119441719Y-93861866D01*
X119493944Y-93738987D01*
X119543952Y-93628526D01*
X119549302Y-93617245D01*
X119593524Y-93523139D01*
X119623968Y-93454242D01*
X119642349Y-93405648D01*
X119650383Y-93372452D01*
X119649786Y-93349748D01*
X119646321Y-93339789D01*
X119631368Y-93317094D01*
X119598110Y-93271862D01*
X119549488Y-93207921D01*
X119488448Y-93129105D01*
X119417934Y-93039244D01*
X119340890Y-92942170D01*
X119338040Y-92938600D01*
X119260981Y-92841754D01*
X119190406Y-92752437D01*
X119129231Y-92674390D01*
X119080374Y-92611355D01*
X119046752Y-92567074D01*
X119031283Y-92545287D01*
X119031057Y-92544891D01*
X119028827Y-92530197D01*
X119037442Y-92508438D01*
X119059531Y-92476175D01*
X119097722Y-92429968D01*
X119154643Y-92366380D01*
X119227788Y-92287456D01*
X119302285Y-92208962D01*
X119385170Y-92123593D01*
X119473068Y-92034630D01*
X119562606Y-91945352D01*
X119650408Y-91859041D01*
X119733102Y-91778976D01*
X119807312Y-91708438D01*
X119869665Y-91650707D01*
X119916786Y-91609062D01*
X119945301Y-91586785D01*
X119951461Y-91583933D01*
X119968305Y-91594122D01*
X120008053Y-91622924D01*
X120067251Y-91667686D01*
X120142441Y-91725759D01*
X120230170Y-91794491D01*
X120326980Y-91871233D01*
X120351079Y-91890466D01*
X120450702Y-91969698D01*
X120543086Y-92042453D01*
X120624554Y-92105893D01*
X120691430Y-92157178D01*
X120740038Y-92193471D01*
X120766701Y-92211933D01*
X120769114Y-92213253D01*
X120788852Y-92216789D01*
X120819660Y-92211525D01*
X120866043Y-92195888D01*
X120932508Y-92168303D01*
X121023560Y-92127195D01*
X121048514Y-92115634D01*
X121156911Y-92067149D01*
X121278519Y-92015829D01*
X121399544Y-91967325D01*
X121506193Y-91927289D01*
X121520860Y-91922096D01*
X121616503Y-91887561D01*
X121684094Y-91860401D01*
X121728084Y-91838467D01*
X121752920Y-91819612D01*
X121761847Y-91805688D01*
X121767399Y-91779013D01*
X121775711Y-91723779D01*
X121786124Y-91645119D01*
X121797978Y-91548169D01*
X121810613Y-91438062D01*
X121819245Y-91358938D01*
X121832153Y-91238768D01*
X121844555Y-91124482D01*
X121855785Y-91022140D01*
X121865175Y-90937803D01*
X121872057Y-90877529D01*
X121874660Y-90855800D01*
X121886268Y-90762666D01*
X122545552Y-90758231D01*
X122691840Y-90757570D01*
X122827497Y-90757578D01*
G04 #@! TD*
%LPC*%
D12*
G04 #@! TO.C,F1*
X81407000Y-94367000D03*
X81407000Y-116967000D03*
G04 #@! TD*
D13*
G04 #@! TO.C,U2*
X89408000Y-97917000D03*
D14*
X89408000Y-115697000D03*
X130048000Y-97917000D03*
X130048000Y-115697000D03*
G04 #@! TD*
D15*
G04 #@! TO.C,U1*
X117389000Y-110858000D03*
X102489000Y-110858000D03*
X117389000Y-102108000D03*
X102489000Y-102108000D03*
G04 #@! TD*
G04 #@! TO.C,J7*
G36*
G01*
X88663000Y-88468000D02*
X90913000Y-88468000D01*
G75*
G02*
X91788000Y-89343000I0J-875000D01*
G01*
X91788000Y-91093000D01*
G75*
G02*
X90913000Y-91968000I-875000J0D01*
G01*
X88663000Y-91968000D01*
G75*
G02*
X87788000Y-91093000I0J875000D01*
G01*
X87788000Y-89343000D01*
G75*
G02*
X88663000Y-88468000I875000J0D01*
G01*
G37*
G36*
G01*
X93488000Y-85218000D02*
X95488000Y-85218000D01*
G75*
G02*
X96488000Y-86218000I0J-1000000D01*
G01*
X96488000Y-88218000D01*
G75*
G02*
X95488000Y-89218000I-1000000J0D01*
G01*
X93488000Y-89218000D01*
G75*
G02*
X92488000Y-88218000I0J1000000D01*
G01*
X92488000Y-86218000D01*
G75*
G02*
X93488000Y-85218000I1000000J0D01*
G01*
G37*
D16*
X94488000Y-93218000D03*
G04 #@! TD*
D17*
G04 #@! TO.C,JP2*
X89789000Y-121539000D03*
D18*
X89789000Y-124079000D03*
G04 #@! TD*
D17*
G04 #@! TO.C,JP1*
X92583000Y-121539000D03*
D18*
X92583000Y-124079000D03*
G04 #@! TD*
D17*
G04 #@! TO.C,J8*
X125222000Y-88519000D03*
X122682000Y-88519000D03*
D18*
X120142000Y-88519000D03*
G04 #@! TD*
D17*
G04 #@! TO.C,J6*
X125222000Y-85852000D03*
X122682000Y-85852000D03*
D18*
X120142000Y-85852000D03*
G04 #@! TD*
D17*
G04 #@! TO.C,J5*
X117602000Y-85852000D03*
X115062000Y-85852000D03*
D18*
X112522000Y-85852000D03*
G04 #@! TD*
G04 #@! TO.C,J4*
X104902000Y-88519000D03*
D17*
X107442000Y-88519000D03*
X109982000Y-88519000D03*
G04 #@! TD*
G04 #@! TO.C,J3*
X117602000Y-88519000D03*
X115062000Y-88519000D03*
D18*
X112522000Y-88519000D03*
G04 #@! TD*
D17*
G04 #@! TO.C,J2*
X109982000Y-85852000D03*
X107442000Y-85852000D03*
D18*
X104902000Y-85852000D03*
G04 #@! TD*
D17*
G04 #@! TO.C,J1*
X125603000Y-123571000D03*
D18*
X125603000Y-121031000D03*
G04 #@! TD*
D19*
G04 #@! TO.C,H4*
X80010000Y-123063000D03*
G04 #@! TD*
G04 #@! TO.C,H3*
X130683000Y-122809000D03*
G04 #@! TD*
G04 #@! TO.C,H2*
X79883000Y-87249000D03*
G04 #@! TD*
G04 #@! TO.C,H1*
X130683000Y-86995000D03*
G04 #@! TD*
D20*
G04 #@! TO.C,D3*
X99949000Y-125222000D03*
D21*
X97409000Y-125222000D03*
G04 #@! TD*
D20*
G04 #@! TO.C,D2*
X108839000Y-125222000D03*
D21*
X106299000Y-125222000D03*
G04 #@! TD*
M02*
