%MOIN*%
%OFA0B0*%
%FSLAX46Y46*%
%IPPOS*%
%LPD*%
%AMRoundRect*
4,1,4,
0.07874015748031496,0.11811023622047245,
0.15748031496062992,0.19685039370078741,
0.23622047244094491,0.27559055118110237,
0.31496062992125984,0.35433070866141736,
0.07874015748031496,0.11811023622047245,
0*
1,1,$1,$2,$3*
1,1,$1,$2,$3*
1,1,$1,$2,$3*
1,1,$1,$2,$3*
20,1,$1,$2,$3,$4,$5,0*
20,1,$1,$2,$3,$4,$5,0*
20,1,$1,$2,$3,$4,$5,0*
20,1,$1,$2,$3,$4,$5,0*%
%AMCOMP159*
4,1,3,
0.015748031496062995,0.024606299212598427,
-0.015748031496062995,0.024606299212598427,
-0.015748031496062995,-0.024606299212598427,
0.015748031496062995,-0.024606299212598427,
0*
4,1,19,
0.015748031496062995,0.034448818897637797,
0.018789537346210115,0.033967091695818442,
0.02153331941232749,0.032569064905265233,
0.0237107971887298,0.030391587128862928,
0.025108823979283011,0.027647805062745546,
0.025590551181102365,0.024606299212598427,
0.025108823979283011,0.021564793362451307,
0.0237107971887298,0.018821011296333928,
0.021533319412327497,0.016643533519931621,
0.018789537346210115,0.015245506729378409,
0.015748031496062995,0.014763779527559057,
0.012706525645915871,0.015245506729378409,
0.009962743579798497,0.016643533519931621,
0.0077852658033961885,0.018821011296333925,
0.0063872390128429787,0.021564793362451307,
0.0059055118110236228,0.024606299212598427,
0.006387239012842977,0.027647805062745546,
0.0077852658033961868,0.030391587128862925,
0.0099627435797984918,0.032569064905265233,
0.012706525645915871,0.033967091695818442,
0*
4,1,19,
-0.015748031496062995,0.034448818897637797,
-0.012706525645915873,0.033967091695818442,
-0.0099627435797984935,0.032569064905265233,
-0.0077852658033961877,0.030391587128862928,
-0.0063872390128429787,0.027647805062745546,
-0.0059055118110236228,0.024606299212598427,
-0.006387239012842977,0.021564793362451307,
-0.0077852658033961877,0.018821011296333928,
-0.0099627435797984918,0.016643533519931621,
-0.012706525645915873,0.015245506729378409,
-0.015748031496062992,0.014763779527559057,
-0.018789537346210118,0.015245506729378409,
-0.02153331941232749,0.016643533519931621,
-0.0237107971887298,0.018821011296333925,
-0.025108823979283011,0.021564793362451307,
-0.025590551181102365,0.024606299212598427,
-0.025108823979283011,0.027647805062745546,
-0.0237107971887298,0.030391587128862925,
-0.021533319412327497,0.032569064905265233,
-0.018789537346210118,0.033967091695818442,
0*
4,1,19,
-0.015748031496062995,-0.014763779527559057,
-0.012706525645915873,-0.015245506729378409,
-0.0099627435797984935,-0.016643533519931621,
-0.0077852658033961877,-0.018821011296333928,
-0.0063872390128429787,-0.021564793362451307,
-0.0059055118110236228,-0.024606299212598427,
-0.006387239012842977,-0.027647805062745546,
-0.0077852658033961877,-0.030391587128862925,
-0.0099627435797984918,-0.032569064905265233,
-0.012706525645915873,-0.033967091695818442,
-0.015748031496062992,-0.034448818897637797,
-0.018789537346210118,-0.033967091695818442,
-0.02153331941232749,-0.032569064905265233,
-0.0237107971887298,-0.030391587128862928,
-0.025108823979283011,-0.027647805062745546,
-0.025590551181102365,-0.024606299212598427,
-0.025108823979283011,-0.021564793362451307,
-0.0237107971887298,-0.018821011296333928,
-0.021533319412327497,-0.016643533519931621,
-0.018789537346210118,-0.015245506729378409,
0*
4,1,19,
0.015748031496062995,-0.014763779527559057,
0.018789537346210115,-0.015245506729378409,
0.02153331941232749,-0.016643533519931621,
0.0237107971887298,-0.018821011296333928,
0.025108823979283011,-0.021564793362451307,
0.025590551181102365,-0.024606299212598427,
0.025108823979283011,-0.027647805062745546,
0.0237107971887298,-0.030391587128862925,
0.021533319412327497,-0.032569064905265233,
0.018789537346210115,-0.033967091695818442,
0.015748031496062995,-0.034448818897637797,
0.012706525645915871,-0.033967091695818442,
0.009962743579798497,-0.032569064905265233,
0.0077852658033961885,-0.030391587128862928,
0.0063872390128429787,-0.027647805062745546,
0.0059055118110236228,-0.024606299212598427,
0.006387239012842977,-0.021564793362451307,
0.0077852658033961868,-0.018821011296333928,
0.0099627435797984918,-0.016643533519931621,
0.012706525645915871,-0.015245506729378409,
0*
4,1,3,
0.015748031496062995,0.034448818897637797,
0.015748031496062995,0.014763779527559057,
-0.015748031496062995,0.014763779527559057,
-0.015748031496062995,0.034448818897637797,
0*
4,1,3,
-0.025590551181102365,0.024606299212598427,
-0.0059055118110236228,0.024606299212598427,
-0.0059055118110236228,-0.024606299212598427,
-0.025590551181102365,-0.024606299212598427,
0*
4,1,3,
-0.015748031496062995,-0.034448818897637797,
-0.015748031496062995,-0.014763779527559057,
0.015748031496062995,-0.014763779527559057,
0.015748031496062995,-0.034448818897637797,
0*
4,1,3,
0.025590551181102365,-0.024606299212598427,
0.0059055118110236228,-0.024606299212598427,
0.0059055118110236228,0.024606299212598427,
0.025590551181102365,0.024606299212598427,
0*%
%AMCOMP160*
4,1,3,
-0.015748031496062995,-0.024606299212598427,
0.015748031496062995,-0.024606299212598427,
0.015748031496062995,0.024606299212598427,
-0.015748031496062995,0.024606299212598427,
0*
4,1,19,
-0.015748031496062995,-0.014763779527559057,
-0.012706525645915873,-0.015245506729378409,
-0.0099627435797984935,-0.016643533519931621,
-0.0077852658033961877,-0.018821011296333928,
-0.0063872390128429787,-0.021564793362451307,
-0.0059055118110236228,-0.024606299212598427,
-0.006387239012842977,-0.027647805062745546,
-0.0077852658033961877,-0.030391587128862925,
-0.0099627435797984918,-0.032569064905265233,
-0.012706525645915873,-0.033967091695818442,
-0.015748031496062992,-0.034448818897637797,
-0.018789537346210118,-0.033967091695818442,
-0.02153331941232749,-0.032569064905265233,
-0.0237107971887298,-0.030391587128862928,
-0.025108823979283011,-0.027647805062745546,
-0.025590551181102365,-0.024606299212598427,
-0.025108823979283011,-0.021564793362451307,
-0.0237107971887298,-0.018821011296333928,
-0.021533319412327497,-0.016643533519931621,
-0.018789537346210118,-0.015245506729378409,
0*
4,1,19,
0.015748031496062995,-0.014763779527559057,
0.018789537346210115,-0.015245506729378409,
0.02153331941232749,-0.016643533519931621,
0.0237107971887298,-0.018821011296333928,
0.025108823979283011,-0.021564793362451307,
0.025590551181102365,-0.024606299212598427,
0.025108823979283011,-0.027647805062745546,
0.0237107971887298,-0.030391587128862925,
0.021533319412327497,-0.032569064905265233,
0.018789537346210115,-0.033967091695818442,
0.015748031496062995,-0.034448818897637797,
0.012706525645915871,-0.033967091695818442,
0.009962743579798497,-0.032569064905265233,
0.0077852658033961885,-0.030391587128862928,
0.0063872390128429787,-0.027647805062745546,
0.0059055118110236228,-0.024606299212598427,
0.006387239012842977,-0.021564793362451307,
0.0077852658033961868,-0.018821011296333928,
0.0099627435797984918,-0.016643533519931621,
0.012706525645915871,-0.015245506729378409,
0*
4,1,19,
0.015748031496062995,0.034448818897637797,
0.018789537346210115,0.033967091695818442,
0.02153331941232749,0.032569064905265233,
0.0237107971887298,0.030391587128862928,
0.025108823979283011,0.027647805062745546,
0.025590551181102365,0.024606299212598427,
0.025108823979283011,0.021564793362451307,
0.0237107971887298,0.018821011296333928,
0.021533319412327497,0.016643533519931621,
0.018789537346210115,0.015245506729378409,
0.015748031496062995,0.014763779527559057,
0.012706525645915871,0.015245506729378409,
0.009962743579798497,0.016643533519931621,
0.0077852658033961885,0.018821011296333925,
0.0063872390128429787,0.021564793362451307,
0.0059055118110236228,0.024606299212598427,
0.006387239012842977,0.027647805062745546,
0.0077852658033961868,0.030391587128862925,
0.0099627435797984918,0.032569064905265233,
0.012706525645915871,0.033967091695818442,
0*
4,1,19,
-0.015748031496062995,0.034448818897637797,
-0.012706525645915873,0.033967091695818442,
-0.0099627435797984935,0.032569064905265233,
-0.0077852658033961877,0.030391587128862928,
-0.0063872390128429787,0.027647805062745546,
-0.0059055118110236228,0.024606299212598427,
-0.006387239012842977,0.021564793362451307,
-0.0077852658033961877,0.018821011296333928,
-0.0099627435797984918,0.016643533519931621,
-0.012706525645915873,0.015245506729378409,
-0.015748031496062992,0.014763779527559057,
-0.018789537346210118,0.015245506729378409,
-0.02153331941232749,0.016643533519931621,
-0.0237107971887298,0.018821011296333925,
-0.025108823979283011,0.021564793362451307,
-0.025590551181102365,0.024606299212598427,
-0.025108823979283011,0.027647805062745546,
-0.0237107971887298,0.030391587128862925,
-0.021533319412327497,0.032569064905265233,
-0.018789537346210118,0.033967091695818442,
0*
4,1,3,
-0.015748031496062995,-0.034448818897637797,
-0.015748031496062995,-0.014763779527559057,
0.015748031496062995,-0.014763779527559057,
0.015748031496062995,-0.034448818897637797,
0*
4,1,3,
0.025590551181102365,-0.024606299212598427,
0.0059055118110236228,-0.024606299212598427,
0.0059055118110236228,0.024606299212598427,
0.025590551181102365,0.024606299212598427,
0*
4,1,3,
0.015748031496062995,0.034448818897637797,
0.015748031496062995,0.014763779527559057,
-0.015748031496062995,0.014763779527559057,
-0.015748031496062995,0.034448818897637797,
0*
4,1,3,
-0.025590551181102365,0.024606299212598427,
-0.0059055118110236228,0.024606299212598427,
-0.0059055118110236228,-0.024606299212598427,
-0.025590551181102365,-0.024606299212598427,
0*%
%AMRoundRect0*
4,1,4,
0.07874015748031496,0.11811023622047245,
0.15748031496062992,0.19685039370078741,
0.23622047244094491,0.27559055118110237,
0.31496062992125984,0.35433070866141736,
0.07874015748031496,0.11811023622047245,
0*
1,1,$1,$2,$3*
1,1,$1,$2,$3*
1,1,$1,$2,$3*
1,1,$1,$2,$3*
20,1,$1,$2,$3,$4,$5,0*
20,1,$1,$2,$3,$4,$5,0*
20,1,$1,$2,$3,$4,$5,0*
20,1,$1,$2,$3,$4,$5,0*%
%AMCOMP1750*
4,1,3,
0.015748031496062995,0.024606299212598427,
-0.015748031496062995,0.024606299212598427,
-0.015748031496062995,-0.024606299212598427,
0.015748031496062995,-0.024606299212598427,
0*
4,1,19,
0.015748031496062995,0.034448818897637797,
0.018789537346210115,0.033967091695818442,
0.02153331941232749,0.032569064905265233,
0.0237107971887298,0.030391587128862928,
0.025108823979283011,0.027647805062745546,
0.025590551181102365,0.024606299212598427,
0.025108823979283011,0.021564793362451307,
0.0237107971887298,0.018821011296333928,
0.021533319412327497,0.016643533519931621,
0.018789537346210115,0.015245506729378409,
0.015748031496062995,0.014763779527559057,
0.012706525645915871,0.015245506729378409,
0.009962743579798497,0.016643533519931621,
0.0077852658033961885,0.018821011296333925,
0.0063872390128429787,0.021564793362451307,
0.0059055118110236228,0.024606299212598427,
0.006387239012842977,0.027647805062745546,
0.0077852658033961868,0.030391587128862925,
0.0099627435797984918,0.032569064905265233,
0.012706525645915871,0.033967091695818442,
0*
4,1,19,
-0.015748031496062995,0.034448818897637797,
-0.012706525645915873,0.033967091695818442,
-0.0099627435797984935,0.032569064905265233,
-0.0077852658033961877,0.030391587128862928,
-0.0063872390128429787,0.027647805062745546,
-0.0059055118110236228,0.024606299212598427,
-0.006387239012842977,0.021564793362451307,
-0.0077852658033961877,0.018821011296333928,
-0.0099627435797984918,0.016643533519931621,
-0.012706525645915873,0.015245506729378409,
-0.015748031496062992,0.014763779527559057,
-0.018789537346210118,0.015245506729378409,
-0.02153331941232749,0.016643533519931621,
-0.0237107971887298,0.018821011296333925,
-0.025108823979283011,0.021564793362451307,
-0.025590551181102365,0.024606299212598427,
-0.025108823979283011,0.027647805062745546,
-0.0237107971887298,0.030391587128862925,
-0.021533319412327497,0.032569064905265233,
-0.018789537346210118,0.033967091695818442,
0*
4,1,19,
-0.015748031496062995,-0.014763779527559057,
-0.012706525645915873,-0.015245506729378409,
-0.0099627435797984935,-0.016643533519931621,
-0.0077852658033961877,-0.018821011296333928,
-0.0063872390128429787,-0.021564793362451307,
-0.0059055118110236228,-0.024606299212598427,
-0.006387239012842977,-0.027647805062745546,
-0.0077852658033961877,-0.030391587128862925,
-0.0099627435797984918,-0.032569064905265233,
-0.012706525645915873,-0.033967091695818442,
-0.015748031496062992,-0.034448818897637797,
-0.018789537346210118,-0.033967091695818442,
-0.02153331941232749,-0.032569064905265233,
-0.0237107971887298,-0.030391587128862928,
-0.025108823979283011,-0.027647805062745546,
-0.025590551181102365,-0.024606299212598427,
-0.025108823979283011,-0.021564793362451307,
-0.0237107971887298,-0.018821011296333928,
-0.021533319412327497,-0.016643533519931621,
-0.018789537346210118,-0.015245506729378409,
0*
4,1,19,
0.015748031496062995,-0.014763779527559057,
0.018789537346210115,-0.015245506729378409,
0.02153331941232749,-0.016643533519931621,
0.0237107971887298,-0.018821011296333928,
0.025108823979283011,-0.021564793362451307,
0.025590551181102365,-0.024606299212598427,
0.025108823979283011,-0.027647805062745546,
0.0237107971887298,-0.030391587128862925,
0.021533319412327497,-0.032569064905265233,
0.018789537346210115,-0.033967091695818442,
0.015748031496062995,-0.034448818897637797,
0.012706525645915871,-0.033967091695818442,
0.009962743579798497,-0.032569064905265233,
0.0077852658033961885,-0.030391587128862928,
0.0063872390128429787,-0.027647805062745546,
0.0059055118110236228,-0.024606299212598427,
0.006387239012842977,-0.021564793362451307,
0.0077852658033961868,-0.018821011296333928,
0.0099627435797984918,-0.016643533519931621,
0.012706525645915871,-0.015245506729378409,
0*
4,1,3,
0.015748031496062995,0.034448818897637797,
0.015748031496062995,0.014763779527559057,
-0.015748031496062995,0.014763779527559057,
-0.015748031496062995,0.034448818897637797,
0*
4,1,3,
-0.025590551181102365,0.024606299212598427,
-0.0059055118110236228,0.024606299212598427,
-0.0059055118110236228,-0.024606299212598427,
-0.025590551181102365,-0.024606299212598427,
0*
4,1,3,
-0.015748031496062995,-0.034448818897637797,
-0.015748031496062995,-0.014763779527559057,
0.015748031496062995,-0.014763779527559057,
0.015748031496062995,-0.034448818897637797,
0*
4,1,3,
0.025590551181102365,-0.024606299212598427,
0.0059055118110236228,-0.024606299212598427,
0.0059055118110236228,0.024606299212598427,
0.025590551181102365,0.024606299212598427,
0*%
%AMCOMP1760*
4,1,3,
-0.015748031496062995,-0.024606299212598427,
0.015748031496062995,-0.024606299212598427,
0.015748031496062995,0.024606299212598427,
-0.015748031496062995,0.024606299212598427,
0*
4,1,19,
-0.015748031496062995,-0.014763779527559057,
-0.012706525645915873,-0.015245506729378409,
-0.0099627435797984935,-0.016643533519931621,
-0.0077852658033961877,-0.018821011296333928,
-0.0063872390128429787,-0.021564793362451307,
-0.0059055118110236228,-0.024606299212598427,
-0.006387239012842977,-0.027647805062745546,
-0.0077852658033961877,-0.030391587128862925,
-0.0099627435797984918,-0.032569064905265233,
-0.012706525645915873,-0.033967091695818442,
-0.015748031496062992,-0.034448818897637797,
-0.018789537346210118,-0.033967091695818442,
-0.02153331941232749,-0.032569064905265233,
-0.0237107971887298,-0.030391587128862928,
-0.025108823979283011,-0.027647805062745546,
-0.025590551181102365,-0.024606299212598427,
-0.025108823979283011,-0.021564793362451307,
-0.0237107971887298,-0.018821011296333928,
-0.021533319412327497,-0.016643533519931621,
-0.018789537346210118,-0.015245506729378409,
0*
4,1,19,
0.015748031496062995,-0.014763779527559057,
0.018789537346210115,-0.015245506729378409,
0.02153331941232749,-0.016643533519931621,
0.0237107971887298,-0.018821011296333928,
0.025108823979283011,-0.021564793362451307,
0.025590551181102365,-0.024606299212598427,
0.025108823979283011,-0.027647805062745546,
0.0237107971887298,-0.030391587128862925,
0.021533319412327497,-0.032569064905265233,
0.018789537346210115,-0.033967091695818442,
0.015748031496062995,-0.034448818897637797,
0.012706525645915871,-0.033967091695818442,
0.009962743579798497,-0.032569064905265233,
0.0077852658033961885,-0.030391587128862928,
0.0063872390128429787,-0.027647805062745546,
0.0059055118110236228,-0.024606299212598427,
0.006387239012842977,-0.021564793362451307,
0.0077852658033961868,-0.018821011296333928,
0.0099627435797984918,-0.016643533519931621,
0.012706525645915871,-0.015245506729378409,
0*
4,1,19,
0.015748031496062995,0.034448818897637797,
0.018789537346210115,0.033967091695818442,
0.02153331941232749,0.032569064905265233,
0.0237107971887298,0.030391587128862928,
0.025108823979283011,0.027647805062745546,
0.025590551181102365,0.024606299212598427,
0.025108823979283011,0.021564793362451307,
0.0237107971887298,0.018821011296333928,
0.021533319412327497,0.016643533519931621,
0.018789537346210115,0.015245506729378409,
0.015748031496062995,0.014763779527559057,
0.012706525645915871,0.015245506729378409,
0.009962743579798497,0.016643533519931621,
0.0077852658033961885,0.018821011296333925,
0.0063872390128429787,0.021564793362451307,
0.0059055118110236228,0.024606299212598427,
0.006387239012842977,0.027647805062745546,
0.0077852658033961868,0.030391587128862925,
0.0099627435797984918,0.032569064905265233,
0.012706525645915871,0.033967091695818442,
0*
4,1,19,
-0.015748031496062995,0.034448818897637797,
-0.012706525645915873,0.033967091695818442,
-0.0099627435797984935,0.032569064905265233,
-0.0077852658033961877,0.030391587128862928,
-0.0063872390128429787,0.027647805062745546,
-0.0059055118110236228,0.024606299212598427,
-0.006387239012842977,0.021564793362451307,
-0.0077852658033961877,0.018821011296333928,
-0.0099627435797984918,0.016643533519931621,
-0.012706525645915873,0.015245506729378409,
-0.015748031496062992,0.014763779527559057,
-0.018789537346210118,0.015245506729378409,
-0.02153331941232749,0.016643533519931621,
-0.0237107971887298,0.018821011296333925,
-0.025108823979283011,0.021564793362451307,
-0.025590551181102365,0.024606299212598427,
-0.025108823979283011,0.027647805062745546,
-0.0237107971887298,0.030391587128862925,
-0.021533319412327497,0.032569064905265233,
-0.018789537346210118,0.033967091695818442,
0*
4,1,3,
-0.015748031496062995,-0.034448818897637797,
-0.015748031496062995,-0.014763779527559057,
0.015748031496062995,-0.014763779527559057,
0.015748031496062995,-0.034448818897637797,
0*
4,1,3,
0.025590551181102365,-0.024606299212598427,
0.0059055118110236228,-0.024606299212598427,
0.0059055118110236228,0.024606299212598427,
0.025590551181102365,0.024606299212598427,
0*
4,1,3,
0.015748031496062995,0.034448818897637797,
0.015748031496062995,0.014763779527559057,
-0.015748031496062995,0.014763779527559057,
-0.015748031496062995,0.034448818897637797,
0*
4,1,3,
-0.025590551181102365,0.024606299212598427,
-0.0059055118110236228,0.024606299212598427,
-0.0059055118110236228,-0.024606299212598427,
-0.025590551181102365,-0.024606299212598427,
0*%
%AMRoundRect1*
4,1,4,
0.07874015748031496,0.11811023622047245,
0.15748031496062992,0.19685039370078741,
0.23622047244094491,0.27559055118110237,
0.31496062992125984,0.35433070866141736,
0.07874015748031496,0.11811023622047245,
0*
1,1,$1,$2,$3*
1,1,$1,$2,$3*
1,1,$1,$2,$3*
1,1,$1,$2,$3*
20,1,$1,$2,$3,$4,$5,0*
20,1,$1,$2,$3,$4,$5,0*
20,1,$1,$2,$3,$4,$5,0*
20,1,$1,$2,$3,$4,$5,0*%
%AMCOMP1810*
4,1,3,
-0.015748031496062995,-0.024606299212598427,
0.015748031496062995,-0.024606299212598427,
0.015748031496062995,0.024606299212598427,
-0.015748031496062995,0.024606299212598427,
0*
4,1,19,
-0.015748031496062995,-0.014763779527559057,
-0.012706525645915873,-0.015245506729378409,
-0.0099627435797984935,-0.016643533519931621,
-0.0077852658033961877,-0.018821011296333928,
-0.0063872390128429787,-0.021564793362451307,
-0.0059055118110236228,-0.024606299212598427,
-0.006387239012842977,-0.027647805062745546,
-0.0077852658033961877,-0.030391587128862925,
-0.0099627435797984918,-0.032569064905265233,
-0.012706525645915873,-0.033967091695818442,
-0.015748031496062992,-0.034448818897637797,
-0.018789537346210118,-0.033967091695818442,
-0.02153331941232749,-0.032569064905265233,
-0.0237107971887298,-0.030391587128862928,
-0.025108823979283011,-0.027647805062745546,
-0.025590551181102365,-0.024606299212598427,
-0.025108823979283011,-0.021564793362451307,
-0.0237107971887298,-0.018821011296333928,
-0.021533319412327497,-0.016643533519931621,
-0.018789537346210118,-0.015245506729378409,
0*
4,1,19,
0.015748031496062995,-0.014763779527559057,
0.018789537346210115,-0.015245506729378409,
0.02153331941232749,-0.016643533519931621,
0.0237107971887298,-0.018821011296333928,
0.025108823979283011,-0.021564793362451307,
0.025590551181102365,-0.024606299212598427,
0.025108823979283011,-0.027647805062745546,
0.0237107971887298,-0.030391587128862925,
0.021533319412327497,-0.032569064905265233,
0.018789537346210115,-0.033967091695818442,
0.015748031496062995,-0.034448818897637797,
0.012706525645915871,-0.033967091695818442,
0.009962743579798497,-0.032569064905265233,
0.0077852658033961885,-0.030391587128862928,
0.0063872390128429787,-0.027647805062745546,
0.0059055118110236228,-0.024606299212598427,
0.006387239012842977,-0.021564793362451307,
0.0077852658033961868,-0.018821011296333928,
0.0099627435797984918,-0.016643533519931621,
0.012706525645915871,-0.015245506729378409,
0*
4,1,19,
0.015748031496062995,0.034448818897637797,
0.018789537346210115,0.033967091695818442,
0.02153331941232749,0.032569064905265233,
0.0237107971887298,0.030391587128862928,
0.025108823979283011,0.027647805062745546,
0.025590551181102365,0.024606299212598427,
0.025108823979283011,0.021564793362451307,
0.0237107971887298,0.018821011296333928,
0.021533319412327497,0.016643533519931621,
0.018789537346210115,0.015245506729378409,
0.015748031496062995,0.014763779527559057,
0.012706525645915871,0.015245506729378409,
0.009962743579798497,0.016643533519931621,
0.0077852658033961885,0.018821011296333925,
0.0063872390128429787,0.021564793362451307,
0.0059055118110236228,0.024606299212598427,
0.006387239012842977,0.027647805062745546,
0.0077852658033961868,0.030391587128862925,
0.0099627435797984918,0.032569064905265233,
0.012706525645915871,0.033967091695818442,
0*
4,1,19,
-0.015748031496062995,0.034448818897637797,
-0.012706525645915873,0.033967091695818442,
-0.0099627435797984935,0.032569064905265233,
-0.0077852658033961877,0.030391587128862928,
-0.0063872390128429787,0.027647805062745546,
-0.0059055118110236228,0.024606299212598427,
-0.006387239012842977,0.021564793362451307,
-0.0077852658033961877,0.018821011296333928,
-0.0099627435797984918,0.016643533519931621,
-0.012706525645915873,0.015245506729378409,
-0.015748031496062992,0.014763779527559057,
-0.018789537346210118,0.015245506729378409,
-0.02153331941232749,0.016643533519931621,
-0.0237107971887298,0.018821011296333925,
-0.025108823979283011,0.021564793362451307,
-0.025590551181102365,0.024606299212598427,
-0.025108823979283011,0.027647805062745546,
-0.0237107971887298,0.030391587128862925,
-0.021533319412327497,0.032569064905265233,
-0.018789537346210118,0.033967091695818442,
0*
4,1,3,
-0.015748031496062995,-0.034448818897637797,
-0.015748031496062995,-0.014763779527559057,
0.015748031496062995,-0.014763779527559057,
0.015748031496062995,-0.034448818897637797,
0*
4,1,3,
0.025590551181102365,-0.024606299212598427,
0.0059055118110236228,-0.024606299212598427,
0.0059055118110236228,0.024606299212598427,
0.025590551181102365,0.024606299212598427,
0*
4,1,3,
0.015748031496062995,0.034448818897637797,
0.015748031496062995,0.014763779527559057,
-0.015748031496062995,0.014763779527559057,
-0.015748031496062995,0.034448818897637797,
0*
4,1,3,
-0.025590551181102365,0.024606299212598427,
-0.0059055118110236228,0.024606299212598427,
-0.0059055118110236228,-0.024606299212598427,
-0.025590551181102365,-0.024606299212598427,
0*%
%AMCOMP1820*
4,1,3,
0.015748031496062995,0.024606299212598427,
-0.015748031496062995,0.024606299212598427,
-0.015748031496062995,-0.024606299212598427,
0.015748031496062995,-0.024606299212598427,
0*
4,1,19,
0.015748031496062995,0.034448818897637797,
0.018789537346210115,0.033967091695818442,
0.02153331941232749,0.032569064905265233,
0.0237107971887298,0.030391587128862928,
0.025108823979283011,0.027647805062745546,
0.025590551181102365,0.024606299212598427,
0.025108823979283011,0.021564793362451307,
0.0237107971887298,0.018821011296333928,
0.021533319412327497,0.016643533519931621,
0.018789537346210115,0.015245506729378409,
0.015748031496062995,0.014763779527559057,
0.012706525645915871,0.015245506729378409,
0.009962743579798497,0.016643533519931621,
0.0077852658033961885,0.018821011296333925,
0.0063872390128429787,0.021564793362451307,
0.0059055118110236228,0.024606299212598427,
0.006387239012842977,0.027647805062745546,
0.0077852658033961868,0.030391587128862925,
0.0099627435797984918,0.032569064905265233,
0.012706525645915871,0.033967091695818442,
0*
4,1,19,
-0.015748031496062995,0.034448818897637797,
-0.012706525645915873,0.033967091695818442,
-0.0099627435797984935,0.032569064905265233,
-0.0077852658033961877,0.030391587128862928,
-0.0063872390128429787,0.027647805062745546,
-0.0059055118110236228,0.024606299212598427,
-0.006387239012842977,0.021564793362451307,
-0.0077852658033961877,0.018821011296333928,
-0.0099627435797984918,0.016643533519931621,
-0.012706525645915873,0.015245506729378409,
-0.015748031496062992,0.014763779527559057,
-0.018789537346210118,0.015245506729378409,
-0.02153331941232749,0.016643533519931621,
-0.0237107971887298,0.018821011296333925,
-0.025108823979283011,0.021564793362451307,
-0.025590551181102365,0.024606299212598427,
-0.025108823979283011,0.027647805062745546,
-0.0237107971887298,0.030391587128862925,
-0.021533319412327497,0.032569064905265233,
-0.018789537346210118,0.033967091695818442,
0*
4,1,19,
-0.015748031496062995,-0.014763779527559057,
-0.012706525645915873,-0.015245506729378409,
-0.0099627435797984935,-0.016643533519931621,
-0.0077852658033961877,-0.018821011296333928,
-0.0063872390128429787,-0.021564793362451307,
-0.0059055118110236228,-0.024606299212598427,
-0.006387239012842977,-0.027647805062745546,
-0.0077852658033961877,-0.030391587128862925,
-0.0099627435797984918,-0.032569064905265233,
-0.012706525645915873,-0.033967091695818442,
-0.015748031496062992,-0.034448818897637797,
-0.018789537346210118,-0.033967091695818442,
-0.02153331941232749,-0.032569064905265233,
-0.0237107971887298,-0.030391587128862928,
-0.025108823979283011,-0.027647805062745546,
-0.025590551181102365,-0.024606299212598427,
-0.025108823979283011,-0.021564793362451307,
-0.0237107971887298,-0.018821011296333928,
-0.021533319412327497,-0.016643533519931621,
-0.018789537346210118,-0.015245506729378409,
0*
4,1,19,
0.015748031496062995,-0.014763779527559057,
0.018789537346210115,-0.015245506729378409,
0.02153331941232749,-0.016643533519931621,
0.0237107971887298,-0.018821011296333928,
0.025108823979283011,-0.021564793362451307,
0.025590551181102365,-0.024606299212598427,
0.025108823979283011,-0.027647805062745546,
0.0237107971887298,-0.030391587128862925,
0.021533319412327497,-0.032569064905265233,
0.018789537346210115,-0.033967091695818442,
0.015748031496062995,-0.034448818897637797,
0.012706525645915871,-0.033967091695818442,
0.009962743579798497,-0.032569064905265233,
0.0077852658033961885,-0.030391587128862928,
0.0063872390128429787,-0.027647805062745546,
0.0059055118110236228,-0.024606299212598427,
0.006387239012842977,-0.021564793362451307,
0.0077852658033961868,-0.018821011296333928,
0.0099627435797984918,-0.016643533519931621,
0.012706525645915871,-0.015245506729378409,
0*
4,1,3,
0.015748031496062995,0.034448818897637797,
0.015748031496062995,0.014763779527559057,
-0.015748031496062995,0.014763779527559057,
-0.015748031496062995,0.034448818897637797,
0*
4,1,3,
-0.025590551181102365,0.024606299212598427,
-0.0059055118110236228,0.024606299212598427,
-0.0059055118110236228,-0.024606299212598427,
-0.025590551181102365,-0.024606299212598427,
0*
4,1,3,
-0.015748031496062995,-0.034448818897637797,
-0.015748031496062995,-0.014763779527559057,
0.015748031496062995,-0.014763779527559057,
0.015748031496062995,-0.034448818897637797,
0*
4,1,3,
0.025590551181102365,-0.024606299212598427,
0.0059055118110236228,-0.024606299212598427,
0.0059055118110236228,0.024606299212598427,
0.025590551181102365,0.024606299212598427,
0*%
%AMRoundRect0*
4,1,4,
0.07874015748031496,0.11811023622047245,
0.15748031496062992,0.19685039370078741,
0.23622047244094491,0.27559055118110237,
0.31496062992125984,0.35433070866141736,
0.07874015748031496,0.11811023622047245,
0*
1,1,$1,$2,$3*
1,1,$1,$2,$3*
1,1,$1,$2,$3*
1,1,$1,$2,$3*
20,1,$1,$2,$3,$4,$5,0*
20,1,$1,$2,$3,$4,$5,0*
20,1,$1,$2,$3,$4,$5,0*
20,1,$1,$2,$3,$4,$5,0*%
%AMCOMP1890*
4,1,3,
-0.015748031496062995,-0.024606299212598427,
0.015748031496062995,-0.024606299212598427,
0.015748031496062995,0.024606299212598427,
-0.015748031496062995,0.024606299212598427,
0*
4,1,19,
-0.015748031496062995,-0.014763779527559057,
-0.012706525645915873,-0.015245506729378409,
-0.0099627435797984935,-0.016643533519931621,
-0.0077852658033961877,-0.018821011296333928,
-0.0063872390128429787,-0.021564793362451307,
-0.0059055118110236228,-0.024606299212598427,
-0.006387239012842977,-0.027647805062745546,
-0.0077852658033961877,-0.030391587128862925,
-0.0099627435797984918,-0.032569064905265233,
-0.012706525645915873,-0.033967091695818442,
-0.015748031496062992,-0.034448818897637797,
-0.018789537346210118,-0.033967091695818442,
-0.02153331941232749,-0.032569064905265233,
-0.0237107971887298,-0.030391587128862928,
-0.025108823979283011,-0.027647805062745546,
-0.025590551181102365,-0.024606299212598427,
-0.025108823979283011,-0.021564793362451307,
-0.0237107971887298,-0.018821011296333928,
-0.021533319412327497,-0.016643533519931621,
-0.018789537346210118,-0.015245506729378409,
0*
4,1,19,
0.015748031496062995,-0.014763779527559057,
0.018789537346210115,-0.015245506729378409,
0.02153331941232749,-0.016643533519931621,
0.0237107971887298,-0.018821011296333928,
0.025108823979283011,-0.021564793362451307,
0.025590551181102365,-0.024606299212598427,
0.025108823979283011,-0.027647805062745546,
0.0237107971887298,-0.030391587128862925,
0.021533319412327497,-0.032569064905265233,
0.018789537346210115,-0.033967091695818442,
0.015748031496062995,-0.034448818897637797,
0.012706525645915871,-0.033967091695818442,
0.009962743579798497,-0.032569064905265233,
0.0077852658033961885,-0.030391587128862928,
0.0063872390128429787,-0.027647805062745546,
0.0059055118110236228,-0.024606299212598427,
0.006387239012842977,-0.021564793362451307,
0.0077852658033961868,-0.018821011296333928,
0.0099627435797984918,-0.016643533519931621,
0.012706525645915871,-0.015245506729378409,
0*
4,1,19,
0.015748031496062995,0.034448818897637797,
0.018789537346210115,0.033967091695818442,
0.02153331941232749,0.032569064905265233,
0.0237107971887298,0.030391587128862928,
0.025108823979283011,0.027647805062745546,
0.025590551181102365,0.024606299212598427,
0.025108823979283011,0.021564793362451307,
0.0237107971887298,0.018821011296333928,
0.021533319412327497,0.016643533519931621,
0.018789537346210115,0.015245506729378409,
0.015748031496062995,0.014763779527559057,
0.012706525645915871,0.015245506729378409,
0.009962743579798497,0.016643533519931621,
0.0077852658033961885,0.018821011296333925,
0.0063872390128429787,0.021564793362451307,
0.0059055118110236228,0.024606299212598427,
0.006387239012842977,0.027647805062745546,
0.0077852658033961868,0.030391587128862925,
0.0099627435797984918,0.032569064905265233,
0.012706525645915871,0.033967091695818442,
0*
4,1,19,
-0.015748031496062995,0.034448818897637797,
-0.012706525645915873,0.033967091695818442,
-0.0099627435797984935,0.032569064905265233,
-0.0077852658033961877,0.030391587128862928,
-0.0063872390128429787,0.027647805062745546,
-0.0059055118110236228,0.024606299212598427,
-0.006387239012842977,0.021564793362451307,
-0.0077852658033961877,0.018821011296333928,
-0.0099627435797984918,0.016643533519931621,
-0.012706525645915873,0.015245506729378409,
-0.015748031496062992,0.014763779527559057,
-0.018789537346210118,0.015245506729378409,
-0.02153331941232749,0.016643533519931621,
-0.0237107971887298,0.018821011296333925,
-0.025108823979283011,0.021564793362451307,
-0.025590551181102365,0.024606299212598427,
-0.025108823979283011,0.027647805062745546,
-0.0237107971887298,0.030391587128862925,
-0.021533319412327497,0.032569064905265233,
-0.018789537346210118,0.033967091695818442,
0*
4,1,3,
-0.015748031496062995,-0.034448818897637797,
-0.015748031496062995,-0.014763779527559057,
0.015748031496062995,-0.014763779527559057,
0.015748031496062995,-0.034448818897637797,
0*
4,1,3,
0.025590551181102365,-0.024606299212598427,
0.0059055118110236228,-0.024606299212598427,
0.0059055118110236228,0.024606299212598427,
0.025590551181102365,0.024606299212598427,
0*
4,1,3,
0.015748031496062995,0.034448818897637797,
0.015748031496062995,0.014763779527559057,
-0.015748031496062995,0.014763779527559057,
-0.015748031496062995,0.034448818897637797,
0*
4,1,3,
-0.025590551181102365,0.024606299212598427,
-0.0059055118110236228,0.024606299212598427,
-0.0059055118110236228,-0.024606299212598427,
-0.025590551181102365,-0.024606299212598427,
0*%
%AMCOMP1900*
4,1,3,
0.015748031496062995,0.024606299212598427,
-0.015748031496062995,0.024606299212598427,
-0.015748031496062995,-0.024606299212598427,
0.015748031496062995,-0.024606299212598427,
0*
4,1,19,
0.015748031496062995,0.034448818897637797,
0.018789537346210115,0.033967091695818442,
0.02153331941232749,0.032569064905265233,
0.0237107971887298,0.030391587128862928,
0.025108823979283011,0.027647805062745546,
0.025590551181102365,0.024606299212598427,
0.025108823979283011,0.021564793362451307,
0.0237107971887298,0.018821011296333928,
0.021533319412327497,0.016643533519931621,
0.018789537346210115,0.015245506729378409,
0.015748031496062995,0.014763779527559057,
0.012706525645915871,0.015245506729378409,
0.009962743579798497,0.016643533519931621,
0.0077852658033961885,0.018821011296333925,
0.0063872390128429787,0.021564793362451307,
0.0059055118110236228,0.024606299212598427,
0.006387239012842977,0.027647805062745546,
0.0077852658033961868,0.030391587128862925,
0.0099627435797984918,0.032569064905265233,
0.012706525645915871,0.033967091695818442,
0*
4,1,19,
-0.015748031496062995,0.034448818897637797,
-0.012706525645915873,0.033967091695818442,
-0.0099627435797984935,0.032569064905265233,
-0.0077852658033961877,0.030391587128862928,
-0.0063872390128429787,0.027647805062745546,
-0.0059055118110236228,0.024606299212598427,
-0.006387239012842977,0.021564793362451307,
-0.0077852658033961877,0.018821011296333928,
-0.0099627435797984918,0.016643533519931621,
-0.012706525645915873,0.015245506729378409,
-0.015748031496062992,0.014763779527559057,
-0.018789537346210118,0.015245506729378409,
-0.02153331941232749,0.016643533519931621,
-0.0237107971887298,0.018821011296333925,
-0.025108823979283011,0.021564793362451307,
-0.025590551181102365,0.024606299212598427,
-0.025108823979283011,0.027647805062745546,
-0.0237107971887298,0.030391587128862925,
-0.021533319412327497,0.032569064905265233,
-0.018789537346210118,0.033967091695818442,
0*
4,1,19,
-0.015748031496062995,-0.014763779527559057,
-0.012706525645915873,-0.015245506729378409,
-0.0099627435797984935,-0.016643533519931621,
-0.0077852658033961877,-0.018821011296333928,
-0.0063872390128429787,-0.021564793362451307,
-0.0059055118110236228,-0.024606299212598427,
-0.006387239012842977,-0.027647805062745546,
-0.0077852658033961877,-0.030391587128862925,
-0.0099627435797984918,-0.032569064905265233,
-0.012706525645915873,-0.033967091695818442,
-0.015748031496062992,-0.034448818897637797,
-0.018789537346210118,-0.033967091695818442,
-0.02153331941232749,-0.032569064905265233,
-0.0237107971887298,-0.030391587128862928,
-0.025108823979283011,-0.027647805062745546,
-0.025590551181102365,-0.024606299212598427,
-0.025108823979283011,-0.021564793362451307,
-0.0237107971887298,-0.018821011296333928,
-0.021533319412327497,-0.016643533519931621,
-0.018789537346210118,-0.015245506729378409,
0*
4,1,19,
0.015748031496062995,-0.014763779527559057,
0.018789537346210115,-0.015245506729378409,
0.02153331941232749,-0.016643533519931621,
0.0237107971887298,-0.018821011296333928,
0.025108823979283011,-0.021564793362451307,
0.025590551181102365,-0.024606299212598427,
0.025108823979283011,-0.027647805062745546,
0.0237107971887298,-0.030391587128862925,
0.021533319412327497,-0.032569064905265233,
0.018789537346210115,-0.033967091695818442,
0.015748031496062995,-0.034448818897637797,
0.012706525645915871,-0.033967091695818442,
0.009962743579798497,-0.032569064905265233,
0.0077852658033961885,-0.030391587128862928,
0.0063872390128429787,-0.027647805062745546,
0.0059055118110236228,-0.024606299212598427,
0.006387239012842977,-0.021564793362451307,
0.0077852658033961868,-0.018821011296333928,
0.0099627435797984918,-0.016643533519931621,
0.012706525645915871,-0.015245506729378409,
0*
4,1,3,
0.015748031496062995,0.034448818897637797,
0.015748031496062995,0.014763779527559057,
-0.015748031496062995,0.014763779527559057,
-0.015748031496062995,0.034448818897637797,
0*
4,1,3,
-0.025590551181102365,0.024606299212598427,
-0.0059055118110236228,0.024606299212598427,
-0.0059055118110236228,-0.024606299212598427,
-0.025590551181102365,-0.024606299212598427,
0*
4,1,3,
-0.015748031496062995,-0.034448818897637797,
-0.015748031496062995,-0.014763779527559057,
0.015748031496062995,-0.014763779527559057,
0.015748031496062995,-0.034448818897637797,
0*
4,1,3,
0.025590551181102365,-0.024606299212598427,
0.0059055118110236228,-0.024606299212598427,
0.0059055118110236228,0.024606299212598427,
0.025590551181102365,0.024606299212598427,
0*%
%AMRoundRect1*
4,1,4,
0.07874015748031496,0.11811023622047245,
0.15748031496062992,0.19685039370078741,
0.23622047244094491,0.27559055118110237,
0.31496062992125984,0.35433070866141736,
0.07874015748031496,0.11811023622047245,
0*
1,1,$1,$2,$3*
1,1,$1,$2,$3*
1,1,$1,$2,$3*
1,1,$1,$2,$3*
20,1,$1,$2,$3,$4,$5,0*
20,1,$1,$2,$3,$4,$5,0*
20,1,$1,$2,$3,$4,$5,0*
20,1,$1,$2,$3,$4,$5,0*%
%AMCOMP1970*
4,1,3,
-0.015748031496062995,-0.024606299212598427,
0.015748031496062995,-0.024606299212598427,
0.015748031496062995,0.024606299212598427,
-0.015748031496062995,0.024606299212598427,
0*
4,1,19,
-0.015748031496062995,-0.014763779527559057,
-0.012706525645915873,-0.015245506729378409,
-0.0099627435797984935,-0.016643533519931621,
-0.0077852658033961877,-0.018821011296333928,
-0.0063872390128429787,-0.021564793362451307,
-0.0059055118110236228,-0.024606299212598427,
-0.006387239012842977,-0.027647805062745546,
-0.0077852658033961877,-0.030391587128862925,
-0.0099627435797984918,-0.032569064905265233,
-0.012706525645915873,-0.033967091695818442,
-0.015748031496062992,-0.034448818897637797,
-0.018789537346210118,-0.033967091695818442,
-0.02153331941232749,-0.032569064905265233,
-0.0237107971887298,-0.030391587128862928,
-0.025108823979283011,-0.027647805062745546,
-0.025590551181102365,-0.024606299212598427,
-0.025108823979283011,-0.021564793362451307,
-0.0237107971887298,-0.018821011296333928,
-0.021533319412327497,-0.016643533519931621,
-0.018789537346210118,-0.015245506729378409,
0*
4,1,19,
0.015748031496062995,-0.014763779527559057,
0.018789537346210115,-0.015245506729378409,
0.02153331941232749,-0.016643533519931621,
0.0237107971887298,-0.018821011296333928,
0.025108823979283011,-0.021564793362451307,
0.025590551181102365,-0.024606299212598427,
0.025108823979283011,-0.027647805062745546,
0.0237107971887298,-0.030391587128862925,
0.021533319412327497,-0.032569064905265233,
0.018789537346210115,-0.033967091695818442,
0.015748031496062995,-0.034448818897637797,
0.012706525645915871,-0.033967091695818442,
0.009962743579798497,-0.032569064905265233,
0.0077852658033961885,-0.030391587128862928,
0.0063872390128429787,-0.027647805062745546,
0.0059055118110236228,-0.024606299212598427,
0.006387239012842977,-0.021564793362451307,
0.0077852658033961868,-0.018821011296333928,
0.0099627435797984918,-0.016643533519931621,
0.012706525645915871,-0.015245506729378409,
0*
4,1,19,
0.015748031496062995,0.034448818897637797,
0.018789537346210115,0.033967091695818442,
0.02153331941232749,0.032569064905265233,
0.0237107971887298,0.030391587128862928,
0.025108823979283011,0.027647805062745546,
0.025590551181102365,0.024606299212598427,
0.025108823979283011,0.021564793362451307,
0.0237107971887298,0.018821011296333928,
0.021533319412327497,0.016643533519931621,
0.018789537346210115,0.015245506729378409,
0.015748031496062995,0.014763779527559057,
0.012706525645915871,0.015245506729378409,
0.009962743579798497,0.016643533519931621,
0.0077852658033961885,0.018821011296333925,
0.0063872390128429787,0.021564793362451307,
0.0059055118110236228,0.024606299212598427,
0.006387239012842977,0.027647805062745546,
0.0077852658033961868,0.030391587128862925,
0.0099627435797984918,0.032569064905265233,
0.012706525645915871,0.033967091695818442,
0*
4,1,19,
-0.015748031496062995,0.034448818897637797,
-0.012706525645915873,0.033967091695818442,
-0.0099627435797984935,0.032569064905265233,
-0.0077852658033961877,0.030391587128862928,
-0.0063872390128429787,0.027647805062745546,
-0.0059055118110236228,0.024606299212598427,
-0.006387239012842977,0.021564793362451307,
-0.0077852658033961877,0.018821011296333928,
-0.0099627435797984918,0.016643533519931621,
-0.012706525645915873,0.015245506729378409,
-0.015748031496062992,0.014763779527559057,
-0.018789537346210118,0.015245506729378409,
-0.02153331941232749,0.016643533519931621,
-0.0237107971887298,0.018821011296333925,
-0.025108823979283011,0.021564793362451307,
-0.025590551181102365,0.024606299212598427,
-0.025108823979283011,0.027647805062745546,
-0.0237107971887298,0.030391587128862925,
-0.021533319412327497,0.032569064905265233,
-0.018789537346210118,0.033967091695818442,
0*
4,1,3,
-0.015748031496062995,-0.034448818897637797,
-0.015748031496062995,-0.014763779527559057,
0.015748031496062995,-0.014763779527559057,
0.015748031496062995,-0.034448818897637797,
0*
4,1,3,
0.025590551181102365,-0.024606299212598427,
0.0059055118110236228,-0.024606299212598427,
0.0059055118110236228,0.024606299212598427,
0.025590551181102365,0.024606299212598427,
0*
4,1,3,
0.015748031496062995,0.034448818897637797,
0.015748031496062995,0.014763779527559057,
-0.015748031496062995,0.014763779527559057,
-0.015748031496062995,0.034448818897637797,
0*
4,1,3,
-0.025590551181102365,0.024606299212598427,
-0.0059055118110236228,0.024606299212598427,
-0.0059055118110236228,-0.024606299212598427,
-0.025590551181102365,-0.024606299212598427,
0*%
%AMCOMP1980*
4,1,3,
0.015748031496062995,0.024606299212598427,
-0.015748031496062995,0.024606299212598427,
-0.015748031496062995,-0.024606299212598427,
0.015748031496062995,-0.024606299212598427,
0*
4,1,19,
0.015748031496062995,0.034448818897637797,
0.018789537346210115,0.033967091695818442,
0.02153331941232749,0.032569064905265233,
0.0237107971887298,0.030391587128862928,
0.025108823979283011,0.027647805062745546,
0.025590551181102365,0.024606299212598427,
0.025108823979283011,0.021564793362451307,
0.0237107971887298,0.018821011296333928,
0.021533319412327497,0.016643533519931621,
0.018789537346210115,0.015245506729378409,
0.015748031496062995,0.014763779527559057,
0.012706525645915871,0.015245506729378409,
0.009962743579798497,0.016643533519931621,
0.0077852658033961885,0.018821011296333925,
0.0063872390128429787,0.021564793362451307,
0.0059055118110236228,0.024606299212598427,
0.006387239012842977,0.027647805062745546,
0.0077852658033961868,0.030391587128862925,
0.0099627435797984918,0.032569064905265233,
0.012706525645915871,0.033967091695818442,
0*
4,1,19,
-0.015748031496062995,0.034448818897637797,
-0.012706525645915873,0.033967091695818442,
-0.0099627435797984935,0.032569064905265233,
-0.0077852658033961877,0.030391587128862928,
-0.0063872390128429787,0.027647805062745546,
-0.0059055118110236228,0.024606299212598427,
-0.006387239012842977,0.021564793362451307,
-0.0077852658033961877,0.018821011296333928,
-0.0099627435797984918,0.016643533519931621,
-0.012706525645915873,0.015245506729378409,
-0.015748031496062992,0.014763779527559057,
-0.018789537346210118,0.015245506729378409,
-0.02153331941232749,0.016643533519931621,
-0.0237107971887298,0.018821011296333925,
-0.025108823979283011,0.021564793362451307,
-0.025590551181102365,0.024606299212598427,
-0.025108823979283011,0.027647805062745546,
-0.0237107971887298,0.030391587128862925,
-0.021533319412327497,0.032569064905265233,
-0.018789537346210118,0.033967091695818442,
0*
4,1,19,
-0.015748031496062995,-0.014763779527559057,
-0.012706525645915873,-0.015245506729378409,
-0.0099627435797984935,-0.016643533519931621,
-0.0077852658033961877,-0.018821011296333928,
-0.0063872390128429787,-0.021564793362451307,
-0.0059055118110236228,-0.024606299212598427,
-0.006387239012842977,-0.027647805062745546,
-0.0077852658033961877,-0.030391587128862925,
-0.0099627435797984918,-0.032569064905265233,
-0.012706525645915873,-0.033967091695818442,
-0.015748031496062992,-0.034448818897637797,
-0.018789537346210118,-0.033967091695818442,
-0.02153331941232749,-0.032569064905265233,
-0.0237107971887298,-0.030391587128862928,
-0.025108823979283011,-0.027647805062745546,
-0.025590551181102365,-0.024606299212598427,
-0.025108823979283011,-0.021564793362451307,
-0.0237107971887298,-0.018821011296333928,
-0.021533319412327497,-0.016643533519931621,
-0.018789537346210118,-0.015245506729378409,
0*
4,1,19,
0.015748031496062995,-0.014763779527559057,
0.018789537346210115,-0.015245506729378409,
0.02153331941232749,-0.016643533519931621,
0.0237107971887298,-0.018821011296333928,
0.025108823979283011,-0.021564793362451307,
0.025590551181102365,-0.024606299212598427,
0.025108823979283011,-0.027647805062745546,
0.0237107971887298,-0.030391587128862925,
0.021533319412327497,-0.032569064905265233,
0.018789537346210115,-0.033967091695818442,
0.015748031496062995,-0.034448818897637797,
0.012706525645915871,-0.033967091695818442,
0.009962743579798497,-0.032569064905265233,
0.0077852658033961885,-0.030391587128862928,
0.0063872390128429787,-0.027647805062745546,
0.0059055118110236228,-0.024606299212598427,
0.006387239012842977,-0.021564793362451307,
0.0077852658033961868,-0.018821011296333928,
0.0099627435797984918,-0.016643533519931621,
0.012706525645915871,-0.015245506729378409,
0*
4,1,3,
0.015748031496062995,0.034448818897637797,
0.015748031496062995,0.014763779527559057,
-0.015748031496062995,0.014763779527559057,
-0.015748031496062995,0.034448818897637797,
0*
4,1,3,
-0.025590551181102365,0.024606299212598427,
-0.0059055118110236228,0.024606299212598427,
-0.0059055118110236228,-0.024606299212598427,
-0.025590551181102365,-0.024606299212598427,
0*
4,1,3,
-0.015748031496062995,-0.034448818897637797,
-0.015748031496062995,-0.014763779527559057,
0.015748031496062995,-0.014763779527559057,
0.015748031496062995,-0.034448818897637797,
0*
4,1,3,
0.025590551181102365,-0.024606299212598427,
0.0059055118110236228,-0.024606299212598427,
0.0059055118110236228,0.024606299212598427,
0.025590551181102365,0.024606299212598427,
0*%
%ADD10R,0.043307086614173235X0.043307086614173235*%
%ADD11R,0.03937007874015748X0.027559055118110236*%
%AMCOMP202*
4,1,3,
0.015748031496062995,0.024606299212598427,
-0.015748031496062995,0.024606299212598427,
-0.015748031496062995,-0.024606299212598427,
0.015748031496062995,-0.024606299212598427,
0*
4,1,19,
0.015748031496062995,0.034448818897637797,
0.018789537346210115,0.033967091695818442,
0.02153331941232749,0.032569064905265233,
0.0237107971887298,0.030391587128862928,
0.025108823979283011,0.027647805062745546,
0.025590551181102365,0.024606299212598427,
0.025108823979283011,0.021564793362451307,
0.0237107971887298,0.018821011296333928,
0.021533319412327497,0.016643533519931621,
0.018789537346210115,0.015245506729378409,
0.015748031496062995,0.014763779527559057,
0.012706525645915871,0.015245506729378409,
0.009962743579798497,0.016643533519931621,
0.0077852658033961885,0.018821011296333925,
0.0063872390128429787,0.021564793362451307,
0.0059055118110236228,0.024606299212598427,
0.006387239012842977,0.027647805062745546,
0.0077852658033961868,0.030391587128862925,
0.0099627435797984918,0.032569064905265233,
0.012706525645915871,0.033967091695818442,
0*
4,1,19,
-0.015748031496062995,0.034448818897637797,
-0.012706525645915873,0.033967091695818442,
-0.0099627435797984935,0.032569064905265233,
-0.0077852658033961877,0.030391587128862928,
-0.0063872390128429787,0.027647805062745546,
-0.0059055118110236228,0.024606299212598427,
-0.006387239012842977,0.021564793362451307,
-0.0077852658033961877,0.018821011296333928,
-0.0099627435797984918,0.016643533519931621,
-0.012706525645915873,0.015245506729378409,
-0.015748031496062992,0.014763779527559057,
-0.018789537346210118,0.015245506729378409,
-0.02153331941232749,0.016643533519931621,
-0.0237107971887298,0.018821011296333925,
-0.025108823979283011,0.021564793362451307,
-0.025590551181102365,0.024606299212598427,
-0.025108823979283011,0.027647805062745546,
-0.0237107971887298,0.030391587128862925,
-0.021533319412327497,0.032569064905265233,
-0.018789537346210118,0.033967091695818442,
0*
4,1,19,
-0.015748031496062995,-0.014763779527559057,
-0.012706525645915873,-0.015245506729378409,
-0.0099627435797984935,-0.016643533519931621,
-0.0077852658033961877,-0.018821011296333928,
-0.0063872390128429787,-0.021564793362451307,
-0.0059055118110236228,-0.024606299212598427,
-0.006387239012842977,-0.027647805062745546,
-0.0077852658033961877,-0.030391587128862925,
-0.0099627435797984918,-0.032569064905265233,
-0.012706525645915873,-0.033967091695818442,
-0.015748031496062992,-0.034448818897637797,
-0.018789537346210118,-0.033967091695818442,
-0.02153331941232749,-0.032569064905265233,
-0.0237107971887298,-0.030391587128862928,
-0.025108823979283011,-0.027647805062745546,
-0.025590551181102365,-0.024606299212598427,
-0.025108823979283011,-0.021564793362451307,
-0.0237107971887298,-0.018821011296333928,
-0.021533319412327497,-0.016643533519931621,
-0.018789537346210118,-0.015245506729378409,
0*
4,1,19,
0.015748031496062995,-0.014763779527559057,
0.018789537346210115,-0.015245506729378409,
0.02153331941232749,-0.016643533519931621,
0.0237107971887298,-0.018821011296333928,
0.025108823979283011,-0.021564793362451307,
0.025590551181102365,-0.024606299212598427,
0.025108823979283011,-0.027647805062745546,
0.0237107971887298,-0.030391587128862925,
0.021533319412327497,-0.032569064905265233,
0.018789537346210115,-0.033967091695818442,
0.015748031496062995,-0.034448818897637797,
0.012706525645915871,-0.033967091695818442,
0.009962743579798497,-0.032569064905265233,
0.0077852658033961885,-0.030391587128862928,
0.0063872390128429787,-0.027647805062745546,
0.0059055118110236228,-0.024606299212598427,
0.006387239012842977,-0.021564793362451307,
0.0077852658033961868,-0.018821011296333928,
0.0099627435797984918,-0.016643533519931621,
0.012706525645915871,-0.015245506729378409,
0*
4,1,3,
0.015748031496062995,0.034448818897637797,
0.015748031496062995,0.014763779527559057,
-0.015748031496062995,0.014763779527559057,
-0.015748031496062995,0.034448818897637797,
0*
4,1,3,
-0.025590551181102365,0.024606299212598427,
-0.0059055118110236228,0.024606299212598427,
-0.0059055118110236228,-0.024606299212598427,
-0.025590551181102365,-0.024606299212598427,
0*
4,1,3,
-0.015748031496062995,-0.034448818897637797,
-0.015748031496062995,-0.014763779527559057,
0.015748031496062995,-0.014763779527559057,
0.015748031496062995,-0.034448818897637797,
0*
4,1,3,
0.025590551181102365,-0.024606299212598427,
0.0059055118110236228,-0.024606299212598427,
0.0059055118110236228,0.024606299212598427,
0.025590551181102365,0.024606299212598427,
0*%
%ADD12COMP202,0.25X0.4X0.625X-0.4X0.625X-0.4X-0.625X0.4X-0.625X0*%
%AMCOMP209*
4,1,3,
-0.015748031496062995,-0.024606299212598427,
0.015748031496062995,-0.024606299212598427,
0.015748031496062995,0.024606299212598427,
-0.015748031496062995,0.024606299212598427,
0*
4,1,19,
-0.015748031496062995,-0.014763779527559057,
-0.012706525645915873,-0.015245506729378409,
-0.0099627435797984935,-0.016643533519931621,
-0.0077852658033961877,-0.018821011296333928,
-0.0063872390128429787,-0.021564793362451307,
-0.0059055118110236228,-0.024606299212598427,
-0.006387239012842977,-0.027647805062745546,
-0.0077852658033961877,-0.030391587128862925,
-0.0099627435797984918,-0.032569064905265233,
-0.012706525645915873,-0.033967091695818442,
-0.015748031496062992,-0.034448818897637797,
-0.018789537346210118,-0.033967091695818442,
-0.02153331941232749,-0.032569064905265233,
-0.0237107971887298,-0.030391587128862928,
-0.025108823979283011,-0.027647805062745546,
-0.025590551181102365,-0.024606299212598427,
-0.025108823979283011,-0.021564793362451307,
-0.0237107971887298,-0.018821011296333928,
-0.021533319412327497,-0.016643533519931621,
-0.018789537346210118,-0.015245506729378409,
0*
4,1,19,
0.015748031496062995,-0.014763779527559057,
0.018789537346210115,-0.015245506729378409,
0.02153331941232749,-0.016643533519931621,
0.0237107971887298,-0.018821011296333928,
0.025108823979283011,-0.021564793362451307,
0.025590551181102365,-0.024606299212598427,
0.025108823979283011,-0.027647805062745546,
0.0237107971887298,-0.030391587128862925,
0.021533319412327497,-0.032569064905265233,
0.018789537346210115,-0.033967091695818442,
0.015748031496062995,-0.034448818897637797,
0.012706525645915871,-0.033967091695818442,
0.009962743579798497,-0.032569064905265233,
0.0077852658033961885,-0.030391587128862928,
0.0063872390128429787,-0.027647805062745546,
0.0059055118110236228,-0.024606299212598427,
0.006387239012842977,-0.021564793362451307,
0.0077852658033961868,-0.018821011296333928,
0.0099627435797984918,-0.016643533519931621,
0.012706525645915871,-0.015245506729378409,
0*
4,1,19,
0.015748031496062995,0.034448818897637797,
0.018789537346210115,0.033967091695818442,
0.02153331941232749,0.032569064905265233,
0.0237107971887298,0.030391587128862928,
0.025108823979283011,0.027647805062745546,
0.025590551181102365,0.024606299212598427,
0.025108823979283011,0.021564793362451307,
0.0237107971887298,0.018821011296333928,
0.021533319412327497,0.016643533519931621,
0.018789537346210115,0.015245506729378409,
0.015748031496062995,0.014763779527559057,
0.012706525645915871,0.015245506729378409,
0.009962743579798497,0.016643533519931621,
0.0077852658033961885,0.018821011296333925,
0.0063872390128429787,0.021564793362451307,
0.0059055118110236228,0.024606299212598427,
0.006387239012842977,0.027647805062745546,
0.0077852658033961868,0.030391587128862925,
0.0099627435797984918,0.032569064905265233,
0.012706525645915871,0.033967091695818442,
0*
4,1,19,
-0.015748031496062995,0.034448818897637797,
-0.012706525645915873,0.033967091695818442,
-0.0099627435797984935,0.032569064905265233,
-0.0077852658033961877,0.030391587128862928,
-0.0063872390128429787,0.027647805062745546,
-0.0059055118110236228,0.024606299212598427,
-0.006387239012842977,0.021564793362451307,
-0.0077852658033961877,0.018821011296333928,
-0.0099627435797984918,0.016643533519931621,
-0.012706525645915873,0.015245506729378409,
-0.015748031496062992,0.014763779527559057,
-0.018789537346210118,0.015245506729378409,
-0.02153331941232749,0.016643533519931621,
-0.0237107971887298,0.018821011296333925,
-0.025108823979283011,0.021564793362451307,
-0.025590551181102365,0.024606299212598427,
-0.025108823979283011,0.027647805062745546,
-0.0237107971887298,0.030391587128862925,
-0.021533319412327497,0.032569064905265233,
-0.018789537346210118,0.033967091695818442,
0*
4,1,3,
-0.015748031496062995,-0.034448818897637797,
-0.015748031496062995,-0.014763779527559057,
0.015748031496062995,-0.014763779527559057,
0.015748031496062995,-0.034448818897637797,
0*
4,1,3,
0.025590551181102365,-0.024606299212598427,
0.0059055118110236228,-0.024606299212598427,
0.0059055118110236228,0.024606299212598427,
0.025590551181102365,0.024606299212598427,
0*
4,1,3,
0.015748031496062995,0.034448818897637797,
0.015748031496062995,0.014763779527559057,
-0.015748031496062995,0.014763779527559057,
-0.015748031496062995,0.034448818897637797,
0*
4,1,3,
-0.025590551181102365,0.024606299212598427,
-0.0059055118110236228,0.024606299212598427,
-0.0059055118110236228,-0.024606299212598427,
-0.025590551181102365,-0.024606299212598427,
0*%
%ADD13COMP209,0.25X-0.4X-0.625X0.4X-0.625X0.4X0.625X-0.4X0.625X0*%
%ADD24R,0.043307086614173235X0.043307086614173235*%
%ADD25R,0.03937007874015748X0.027559055118110236*%
%AMCOMP216*
4,1,3,
0.015748031496062995,0.024606299212598427,
-0.015748031496062995,0.024606299212598427,
-0.015748031496062995,-0.024606299212598427,
0.015748031496062995,-0.024606299212598427,
0*
4,1,19,
0.015748031496062995,0.034448818897637797,
0.018789537346210115,0.033967091695818442,
0.02153331941232749,0.032569064905265233,
0.0237107971887298,0.030391587128862928,
0.025108823979283011,0.027647805062745546,
0.025590551181102365,0.024606299212598427,
0.025108823979283011,0.021564793362451307,
0.0237107971887298,0.018821011296333928,
0.021533319412327497,0.016643533519931621,
0.018789537346210115,0.015245506729378409,
0.015748031496062995,0.014763779527559057,
0.012706525645915871,0.015245506729378409,
0.009962743579798497,0.016643533519931621,
0.0077852658033961885,0.018821011296333925,
0.0063872390128429787,0.021564793362451307,
0.0059055118110236228,0.024606299212598427,
0.006387239012842977,0.027647805062745546,
0.0077852658033961868,0.030391587128862925,
0.0099627435797984918,0.032569064905265233,
0.012706525645915871,0.033967091695818442,
0*
4,1,19,
-0.015748031496062995,0.034448818897637797,
-0.012706525645915873,0.033967091695818442,
-0.0099627435797984935,0.032569064905265233,
-0.0077852658033961877,0.030391587128862928,
-0.0063872390128429787,0.027647805062745546,
-0.0059055118110236228,0.024606299212598427,
-0.006387239012842977,0.021564793362451307,
-0.0077852658033961877,0.018821011296333928,
-0.0099627435797984918,0.016643533519931621,
-0.012706525645915873,0.015245506729378409,
-0.015748031496062992,0.014763779527559057,
-0.018789537346210118,0.015245506729378409,
-0.02153331941232749,0.016643533519931621,
-0.0237107971887298,0.018821011296333925,
-0.025108823979283011,0.021564793362451307,
-0.025590551181102365,0.024606299212598427,
-0.025108823979283011,0.027647805062745546,
-0.0237107971887298,0.030391587128862925,
-0.021533319412327497,0.032569064905265233,
-0.018789537346210118,0.033967091695818442,
0*
4,1,19,
-0.015748031496062995,-0.014763779527559057,
-0.012706525645915873,-0.015245506729378409,
-0.0099627435797984935,-0.016643533519931621,
-0.0077852658033961877,-0.018821011296333928,
-0.0063872390128429787,-0.021564793362451307,
-0.0059055118110236228,-0.024606299212598427,
-0.006387239012842977,-0.027647805062745546,
-0.0077852658033961877,-0.030391587128862925,
-0.0099627435797984918,-0.032569064905265233,
-0.012706525645915873,-0.033967091695818442,
-0.015748031496062992,-0.034448818897637797,
-0.018789537346210118,-0.033967091695818442,
-0.02153331941232749,-0.032569064905265233,
-0.0237107971887298,-0.030391587128862928,
-0.025108823979283011,-0.027647805062745546,
-0.025590551181102365,-0.024606299212598427,
-0.025108823979283011,-0.021564793362451307,
-0.0237107971887298,-0.018821011296333928,
-0.021533319412327497,-0.016643533519931621,
-0.018789537346210118,-0.015245506729378409,
0*
4,1,19,
0.015748031496062995,-0.014763779527559057,
0.018789537346210115,-0.015245506729378409,
0.02153331941232749,-0.016643533519931621,
0.0237107971887298,-0.018821011296333928,
0.025108823979283011,-0.021564793362451307,
0.025590551181102365,-0.024606299212598427,
0.025108823979283011,-0.027647805062745546,
0.0237107971887298,-0.030391587128862925,
0.021533319412327497,-0.032569064905265233,
0.018789537346210115,-0.033967091695818442,
0.015748031496062995,-0.034448818897637797,
0.012706525645915871,-0.033967091695818442,
0.009962743579798497,-0.032569064905265233,
0.0077852658033961885,-0.030391587128862928,
0.0063872390128429787,-0.027647805062745546,
0.0059055118110236228,-0.024606299212598427,
0.006387239012842977,-0.021564793362451307,
0.0077852658033961868,-0.018821011296333928,
0.0099627435797984918,-0.016643533519931621,
0.012706525645915871,-0.015245506729378409,
0*
4,1,3,
0.015748031496062995,0.034448818897637797,
0.015748031496062995,0.014763779527559057,
-0.015748031496062995,0.014763779527559057,
-0.015748031496062995,0.034448818897637797,
0*
4,1,3,
-0.025590551181102365,0.024606299212598427,
-0.0059055118110236228,0.024606299212598427,
-0.0059055118110236228,-0.024606299212598427,
-0.025590551181102365,-0.024606299212598427,
0*
4,1,3,
-0.015748031496062995,-0.034448818897637797,
-0.015748031496062995,-0.014763779527559057,
0.015748031496062995,-0.014763779527559057,
0.015748031496062995,-0.034448818897637797,
0*
4,1,3,
0.025590551181102365,-0.024606299212598427,
0.0059055118110236228,-0.024606299212598427,
0.0059055118110236228,0.024606299212598427,
0.025590551181102365,0.024606299212598427,
0*%
%ADD26COMP216,0.25X0.4X0.625X-0.4X0.625X-0.4X-0.625X0.4X-0.625X0*%
%AMCOMP223*
4,1,3,
-0.015748031496062995,-0.024606299212598427,
0.015748031496062995,-0.024606299212598427,
0.015748031496062995,0.024606299212598427,
-0.015748031496062995,0.024606299212598427,
0*
4,1,19,
-0.015748031496062995,-0.014763779527559057,
-0.012706525645915873,-0.015245506729378409,
-0.0099627435797984935,-0.016643533519931621,
-0.0077852658033961877,-0.018821011296333928,
-0.0063872390128429787,-0.021564793362451307,
-0.0059055118110236228,-0.024606299212598427,
-0.006387239012842977,-0.027647805062745546,
-0.0077852658033961877,-0.030391587128862925,
-0.0099627435797984918,-0.032569064905265233,
-0.012706525645915873,-0.033967091695818442,
-0.015748031496062992,-0.034448818897637797,
-0.018789537346210118,-0.033967091695818442,
-0.02153331941232749,-0.032569064905265233,
-0.0237107971887298,-0.030391587128862928,
-0.025108823979283011,-0.027647805062745546,
-0.025590551181102365,-0.024606299212598427,
-0.025108823979283011,-0.021564793362451307,
-0.0237107971887298,-0.018821011296333928,
-0.021533319412327497,-0.016643533519931621,
-0.018789537346210118,-0.015245506729378409,
0*
4,1,19,
0.015748031496062995,-0.014763779527559057,
0.018789537346210115,-0.015245506729378409,
0.02153331941232749,-0.016643533519931621,
0.0237107971887298,-0.018821011296333928,
0.025108823979283011,-0.021564793362451307,
0.025590551181102365,-0.024606299212598427,
0.025108823979283011,-0.027647805062745546,
0.0237107971887298,-0.030391587128862925,
0.021533319412327497,-0.032569064905265233,
0.018789537346210115,-0.033967091695818442,
0.015748031496062995,-0.034448818897637797,
0.012706525645915871,-0.033967091695818442,
0.009962743579798497,-0.032569064905265233,
0.0077852658033961885,-0.030391587128862928,
0.0063872390128429787,-0.027647805062745546,
0.0059055118110236228,-0.024606299212598427,
0.006387239012842977,-0.021564793362451307,
0.0077852658033961868,-0.018821011296333928,
0.0099627435797984918,-0.016643533519931621,
0.012706525645915871,-0.015245506729378409,
0*
4,1,19,
0.015748031496062995,0.034448818897637797,
0.018789537346210115,0.033967091695818442,
0.02153331941232749,0.032569064905265233,
0.0237107971887298,0.030391587128862928,
0.025108823979283011,0.027647805062745546,
0.025590551181102365,0.024606299212598427,
0.025108823979283011,0.021564793362451307,
0.0237107971887298,0.018821011296333928,
0.021533319412327497,0.016643533519931621,
0.018789537346210115,0.015245506729378409,
0.015748031496062995,0.014763779527559057,
0.012706525645915871,0.015245506729378409,
0.009962743579798497,0.016643533519931621,
0.0077852658033961885,0.018821011296333925,
0.0063872390128429787,0.021564793362451307,
0.0059055118110236228,0.024606299212598427,
0.006387239012842977,0.027647805062745546,
0.0077852658033961868,0.030391587128862925,
0.0099627435797984918,0.032569064905265233,
0.012706525645915871,0.033967091695818442,
0*
4,1,19,
-0.015748031496062995,0.034448818897637797,
-0.012706525645915873,0.033967091695818442,
-0.0099627435797984935,0.032569064905265233,
-0.0077852658033961877,0.030391587128862928,
-0.0063872390128429787,0.027647805062745546,
-0.0059055118110236228,0.024606299212598427,
-0.006387239012842977,0.021564793362451307,
-0.0077852658033961877,0.018821011296333928,
-0.0099627435797984918,0.016643533519931621,
-0.012706525645915873,0.015245506729378409,
-0.015748031496062992,0.014763779527559057,
-0.018789537346210118,0.015245506729378409,
-0.02153331941232749,0.016643533519931621,
-0.0237107971887298,0.018821011296333925,
-0.025108823979283011,0.021564793362451307,
-0.025590551181102365,0.024606299212598427,
-0.025108823979283011,0.027647805062745546,
-0.0237107971887298,0.030391587128862925,
-0.021533319412327497,0.032569064905265233,
-0.018789537346210118,0.033967091695818442,
0*
4,1,3,
-0.015748031496062995,-0.034448818897637797,
-0.015748031496062995,-0.014763779527559057,
0.015748031496062995,-0.014763779527559057,
0.015748031496062995,-0.034448818897637797,
0*
4,1,3,
0.025590551181102365,-0.024606299212598427,
0.0059055118110236228,-0.024606299212598427,
0.0059055118110236228,0.024606299212598427,
0.025590551181102365,0.024606299212598427,
0*
4,1,3,
0.015748031496062995,0.034448818897637797,
0.015748031496062995,0.014763779527559057,
-0.015748031496062995,0.014763779527559057,
-0.015748031496062995,0.034448818897637797,
0*
4,1,3,
-0.025590551181102365,0.024606299212598427,
-0.0059055118110236228,0.024606299212598427,
-0.0059055118110236228,-0.024606299212598427,
-0.025590551181102365,-0.024606299212598427,
0*%
%ADD27COMP223,0.25X-0.4X-0.625X0.4X-0.625X0.4X0.625X-0.4X0.625X0*%
%ADD28R,0.043307086614173235X0.043307086614173235*%
%ADD29R,0.074803149606299218X0.031496062992125991*%
%AMCOMP229*
4,1,3,
-0.015748031496062995,-0.024606299212598427,
0.015748031496062995,-0.024606299212598427,
0.015748031496062995,0.024606299212598427,
-0.015748031496062995,0.024606299212598427,
0*
4,1,19,
-0.015748031496062995,-0.014763779527559057,
-0.012706525645915873,-0.015245506729378409,
-0.0099627435797984935,-0.016643533519931621,
-0.0077852658033961877,-0.018821011296333928,
-0.0063872390128429787,-0.021564793362451307,
-0.0059055118110236228,-0.024606299212598427,
-0.006387239012842977,-0.027647805062745546,
-0.0077852658033961877,-0.030391587128862925,
-0.0099627435797984918,-0.032569064905265233,
-0.012706525645915873,-0.033967091695818442,
-0.015748031496062992,-0.034448818897637797,
-0.018789537346210118,-0.033967091695818442,
-0.02153331941232749,-0.032569064905265233,
-0.0237107971887298,-0.030391587128862928,
-0.025108823979283011,-0.027647805062745546,
-0.025590551181102365,-0.024606299212598427,
-0.025108823979283011,-0.021564793362451307,
-0.0237107971887298,-0.018821011296333928,
-0.021533319412327497,-0.016643533519931621,
-0.018789537346210118,-0.015245506729378409,
0*
4,1,19,
0.015748031496062995,-0.014763779527559057,
0.018789537346210115,-0.015245506729378409,
0.02153331941232749,-0.016643533519931621,
0.0237107971887298,-0.018821011296333928,
0.025108823979283011,-0.021564793362451307,
0.025590551181102365,-0.024606299212598427,
0.025108823979283011,-0.027647805062745546,
0.0237107971887298,-0.030391587128862925,
0.021533319412327497,-0.032569064905265233,
0.018789537346210115,-0.033967091695818442,
0.015748031496062995,-0.034448818897637797,
0.012706525645915871,-0.033967091695818442,
0.009962743579798497,-0.032569064905265233,
0.0077852658033961885,-0.030391587128862928,
0.0063872390128429787,-0.027647805062745546,
0.0059055118110236228,-0.024606299212598427,
0.006387239012842977,-0.021564793362451307,
0.0077852658033961868,-0.018821011296333928,
0.0099627435797984918,-0.016643533519931621,
0.012706525645915871,-0.015245506729378409,
0*
4,1,19,
0.015748031496062995,0.034448818897637797,
0.018789537346210115,0.033967091695818442,
0.02153331941232749,0.032569064905265233,
0.0237107971887298,0.030391587128862928,
0.025108823979283011,0.027647805062745546,
0.025590551181102365,0.024606299212598427,
0.025108823979283011,0.021564793362451307,
0.0237107971887298,0.018821011296333928,
0.021533319412327497,0.016643533519931621,
0.018789537346210115,0.015245506729378409,
0.015748031496062995,0.014763779527559057,
0.012706525645915871,0.015245506729378409,
0.009962743579798497,0.016643533519931621,
0.0077852658033961885,0.018821011296333925,
0.0063872390128429787,0.021564793362451307,
0.0059055118110236228,0.024606299212598427,
0.006387239012842977,0.027647805062745546,
0.0077852658033961868,0.030391587128862925,
0.0099627435797984918,0.032569064905265233,
0.012706525645915871,0.033967091695818442,
0*
4,1,19,
-0.015748031496062995,0.034448818897637797,
-0.012706525645915873,0.033967091695818442,
-0.0099627435797984935,0.032569064905265233,
-0.0077852658033961877,0.030391587128862928,
-0.0063872390128429787,0.027647805062745546,
-0.0059055118110236228,0.024606299212598427,
-0.006387239012842977,0.021564793362451307,
-0.0077852658033961877,0.018821011296333928,
-0.0099627435797984918,0.016643533519931621,
-0.012706525645915873,0.015245506729378409,
-0.015748031496062992,0.014763779527559057,
-0.018789537346210118,0.015245506729378409,
-0.02153331941232749,0.016643533519931621,
-0.0237107971887298,0.018821011296333925,
-0.025108823979283011,0.021564793362451307,
-0.025590551181102365,0.024606299212598427,
-0.025108823979283011,0.027647805062745546,
-0.0237107971887298,0.030391587128862925,
-0.021533319412327497,0.032569064905265233,
-0.018789537346210118,0.033967091695818442,
0*
4,1,3,
-0.015748031496062995,-0.034448818897637797,
-0.015748031496062995,-0.014763779527559057,
0.015748031496062995,-0.014763779527559057,
0.015748031496062995,-0.034448818897637797,
0*
4,1,3,
0.025590551181102365,-0.024606299212598427,
0.0059055118110236228,-0.024606299212598427,
0.0059055118110236228,0.024606299212598427,
0.025590551181102365,0.024606299212598427,
0*
4,1,3,
0.015748031496062995,0.034448818897637797,
0.015748031496062995,0.014763779527559057,
-0.015748031496062995,0.014763779527559057,
-0.015748031496062995,0.034448818897637797,
0*
4,1,3,
-0.025590551181102365,0.024606299212598427,
-0.0059055118110236228,0.024606299212598427,
-0.0059055118110236228,-0.024606299212598427,
-0.025590551181102365,-0.024606299212598427,
0*%
%ADD30COMP229,0.25X-0.4X-0.625X0.4X-0.625X0.4X0.625X-0.4X0.625X0*%
%AMCOMP233*
4,1,3,
0.015748031496062995,0.024606299212598427,
-0.015748031496062995,0.024606299212598427,
-0.015748031496062995,-0.024606299212598427,
0.015748031496062995,-0.024606299212598427,
0*
4,1,19,
0.015748031496062995,0.034448818897637797,
0.018789537346210115,0.033967091695818442,
0.02153331941232749,0.032569064905265233,
0.0237107971887298,0.030391587128862928,
0.025108823979283011,0.027647805062745546,
0.025590551181102365,0.024606299212598427,
0.025108823979283011,0.021564793362451307,
0.0237107971887298,0.018821011296333928,
0.021533319412327497,0.016643533519931621,
0.018789537346210115,0.015245506729378409,
0.015748031496062995,0.014763779527559057,
0.012706525645915871,0.015245506729378409,
0.009962743579798497,0.016643533519931621,
0.0077852658033961885,0.018821011296333925,
0.0063872390128429787,0.021564793362451307,
0.0059055118110236228,0.024606299212598427,
0.006387239012842977,0.027647805062745546,
0.0077852658033961868,0.030391587128862925,
0.0099627435797984918,0.032569064905265233,
0.012706525645915871,0.033967091695818442,
0*
4,1,19,
-0.015748031496062995,0.034448818897637797,
-0.012706525645915873,0.033967091695818442,
-0.0099627435797984935,0.032569064905265233,
-0.0077852658033961877,0.030391587128862928,
-0.0063872390128429787,0.027647805062745546,
-0.0059055118110236228,0.024606299212598427,
-0.006387239012842977,0.021564793362451307,
-0.0077852658033961877,0.018821011296333928,
-0.0099627435797984918,0.016643533519931621,
-0.012706525645915873,0.015245506729378409,
-0.015748031496062992,0.014763779527559057,
-0.018789537346210118,0.015245506729378409,
-0.02153331941232749,0.016643533519931621,
-0.0237107971887298,0.018821011296333925,
-0.025108823979283011,0.021564793362451307,
-0.025590551181102365,0.024606299212598427,
-0.025108823979283011,0.027647805062745546,
-0.0237107971887298,0.030391587128862925,
-0.021533319412327497,0.032569064905265233,
-0.018789537346210118,0.033967091695818442,
0*
4,1,19,
-0.015748031496062995,-0.014763779527559057,
-0.012706525645915873,-0.015245506729378409,
-0.0099627435797984935,-0.016643533519931621,
-0.0077852658033961877,-0.018821011296333928,
-0.0063872390128429787,-0.021564793362451307,
-0.0059055118110236228,-0.024606299212598427,
-0.006387239012842977,-0.027647805062745546,
-0.0077852658033961877,-0.030391587128862925,
-0.0099627435797984918,-0.032569064905265233,
-0.012706525645915873,-0.033967091695818442,
-0.015748031496062992,-0.034448818897637797,
-0.018789537346210118,-0.033967091695818442,
-0.02153331941232749,-0.032569064905265233,
-0.0237107971887298,-0.030391587128862928,
-0.025108823979283011,-0.027647805062745546,
-0.025590551181102365,-0.024606299212598427,
-0.025108823979283011,-0.021564793362451307,
-0.0237107971887298,-0.018821011296333928,
-0.021533319412327497,-0.016643533519931621,
-0.018789537346210118,-0.015245506729378409,
0*
4,1,19,
0.015748031496062995,-0.014763779527559057,
0.018789537346210115,-0.015245506729378409,
0.02153331941232749,-0.016643533519931621,
0.0237107971887298,-0.018821011296333928,
0.025108823979283011,-0.021564793362451307,
0.025590551181102365,-0.024606299212598427,
0.025108823979283011,-0.027647805062745546,
0.0237107971887298,-0.030391587128862925,
0.021533319412327497,-0.032569064905265233,
0.018789537346210115,-0.033967091695818442,
0.015748031496062995,-0.034448818897637797,
0.012706525645915871,-0.033967091695818442,
0.009962743579798497,-0.032569064905265233,
0.0077852658033961885,-0.030391587128862928,
0.0063872390128429787,-0.027647805062745546,
0.0059055118110236228,-0.024606299212598427,
0.006387239012842977,-0.021564793362451307,
0.0077852658033961868,-0.018821011296333928,
0.0099627435797984918,-0.016643533519931621,
0.012706525645915871,-0.015245506729378409,
0*
4,1,3,
0.015748031496062995,0.034448818897637797,
0.015748031496062995,0.014763779527559057,
-0.015748031496062995,0.014763779527559057,
-0.015748031496062995,0.034448818897637797,
0*
4,1,3,
-0.025590551181102365,0.024606299212598427,
-0.0059055118110236228,0.024606299212598427,
-0.0059055118110236228,-0.024606299212598427,
-0.025590551181102365,-0.024606299212598427,
0*
4,1,3,
-0.015748031496062995,-0.034448818897637797,
-0.015748031496062995,-0.014763779527559057,
0.015748031496062995,-0.014763779527559057,
0.015748031496062995,-0.034448818897637797,
0*
4,1,3,
0.025590551181102365,-0.024606299212598427,
0.0059055118110236228,-0.024606299212598427,
0.0059055118110236228,0.024606299212598427,
0.025590551181102365,0.024606299212598427,
0*%
%ADD31COMP233,0.25X0.4X0.625X-0.4X0.625X-0.4X-0.625X0.4X-0.625X0*%
%ADD32R,0.043307086614173235X0.043307086614173235*%
%ADD33R,0.074803149606299218X0.031496062992125991*%
%AMCOMP237*
4,1,3,
-0.015748031496062995,-0.024606299212598427,
0.015748031496062995,-0.024606299212598427,
0.015748031496062995,0.024606299212598427,
-0.015748031496062995,0.024606299212598427,
0*
4,1,19,
-0.015748031496062995,-0.014763779527559057,
-0.012706525645915873,-0.015245506729378409,
-0.0099627435797984935,-0.016643533519931621,
-0.0077852658033961877,-0.018821011296333928,
-0.0063872390128429787,-0.021564793362451307,
-0.0059055118110236228,-0.024606299212598427,
-0.006387239012842977,-0.027647805062745546,
-0.0077852658033961877,-0.030391587128862925,
-0.0099627435797984918,-0.032569064905265233,
-0.012706525645915873,-0.033967091695818442,
-0.015748031496062992,-0.034448818897637797,
-0.018789537346210118,-0.033967091695818442,
-0.02153331941232749,-0.032569064905265233,
-0.0237107971887298,-0.030391587128862928,
-0.025108823979283011,-0.027647805062745546,
-0.025590551181102365,-0.024606299212598427,
-0.025108823979283011,-0.021564793362451307,
-0.0237107971887298,-0.018821011296333928,
-0.021533319412327497,-0.016643533519931621,
-0.018789537346210118,-0.015245506729378409,
0*
4,1,19,
0.015748031496062995,-0.014763779527559057,
0.018789537346210115,-0.015245506729378409,
0.02153331941232749,-0.016643533519931621,
0.0237107971887298,-0.018821011296333928,
0.025108823979283011,-0.021564793362451307,
0.025590551181102365,-0.024606299212598427,
0.025108823979283011,-0.027647805062745546,
0.0237107971887298,-0.030391587128862925,
0.021533319412327497,-0.032569064905265233,
0.018789537346210115,-0.033967091695818442,
0.015748031496062995,-0.034448818897637797,
0.012706525645915871,-0.033967091695818442,
0.009962743579798497,-0.032569064905265233,
0.0077852658033961885,-0.030391587128862928,
0.0063872390128429787,-0.027647805062745546,
0.0059055118110236228,-0.024606299212598427,
0.006387239012842977,-0.021564793362451307,
0.0077852658033961868,-0.018821011296333928,
0.0099627435797984918,-0.016643533519931621,
0.012706525645915871,-0.015245506729378409,
0*
4,1,19,
0.015748031496062995,0.034448818897637797,
0.018789537346210115,0.033967091695818442,
0.02153331941232749,0.032569064905265233,
0.0237107971887298,0.030391587128862928,
0.025108823979283011,0.027647805062745546,
0.025590551181102365,0.024606299212598427,
0.025108823979283011,0.021564793362451307,
0.0237107971887298,0.018821011296333928,
0.021533319412327497,0.016643533519931621,
0.018789537346210115,0.015245506729378409,
0.015748031496062995,0.014763779527559057,
0.012706525645915871,0.015245506729378409,
0.009962743579798497,0.016643533519931621,
0.0077852658033961885,0.018821011296333925,
0.0063872390128429787,0.021564793362451307,
0.0059055118110236228,0.024606299212598427,
0.006387239012842977,0.027647805062745546,
0.0077852658033961868,0.030391587128862925,
0.0099627435797984918,0.032569064905265233,
0.012706525645915871,0.033967091695818442,
0*
4,1,19,
-0.015748031496062995,0.034448818897637797,
-0.012706525645915873,0.033967091695818442,
-0.0099627435797984935,0.032569064905265233,
-0.0077852658033961877,0.030391587128862928,
-0.0063872390128429787,0.027647805062745546,
-0.0059055118110236228,0.024606299212598427,
-0.006387239012842977,0.021564793362451307,
-0.0077852658033961877,0.018821011296333928,
-0.0099627435797984918,0.016643533519931621,
-0.012706525645915873,0.015245506729378409,
-0.015748031496062992,0.014763779527559057,
-0.018789537346210118,0.015245506729378409,
-0.02153331941232749,0.016643533519931621,
-0.0237107971887298,0.018821011296333925,
-0.025108823979283011,0.021564793362451307,
-0.025590551181102365,0.024606299212598427,
-0.025108823979283011,0.027647805062745546,
-0.0237107971887298,0.030391587128862925,
-0.021533319412327497,0.032569064905265233,
-0.018789537346210118,0.033967091695818442,
0*
4,1,3,
-0.015748031496062995,-0.034448818897637797,
-0.015748031496062995,-0.014763779527559057,
0.015748031496062995,-0.014763779527559057,
0.015748031496062995,-0.034448818897637797,
0*
4,1,3,
0.025590551181102365,-0.024606299212598427,
0.0059055118110236228,-0.024606299212598427,
0.0059055118110236228,0.024606299212598427,
0.025590551181102365,0.024606299212598427,
0*
4,1,3,
0.015748031496062995,0.034448818897637797,
0.015748031496062995,0.014763779527559057,
-0.015748031496062995,0.014763779527559057,
-0.015748031496062995,0.034448818897637797,
0*
4,1,3,
-0.025590551181102365,0.024606299212598427,
-0.0059055118110236228,0.024606299212598427,
-0.0059055118110236228,-0.024606299212598427,
-0.025590551181102365,-0.024606299212598427,
0*%
%ADD34COMP237,0.25X-0.4X-0.625X0.4X-0.625X0.4X0.625X-0.4X0.625X0*%
%AMCOMP240*
4,1,3,
0.015748031496062995,0.024606299212598427,
-0.015748031496062995,0.024606299212598427,
-0.015748031496062995,-0.024606299212598427,
0.015748031496062995,-0.024606299212598427,
0*
4,1,19,
0.015748031496062995,0.034448818897637797,
0.018789537346210115,0.033967091695818442,
0.02153331941232749,0.032569064905265233,
0.0237107971887298,0.030391587128862928,
0.025108823979283011,0.027647805062745546,
0.025590551181102365,0.024606299212598427,
0.025108823979283011,0.021564793362451307,
0.0237107971887298,0.018821011296333928,
0.021533319412327497,0.016643533519931621,
0.018789537346210115,0.015245506729378409,
0.015748031496062995,0.014763779527559057,
0.012706525645915871,0.015245506729378409,
0.009962743579798497,0.016643533519931621,
0.0077852658033961885,0.018821011296333925,
0.0063872390128429787,0.021564793362451307,
0.0059055118110236228,0.024606299212598427,
0.006387239012842977,0.027647805062745546,
0.0077852658033961868,0.030391587128862925,
0.0099627435797984918,0.032569064905265233,
0.012706525645915871,0.033967091695818442,
0*
4,1,19,
-0.015748031496062995,0.034448818897637797,
-0.012706525645915873,0.033967091695818442,
-0.0099627435797984935,0.032569064905265233,
-0.0077852658033961877,0.030391587128862928,
-0.0063872390128429787,0.027647805062745546,
-0.0059055118110236228,0.024606299212598427,
-0.006387239012842977,0.021564793362451307,
-0.0077852658033961877,0.018821011296333928,
-0.0099627435797984918,0.016643533519931621,
-0.012706525645915873,0.015245506729378409,
-0.015748031496062992,0.014763779527559057,
-0.018789537346210118,0.015245506729378409,
-0.02153331941232749,0.016643533519931621,
-0.0237107971887298,0.018821011296333925,
-0.025108823979283011,0.021564793362451307,
-0.025590551181102365,0.024606299212598427,
-0.025108823979283011,0.027647805062745546,
-0.0237107971887298,0.030391587128862925,
-0.021533319412327497,0.032569064905265233,
-0.018789537346210118,0.033967091695818442,
0*
4,1,19,
-0.015748031496062995,-0.014763779527559057,
-0.012706525645915873,-0.015245506729378409,
-0.0099627435797984935,-0.016643533519931621,
-0.0077852658033961877,-0.018821011296333928,
-0.0063872390128429787,-0.021564793362451307,
-0.0059055118110236228,-0.024606299212598427,
-0.006387239012842977,-0.027647805062745546,
-0.0077852658033961877,-0.030391587128862925,
-0.0099627435797984918,-0.032569064905265233,
-0.012706525645915873,-0.033967091695818442,
-0.015748031496062992,-0.034448818897637797,
-0.018789537346210118,-0.033967091695818442,
-0.02153331941232749,-0.032569064905265233,
-0.0237107971887298,-0.030391587128862928,
-0.025108823979283011,-0.027647805062745546,
-0.025590551181102365,-0.024606299212598427,
-0.025108823979283011,-0.021564793362451307,
-0.0237107971887298,-0.018821011296333928,
-0.021533319412327497,-0.016643533519931621,
-0.018789537346210118,-0.015245506729378409,
0*
4,1,19,
0.015748031496062995,-0.014763779527559057,
0.018789537346210115,-0.015245506729378409,
0.02153331941232749,-0.016643533519931621,
0.0237107971887298,-0.018821011296333928,
0.025108823979283011,-0.021564793362451307,
0.025590551181102365,-0.024606299212598427,
0.025108823979283011,-0.027647805062745546,
0.0237107971887298,-0.030391587128862925,
0.021533319412327497,-0.032569064905265233,
0.018789537346210115,-0.033967091695818442,
0.015748031496062995,-0.034448818897637797,
0.012706525645915871,-0.033967091695818442,
0.009962743579798497,-0.032569064905265233,
0.0077852658033961885,-0.030391587128862928,
0.0063872390128429787,-0.027647805062745546,
0.0059055118110236228,-0.024606299212598427,
0.006387239012842977,-0.021564793362451307,
0.0077852658033961868,-0.018821011296333928,
0.0099627435797984918,-0.016643533519931621,
0.012706525645915871,-0.015245506729378409,
0*
4,1,3,
0.015748031496062995,0.034448818897637797,
0.015748031496062995,0.014763779527559057,
-0.015748031496062995,0.014763779527559057,
-0.015748031496062995,0.034448818897637797,
0*
4,1,3,
-0.025590551181102365,0.024606299212598427,
-0.0059055118110236228,0.024606299212598427,
-0.0059055118110236228,-0.024606299212598427,
-0.025590551181102365,-0.024606299212598427,
0*
4,1,3,
-0.015748031496062995,-0.034448818897637797,
-0.015748031496062995,-0.014763779527559057,
0.015748031496062995,-0.014763779527559057,
0.015748031496062995,-0.034448818897637797,
0*
4,1,3,
0.025590551181102365,-0.024606299212598427,
0.0059055118110236228,-0.024606299212598427,
0.0059055118110236228,0.024606299212598427,
0.025590551181102365,0.024606299212598427,
0*%
%ADD35COMP240,0.25X0.4X0.625X-0.4X0.625X-0.4X-0.625X0.4X-0.625X0*%
%ADD36R,0.043307086614173235X0.043307086614173235*%
%ADD37R,0.074803149606299218X0.031496062992125991*%
%AMCOMP243*
4,1,3,
-0.015748031496062995,-0.024606299212598427,
0.015748031496062995,-0.024606299212598427,
0.015748031496062995,0.024606299212598427,
-0.015748031496062995,0.024606299212598427,
0*
4,1,19,
-0.015748031496062995,-0.014763779527559057,
-0.012706525645915873,-0.015245506729378409,
-0.0099627435797984935,-0.016643533519931621,
-0.0077852658033961877,-0.018821011296333928,
-0.0063872390128429787,-0.021564793362451307,
-0.0059055118110236228,-0.024606299212598427,
-0.006387239012842977,-0.027647805062745546,
-0.0077852658033961877,-0.030391587128862925,
-0.0099627435797984918,-0.032569064905265233,
-0.012706525645915873,-0.033967091695818442,
-0.015748031496062992,-0.034448818897637797,
-0.018789537346210118,-0.033967091695818442,
-0.02153331941232749,-0.032569064905265233,
-0.0237107971887298,-0.030391587128862928,
-0.025108823979283011,-0.027647805062745546,
-0.025590551181102365,-0.024606299212598427,
-0.025108823979283011,-0.021564793362451307,
-0.0237107971887298,-0.018821011296333928,
-0.021533319412327497,-0.016643533519931621,
-0.018789537346210118,-0.015245506729378409,
0*
4,1,19,
0.015748031496062995,-0.014763779527559057,
0.018789537346210115,-0.015245506729378409,
0.02153331941232749,-0.016643533519931621,
0.0237107971887298,-0.018821011296333928,
0.025108823979283011,-0.021564793362451307,
0.025590551181102365,-0.024606299212598427,
0.025108823979283011,-0.027647805062745546,
0.0237107971887298,-0.030391587128862925,
0.021533319412327497,-0.032569064905265233,
0.018789537346210115,-0.033967091695818442,
0.015748031496062995,-0.034448818897637797,
0.012706525645915871,-0.033967091695818442,
0.009962743579798497,-0.032569064905265233,
0.0077852658033961885,-0.030391587128862928,
0.0063872390128429787,-0.027647805062745546,
0.0059055118110236228,-0.024606299212598427,
0.006387239012842977,-0.021564793362451307,
0.0077852658033961868,-0.018821011296333928,
0.0099627435797984918,-0.016643533519931621,
0.012706525645915871,-0.015245506729378409,
0*
4,1,19,
0.015748031496062995,0.034448818897637797,
0.018789537346210115,0.033967091695818442,
0.02153331941232749,0.032569064905265233,
0.0237107971887298,0.030391587128862928,
0.025108823979283011,0.027647805062745546,
0.025590551181102365,0.024606299212598427,
0.025108823979283011,0.021564793362451307,
0.0237107971887298,0.018821011296333928,
0.021533319412327497,0.016643533519931621,
0.018789537346210115,0.015245506729378409,
0.015748031496062995,0.014763779527559057,
0.012706525645915871,0.015245506729378409,
0.009962743579798497,0.016643533519931621,
0.0077852658033961885,0.018821011296333925,
0.0063872390128429787,0.021564793362451307,
0.0059055118110236228,0.024606299212598427,
0.006387239012842977,0.027647805062745546,
0.0077852658033961868,0.030391587128862925,
0.0099627435797984918,0.032569064905265233,
0.012706525645915871,0.033967091695818442,
0*
4,1,19,
-0.015748031496062995,0.034448818897637797,
-0.012706525645915873,0.033967091695818442,
-0.0099627435797984935,0.032569064905265233,
-0.0077852658033961877,0.030391587128862928,
-0.0063872390128429787,0.027647805062745546,
-0.0059055118110236228,0.024606299212598427,
-0.006387239012842977,0.021564793362451307,
-0.0077852658033961877,0.018821011296333928,
-0.0099627435797984918,0.016643533519931621,
-0.012706525645915873,0.015245506729378409,
-0.015748031496062992,0.014763779527559057,
-0.018789537346210118,0.015245506729378409,
-0.02153331941232749,0.016643533519931621,
-0.0237107971887298,0.018821011296333925,
-0.025108823979283011,0.021564793362451307,
-0.025590551181102365,0.024606299212598427,
-0.025108823979283011,0.027647805062745546,
-0.0237107971887298,0.030391587128862925,
-0.021533319412327497,0.032569064905265233,
-0.018789537346210118,0.033967091695818442,
0*
4,1,3,
-0.015748031496062995,-0.034448818897637797,
-0.015748031496062995,-0.014763779527559057,
0.015748031496062995,-0.014763779527559057,
0.015748031496062995,-0.034448818897637797,
0*
4,1,3,
0.025590551181102365,-0.024606299212598427,
0.0059055118110236228,-0.024606299212598427,
0.0059055118110236228,0.024606299212598427,
0.025590551181102365,0.024606299212598427,
0*
4,1,3,
0.015748031496062995,0.034448818897637797,
0.015748031496062995,0.014763779527559057,
-0.015748031496062995,0.014763779527559057,
-0.015748031496062995,0.034448818897637797,
0*
4,1,3,
-0.025590551181102365,0.024606299212598427,
-0.0059055118110236228,0.024606299212598427,
-0.0059055118110236228,-0.024606299212598427,
-0.025590551181102365,-0.024606299212598427,
0*%
%ADD38COMP243,0.25X-0.4X-0.625X0.4X-0.625X0.4X0.625X-0.4X0.625X0*%
%AMCOMP246*
4,1,3,
0.015748031496062995,0.024606299212598427,
-0.015748031496062995,0.024606299212598427,
-0.015748031496062995,-0.024606299212598427,
0.015748031496062995,-0.024606299212598427,
0*
4,1,19,
0.015748031496062995,0.034448818897637797,
0.018789537346210115,0.033967091695818442,
0.02153331941232749,0.032569064905265233,
0.0237107971887298,0.030391587128862928,
0.025108823979283011,0.027647805062745546,
0.025590551181102365,0.024606299212598427,
0.025108823979283011,0.021564793362451307,
0.0237107971887298,0.018821011296333928,
0.021533319412327497,0.016643533519931621,
0.018789537346210115,0.015245506729378409,
0.015748031496062995,0.014763779527559057,
0.012706525645915871,0.015245506729378409,
0.009962743579798497,0.016643533519931621,
0.0077852658033961885,0.018821011296333925,
0.0063872390128429787,0.021564793362451307,
0.0059055118110236228,0.024606299212598427,
0.006387239012842977,0.027647805062745546,
0.0077852658033961868,0.030391587128862925,
0.0099627435797984918,0.032569064905265233,
0.012706525645915871,0.033967091695818442,
0*
4,1,19,
-0.015748031496062995,0.034448818897637797,
-0.012706525645915873,0.033967091695818442,
-0.0099627435797984935,0.032569064905265233,
-0.0077852658033961877,0.030391587128862928,
-0.0063872390128429787,0.027647805062745546,
-0.0059055118110236228,0.024606299212598427,
-0.006387239012842977,0.021564793362451307,
-0.0077852658033961877,0.018821011296333928,
-0.0099627435797984918,0.016643533519931621,
-0.012706525645915873,0.015245506729378409,
-0.015748031496062992,0.014763779527559057,
-0.018789537346210118,0.015245506729378409,
-0.02153331941232749,0.016643533519931621,
-0.0237107971887298,0.018821011296333925,
-0.025108823979283011,0.021564793362451307,
-0.025590551181102365,0.024606299212598427,
-0.025108823979283011,0.027647805062745546,
-0.0237107971887298,0.030391587128862925,
-0.021533319412327497,0.032569064905265233,
-0.018789537346210118,0.033967091695818442,
0*
4,1,19,
-0.015748031496062995,-0.014763779527559057,
-0.012706525645915873,-0.015245506729378409,
-0.0099627435797984935,-0.016643533519931621,
-0.0077852658033961877,-0.018821011296333928,
-0.0063872390128429787,-0.021564793362451307,
-0.0059055118110236228,-0.024606299212598427,
-0.006387239012842977,-0.027647805062745546,
-0.0077852658033961877,-0.030391587128862925,
-0.0099627435797984918,-0.032569064905265233,
-0.012706525645915873,-0.033967091695818442,
-0.015748031496062992,-0.034448818897637797,
-0.018789537346210118,-0.033967091695818442,
-0.02153331941232749,-0.032569064905265233,
-0.0237107971887298,-0.030391587128862928,
-0.025108823979283011,-0.027647805062745546,
-0.025590551181102365,-0.024606299212598427,
-0.025108823979283011,-0.021564793362451307,
-0.0237107971887298,-0.018821011296333928,
-0.021533319412327497,-0.016643533519931621,
-0.018789537346210118,-0.015245506729378409,
0*
4,1,19,
0.015748031496062995,-0.014763779527559057,
0.018789537346210115,-0.015245506729378409,
0.02153331941232749,-0.016643533519931621,
0.0237107971887298,-0.018821011296333928,
0.025108823979283011,-0.021564793362451307,
0.025590551181102365,-0.024606299212598427,
0.025108823979283011,-0.027647805062745546,
0.0237107971887298,-0.030391587128862925,
0.021533319412327497,-0.032569064905265233,
0.018789537346210115,-0.033967091695818442,
0.015748031496062995,-0.034448818897637797,
0.012706525645915871,-0.033967091695818442,
0.009962743579798497,-0.032569064905265233,
0.0077852658033961885,-0.030391587128862928,
0.0063872390128429787,-0.027647805062745546,
0.0059055118110236228,-0.024606299212598427,
0.006387239012842977,-0.021564793362451307,
0.0077852658033961868,-0.018821011296333928,
0.0099627435797984918,-0.016643533519931621,
0.012706525645915871,-0.015245506729378409,
0*
4,1,3,
0.015748031496062995,0.034448818897637797,
0.015748031496062995,0.014763779527559057,
-0.015748031496062995,0.014763779527559057,
-0.015748031496062995,0.034448818897637797,
0*
4,1,3,
-0.025590551181102365,0.024606299212598427,
-0.0059055118110236228,0.024606299212598427,
-0.0059055118110236228,-0.024606299212598427,
-0.025590551181102365,-0.024606299212598427,
0*
4,1,3,
-0.015748031496062995,-0.034448818897637797,
-0.015748031496062995,-0.014763779527559057,
0.015748031496062995,-0.014763779527559057,
0.015748031496062995,-0.034448818897637797,
0*
4,1,3,
0.025590551181102365,-0.024606299212598427,
0.0059055118110236228,-0.024606299212598427,
0.0059055118110236228,0.024606299212598427,
0.025590551181102365,0.024606299212598427,
0*%
%ADD39COMP246,0.25X0.4X0.625X-0.4X0.625X-0.4X-0.625X0.4X-0.625X0*%
G01*
D10*
X-0002913385Y0007125984D02*
X0001766496Y0002250984D03*
X0001876732Y0002250984D03*
D11*
X0001784370Y0002398385D03*
X0001784370Y0002323582D03*
X0001878858Y0002360984D03*
D12*
X0001642637Y0002345984D03*
X0001520590Y0002345984D03*
D13*
X0001520590Y0002250984D03*
X0001642637Y0002250984D03*
X0001265590Y0002345984D03*
X0001387637Y0002345984D03*
X0000905590Y0002350984D03*
X0001027637Y0002350984D03*
G04 next file*
G04 #@! TF.GenerationSoftware,KiCad,Pcbnew,(6.0.5)*
G04 #@! TF.CreationDate,2022-08-01T18:55:39+01:00*
G04 #@! TF.ProjectId,LED-RPi-PCB,4c45442d-5250-4692-9d50-43422e6b6963,rev?*
G04 #@! TF.SameCoordinates,Original*
G04 #@! TF.FileFunction,Paste,Top*
G04 #@! TF.FilePolarity,Positive*
G04 Gerber Fmt 4.6, Leading zero omitted, Abs format (unit mm)*
G04 Created by KiCad (PCBNEW (6.0.5)) date 2022-08-01 18:55:39*
G01*
G04 APERTURE LIST*
G04 Aperture macros list*
G04 Aperture macros list end*
G04 APERTURE END LIST*
D24*
X-0002913385Y0005275590D02*
X0001766496Y0000400590D03*
X0001876732Y0000400590D03*
D25*
X0001784370Y0000547992D03*
X0001784370Y0000473188D03*
X0001878858Y0000510590D03*
D26*
X0001642637Y0000495590D03*
X0001520590Y0000495590D03*
D27*
X0001520590Y0000400590D03*
X0001642637Y0000400590D03*
X0001265590Y0000495590D03*
X0001387637Y0000495590D03*
X0000905590Y0000500590D03*
X0001027637Y0000500590D03*
G04 next file*
G04 #@! TF.GenerationSoftware,KiCad,Pcbnew,(6.0.5)*
G04 #@! TF.CreationDate,2022-08-01T19:03:23+01:00*
G04 #@! TF.ProjectId,PWM-TRANSISTOR-PCB,50574d2d-5452-4414-9e53-4953544f522d,rev?*
G04 #@! TF.SameCoordinates,Original*
G04 #@! TF.FileFunction,Paste,Top*
G04 #@! TF.FilePolarity,Positive*
G04 Gerber Fmt 4.6, Leading zero omitted, Abs format (unit mm)*
G04 Created by KiCad (PCBNEW (6.0.5)) date 2022-08-01 19:03:23*
G01*
G04 APERTURE LIST*
G04 Aperture macros list*
G04 Aperture macros list end*
G04 APERTURE END LIST*
D28*
X-0001614173Y0007952755D02*
X0002838208Y0003182755D03*
X0002948444Y0003182755D03*
D29*
X0002844271Y0003330157D03*
X0002844271Y0003255354D03*
X0002962381Y0003292755D03*
D30*
X0002832303Y0002962755D03*
X0002954350Y0002962755D03*
D31*
X0002954350Y0003057755D03*
X0002832303Y0003057755D03*
G04 next file*
G04 #@! TF.GenerationSoftware,KiCad,Pcbnew,(6.0.5)*
G04 #@! TF.CreationDate,2022-08-01T19:03:23+01:00*
G04 #@! TF.ProjectId,PWM-TRANSISTOR-PCB,50574d2d-5452-4414-9e53-4953544f522d,rev?*
G04 #@! TF.SameCoordinates,Original*
G04 #@! TF.FileFunction,Paste,Top*
G04 #@! TF.FilePolarity,Positive*
G04 Gerber Fmt 4.6, Leading zero omitted, Abs format (unit mm)*
G04 Created by KiCad (PCBNEW (6.0.5)) date 2022-08-01 19:03:23*
G01*
G04 APERTURE LIST*
G04 Aperture macros list*
G04 Aperture macros list end*
G04 APERTURE END LIST*
D32*
X-0001614173Y0006889763D02*
X0002838208Y0002119763D03*
X0002948444Y0002119763D03*
D33*
X0002844271Y0002267165D03*
X0002844271Y0002192362D03*
X0002962381Y0002229763D03*
D34*
X0002832303Y0001899763D03*
X0002954350Y0001899763D03*
D35*
X0002954350Y0001994763D03*
X0002832303Y0001994763D03*
G04 next file*
G04 #@! TF.GenerationSoftware,KiCad,Pcbnew,(6.0.5)*
G04 #@! TF.CreationDate,2022-08-01T19:03:23+01:00*
G04 #@! TF.ProjectId,PWM-TRANSISTOR-PCB,50574d2d-5452-4414-9e53-4953544f522d,rev?*
G04 #@! TF.SameCoordinates,Original*
G04 #@! TF.FileFunction,Paste,Top*
G04 #@! TF.FilePolarity,Positive*
G04 Gerber Fmt 4.6, Leading zero omitted, Abs format (unit mm)*
G04 Created by KiCad (PCBNEW (6.0.5)) date 2022-08-01 19:03:23*
G01*
G04 APERTURE LIST*
G04 Aperture macros list*
G04 Aperture macros list end*
G04 APERTURE END LIST*
D36*
X-0001614173Y0005826771D02*
X0002838208Y0001056771D03*
X0002948444Y0001056771D03*
D37*
X0002844271Y0001204173D03*
X0002844271Y0001129370D03*
X0002962381Y0001166771D03*
D38*
X0002832303Y0000836771D03*
X0002954350Y0000836771D03*
D39*
X0002954350Y0000931771D03*
X0002832303Y0000931771D03*
M02*