%MOIN*%
%OFA0B0*%
%FSLAX36Y36*%
%IPPOS*%
%LPD*%
%ADD10C,0*%
D10*
X002391613Y001256947D02*
X002391613Y001256947D01*
X002391741Y001260108D01*
X002392121Y001263249D01*
X002392753Y001266349D01*
X002393631Y001269388D01*
X002394750Y001272347D01*
X002396104Y001275206D01*
X002397682Y001277948D01*
X002399476Y001280554D01*
X002401473Y001283007D01*
X002403661Y001285293D01*
X002406025Y001287395D01*
X002408551Y001289301D01*
X002411221Y001290997D01*
X002414018Y001292474D01*
X002416926Y001293722D01*
X002419924Y001294732D01*
X002422993Y001295498D01*
X002426114Y001296015D01*
X002429267Y001296279D01*
X002432431Y001296290D01*
X002462994Y001295166D01*
X002466005Y001294939D01*
X002468989Y001294483D01*
X002471930Y001293799D01*
X002474810Y001292891D01*
X002477612Y001291766D01*
X002480319Y001290429D01*
X002482916Y001288889D01*
X002485387Y001287154D01*
X002487718Y001285235D01*
X002489895Y001283142D01*
X002491905Y001280890D01*
X002493737Y001278489D01*
X002495379Y001275956D01*
X002496823Y001273304D01*
X002498059Y001270549D01*
X002499080Y001267708D01*
X002499880Y001264796D01*
X002500455Y001261832D01*
X002500801Y001258833D01*
X002500917Y001255815D01*
X002500862Y000954266D01*
X002500645Y000950151D01*
X002500000Y000946081D01*
X002498933Y000942100D01*
X002497455Y000938253D01*
X002495583Y000934582D01*
X002493338Y000931126D01*
X002490744Y000927924D01*
X002487830Y000925010D01*
X002484627Y000922418D01*
X002481170Y000920174D01*
X002477498Y000918304D01*
X002473650Y000916828D01*
X002469669Y000915762D01*
X002465599Y000915118D01*
X002461484Y000914903D01*
X002457368Y000915120D01*
X002453298Y000915765D01*
X002449318Y000916833D01*
X002445471Y000918310D01*
X002441799Y000920182D01*
X002411291Y000937804D01*
X002409534Y000938882D01*
X002407836Y000940049D01*
X002406202Y000941304D01*
X002404635Y000942643D01*
X002403140Y000944061D01*
X002401722Y000945556D01*
X002400384Y000947124D01*
X002399129Y000948759D01*
X002397962Y000950457D01*
X002396886Y000952214D01*
X002395903Y000954025D01*
X002395016Y000955886D01*
X002394227Y000957789D01*
X002393540Y000959732D01*
X002392954Y000961708D01*
X002392473Y000963712D01*
X002392098Y000965738D01*
X002391829Y000967781D01*
X002391667Y000969836D01*
X002391613Y000971896D01*
X002391613Y001256947D01*
X002506811Y001463130D02*
X002506811Y001463130D01*
X002506175Y001461158D01*
X002505436Y001459222D01*
X002504596Y001457327D01*
X002503658Y001455480D01*
X002502624Y001453684D01*
X002501497Y001451945D01*
X002500280Y001450268D01*
X002498977Y001448657D01*
X002497590Y001447117D01*
X002496125Y001445652D01*
X002494584Y001444266D01*
X002492973Y001442964D01*
X002491295Y001441747D01*
X002489556Y001440621D01*
X002487759Y001439588D01*
X002485911Y001438651D01*
X002484016Y001437812D01*
X002482080Y001437074D01*
X002480108Y001436439D01*
X002478104Y001435909D01*
X002440053Y001426901D01*
X002436567Y001426240D01*
X002433035Y001425895D01*
X002429487Y001425870D01*
X002425950Y001426165D01*
X002422455Y001426777D01*
X002419029Y001427701D01*
X002415700Y001428930D01*
X002412495Y001430453D01*
X002409440Y001432259D01*
X002406561Y001434333D01*
X002403880Y001436657D01*
X002401419Y001439214D01*
X002399198Y001441981D01*
X002397235Y001444938D01*
X002395547Y001448059D01*
X002394146Y001451319D01*
X002393045Y001454692D01*
X002392252Y001458151D01*
X002391773Y001461667D01*
X002391613Y001465212D01*
X002391613Y001865590D01*
X002390688Y001877960D01*
X002388745Y001890211D01*
X002385796Y001902260D01*
X002381862Y001914024D01*
X002376971Y001925423D01*
X002371155Y001936380D01*
X002364454Y001946819D01*
X002356914Y001956668D01*
X002348585Y001965861D01*
X002339527Y001974335D01*
X002329800Y001982032D01*
X002319470Y001988900D01*
X002308608Y001994891D01*
X002297289Y001999965D01*
X002285589Y002004086D01*
X002273589Y002007228D01*
X002261371Y002009367D01*
X002249018Y002010491D01*
X002236614Y002010590D01*
X002236614Y002010590D01*
X002201983Y002010590D01*
X002198417Y002010752D01*
X002194879Y002011236D01*
X002191400Y002012039D01*
X002188008Y002013154D01*
X002184732Y002014571D01*
X002181596Y002016280D01*
X002178629Y002018265D01*
X002175854Y002020511D01*
X002173293Y002022999D01*
X002170969Y002025710D01*
X002168899Y002028619D01*
X002167102Y002031704D01*
X002165591Y002034939D01*
X002164380Y002038298D01*
X002163478Y002041752D01*
X002162893Y002045274D01*
X002162629Y002048835D01*
X002162689Y002052405D01*
X002163072Y002055955D01*
X002163775Y002059455D01*
X002174105Y002101024D01*
X002174818Y002103532D01*
X002175694Y002105987D01*
X002176732Y002108379D01*
X002177925Y002110697D01*
X002179269Y002112932D01*
X002180758Y002115072D01*
X002182386Y002117109D01*
X002184145Y002119034D01*
X002186027Y002120838D01*
X002188024Y002122513D01*
X002190128Y002124053D01*
X002192330Y002125450D01*
X002194619Y002126698D01*
X002196986Y002127792D01*
X002199419Y002128727D01*
X002201910Y002129499D01*
X002204446Y002130105D01*
X002207016Y002130541D01*
X002209610Y002130806D01*
X002212216Y002130899D01*
X002246613Y002130984D01*
X002258983Y002131909D01*
X002271235Y002133853D01*
X002283283Y002136802D01*
X002295048Y002140735D01*
X002306447Y002145626D01*
X002317403Y002151443D01*
X002327842Y002158143D01*
X002337691Y002165684D01*
X002346884Y002174012D01*
X002355359Y002183070D01*
X002363055Y002192798D01*
X002369923Y002203127D01*
X002375914Y002213989D01*
X002380988Y002225309D01*
X002385109Y002237008D01*
X002388251Y002249008D01*
X002390390Y002261227D01*
X002391514Y002273580D01*
X002391613Y002285984D01*
X002391613Y002321870D01*
X002391791Y002325605D01*
X002392322Y002329305D01*
X002393202Y002332939D01*
X002394422Y002336473D01*
X002395972Y002339876D01*
X002397838Y002343116D01*
X002400003Y002346164D01*
X002402447Y002348993D01*
X002405149Y002351578D01*
X002408083Y002353894D01*
X002411224Y002355922D01*
X002414543Y002357643D01*
X002418011Y002359041D01*
X002421595Y002360104D01*
X002425265Y002360822D01*
X002428985Y002361189D01*
X002432724Y002361202D01*
X002436447Y002360859D01*
X002440121Y002360165D01*
X002443713Y002359125D01*
X002474274Y002348684D01*
X002476561Y002347822D01*
X002478791Y002346820D01*
X002480953Y002345682D01*
X002483041Y002344412D01*
X002485046Y002343014D01*
X002486961Y002341495D01*
X002488778Y002339860D01*
X002490489Y002338116D01*
X002492089Y002336269D01*
X002493572Y002334326D01*
X002494931Y002332294D01*
X002496161Y002330183D01*
X002497258Y002327999D01*
X002498218Y002325751D01*
X002499036Y002323448D01*
X002499709Y002321098D01*
X002500236Y002318712D01*
X002500613Y002316297D01*
X002500840Y002313864D01*
X002500915Y002311421D01*
X002500824Y001812144D01*
X002500959Y001799393D01*
X002502342Y001786718D01*
X002504959Y001774238D01*
X002508785Y001762074D01*
X002513783Y001750344D01*
X002519906Y001739159D01*
X002527094Y001728627D01*
X002535279Y001718850D01*
X002544381Y001709920D01*
X002554314Y001701925D01*
X002564982Y001694940D01*
X002576282Y001689034D01*
X002588106Y001684261D01*
X002600341Y001680670D01*
X002612868Y001678293D01*
X002625569Y001677154D01*
X002638326Y001677263D01*
X002690780Y001677092D01*
X002693718Y001676973D01*
X002696639Y001676634D01*
X002699526Y001676079D01*
X002702365Y001675310D01*
X002705137Y001674330D01*
X002707829Y001673147D01*
X002710425Y001671766D01*
X002712911Y001670195D01*
X002715273Y001668443D01*
X002717497Y001666520D01*
X002719572Y001664436D01*
X002721485Y001662203D01*
X002723226Y001659833D01*
X002724786Y001657340D01*
X002726155Y001654738D01*
X002727326Y001652040D01*
X002728292Y001649263D01*
X002729048Y001646421D01*
X002729591Y001643531D01*
X002729915Y001640609D01*
X002733156Y001596528D01*
X002733260Y001593294D01*
X002733099Y001590062D01*
X002732672Y001586855D01*
X002731984Y001583693D01*
X002731039Y001580599D01*
X002729842Y001577592D01*
X002728403Y001574694D01*
X002726730Y001571924D01*
X002724836Y001569301D01*
X002722733Y001566842D01*
X002720435Y001564564D01*
X002717958Y001562483D01*
X002715318Y001560612D01*
X002712533Y001558964D01*
X002709623Y001557551D01*
X002706606Y001556381D01*
X002703503Y001555462D01*
X002700336Y001554802D01*
X002697125Y001554404D01*
X002693892Y001554271D01*
X002635826Y001554271D01*
X002623076Y001554137D01*
X002610400Y001552754D01*
X002597920Y001550137D01*
X002585757Y001546311D01*
X002574027Y001541313D01*
X002562842Y001535191D01*
X002552310Y001528003D01*
X002542532Y001519818D01*
X002533603Y001510716D01*
X002525607Y001500783D01*
X002518623Y001490115D01*
X002512716Y001478815D01*
X002507944Y001466991D01*
X002506811Y001463130D01*
X003201824Y001675428D02*
X003201824Y001675428D01*
X003204473Y001675330D01*
X003207110Y001675054D01*
X003209722Y001674601D01*
X003212297Y001673974D01*
X003214825Y001673174D01*
X003217293Y001672207D01*
X003219690Y001671075D01*
X003222006Y001669785D01*
X003224229Y001668342D01*
X003226351Y001666752D01*
X003228361Y001665023D01*
X003230249Y001663163D01*
X003232009Y001661180D01*
X003233631Y001659083D01*
X003235108Y001656882D01*
X003236433Y001654586D01*
X003237601Y001652207D01*
X003238607Y001649754D01*
X003239445Y001647239D01*
X003240112Y001644673D01*
X003249624Y001602256D01*
X003250241Y001598785D01*
X003250544Y001595273D01*
X003250533Y001591748D01*
X003250206Y001588238D01*
X003249566Y001584771D01*
X003248619Y001581376D01*
X003247372Y001578079D01*
X003245835Y001574906D01*
X003244020Y001571884D01*
X003241942Y001569036D01*
X003239618Y001566386D01*
X003237066Y001563954D01*
X003234307Y001561760D01*
X003231362Y001559821D01*
X003228256Y001558154D01*
X003225014Y001556771D01*
X003221660Y001555684D01*
X003218223Y001554901D01*
X003214730Y001554429D01*
X003211208Y001554271D01*
X002892471Y001554271D01*
X002889230Y001554405D01*
X002886011Y001554805D01*
X002882836Y001555468D01*
X002879727Y001556391D01*
X002876704Y001557566D01*
X002873788Y001558986D01*
X002870999Y001560642D01*
X002868355Y001562521D01*
X002865875Y001564612D01*
X002863576Y001566900D01*
X002861473Y001569369D01*
X002859580Y001572003D01*
X002857911Y001574784D01*
X002856476Y001577693D01*
X002855285Y001580710D01*
X002854347Y001583814D01*
X002853667Y001586986D01*
X002853251Y001590203D01*
X002853101Y001593443D01*
X002853218Y001596684D01*
X002856584Y001640097D01*
X002856921Y001643023D01*
X002857476Y001645916D01*
X002858246Y001648759D01*
X002859226Y001651536D01*
X002860411Y001654233D01*
X002861795Y001656833D01*
X002863369Y001659323D01*
X002865125Y001661688D01*
X002867053Y001663915D01*
X002869141Y001665992D01*
X002871380Y001667907D01*
X002873755Y001669649D01*
X002876254Y001671209D01*
X002878862Y001672577D01*
X002881565Y001673747D01*
X002884349Y001674711D01*
X002887196Y001675464D01*
X002890092Y001676003D01*
X002893020Y001676323D01*
X002895964Y001676424D01*
X003201824Y001675428D01*
X001078265Y002128085D02*
X001078265Y002128085D01*
X001081042Y002127994D01*
X001083806Y002127707D01*
X001086542Y002127226D01*
X001089239Y002126553D01*
X001091880Y002125691D01*
X001094455Y002124646D01*
X001096949Y002123421D01*
X001099351Y002122024D01*
X001101648Y002120460D01*
X001103829Y002118739D01*
X001105884Y002116868D01*
X001107801Y002114856D01*
X001109572Y002112715D01*
X001111187Y002110453D01*
X001112638Y002108084D01*
X001113919Y002105618D01*
X001115023Y002103068D01*
X001115944Y002100446D01*
X001116678Y002097766D01*
X001117221Y002095041D01*
X001123530Y002056286D01*
X001123931Y002052901D01*
X001124038Y002049494D01*
X001123851Y002046090D01*
X001123369Y002042716D01*
X001122597Y002039396D01*
X001121541Y002036155D01*
X001120209Y002033017D01*
X001118610Y002030007D01*
X001116757Y002027146D01*
X001114663Y002024456D01*
X001112345Y002021957D01*
X001109819Y002019668D01*
X001107104Y002017606D01*
X001104221Y002015787D01*
X001101192Y002014224D01*
X001098039Y002012929D01*
X001094786Y002011912D01*
X001091457Y002011179D01*
X001088077Y002010738D01*
X001084671Y002010590D01*
X000537110Y002010590D01*
X000532757Y002010831D01*
X000528457Y002011553D01*
X000524263Y002012745D01*
X000520227Y002014394D01*
X000516398Y002016479D01*
X000512823Y002018974D01*
X000509545Y002021850D01*
X000506606Y002025070D01*
X000504041Y002028595D01*
X000501881Y002032383D01*
X000500154Y002036386D01*
X000498880Y002040555D01*
X000498074Y002044840D01*
X000497747Y002049188D01*
X000497903Y002053545D01*
X000498540Y002057858D01*
X000499650Y002062075D01*
X000501219Y002066142D01*
X000503228Y002070012D01*
X000505653Y002073635D01*
X000533863Y002111117D01*
X000534989Y002112543D01*
X000536179Y002113916D01*
X000537432Y002115232D01*
X000538744Y002116489D01*
X000540112Y002117684D01*
X000541535Y002118815D01*
X000543008Y002119879D01*
X000544528Y002120874D01*
X000546093Y002121798D01*
X000547698Y002122648D01*
X000549342Y002123424D01*
X000551019Y002124123D01*
X000552727Y002124744D01*
X000554461Y002125285D01*
X000556219Y002125746D01*
X000557996Y002126125D01*
X000559788Y002126422D01*
X000561593Y002126635D01*
X000563405Y002126765D01*
X000565222Y002126812D01*
X001078265Y002128085D01*
X001999429Y002130371D02*
X001999429Y002130371D01*
X002002036Y002130291D01*
X002004633Y002130038D01*
X002007206Y002129615D01*
X002009746Y002129021D01*
X002012242Y002128261D01*
X002014681Y002127337D01*
X002017054Y002126254D01*
X002019350Y002125016D01*
X002021559Y002123629D01*
X002023671Y002122098D01*
X002025677Y002120431D01*
X002027569Y002118635D01*
X002029337Y002116717D01*
X002030975Y002114687D01*
X002032474Y002112552D01*
X002033829Y002110323D01*
X002035033Y002108010D01*
X002036081Y002105621D01*
X002036969Y002103168D01*
X002037693Y002100662D01*
X002048082Y002059622D01*
X002048802Y002056116D01*
X002049200Y002052559D01*
X002049274Y002048981D01*
X002049022Y002045411D01*
X002048448Y002041878D01*
X002047555Y002038413D01*
X002046350Y002035042D01*
X002044845Y002031795D01*
X002043051Y002028698D01*
X002040983Y002025777D01*
X002038659Y002023056D01*
X002036097Y002020557D01*
X002033319Y002018301D01*
X002030347Y002016306D01*
X002027206Y002014590D01*
X002023923Y002013166D01*
X002020524Y002012046D01*
X002017037Y002011239D01*
X002013491Y002010753D01*
X002009916Y002010590D01*
X001282788Y002010590D01*
X001279390Y002010737D01*
X001276017Y002011177D01*
X001272695Y002011906D01*
X001269448Y002012919D01*
X001266301Y002014208D01*
X001263277Y002015765D01*
X001260398Y002017576D01*
X001257687Y002019630D01*
X001255162Y002021909D01*
X001252844Y002024398D01*
X001250750Y002027078D01*
X001248895Y002029928D01*
X001247292Y002032928D01*
X001245955Y002036055D01*
X001244892Y002039286D01*
X001244112Y002042597D01*
X001243621Y002045962D01*
X001243422Y002049358D01*
X001243517Y002052758D01*
X001243905Y002056137D01*
X001250144Y002095414D01*
X001250676Y002098139D01*
X001251399Y002100820D01*
X001252309Y002103443D01*
X001253401Y002105996D01*
X001254671Y002108465D01*
X001256112Y002110839D01*
X001257716Y002113105D01*
X001259476Y002115252D01*
X001261383Y002117270D01*
X001263428Y002119149D01*
X001265599Y002120879D01*
X001267888Y002122451D01*
X001270281Y002123859D01*
X001272768Y002125094D01*
X001275336Y002126150D01*
X001277971Y002127024D01*
X001280662Y002127709D01*
X001283394Y002128203D01*
X001286154Y002128503D01*
X001288929Y002128608D01*
X001999429Y002130371D01*
X003392762Y002617263D02*
X003392762Y002617263D01*
X003389412Y002617406D01*
X003386086Y002617833D01*
X003382809Y002618542D01*
X003379604Y002619527D01*
X003376494Y002620782D01*
X003373502Y002622296D01*
X003370650Y002624059D01*
X003367958Y002626059D01*
X003365447Y002628281D01*
X003363133Y002630708D01*
X003361035Y002633323D01*
X003359166Y002636107D01*
X003357541Y002639041D01*
X003356172Y002642101D01*
X003355068Y002645268D01*
X003354238Y002648516D01*
X003353687Y002651824D01*
X003353419Y002655166D01*
X003353437Y002658519D01*
X003353740Y002661859D01*
X003359335Y002703635D01*
X003359812Y002706430D01*
X003360489Y002709184D01*
X003361363Y002711882D01*
X003362429Y002714510D01*
X003363681Y002717054D01*
X003365113Y002719502D01*
X003366718Y002721840D01*
X003368487Y002724057D01*
X003370410Y002726141D01*
X003372479Y002728080D01*
X003374682Y002729866D01*
X003377008Y002731489D01*
X003379444Y002732940D01*
X003381979Y002734212D01*
X003384599Y002735298D01*
X003387290Y002736192D01*
X003390038Y002736891D01*
X003392830Y002737390D01*
X003395650Y002737686D01*
X003398485Y002737779D01*
X003405826Y002737755D01*
X003418576Y002737891D01*
X003431252Y002739273D01*
X003443732Y002741890D01*
X003455895Y002745716D01*
X003467625Y002750713D01*
X003478811Y002756836D01*
X003489342Y002764024D01*
X003499120Y002772209D01*
X003508049Y002781311D01*
X003516045Y002791244D01*
X003523029Y002801911D01*
X003528936Y002813212D01*
X003533708Y002825036D01*
X003537300Y002837271D01*
X003539677Y002849798D01*
X003540816Y002862498D01*
X003540706Y002875249D01*
X003540826Y003545256D01*
X003540691Y003558006D01*
X003539309Y003570682D01*
X003536692Y003583161D01*
X003532866Y003595325D01*
X003527868Y003607055D01*
X003521745Y003618240D01*
X003514558Y003628772D01*
X003506373Y003638549D01*
X003497271Y003647479D01*
X003487337Y003655474D01*
X003476670Y003662459D01*
X003465370Y003668366D01*
X003453546Y003673138D01*
X003441311Y003676729D01*
X003428783Y003679107D01*
X003416083Y003680246D01*
X003403333Y003680136D01*
X003403326Y003680255D01*
X002635826Y003680255D01*
X002623076Y003680121D01*
X002610400Y003678738D01*
X002597920Y003676121D01*
X002585757Y003672296D01*
X002574027Y003667297D01*
X002562842Y003661175D01*
X002552310Y003653987D01*
X002542532Y003645802D01*
X002533603Y003636700D01*
X002525607Y003626767D01*
X002518623Y003616099D01*
X002512716Y003604799D01*
X002507944Y003592975D01*
X002504352Y003580740D01*
X002501975Y003568213D01*
X002500836Y003555513D01*
X002500864Y003552294D01*
X002500750Y003548943D01*
X002500351Y003545615D01*
X002499671Y003542332D01*
X002498714Y003539119D01*
X002497487Y003535999D01*
X002495999Y003532994D01*
X002494261Y003530128D01*
X002492285Y003527419D01*
X002490086Y003524889D01*
X002487680Y003522554D01*
X002485083Y003520433D01*
X002482316Y003518541D01*
X002479398Y003516890D01*
X002476350Y003515494D01*
X002473194Y003514363D01*
X002469953Y003513504D01*
X002466651Y003512924D01*
X002463312Y003512626D01*
X002459959Y003512614D01*
X002456618Y003512888D01*
X002426106Y003516697D01*
X002423296Y003517151D01*
X002420526Y003517808D01*
X002417810Y003518663D01*
X002415163Y003519712D01*
X002412599Y003520950D01*
X002410131Y003522369D01*
X002407773Y003523963D01*
X002405535Y003525724D01*
X002403431Y003527641D01*
X002401471Y003529706D01*
X002399665Y003531907D01*
X002398023Y003534233D01*
X002396553Y003536671D01*
X002395263Y003539209D01*
X002394160Y003541834D01*
X002393250Y003544531D01*
X002392537Y003547288D01*
X002392025Y003550088D01*
X002391716Y003552919D01*
X002391613Y003555764D01*
X002391613Y003715984D01*
X002390688Y003728354D01*
X002388745Y003740605D01*
X002385796Y003752654D01*
X002381862Y003764418D01*
X002376971Y003775817D01*
X002371155Y003786773D01*
X002364454Y003797212D01*
X002356914Y003807062D01*
X002348585Y003816254D01*
X002339527Y003824729D01*
X002329800Y003832426D01*
X002319470Y003839293D01*
X002308608Y003845285D01*
X002297289Y003850358D01*
X002285589Y003854480D01*
X002273589Y003857621D01*
X002261371Y003859761D01*
X002249018Y003860885D01*
X002236614Y003860984D01*
X002236614Y003860984D01*
X000246614Y003860984D01*
X000233909Y003860509D01*
X000221276Y003859085D01*
X000208785Y003856722D01*
X000196505Y003853431D01*
X000184505Y003849233D01*
X000172853Y003844149D01*
X000161613Y003838208D01*
X000150849Y003831444D01*
X000140620Y003823895D01*
X000130984Y003815603D01*
X000121995Y003806613D01*
X000113702Y003796977D01*
X000106153Y003786748D01*
X000099389Y003775984D01*
X000093449Y003764744D01*
X000088365Y003753092D01*
X000084166Y003741092D01*
X000080876Y003728813D01*
X000078512Y003716321D01*
X000077089Y003703688D01*
X000076614Y003690984D01*
X000076614Y002270984D01*
X000077539Y002258614D01*
X000079482Y002246363D01*
X000082431Y002234314D01*
X000086365Y002222550D01*
X000091256Y002211151D01*
X000097072Y002200194D01*
X000103773Y002189756D01*
X000111313Y002179906D01*
X000119641Y002170713D01*
X000128700Y002162239D01*
X000138427Y002154542D01*
X000148757Y002147674D01*
X000159619Y002141683D01*
X000170938Y002136609D01*
X000182638Y002132488D01*
X000194638Y002129346D01*
X000206856Y002127207D01*
X000219209Y002126083D01*
X000231613Y002125984D01*
X000338931Y002126250D01*
X000340744Y002126213D01*
X000342553Y002126092D01*
X000344355Y002125888D01*
X000346146Y002125602D01*
X000347921Y002125233D01*
X000349678Y002124783D01*
X000351412Y002124252D01*
X000353120Y002123642D01*
X000354797Y002122954D01*
X000356442Y002122190D01*
X000358049Y002121351D01*
X000359617Y002120438D01*
X000361140Y002119455D01*
X000362617Y002118402D01*
X000364043Y002117282D01*
X000365416Y002116098D01*
X000366734Y002114852D01*
X000367993Y002113546D01*
X000369190Y002112184D01*
X000370323Y002110769D01*
X000398505Y002073848D01*
X000400962Y002070230D01*
X000403002Y002066362D01*
X000404600Y002062291D01*
X000405737Y002058068D01*
X000406398Y002053745D01*
X000406576Y002049375D01*
X000406269Y002045013D01*
X000405479Y002040711D01*
X000404217Y002036524D01*
X000402499Y002032503D01*
X000400345Y002028697D01*
X000397782Y002025153D01*
X000394842Y002021915D01*
X000391561Y002019024D01*
X000387980Y002016514D01*
X000384142Y002014417D01*
X000380095Y002012758D01*
X000375890Y002011559D01*
X000371577Y002010833D01*
X000367211Y002010590D01*
X000246614Y002010590D01*
X000233909Y002010115D01*
X000221276Y002008692D01*
X000208785Y002006328D01*
X000196505Y002003038D01*
X000184505Y001998839D01*
X000172853Y001993755D01*
X000161613Y001987815D01*
X000150849Y001981051D01*
X000140620Y001973502D01*
X000130984Y001965209D01*
X000121995Y001956220D01*
X000113702Y001946583D01*
X000106153Y001936355D01*
X000099389Y001925590D01*
X000093449Y001914350D01*
X000088365Y001902698D01*
X000084166Y001890699D01*
X000080876Y001878419D01*
X000078512Y001865927D01*
X000077089Y001853294D01*
X000076614Y001840590D01*
X000076614Y000420590D01*
X000077539Y000408220D01*
X000079482Y000395969D01*
X000082431Y000383920D01*
X000086365Y000372156D01*
X000091256Y000360757D01*
X000097072Y000349801D01*
X000103773Y000339362D01*
X000111313Y000329513D01*
X000119641Y000320320D01*
X000128700Y000311845D01*
X000138427Y000304148D01*
X000148757Y000297281D01*
X000159619Y000291290D01*
X000170938Y000286216D01*
X000182638Y000282094D01*
X000194638Y000278953D01*
X000206856Y000276813D01*
X000219209Y000275690D01*
X000231613Y000275590D01*
X002246613Y000280590D01*
X002258983Y000281516D01*
X002271235Y000283459D01*
X002283283Y000286408D01*
X002295048Y000290341D01*
X002306447Y000295232D01*
X002317403Y000301049D01*
X002327842Y000307750D01*
X002337691Y000315290D01*
X002346884Y000323618D01*
X002355359Y000332677D01*
X002363055Y000342404D01*
X002369923Y000352734D01*
X002375914Y000363595D01*
X002380988Y000374915D01*
X002385109Y000386615D01*
X002388251Y000398614D01*
X002390390Y000410833D01*
X002391514Y000423186D01*
X002391613Y000435590D01*
X002391613Y000748235D01*
X002391667Y000750295D01*
X002391829Y000752349D01*
X002392098Y000754392D01*
X002392473Y000756417D01*
X002392954Y000758421D01*
X002393539Y000760397D01*
X002394226Y000762339D01*
X002395015Y000764242D01*
X002395901Y000766102D01*
X002396884Y000767913D01*
X002397960Y000769670D01*
X002399127Y000771368D01*
X002400381Y000773003D01*
X002401718Y000774570D01*
X002403136Y000776065D01*
X002404630Y000777484D01*
X002406196Y000778823D01*
X002407830Y000780078D01*
X002409528Y000781245D01*
X002411284Y000782322D01*
X002441758Y000799933D01*
X002445430Y000801806D01*
X002449278Y000803285D01*
X002453259Y000804353D01*
X002457330Y000804999D01*
X002461447Y000805216D01*
X002465563Y000805001D01*
X002469635Y000804357D01*
X002473617Y000803291D01*
X002477465Y000801815D01*
X002481138Y000799944D01*
X002484596Y000797699D01*
X002487799Y000795105D01*
X002490714Y000792191D01*
X002493308Y000788987D01*
X002495553Y000785530D01*
X002497425Y000781857D01*
X002498902Y000778009D01*
X002499968Y000774027D01*
X002500612Y000769955D01*
X002500827Y000765839D01*
X002500824Y000749151D01*
X002500959Y000736401D01*
X002502342Y000723726D01*
X002504959Y000711246D01*
X002508785Y000699082D01*
X002513783Y000687352D01*
X002519906Y000676167D01*
X002527094Y000665635D01*
X002535279Y000655858D01*
X002544381Y000646928D01*
X002554314Y000638933D01*
X002564982Y000631948D01*
X002576282Y000626042D01*
X002588106Y000621269D01*
X002600341Y000617678D01*
X002612868Y000615301D01*
X002625569Y000614162D01*
X002638326Y000614271D01*
X003405826Y000611771D01*
X003418576Y000611906D01*
X003431252Y000613289D01*
X003443732Y000615906D01*
X003455895Y000619732D01*
X003467625Y000624729D01*
X003478811Y000630852D01*
X003489342Y000638040D01*
X003499120Y000646225D01*
X003508049Y000655327D01*
X003516045Y000665260D01*
X003523029Y000675927D01*
X003528936Y000687228D01*
X003533708Y000699052D01*
X003537300Y000711287D01*
X003539677Y000723814D01*
X003540816Y000736514D01*
X003540706Y000749264D01*
X003540826Y001419271D01*
X003540691Y001432022D01*
X003539309Y001444697D01*
X003536692Y001457177D01*
X003532866Y001469340D01*
X003527868Y001481071D01*
X003521745Y001492256D01*
X003514558Y001502788D01*
X003506373Y001512565D01*
X003497271Y001521495D01*
X003487337Y001529490D01*
X003476670Y001536475D01*
X003465370Y001542381D01*
X003453546Y001547153D01*
X003441311Y001550745D01*
X003428783Y001553122D01*
X003416083Y001554261D01*
X003403702Y001554155D01*
X003400114Y001554287D01*
X003396552Y001554747D01*
X003393047Y001555529D01*
X003389628Y001556627D01*
X003386323Y001558032D01*
X003383160Y001559732D01*
X003380165Y001561714D01*
X003377363Y001563960D01*
X003374777Y001566452D01*
X003372429Y001569169D01*
X003370339Y001572089D01*
X003368523Y001575188D01*
X003366997Y001578439D01*
X003365774Y001581815D01*
X003364864Y001585289D01*
X003364274Y001588831D01*
X003364009Y001592413D01*
X003364071Y001596003D01*
X003364461Y001599573D01*
X003365174Y001603093D01*
X003375687Y001645046D01*
X003376398Y001647534D01*
X003377271Y001649970D01*
X003378302Y001652343D01*
X003379487Y001654643D01*
X003380820Y001656861D01*
X003382296Y001658986D01*
X003383908Y001661009D01*
X003385650Y001662923D01*
X003387514Y001664718D01*
X003389492Y001666386D01*
X003391575Y001667921D01*
X003393754Y001669316D01*
X003396020Y001670564D01*
X003398364Y001671662D01*
X003400774Y001672602D01*
X003403241Y001673383D01*
X003405754Y001674000D01*
X003408302Y001674450D01*
X003410874Y001674732D01*
X003413459Y001674844D01*
X003418576Y001674899D01*
X003431252Y001676281D01*
X003443732Y001678898D01*
X003455895Y001682724D01*
X003467625Y001687721D01*
X003478811Y001693844D01*
X003489342Y001701032D01*
X003499120Y001709217D01*
X003508049Y001718319D01*
X003516045Y001728252D01*
X003523029Y001738919D01*
X003528936Y001750220D01*
X003533708Y001762044D01*
X003537300Y001774279D01*
X003539677Y001786806D01*
X003540816Y001799506D01*
X003540706Y001812256D01*
X003540826Y002482264D01*
X003540691Y002495014D01*
X003539309Y002507690D01*
X003536692Y002520169D01*
X003532866Y002532333D01*
X003527868Y002544063D01*
X003521745Y002555248D01*
X003514558Y002565780D01*
X003506373Y002575557D01*
X003497271Y002584487D01*
X003487337Y002592482D01*
X003476670Y002599467D01*
X003465370Y002605373D01*
X003453546Y002610145D01*
X003441311Y002613737D01*
X003428783Y002616114D01*
X003416083Y002617253D01*
X003403333Y002617143D01*
X003403326Y002617263D01*
X003392762Y002617263D01*
X002925878Y002617263D02*
X002925878Y002617263D01*
X002921892Y002617466D01*
X002917948Y002618070D01*
X002914085Y002619071D01*
X002910343Y002620458D01*
X002906761Y002622216D01*
X002903375Y002624328D01*
X002900221Y002626772D01*
X002897330Y002629522D01*
X002894732Y002632551D01*
X002892454Y002635828D01*
X002890520Y002639318D01*
X002888949Y002642986D01*
X002887757Y002646795D01*
X002886957Y002650704D01*
X002886556Y002654674D01*
X002886560Y002658665D01*
X002886968Y002662635D01*
X002887775Y002666542D01*
X002888974Y002670349D01*
X002890552Y002674014D01*
X002911829Y002717260D01*
X002912854Y002719204D01*
X002913986Y002721088D01*
X002915221Y002722906D01*
X002916556Y002724653D01*
X002917987Y002726322D01*
X002919508Y002727909D01*
X002921116Y002729408D01*
X002922804Y002730815D01*
X002924569Y002732126D01*
X002926404Y002733336D01*
X002928304Y002734442D01*
X002930262Y002735441D01*
X002932273Y002736328D01*
X002934331Y002737102D01*
X002936428Y002737760D01*
X002938559Y002738299D01*
X002940717Y002738719D01*
X002942894Y002739018D01*
X002945086Y002739195D01*
X002947283Y002739249D01*
X003190270Y002738458D01*
X003193100Y002738346D01*
X003195914Y002738032D01*
X003198699Y002737516D01*
X003201439Y002736802D01*
X003204121Y002735892D01*
X003206731Y002734792D01*
X003209255Y002733507D01*
X003211679Y002732044D01*
X003213993Y002730410D01*
X003216183Y002728615D01*
X003218238Y002726666D01*
X003220148Y002724575D01*
X003221903Y002722352D01*
X003223493Y002720009D01*
X003224911Y002717557D01*
X003226148Y002715010D01*
X003227200Y002712380D01*
X003228059Y002709682D01*
X003228723Y002706928D01*
X003229187Y002704134D01*
X003234674Y002661680D01*
X003234962Y002658348D01*
X003234965Y002655004D01*
X003234685Y002651672D01*
X003234123Y002648375D01*
X003233283Y002645138D01*
X003232172Y002641984D01*
X003230797Y002638936D01*
X003229168Y002636015D01*
X003227297Y002633243D01*
X003225198Y002630640D01*
X003222886Y002628224D01*
X003220376Y002626014D01*
X003217689Y002624024D01*
X003214842Y002622270D01*
X003211856Y002620763D01*
X003208753Y002619515D01*
X003205556Y002618535D01*
X003202287Y002617830D01*
X003198970Y002617405D01*
X003195629Y002617263D01*
X002925878Y002617263D01*
X002391613Y002926813D02*
X002391613Y002926813D01*
X002391681Y002929121D01*
X002391884Y002931420D01*
X002392221Y002933703D01*
X002392691Y002935963D01*
X002393293Y002938191D01*
X002394025Y002940381D01*
X002394884Y002942523D01*
X002395866Y002944612D01*
X002396970Y002946639D01*
X002398190Y002948598D01*
X002399523Y002950483D01*
X002400964Y002952286D01*
X002402508Y002954001D01*
X002404151Y002955623D01*
X002405885Y002957146D01*
X002407706Y002958565D01*
X002409607Y002959874D01*
X002411581Y002961070D01*
X002413622Y002962149D01*
X002415722Y002963105D01*
X002446205Y002975924D01*
X002449846Y002977248D01*
X002453600Y002978208D01*
X002457429Y002978794D01*
X002461298Y002979002D01*
X002465169Y002978827D01*
X002469004Y002978274D01*
X002472765Y002977346D01*
X002476418Y002976052D01*
X002479925Y002974406D01*
X002483254Y002972423D01*
X002486372Y002970123D01*
X002489248Y002967527D01*
X002491855Y002964661D01*
X002494169Y002961553D01*
X002496165Y002958233D01*
X002497825Y002954732D01*
X002499133Y002951085D01*
X002500077Y002947327D01*
X002500646Y002943494D01*
X002500836Y002939625D01*
X002500824Y002875136D01*
X002500959Y002862386D01*
X002502342Y002849710D01*
X002504959Y002837230D01*
X002508785Y002825066D01*
X002513783Y002813336D01*
X002519906Y002802151D01*
X002527094Y002791620D01*
X002535279Y002781842D01*
X002544381Y002772913D01*
X002554314Y002764917D01*
X002564982Y002757933D01*
X002576282Y002752026D01*
X002588106Y002747253D01*
X002600341Y002743662D01*
X002612868Y002741285D01*
X002625569Y002740146D01*
X002638326Y002740255D01*
X002728041Y002739963D01*
X002730239Y002739894D01*
X002732430Y002739703D01*
X002734607Y002739390D01*
X002736762Y002738956D01*
X002738891Y002738402D01*
X002740985Y002737730D01*
X002743038Y002736942D01*
X002745044Y002736041D01*
X002746996Y002735029D01*
X002748889Y002733909D01*
X002750717Y002732686D01*
X002752473Y002731363D01*
X002754153Y002729943D01*
X002755751Y002728432D01*
X002757262Y002726835D01*
X002758682Y002725155D01*
X002760005Y002723399D01*
X002761228Y002721571D01*
X002762348Y002719678D01*
X002763360Y002717726D01*
X002784607Y002673766D01*
X002786154Y002670103D01*
X002787324Y002666302D01*
X002788105Y002662403D01*
X002788488Y002658445D01*
X002788470Y002654468D01*
X002788051Y002650513D01*
X002787236Y002646621D01*
X002786031Y002642831D01*
X002784451Y002639182D01*
X002782510Y002635711D01*
X002780230Y002632453D01*
X002777632Y002629442D01*
X002774744Y002626709D01*
X002771594Y002624281D01*
X002768216Y002622183D01*
X002764644Y002620436D01*
X002760913Y002619059D01*
X002757063Y002618065D01*
X002753131Y002617464D01*
X002749160Y002617263D01*
X002635826Y002617263D01*
X002623076Y002617129D01*
X002610400Y002615746D01*
X002597920Y002613129D01*
X002585757Y002609303D01*
X002574027Y002604305D01*
X002562842Y002598183D01*
X002552310Y002590995D01*
X002542532Y002582810D01*
X002533603Y002573708D01*
X002525607Y002563775D01*
X002518623Y002553107D01*
X002512716Y002541807D01*
X002507944Y002529983D01*
X002507158Y002527306D01*
X002506665Y002525747D01*
X002506108Y002524210D01*
X002505487Y002522698D01*
X002504804Y002521213D01*
X002504061Y002519757D01*
X002503257Y002518333D01*
X002502395Y002516944D01*
X002501476Y002515593D01*
X002500502Y002514280D01*
X002499474Y002513009D01*
X002498394Y002511781D01*
X002497264Y002510600D01*
X002496086Y002509467D01*
X002494862Y002508383D01*
X002493594Y002507351D01*
X002492284Y002506373D01*
X002490935Y002505450D01*
X002489549Y002504583D01*
X002488128Y002503775D01*
X002486675Y002503027D01*
X002448276Y002484253D01*
X002444611Y002482686D01*
X002440807Y002481498D01*
X002436902Y002480700D01*
X002432937Y002480301D01*
X002428951Y002480305D01*
X002424986Y002480712D01*
X002421083Y002481517D01*
X002417281Y002482714D01*
X002413620Y002484288D01*
X002410136Y002486225D01*
X002406867Y002488504D01*
X002403844Y002491101D01*
X002401099Y002493991D01*
X002398661Y002497144D01*
X002396554Y002500527D01*
X002394800Y002504106D01*
X002393417Y002507844D01*
X002392418Y002511702D01*
X002391815Y002515642D01*
X002391613Y002519622D01*
X002391613Y002926813D01*
X002391613Y003342990D02*
X002391613Y003342990D01*
X002391718Y003345855D01*
X002392030Y003348704D01*
X002392549Y003351524D01*
X002393272Y003354298D01*
X002394195Y003357012D01*
X002395313Y003359652D01*
X002396620Y003362203D01*
X002398109Y003364653D01*
X002399773Y003366988D01*
X002401602Y003369195D01*
X002403587Y003371264D01*
X002405717Y003373183D01*
X002407981Y003374941D01*
X002410367Y003376530D01*
X002412862Y003377942D01*
X002415454Y003379168D01*
X002418128Y003380202D01*
X002420870Y003381039D01*
X002423665Y003381674D01*
X002426499Y003382104D01*
X002457056Y003385607D01*
X002460364Y003385845D01*
X002463680Y003385805D01*
X002466980Y003385485D01*
X002470243Y003384889D01*
X002473443Y003384020D01*
X002476559Y003382886D01*
X002479568Y003381493D01*
X002482450Y003379851D01*
X002485183Y003377973D01*
X002487748Y003375872D01*
X002490128Y003373562D01*
X002492304Y003371060D01*
X002494263Y003368384D01*
X002495989Y003365553D01*
X002497471Y003362586D01*
X002498698Y003359505D01*
X002499661Y003356332D01*
X002500354Y003353089D01*
X002500771Y003349799D01*
X002500910Y003346486D01*
X002500872Y003134426D01*
X002500680Y003130558D01*
X002500110Y003126726D01*
X002499166Y003122970D01*
X002497857Y003119324D01*
X002496196Y003115825D01*
X002494199Y003112505D01*
X002491886Y003109398D01*
X002489279Y003106534D01*
X002486403Y003103939D01*
X002483286Y003101640D01*
X002479958Y003099658D01*
X002476451Y003098012D01*
X002472799Y003096719D01*
X002469039Y003095792D01*
X002465205Y003095238D01*
X002461335Y003095064D01*
X002457467Y003095271D01*
X002453638Y003095857D01*
X002449886Y003096816D01*
X002446245Y003098140D01*
X002415727Y003110968D01*
X002413626Y003111925D01*
X002411585Y003113003D01*
X002409610Y003114198D01*
X002407709Y003115508D01*
X002405888Y003116927D01*
X002404153Y003118450D01*
X002402511Y003120072D01*
X002400966Y003121787D01*
X002399525Y003123590D01*
X002398191Y003125475D01*
X002396971Y003127434D01*
X002395867Y003129462D01*
X002394884Y003131550D01*
X002394026Y003133693D01*
X002393294Y003135883D01*
X002392692Y003138111D01*
X002392221Y003140371D01*
X002391884Y003142655D01*
X002391681Y003144954D01*
X002391613Y003147262D01*
X002391613Y003342990D01*
M02*