%
M48
METRIC,000.000
T01C0.50
%
T01
X060996Y085504
X060996Y086504
X060996Y087504
X060996Y088504
X060996Y089504
X063272Y090195
X063273Y089195
X063273Y088195
X063273Y087195
X063273Y086195
X063273Y085195
X060996Y074504
X060996Y075504
X060996Y076504
X060996Y077504
X060996Y078504
X060996Y079504
X063272Y079195
X063271Y078195
X063271Y077195
X063271Y076195
X063271Y075195
X069948Y069342
X070948Y069339
X071948Y069336
X072948Y069333
X073948Y069329
X074260Y066728
X073260Y066728
X072260Y066728
X071260Y066728
X070260Y066728
X080948Y069307
X081948Y069303
X082948Y069300
X083948Y069297
X084948Y069294
X085948Y069290
X086260Y066728
X085260Y066728
X084260Y066728
X083260Y066728
X082260Y066728
X081260Y066728
X060996Y059504
X060996Y060504
X060996Y061504
X060996Y062504
X060996Y063504
X063417Y064180
X063272Y063195
X063273Y062195
X063273Y061195
X063273Y060195
X063273Y059195
X050883Y053861
X051883Y053864
X052883Y053866
X053883Y053869
X054883Y053871
X055883Y053874
X056070Y051319
X055070Y051319
X054070Y051319
X053070Y051319
X052070Y051319
X051070Y051319
X027883Y053804
X028883Y053807
X029883Y053809
X030883Y053812
X031883Y053814
X032070Y051319
X031070Y051319
X030070Y051319
X029070Y051319
X028070Y051319
X008883Y053757
X009883Y053759
X010883Y053762
X011883Y053764
X012883Y053767
X013883Y053769
X013070Y051319
X012070Y051319
X011070Y051319
X010070Y051319
X081948Y042303
X082948Y042300
X083948Y042297
X084948Y042294
X085948Y042290
X086260Y039728
X085260Y039728
X084260Y039728
X083260Y039728
X082260Y039728
X068948Y042346
X069948Y042342
X070948Y042339
X071948Y042336
X072948Y042333
X073260Y039728
X072260Y039728
X071260Y039728
X070260Y039728
X069260Y039728
X060996Y032504
X060996Y033504
X060996Y034504
X060996Y035504
X060996Y036504
X063417Y037180
X063272Y036195
X063273Y035195
X063273Y034195
X063273Y033195
X063273Y032195
X060996Y019504
X060996Y020504
X060996Y021504
X060996Y022504
X060996Y023504
X060996Y024504
X063271Y024195
X063271Y023195
X063271Y022195
X063271Y021195
X063271Y020195
M30