%
M48
METRIC,000.000
T10C0.40
T11C0.80
T12C0.90
T13C1.00
T14C1.50
T15C2.00
T16C3.20
T17C1.52
%
T10
X004739Y082575
X004739Y080204
X004739Y077834
X004739Y075463
X004739Y073092
X004739Y070722
X004739Y068351
X007025Y082575
X007025Y080204
X007025Y077834
X007025Y075463
X007025Y073092
X007025Y070722
X007025Y068351
X008930Y082575
X008930Y080204
X008930Y077834
X008930Y075463
X008930Y073092
X008930Y070722
X008930Y068351
X010962Y082575
X010962Y080204
X010962Y077834
X010962Y075463
X010962Y073092
X010962Y070722
X010962Y068351
X026711Y086639
X031664Y081305
X031664Y079019
X031664Y076352
X031664Y073812
X031664Y071399
X031664Y069113
X031664Y066573
X031664Y063779
X033315Y089687
X033315Y087909
X033315Y086004
X034458Y081305
X034458Y079019
X034458Y076352
X034458Y073812
X034458Y071399
X034458Y069113
X034458Y066573
X034458Y063779
X035601Y089687
X035601Y087909
X035601Y086004
X037125Y081305
X037125Y079019
X037125Y076352
X037125Y073812
X037125Y071399
X037125Y069113
X037887Y089687
X037887Y087909
X037887Y086004
X040173Y089687
X040173Y087909
X040173Y086004
X040300Y081305
X040300Y079019
X040300Y076352
X040300Y073812
X040300Y071399
X042331Y062509
X042459Y089687
X042459Y087909
X042459Y086004
X044745Y089687
X044745Y087909
X044745Y086004
X047031Y089687
X047031Y087909
X047031Y086004
X049316Y089687
X049316Y087909
X049316Y086004
X004739Y035575
X004739Y033203
X004739Y030834
X004739Y028462
X004739Y026092
X004739Y023721
X004739Y021351
X007025Y035575
X007025Y033203
X007025Y030834
X007025Y028462
X007025Y026092
X007025Y023721
X007025Y021351
X008930Y035575
X008930Y033203
X008930Y030834
X008930Y028462
X008930Y026092
X008930Y023721
X008930Y021351
X010962Y035575
X010962Y033203
X010962Y030834
X010962Y028462
X010962Y026092
X010962Y023721
X010962Y021351
X026711Y039638
X031664Y034305
X031664Y032019
X031664Y029352
X031664Y026811
X031664Y024399
X031664Y022113
X031664Y019572
X031664Y016778
X033315Y042687
X033315Y040909
X033315Y039004
X034458Y034305
X034458Y032019
X034458Y029352
X034458Y026811
X034458Y024399
X034458Y022113
X034458Y019572
X034458Y016778
X035601Y042687
X035601Y040909
X035601Y039004
X037125Y034305
X037125Y032019
X037125Y029352
X037125Y026811
X037125Y024399
X037125Y022113
X037887Y042687
X037887Y040909
X037887Y039004
X040173Y042687
X040173Y040909
X040173Y039004
X040300Y034305
X040300Y032019
X040300Y029352
X040300Y026811
X040300Y024399
X042331Y015509
X042459Y042687
X042459Y040909
X042459Y039004
X044745Y042687
X044745Y040909
X044745Y039004
X047031Y042687
X047031Y040909
X047031Y039004
X049316Y042687
X049316Y040909
X049316Y039004
X069744Y084589
X071585Y088907
X071649Y091574
X077491Y076143
X077491Y074492
X077491Y072841
X077491Y071190
X078761Y077731
X079332Y076207
X079332Y074556
X079332Y072905
X079332Y071253
X080920Y088907
X080983Y091574
X081174Y076207
X081174Y074556
X081174Y072905
X081174Y071253
X069744Y057589
X071585Y061907
X071649Y064574
X077491Y049143
X077491Y047492
X077491Y045841
X077491Y044190
X078761Y050730
X079332Y049206
X079332Y047556
X079332Y045905
X079332Y044253
X080920Y061907
X080983Y064574
X081174Y049206
X081174Y047556
X081174Y045905
X081174Y044253
X069744Y030589
X071585Y034907
X071649Y037574
X077491Y022143
X077491Y020492
X077491Y018841
X077491Y017189
X078761Y023730
X079332Y022206
X079332Y020555
X079332Y018905
X079332Y017253
X080920Y034907
X080983Y037574
X081174Y022206
X081174Y020555
X081174Y018905
X081174Y017253
T11
X028489Y078892
X028489Y070142
X043388Y078892
X043388Y070142
X028489Y031891
X028489Y023141
X043388Y031891
X043388Y023141
T12
X023409Y055778
X025948Y055778
X032299Y055778
X034839Y055778
X023409Y008778
X025948Y008778
X032299Y008778
X034839Y008778
T13
X015408Y083083
X015408Y065303
X015789Y059461
X015789Y056921
X018583Y059461
X018583Y056921
X030902Y095148
X030902Y092481
X033441Y095148
X033441Y092481
X035982Y095148
X035982Y092481
X038522Y095148
X038522Y092481
X041062Y095148
X041062Y092481
X043602Y095148
X043602Y092481
X046141Y095148
X046141Y092481
X048682Y095148
X048682Y092481
X051221Y095148
X051221Y092481
X051602Y059968
X051602Y057429
X056048Y083083
X056048Y065303
X015408Y036083
X015408Y018302
X015789Y012460
X015789Y009921
X018583Y012460
X018583Y009921
X030902Y048147
X030902Y045480
X033441Y048147
X033441Y045480
X035982Y048147
X035982Y045480
X038522Y048147
X038522Y045480
X041062Y048147
X041062Y045480
X043602Y048147
X043602Y045480
X046141Y048147
X046141Y045480
X048682Y048147
X048682Y045480
X051221Y048147
X051221Y045480
X051602Y012968
X051602Y010429
X056048Y036083
X056048Y018302
X065489Y082811
X065489Y080270
X074760Y091383
X077300Y091383
X079587Y083128
X079587Y080588
X065489Y055811
X065489Y053269
X074760Y064382
X077300Y064382
X079587Y056128
X079587Y053587
X065489Y028811
X065489Y026269
X074760Y037382
X077300Y037382
X079587Y029128
X079587Y026587
T14
X007406Y086633
X007406Y064033
X007406Y039632
X007406Y017033
T15
X015787Y091282G85X015787Y090282
X020988Y093782G85X019988Y093782
X020988Y087782G85X019988Y087782
X015787Y044282G85X015787Y043282
X020988Y046782G85X019988Y046782
X020988Y040782G85X019988Y040782
T16
X005882Y093751
X006010Y057937
X056682Y094005
X056682Y058191
X005882Y046751
X006010Y010936
X056682Y047004
X056682Y011191
X066759Y073095
X066886Y090240
X086698Y090240
X086698Y072841
X066759Y046095
X066886Y063239
X086698Y063239
X086698Y045841
X066759Y019095
X066886Y036239
X086698Y036239
X086698Y018841
T17
X086063Y084081
X086063Y079001
X086063Y057081
X086063Y052001
X086063Y030081
X086063Y025001
M30