%MOIN*%
%OFA0B0*%
%FSLAX46Y46*%
%IPPOS*%
%LPD*%
%AMRoundRect*
4,1,4,
0.07874015748031496,0.11811023622047245,
0.15748031496062992,0.19685039370078741,
0.23622047244094491,0.27559055118110237,
0.31496062992125984,0.35433070866141736,
0.07874015748031496,0.11811023622047245,
0*
1,1,$1,$2,$3*
1,1,$1,$2,$3*
1,1,$1,$2,$3*
1,1,$1,$2,$3*
20,1,$1,$2,$3,$4,$5,0*
20,1,$1,$2,$3,$4,$5,0*
20,1,$1,$2,$3,$4,$5,0*
20,1,$1,$2,$3,$4,$5,0*%
%AMCOMP155*
4,1,3,
0.015748031496062995,0.024606299212598427,
-0.015748031496062995,0.024606299212598427,
-0.015748031496062995,-0.024606299212598427,
0.015748031496062995,-0.024606299212598427,
0*
4,1,19,
0.015748031496062995,0.034448818897637797,
0.018789537346210115,0.033967091695818442,
0.02153331941232749,0.032569064905265233,
0.0237107971887298,0.030391587128862928,
0.025108823979283011,0.027647805062745546,
0.025590551181102365,0.024606299212598427,
0.025108823979283011,0.021564793362451307,
0.0237107971887298,0.018821011296333928,
0.021533319412327497,0.016643533519931621,
0.018789537346210115,0.015245506729378409,
0.015748031496062995,0.014763779527559057,
0.012706525645915871,0.015245506729378409,
0.009962743579798497,0.016643533519931621,
0.0077852658033961885,0.018821011296333925,
0.0063872390128429787,0.021564793362451307,
0.0059055118110236228,0.024606299212598427,
0.006387239012842977,0.027647805062745546,
0.0077852658033961868,0.030391587128862925,
0.0099627435797984918,0.032569064905265233,
0.012706525645915871,0.033967091695818442,
0*
4,1,19,
-0.015748031496062995,0.034448818897637797,
-0.012706525645915873,0.033967091695818442,
-0.0099627435797984935,0.032569064905265233,
-0.0077852658033961877,0.030391587128862928,
-0.0063872390128429787,0.027647805062745546,
-0.0059055118110236228,0.024606299212598427,
-0.006387239012842977,0.021564793362451307,
-0.0077852658033961877,0.018821011296333928,
-0.0099627435797984918,0.016643533519931621,
-0.012706525645915873,0.015245506729378409,
-0.015748031496062992,0.014763779527559057,
-0.018789537346210118,0.015245506729378409,
-0.02153331941232749,0.016643533519931621,
-0.0237107971887298,0.018821011296333925,
-0.025108823979283011,0.021564793362451307,
-0.025590551181102365,0.024606299212598427,
-0.025108823979283011,0.027647805062745546,
-0.0237107971887298,0.030391587128862925,
-0.021533319412327497,0.032569064905265233,
-0.018789537346210118,0.033967091695818442,
0*
4,1,19,
-0.015748031496062995,-0.014763779527559057,
-0.012706525645915873,-0.015245506729378409,
-0.0099627435797984935,-0.016643533519931621,
-0.0077852658033961877,-0.018821011296333928,
-0.0063872390128429787,-0.021564793362451307,
-0.0059055118110236228,-0.024606299212598427,
-0.006387239012842977,-0.027647805062745546,
-0.0077852658033961877,-0.030391587128862925,
-0.0099627435797984918,-0.032569064905265233,
-0.012706525645915873,-0.033967091695818442,
-0.015748031496062992,-0.034448818897637797,
-0.018789537346210118,-0.033967091695818442,
-0.02153331941232749,-0.032569064905265233,
-0.0237107971887298,-0.030391587128862928,
-0.025108823979283011,-0.027647805062745546,
-0.025590551181102365,-0.024606299212598427,
-0.025108823979283011,-0.021564793362451307,
-0.0237107971887298,-0.018821011296333928,
-0.021533319412327497,-0.016643533519931621,
-0.018789537346210118,-0.015245506729378409,
0*
4,1,19,
0.015748031496062995,-0.014763779527559057,
0.018789537346210115,-0.015245506729378409,
0.02153331941232749,-0.016643533519931621,
0.0237107971887298,-0.018821011296333928,
0.025108823979283011,-0.021564793362451307,
0.025590551181102365,-0.024606299212598427,
0.025108823979283011,-0.027647805062745546,
0.0237107971887298,-0.030391587128862925,
0.021533319412327497,-0.032569064905265233,
0.018789537346210115,-0.033967091695818442,
0.015748031496062995,-0.034448818897637797,
0.012706525645915871,-0.033967091695818442,
0.009962743579798497,-0.032569064905265233,
0.0077852658033961885,-0.030391587128862928,
0.0063872390128429787,-0.027647805062745546,
0.0059055118110236228,-0.024606299212598427,
0.006387239012842977,-0.021564793362451307,
0.0077852658033961868,-0.018821011296333928,
0.0099627435797984918,-0.016643533519931621,
0.012706525645915871,-0.015245506729378409,
0*
4,1,3,
0.015748031496062995,0.034448818897637797,
0.015748031496062995,0.014763779527559057,
-0.015748031496062995,0.014763779527559057,
-0.015748031496062995,0.034448818897637797,
0*
4,1,3,
-0.025590551181102365,0.024606299212598427,
-0.0059055118110236228,0.024606299212598427,
-0.0059055118110236228,-0.024606299212598427,
-0.025590551181102365,-0.024606299212598427,
0*
4,1,3,
-0.015748031496062995,-0.034448818897637797,
-0.015748031496062995,-0.014763779527559057,
0.015748031496062995,-0.014763779527559057,
0.015748031496062995,-0.034448818897637797,
0*
4,1,3,
0.025590551181102365,-0.024606299212598427,
0.0059055118110236228,-0.024606299212598427,
0.0059055118110236228,0.024606299212598427,
0.025590551181102365,0.024606299212598427,
0*%
%AMCOMP156*
4,1,3,
-0.015748031496062995,-0.024606299212598427,
0.015748031496062995,-0.024606299212598427,
0.015748031496062995,0.024606299212598427,
-0.015748031496062995,0.024606299212598427,
0*
4,1,19,
-0.015748031496062995,-0.014763779527559057,
-0.012706525645915873,-0.015245506729378409,
-0.0099627435797984935,-0.016643533519931621,
-0.0077852658033961877,-0.018821011296333928,
-0.0063872390128429787,-0.021564793362451307,
-0.0059055118110236228,-0.024606299212598427,
-0.006387239012842977,-0.027647805062745546,
-0.0077852658033961877,-0.030391587128862925,
-0.0099627435797984918,-0.032569064905265233,
-0.012706525645915873,-0.033967091695818442,
-0.015748031496062992,-0.034448818897637797,
-0.018789537346210118,-0.033967091695818442,
-0.02153331941232749,-0.032569064905265233,
-0.0237107971887298,-0.030391587128862928,
-0.025108823979283011,-0.027647805062745546,
-0.025590551181102365,-0.024606299212598427,
-0.025108823979283011,-0.021564793362451307,
-0.0237107971887298,-0.018821011296333928,
-0.021533319412327497,-0.016643533519931621,
-0.018789537346210118,-0.015245506729378409,
0*
4,1,19,
0.015748031496062995,-0.014763779527559057,
0.018789537346210115,-0.015245506729378409,
0.02153331941232749,-0.016643533519931621,
0.0237107971887298,-0.018821011296333928,
0.025108823979283011,-0.021564793362451307,
0.025590551181102365,-0.024606299212598427,
0.025108823979283011,-0.027647805062745546,
0.0237107971887298,-0.030391587128862925,
0.021533319412327497,-0.032569064905265233,
0.018789537346210115,-0.033967091695818442,
0.015748031496062995,-0.034448818897637797,
0.012706525645915871,-0.033967091695818442,
0.009962743579798497,-0.032569064905265233,
0.0077852658033961885,-0.030391587128862928,
0.0063872390128429787,-0.027647805062745546,
0.0059055118110236228,-0.024606299212598427,
0.006387239012842977,-0.021564793362451307,
0.0077852658033961868,-0.018821011296333928,
0.0099627435797984918,-0.016643533519931621,
0.012706525645915871,-0.015245506729378409,
0*
4,1,19,
0.015748031496062995,0.034448818897637797,
0.018789537346210115,0.033967091695818442,
0.02153331941232749,0.032569064905265233,
0.0237107971887298,0.030391587128862928,
0.025108823979283011,0.027647805062745546,
0.025590551181102365,0.024606299212598427,
0.025108823979283011,0.021564793362451307,
0.0237107971887298,0.018821011296333928,
0.021533319412327497,0.016643533519931621,
0.018789537346210115,0.015245506729378409,
0.015748031496062995,0.014763779527559057,
0.012706525645915871,0.015245506729378409,
0.009962743579798497,0.016643533519931621,
0.0077852658033961885,0.018821011296333925,
0.0063872390128429787,0.021564793362451307,
0.0059055118110236228,0.024606299212598427,
0.006387239012842977,0.027647805062745546,
0.0077852658033961868,0.030391587128862925,
0.0099627435797984918,0.032569064905265233,
0.012706525645915871,0.033967091695818442,
0*
4,1,19,
-0.015748031496062995,0.034448818897637797,
-0.012706525645915873,0.033967091695818442,
-0.0099627435797984935,0.032569064905265233,
-0.0077852658033961877,0.030391587128862928,
-0.0063872390128429787,0.027647805062745546,
-0.0059055118110236228,0.024606299212598427,
-0.006387239012842977,0.021564793362451307,
-0.0077852658033961877,0.018821011296333928,
-0.0099627435797984918,0.016643533519931621,
-0.012706525645915873,0.015245506729378409,
-0.015748031496062992,0.014763779527559057,
-0.018789537346210118,0.015245506729378409,
-0.02153331941232749,0.016643533519931621,
-0.0237107971887298,0.018821011296333925,
-0.025108823979283011,0.021564793362451307,
-0.025590551181102365,0.024606299212598427,
-0.025108823979283011,0.027647805062745546,
-0.0237107971887298,0.030391587128862925,
-0.021533319412327497,0.032569064905265233,
-0.018789537346210118,0.033967091695818442,
0*
4,1,3,
-0.015748031496062995,-0.034448818897637797,
-0.015748031496062995,-0.014763779527559057,
0.015748031496062995,-0.014763779527559057,
0.015748031496062995,-0.034448818897637797,
0*
4,1,3,
0.025590551181102365,-0.024606299212598427,
0.0059055118110236228,-0.024606299212598427,
0.0059055118110236228,0.024606299212598427,
0.025590551181102365,0.024606299212598427,
0*
4,1,3,
0.015748031496062995,0.034448818897637797,
0.015748031496062995,0.014763779527559057,
-0.015748031496062995,0.014763779527559057,
-0.015748031496062995,0.034448818897637797,
0*
4,1,3,
-0.025590551181102365,0.024606299212598427,
-0.0059055118110236228,0.024606299212598427,
-0.0059055118110236228,-0.024606299212598427,
-0.025590551181102365,-0.024606299212598427,
0*%
%AMCOMP157*
4,1,3,
-0.03937007874015748,0.03937007874015748,
-0.03937007874015748,-0.03937007874015748,
0.03937007874015748,-0.03937007874015748,
0.03937007874015748,0.03937007874015748,
0*
4,1,19,
-0.03937007874015748,0.07874015748031496,
-0.027204055339569,0.076813248673037543,
-0.016228927075099483,0.0712211415108247,
-0.0075190159694902585,0.062511230405215487,
-0.0019269088072774202,0.051536102140745964,
0,0.03937007874015748,
-0.0019269088072774157,0.027204055339569003,
-0.0075190159694902585,0.01622892707509949,
-0.016228927075099479,0.0075190159694902628,
-0.027204055339569,0.0019269088072774202,
-0.03937007874015748,0,
-0.051536102140745978,0.0019269088072774202,
-0.062511230405215473,0.0075190159694902541,
-0.0712211415108247,0.016228927075099479,
-0.076813248673037543,0.027204055339568996,
-0.07874015748031496,0.039370078740157473,
-0.076813248673037543,0.051536102140745957,
-0.0712211415108247,0.062511230405215473,
-0.062511230405215487,0.0712211415108247,
-0.051536102140745978,0.076813248673037543,
0*
4,1,19,
-0.03937007874015748,0,
-0.027204055339569,-0.0019269088072774202,
-0.016228927075099483,-0.0075190159694902585,
-0.0075190159694902585,-0.016228927075099483,
-0.0019269088072774202,-0.027204055339569,
0,-0.03937007874015748,
-0.0019269088072774157,-0.051536102140745964,
-0.0075190159694902585,-0.062511230405215473,
-0.016228927075099479,-0.0712211415108247,
-0.027204055339569,-0.076813248673037543,
-0.03937007874015748,-0.07874015748031496,
-0.051536102140745978,-0.076813248673037543,
-0.062511230405215473,-0.0712211415108247,
-0.0712211415108247,-0.062511230405215487,
-0.076813248673037543,-0.051536102140745964,
-0.07874015748031496,-0.039370078740157494,
-0.076813248673037543,-0.02720405533956901,
-0.0712211415108247,-0.016228927075099493,
-0.062511230405215487,-0.0075190159694902628,
-0.051536102140745978,-0.0019269088072774202,
0*
4,1,19,
0.03937007874015748,0,
0.051536102140745964,-0.0019269088072774202,
0.062511230405215487,-0.0075190159694902585,
0.0712211415108247,-0.016228927075099483,
0.076813248673037543,-0.027204055339569,
0.07874015748031496,-0.03937007874015748,
0.076813248673037543,-0.051536102140745964,
0.0712211415108247,-0.062511230405215473,
0.062511230405215487,-0.0712211415108247,
0.051536102140745964,-0.076813248673037543,
0.039370078740157494,-0.07874015748031496,
0.027204055339568992,-0.076813248673037543,
0.01622892707509949,-0.0712211415108247,
0.0075190159694902628,-0.062511230405215487,
0.0019269088072774202,-0.051536102140745964,
0,-0.039370078740157494,
0.0019269088072774157,-0.02720405533956901,
0.0075190159694902541,-0.016228927075099493,
0.016228927075099476,-0.0075190159694902628,
0.027204055339568992,-0.0019269088072774202,
0*
4,1,19,
0.03937007874015748,0.07874015748031496,
0.051536102140745964,0.076813248673037543,
0.062511230405215487,0.0712211415108247,
0.0712211415108247,0.062511230405215487,
0.076813248673037543,0.051536102140745964,
0.07874015748031496,0.03937007874015748,
0.076813248673037543,0.027204055339569003,
0.0712211415108247,0.01622892707509949,
0.062511230405215487,0.0075190159694902628,
0.051536102140745964,0.0019269088072774202,
0.039370078740157494,0,
0.027204055339568992,0.0019269088072774202,
0.01622892707509949,0.0075190159694902541,
0.0075190159694902628,0.016228927075099479,
0.0019269088072774202,0.027204055339568996,
0,0.039370078740157473,
0.0019269088072774157,0.051536102140745957,
0.0075190159694902541,0.062511230405215473,
0.016228927075099476,0.0712211415108247,
0.027204055339568992,0.076813248673037543,
0*
4,1,3,
-0.07874015748031496,0.03937007874015748,
0,0.03937007874015748,
0,-0.03937007874015748,
-0.07874015748031496,-0.03937007874015748,
0*
4,1,3,
-0.03937007874015748,-0.07874015748031496,
-0.03937007874015748,0,
0.03937007874015748,0,
0.03937007874015748,-0.07874015748031496,
0*
4,1,3,
0.07874015748031496,-0.03937007874015748,
0,-0.03937007874015748,
0,0.03937007874015748,
0.07874015748031496,0.03937007874015748,
0*
4,1,3,
0.03937007874015748,0.07874015748031496,
0.03937007874015748,0,
-0.03937007874015748,0,
-0.03937007874015748,0.07874015748031496,
0*%
%AMCOMP158*
4,1,3,
-0.04429133858267717,0.034448818897637797,
-0.04429133858267717,-0.034448818897637797,
0.04429133858267717,-0.034448818897637797,
0.04429133858267717,0.034448818897637797,
0*
4,1,19,
-0.04429133858267717,0.068897637795275593,
-0.033646068107162252,0.067211592588907854,
-0.02404283087575142,0.062318498821971623,
-0.016421658658343347,0.054697326604563543,
-0.011528564891407115,0.045094089373152721,
-0.00984251968503937,0.034448818897637797,
-0.011528564891407109,0.023803548422122879,
-0.016421658658343347,0.014200311190712054,
-0.024042830875751417,0.00657913897330398,
-0.033646068107162239,0.0016860452063677432,
-0.04429133858267717,0,
-0.054936609058192094,0.0016860452063677432,
-0.064539846289602909,0.0065791389733039713,
-0.072161018507010982,0.014200311190712045,
-0.07705411227394722,0.023803548422122869,
-0.07874015748031496,0.03444881889763779,
-0.07705411227394722,0.045094089373152707,
-0.072161018507011,0.054697326604563536,
-0.064539846289602923,0.062318498821971616,
-0.054936609058192094,0.067211592588907854,
0*
4,1,19,
-0.04429133858267717,0,
-0.033646068107162252,-0.0016860452063677432,
-0.02404283087575142,-0.0065791389733039756,
-0.016421658658343347,-0.014200311190712049,
-0.011528564891407115,-0.023803548422122876,
-0.00984251968503937,-0.034448818897637797,
-0.011528564891407109,-0.045094089373152714,
-0.016421658658343347,-0.054697326604563536,
-0.024042830875751417,-0.062318498821971616,
-0.033646068107162239,-0.067211592588907854,
-0.04429133858267717,-0.068897637795275593,
-0.054936609058192094,-0.067211592588907854,
-0.064539846289602909,-0.062318498821971623,
-0.072161018507010982,-0.054697326604563556,
-0.07705411227394722,-0.045094089373152721,
-0.07874015748031496,-0.0344488188976378,
-0.07705411227394722,-0.023803548422122883,
-0.072161018507011,-0.014200311190712057,
-0.064539846289602923,-0.00657913897330398,
-0.054936609058192094,-0.0016860452063677432,
0*
4,1,19,
0.04429133858267717,0,
0.054936609058192087,-0.0016860452063677432,
0.064539846289602909,-0.0065791389733039756,
0.072161018507011,-0.014200311190712049,
0.07705411227394722,-0.023803548422122876,
0.07874015748031496,-0.034448818897637797,
0.07705411227394722,-0.045094089373152714,
0.072161018507011,-0.054697326604563536,
0.064539846289602923,-0.062318498821971616,
0.054936609058192094,-0.067211592588907854,
0.04429133858267717,-0.068897637795275593,
0.033646068107162239,-0.067211592588907854,
0.024042830875751424,-0.062318498821971623,
0.016421658658343351,-0.054697326604563556,
0.011528564891407115,-0.045094089373152721,
0.00984251968503937,-0.0344488188976378,
0.011528564891407109,-0.023803548422122883,
0.016421658658343344,-0.014200311190712057,
0.02404283087575141,-0.00657913897330398,
0.033646068107162239,-0.0016860452063677432,
0*
4,1,19,
0.04429133858267717,0.068897637795275593,
0.054936609058192087,0.067211592588907854,
0.064539846289602909,0.062318498821971623,
0.072161018507011,0.054697326604563543,
0.07705411227394722,0.045094089373152721,
0.07874015748031496,0.034448818897637797,
0.07705411227394722,0.023803548422122879,
0.072161018507011,0.014200311190712054,
0.064539846289602923,0.00657913897330398,
0.054936609058192094,0.0016860452063677432,
0.04429133858267717,0,
0.033646068107162239,0.0016860452063677432,
0.024042830875751424,0.0065791389733039713,
0.016421658658343351,0.014200311190712045,
0.011528564891407115,0.023803548422122869,
0.00984251968503937,0.03444881889763779,
0.011528564891407109,0.045094089373152707,
0.016421658658343344,0.054697326604563536,
0.02404283087575141,0.062318498821971616,
0.033646068107162239,0.067211592588907854,
0*
4,1,3,
-0.07874015748031496,0.034448818897637797,
-0.00984251968503937,0.034448818897637797,
-0.00984251968503937,-0.034448818897637797,
-0.07874015748031496,-0.034448818897637797,
0*
4,1,3,
-0.04429133858267717,-0.068897637795275593,
-0.04429133858267717,0,
0.04429133858267717,0,
0.04429133858267717,-0.068897637795275593,
0*
4,1,3,
0.07874015748031496,-0.034448818897637797,
0.00984251968503937,-0.034448818897637797,
0.00984251968503937,0.034448818897637797,
0.07874015748031496,0.034448818897637797,
0*
4,1,3,
0.04429133858267717,0.068897637795275593,
0.04429133858267717,0,
-0.04429133858267717,0,
-0.04429133858267717,0.068897637795275593,
0*%
%AMRoundRect0*
4,1,4,
0.07874015748031496,0.11811023622047245,
0.15748031496062992,0.19685039370078741,
0.23622047244094491,0.27559055118110237,
0.31496062992125984,0.35433070866141736,
0.07874015748031496,0.11811023622047245,
0*
1,1,$1,$2,$3*
1,1,$1,$2,$3*
1,1,$1,$2,$3*
1,1,$1,$2,$3*
20,1,$1,$2,$3,$4,$5,0*
20,1,$1,$2,$3,$4,$5,0*
20,1,$1,$2,$3,$4,$5,0*
20,1,$1,$2,$3,$4,$5,0*%
%AMCOMP1710*
4,1,3,
0.015748031496062995,0.024606299212598427,
-0.015748031496062995,0.024606299212598427,
-0.015748031496062995,-0.024606299212598427,
0.015748031496062995,-0.024606299212598427,
0*
4,1,19,
0.015748031496062995,0.034448818897637797,
0.018789537346210115,0.033967091695818442,
0.02153331941232749,0.032569064905265233,
0.0237107971887298,0.030391587128862928,
0.025108823979283011,0.027647805062745546,
0.025590551181102365,0.024606299212598427,
0.025108823979283011,0.021564793362451307,
0.0237107971887298,0.018821011296333928,
0.021533319412327497,0.016643533519931621,
0.018789537346210115,0.015245506729378409,
0.015748031496062995,0.014763779527559057,
0.012706525645915871,0.015245506729378409,
0.009962743579798497,0.016643533519931621,
0.0077852658033961885,0.018821011296333925,
0.0063872390128429787,0.021564793362451307,
0.0059055118110236228,0.024606299212598427,
0.006387239012842977,0.027647805062745546,
0.0077852658033961868,0.030391587128862925,
0.0099627435797984918,0.032569064905265233,
0.012706525645915871,0.033967091695818442,
0*
4,1,19,
-0.015748031496062995,0.034448818897637797,
-0.012706525645915873,0.033967091695818442,
-0.0099627435797984935,0.032569064905265233,
-0.0077852658033961877,0.030391587128862928,
-0.0063872390128429787,0.027647805062745546,
-0.0059055118110236228,0.024606299212598427,
-0.006387239012842977,0.021564793362451307,
-0.0077852658033961877,0.018821011296333928,
-0.0099627435797984918,0.016643533519931621,
-0.012706525645915873,0.015245506729378409,
-0.015748031496062992,0.014763779527559057,
-0.018789537346210118,0.015245506729378409,
-0.02153331941232749,0.016643533519931621,
-0.0237107971887298,0.018821011296333925,
-0.025108823979283011,0.021564793362451307,
-0.025590551181102365,0.024606299212598427,
-0.025108823979283011,0.027647805062745546,
-0.0237107971887298,0.030391587128862925,
-0.021533319412327497,0.032569064905265233,
-0.018789537346210118,0.033967091695818442,
0*
4,1,19,
-0.015748031496062995,-0.014763779527559057,
-0.012706525645915873,-0.015245506729378409,
-0.0099627435797984935,-0.016643533519931621,
-0.0077852658033961877,-0.018821011296333928,
-0.0063872390128429787,-0.021564793362451307,
-0.0059055118110236228,-0.024606299212598427,
-0.006387239012842977,-0.027647805062745546,
-0.0077852658033961877,-0.030391587128862925,
-0.0099627435797984918,-0.032569064905265233,
-0.012706525645915873,-0.033967091695818442,
-0.015748031496062992,-0.034448818897637797,
-0.018789537346210118,-0.033967091695818442,
-0.02153331941232749,-0.032569064905265233,
-0.0237107971887298,-0.030391587128862928,
-0.025108823979283011,-0.027647805062745546,
-0.025590551181102365,-0.024606299212598427,
-0.025108823979283011,-0.021564793362451307,
-0.0237107971887298,-0.018821011296333928,
-0.021533319412327497,-0.016643533519931621,
-0.018789537346210118,-0.015245506729378409,
0*
4,1,19,
0.015748031496062995,-0.014763779527559057,
0.018789537346210115,-0.015245506729378409,
0.02153331941232749,-0.016643533519931621,
0.0237107971887298,-0.018821011296333928,
0.025108823979283011,-0.021564793362451307,
0.025590551181102365,-0.024606299212598427,
0.025108823979283011,-0.027647805062745546,
0.0237107971887298,-0.030391587128862925,
0.021533319412327497,-0.032569064905265233,
0.018789537346210115,-0.033967091695818442,
0.015748031496062995,-0.034448818897637797,
0.012706525645915871,-0.033967091695818442,
0.009962743579798497,-0.032569064905265233,
0.0077852658033961885,-0.030391587128862928,
0.0063872390128429787,-0.027647805062745546,
0.0059055118110236228,-0.024606299212598427,
0.006387239012842977,-0.021564793362451307,
0.0077852658033961868,-0.018821011296333928,
0.0099627435797984918,-0.016643533519931621,
0.012706525645915871,-0.015245506729378409,
0*
4,1,3,
0.015748031496062995,0.034448818897637797,
0.015748031496062995,0.014763779527559057,
-0.015748031496062995,0.014763779527559057,
-0.015748031496062995,0.034448818897637797,
0*
4,1,3,
-0.025590551181102365,0.024606299212598427,
-0.0059055118110236228,0.024606299212598427,
-0.0059055118110236228,-0.024606299212598427,
-0.025590551181102365,-0.024606299212598427,
0*
4,1,3,
-0.015748031496062995,-0.034448818897637797,
-0.015748031496062995,-0.014763779527559057,
0.015748031496062995,-0.014763779527559057,
0.015748031496062995,-0.034448818897637797,
0*
4,1,3,
0.025590551181102365,-0.024606299212598427,
0.0059055118110236228,-0.024606299212598427,
0.0059055118110236228,0.024606299212598427,
0.025590551181102365,0.024606299212598427,
0*%
%AMCOMP1720*
4,1,3,
-0.015748031496062995,-0.024606299212598427,
0.015748031496062995,-0.024606299212598427,
0.015748031496062995,0.024606299212598427,
-0.015748031496062995,0.024606299212598427,
0*
4,1,19,
-0.015748031496062995,-0.014763779527559057,
-0.012706525645915873,-0.015245506729378409,
-0.0099627435797984935,-0.016643533519931621,
-0.0077852658033961877,-0.018821011296333928,
-0.0063872390128429787,-0.021564793362451307,
-0.0059055118110236228,-0.024606299212598427,
-0.006387239012842977,-0.027647805062745546,
-0.0077852658033961877,-0.030391587128862925,
-0.0099627435797984918,-0.032569064905265233,
-0.012706525645915873,-0.033967091695818442,
-0.015748031496062992,-0.034448818897637797,
-0.018789537346210118,-0.033967091695818442,
-0.02153331941232749,-0.032569064905265233,
-0.0237107971887298,-0.030391587128862928,
-0.025108823979283011,-0.027647805062745546,
-0.025590551181102365,-0.024606299212598427,
-0.025108823979283011,-0.021564793362451307,
-0.0237107971887298,-0.018821011296333928,
-0.021533319412327497,-0.016643533519931621,
-0.018789537346210118,-0.015245506729378409,
0*
4,1,19,
0.015748031496062995,-0.014763779527559057,
0.018789537346210115,-0.015245506729378409,
0.02153331941232749,-0.016643533519931621,
0.0237107971887298,-0.018821011296333928,
0.025108823979283011,-0.021564793362451307,
0.025590551181102365,-0.024606299212598427,
0.025108823979283011,-0.027647805062745546,
0.0237107971887298,-0.030391587128862925,
0.021533319412327497,-0.032569064905265233,
0.018789537346210115,-0.033967091695818442,
0.015748031496062995,-0.034448818897637797,
0.012706525645915871,-0.033967091695818442,
0.009962743579798497,-0.032569064905265233,
0.0077852658033961885,-0.030391587128862928,
0.0063872390128429787,-0.027647805062745546,
0.0059055118110236228,-0.024606299212598427,
0.006387239012842977,-0.021564793362451307,
0.0077852658033961868,-0.018821011296333928,
0.0099627435797984918,-0.016643533519931621,
0.012706525645915871,-0.015245506729378409,
0*
4,1,19,
0.015748031496062995,0.034448818897637797,
0.018789537346210115,0.033967091695818442,
0.02153331941232749,0.032569064905265233,
0.0237107971887298,0.030391587128862928,
0.025108823979283011,0.027647805062745546,
0.025590551181102365,0.024606299212598427,
0.025108823979283011,0.021564793362451307,
0.0237107971887298,0.018821011296333928,
0.021533319412327497,0.016643533519931621,
0.018789537346210115,0.015245506729378409,
0.015748031496062995,0.014763779527559057,
0.012706525645915871,0.015245506729378409,
0.009962743579798497,0.016643533519931621,
0.0077852658033961885,0.018821011296333925,
0.0063872390128429787,0.021564793362451307,
0.0059055118110236228,0.024606299212598427,
0.006387239012842977,0.027647805062745546,
0.0077852658033961868,0.030391587128862925,
0.0099627435797984918,0.032569064905265233,
0.012706525645915871,0.033967091695818442,
0*
4,1,19,
-0.015748031496062995,0.034448818897637797,
-0.012706525645915873,0.033967091695818442,
-0.0099627435797984935,0.032569064905265233,
-0.0077852658033961877,0.030391587128862928,
-0.0063872390128429787,0.027647805062745546,
-0.0059055118110236228,0.024606299212598427,
-0.006387239012842977,0.021564793362451307,
-0.0077852658033961877,0.018821011296333928,
-0.0099627435797984918,0.016643533519931621,
-0.012706525645915873,0.015245506729378409,
-0.015748031496062992,0.014763779527559057,
-0.018789537346210118,0.015245506729378409,
-0.02153331941232749,0.016643533519931621,
-0.0237107971887298,0.018821011296333925,
-0.025108823979283011,0.021564793362451307,
-0.025590551181102365,0.024606299212598427,
-0.025108823979283011,0.027647805062745546,
-0.0237107971887298,0.030391587128862925,
-0.021533319412327497,0.032569064905265233,
-0.018789537346210118,0.033967091695818442,
0*
4,1,3,
-0.015748031496062995,-0.034448818897637797,
-0.015748031496062995,-0.014763779527559057,
0.015748031496062995,-0.014763779527559057,
0.015748031496062995,-0.034448818897637797,
0*
4,1,3,
0.025590551181102365,-0.024606299212598427,
0.0059055118110236228,-0.024606299212598427,
0.0059055118110236228,0.024606299212598427,
0.025590551181102365,0.024606299212598427,
0*
4,1,3,
0.015748031496062995,0.034448818897637797,
0.015748031496062995,0.014763779527559057,
-0.015748031496062995,0.014763779527559057,
-0.015748031496062995,0.034448818897637797,
0*
4,1,3,
-0.025590551181102365,0.024606299212598427,
-0.0059055118110236228,0.024606299212598427,
-0.0059055118110236228,-0.024606299212598427,
-0.025590551181102365,-0.024606299212598427,
0*%
%AMCOMP1730*
4,1,3,
-0.03937007874015748,0.03937007874015748,
-0.03937007874015748,-0.03937007874015748,
0.03937007874015748,-0.03937007874015748,
0.03937007874015748,0.03937007874015748,
0*
4,1,19,
-0.03937007874015748,0.07874015748031496,
-0.027204055339569,0.076813248673037543,
-0.016228927075099483,0.0712211415108247,
-0.0075190159694902585,0.062511230405215487,
-0.0019269088072774202,0.051536102140745964,
0,0.03937007874015748,
-0.0019269088072774157,0.027204055339569003,
-0.0075190159694902585,0.01622892707509949,
-0.016228927075099479,0.0075190159694902628,
-0.027204055339569,0.0019269088072774202,
-0.03937007874015748,0,
-0.051536102140745978,0.0019269088072774202,
-0.062511230405215473,0.0075190159694902541,
-0.0712211415108247,0.016228927075099479,
-0.076813248673037543,0.027204055339568996,
-0.07874015748031496,0.039370078740157473,
-0.076813248673037543,0.051536102140745957,
-0.0712211415108247,0.062511230405215473,
-0.062511230405215487,0.0712211415108247,
-0.051536102140745978,0.076813248673037543,
0*
4,1,19,
-0.03937007874015748,0,
-0.027204055339569,-0.0019269088072774202,
-0.016228927075099483,-0.0075190159694902585,
-0.0075190159694902585,-0.016228927075099483,
-0.0019269088072774202,-0.027204055339569,
0,-0.03937007874015748,
-0.0019269088072774157,-0.051536102140745964,
-0.0075190159694902585,-0.062511230405215473,
-0.016228927075099479,-0.0712211415108247,
-0.027204055339569,-0.076813248673037543,
-0.03937007874015748,-0.07874015748031496,
-0.051536102140745978,-0.076813248673037543,
-0.062511230405215473,-0.0712211415108247,
-0.0712211415108247,-0.062511230405215487,
-0.076813248673037543,-0.051536102140745964,
-0.07874015748031496,-0.039370078740157494,
-0.076813248673037543,-0.02720405533956901,
-0.0712211415108247,-0.016228927075099493,
-0.062511230405215487,-0.0075190159694902628,
-0.051536102140745978,-0.0019269088072774202,
0*
4,1,19,
0.03937007874015748,0,
0.051536102140745964,-0.0019269088072774202,
0.062511230405215487,-0.0075190159694902585,
0.0712211415108247,-0.016228927075099483,
0.076813248673037543,-0.027204055339569,
0.07874015748031496,-0.03937007874015748,
0.076813248673037543,-0.051536102140745964,
0.0712211415108247,-0.062511230405215473,
0.062511230405215487,-0.0712211415108247,
0.051536102140745964,-0.076813248673037543,
0.039370078740157494,-0.07874015748031496,
0.027204055339568992,-0.076813248673037543,
0.01622892707509949,-0.0712211415108247,
0.0075190159694902628,-0.062511230405215487,
0.0019269088072774202,-0.051536102140745964,
0,-0.039370078740157494,
0.0019269088072774157,-0.02720405533956901,
0.0075190159694902541,-0.016228927075099493,
0.016228927075099476,-0.0075190159694902628,
0.027204055339568992,-0.0019269088072774202,
0*
4,1,19,
0.03937007874015748,0.07874015748031496,
0.051536102140745964,0.076813248673037543,
0.062511230405215487,0.0712211415108247,
0.0712211415108247,0.062511230405215487,
0.076813248673037543,0.051536102140745964,
0.07874015748031496,0.03937007874015748,
0.076813248673037543,0.027204055339569003,
0.0712211415108247,0.01622892707509949,
0.062511230405215487,0.0075190159694902628,
0.051536102140745964,0.0019269088072774202,
0.039370078740157494,0,
0.027204055339568992,0.0019269088072774202,
0.01622892707509949,0.0075190159694902541,
0.0075190159694902628,0.016228927075099479,
0.0019269088072774202,0.027204055339568996,
0,0.039370078740157473,
0.0019269088072774157,0.051536102140745957,
0.0075190159694902541,0.062511230405215473,
0.016228927075099476,0.0712211415108247,
0.027204055339568992,0.076813248673037543,
0*
4,1,3,
-0.07874015748031496,0.03937007874015748,
0,0.03937007874015748,
0,-0.03937007874015748,
-0.07874015748031496,-0.03937007874015748,
0*
4,1,3,
-0.03937007874015748,-0.07874015748031496,
-0.03937007874015748,0,
0.03937007874015748,0,
0.03937007874015748,-0.07874015748031496,
0*
4,1,3,
0.07874015748031496,-0.03937007874015748,
0,-0.03937007874015748,
0,0.03937007874015748,
0.07874015748031496,0.03937007874015748,
0*
4,1,3,
0.03937007874015748,0.07874015748031496,
0.03937007874015748,0,
-0.03937007874015748,0,
-0.03937007874015748,0.07874015748031496,
0*%
%AMCOMP1740*
4,1,3,
-0.04429133858267717,0.034448818897637797,
-0.04429133858267717,-0.034448818897637797,
0.04429133858267717,-0.034448818897637797,
0.04429133858267717,0.034448818897637797,
0*
4,1,19,
-0.04429133858267717,0.068897637795275593,
-0.033646068107162252,0.067211592588907854,
-0.02404283087575142,0.062318498821971623,
-0.016421658658343347,0.054697326604563543,
-0.011528564891407115,0.045094089373152721,
-0.00984251968503937,0.034448818897637797,
-0.011528564891407109,0.023803548422122879,
-0.016421658658343347,0.014200311190712054,
-0.024042830875751417,0.00657913897330398,
-0.033646068107162239,0.0016860452063677432,
-0.04429133858267717,0,
-0.054936609058192094,0.0016860452063677432,
-0.064539846289602909,0.0065791389733039713,
-0.072161018507010982,0.014200311190712045,
-0.07705411227394722,0.023803548422122869,
-0.07874015748031496,0.03444881889763779,
-0.07705411227394722,0.045094089373152707,
-0.072161018507011,0.054697326604563536,
-0.064539846289602923,0.062318498821971616,
-0.054936609058192094,0.067211592588907854,
0*
4,1,19,
-0.04429133858267717,0,
-0.033646068107162252,-0.0016860452063677432,
-0.02404283087575142,-0.0065791389733039756,
-0.016421658658343347,-0.014200311190712049,
-0.011528564891407115,-0.023803548422122876,
-0.00984251968503937,-0.034448818897637797,
-0.011528564891407109,-0.045094089373152714,
-0.016421658658343347,-0.054697326604563536,
-0.024042830875751417,-0.062318498821971616,
-0.033646068107162239,-0.067211592588907854,
-0.04429133858267717,-0.068897637795275593,
-0.054936609058192094,-0.067211592588907854,
-0.064539846289602909,-0.062318498821971623,
-0.072161018507010982,-0.054697326604563556,
-0.07705411227394722,-0.045094089373152721,
-0.07874015748031496,-0.0344488188976378,
-0.07705411227394722,-0.023803548422122883,
-0.072161018507011,-0.014200311190712057,
-0.064539846289602923,-0.00657913897330398,
-0.054936609058192094,-0.0016860452063677432,
0*
4,1,19,
0.04429133858267717,0,
0.054936609058192087,-0.0016860452063677432,
0.064539846289602909,-0.0065791389733039756,
0.072161018507011,-0.014200311190712049,
0.07705411227394722,-0.023803548422122876,
0.07874015748031496,-0.034448818897637797,
0.07705411227394722,-0.045094089373152714,
0.072161018507011,-0.054697326604563536,
0.064539846289602923,-0.062318498821971616,
0.054936609058192094,-0.067211592588907854,
0.04429133858267717,-0.068897637795275593,
0.033646068107162239,-0.067211592588907854,
0.024042830875751424,-0.062318498821971623,
0.016421658658343351,-0.054697326604563556,
0.011528564891407115,-0.045094089373152721,
0.00984251968503937,-0.0344488188976378,
0.011528564891407109,-0.023803548422122883,
0.016421658658343344,-0.014200311190712057,
0.02404283087575141,-0.00657913897330398,
0.033646068107162239,-0.0016860452063677432,
0*
4,1,19,
0.04429133858267717,0.068897637795275593,
0.054936609058192087,0.067211592588907854,
0.064539846289602909,0.062318498821971623,
0.072161018507011,0.054697326604563543,
0.07705411227394722,0.045094089373152721,
0.07874015748031496,0.034448818897637797,
0.07705411227394722,0.023803548422122879,
0.072161018507011,0.014200311190712054,
0.064539846289602923,0.00657913897330398,
0.054936609058192094,0.0016860452063677432,
0.04429133858267717,0,
0.033646068107162239,0.0016860452063677432,
0.024042830875751424,0.0065791389733039713,
0.016421658658343351,0.014200311190712045,
0.011528564891407115,0.023803548422122869,
0.00984251968503937,0.03444881889763779,
0.011528564891407109,0.045094089373152707,
0.016421658658343344,0.054697326604563536,
0.02404283087575141,0.062318498821971616,
0.033646068107162239,0.067211592588907854,
0*
4,1,3,
-0.07874015748031496,0.034448818897637797,
-0.00984251968503937,0.034448818897637797,
-0.00984251968503937,-0.034448818897637797,
-0.07874015748031496,-0.034448818897637797,
0*
4,1,3,
-0.04429133858267717,-0.068897637795275593,
-0.04429133858267717,0,
0.04429133858267717,0,
0.04429133858267717,-0.068897637795275593,
0*
4,1,3,
0.07874015748031496,-0.034448818897637797,
0.00984251968503937,-0.034448818897637797,
0.00984251968503937,0.034448818897637797,
0.07874015748031496,0.034448818897637797,
0*
4,1,3,
0.04429133858267717,0.068897637795275593,
0.04429133858267717,0,
-0.04429133858267717,0,
-0.04429133858267717,0.068897637795275593,
0*%
%AMRoundRect1*
4,1,4,
0.07874015748031496,0.11811023622047245,
0.15748031496062992,0.19685039370078741,
0.23622047244094491,0.27559055118110237,
0.31496062992125984,0.35433070866141736,
0.07874015748031496,0.11811023622047245,
0*
1,1,$1,$2,$3*
1,1,$1,$2,$3*
1,1,$1,$2,$3*
1,1,$1,$2,$3*
20,1,$1,$2,$3,$4,$5,0*
20,1,$1,$2,$3,$4,$5,0*
20,1,$1,$2,$3,$4,$5,0*
20,1,$1,$2,$3,$4,$5,0*%
%AMCOMP1790*
4,1,3,
-0.015748031496062995,-0.024606299212598427,
0.015748031496062995,-0.024606299212598427,
0.015748031496062995,0.024606299212598427,
-0.015748031496062995,0.024606299212598427,
0*
4,1,19,
-0.015748031496062995,-0.014763779527559057,
-0.012706525645915873,-0.015245506729378409,
-0.0099627435797984935,-0.016643533519931621,
-0.0077852658033961877,-0.018821011296333928,
-0.0063872390128429787,-0.021564793362451307,
-0.0059055118110236228,-0.024606299212598427,
-0.006387239012842977,-0.027647805062745546,
-0.0077852658033961877,-0.030391587128862925,
-0.0099627435797984918,-0.032569064905265233,
-0.012706525645915873,-0.033967091695818442,
-0.015748031496062992,-0.034448818897637797,
-0.018789537346210118,-0.033967091695818442,
-0.02153331941232749,-0.032569064905265233,
-0.0237107971887298,-0.030391587128862928,
-0.025108823979283011,-0.027647805062745546,
-0.025590551181102365,-0.024606299212598427,
-0.025108823979283011,-0.021564793362451307,
-0.0237107971887298,-0.018821011296333928,
-0.021533319412327497,-0.016643533519931621,
-0.018789537346210118,-0.015245506729378409,
0*
4,1,19,
0.015748031496062995,-0.014763779527559057,
0.018789537346210115,-0.015245506729378409,
0.02153331941232749,-0.016643533519931621,
0.0237107971887298,-0.018821011296333928,
0.025108823979283011,-0.021564793362451307,
0.025590551181102365,-0.024606299212598427,
0.025108823979283011,-0.027647805062745546,
0.0237107971887298,-0.030391587128862925,
0.021533319412327497,-0.032569064905265233,
0.018789537346210115,-0.033967091695818442,
0.015748031496062995,-0.034448818897637797,
0.012706525645915871,-0.033967091695818442,
0.009962743579798497,-0.032569064905265233,
0.0077852658033961885,-0.030391587128862928,
0.0063872390128429787,-0.027647805062745546,
0.0059055118110236228,-0.024606299212598427,
0.006387239012842977,-0.021564793362451307,
0.0077852658033961868,-0.018821011296333928,
0.0099627435797984918,-0.016643533519931621,
0.012706525645915871,-0.015245506729378409,
0*
4,1,19,
0.015748031496062995,0.034448818897637797,
0.018789537346210115,0.033967091695818442,
0.02153331941232749,0.032569064905265233,
0.0237107971887298,0.030391587128862928,
0.025108823979283011,0.027647805062745546,
0.025590551181102365,0.024606299212598427,
0.025108823979283011,0.021564793362451307,
0.0237107971887298,0.018821011296333928,
0.021533319412327497,0.016643533519931621,
0.018789537346210115,0.015245506729378409,
0.015748031496062995,0.014763779527559057,
0.012706525645915871,0.015245506729378409,
0.009962743579798497,0.016643533519931621,
0.0077852658033961885,0.018821011296333925,
0.0063872390128429787,0.021564793362451307,
0.0059055118110236228,0.024606299212598427,
0.006387239012842977,0.027647805062745546,
0.0077852658033961868,0.030391587128862925,
0.0099627435797984918,0.032569064905265233,
0.012706525645915871,0.033967091695818442,
0*
4,1,19,
-0.015748031496062995,0.034448818897637797,
-0.012706525645915873,0.033967091695818442,
-0.0099627435797984935,0.032569064905265233,
-0.0077852658033961877,0.030391587128862928,
-0.0063872390128429787,0.027647805062745546,
-0.0059055118110236228,0.024606299212598427,
-0.006387239012842977,0.021564793362451307,
-0.0077852658033961877,0.018821011296333928,
-0.0099627435797984918,0.016643533519931621,
-0.012706525645915873,0.015245506729378409,
-0.015748031496062992,0.014763779527559057,
-0.018789537346210118,0.015245506729378409,
-0.02153331941232749,0.016643533519931621,
-0.0237107971887298,0.018821011296333925,
-0.025108823979283011,0.021564793362451307,
-0.025590551181102365,0.024606299212598427,
-0.025108823979283011,0.027647805062745546,
-0.0237107971887298,0.030391587128862925,
-0.021533319412327497,0.032569064905265233,
-0.018789537346210118,0.033967091695818442,
0*
4,1,3,
-0.015748031496062995,-0.034448818897637797,
-0.015748031496062995,-0.014763779527559057,
0.015748031496062995,-0.014763779527559057,
0.015748031496062995,-0.034448818897637797,
0*
4,1,3,
0.025590551181102365,-0.024606299212598427,
0.0059055118110236228,-0.024606299212598427,
0.0059055118110236228,0.024606299212598427,
0.025590551181102365,0.024606299212598427,
0*
4,1,3,
0.015748031496062995,0.034448818897637797,
0.015748031496062995,0.014763779527559057,
-0.015748031496062995,0.014763779527559057,
-0.015748031496062995,0.034448818897637797,
0*
4,1,3,
-0.025590551181102365,0.024606299212598427,
-0.0059055118110236228,0.024606299212598427,
-0.0059055118110236228,-0.024606299212598427,
-0.025590551181102365,-0.024606299212598427,
0*%
%AMCOMP1800*
4,1,3,
0.015748031496062995,0.024606299212598427,
-0.015748031496062995,0.024606299212598427,
-0.015748031496062995,-0.024606299212598427,
0.015748031496062995,-0.024606299212598427,
0*
4,1,19,
0.015748031496062995,0.034448818897637797,
0.018789537346210115,0.033967091695818442,
0.02153331941232749,0.032569064905265233,
0.0237107971887298,0.030391587128862928,
0.025108823979283011,0.027647805062745546,
0.025590551181102365,0.024606299212598427,
0.025108823979283011,0.021564793362451307,
0.0237107971887298,0.018821011296333928,
0.021533319412327497,0.016643533519931621,
0.018789537346210115,0.015245506729378409,
0.015748031496062995,0.014763779527559057,
0.012706525645915871,0.015245506729378409,
0.009962743579798497,0.016643533519931621,
0.0077852658033961885,0.018821011296333925,
0.0063872390128429787,0.021564793362451307,
0.0059055118110236228,0.024606299212598427,
0.006387239012842977,0.027647805062745546,
0.0077852658033961868,0.030391587128862925,
0.0099627435797984918,0.032569064905265233,
0.012706525645915871,0.033967091695818442,
0*
4,1,19,
-0.015748031496062995,0.034448818897637797,
-0.012706525645915873,0.033967091695818442,
-0.0099627435797984935,0.032569064905265233,
-0.0077852658033961877,0.030391587128862928,
-0.0063872390128429787,0.027647805062745546,
-0.0059055118110236228,0.024606299212598427,
-0.006387239012842977,0.021564793362451307,
-0.0077852658033961877,0.018821011296333928,
-0.0099627435797984918,0.016643533519931621,
-0.012706525645915873,0.015245506729378409,
-0.015748031496062992,0.014763779527559057,
-0.018789537346210118,0.015245506729378409,
-0.02153331941232749,0.016643533519931621,
-0.0237107971887298,0.018821011296333925,
-0.025108823979283011,0.021564793362451307,
-0.025590551181102365,0.024606299212598427,
-0.025108823979283011,0.027647805062745546,
-0.0237107971887298,0.030391587128862925,
-0.021533319412327497,0.032569064905265233,
-0.018789537346210118,0.033967091695818442,
0*
4,1,19,
-0.015748031496062995,-0.014763779527559057,
-0.012706525645915873,-0.015245506729378409,
-0.0099627435797984935,-0.016643533519931621,
-0.0077852658033961877,-0.018821011296333928,
-0.0063872390128429787,-0.021564793362451307,
-0.0059055118110236228,-0.024606299212598427,
-0.006387239012842977,-0.027647805062745546,
-0.0077852658033961877,-0.030391587128862925,
-0.0099627435797984918,-0.032569064905265233,
-0.012706525645915873,-0.033967091695818442,
-0.015748031496062992,-0.034448818897637797,
-0.018789537346210118,-0.033967091695818442,
-0.02153331941232749,-0.032569064905265233,
-0.0237107971887298,-0.030391587128862928,
-0.025108823979283011,-0.027647805062745546,
-0.025590551181102365,-0.024606299212598427,
-0.025108823979283011,-0.021564793362451307,
-0.0237107971887298,-0.018821011296333928,
-0.021533319412327497,-0.016643533519931621,
-0.018789537346210118,-0.015245506729378409,
0*
4,1,19,
0.015748031496062995,-0.014763779527559057,
0.018789537346210115,-0.015245506729378409,
0.02153331941232749,-0.016643533519931621,
0.0237107971887298,-0.018821011296333928,
0.025108823979283011,-0.021564793362451307,
0.025590551181102365,-0.024606299212598427,
0.025108823979283011,-0.027647805062745546,
0.0237107971887298,-0.030391587128862925,
0.021533319412327497,-0.032569064905265233,
0.018789537346210115,-0.033967091695818442,
0.015748031496062995,-0.034448818897637797,
0.012706525645915871,-0.033967091695818442,
0.009962743579798497,-0.032569064905265233,
0.0077852658033961885,-0.030391587128862928,
0.0063872390128429787,-0.027647805062745546,
0.0059055118110236228,-0.024606299212598427,
0.006387239012842977,-0.021564793362451307,
0.0077852658033961868,-0.018821011296333928,
0.0099627435797984918,-0.016643533519931621,
0.012706525645915871,-0.015245506729378409,
0*
4,1,3,
0.015748031496062995,0.034448818897637797,
0.015748031496062995,0.014763779527559057,
-0.015748031496062995,0.014763779527559057,
-0.015748031496062995,0.034448818897637797,
0*
4,1,3,
-0.025590551181102365,0.024606299212598427,
-0.0059055118110236228,0.024606299212598427,
-0.0059055118110236228,-0.024606299212598427,
-0.025590551181102365,-0.024606299212598427,
0*
4,1,3,
-0.015748031496062995,-0.034448818897637797,
-0.015748031496062995,-0.014763779527559057,
0.015748031496062995,-0.014763779527559057,
0.015748031496062995,-0.034448818897637797,
0*
4,1,3,
0.025590551181102365,-0.024606299212598427,
0.0059055118110236228,-0.024606299212598427,
0.0059055118110236228,0.024606299212598427,
0.025590551181102365,0.024606299212598427,
0*%
%AMRoundRect0*
4,1,4,
0.07874015748031496,0.11811023622047245,
0.15748031496062992,0.19685039370078741,
0.23622047244094491,0.27559055118110237,
0.31496062992125984,0.35433070866141736,
0.07874015748031496,0.11811023622047245,
0*
1,1,$1,$2,$3*
1,1,$1,$2,$3*
1,1,$1,$2,$3*
1,1,$1,$2,$3*
20,1,$1,$2,$3,$4,$5,0*
20,1,$1,$2,$3,$4,$5,0*
20,1,$1,$2,$3,$4,$5,0*
20,1,$1,$2,$3,$4,$5,0*%
%AMCOMP1870*
4,1,3,
-0.015748031496062995,-0.024606299212598427,
0.015748031496062995,-0.024606299212598427,
0.015748031496062995,0.024606299212598427,
-0.015748031496062995,0.024606299212598427,
0*
4,1,19,
-0.015748031496062995,-0.014763779527559057,
-0.012706525645915873,-0.015245506729378409,
-0.0099627435797984935,-0.016643533519931621,
-0.0077852658033961877,-0.018821011296333928,
-0.0063872390128429787,-0.021564793362451307,
-0.0059055118110236228,-0.024606299212598427,
-0.006387239012842977,-0.027647805062745546,
-0.0077852658033961877,-0.030391587128862925,
-0.0099627435797984918,-0.032569064905265233,
-0.012706525645915873,-0.033967091695818442,
-0.015748031496062992,-0.034448818897637797,
-0.018789537346210118,-0.033967091695818442,
-0.02153331941232749,-0.032569064905265233,
-0.0237107971887298,-0.030391587128862928,
-0.025108823979283011,-0.027647805062745546,
-0.025590551181102365,-0.024606299212598427,
-0.025108823979283011,-0.021564793362451307,
-0.0237107971887298,-0.018821011296333928,
-0.021533319412327497,-0.016643533519931621,
-0.018789537346210118,-0.015245506729378409,
0*
4,1,19,
0.015748031496062995,-0.014763779527559057,
0.018789537346210115,-0.015245506729378409,
0.02153331941232749,-0.016643533519931621,
0.0237107971887298,-0.018821011296333928,
0.025108823979283011,-0.021564793362451307,
0.025590551181102365,-0.024606299212598427,
0.025108823979283011,-0.027647805062745546,
0.0237107971887298,-0.030391587128862925,
0.021533319412327497,-0.032569064905265233,
0.018789537346210115,-0.033967091695818442,
0.015748031496062995,-0.034448818897637797,
0.012706525645915871,-0.033967091695818442,
0.009962743579798497,-0.032569064905265233,
0.0077852658033961885,-0.030391587128862928,
0.0063872390128429787,-0.027647805062745546,
0.0059055118110236228,-0.024606299212598427,
0.006387239012842977,-0.021564793362451307,
0.0077852658033961868,-0.018821011296333928,
0.0099627435797984918,-0.016643533519931621,
0.012706525645915871,-0.015245506729378409,
0*
4,1,19,
0.015748031496062995,0.034448818897637797,
0.018789537346210115,0.033967091695818442,
0.02153331941232749,0.032569064905265233,
0.0237107971887298,0.030391587128862928,
0.025108823979283011,0.027647805062745546,
0.025590551181102365,0.024606299212598427,
0.025108823979283011,0.021564793362451307,
0.0237107971887298,0.018821011296333928,
0.021533319412327497,0.016643533519931621,
0.018789537346210115,0.015245506729378409,
0.015748031496062995,0.014763779527559057,
0.012706525645915871,0.015245506729378409,
0.009962743579798497,0.016643533519931621,
0.0077852658033961885,0.018821011296333925,
0.0063872390128429787,0.021564793362451307,
0.0059055118110236228,0.024606299212598427,
0.006387239012842977,0.027647805062745546,
0.0077852658033961868,0.030391587128862925,
0.0099627435797984918,0.032569064905265233,
0.012706525645915871,0.033967091695818442,
0*
4,1,19,
-0.015748031496062995,0.034448818897637797,
-0.012706525645915873,0.033967091695818442,
-0.0099627435797984935,0.032569064905265233,
-0.0077852658033961877,0.030391587128862928,
-0.0063872390128429787,0.027647805062745546,
-0.0059055118110236228,0.024606299212598427,
-0.006387239012842977,0.021564793362451307,
-0.0077852658033961877,0.018821011296333928,
-0.0099627435797984918,0.016643533519931621,
-0.012706525645915873,0.015245506729378409,
-0.015748031496062992,0.014763779527559057,
-0.018789537346210118,0.015245506729378409,
-0.02153331941232749,0.016643533519931621,
-0.0237107971887298,0.018821011296333925,
-0.025108823979283011,0.021564793362451307,
-0.025590551181102365,0.024606299212598427,
-0.025108823979283011,0.027647805062745546,
-0.0237107971887298,0.030391587128862925,
-0.021533319412327497,0.032569064905265233,
-0.018789537346210118,0.033967091695818442,
0*
4,1,3,
-0.015748031496062995,-0.034448818897637797,
-0.015748031496062995,-0.014763779527559057,
0.015748031496062995,-0.014763779527559057,
0.015748031496062995,-0.034448818897637797,
0*
4,1,3,
0.025590551181102365,-0.024606299212598427,
0.0059055118110236228,-0.024606299212598427,
0.0059055118110236228,0.024606299212598427,
0.025590551181102365,0.024606299212598427,
0*
4,1,3,
0.015748031496062995,0.034448818897637797,
0.015748031496062995,0.014763779527559057,
-0.015748031496062995,0.014763779527559057,
-0.015748031496062995,0.034448818897637797,
0*
4,1,3,
-0.025590551181102365,0.024606299212598427,
-0.0059055118110236228,0.024606299212598427,
-0.0059055118110236228,-0.024606299212598427,
-0.025590551181102365,-0.024606299212598427,
0*%
%AMCOMP1880*
4,1,3,
0.015748031496062995,0.024606299212598427,
-0.015748031496062995,0.024606299212598427,
-0.015748031496062995,-0.024606299212598427,
0.015748031496062995,-0.024606299212598427,
0*
4,1,19,
0.015748031496062995,0.034448818897637797,
0.018789537346210115,0.033967091695818442,
0.02153331941232749,0.032569064905265233,
0.0237107971887298,0.030391587128862928,
0.025108823979283011,0.027647805062745546,
0.025590551181102365,0.024606299212598427,
0.025108823979283011,0.021564793362451307,
0.0237107971887298,0.018821011296333928,
0.021533319412327497,0.016643533519931621,
0.018789537346210115,0.015245506729378409,
0.015748031496062995,0.014763779527559057,
0.012706525645915871,0.015245506729378409,
0.009962743579798497,0.016643533519931621,
0.0077852658033961885,0.018821011296333925,
0.0063872390128429787,0.021564793362451307,
0.0059055118110236228,0.024606299212598427,
0.006387239012842977,0.027647805062745546,
0.0077852658033961868,0.030391587128862925,
0.0099627435797984918,0.032569064905265233,
0.012706525645915871,0.033967091695818442,
0*
4,1,19,
-0.015748031496062995,0.034448818897637797,
-0.012706525645915873,0.033967091695818442,
-0.0099627435797984935,0.032569064905265233,
-0.0077852658033961877,0.030391587128862928,
-0.0063872390128429787,0.027647805062745546,
-0.0059055118110236228,0.024606299212598427,
-0.006387239012842977,0.021564793362451307,
-0.0077852658033961877,0.018821011296333928,
-0.0099627435797984918,0.016643533519931621,
-0.012706525645915873,0.015245506729378409,
-0.015748031496062992,0.014763779527559057,
-0.018789537346210118,0.015245506729378409,
-0.02153331941232749,0.016643533519931621,
-0.0237107971887298,0.018821011296333925,
-0.025108823979283011,0.021564793362451307,
-0.025590551181102365,0.024606299212598427,
-0.025108823979283011,0.027647805062745546,
-0.0237107971887298,0.030391587128862925,
-0.021533319412327497,0.032569064905265233,
-0.018789537346210118,0.033967091695818442,
0*
4,1,19,
-0.015748031496062995,-0.014763779527559057,
-0.012706525645915873,-0.015245506729378409,
-0.0099627435797984935,-0.016643533519931621,
-0.0077852658033961877,-0.018821011296333928,
-0.0063872390128429787,-0.021564793362451307,
-0.0059055118110236228,-0.024606299212598427,
-0.006387239012842977,-0.027647805062745546,
-0.0077852658033961877,-0.030391587128862925,
-0.0099627435797984918,-0.032569064905265233,
-0.012706525645915873,-0.033967091695818442,
-0.015748031496062992,-0.034448818897637797,
-0.018789537346210118,-0.033967091695818442,
-0.02153331941232749,-0.032569064905265233,
-0.0237107971887298,-0.030391587128862928,
-0.025108823979283011,-0.027647805062745546,
-0.025590551181102365,-0.024606299212598427,
-0.025108823979283011,-0.021564793362451307,
-0.0237107971887298,-0.018821011296333928,
-0.021533319412327497,-0.016643533519931621,
-0.018789537346210118,-0.015245506729378409,
0*
4,1,19,
0.015748031496062995,-0.014763779527559057,
0.018789537346210115,-0.015245506729378409,
0.02153331941232749,-0.016643533519931621,
0.0237107971887298,-0.018821011296333928,
0.025108823979283011,-0.021564793362451307,
0.025590551181102365,-0.024606299212598427,
0.025108823979283011,-0.027647805062745546,
0.0237107971887298,-0.030391587128862925,
0.021533319412327497,-0.032569064905265233,
0.018789537346210115,-0.033967091695818442,
0.015748031496062995,-0.034448818897637797,
0.012706525645915871,-0.033967091695818442,
0.009962743579798497,-0.032569064905265233,
0.0077852658033961885,-0.030391587128862928,
0.0063872390128429787,-0.027647805062745546,
0.0059055118110236228,-0.024606299212598427,
0.006387239012842977,-0.021564793362451307,
0.0077852658033961868,-0.018821011296333928,
0.0099627435797984918,-0.016643533519931621,
0.012706525645915871,-0.015245506729378409,
0*
4,1,3,
0.015748031496062995,0.034448818897637797,
0.015748031496062995,0.014763779527559057,
-0.015748031496062995,0.014763779527559057,
-0.015748031496062995,0.034448818897637797,
0*
4,1,3,
-0.025590551181102365,0.024606299212598427,
-0.0059055118110236228,0.024606299212598427,
-0.0059055118110236228,-0.024606299212598427,
-0.025590551181102365,-0.024606299212598427,
0*
4,1,3,
-0.015748031496062995,-0.034448818897637797,
-0.015748031496062995,-0.014763779527559057,
0.015748031496062995,-0.014763779527559057,
0.015748031496062995,-0.034448818897637797,
0*
4,1,3,
0.025590551181102365,-0.024606299212598427,
0.0059055118110236228,-0.024606299212598427,
0.0059055118110236228,0.024606299212598427,
0.025590551181102365,0.024606299212598427,
0*%
%AMRoundRect1*
4,1,4,
0.07874015748031496,0.11811023622047245,
0.15748031496062992,0.19685039370078741,
0.23622047244094491,0.27559055118110237,
0.31496062992125984,0.35433070866141736,
0.07874015748031496,0.11811023622047245,
0*
1,1,$1,$2,$3*
1,1,$1,$2,$3*
1,1,$1,$2,$3*
1,1,$1,$2,$3*
20,1,$1,$2,$3,$4,$5,0*
20,1,$1,$2,$3,$4,$5,0*
20,1,$1,$2,$3,$4,$5,0*
20,1,$1,$2,$3,$4,$5,0*%
%AMCOMP1950*
4,1,3,
-0.015748031496062995,-0.024606299212598427,
0.015748031496062995,-0.024606299212598427,
0.015748031496062995,0.024606299212598427,
-0.015748031496062995,0.024606299212598427,
0*
4,1,19,
-0.015748031496062995,-0.014763779527559057,
-0.012706525645915873,-0.015245506729378409,
-0.0099627435797984935,-0.016643533519931621,
-0.0077852658033961877,-0.018821011296333928,
-0.0063872390128429787,-0.021564793362451307,
-0.0059055118110236228,-0.024606299212598427,
-0.006387239012842977,-0.027647805062745546,
-0.0077852658033961877,-0.030391587128862925,
-0.0099627435797984918,-0.032569064905265233,
-0.012706525645915873,-0.033967091695818442,
-0.015748031496062992,-0.034448818897637797,
-0.018789537346210118,-0.033967091695818442,
-0.02153331941232749,-0.032569064905265233,
-0.0237107971887298,-0.030391587128862928,
-0.025108823979283011,-0.027647805062745546,
-0.025590551181102365,-0.024606299212598427,
-0.025108823979283011,-0.021564793362451307,
-0.0237107971887298,-0.018821011296333928,
-0.021533319412327497,-0.016643533519931621,
-0.018789537346210118,-0.015245506729378409,
0*
4,1,19,
0.015748031496062995,-0.014763779527559057,
0.018789537346210115,-0.015245506729378409,
0.02153331941232749,-0.016643533519931621,
0.0237107971887298,-0.018821011296333928,
0.025108823979283011,-0.021564793362451307,
0.025590551181102365,-0.024606299212598427,
0.025108823979283011,-0.027647805062745546,
0.0237107971887298,-0.030391587128862925,
0.021533319412327497,-0.032569064905265233,
0.018789537346210115,-0.033967091695818442,
0.015748031496062995,-0.034448818897637797,
0.012706525645915871,-0.033967091695818442,
0.009962743579798497,-0.032569064905265233,
0.0077852658033961885,-0.030391587128862928,
0.0063872390128429787,-0.027647805062745546,
0.0059055118110236228,-0.024606299212598427,
0.006387239012842977,-0.021564793362451307,
0.0077852658033961868,-0.018821011296333928,
0.0099627435797984918,-0.016643533519931621,
0.012706525645915871,-0.015245506729378409,
0*
4,1,19,
0.015748031496062995,0.034448818897637797,
0.018789537346210115,0.033967091695818442,
0.02153331941232749,0.032569064905265233,
0.0237107971887298,0.030391587128862928,
0.025108823979283011,0.027647805062745546,
0.025590551181102365,0.024606299212598427,
0.025108823979283011,0.021564793362451307,
0.0237107971887298,0.018821011296333928,
0.021533319412327497,0.016643533519931621,
0.018789537346210115,0.015245506729378409,
0.015748031496062995,0.014763779527559057,
0.012706525645915871,0.015245506729378409,
0.009962743579798497,0.016643533519931621,
0.0077852658033961885,0.018821011296333925,
0.0063872390128429787,0.021564793362451307,
0.0059055118110236228,0.024606299212598427,
0.006387239012842977,0.027647805062745546,
0.0077852658033961868,0.030391587128862925,
0.0099627435797984918,0.032569064905265233,
0.012706525645915871,0.033967091695818442,
0*
4,1,19,
-0.015748031496062995,0.034448818897637797,
-0.012706525645915873,0.033967091695818442,
-0.0099627435797984935,0.032569064905265233,
-0.0077852658033961877,0.030391587128862928,
-0.0063872390128429787,0.027647805062745546,
-0.0059055118110236228,0.024606299212598427,
-0.006387239012842977,0.021564793362451307,
-0.0077852658033961877,0.018821011296333928,
-0.0099627435797984918,0.016643533519931621,
-0.012706525645915873,0.015245506729378409,
-0.015748031496062992,0.014763779527559057,
-0.018789537346210118,0.015245506729378409,
-0.02153331941232749,0.016643533519931621,
-0.0237107971887298,0.018821011296333925,
-0.025108823979283011,0.021564793362451307,
-0.025590551181102365,0.024606299212598427,
-0.025108823979283011,0.027647805062745546,
-0.0237107971887298,0.030391587128862925,
-0.021533319412327497,0.032569064905265233,
-0.018789537346210118,0.033967091695818442,
0*
4,1,3,
-0.015748031496062995,-0.034448818897637797,
-0.015748031496062995,-0.014763779527559057,
0.015748031496062995,-0.014763779527559057,
0.015748031496062995,-0.034448818897637797,
0*
4,1,3,
0.025590551181102365,-0.024606299212598427,
0.0059055118110236228,-0.024606299212598427,
0.0059055118110236228,0.024606299212598427,
0.025590551181102365,0.024606299212598427,
0*
4,1,3,
0.015748031496062995,0.034448818897637797,
0.015748031496062995,0.014763779527559057,
-0.015748031496062995,0.014763779527559057,
-0.015748031496062995,0.034448818897637797,
0*
4,1,3,
-0.025590551181102365,0.024606299212598427,
-0.0059055118110236228,0.024606299212598427,
-0.0059055118110236228,-0.024606299212598427,
-0.025590551181102365,-0.024606299212598427,
0*%
%AMCOMP1960*
4,1,3,
0.015748031496062995,0.024606299212598427,
-0.015748031496062995,0.024606299212598427,
-0.015748031496062995,-0.024606299212598427,
0.015748031496062995,-0.024606299212598427,
0*
4,1,19,
0.015748031496062995,0.034448818897637797,
0.018789537346210115,0.033967091695818442,
0.02153331941232749,0.032569064905265233,
0.0237107971887298,0.030391587128862928,
0.025108823979283011,0.027647805062745546,
0.025590551181102365,0.024606299212598427,
0.025108823979283011,0.021564793362451307,
0.0237107971887298,0.018821011296333928,
0.021533319412327497,0.016643533519931621,
0.018789537346210115,0.015245506729378409,
0.015748031496062995,0.014763779527559057,
0.012706525645915871,0.015245506729378409,
0.009962743579798497,0.016643533519931621,
0.0077852658033961885,0.018821011296333925,
0.0063872390128429787,0.021564793362451307,
0.0059055118110236228,0.024606299212598427,
0.006387239012842977,0.027647805062745546,
0.0077852658033961868,0.030391587128862925,
0.0099627435797984918,0.032569064905265233,
0.012706525645915871,0.033967091695818442,
0*
4,1,19,
-0.015748031496062995,0.034448818897637797,
-0.012706525645915873,0.033967091695818442,
-0.0099627435797984935,0.032569064905265233,
-0.0077852658033961877,0.030391587128862928,
-0.0063872390128429787,0.027647805062745546,
-0.0059055118110236228,0.024606299212598427,
-0.006387239012842977,0.021564793362451307,
-0.0077852658033961877,0.018821011296333928,
-0.0099627435797984918,0.016643533519931621,
-0.012706525645915873,0.015245506729378409,
-0.015748031496062992,0.014763779527559057,
-0.018789537346210118,0.015245506729378409,
-0.02153331941232749,0.016643533519931621,
-0.0237107971887298,0.018821011296333925,
-0.025108823979283011,0.021564793362451307,
-0.025590551181102365,0.024606299212598427,
-0.025108823979283011,0.027647805062745546,
-0.0237107971887298,0.030391587128862925,
-0.021533319412327497,0.032569064905265233,
-0.018789537346210118,0.033967091695818442,
0*
4,1,19,
-0.015748031496062995,-0.014763779527559057,
-0.012706525645915873,-0.015245506729378409,
-0.0099627435797984935,-0.016643533519931621,
-0.0077852658033961877,-0.018821011296333928,
-0.0063872390128429787,-0.021564793362451307,
-0.0059055118110236228,-0.024606299212598427,
-0.006387239012842977,-0.027647805062745546,
-0.0077852658033961877,-0.030391587128862925,
-0.0099627435797984918,-0.032569064905265233,
-0.012706525645915873,-0.033967091695818442,
-0.015748031496062992,-0.034448818897637797,
-0.018789537346210118,-0.033967091695818442,
-0.02153331941232749,-0.032569064905265233,
-0.0237107971887298,-0.030391587128862928,
-0.025108823979283011,-0.027647805062745546,
-0.025590551181102365,-0.024606299212598427,
-0.025108823979283011,-0.021564793362451307,
-0.0237107971887298,-0.018821011296333928,
-0.021533319412327497,-0.016643533519931621,
-0.018789537346210118,-0.015245506729378409,
0*
4,1,19,
0.015748031496062995,-0.014763779527559057,
0.018789537346210115,-0.015245506729378409,
0.02153331941232749,-0.016643533519931621,
0.0237107971887298,-0.018821011296333928,
0.025108823979283011,-0.021564793362451307,
0.025590551181102365,-0.024606299212598427,
0.025108823979283011,-0.027647805062745546,
0.0237107971887298,-0.030391587128862925,
0.021533319412327497,-0.032569064905265233,
0.018789537346210115,-0.033967091695818442,
0.015748031496062995,-0.034448818897637797,
0.012706525645915871,-0.033967091695818442,
0.009962743579798497,-0.032569064905265233,
0.0077852658033961885,-0.030391587128862928,
0.0063872390128429787,-0.027647805062745546,
0.0059055118110236228,-0.024606299212598427,
0.006387239012842977,-0.021564793362451307,
0.0077852658033961868,-0.018821011296333928,
0.0099627435797984918,-0.016643533519931621,
0.012706525645915871,-0.015245506729378409,
0*
4,1,3,
0.015748031496062995,0.034448818897637797,
0.015748031496062995,0.014763779527559057,
-0.015748031496062995,0.014763779527559057,
-0.015748031496062995,0.034448818897637797,
0*
4,1,3,
-0.025590551181102365,0.024606299212598427,
-0.0059055118110236228,0.024606299212598427,
-0.0059055118110236228,-0.024606299212598427,
-0.025590551181102365,-0.024606299212598427,
0*
4,1,3,
-0.015748031496062995,-0.034448818897637797,
-0.015748031496062995,-0.014763779527559057,
0.015748031496062995,-0.014763779527559057,
0.015748031496062995,-0.034448818897637797,
0*
4,1,3,
0.025590551181102365,-0.024606299212598427,
0.0059055118110236228,-0.024606299212598427,
0.0059055118110236228,0.024606299212598427,
0.025590551181102365,0.024606299212598427,
0*%
%ADD10R,0.043307086614173235X0.043307086614173235*%
%ADD11R,0.070866141732283464X0.070866141732283464*%
%ADD12C,0.070866141732283464*%
%ADD13C,0.11811023622047245*%
%ADD14C,0.22047244094488189*%
%ADD15R,0.066929133858267723X0.066929133858267723*%
%ADD16O,0.066929133858267723X0.066929133858267723*%
%ADD17R,0.03937007874015748X0.027559055118110236*%
%AMCOMP203*
4,1,3,
0.015748031496062995,0.024606299212598427,
-0.015748031496062995,0.024606299212598427,
-0.015748031496062995,-0.024606299212598427,
0.015748031496062995,-0.024606299212598427,
0*
4,1,19,
0.015748031496062995,0.034448818897637797,
0.018789537346210115,0.033967091695818442,
0.02153331941232749,0.032569064905265233,
0.0237107971887298,0.030391587128862928,
0.025108823979283011,0.027647805062745546,
0.025590551181102365,0.024606299212598427,
0.025108823979283011,0.021564793362451307,
0.0237107971887298,0.018821011296333928,
0.021533319412327497,0.016643533519931621,
0.018789537346210115,0.015245506729378409,
0.015748031496062995,0.014763779527559057,
0.012706525645915871,0.015245506729378409,
0.009962743579798497,0.016643533519931621,
0.0077852658033961885,0.018821011296333925,
0.0063872390128429787,0.021564793362451307,
0.0059055118110236228,0.024606299212598427,
0.006387239012842977,0.027647805062745546,
0.0077852658033961868,0.030391587128862925,
0.0099627435797984918,0.032569064905265233,
0.012706525645915871,0.033967091695818442,
0*
4,1,19,
-0.015748031496062995,0.034448818897637797,
-0.012706525645915873,0.033967091695818442,
-0.0099627435797984935,0.032569064905265233,
-0.0077852658033961877,0.030391587128862928,
-0.0063872390128429787,0.027647805062745546,
-0.0059055118110236228,0.024606299212598427,
-0.006387239012842977,0.021564793362451307,
-0.0077852658033961877,0.018821011296333928,
-0.0099627435797984918,0.016643533519931621,
-0.012706525645915873,0.015245506729378409,
-0.015748031496062992,0.014763779527559057,
-0.018789537346210118,0.015245506729378409,
-0.02153331941232749,0.016643533519931621,
-0.0237107971887298,0.018821011296333925,
-0.025108823979283011,0.021564793362451307,
-0.025590551181102365,0.024606299212598427,
-0.025108823979283011,0.027647805062745546,
-0.0237107971887298,0.030391587128862925,
-0.021533319412327497,0.032569064905265233,
-0.018789537346210118,0.033967091695818442,
0*
4,1,19,
-0.015748031496062995,-0.014763779527559057,
-0.012706525645915873,-0.015245506729378409,
-0.0099627435797984935,-0.016643533519931621,
-0.0077852658033961877,-0.018821011296333928,
-0.0063872390128429787,-0.021564793362451307,
-0.0059055118110236228,-0.024606299212598427,
-0.006387239012842977,-0.027647805062745546,
-0.0077852658033961877,-0.030391587128862925,
-0.0099627435797984918,-0.032569064905265233,
-0.012706525645915873,-0.033967091695818442,
-0.015748031496062992,-0.034448818897637797,
-0.018789537346210118,-0.033967091695818442,
-0.02153331941232749,-0.032569064905265233,
-0.0237107971887298,-0.030391587128862928,
-0.025108823979283011,-0.027647805062745546,
-0.025590551181102365,-0.024606299212598427,
-0.025108823979283011,-0.021564793362451307,
-0.0237107971887298,-0.018821011296333928,
-0.021533319412327497,-0.016643533519931621,
-0.018789537346210118,-0.015245506729378409,
0*
4,1,19,
0.015748031496062995,-0.014763779527559057,
0.018789537346210115,-0.015245506729378409,
0.02153331941232749,-0.016643533519931621,
0.0237107971887298,-0.018821011296333928,
0.025108823979283011,-0.021564793362451307,
0.025590551181102365,-0.024606299212598427,
0.025108823979283011,-0.027647805062745546,
0.0237107971887298,-0.030391587128862925,
0.021533319412327497,-0.032569064905265233,
0.018789537346210115,-0.033967091695818442,
0.015748031496062995,-0.034448818897637797,
0.012706525645915871,-0.033967091695818442,
0.009962743579798497,-0.032569064905265233,
0.0077852658033961885,-0.030391587128862928,
0.0063872390128429787,-0.027647805062745546,
0.0059055118110236228,-0.024606299212598427,
0.006387239012842977,-0.021564793362451307,
0.0077852658033961868,-0.018821011296333928,
0.0099627435797984918,-0.016643533519931621,
0.012706525645915871,-0.015245506729378409,
0*
4,1,3,
0.015748031496062995,0.034448818897637797,
0.015748031496062995,0.014763779527559057,
-0.015748031496062995,0.014763779527559057,
-0.015748031496062995,0.034448818897637797,
0*
4,1,3,
-0.025590551181102365,0.024606299212598427,
-0.0059055118110236228,0.024606299212598427,
-0.0059055118110236228,-0.024606299212598427,
-0.025590551181102365,-0.024606299212598427,
0*
4,1,3,
-0.015748031496062995,-0.034448818897637797,
-0.015748031496062995,-0.014763779527559057,
0.015748031496062995,-0.014763779527559057,
0.015748031496062995,-0.034448818897637797,
0*
4,1,3,
0.025590551181102365,-0.024606299212598427,
0.0059055118110236228,-0.024606299212598427,
0.0059055118110236228,0.024606299212598427,
0.025590551181102365,0.024606299212598427,
0*%
%ADD18COMP203,0.25X0.4X0.625X-0.4X0.625X-0.4X-0.625X0.4X-0.625X0*%
%AMCOMP210*
4,1,3,
-0.015748031496062995,-0.024606299212598427,
0.015748031496062995,-0.024606299212598427,
0.015748031496062995,0.024606299212598427,
-0.015748031496062995,0.024606299212598427,
0*
4,1,19,
-0.015748031496062995,-0.014763779527559057,
-0.012706525645915873,-0.015245506729378409,
-0.0099627435797984935,-0.016643533519931621,
-0.0077852658033961877,-0.018821011296333928,
-0.0063872390128429787,-0.021564793362451307,
-0.0059055118110236228,-0.024606299212598427,
-0.006387239012842977,-0.027647805062745546,
-0.0077852658033961877,-0.030391587128862925,
-0.0099627435797984918,-0.032569064905265233,
-0.012706525645915873,-0.033967091695818442,
-0.015748031496062992,-0.034448818897637797,
-0.018789537346210118,-0.033967091695818442,
-0.02153331941232749,-0.032569064905265233,
-0.0237107971887298,-0.030391587128862928,
-0.025108823979283011,-0.027647805062745546,
-0.025590551181102365,-0.024606299212598427,
-0.025108823979283011,-0.021564793362451307,
-0.0237107971887298,-0.018821011296333928,
-0.021533319412327497,-0.016643533519931621,
-0.018789537346210118,-0.015245506729378409,
0*
4,1,19,
0.015748031496062995,-0.014763779527559057,
0.018789537346210115,-0.015245506729378409,
0.02153331941232749,-0.016643533519931621,
0.0237107971887298,-0.018821011296333928,
0.025108823979283011,-0.021564793362451307,
0.025590551181102365,-0.024606299212598427,
0.025108823979283011,-0.027647805062745546,
0.0237107971887298,-0.030391587128862925,
0.021533319412327497,-0.032569064905265233,
0.018789537346210115,-0.033967091695818442,
0.015748031496062995,-0.034448818897637797,
0.012706525645915871,-0.033967091695818442,
0.009962743579798497,-0.032569064905265233,
0.0077852658033961885,-0.030391587128862928,
0.0063872390128429787,-0.027647805062745546,
0.0059055118110236228,-0.024606299212598427,
0.006387239012842977,-0.021564793362451307,
0.0077852658033961868,-0.018821011296333928,
0.0099627435797984918,-0.016643533519931621,
0.012706525645915871,-0.015245506729378409,
0*
4,1,19,
0.015748031496062995,0.034448818897637797,
0.018789537346210115,0.033967091695818442,
0.02153331941232749,0.032569064905265233,
0.0237107971887298,0.030391587128862928,
0.025108823979283011,0.027647805062745546,
0.025590551181102365,0.024606299212598427,
0.025108823979283011,0.021564793362451307,
0.0237107971887298,0.018821011296333928,
0.021533319412327497,0.016643533519931621,
0.018789537346210115,0.015245506729378409,
0.015748031496062995,0.014763779527559057,
0.012706525645915871,0.015245506729378409,
0.009962743579798497,0.016643533519931621,
0.0077852658033961885,0.018821011296333925,
0.0063872390128429787,0.021564793362451307,
0.0059055118110236228,0.024606299212598427,
0.006387239012842977,0.027647805062745546,
0.0077852658033961868,0.030391587128862925,
0.0099627435797984918,0.032569064905265233,
0.012706525645915871,0.033967091695818442,
0*
4,1,19,
-0.015748031496062995,0.034448818897637797,
-0.012706525645915873,0.033967091695818442,
-0.0099627435797984935,0.032569064905265233,
-0.0077852658033961877,0.030391587128862928,
-0.0063872390128429787,0.027647805062745546,
-0.0059055118110236228,0.024606299212598427,
-0.006387239012842977,0.021564793362451307,
-0.0077852658033961877,0.018821011296333928,
-0.0099627435797984918,0.016643533519931621,
-0.012706525645915873,0.015245506729378409,
-0.015748031496062992,0.014763779527559057,
-0.018789537346210118,0.015245506729378409,
-0.02153331941232749,0.016643533519931621,
-0.0237107971887298,0.018821011296333925,
-0.025108823979283011,0.021564793362451307,
-0.025590551181102365,0.024606299212598427,
-0.025108823979283011,0.027647805062745546,
-0.0237107971887298,0.030391587128862925,
-0.021533319412327497,0.032569064905265233,
-0.018789537346210118,0.033967091695818442,
0*
4,1,3,
-0.015748031496062995,-0.034448818897637797,
-0.015748031496062995,-0.014763779527559057,
0.015748031496062995,-0.014763779527559057,
0.015748031496062995,-0.034448818897637797,
0*
4,1,3,
0.025590551181102365,-0.024606299212598427,
0.0059055118110236228,-0.024606299212598427,
0.0059055118110236228,0.024606299212598427,
0.025590551181102365,0.024606299212598427,
0*
4,1,3,
0.015748031496062995,0.034448818897637797,
0.015748031496062995,0.014763779527559057,
-0.015748031496062995,0.014763779527559057,
-0.015748031496062995,0.034448818897637797,
0*
4,1,3,
-0.025590551181102365,0.024606299212598427,
-0.0059055118110236228,0.024606299212598427,
-0.0059055118110236228,-0.024606299212598427,
-0.025590551181102365,-0.024606299212598427,
0*%
%ADD19COMP210,0.25X-0.4X-0.625X0.4X-0.625X0.4X0.625X-0.4X0.625X0*%
%ADD20R,0.15748031496062992X0.13779527559055119*%
%AMCOMP217*
4,1,3,
-0.03937007874015748,0.03937007874015748,
-0.03937007874015748,-0.03937007874015748,
0.03937007874015748,-0.03937007874015748,
0.03937007874015748,0.03937007874015748,
0*
4,1,19,
-0.03937007874015748,0.07874015748031496,
-0.027204055339569,0.076813248673037543,
-0.016228927075099483,0.0712211415108247,
-0.0075190159694902585,0.062511230405215487,
-0.0019269088072774202,0.051536102140745964,
0,0.03937007874015748,
-0.0019269088072774157,0.027204055339569003,
-0.0075190159694902585,0.01622892707509949,
-0.016228927075099479,0.0075190159694902628,
-0.027204055339569,0.0019269088072774202,
-0.03937007874015748,0,
-0.051536102140745978,0.0019269088072774202,
-0.062511230405215473,0.0075190159694902541,
-0.0712211415108247,0.016228927075099479,
-0.076813248673037543,0.027204055339568996,
-0.07874015748031496,0.039370078740157473,
-0.076813248673037543,0.051536102140745957,
-0.0712211415108247,0.062511230405215473,
-0.062511230405215487,0.0712211415108247,
-0.051536102140745978,0.076813248673037543,
0*
4,1,19,
-0.03937007874015748,0,
-0.027204055339569,-0.0019269088072774202,
-0.016228927075099483,-0.0075190159694902585,
-0.0075190159694902585,-0.016228927075099483,
-0.0019269088072774202,-0.027204055339569,
0,-0.03937007874015748,
-0.0019269088072774157,-0.051536102140745964,
-0.0075190159694902585,-0.062511230405215473,
-0.016228927075099479,-0.0712211415108247,
-0.027204055339569,-0.076813248673037543,
-0.03937007874015748,-0.07874015748031496,
-0.051536102140745978,-0.076813248673037543,
-0.062511230405215473,-0.0712211415108247,
-0.0712211415108247,-0.062511230405215487,
-0.076813248673037543,-0.051536102140745964,
-0.07874015748031496,-0.039370078740157494,
-0.076813248673037543,-0.02720405533956901,
-0.0712211415108247,-0.016228927075099493,
-0.062511230405215487,-0.0075190159694902628,
-0.051536102140745978,-0.0019269088072774202,
0*
4,1,19,
0.03937007874015748,0,
0.051536102140745964,-0.0019269088072774202,
0.062511230405215487,-0.0075190159694902585,
0.0712211415108247,-0.016228927075099483,
0.076813248673037543,-0.027204055339569,
0.07874015748031496,-0.03937007874015748,
0.076813248673037543,-0.051536102140745964,
0.0712211415108247,-0.062511230405215473,
0.062511230405215487,-0.0712211415108247,
0.051536102140745964,-0.076813248673037543,
0.039370078740157494,-0.07874015748031496,
0.027204055339568992,-0.076813248673037543,
0.01622892707509949,-0.0712211415108247,
0.0075190159694902628,-0.062511230405215487,
0.0019269088072774202,-0.051536102140745964,
0,-0.039370078740157494,
0.0019269088072774157,-0.02720405533956901,
0.0075190159694902541,-0.016228927075099493,
0.016228927075099476,-0.0075190159694902628,
0.027204055339568992,-0.0019269088072774202,
0*
4,1,19,
0.03937007874015748,0.07874015748031496,
0.051536102140745964,0.076813248673037543,
0.062511230405215487,0.0712211415108247,
0.0712211415108247,0.062511230405215487,
0.076813248673037543,0.051536102140745964,
0.07874015748031496,0.03937007874015748,
0.076813248673037543,0.027204055339569003,
0.0712211415108247,0.01622892707509949,
0.062511230405215487,0.0075190159694902628,
0.051536102140745964,0.0019269088072774202,
0.039370078740157494,0,
0.027204055339568992,0.0019269088072774202,
0.01622892707509949,0.0075190159694902541,
0.0075190159694902628,0.016228927075099479,
0.0019269088072774202,0.027204055339568996,
0,0.039370078740157473,
0.0019269088072774157,0.051536102140745957,
0.0075190159694902541,0.062511230405215473,
0.016228927075099476,0.0712211415108247,
0.027204055339568992,0.076813248673037543,
0*
4,1,3,
-0.07874015748031496,0.03937007874015748,
0,0.03937007874015748,
0,-0.03937007874015748,
-0.07874015748031496,-0.03937007874015748,
0*
4,1,3,
-0.03937007874015748,-0.07874015748031496,
-0.03937007874015748,0,
0.03937007874015748,0,
0.03937007874015748,-0.07874015748031496,
0*
4,1,3,
0.07874015748031496,-0.03937007874015748,
0,-0.03937007874015748,
0,0.03937007874015748,
0.07874015748031496,0.03937007874015748,
0*
4,1,3,
0.03937007874015748,0.07874015748031496,
0.03937007874015748,0,
-0.03937007874015748,0,
-0.03937007874015748,0.07874015748031496,
0*%
%ADD21COMP217,1X-1X1X-1X-1X1X-1X1X1X0*%
%AMCOMP224*
4,1,3,
-0.04429133858267717,0.034448818897637797,
-0.04429133858267717,-0.034448818897637797,
0.04429133858267717,-0.034448818897637797,
0.04429133858267717,0.034448818897637797,
0*
4,1,19,
-0.04429133858267717,0.068897637795275593,
-0.033646068107162252,0.067211592588907854,
-0.02404283087575142,0.062318498821971623,
-0.016421658658343347,0.054697326604563543,
-0.011528564891407115,0.045094089373152721,
-0.00984251968503937,0.034448818897637797,
-0.011528564891407109,0.023803548422122879,
-0.016421658658343347,0.014200311190712054,
-0.024042830875751417,0.00657913897330398,
-0.033646068107162239,0.0016860452063677432,
-0.04429133858267717,0,
-0.054936609058192094,0.0016860452063677432,
-0.064539846289602909,0.0065791389733039713,
-0.072161018507010982,0.014200311190712045,
-0.07705411227394722,0.023803548422122869,
-0.07874015748031496,0.03444881889763779,
-0.07705411227394722,0.045094089373152707,
-0.072161018507011,0.054697326604563536,
-0.064539846289602923,0.062318498821971616,
-0.054936609058192094,0.067211592588907854,
0*
4,1,19,
-0.04429133858267717,0,
-0.033646068107162252,-0.0016860452063677432,
-0.02404283087575142,-0.0065791389733039756,
-0.016421658658343347,-0.014200311190712049,
-0.011528564891407115,-0.023803548422122876,
-0.00984251968503937,-0.034448818897637797,
-0.011528564891407109,-0.045094089373152714,
-0.016421658658343347,-0.054697326604563536,
-0.024042830875751417,-0.062318498821971616,
-0.033646068107162239,-0.067211592588907854,
-0.04429133858267717,-0.068897637795275593,
-0.054936609058192094,-0.067211592588907854,
-0.064539846289602909,-0.062318498821971623,
-0.072161018507010982,-0.054697326604563556,
-0.07705411227394722,-0.045094089373152721,
-0.07874015748031496,-0.0344488188976378,
-0.07705411227394722,-0.023803548422122883,
-0.072161018507011,-0.014200311190712057,
-0.064539846289602923,-0.00657913897330398,
-0.054936609058192094,-0.0016860452063677432,
0*
4,1,19,
0.04429133858267717,0,
0.054936609058192087,-0.0016860452063677432,
0.064539846289602909,-0.0065791389733039756,
0.072161018507011,-0.014200311190712049,
0.07705411227394722,-0.023803548422122876,
0.07874015748031496,-0.034448818897637797,
0.07705411227394722,-0.045094089373152714,
0.072161018507011,-0.054697326604563536,
0.064539846289602923,-0.062318498821971616,
0.054936609058192094,-0.067211592588907854,
0.04429133858267717,-0.068897637795275593,
0.033646068107162239,-0.067211592588907854,
0.024042830875751424,-0.062318498821971623,
0.016421658658343351,-0.054697326604563556,
0.011528564891407115,-0.045094089373152721,
0.00984251968503937,-0.0344488188976378,
0.011528564891407109,-0.023803548422122883,
0.016421658658343344,-0.014200311190712057,
0.02404283087575141,-0.00657913897330398,
0.033646068107162239,-0.0016860452063677432,
0*
4,1,19,
0.04429133858267717,0.068897637795275593,
0.054936609058192087,0.067211592588907854,
0.064539846289602909,0.062318498821971623,
0.072161018507011,0.054697326604563543,
0.07705411227394722,0.045094089373152721,
0.07874015748031496,0.034448818897637797,
0.07705411227394722,0.023803548422122879,
0.072161018507011,0.014200311190712054,
0.064539846289602923,0.00657913897330398,
0.054936609058192094,0.0016860452063677432,
0.04429133858267717,0,
0.033646068107162239,0.0016860452063677432,
0.024042830875751424,0.0065791389733039713,
0.016421658658343351,0.014200311190712045,
0.011528564891407115,0.023803548422122869,
0.00984251968503937,0.03444881889763779,
0.011528564891407109,0.045094089373152707,
0.016421658658343344,0.054697326604563536,
0.02404283087575141,0.062318498821971616,
0.033646068107162239,0.067211592588907854,
0*
4,1,3,
-0.07874015748031496,0.034448818897637797,
-0.00984251968503937,0.034448818897637797,
-0.00984251968503937,-0.034448818897637797,
-0.07874015748031496,-0.034448818897637797,
0*
4,1,3,
-0.04429133858267717,-0.068897637795275593,
-0.04429133858267717,0,
0.04429133858267717,0,
0.04429133858267717,-0.068897637795275593,
0*
4,1,3,
0.07874015748031496,-0.034448818897637797,
0.00984251968503937,-0.034448818897637797,
0.00984251968503937,0.034448818897637797,
0.07874015748031496,0.034448818897637797,
0*
4,1,3,
0.04429133858267717,0.068897637795275593,
0.04429133858267717,0,
-0.04429133858267717,0,
-0.04429133858267717,0.068897637795275593,
0*%
%ADD22COMP224,0.875X-1.125X0.875X-1.125X-0.875X1.125X-0.875X1.125X0.875X0*%
%ADD23C,0.062992125984251982*%
%ADD24R,0.1X0.1*%
%ADD25C,0.1*%
%ADD36R,0.043307086614173235X0.043307086614173235*%
%ADD37R,0.070866141732283464X0.070866141732283464*%
%ADD38C,0.070866141732283464*%
%ADD39C,0.11811023622047245*%
%ADD40C,0.22047244094488189*%
%ADD41R,0.066929133858267723X0.066929133858267723*%
%ADD42O,0.066929133858267723X0.066929133858267723*%
%ADD43R,0.03937007874015748X0.027559055118110236*%
%AMCOMP230*
4,1,3,
0.015748031496062995,0.024606299212598427,
-0.015748031496062995,0.024606299212598427,
-0.015748031496062995,-0.024606299212598427,
0.015748031496062995,-0.024606299212598427,
0*
4,1,19,
0.015748031496062995,0.034448818897637797,
0.018789537346210115,0.033967091695818442,
0.02153331941232749,0.032569064905265233,
0.0237107971887298,0.030391587128862928,
0.025108823979283011,0.027647805062745546,
0.025590551181102365,0.024606299212598427,
0.025108823979283011,0.021564793362451307,
0.0237107971887298,0.018821011296333928,
0.021533319412327497,0.016643533519931621,
0.018789537346210115,0.015245506729378409,
0.015748031496062995,0.014763779527559057,
0.012706525645915871,0.015245506729378409,
0.009962743579798497,0.016643533519931621,
0.0077852658033961885,0.018821011296333925,
0.0063872390128429787,0.021564793362451307,
0.0059055118110236228,0.024606299212598427,
0.006387239012842977,0.027647805062745546,
0.0077852658033961868,0.030391587128862925,
0.0099627435797984918,0.032569064905265233,
0.012706525645915871,0.033967091695818442,
0*
4,1,19,
-0.015748031496062995,0.034448818897637797,
-0.012706525645915873,0.033967091695818442,
-0.0099627435797984935,0.032569064905265233,
-0.0077852658033961877,0.030391587128862928,
-0.0063872390128429787,0.027647805062745546,
-0.0059055118110236228,0.024606299212598427,
-0.006387239012842977,0.021564793362451307,
-0.0077852658033961877,0.018821011296333928,
-0.0099627435797984918,0.016643533519931621,
-0.012706525645915873,0.015245506729378409,
-0.015748031496062992,0.014763779527559057,
-0.018789537346210118,0.015245506729378409,
-0.02153331941232749,0.016643533519931621,
-0.0237107971887298,0.018821011296333925,
-0.025108823979283011,0.021564793362451307,
-0.025590551181102365,0.024606299212598427,
-0.025108823979283011,0.027647805062745546,
-0.0237107971887298,0.030391587128862925,
-0.021533319412327497,0.032569064905265233,
-0.018789537346210118,0.033967091695818442,
0*
4,1,19,
-0.015748031496062995,-0.014763779527559057,
-0.012706525645915873,-0.015245506729378409,
-0.0099627435797984935,-0.016643533519931621,
-0.0077852658033961877,-0.018821011296333928,
-0.0063872390128429787,-0.021564793362451307,
-0.0059055118110236228,-0.024606299212598427,
-0.006387239012842977,-0.027647805062745546,
-0.0077852658033961877,-0.030391587128862925,
-0.0099627435797984918,-0.032569064905265233,
-0.012706525645915873,-0.033967091695818442,
-0.015748031496062992,-0.034448818897637797,
-0.018789537346210118,-0.033967091695818442,
-0.02153331941232749,-0.032569064905265233,
-0.0237107971887298,-0.030391587128862928,
-0.025108823979283011,-0.027647805062745546,
-0.025590551181102365,-0.024606299212598427,
-0.025108823979283011,-0.021564793362451307,
-0.0237107971887298,-0.018821011296333928,
-0.021533319412327497,-0.016643533519931621,
-0.018789537346210118,-0.015245506729378409,
0*
4,1,19,
0.015748031496062995,-0.014763779527559057,
0.018789537346210115,-0.015245506729378409,
0.02153331941232749,-0.016643533519931621,
0.0237107971887298,-0.018821011296333928,
0.025108823979283011,-0.021564793362451307,
0.025590551181102365,-0.024606299212598427,
0.025108823979283011,-0.027647805062745546,
0.0237107971887298,-0.030391587128862925,
0.021533319412327497,-0.032569064905265233,
0.018789537346210115,-0.033967091695818442,
0.015748031496062995,-0.034448818897637797,
0.012706525645915871,-0.033967091695818442,
0.009962743579798497,-0.032569064905265233,
0.0077852658033961885,-0.030391587128862928,
0.0063872390128429787,-0.027647805062745546,
0.0059055118110236228,-0.024606299212598427,
0.006387239012842977,-0.021564793362451307,
0.0077852658033961868,-0.018821011296333928,
0.0099627435797984918,-0.016643533519931621,
0.012706525645915871,-0.015245506729378409,
0*
4,1,3,
0.015748031496062995,0.034448818897637797,
0.015748031496062995,0.014763779527559057,
-0.015748031496062995,0.014763779527559057,
-0.015748031496062995,0.034448818897637797,
0*
4,1,3,
-0.025590551181102365,0.024606299212598427,
-0.0059055118110236228,0.024606299212598427,
-0.0059055118110236228,-0.024606299212598427,
-0.025590551181102365,-0.024606299212598427,
0*
4,1,3,
-0.015748031496062995,-0.034448818897637797,
-0.015748031496062995,-0.014763779527559057,
0.015748031496062995,-0.014763779527559057,
0.015748031496062995,-0.034448818897637797,
0*
4,1,3,
0.025590551181102365,-0.024606299212598427,
0.0059055118110236228,-0.024606299212598427,
0.0059055118110236228,0.024606299212598427,
0.025590551181102365,0.024606299212598427,
0*%
%ADD44COMP230,0.25X0.4X0.625X-0.4X0.625X-0.4X-0.625X0.4X-0.625X0*%
%AMCOMP234*
4,1,3,
-0.015748031496062995,-0.024606299212598427,
0.015748031496062995,-0.024606299212598427,
0.015748031496062995,0.024606299212598427,
-0.015748031496062995,0.024606299212598427,
0*
4,1,19,
-0.015748031496062995,-0.014763779527559057,
-0.012706525645915873,-0.015245506729378409,
-0.0099627435797984935,-0.016643533519931621,
-0.0077852658033961877,-0.018821011296333928,
-0.0063872390128429787,-0.021564793362451307,
-0.0059055118110236228,-0.024606299212598427,
-0.006387239012842977,-0.027647805062745546,
-0.0077852658033961877,-0.030391587128862925,
-0.0099627435797984918,-0.032569064905265233,
-0.012706525645915873,-0.033967091695818442,
-0.015748031496062992,-0.034448818897637797,
-0.018789537346210118,-0.033967091695818442,
-0.02153331941232749,-0.032569064905265233,
-0.0237107971887298,-0.030391587128862928,
-0.025108823979283011,-0.027647805062745546,
-0.025590551181102365,-0.024606299212598427,
-0.025108823979283011,-0.021564793362451307,
-0.0237107971887298,-0.018821011296333928,
-0.021533319412327497,-0.016643533519931621,
-0.018789537346210118,-0.015245506729378409,
0*
4,1,19,
0.015748031496062995,-0.014763779527559057,
0.018789537346210115,-0.015245506729378409,
0.02153331941232749,-0.016643533519931621,
0.0237107971887298,-0.018821011296333928,
0.025108823979283011,-0.021564793362451307,
0.025590551181102365,-0.024606299212598427,
0.025108823979283011,-0.027647805062745546,
0.0237107971887298,-0.030391587128862925,
0.021533319412327497,-0.032569064905265233,
0.018789537346210115,-0.033967091695818442,
0.015748031496062995,-0.034448818897637797,
0.012706525645915871,-0.033967091695818442,
0.009962743579798497,-0.032569064905265233,
0.0077852658033961885,-0.030391587128862928,
0.0063872390128429787,-0.027647805062745546,
0.0059055118110236228,-0.024606299212598427,
0.006387239012842977,-0.021564793362451307,
0.0077852658033961868,-0.018821011296333928,
0.0099627435797984918,-0.016643533519931621,
0.012706525645915871,-0.015245506729378409,
0*
4,1,19,
0.015748031496062995,0.034448818897637797,
0.018789537346210115,0.033967091695818442,
0.02153331941232749,0.032569064905265233,
0.0237107971887298,0.030391587128862928,
0.025108823979283011,0.027647805062745546,
0.025590551181102365,0.024606299212598427,
0.025108823979283011,0.021564793362451307,
0.0237107971887298,0.018821011296333928,
0.021533319412327497,0.016643533519931621,
0.018789537346210115,0.015245506729378409,
0.015748031496062995,0.014763779527559057,
0.012706525645915871,0.015245506729378409,
0.009962743579798497,0.016643533519931621,
0.0077852658033961885,0.018821011296333925,
0.0063872390128429787,0.021564793362451307,
0.0059055118110236228,0.024606299212598427,
0.006387239012842977,0.027647805062745546,
0.0077852658033961868,0.030391587128862925,
0.0099627435797984918,0.032569064905265233,
0.012706525645915871,0.033967091695818442,
0*
4,1,19,
-0.015748031496062995,0.034448818897637797,
-0.012706525645915873,0.033967091695818442,
-0.0099627435797984935,0.032569064905265233,
-0.0077852658033961877,0.030391587128862928,
-0.0063872390128429787,0.027647805062745546,
-0.0059055118110236228,0.024606299212598427,
-0.006387239012842977,0.021564793362451307,
-0.0077852658033961877,0.018821011296333928,
-0.0099627435797984918,0.016643533519931621,
-0.012706525645915873,0.015245506729378409,
-0.015748031496062992,0.014763779527559057,
-0.018789537346210118,0.015245506729378409,
-0.02153331941232749,0.016643533519931621,
-0.0237107971887298,0.018821011296333925,
-0.025108823979283011,0.021564793362451307,
-0.025590551181102365,0.024606299212598427,
-0.025108823979283011,0.027647805062745546,
-0.0237107971887298,0.030391587128862925,
-0.021533319412327497,0.032569064905265233,
-0.018789537346210118,0.033967091695818442,
0*
4,1,3,
-0.015748031496062995,-0.034448818897637797,
-0.015748031496062995,-0.014763779527559057,
0.015748031496062995,-0.014763779527559057,
0.015748031496062995,-0.034448818897637797,
0*
4,1,3,
0.025590551181102365,-0.024606299212598427,
0.0059055118110236228,-0.024606299212598427,
0.0059055118110236228,0.024606299212598427,
0.025590551181102365,0.024606299212598427,
0*
4,1,3,
0.015748031496062995,0.034448818897637797,
0.015748031496062995,0.014763779527559057,
-0.015748031496062995,0.014763779527559057,
-0.015748031496062995,0.034448818897637797,
0*
4,1,3,
-0.025590551181102365,0.024606299212598427,
-0.0059055118110236228,0.024606299212598427,
-0.0059055118110236228,-0.024606299212598427,
-0.025590551181102365,-0.024606299212598427,
0*%
%ADD45COMP234,0.25X-0.4X-0.625X0.4X-0.625X0.4X0.625X-0.4X0.625X0*%
%ADD46R,0.15748031496062992X0.13779527559055119*%
%AMCOMP238*
4,1,3,
-0.03937007874015748,0.03937007874015748,
-0.03937007874015748,-0.03937007874015748,
0.03937007874015748,-0.03937007874015748,
0.03937007874015748,0.03937007874015748,
0*
4,1,19,
-0.03937007874015748,0.07874015748031496,
-0.027204055339569,0.076813248673037543,
-0.016228927075099483,0.0712211415108247,
-0.0075190159694902585,0.062511230405215487,
-0.0019269088072774202,0.051536102140745964,
0,0.03937007874015748,
-0.0019269088072774157,0.027204055339569003,
-0.0075190159694902585,0.01622892707509949,
-0.016228927075099479,0.0075190159694902628,
-0.027204055339569,0.0019269088072774202,
-0.03937007874015748,0,
-0.051536102140745978,0.0019269088072774202,
-0.062511230405215473,0.0075190159694902541,
-0.0712211415108247,0.016228927075099479,
-0.076813248673037543,0.027204055339568996,
-0.07874015748031496,0.039370078740157473,
-0.076813248673037543,0.051536102140745957,
-0.0712211415108247,0.062511230405215473,
-0.062511230405215487,0.0712211415108247,
-0.051536102140745978,0.076813248673037543,
0*
4,1,19,
-0.03937007874015748,0,
-0.027204055339569,-0.0019269088072774202,
-0.016228927075099483,-0.0075190159694902585,
-0.0075190159694902585,-0.016228927075099483,
-0.0019269088072774202,-0.027204055339569,
0,-0.03937007874015748,
-0.0019269088072774157,-0.051536102140745964,
-0.0075190159694902585,-0.062511230405215473,
-0.016228927075099479,-0.0712211415108247,
-0.027204055339569,-0.076813248673037543,
-0.03937007874015748,-0.07874015748031496,
-0.051536102140745978,-0.076813248673037543,
-0.062511230405215473,-0.0712211415108247,
-0.0712211415108247,-0.062511230405215487,
-0.076813248673037543,-0.051536102140745964,
-0.07874015748031496,-0.039370078740157494,
-0.076813248673037543,-0.02720405533956901,
-0.0712211415108247,-0.016228927075099493,
-0.062511230405215487,-0.0075190159694902628,
-0.051536102140745978,-0.0019269088072774202,
0*
4,1,19,
0.03937007874015748,0,
0.051536102140745964,-0.0019269088072774202,
0.062511230405215487,-0.0075190159694902585,
0.0712211415108247,-0.016228927075099483,
0.076813248673037543,-0.027204055339569,
0.07874015748031496,-0.03937007874015748,
0.076813248673037543,-0.051536102140745964,
0.0712211415108247,-0.062511230405215473,
0.062511230405215487,-0.0712211415108247,
0.051536102140745964,-0.076813248673037543,
0.039370078740157494,-0.07874015748031496,
0.027204055339568992,-0.076813248673037543,
0.01622892707509949,-0.0712211415108247,
0.0075190159694902628,-0.062511230405215487,
0.0019269088072774202,-0.051536102140745964,
0,-0.039370078740157494,
0.0019269088072774157,-0.02720405533956901,
0.0075190159694902541,-0.016228927075099493,
0.016228927075099476,-0.0075190159694902628,
0.027204055339568992,-0.0019269088072774202,
0*
4,1,19,
0.03937007874015748,0.07874015748031496,
0.051536102140745964,0.076813248673037543,
0.062511230405215487,0.0712211415108247,
0.0712211415108247,0.062511230405215487,
0.076813248673037543,0.051536102140745964,
0.07874015748031496,0.03937007874015748,
0.076813248673037543,0.027204055339569003,
0.0712211415108247,0.01622892707509949,
0.062511230405215487,0.0075190159694902628,
0.051536102140745964,0.0019269088072774202,
0.039370078740157494,0,
0.027204055339568992,0.0019269088072774202,
0.01622892707509949,0.0075190159694902541,
0.0075190159694902628,0.016228927075099479,
0.0019269088072774202,0.027204055339568996,
0,0.039370078740157473,
0.0019269088072774157,0.051536102140745957,
0.0075190159694902541,0.062511230405215473,
0.016228927075099476,0.0712211415108247,
0.027204055339568992,0.076813248673037543,
0*
4,1,3,
-0.07874015748031496,0.03937007874015748,
0,0.03937007874015748,
0,-0.03937007874015748,
-0.07874015748031496,-0.03937007874015748,
0*
4,1,3,
-0.03937007874015748,-0.07874015748031496,
-0.03937007874015748,0,
0.03937007874015748,0,
0.03937007874015748,-0.07874015748031496,
0*
4,1,3,
0.07874015748031496,-0.03937007874015748,
0,-0.03937007874015748,
0,0.03937007874015748,
0.07874015748031496,0.03937007874015748,
0*
4,1,3,
0.03937007874015748,0.07874015748031496,
0.03937007874015748,0,
-0.03937007874015748,0,
-0.03937007874015748,0.07874015748031496,
0*%
%ADD47COMP238,1X-1X1X-1X-1X1X-1X1X1X0*%
%AMCOMP241*
4,1,3,
-0.04429133858267717,0.034448818897637797,
-0.04429133858267717,-0.034448818897637797,
0.04429133858267717,-0.034448818897637797,
0.04429133858267717,0.034448818897637797,
0*
4,1,19,
-0.04429133858267717,0.068897637795275593,
-0.033646068107162252,0.067211592588907854,
-0.02404283087575142,0.062318498821971623,
-0.016421658658343347,0.054697326604563543,
-0.011528564891407115,0.045094089373152721,
-0.00984251968503937,0.034448818897637797,
-0.011528564891407109,0.023803548422122879,
-0.016421658658343347,0.014200311190712054,
-0.024042830875751417,0.00657913897330398,
-0.033646068107162239,0.0016860452063677432,
-0.04429133858267717,0,
-0.054936609058192094,0.0016860452063677432,
-0.064539846289602909,0.0065791389733039713,
-0.072161018507010982,0.014200311190712045,
-0.07705411227394722,0.023803548422122869,
-0.07874015748031496,0.03444881889763779,
-0.07705411227394722,0.045094089373152707,
-0.072161018507011,0.054697326604563536,
-0.064539846289602923,0.062318498821971616,
-0.054936609058192094,0.067211592588907854,
0*
4,1,19,
-0.04429133858267717,0,
-0.033646068107162252,-0.0016860452063677432,
-0.02404283087575142,-0.0065791389733039756,
-0.016421658658343347,-0.014200311190712049,
-0.011528564891407115,-0.023803548422122876,
-0.00984251968503937,-0.034448818897637797,
-0.011528564891407109,-0.045094089373152714,
-0.016421658658343347,-0.054697326604563536,
-0.024042830875751417,-0.062318498821971616,
-0.033646068107162239,-0.067211592588907854,
-0.04429133858267717,-0.068897637795275593,
-0.054936609058192094,-0.067211592588907854,
-0.064539846289602909,-0.062318498821971623,
-0.072161018507010982,-0.054697326604563556,
-0.07705411227394722,-0.045094089373152721,
-0.07874015748031496,-0.0344488188976378,
-0.07705411227394722,-0.023803548422122883,
-0.072161018507011,-0.014200311190712057,
-0.064539846289602923,-0.00657913897330398,
-0.054936609058192094,-0.0016860452063677432,
0*
4,1,19,
0.04429133858267717,0,
0.054936609058192087,-0.0016860452063677432,
0.064539846289602909,-0.0065791389733039756,
0.072161018507011,-0.014200311190712049,
0.07705411227394722,-0.023803548422122876,
0.07874015748031496,-0.034448818897637797,
0.07705411227394722,-0.045094089373152714,
0.072161018507011,-0.054697326604563536,
0.064539846289602923,-0.062318498821971616,
0.054936609058192094,-0.067211592588907854,
0.04429133858267717,-0.068897637795275593,
0.033646068107162239,-0.067211592588907854,
0.024042830875751424,-0.062318498821971623,
0.016421658658343351,-0.054697326604563556,
0.011528564891407115,-0.045094089373152721,
0.00984251968503937,-0.0344488188976378,
0.011528564891407109,-0.023803548422122883,
0.016421658658343344,-0.014200311190712057,
0.02404283087575141,-0.00657913897330398,
0.033646068107162239,-0.0016860452063677432,
0*
4,1,19,
0.04429133858267717,0.068897637795275593,
0.054936609058192087,0.067211592588907854,
0.064539846289602909,0.062318498821971623,
0.072161018507011,0.054697326604563543,
0.07705411227394722,0.045094089373152721,
0.07874015748031496,0.034448818897637797,
0.07705411227394722,0.023803548422122879,
0.072161018507011,0.014200311190712054,
0.064539846289602923,0.00657913897330398,
0.054936609058192094,0.0016860452063677432,
0.04429133858267717,0,
0.033646068107162239,0.0016860452063677432,
0.024042830875751424,0.0065791389733039713,
0.016421658658343351,0.014200311190712045,
0.011528564891407115,0.023803548422122869,
0.00984251968503937,0.03444881889763779,
0.011528564891407109,0.045094089373152707,
0.016421658658343344,0.054697326604563536,
0.02404283087575141,0.062318498821971616,
0.033646068107162239,0.067211592588907854,
0*
4,1,3,
-0.07874015748031496,0.034448818897637797,
-0.00984251968503937,0.034448818897637797,
-0.00984251968503937,-0.034448818897637797,
-0.07874015748031496,-0.034448818897637797,
0*
4,1,3,
-0.04429133858267717,-0.068897637795275593,
-0.04429133858267717,0,
0.04429133858267717,0,
0.04429133858267717,-0.068897637795275593,
0*
4,1,3,
0.07874015748031496,-0.034448818897637797,
0.00984251968503937,-0.034448818897637797,
0.00984251968503937,0.034448818897637797,
0.07874015748031496,0.034448818897637797,
0*
4,1,3,
0.04429133858267717,0.068897637795275593,
0.04429133858267717,0,
-0.04429133858267717,0,
-0.04429133858267717,0.068897637795275593,
0*%
%ADD48COMP241,0.875X-1.125X0.875X-1.125X-0.875X1.125X-0.875X1.125X0.875X0*%
%ADD49C,0.062992125984251982*%
%ADD50R,0.1X0.1*%
%ADD51C,0.1*%
%ADD52R,0.043307086614173235X0.043307086614173235*%
%ADD53C,0.22047244094488189*%
%ADD54R,0.066929133858267723X0.066929133858267723*%
%ADD55O,0.066929133858267723X0.066929133858267723*%
%ADD56R,0.074803149606299218X0.031496062992125991*%
%ADD57R,0.11811023622047245X0.11811023622047245*%
%ADD58C,0.11811023622047245*%
%AMCOMP244*
4,1,3,
-0.015748031496062995,-0.024606299212598427,
0.015748031496062995,-0.024606299212598427,
0.015748031496062995,0.024606299212598427,
-0.015748031496062995,0.024606299212598427,
0*
4,1,19,
-0.015748031496062995,-0.014763779527559057,
-0.012706525645915873,-0.015245506729378409,
-0.0099627435797984935,-0.016643533519931621,
-0.0077852658033961877,-0.018821011296333928,
-0.0063872390128429787,-0.021564793362451307,
-0.0059055118110236228,-0.024606299212598427,
-0.006387239012842977,-0.027647805062745546,
-0.0077852658033961877,-0.030391587128862925,
-0.0099627435797984918,-0.032569064905265233,
-0.012706525645915873,-0.033967091695818442,
-0.015748031496062992,-0.034448818897637797,
-0.018789537346210118,-0.033967091695818442,
-0.02153331941232749,-0.032569064905265233,
-0.0237107971887298,-0.030391587128862928,
-0.025108823979283011,-0.027647805062745546,
-0.025590551181102365,-0.024606299212598427,
-0.025108823979283011,-0.021564793362451307,
-0.0237107971887298,-0.018821011296333928,
-0.021533319412327497,-0.016643533519931621,
-0.018789537346210118,-0.015245506729378409,
0*
4,1,19,
0.015748031496062995,-0.014763779527559057,
0.018789537346210115,-0.015245506729378409,
0.02153331941232749,-0.016643533519931621,
0.0237107971887298,-0.018821011296333928,
0.025108823979283011,-0.021564793362451307,
0.025590551181102365,-0.024606299212598427,
0.025108823979283011,-0.027647805062745546,
0.0237107971887298,-0.030391587128862925,
0.021533319412327497,-0.032569064905265233,
0.018789537346210115,-0.033967091695818442,
0.015748031496062995,-0.034448818897637797,
0.012706525645915871,-0.033967091695818442,
0.009962743579798497,-0.032569064905265233,
0.0077852658033961885,-0.030391587128862928,
0.0063872390128429787,-0.027647805062745546,
0.0059055118110236228,-0.024606299212598427,
0.006387239012842977,-0.021564793362451307,
0.0077852658033961868,-0.018821011296333928,
0.0099627435797984918,-0.016643533519931621,
0.012706525645915871,-0.015245506729378409,
0*
4,1,19,
0.015748031496062995,0.034448818897637797,
0.018789537346210115,0.033967091695818442,
0.02153331941232749,0.032569064905265233,
0.0237107971887298,0.030391587128862928,
0.025108823979283011,0.027647805062745546,
0.025590551181102365,0.024606299212598427,
0.025108823979283011,0.021564793362451307,
0.0237107971887298,0.018821011296333928,
0.021533319412327497,0.016643533519931621,
0.018789537346210115,0.015245506729378409,
0.015748031496062995,0.014763779527559057,
0.012706525645915871,0.015245506729378409,
0.009962743579798497,0.016643533519931621,
0.0077852658033961885,0.018821011296333925,
0.0063872390128429787,0.021564793362451307,
0.0059055118110236228,0.024606299212598427,
0.006387239012842977,0.027647805062745546,
0.0077852658033961868,0.030391587128862925,
0.0099627435797984918,0.032569064905265233,
0.012706525645915871,0.033967091695818442,
0*
4,1,19,
-0.015748031496062995,0.034448818897637797,
-0.012706525645915873,0.033967091695818442,
-0.0099627435797984935,0.032569064905265233,
-0.0077852658033961877,0.030391587128862928,
-0.0063872390128429787,0.027647805062745546,
-0.0059055118110236228,0.024606299212598427,
-0.006387239012842977,0.021564793362451307,
-0.0077852658033961877,0.018821011296333928,
-0.0099627435797984918,0.016643533519931621,
-0.012706525645915873,0.015245506729378409,
-0.015748031496062992,0.014763779527559057,
-0.018789537346210118,0.015245506729378409,
-0.02153331941232749,0.016643533519931621,
-0.0237107971887298,0.018821011296333925,
-0.025108823979283011,0.021564793362451307,
-0.025590551181102365,0.024606299212598427,
-0.025108823979283011,0.027647805062745546,
-0.0237107971887298,0.030391587128862925,
-0.021533319412327497,0.032569064905265233,
-0.018789537346210118,0.033967091695818442,
0*
4,1,3,
-0.015748031496062995,-0.034448818897637797,
-0.015748031496062995,-0.014763779527559057,
0.015748031496062995,-0.014763779527559057,
0.015748031496062995,-0.034448818897637797,
0*
4,1,3,
0.025590551181102365,-0.024606299212598427,
0.0059055118110236228,-0.024606299212598427,
0.0059055118110236228,0.024606299212598427,
0.025590551181102365,0.024606299212598427,
0*
4,1,3,
0.015748031496062995,0.034448818897637797,
0.015748031496062995,0.014763779527559057,
-0.015748031496062995,0.014763779527559057,
-0.015748031496062995,0.034448818897637797,
0*
4,1,3,
-0.025590551181102365,0.024606299212598427,
-0.0059055118110236228,0.024606299212598427,
-0.0059055118110236228,-0.024606299212598427,
-0.025590551181102365,-0.024606299212598427,
0*%
%ADD59COMP244,0.25X-0.4X-0.625X0.4X-0.625X0.4X0.625X-0.4X0.625X0*%
%AMCOMP247*
4,1,3,
0.015748031496062995,0.024606299212598427,
-0.015748031496062995,0.024606299212598427,
-0.015748031496062995,-0.024606299212598427,
0.015748031496062995,-0.024606299212598427,
0*
4,1,19,
0.015748031496062995,0.034448818897637797,
0.018789537346210115,0.033967091695818442,
0.02153331941232749,0.032569064905265233,
0.0237107971887298,0.030391587128862928,
0.025108823979283011,0.027647805062745546,
0.025590551181102365,0.024606299212598427,
0.025108823979283011,0.021564793362451307,
0.0237107971887298,0.018821011296333928,
0.021533319412327497,0.016643533519931621,
0.018789537346210115,0.015245506729378409,
0.015748031496062995,0.014763779527559057,
0.012706525645915871,0.015245506729378409,
0.009962743579798497,0.016643533519931621,
0.0077852658033961885,0.018821011296333925,
0.0063872390128429787,0.021564793362451307,
0.0059055118110236228,0.024606299212598427,
0.006387239012842977,0.027647805062745546,
0.0077852658033961868,0.030391587128862925,
0.0099627435797984918,0.032569064905265233,
0.012706525645915871,0.033967091695818442,
0*
4,1,19,
-0.015748031496062995,0.034448818897637797,
-0.012706525645915873,0.033967091695818442,
-0.0099627435797984935,0.032569064905265233,
-0.0077852658033961877,0.030391587128862928,
-0.0063872390128429787,0.027647805062745546,
-0.0059055118110236228,0.024606299212598427,
-0.006387239012842977,0.021564793362451307,
-0.0077852658033961877,0.018821011296333928,
-0.0099627435797984918,0.016643533519931621,
-0.012706525645915873,0.015245506729378409,
-0.015748031496062992,0.014763779527559057,
-0.018789537346210118,0.015245506729378409,
-0.02153331941232749,0.016643533519931621,
-0.0237107971887298,0.018821011296333925,
-0.025108823979283011,0.021564793362451307,
-0.025590551181102365,0.024606299212598427,
-0.025108823979283011,0.027647805062745546,
-0.0237107971887298,0.030391587128862925,
-0.021533319412327497,0.032569064905265233,
-0.018789537346210118,0.033967091695818442,
0*
4,1,19,
-0.015748031496062995,-0.014763779527559057,
-0.012706525645915873,-0.015245506729378409,
-0.0099627435797984935,-0.016643533519931621,
-0.0077852658033961877,-0.018821011296333928,
-0.0063872390128429787,-0.021564793362451307,
-0.0059055118110236228,-0.024606299212598427,
-0.006387239012842977,-0.027647805062745546,
-0.0077852658033961877,-0.030391587128862925,
-0.0099627435797984918,-0.032569064905265233,
-0.012706525645915873,-0.033967091695818442,
-0.015748031496062992,-0.034448818897637797,
-0.018789537346210118,-0.033967091695818442,
-0.02153331941232749,-0.032569064905265233,
-0.0237107971887298,-0.030391587128862928,
-0.025108823979283011,-0.027647805062745546,
-0.025590551181102365,-0.024606299212598427,
-0.025108823979283011,-0.021564793362451307,
-0.0237107971887298,-0.018821011296333928,
-0.021533319412327497,-0.016643533519931621,
-0.018789537346210118,-0.015245506729378409,
0*
4,1,19,
0.015748031496062995,-0.014763779527559057,
0.018789537346210115,-0.015245506729378409,
0.02153331941232749,-0.016643533519931621,
0.0237107971887298,-0.018821011296333928,
0.025108823979283011,-0.021564793362451307,
0.025590551181102365,-0.024606299212598427,
0.025108823979283011,-0.027647805062745546,
0.0237107971887298,-0.030391587128862925,
0.021533319412327497,-0.032569064905265233,
0.018789537346210115,-0.033967091695818442,
0.015748031496062995,-0.034448818897637797,
0.012706525645915871,-0.033967091695818442,
0.009962743579798497,-0.032569064905265233,
0.0077852658033961885,-0.030391587128862928,
0.0063872390128429787,-0.027647805062745546,
0.0059055118110236228,-0.024606299212598427,
0.006387239012842977,-0.021564793362451307,
0.0077852658033961868,-0.018821011296333928,
0.0099627435797984918,-0.016643533519931621,
0.012706525645915871,-0.015245506729378409,
0*
4,1,3,
0.015748031496062995,0.034448818897637797,
0.015748031496062995,0.014763779527559057,
-0.015748031496062995,0.014763779527559057,
-0.015748031496062995,0.034448818897637797,
0*
4,1,3,
-0.025590551181102365,0.024606299212598427,
-0.0059055118110236228,0.024606299212598427,
-0.0059055118110236228,-0.024606299212598427,
-0.025590551181102365,-0.024606299212598427,
0*
4,1,3,
-0.015748031496062995,-0.034448818897637797,
-0.015748031496062995,-0.014763779527559057,
0.015748031496062995,-0.014763779527559057,
0.015748031496062995,-0.034448818897637797,
0*
4,1,3,
0.025590551181102365,-0.024606299212598427,
0.0059055118110236228,-0.024606299212598427,
0.0059055118110236228,0.024606299212598427,
0.025590551181102365,0.024606299212598427,
0*%
%ADD60COMP247,0.25X0.4X0.625X-0.4X0.625X-0.4X-0.625X0.4X-0.625X0*%
%ADD61R,0.043307086614173235X0.043307086614173235*%
%ADD62C,0.22047244094488189*%
%ADD63R,0.066929133858267723X0.066929133858267723*%
%ADD64O,0.066929133858267723X0.066929133858267723*%
%ADD65R,0.074803149606299218X0.031496062992125991*%
%ADD66R,0.11811023622047245X0.11811023622047245*%
%ADD67C,0.11811023622047245*%
%AMCOMP249*
4,1,3,
-0.015748031496062995,-0.024606299212598427,
0.015748031496062995,-0.024606299212598427,
0.015748031496062995,0.024606299212598427,
-0.015748031496062995,0.024606299212598427,
0*
4,1,19,
-0.015748031496062995,-0.014763779527559057,
-0.012706525645915873,-0.015245506729378409,
-0.0099627435797984935,-0.016643533519931621,
-0.0077852658033961877,-0.018821011296333928,
-0.0063872390128429787,-0.021564793362451307,
-0.0059055118110236228,-0.024606299212598427,
-0.006387239012842977,-0.027647805062745546,
-0.0077852658033961877,-0.030391587128862925,
-0.0099627435797984918,-0.032569064905265233,
-0.012706525645915873,-0.033967091695818442,
-0.015748031496062992,-0.034448818897637797,
-0.018789537346210118,-0.033967091695818442,
-0.02153331941232749,-0.032569064905265233,
-0.0237107971887298,-0.030391587128862928,
-0.025108823979283011,-0.027647805062745546,
-0.025590551181102365,-0.024606299212598427,
-0.025108823979283011,-0.021564793362451307,
-0.0237107971887298,-0.018821011296333928,
-0.021533319412327497,-0.016643533519931621,
-0.018789537346210118,-0.015245506729378409,
0*
4,1,19,
0.015748031496062995,-0.014763779527559057,
0.018789537346210115,-0.015245506729378409,
0.02153331941232749,-0.016643533519931621,
0.0237107971887298,-0.018821011296333928,
0.025108823979283011,-0.021564793362451307,
0.025590551181102365,-0.024606299212598427,
0.025108823979283011,-0.027647805062745546,
0.0237107971887298,-0.030391587128862925,
0.021533319412327497,-0.032569064905265233,
0.018789537346210115,-0.033967091695818442,
0.015748031496062995,-0.034448818897637797,
0.012706525645915871,-0.033967091695818442,
0.009962743579798497,-0.032569064905265233,
0.0077852658033961885,-0.030391587128862928,
0.0063872390128429787,-0.027647805062745546,
0.0059055118110236228,-0.024606299212598427,
0.006387239012842977,-0.021564793362451307,
0.0077852658033961868,-0.018821011296333928,
0.0099627435797984918,-0.016643533519931621,
0.012706525645915871,-0.015245506729378409,
0*
4,1,19,
0.015748031496062995,0.034448818897637797,
0.018789537346210115,0.033967091695818442,
0.02153331941232749,0.032569064905265233,
0.0237107971887298,0.030391587128862928,
0.025108823979283011,0.027647805062745546,
0.025590551181102365,0.024606299212598427,
0.025108823979283011,0.021564793362451307,
0.0237107971887298,0.018821011296333928,
0.021533319412327497,0.016643533519931621,
0.018789537346210115,0.015245506729378409,
0.015748031496062995,0.014763779527559057,
0.012706525645915871,0.015245506729378409,
0.009962743579798497,0.016643533519931621,
0.0077852658033961885,0.018821011296333925,
0.0063872390128429787,0.021564793362451307,
0.0059055118110236228,0.024606299212598427,
0.006387239012842977,0.027647805062745546,
0.0077852658033961868,0.030391587128862925,
0.0099627435797984918,0.032569064905265233,
0.012706525645915871,0.033967091695818442,
0*
4,1,19,
-0.015748031496062995,0.034448818897637797,
-0.012706525645915873,0.033967091695818442,
-0.0099627435797984935,0.032569064905265233,
-0.0077852658033961877,0.030391587128862928,
-0.0063872390128429787,0.027647805062745546,
-0.0059055118110236228,0.024606299212598427,
-0.006387239012842977,0.021564793362451307,
-0.0077852658033961877,0.018821011296333928,
-0.0099627435797984918,0.016643533519931621,
-0.012706525645915873,0.015245506729378409,
-0.015748031496062992,0.014763779527559057,
-0.018789537346210118,0.015245506729378409,
-0.02153331941232749,0.016643533519931621,
-0.0237107971887298,0.018821011296333925,
-0.025108823979283011,0.021564793362451307,
-0.025590551181102365,0.024606299212598427,
-0.025108823979283011,0.027647805062745546,
-0.0237107971887298,0.030391587128862925,
-0.021533319412327497,0.032569064905265233,
-0.018789537346210118,0.033967091695818442,
0*
4,1,3,
-0.015748031496062995,-0.034448818897637797,
-0.015748031496062995,-0.014763779527559057,
0.015748031496062995,-0.014763779527559057,
0.015748031496062995,-0.034448818897637797,
0*
4,1,3,
0.025590551181102365,-0.024606299212598427,
0.0059055118110236228,-0.024606299212598427,
0.0059055118110236228,0.024606299212598427,
0.025590551181102365,0.024606299212598427,
0*
4,1,3,
0.015748031496062995,0.034448818897637797,
0.015748031496062995,0.014763779527559057,
-0.015748031496062995,0.014763779527559057,
-0.015748031496062995,0.034448818897637797,
0*
4,1,3,
-0.025590551181102365,0.024606299212598427,
-0.0059055118110236228,0.024606299212598427,
-0.0059055118110236228,-0.024606299212598427,
-0.025590551181102365,-0.024606299212598427,
0*%
%ADD68COMP249,0.25X-0.4X-0.625X0.4X-0.625X0.4X0.625X-0.4X0.625X0*%
%AMCOMP251*
4,1,3,
0.015748031496062995,0.024606299212598427,
-0.015748031496062995,0.024606299212598427,
-0.015748031496062995,-0.024606299212598427,
0.015748031496062995,-0.024606299212598427,
0*
4,1,19,
0.015748031496062995,0.034448818897637797,
0.018789537346210115,0.033967091695818442,
0.02153331941232749,0.032569064905265233,
0.0237107971887298,0.030391587128862928,
0.025108823979283011,0.027647805062745546,
0.025590551181102365,0.024606299212598427,
0.025108823979283011,0.021564793362451307,
0.0237107971887298,0.018821011296333928,
0.021533319412327497,0.016643533519931621,
0.018789537346210115,0.015245506729378409,
0.015748031496062995,0.014763779527559057,
0.012706525645915871,0.015245506729378409,
0.009962743579798497,0.016643533519931621,
0.0077852658033961885,0.018821011296333925,
0.0063872390128429787,0.021564793362451307,
0.0059055118110236228,0.024606299212598427,
0.006387239012842977,0.027647805062745546,
0.0077852658033961868,0.030391587128862925,
0.0099627435797984918,0.032569064905265233,
0.012706525645915871,0.033967091695818442,
0*
4,1,19,
-0.015748031496062995,0.034448818897637797,
-0.012706525645915873,0.033967091695818442,
-0.0099627435797984935,0.032569064905265233,
-0.0077852658033961877,0.030391587128862928,
-0.0063872390128429787,0.027647805062745546,
-0.0059055118110236228,0.024606299212598427,
-0.006387239012842977,0.021564793362451307,
-0.0077852658033961877,0.018821011296333928,
-0.0099627435797984918,0.016643533519931621,
-0.012706525645915873,0.015245506729378409,
-0.015748031496062992,0.014763779527559057,
-0.018789537346210118,0.015245506729378409,
-0.02153331941232749,0.016643533519931621,
-0.0237107971887298,0.018821011296333925,
-0.025108823979283011,0.021564793362451307,
-0.025590551181102365,0.024606299212598427,
-0.025108823979283011,0.027647805062745546,
-0.0237107971887298,0.030391587128862925,
-0.021533319412327497,0.032569064905265233,
-0.018789537346210118,0.033967091695818442,
0*
4,1,19,
-0.015748031496062995,-0.014763779527559057,
-0.012706525645915873,-0.015245506729378409,
-0.0099627435797984935,-0.016643533519931621,
-0.0077852658033961877,-0.018821011296333928,
-0.0063872390128429787,-0.021564793362451307,
-0.0059055118110236228,-0.024606299212598427,
-0.006387239012842977,-0.027647805062745546,
-0.0077852658033961877,-0.030391587128862925,
-0.0099627435797984918,-0.032569064905265233,
-0.012706525645915873,-0.033967091695818442,
-0.015748031496062992,-0.034448818897637797,
-0.018789537346210118,-0.033967091695818442,
-0.02153331941232749,-0.032569064905265233,
-0.0237107971887298,-0.030391587128862928,
-0.025108823979283011,-0.027647805062745546,
-0.025590551181102365,-0.024606299212598427,
-0.025108823979283011,-0.021564793362451307,
-0.0237107971887298,-0.018821011296333928,
-0.021533319412327497,-0.016643533519931621,
-0.018789537346210118,-0.015245506729378409,
0*
4,1,19,
0.015748031496062995,-0.014763779527559057,
0.018789537346210115,-0.015245506729378409,
0.02153331941232749,-0.016643533519931621,
0.0237107971887298,-0.018821011296333928,
0.025108823979283011,-0.021564793362451307,
0.025590551181102365,-0.024606299212598427,
0.025108823979283011,-0.027647805062745546,
0.0237107971887298,-0.030391587128862925,
0.021533319412327497,-0.032569064905265233,
0.018789537346210115,-0.033967091695818442,
0.015748031496062995,-0.034448818897637797,
0.012706525645915871,-0.033967091695818442,
0.009962743579798497,-0.032569064905265233,
0.0077852658033961885,-0.030391587128862928,
0.0063872390128429787,-0.027647805062745546,
0.0059055118110236228,-0.024606299212598427,
0.006387239012842977,-0.021564793362451307,
0.0077852658033961868,-0.018821011296333928,
0.0099627435797984918,-0.016643533519931621,
0.012706525645915871,-0.015245506729378409,
0*
4,1,3,
0.015748031496062995,0.034448818897637797,
0.015748031496062995,0.014763779527559057,
-0.015748031496062995,0.014763779527559057,
-0.015748031496062995,0.034448818897637797,
0*
4,1,3,
-0.025590551181102365,0.024606299212598427,
-0.0059055118110236228,0.024606299212598427,
-0.0059055118110236228,-0.024606299212598427,
-0.025590551181102365,-0.024606299212598427,
0*
4,1,3,
-0.015748031496062995,-0.034448818897637797,
-0.015748031496062995,-0.014763779527559057,
0.015748031496062995,-0.014763779527559057,
0.015748031496062995,-0.034448818897637797,
0*
4,1,3,
0.025590551181102365,-0.024606299212598427,
0.0059055118110236228,-0.024606299212598427,
0.0059055118110236228,0.024606299212598427,
0.025590551181102365,0.024606299212598427,
0*%
%ADD69COMP251,0.25X0.4X0.625X-0.4X0.625X-0.4X-0.625X0.4X-0.625X0*%
%ADD70R,0.043307086614173235X0.043307086614173235*%
%ADD71C,0.22047244094488189*%
%ADD72R,0.066929133858267723X0.066929133858267723*%
%ADD73O,0.066929133858267723X0.066929133858267723*%
%ADD74R,0.074803149606299218X0.031496062992125991*%
%ADD75R,0.11811023622047245X0.11811023622047245*%
%ADD76C,0.11811023622047245*%
%AMCOMP253*
4,1,3,
-0.015748031496062995,-0.024606299212598427,
0.015748031496062995,-0.024606299212598427,
0.015748031496062995,0.024606299212598427,
-0.015748031496062995,0.024606299212598427,
0*
4,1,19,
-0.015748031496062995,-0.014763779527559057,
-0.012706525645915873,-0.015245506729378409,
-0.0099627435797984935,-0.016643533519931621,
-0.0077852658033961877,-0.018821011296333928,
-0.0063872390128429787,-0.021564793362451307,
-0.0059055118110236228,-0.024606299212598427,
-0.006387239012842977,-0.027647805062745546,
-0.0077852658033961877,-0.030391587128862925,
-0.0099627435797984918,-0.032569064905265233,
-0.012706525645915873,-0.033967091695818442,
-0.015748031496062992,-0.034448818897637797,
-0.018789537346210118,-0.033967091695818442,
-0.02153331941232749,-0.032569064905265233,
-0.0237107971887298,-0.030391587128862928,
-0.025108823979283011,-0.027647805062745546,
-0.025590551181102365,-0.024606299212598427,
-0.025108823979283011,-0.021564793362451307,
-0.0237107971887298,-0.018821011296333928,
-0.021533319412327497,-0.016643533519931621,
-0.018789537346210118,-0.015245506729378409,
0*
4,1,19,
0.015748031496062995,-0.014763779527559057,
0.018789537346210115,-0.015245506729378409,
0.02153331941232749,-0.016643533519931621,
0.0237107971887298,-0.018821011296333928,
0.025108823979283011,-0.021564793362451307,
0.025590551181102365,-0.024606299212598427,
0.025108823979283011,-0.027647805062745546,
0.0237107971887298,-0.030391587128862925,
0.021533319412327497,-0.032569064905265233,
0.018789537346210115,-0.033967091695818442,
0.015748031496062995,-0.034448818897637797,
0.012706525645915871,-0.033967091695818442,
0.009962743579798497,-0.032569064905265233,
0.0077852658033961885,-0.030391587128862928,
0.0063872390128429787,-0.027647805062745546,
0.0059055118110236228,-0.024606299212598427,
0.006387239012842977,-0.021564793362451307,
0.0077852658033961868,-0.018821011296333928,
0.0099627435797984918,-0.016643533519931621,
0.012706525645915871,-0.015245506729378409,
0*
4,1,19,
0.015748031496062995,0.034448818897637797,
0.018789537346210115,0.033967091695818442,
0.02153331941232749,0.032569064905265233,
0.0237107971887298,0.030391587128862928,
0.025108823979283011,0.027647805062745546,
0.025590551181102365,0.024606299212598427,
0.025108823979283011,0.021564793362451307,
0.0237107971887298,0.018821011296333928,
0.021533319412327497,0.016643533519931621,
0.018789537346210115,0.015245506729378409,
0.015748031496062995,0.014763779527559057,
0.012706525645915871,0.015245506729378409,
0.009962743579798497,0.016643533519931621,
0.0077852658033961885,0.018821011296333925,
0.0063872390128429787,0.021564793362451307,
0.0059055118110236228,0.024606299212598427,
0.006387239012842977,0.027647805062745546,
0.0077852658033961868,0.030391587128862925,
0.0099627435797984918,0.032569064905265233,
0.012706525645915871,0.033967091695818442,
0*
4,1,19,
-0.015748031496062995,0.034448818897637797,
-0.012706525645915873,0.033967091695818442,
-0.0099627435797984935,0.032569064905265233,
-0.0077852658033961877,0.030391587128862928,
-0.0063872390128429787,0.027647805062745546,
-0.0059055118110236228,0.024606299212598427,
-0.006387239012842977,0.021564793362451307,
-0.0077852658033961877,0.018821011296333928,
-0.0099627435797984918,0.016643533519931621,
-0.012706525645915873,0.015245506729378409,
-0.015748031496062992,0.014763779527559057,
-0.018789537346210118,0.015245506729378409,
-0.02153331941232749,0.016643533519931621,
-0.0237107971887298,0.018821011296333925,
-0.025108823979283011,0.021564793362451307,
-0.025590551181102365,0.024606299212598427,
-0.025108823979283011,0.027647805062745546,
-0.0237107971887298,0.030391587128862925,
-0.021533319412327497,0.032569064905265233,
-0.018789537346210118,0.033967091695818442,
0*
4,1,3,
-0.015748031496062995,-0.034448818897637797,
-0.015748031496062995,-0.014763779527559057,
0.015748031496062995,-0.014763779527559057,
0.015748031496062995,-0.034448818897637797,
0*
4,1,3,
0.025590551181102365,-0.024606299212598427,
0.0059055118110236228,-0.024606299212598427,
0.0059055118110236228,0.024606299212598427,
0.025590551181102365,0.024606299212598427,
0*
4,1,3,
0.015748031496062995,0.034448818897637797,
0.015748031496062995,0.014763779527559057,
-0.015748031496062995,0.014763779527559057,
-0.015748031496062995,0.034448818897637797,
0*
4,1,3,
-0.025590551181102365,0.024606299212598427,
-0.0059055118110236228,0.024606299212598427,
-0.0059055118110236228,-0.024606299212598427,
-0.025590551181102365,-0.024606299212598427,
0*%
%ADD77COMP253,0.25X-0.4X-0.625X0.4X-0.625X0.4X0.625X-0.4X0.625X0*%
%AMCOMP255*
4,1,3,
0.015748031496062995,0.024606299212598427,
-0.015748031496062995,0.024606299212598427,
-0.015748031496062995,-0.024606299212598427,
0.015748031496062995,-0.024606299212598427,
0*
4,1,19,
0.015748031496062995,0.034448818897637797,
0.018789537346210115,0.033967091695818442,
0.02153331941232749,0.032569064905265233,
0.0237107971887298,0.030391587128862928,
0.025108823979283011,0.027647805062745546,
0.025590551181102365,0.024606299212598427,
0.025108823979283011,0.021564793362451307,
0.0237107971887298,0.018821011296333928,
0.021533319412327497,0.016643533519931621,
0.018789537346210115,0.015245506729378409,
0.015748031496062995,0.014763779527559057,
0.012706525645915871,0.015245506729378409,
0.009962743579798497,0.016643533519931621,
0.0077852658033961885,0.018821011296333925,
0.0063872390128429787,0.021564793362451307,
0.0059055118110236228,0.024606299212598427,
0.006387239012842977,0.027647805062745546,
0.0077852658033961868,0.030391587128862925,
0.0099627435797984918,0.032569064905265233,
0.012706525645915871,0.033967091695818442,
0*
4,1,19,
-0.015748031496062995,0.034448818897637797,
-0.012706525645915873,0.033967091695818442,
-0.0099627435797984935,0.032569064905265233,
-0.0077852658033961877,0.030391587128862928,
-0.0063872390128429787,0.027647805062745546,
-0.0059055118110236228,0.024606299212598427,
-0.006387239012842977,0.021564793362451307,
-0.0077852658033961877,0.018821011296333928,
-0.0099627435797984918,0.016643533519931621,
-0.012706525645915873,0.015245506729378409,
-0.015748031496062992,0.014763779527559057,
-0.018789537346210118,0.015245506729378409,
-0.02153331941232749,0.016643533519931621,
-0.0237107971887298,0.018821011296333925,
-0.025108823979283011,0.021564793362451307,
-0.025590551181102365,0.024606299212598427,
-0.025108823979283011,0.027647805062745546,
-0.0237107971887298,0.030391587128862925,
-0.021533319412327497,0.032569064905265233,
-0.018789537346210118,0.033967091695818442,
0*
4,1,19,
-0.015748031496062995,-0.014763779527559057,
-0.012706525645915873,-0.015245506729378409,
-0.0099627435797984935,-0.016643533519931621,
-0.0077852658033961877,-0.018821011296333928,
-0.0063872390128429787,-0.021564793362451307,
-0.0059055118110236228,-0.024606299212598427,
-0.006387239012842977,-0.027647805062745546,
-0.0077852658033961877,-0.030391587128862925,
-0.0099627435797984918,-0.032569064905265233,
-0.012706525645915873,-0.033967091695818442,
-0.015748031496062992,-0.034448818897637797,
-0.018789537346210118,-0.033967091695818442,
-0.02153331941232749,-0.032569064905265233,
-0.0237107971887298,-0.030391587128862928,
-0.025108823979283011,-0.027647805062745546,
-0.025590551181102365,-0.024606299212598427,
-0.025108823979283011,-0.021564793362451307,
-0.0237107971887298,-0.018821011296333928,
-0.021533319412327497,-0.016643533519931621,
-0.018789537346210118,-0.015245506729378409,
0*
4,1,19,
0.015748031496062995,-0.014763779527559057,
0.018789537346210115,-0.015245506729378409,
0.02153331941232749,-0.016643533519931621,
0.0237107971887298,-0.018821011296333928,
0.025108823979283011,-0.021564793362451307,
0.025590551181102365,-0.024606299212598427,
0.025108823979283011,-0.027647805062745546,
0.0237107971887298,-0.030391587128862925,
0.021533319412327497,-0.032569064905265233,
0.018789537346210115,-0.033967091695818442,
0.015748031496062995,-0.034448818897637797,
0.012706525645915871,-0.033967091695818442,
0.009962743579798497,-0.032569064905265233,
0.0077852658033961885,-0.030391587128862928,
0.0063872390128429787,-0.027647805062745546,
0.0059055118110236228,-0.024606299212598427,
0.006387239012842977,-0.021564793362451307,
0.0077852658033961868,-0.018821011296333928,
0.0099627435797984918,-0.016643533519931621,
0.012706525645915871,-0.015245506729378409,
0*
4,1,3,
0.015748031496062995,0.034448818897637797,
0.015748031496062995,0.014763779527559057,
-0.015748031496062995,0.014763779527559057,
-0.015748031496062995,0.034448818897637797,
0*
4,1,3,
-0.025590551181102365,0.024606299212598427,
-0.0059055118110236228,0.024606299212598427,
-0.0059055118110236228,-0.024606299212598427,
-0.025590551181102365,-0.024606299212598427,
0*
4,1,3,
-0.015748031496062995,-0.034448818897637797,
-0.015748031496062995,-0.014763779527559057,
0.015748031496062995,-0.014763779527559057,
0.015748031496062995,-0.034448818897637797,
0*
4,1,3,
0.025590551181102365,-0.024606299212598427,
0.0059055118110236228,-0.024606299212598427,
0.0059055118110236228,0.024606299212598427,
0.025590551181102365,0.024606299212598427,
0*%
%ADD78COMP255,0.25X0.4X0.625X-0.4X0.625X-0.4X-0.625X0.4X-0.625X0*%
G01*
D10*
X-0002913385Y0007125984D02*
X0001766496Y0002250984D03*
X0001876732Y0002250984D03*
D11*
X0001271614Y0002195984D03*
D12*
X0001371614Y0002195984D03*
D11*
X0000921614Y0002195984D03*
D12*
X0001021614Y0002195984D03*
D13*
X0000291614Y0002520984D03*
X0000291614Y0003410748D03*
D14*
X0002231614Y0003700984D03*
X0000231614Y0003690984D03*
X0002231614Y0002290984D03*
X0000236614Y0002280984D03*
D15*
X0002031614Y0002360984D03*
D16*
X0002031614Y0002260984D03*
D15*
X0001516614Y0003640984D03*
D16*
X0001616614Y0003640984D03*
X0001716614Y0003640984D03*
D15*
X0001216614Y0003640984D03*
D16*
X0001316614Y0003640984D03*
X0001416614Y0003640984D03*
D15*
X0001516614Y0003745984D03*
D16*
X0001616614Y0003745984D03*
X0001716614Y0003745984D03*
D15*
X0001816614Y0003745984D03*
D16*
X0001916614Y0003745984D03*
X0002016614Y0003745984D03*
D15*
X0001816614Y0003640984D03*
D16*
X0001916614Y0003640984D03*
X0002016614Y0003640984D03*
D15*
X0000731614Y0002240984D03*
D16*
X0000731614Y0002340984D03*
D15*
X0000621614Y0002240984D03*
D16*
X0000621614Y0002340984D03*
D17*
X0001784370Y0002398385D03*
X0001784370Y0002323582D03*
X0001878858Y0002360984D03*
D18*
X0001642637Y0002345984D03*
X0001520590Y0002345984D03*
D19*
X0001520590Y0002250984D03*
X0001642637Y0002250984D03*
X0001265590Y0002345984D03*
X0001387637Y0002345984D03*
X0000905590Y0002350984D03*
X0001027637Y0002350984D03*
D20*
X0000806614Y0003455984D03*
D21*
X0000806614Y0003692204D03*
D22*
X0000621574Y0003574094D03*
D23*
X0001121614Y0002761496D03*
X0001121614Y0003105984D03*
X0001708228Y0002761496D03*
X0001708228Y0003105984D03*
D15*
X0001216614Y0003745984D03*
D16*
X0001316614Y0003745984D03*
X0001416614Y0003745984D03*
D24*
X0000606614Y0003270984D03*
D25*
X0000606614Y0002570984D03*
X0002206614Y0002570984D03*
X0002206614Y0003270984D03*
G04 next file*
G04 #@! TF.GenerationSoftware,KiCad,Pcbnew,(6.0.5)*
G04 #@! TF.CreationDate,2022-08-01T18:55:39+01:00*
G04 #@! TF.ProjectId,LED-RPi-PCB,4c45442d-5250-4692-9d50-43422e6b6963,rev?*
G04 #@! TF.SameCoordinates,Original*
G04 #@! TF.FileFunction,Soldermask,Top*
G04 #@! TF.FilePolarity,Negative*
G04 Gerber Fmt 4.6, Leading zero omitted, Abs format (unit mm)*
G04 Created by KiCad (PCBNEW (6.0.5)) date 2022-08-01 18:55:39*
G01*
G04 APERTURE LIST*
G04 Aperture macros list*
G04 Aperture macros list end*
G04 APERTURE END LIST*
D36*
X-0002913385Y0005275590D02*
X0001766496Y0000400590D03*
X0001876732Y0000400590D03*
D37*
X0001271614Y0000345590D03*
D38*
X0001371614Y0000345590D03*
D37*
X0000921614Y0000345590D03*
D38*
X0001021614Y0000345590D03*
D39*
X0000291614Y0000670590D03*
X0000291614Y0001560354D03*
D40*
X0002231614Y0001850590D03*
X0000231614Y0001840590D03*
X0002231614Y0000440590D03*
X0000236614Y0000430590D03*
D41*
X0002031614Y0000510590D03*
D42*
X0002031614Y0000410590D03*
D41*
X0001516614Y0001790590D03*
D42*
X0001616614Y0001790590D03*
X0001716614Y0001790590D03*
D41*
X0001216614Y0001790590D03*
D42*
X0001316614Y0001790590D03*
X0001416614Y0001790590D03*
D41*
X0001516614Y0001895590D03*
D42*
X0001616614Y0001895590D03*
X0001716614Y0001895590D03*
D41*
X0001816614Y0001895590D03*
D42*
X0001916614Y0001895590D03*
X0002016614Y0001895590D03*
D41*
X0001816614Y0001790590D03*
D42*
X0001916614Y0001790590D03*
X0002016614Y0001790590D03*
D41*
X0000731614Y0000390590D03*
D42*
X0000731614Y0000490590D03*
D41*
X0000621614Y0000390590D03*
D42*
X0000621614Y0000490590D03*
D43*
X0001784370Y0000547992D03*
X0001784370Y0000473188D03*
X0001878858Y0000510590D03*
D44*
X0001642637Y0000495590D03*
X0001520590Y0000495590D03*
D45*
X0001520590Y0000400590D03*
X0001642637Y0000400590D03*
X0001265590Y0000495590D03*
X0001387637Y0000495590D03*
X0000905590Y0000500590D03*
X0001027637Y0000500590D03*
D46*
X0000806614Y0001605590D03*
D47*
X0000806614Y0001841811D03*
D48*
X0000621574Y0001723700D03*
D49*
X0001121614Y0000911102D03*
X0001121614Y0001255590D03*
X0001708228Y0000911102D03*
X0001708228Y0001255590D03*
D41*
X0001216614Y0001895590D03*
D42*
X0001316614Y0001895590D03*
X0001416614Y0001895590D03*
D50*
X0000606614Y0001420590D03*
D51*
X0000606614Y0000720590D03*
X0002206614Y0000720590D03*
X0002206614Y0001420590D03*
G04 next file*
G04 #@! TF.GenerationSoftware,KiCad,Pcbnew,(6.0.5)*
G04 #@! TF.CreationDate,2022-08-01T19:03:23+01:00*
G04 #@! TF.ProjectId,PWM-TRANSISTOR-PCB,50574d2d-5452-4414-9e53-4953544f522d,rev?*
G04 #@! TF.SameCoordinates,Original*
G04 #@! TF.FileFunction,Soldermask,Top*
G04 #@! TF.FilePolarity,Negative*
G04 Gerber Fmt 4.6, Leading zero omitted, Abs format (unit mm)*
G04 Created by KiCad (PCBNEW (6.0.5)) date 2022-08-01 19:03:23*
G01*
G04 APERTURE LIST*
G04 Aperture macros list*
G04 Aperture macros list end*
G04 APERTURE END LIST*
D52*
X-0001614173Y0007952755D02*
X0002838208Y0003182755D03*
X0002948444Y0003182755D03*
D53*
X0003413326Y0003552755D03*
X0002633326Y0003552755D03*
X0003413326Y0002867755D03*
D54*
X0003133326Y0003272755D03*
D55*
X0003133326Y0003172755D03*
D54*
X0003043326Y0003597755D03*
D55*
X0002943326Y0003597755D03*
D56*
X0002844271Y0003330157D03*
X0002844271Y0003255354D03*
X0002962381Y0003292755D03*
D57*
X0003388326Y0003110255D03*
D58*
X0003388326Y0003310255D03*
D53*
X0002628326Y0002877755D03*
D54*
X0002578326Y0003160255D03*
D55*
X0002578326Y0003260255D03*
D59*
X0002832303Y0002962755D03*
X0002954350Y0002962755D03*
D60*
X0002954350Y0003057755D03*
X0002832303Y0003057755D03*
G04 next file*
G04 #@! TF.GenerationSoftware,KiCad,Pcbnew,(6.0.5)*
G04 #@! TF.CreationDate,2022-08-01T19:03:23+01:00*
G04 #@! TF.ProjectId,PWM-TRANSISTOR-PCB,50574d2d-5452-4414-9e53-4953544f522d,rev?*
G04 #@! TF.SameCoordinates,Original*
G04 #@! TF.FileFunction,Soldermask,Top*
G04 #@! TF.FilePolarity,Negative*
G04 Gerber Fmt 4.6, Leading zero omitted, Abs format (unit mm)*
G04 Created by KiCad (PCBNEW (6.0.5)) date 2022-08-01 19:03:23*
G01*
G04 APERTURE LIST*
G04 Aperture macros list*
G04 Aperture macros list end*
G04 APERTURE END LIST*
D61*
X-0001614173Y0006889763D02*
X0002838208Y0002119763D03*
X0002948444Y0002119763D03*
D62*
X0003413326Y0002489763D03*
X0002633326Y0002489763D03*
X0003413326Y0001804763D03*
D63*
X0003133326Y0002209763D03*
D64*
X0003133326Y0002109763D03*
D63*
X0003043326Y0002534763D03*
D64*
X0002943326Y0002534763D03*
D65*
X0002844271Y0002267165D03*
X0002844271Y0002192362D03*
X0002962381Y0002229763D03*
D66*
X0003388326Y0002047263D03*
D67*
X0003388326Y0002247263D03*
D62*
X0002628326Y0001814763D03*
D63*
X0002578326Y0002097263D03*
D64*
X0002578326Y0002197263D03*
D68*
X0002832303Y0001899763D03*
X0002954350Y0001899763D03*
D69*
X0002954350Y0001994763D03*
X0002832303Y0001994763D03*
G04 next file*
G04 #@! TF.GenerationSoftware,KiCad,Pcbnew,(6.0.5)*
G04 #@! TF.CreationDate,2022-08-01T19:03:23+01:00*
G04 #@! TF.ProjectId,PWM-TRANSISTOR-PCB,50574d2d-5452-4414-9e53-4953544f522d,rev?*
G04 #@! TF.SameCoordinates,Original*
G04 #@! TF.FileFunction,Soldermask,Top*
G04 #@! TF.FilePolarity,Negative*
G04 Gerber Fmt 4.6, Leading zero omitted, Abs format (unit mm)*
G04 Created by KiCad (PCBNEW (6.0.5)) date 2022-08-01 19:03:23*
G01*
G04 APERTURE LIST*
G04 Aperture macros list*
G04 Aperture macros list end*
G04 APERTURE END LIST*
D70*
X-0001614173Y0005826771D02*
X0002838208Y0001056771D03*
X0002948444Y0001056771D03*
D71*
X0003413326Y0001426771D03*
X0002633326Y0001426771D03*
X0003413326Y0000741771D03*
D72*
X0003133326Y0001146771D03*
D73*
X0003133326Y0001046771D03*
D72*
X0003043326Y0001471771D03*
D73*
X0002943326Y0001471771D03*
D74*
X0002844271Y0001204173D03*
X0002844271Y0001129370D03*
X0002962381Y0001166771D03*
D75*
X0003388326Y0000984271D03*
D76*
X0003388326Y0001184271D03*
D71*
X0002628326Y0000751771D03*
D72*
X0002578326Y0001034271D03*
D73*
X0002578326Y0001134271D03*
D77*
X0002832303Y0000836771D03*
X0002954350Y0000836771D03*
D78*
X0002954350Y0000931771D03*
X0002832303Y0000931771D03*
M02*