%MOIN*%
%OFA0B0*%
%FSLAX46Y46*%
%IPPOS*%
%LPD*%
%ADD10C,0.0019685039370078744*%
%ADD21C,0.0019685039370078744*%
%ADD22C,0.0019685039370078744*%
%ADD23C,0.0019685039370078744*%
%ADD24C,0.0019685039370078744*%
%ADD25C,0.0019685039370078744*%
%ADD26C,0.0019685039370078744*%
%ADD27C,0.0019685039370078744*%
%ADD28C,0.0019685039370078744*%
G01*
D10*
X0000962381Y0003916476D02*
X0000194881Y0003916476D01*
X0001099881Y0003781476D02*
G75*
G03*
X0000962388Y0003916356I-0000130000J0000004999D01*
G01*
X0000059880Y0003111356D02*
G75*
G03*
X0000197374Y0002976476I0000130001J-0000004998D01*
G01*
X0000197381Y0002976476D02*
X0000964881Y0002973976D01*
X0000964881Y0002973976D02*
G75*
G03*
X0001099761Y0003111469I0000004999J0000130000D01*
G01*
X0000060001Y0003778983D02*
X0000059881Y0003111476D01*
X0001099761Y0003111469D02*
X0001099881Y0003781476D01*
X0000194881Y0003916476D02*
G75*
G03*
X0000060001Y0003778983I-0000004999J-0000130000D01*
G01*
G04 next file*
G04 #@! TF.GenerationSoftware,KiCad,Pcbnew,(6.0.5)*
G04 #@! TF.CreationDate,2022-08-01T19:03:23+01:00*
G04 #@! TF.ProjectId,PWM-TRANSISTOR-PCB,50574d2d-5452-4414-9e53-4953544f522d,rev?*
G04 #@! TF.SameCoordinates,Original*
G04 #@! TF.FileFunction,Profile,NP*
G04 Gerber Fmt 4.6, Leading zero omitted, Abs format (unit mm)*
G04 Created by KiCad (PCBNEW (6.0.5)) date 2022-08-01 19:03:23*
G01*
G04 APERTURE LIST*
G04 #@! TA.AperFunction,Profile*
G04 #@! TD*
G04 APERTURE END LIST*
D21*
X0002104114Y0003916476D02*
X0001336614Y0003916476D01*
X0002241614Y0003781476D02*
G75*
G03*
X0002104121Y0003916356I-0000130000J0000004999D01*
G01*
X0001201612Y0003111356D02*
G75*
G03*
X0001339107Y0002976476I0000130001J-0000004998D01*
G01*
X0001339114Y0002976476D02*
X0002106614Y0002973976D01*
X0002106614Y0002973976D02*
G75*
G03*
X0002241494Y0003111469I0000004999J0000130000D01*
G01*
X0001201734Y0003778983D02*
X0001201614Y0003111476D01*
X0002241494Y0003111469D02*
X0002241614Y0003781476D01*
X0001336614Y0003916476D02*
G75*
G03*
X0001201734Y0003778983I-0000004999J-0000130000D01*
G01*
G04 next file*
G04 #@! TF.GenerationSoftware,KiCad,Pcbnew,(6.0.5)*
G04 #@! TF.CreationDate,2022-08-01T19:03:23+01:00*
G04 #@! TF.ProjectId,PWM-TRANSISTOR-PCB,50574d2d-5452-4414-9e53-4953544f522d,rev?*
G04 #@! TF.SameCoordinates,Original*
G04 #@! TF.FileFunction,Profile,NP*
G04 Gerber Fmt 4.6, Leading zero omitted, Abs format (unit mm)*
G04 Created by KiCad (PCBNEW (6.0.5)) date 2022-08-01 19:03:23*
G01*
G04 APERTURE LIST*
G04 #@! TA.AperFunction,Profile*
G04 #@! TD*
G04 APERTURE END LIST*
D22*
X0003245846Y0003916476D02*
X0002478346Y0003916476D01*
X0003383346Y0003781476D02*
G75*
G03*
X0003245853Y0003916356I-0000130000J0000004999D01*
G01*
X0002343344Y0003111356D02*
G75*
G03*
X0002480839Y0002976476I0000130001J-0000004998D01*
G01*
X0002480846Y0002976476D02*
X0003248346Y0002973976D01*
X0003248346Y0002973976D02*
G75*
G03*
X0003383226Y0003111469I0000004999J0000130000D01*
G01*
X0002343466Y0003778983D02*
X0002343346Y0003111476D01*
X0003383226Y0003111469D02*
X0003383346Y0003781476D01*
X0002478346Y0003916476D02*
G75*
G03*
X0002343466Y0003778983I-0000004999J-0000130000D01*
G01*
G04 next file*
G04 #@! TF.GenerationSoftware,KiCad,Pcbnew,(6.0.5)*
G04 #@! TF.CreationDate,2022-08-01T19:03:23+01:00*
G04 #@! TF.ProjectId,PWM-TRANSISTOR-PCB,50574d2d-5452-4414-9e53-4953544f522d,rev?*
G04 #@! TF.SameCoordinates,Original*
G04 #@! TF.FileFunction,Profile,NP*
G04 Gerber Fmt 4.6, Leading zero omitted, Abs format (unit mm)*
G04 Created by KiCad (PCBNEW (6.0.5)) date 2022-08-01 19:03:23*
G01*
G04 APERTURE LIST*
G04 #@! TA.AperFunction,Profile*
G04 #@! TD*
G04 APERTURE END LIST*
D23*
X0000962381Y0002892854D02*
X0000194881Y0002892854D01*
X0001099881Y0002757854D02*
G75*
G03*
X0000962388Y0002892734I-0000130000J0000004999D01*
G01*
X0000059880Y0002087734D02*
G75*
G03*
X0000197374Y0001952854I0000130001J-0000004998D01*
G01*
X0000197381Y0001952854D02*
X0000964881Y0001950354D01*
X0000964881Y0001950354D02*
G75*
G03*
X0001099761Y0002087847I0000004999J0000130000D01*
G01*
X0000060001Y0002755361D02*
X0000059881Y0002087854D01*
X0001099761Y0002087847D02*
X0001099881Y0002757854D01*
X0000194881Y0002892854D02*
G75*
G03*
X0000060001Y0002755361I-0000004999J-0000130000D01*
G01*
G04 next file*
G04 #@! TF.GenerationSoftware,KiCad,Pcbnew,(6.0.5)*
G04 #@! TF.CreationDate,2022-08-01T19:03:23+01:00*
G04 #@! TF.ProjectId,PWM-TRANSISTOR-PCB,50574d2d-5452-4414-9e53-4953544f522d,rev?*
G04 #@! TF.SameCoordinates,Original*
G04 #@! TF.FileFunction,Profile,NP*
G04 Gerber Fmt 4.6, Leading zero omitted, Abs format (unit mm)*
G04 Created by KiCad (PCBNEW (6.0.5)) date 2022-08-01 19:03:23*
G01*
G04 APERTURE LIST*
G04 #@! TA.AperFunction,Profile*
G04 #@! TD*
G04 APERTURE END LIST*
D24*
X0002104114Y0002892854D02*
X0001336614Y0002892854D01*
X0002241614Y0002757854D02*
G75*
G03*
X0002104121Y0002892734I-0000130000J0000004999D01*
G01*
X0001201612Y0002087734D02*
G75*
G03*
X0001339107Y0001952854I0000130001J-0000004998D01*
G01*
X0001339114Y0001952854D02*
X0002106614Y0001950354D01*
X0002106614Y0001950354D02*
G75*
G03*
X0002241494Y0002087847I0000004999J0000130000D01*
G01*
X0001201734Y0002755361D02*
X0001201614Y0002087854D01*
X0002241494Y0002087847D02*
X0002241614Y0002757854D01*
X0001336614Y0002892854D02*
G75*
G03*
X0001201734Y0002755361I-0000004999J-0000130000D01*
G01*
G04 next file*
G04 #@! TF.GenerationSoftware,KiCad,Pcbnew,(6.0.5)*
G04 #@! TF.CreationDate,2022-08-01T19:03:23+01:00*
G04 #@! TF.ProjectId,PWM-TRANSISTOR-PCB,50574d2d-5452-4414-9e53-4953544f522d,rev?*
G04 #@! TF.SameCoordinates,Original*
G04 #@! TF.FileFunction,Profile,NP*
G04 Gerber Fmt 4.6, Leading zero omitted, Abs format (unit mm)*
G04 Created by KiCad (PCBNEW (6.0.5)) date 2022-08-01 19:03:23*
G01*
G04 APERTURE LIST*
G04 #@! TA.AperFunction,Profile*
G04 #@! TD*
G04 APERTURE END LIST*
D25*
X0003245846Y0002892854D02*
X0002478346Y0002892854D01*
X0003383346Y0002757854D02*
G75*
G03*
X0003245853Y0002892734I-0000130000J0000004999D01*
G01*
X0002343344Y0002087734D02*
G75*
G03*
X0002480839Y0001952854I0000130001J-0000004998D01*
G01*
X0002480846Y0001952854D02*
X0003248346Y0001950354D01*
X0003248346Y0001950354D02*
G75*
G03*
X0003383226Y0002087847I0000004999J0000130000D01*
G01*
X0002343466Y0002755361D02*
X0002343346Y0002087854D01*
X0003383226Y0002087847D02*
X0003383346Y0002757854D01*
X0002478346Y0002892854D02*
G75*
G03*
X0002343466Y0002755361I-0000004999J-0000130000D01*
G01*
G04 next file*
G04 #@! TF.GenerationSoftware,KiCad,Pcbnew,(6.0.5)*
G04 #@! TF.CreationDate,2022-08-01T19:03:23+01:00*
G04 #@! TF.ProjectId,PWM-TRANSISTOR-PCB,50574d2d-5452-4414-9e53-4953544f522d,rev?*
G04 #@! TF.SameCoordinates,Original*
G04 #@! TF.FileFunction,Profile,NP*
G04 Gerber Fmt 4.6, Leading zero omitted, Abs format (unit mm)*
G04 Created by KiCad (PCBNEW (6.0.5)) date 2022-08-01 19:03:23*
G01*
G04 APERTURE LIST*
G04 #@! TA.AperFunction,Profile*
G04 #@! TD*
G04 APERTURE END LIST*
D26*
X0000962381Y0001869232D02*
X0000194881Y0001869232D01*
X0001099881Y0001734232D02*
G75*
G03*
X0000962388Y0001869112I-0000130000J0000004999D01*
G01*
X0000059880Y0001064112D02*
G75*
G03*
X0000197374Y0000929232I0000130001J-0000004998D01*
G01*
X0000197381Y0000929232D02*
X0000964881Y0000926732D01*
X0000964881Y0000926732D02*
G75*
G03*
X0001099761Y0001064225I0000004999J0000130000D01*
G01*
X0000060001Y0001731739D02*
X0000059881Y0001064232D01*
X0001099761Y0001064225D02*
X0001099881Y0001734232D01*
X0000194881Y0001869232D02*
G75*
G03*
X0000060001Y0001731739I-0000004999J-0000130000D01*
G01*
G04 next file*
G04 #@! TF.GenerationSoftware,KiCad,Pcbnew,(6.0.5)*
G04 #@! TF.CreationDate,2022-08-01T19:03:23+01:00*
G04 #@! TF.ProjectId,PWM-TRANSISTOR-PCB,50574d2d-5452-4414-9e53-4953544f522d,rev?*
G04 #@! TF.SameCoordinates,Original*
G04 #@! TF.FileFunction,Profile,NP*
G04 Gerber Fmt 4.6, Leading zero omitted, Abs format (unit mm)*
G04 Created by KiCad (PCBNEW (6.0.5)) date 2022-08-01 19:03:23*
G01*
G04 APERTURE LIST*
G04 #@! TA.AperFunction,Profile*
G04 #@! TD*
G04 APERTURE END LIST*
D27*
X0002104114Y0001869232D02*
X0001336614Y0001869232D01*
X0002241614Y0001734232D02*
G75*
G03*
X0002104121Y0001869112I-0000130000J0000004999D01*
G01*
X0001201612Y0001064112D02*
G75*
G03*
X0001339107Y0000929232I0000130001J-0000004998D01*
G01*
X0001339114Y0000929232D02*
X0002106614Y0000926732D01*
X0002106614Y0000926732D02*
G75*
G03*
X0002241494Y0001064225I0000004999J0000130000D01*
G01*
X0001201734Y0001731739D02*
X0001201614Y0001064232D01*
X0002241494Y0001064225D02*
X0002241614Y0001734232D01*
X0001336614Y0001869232D02*
G75*
G03*
X0001201734Y0001731739I-0000004999J-0000130000D01*
G01*
G04 next file*
G04 #@! TF.GenerationSoftware,KiCad,Pcbnew,(6.0.5)*
G04 #@! TF.CreationDate,2022-08-01T19:03:23+01:00*
G04 #@! TF.ProjectId,PWM-TRANSISTOR-PCB,50574d2d-5452-4414-9e53-4953544f522d,rev?*
G04 #@! TF.SameCoordinates,Original*
G04 #@! TF.FileFunction,Profile,NP*
G04 Gerber Fmt 4.6, Leading zero omitted, Abs format (unit mm)*
G04 Created by KiCad (PCBNEW (6.0.5)) date 2022-08-01 19:03:23*
G01*
G04 APERTURE LIST*
G04 #@! TA.AperFunction,Profile*
G04 #@! TD*
G04 APERTURE END LIST*
D28*
X0003245846Y0001869232D02*
X0002478346Y0001869232D01*
X0003383346Y0001734232D02*
G75*
G03*
X0003245853Y0001869112I-0000130000J0000004999D01*
G01*
X0002343344Y0001064112D02*
G75*
G03*
X0002480839Y0000929232I0000130001J-0000004998D01*
G01*
X0002480846Y0000929232D02*
X0003248346Y0000926732D01*
X0003248346Y0000926732D02*
G75*
G03*
X0003383226Y0001064225I0000004999J0000130000D01*
G01*
X0002343466Y0001731739D02*
X0002343346Y0001064232D01*
X0003383226Y0001064225D02*
X0003383346Y0001734232D01*
X0002478346Y0001869232D02*
G75*
G03*
X0002343466Y0001731739I-0000004999J-0000130000D01*
G01*
M02*