%
M48
METRIC,000.000
T01C0.50
%
T01
X004948Y075351
X005948Y075349
X006948Y075346
X007948Y075342
X008948Y075339
X009948Y075336
X010260Y073728
X009260Y073728
X008260Y073728
X007260Y073728
X006260Y073728
X005260Y073728
X017948Y075310
X018948Y075307
X019948Y075303
X020948Y075300
X021948Y075297
X022948Y075294
X023260Y073728
X022260Y073728
X021260Y073728
X020260Y073728
X019260Y073728
X018260Y073728
X028183Y079132
X028184Y080132
X028184Y081132
X028184Y082132
X028184Y083132
X028184Y084132
X030271Y084195
X030271Y083195
X030271Y082195
X030271Y081195
X030271Y080195
X028186Y091132
X028186Y092132
X028186Y093132
X028186Y094132
X028186Y095132
X028186Y096132
X030272Y096195
X030273Y095195
X030273Y094195
X030273Y093195
X030273Y092195
X030273Y091195
X057186Y092132
X057186Y093132
X057186Y094132
X057186Y095132
X057186Y096132
X057060Y097120
X059417Y097180
X059272Y096195
X059273Y095195
X059273Y094195
X059273Y093195
X059273Y092195
X057184Y081132
X057184Y082132
X057184Y083132
X057184Y084132
X057185Y085132
X057185Y086132
X059272Y085195
X059271Y084195
X059271Y083195
X059271Y082195
X059271Y081195
X034948Y075349
X035948Y075346
X036948Y075342
X037948Y075339
X038948Y075336
X039948Y075333
X040260Y073728
X039260Y073728
X038260Y073728
X037260Y073728
X036260Y073728
X035260Y073728
X048948Y075303
X049948Y075300
X050948Y075297
X051948Y075294
X052948Y075290
X053260Y073728
X052260Y073728
X051260Y073728
X050260Y073728
X049260Y073728
X062948Y075351
X063948Y075349
X064948Y075346
X065948Y075342
X066948Y075339
X067948Y075336
X068260Y073728
X067260Y073728
X066260Y073728
X065260Y073728
X064260Y073728
X063260Y073728
X075948Y075310
X076948Y075307
X077948Y075303
X078948Y075300
X079948Y075297
X080948Y075294
X080260Y073728
X079260Y073728
X078260Y073728
X077260Y073728
X076260Y073728
X057186Y066132
X057186Y067132
X057186Y068132
X057186Y069132
X057186Y070132
X059272Y070195
X059273Y069195
X059273Y068195
X059273Y067195
X059273Y066195
X059273Y065195
X057183Y053132
X057184Y054132
X057184Y055132
X057184Y056132
X057184Y057132
X057184Y058132
X059271Y058195
X059271Y057195
X059271Y056195
X059271Y055195
X059271Y054195
X059270Y053195
X028186Y065132
X028186Y066132
X028186Y067132
X028186Y068132
X028186Y069132
X028186Y070132
X030272Y070195
X030273Y069195
X030273Y068195
X030273Y067195
X030273Y066195
X028184Y054132
X028184Y055132
X028184Y056132
X028184Y057132
X028184Y058132
X028185Y059132
X030272Y059195
X030271Y058195
X030271Y057195
X030271Y056195
X030271Y055195
X030271Y054195
X004948Y049351
X005948Y049349
X006948Y049346
X007948Y049342
X008948Y049339
X009948Y049336
X009260Y047728
X008260Y047728
X007260Y047728
X006260Y047728
X005260Y047728
X017948Y049310
X018948Y049307
X019948Y049303
X020948Y049300
X021948Y049297
X022948Y049294
X023260Y047728
X022260Y047728
X021260Y047728
X020260Y047728
X019260Y047728
X018260Y047728
X033948Y049351
X034948Y049349
X035948Y049346
X036948Y049342
X037948Y049339
X038948Y049336
X039260Y047728
X038260Y047728
X037260Y047728
X036260Y047728
X035260Y047728
X034260Y047728
X046948Y049310
X047948Y049307
X048948Y049303
X049948Y049300
X050948Y049297
X051260Y047728
X050260Y047728
X049260Y047728
X048260Y047728
X047260Y047728
X046260Y047728
X028186Y040132
X028186Y041132
X028186Y042132
X028186Y043132
X028186Y044132
X030272Y044195
X030273Y043195
X030273Y042195
X030273Y041195
X030273Y040195
X028183Y027132
X028184Y028132
X028184Y029132
X028184Y030132
X028184Y031132
X028184Y032132
X030271Y032195
X030271Y031195
X030271Y030195
X030271Y029195
X030271Y028195
X057186Y040132
X057186Y041132
X057186Y042132
X057186Y043132
X057186Y044132
X059272Y044195
X059273Y043195
X059273Y042195
X059273Y041195
X059273Y040195
X057184Y028132
X057184Y029132
X057184Y030132
X057184Y031132
X057184Y032132
X059271Y032195
X059271Y031195
X059271Y030195
X059271Y029195
X059271Y028195
X062948Y049351
X063948Y049349
X064948Y049346
X065948Y049342
X066948Y049339
X067948Y049336
X067260Y047728
X066260Y047728
X065260Y047728
X064260Y047728
X063260Y047728
X075948Y049310
X076948Y049307
X077948Y049303
X078948Y049300
X079948Y049297
X080260Y047728
X079260Y047728
X078260Y047728
X077260Y047728
X076260Y047728
X075260Y047728
M30