%MOIN*%
%OFA0B0*%
%FSLAX46Y46*%
%IPPOS*%
%LPD*%
%AMRoundRect*
4,1,4,
0.07874015748031496,0.11811023622047245,
0.15748031496062992,0.19685039370078741,
0.23622047244094491,0.27559055118110237,
0.31496062992125984,0.35433070866141736,
0.07874015748031496,0.11811023622047245,
0*
1,1,$1,$2,$3*
1,1,$1,$2,$3*
1,1,$1,$2,$3*
1,1,$1,$2,$3*
20,1,$1,$2,$3,$4,$5,0*
20,1,$1,$2,$3,$4,$5,0*
20,1,$1,$2,$3,$4,$5,0*
20,1,$1,$2,$3,$4,$5,0*%
%AMCOMP3*
4,1,3,
-0.015748031496062995,-0.024606299212598427,
0.015748031496062995,-0.024606299212598427,
0.015748031496062995,0.024606299212598427,
-0.015748031496062995,0.024606299212598427,
0*
4,1,19,
-0.015748031496062995,-0.014763779527559057,
-0.012706525645915873,-0.015245506729378409,
-0.0099627435797984935,-0.016643533519931621,
-0.0077852658033961877,-0.018821011296333928,
-0.0063872390128429787,-0.021564793362451307,
-0.0059055118110236228,-0.024606299212598427,
-0.006387239012842977,-0.027647805062745546,
-0.0077852658033961877,-0.030391587128862925,
-0.0099627435797984918,-0.032569064905265233,
-0.012706525645915873,-0.033967091695818442,
-0.015748031496062992,-0.034448818897637797,
-0.018789537346210118,-0.033967091695818442,
-0.02153331941232749,-0.032569064905265233,
-0.0237107971887298,-0.030391587128862928,
-0.025108823979283011,-0.027647805062745546,
-0.025590551181102365,-0.024606299212598427,
-0.025108823979283011,-0.021564793362451307,
-0.0237107971887298,-0.018821011296333928,
-0.021533319412327497,-0.016643533519931621,
-0.018789537346210118,-0.015245506729378409,
0*
4,1,19,
0.015748031496062995,-0.014763779527559057,
0.018789537346210115,-0.015245506729378409,
0.02153331941232749,-0.016643533519931621,
0.0237107971887298,-0.018821011296333928,
0.025108823979283011,-0.021564793362451307,
0.025590551181102365,-0.024606299212598427,
0.025108823979283011,-0.027647805062745546,
0.0237107971887298,-0.030391587128862925,
0.021533319412327497,-0.032569064905265233,
0.018789537346210115,-0.033967091695818442,
0.015748031496062995,-0.034448818897637797,
0.012706525645915871,-0.033967091695818442,
0.009962743579798497,-0.032569064905265233,
0.0077852658033961885,-0.030391587128862928,
0.0063872390128429787,-0.027647805062745546,
0.0059055118110236228,-0.024606299212598427,
0.006387239012842977,-0.021564793362451307,
0.0077852658033961868,-0.018821011296333928,
0.0099627435797984918,-0.016643533519931621,
0.012706525645915871,-0.015245506729378409,
0*
4,1,19,
0.015748031496062995,0.034448818897637797,
0.018789537346210115,0.033967091695818442,
0.02153331941232749,0.032569064905265233,
0.0237107971887298,0.030391587128862928,
0.025108823979283011,0.027647805062745546,
0.025590551181102365,0.024606299212598427,
0.025108823979283011,0.021564793362451307,
0.0237107971887298,0.018821011296333928,
0.021533319412327497,0.016643533519931621,
0.018789537346210115,0.015245506729378409,
0.015748031496062995,0.014763779527559057,
0.012706525645915871,0.015245506729378409,
0.009962743579798497,0.016643533519931621,
0.0077852658033961885,0.018821011296333925,
0.0063872390128429787,0.021564793362451307,
0.0059055118110236228,0.024606299212598427,
0.006387239012842977,0.027647805062745546,
0.0077852658033961868,0.030391587128862925,
0.0099627435797984918,0.032569064905265233,
0.012706525645915871,0.033967091695818442,
0*
4,1,19,
-0.015748031496062995,0.034448818897637797,
-0.012706525645915873,0.033967091695818442,
-0.0099627435797984935,0.032569064905265233,
-0.0077852658033961877,0.030391587128862928,
-0.0063872390128429787,0.027647805062745546,
-0.0059055118110236228,0.024606299212598427,
-0.006387239012842977,0.021564793362451307,
-0.0077852658033961877,0.018821011296333928,
-0.0099627435797984918,0.016643533519931621,
-0.012706525645915873,0.015245506729378409,
-0.015748031496062992,0.014763779527559057,
-0.018789537346210118,0.015245506729378409,
-0.02153331941232749,0.016643533519931621,
-0.0237107971887298,0.018821011296333925,
-0.025108823979283011,0.021564793362451307,
-0.025590551181102365,0.024606299212598427,
-0.025108823979283011,0.027647805062745546,
-0.0237107971887298,0.030391587128862925,
-0.021533319412327497,0.032569064905265233,
-0.018789537346210118,0.033967091695818442,
0*
4,1,3,
-0.015748031496062995,-0.034448818897637797,
-0.015748031496062995,-0.014763779527559057,
0.015748031496062995,-0.014763779527559057,
0.015748031496062995,-0.034448818897637797,
0*
4,1,3,
0.025590551181102365,-0.024606299212598427,
0.0059055118110236228,-0.024606299212598427,
0.0059055118110236228,0.024606299212598427,
0.025590551181102365,0.024606299212598427,
0*
4,1,3,
0.015748031496062995,0.034448818897637797,
0.015748031496062995,0.014763779527559057,
-0.015748031496062995,0.014763779527559057,
-0.015748031496062995,0.034448818897637797,
0*
4,1,3,
-0.025590551181102365,0.024606299212598427,
-0.0059055118110236228,0.024606299212598427,
-0.0059055118110236228,-0.024606299212598427,
-0.025590551181102365,-0.024606299212598427,
0*%
%AMCOMP4*
4,1,3,
0.015748031496062995,0.024606299212598427,
-0.015748031496062995,0.024606299212598427,
-0.015748031496062995,-0.024606299212598427,
0.015748031496062995,-0.024606299212598427,
0*
4,1,19,
0.015748031496062995,0.034448818897637797,
0.018789537346210115,0.033967091695818442,
0.02153331941232749,0.032569064905265233,
0.0237107971887298,0.030391587128862928,
0.025108823979283011,0.027647805062745546,
0.025590551181102365,0.024606299212598427,
0.025108823979283011,0.021564793362451307,
0.0237107971887298,0.018821011296333928,
0.021533319412327497,0.016643533519931621,
0.018789537346210115,0.015245506729378409,
0.015748031496062995,0.014763779527559057,
0.012706525645915871,0.015245506729378409,
0.009962743579798497,0.016643533519931621,
0.0077852658033961885,0.018821011296333925,
0.0063872390128429787,0.021564793362451307,
0.0059055118110236228,0.024606299212598427,
0.006387239012842977,0.027647805062745546,
0.0077852658033961868,0.030391587128862925,
0.0099627435797984918,0.032569064905265233,
0.012706525645915871,0.033967091695818442,
0*
4,1,19,
-0.015748031496062995,0.034448818897637797,
-0.012706525645915873,0.033967091695818442,
-0.0099627435797984935,0.032569064905265233,
-0.0077852658033961877,0.030391587128862928,
-0.0063872390128429787,0.027647805062745546,
-0.0059055118110236228,0.024606299212598427,
-0.006387239012842977,0.021564793362451307,
-0.0077852658033961877,0.018821011296333928,
-0.0099627435797984918,0.016643533519931621,
-0.012706525645915873,0.015245506729378409,
-0.015748031496062992,0.014763779527559057,
-0.018789537346210118,0.015245506729378409,
-0.02153331941232749,0.016643533519931621,
-0.0237107971887298,0.018821011296333925,
-0.025108823979283011,0.021564793362451307,
-0.025590551181102365,0.024606299212598427,
-0.025108823979283011,0.027647805062745546,
-0.0237107971887298,0.030391587128862925,
-0.021533319412327497,0.032569064905265233,
-0.018789537346210118,0.033967091695818442,
0*
4,1,19,
-0.015748031496062995,-0.014763779527559057,
-0.012706525645915873,-0.015245506729378409,
-0.0099627435797984935,-0.016643533519931621,
-0.0077852658033961877,-0.018821011296333928,
-0.0063872390128429787,-0.021564793362451307,
-0.0059055118110236228,-0.024606299212598427,
-0.006387239012842977,-0.027647805062745546,
-0.0077852658033961877,-0.030391587128862925,
-0.0099627435797984918,-0.032569064905265233,
-0.012706525645915873,-0.033967091695818442,
-0.015748031496062992,-0.034448818897637797,
-0.018789537346210118,-0.033967091695818442,
-0.02153331941232749,-0.032569064905265233,
-0.0237107971887298,-0.030391587128862928,
-0.025108823979283011,-0.027647805062745546,
-0.025590551181102365,-0.024606299212598427,
-0.025108823979283011,-0.021564793362451307,
-0.0237107971887298,-0.018821011296333928,
-0.021533319412327497,-0.016643533519931621,
-0.018789537346210118,-0.015245506729378409,
0*
4,1,19,
0.015748031496062995,-0.014763779527559057,
0.018789537346210115,-0.015245506729378409,
0.02153331941232749,-0.016643533519931621,
0.0237107971887298,-0.018821011296333928,
0.025108823979283011,-0.021564793362451307,
0.025590551181102365,-0.024606299212598427,
0.025108823979283011,-0.027647805062745546,
0.0237107971887298,-0.030391587128862925,
0.021533319412327497,-0.032569064905265233,
0.018789537346210115,-0.033967091695818442,
0.015748031496062995,-0.034448818897637797,
0.012706525645915871,-0.033967091695818442,
0.009962743579798497,-0.032569064905265233,
0.0077852658033961885,-0.030391587128862928,
0.0063872390128429787,-0.027647805062745546,
0.0059055118110236228,-0.024606299212598427,
0.006387239012842977,-0.021564793362451307,
0.0077852658033961868,-0.018821011296333928,
0.0099627435797984918,-0.016643533519931621,
0.012706525645915871,-0.015245506729378409,
0*
4,1,3,
0.015748031496062995,0.034448818897637797,
0.015748031496062995,0.014763779527559057,
-0.015748031496062995,0.014763779527559057,
-0.015748031496062995,0.034448818897637797,
0*
4,1,3,
-0.025590551181102365,0.024606299212598427,
-0.0059055118110236228,0.024606299212598427,
-0.0059055118110236228,-0.024606299212598427,
-0.025590551181102365,-0.024606299212598427,
0*
4,1,3,
-0.015748031496062995,-0.034448818897637797,
-0.015748031496062995,-0.014763779527559057,
0.015748031496062995,-0.014763779527559057,
0.015748031496062995,-0.034448818897637797,
0*
4,1,3,
0.025590551181102365,-0.024606299212598427,
0.0059055118110236228,-0.024606299212598427,
0.0059055118110236228,0.024606299212598427,
0.025590551181102365,0.024606299212598427,
0*%
%AMRoundRect0*
4,1,4,
0.07874015748031496,0.11811023622047245,
0.15748031496062992,0.19685039370078741,
0.23622047244094491,0.27559055118110237,
0.31496062992125984,0.35433070866141736,
0.07874015748031496,0.11811023622047245,
0*
1,1,$1,$2,$3*
1,1,$1,$2,$3*
1,1,$1,$2,$3*
1,1,$1,$2,$3*
20,1,$1,$2,$3,$4,$5,0*
20,1,$1,$2,$3,$4,$5,0*
20,1,$1,$2,$3,$4,$5,0*
20,1,$1,$2,$3,$4,$5,0*%
%AMCOMP110*
4,1,3,
-0.015748031496062995,-0.024606299212598427,
0.015748031496062995,-0.024606299212598427,
0.015748031496062995,0.024606299212598427,
-0.015748031496062995,0.024606299212598427,
0*
4,1,19,
-0.015748031496062995,-0.014763779527559057,
-0.012706525645915873,-0.015245506729378409,
-0.0099627435797984935,-0.016643533519931621,
-0.0077852658033961877,-0.018821011296333928,
-0.0063872390128429787,-0.021564793362451307,
-0.0059055118110236228,-0.024606299212598427,
-0.006387239012842977,-0.027647805062745546,
-0.0077852658033961877,-0.030391587128862925,
-0.0099627435797984918,-0.032569064905265233,
-0.012706525645915873,-0.033967091695818442,
-0.015748031496062992,-0.034448818897637797,
-0.018789537346210118,-0.033967091695818442,
-0.02153331941232749,-0.032569064905265233,
-0.0237107971887298,-0.030391587128862928,
-0.025108823979283011,-0.027647805062745546,
-0.025590551181102365,-0.024606299212598427,
-0.025108823979283011,-0.021564793362451307,
-0.0237107971887298,-0.018821011296333928,
-0.021533319412327497,-0.016643533519931621,
-0.018789537346210118,-0.015245506729378409,
0*
4,1,19,
0.015748031496062995,-0.014763779527559057,
0.018789537346210115,-0.015245506729378409,
0.02153331941232749,-0.016643533519931621,
0.0237107971887298,-0.018821011296333928,
0.025108823979283011,-0.021564793362451307,
0.025590551181102365,-0.024606299212598427,
0.025108823979283011,-0.027647805062745546,
0.0237107971887298,-0.030391587128862925,
0.021533319412327497,-0.032569064905265233,
0.018789537346210115,-0.033967091695818442,
0.015748031496062995,-0.034448818897637797,
0.012706525645915871,-0.033967091695818442,
0.009962743579798497,-0.032569064905265233,
0.0077852658033961885,-0.030391587128862928,
0.0063872390128429787,-0.027647805062745546,
0.0059055118110236228,-0.024606299212598427,
0.006387239012842977,-0.021564793362451307,
0.0077852658033961868,-0.018821011296333928,
0.0099627435797984918,-0.016643533519931621,
0.012706525645915871,-0.015245506729378409,
0*
4,1,19,
0.015748031496062995,0.034448818897637797,
0.018789537346210115,0.033967091695818442,
0.02153331941232749,0.032569064905265233,
0.0237107971887298,0.030391587128862928,
0.025108823979283011,0.027647805062745546,
0.025590551181102365,0.024606299212598427,
0.025108823979283011,0.021564793362451307,
0.0237107971887298,0.018821011296333928,
0.021533319412327497,0.016643533519931621,
0.018789537346210115,0.015245506729378409,
0.015748031496062995,0.014763779527559057,
0.012706525645915871,0.015245506729378409,
0.009962743579798497,0.016643533519931621,
0.0077852658033961885,0.018821011296333925,
0.0063872390128429787,0.021564793362451307,
0.0059055118110236228,0.024606299212598427,
0.006387239012842977,0.027647805062745546,
0.0077852658033961868,0.030391587128862925,
0.0099627435797984918,0.032569064905265233,
0.012706525645915871,0.033967091695818442,
0*
4,1,19,
-0.015748031496062995,0.034448818897637797,
-0.012706525645915873,0.033967091695818442,
-0.0099627435797984935,0.032569064905265233,
-0.0077852658033961877,0.030391587128862928,
-0.0063872390128429787,0.027647805062745546,
-0.0059055118110236228,0.024606299212598427,
-0.006387239012842977,0.021564793362451307,
-0.0077852658033961877,0.018821011296333928,
-0.0099627435797984918,0.016643533519931621,
-0.012706525645915873,0.015245506729378409,
-0.015748031496062992,0.014763779527559057,
-0.018789537346210118,0.015245506729378409,
-0.02153331941232749,0.016643533519931621,
-0.0237107971887298,0.018821011296333925,
-0.025108823979283011,0.021564793362451307,
-0.025590551181102365,0.024606299212598427,
-0.025108823979283011,0.027647805062745546,
-0.0237107971887298,0.030391587128862925,
-0.021533319412327497,0.032569064905265233,
-0.018789537346210118,0.033967091695818442,
0*
4,1,3,
-0.015748031496062995,-0.034448818897637797,
-0.015748031496062995,-0.014763779527559057,
0.015748031496062995,-0.014763779527559057,
0.015748031496062995,-0.034448818897637797,
0*
4,1,3,
0.025590551181102365,-0.024606299212598427,
0.0059055118110236228,-0.024606299212598427,
0.0059055118110236228,0.024606299212598427,
0.025590551181102365,0.024606299212598427,
0*
4,1,3,
0.015748031496062995,0.034448818897637797,
0.015748031496062995,0.014763779527559057,
-0.015748031496062995,0.014763779527559057,
-0.015748031496062995,0.034448818897637797,
0*
4,1,3,
-0.025590551181102365,0.024606299212598427,
-0.0059055118110236228,0.024606299212598427,
-0.0059055118110236228,-0.024606299212598427,
-0.025590551181102365,-0.024606299212598427,
0*%
%AMCOMP120*
4,1,3,
0.015748031496062995,0.024606299212598427,
-0.015748031496062995,0.024606299212598427,
-0.015748031496062995,-0.024606299212598427,
0.015748031496062995,-0.024606299212598427,
0*
4,1,19,
0.015748031496062995,0.034448818897637797,
0.018789537346210115,0.033967091695818442,
0.02153331941232749,0.032569064905265233,
0.0237107971887298,0.030391587128862928,
0.025108823979283011,0.027647805062745546,
0.025590551181102365,0.024606299212598427,
0.025108823979283011,0.021564793362451307,
0.0237107971887298,0.018821011296333928,
0.021533319412327497,0.016643533519931621,
0.018789537346210115,0.015245506729378409,
0.015748031496062995,0.014763779527559057,
0.012706525645915871,0.015245506729378409,
0.009962743579798497,0.016643533519931621,
0.0077852658033961885,0.018821011296333925,
0.0063872390128429787,0.021564793362451307,
0.0059055118110236228,0.024606299212598427,
0.006387239012842977,0.027647805062745546,
0.0077852658033961868,0.030391587128862925,
0.0099627435797984918,0.032569064905265233,
0.012706525645915871,0.033967091695818442,
0*
4,1,19,
-0.015748031496062995,0.034448818897637797,
-0.012706525645915873,0.033967091695818442,
-0.0099627435797984935,0.032569064905265233,
-0.0077852658033961877,0.030391587128862928,
-0.0063872390128429787,0.027647805062745546,
-0.0059055118110236228,0.024606299212598427,
-0.006387239012842977,0.021564793362451307,
-0.0077852658033961877,0.018821011296333928,
-0.0099627435797984918,0.016643533519931621,
-0.012706525645915873,0.015245506729378409,
-0.015748031496062992,0.014763779527559057,
-0.018789537346210118,0.015245506729378409,
-0.02153331941232749,0.016643533519931621,
-0.0237107971887298,0.018821011296333925,
-0.025108823979283011,0.021564793362451307,
-0.025590551181102365,0.024606299212598427,
-0.025108823979283011,0.027647805062745546,
-0.0237107971887298,0.030391587128862925,
-0.021533319412327497,0.032569064905265233,
-0.018789537346210118,0.033967091695818442,
0*
4,1,19,
-0.015748031496062995,-0.014763779527559057,
-0.012706525645915873,-0.015245506729378409,
-0.0099627435797984935,-0.016643533519931621,
-0.0077852658033961877,-0.018821011296333928,
-0.0063872390128429787,-0.021564793362451307,
-0.0059055118110236228,-0.024606299212598427,
-0.006387239012842977,-0.027647805062745546,
-0.0077852658033961877,-0.030391587128862925,
-0.0099627435797984918,-0.032569064905265233,
-0.012706525645915873,-0.033967091695818442,
-0.015748031496062992,-0.034448818897637797,
-0.018789537346210118,-0.033967091695818442,
-0.02153331941232749,-0.032569064905265233,
-0.0237107971887298,-0.030391587128862928,
-0.025108823979283011,-0.027647805062745546,
-0.025590551181102365,-0.024606299212598427,
-0.025108823979283011,-0.021564793362451307,
-0.0237107971887298,-0.018821011296333928,
-0.021533319412327497,-0.016643533519931621,
-0.018789537346210118,-0.015245506729378409,
0*
4,1,19,
0.015748031496062995,-0.014763779527559057,
0.018789537346210115,-0.015245506729378409,
0.02153331941232749,-0.016643533519931621,
0.0237107971887298,-0.018821011296333928,
0.025108823979283011,-0.021564793362451307,
0.025590551181102365,-0.024606299212598427,
0.025108823979283011,-0.027647805062745546,
0.0237107971887298,-0.030391587128862925,
0.021533319412327497,-0.032569064905265233,
0.018789537346210115,-0.033967091695818442,
0.015748031496062995,-0.034448818897637797,
0.012706525645915871,-0.033967091695818442,
0.009962743579798497,-0.032569064905265233,
0.0077852658033961885,-0.030391587128862928,
0.0063872390128429787,-0.027647805062745546,
0.0059055118110236228,-0.024606299212598427,
0.006387239012842977,-0.021564793362451307,
0.0077852658033961868,-0.018821011296333928,
0.0099627435797984918,-0.016643533519931621,
0.012706525645915871,-0.015245506729378409,
0*
4,1,3,
0.015748031496062995,0.034448818897637797,
0.015748031496062995,0.014763779527559057,
-0.015748031496062995,0.014763779527559057,
-0.015748031496062995,0.034448818897637797,
0*
4,1,3,
-0.025590551181102365,0.024606299212598427,
-0.0059055118110236228,0.024606299212598427,
-0.0059055118110236228,-0.024606299212598427,
-0.025590551181102365,-0.024606299212598427,
0*
4,1,3,
-0.015748031496062995,-0.034448818897637797,
-0.015748031496062995,-0.014763779527559057,
0.015748031496062995,-0.014763779527559057,
0.015748031496062995,-0.034448818897637797,
0*
4,1,3,
0.025590551181102365,-0.024606299212598427,
0.0059055118110236228,-0.024606299212598427,
0.0059055118110236228,0.024606299212598427,
0.025590551181102365,0.024606299212598427,
0*%
%AMRoundRect1*
4,1,4,
0.07874015748031496,0.11811023622047245,
0.15748031496062992,0.19685039370078741,
0.23622047244094491,0.27559055118110237,
0.31496062992125984,0.35433070866141736,
0.07874015748031496,0.11811023622047245,
0*
1,1,$1,$2,$3*
1,1,$1,$2,$3*
1,1,$1,$2,$3*
1,1,$1,$2,$3*
20,1,$1,$2,$3,$4,$5,0*
20,1,$1,$2,$3,$4,$5,0*
20,1,$1,$2,$3,$4,$5,0*
20,1,$1,$2,$3,$4,$5,0*%
%AMCOMP190*
4,1,3,
-0.015748031496062995,-0.024606299212598427,
0.015748031496062995,-0.024606299212598427,
0.015748031496062995,0.024606299212598427,
-0.015748031496062995,0.024606299212598427,
0*
4,1,19,
-0.015748031496062995,-0.014763779527559057,
-0.012706525645915873,-0.015245506729378409,
-0.0099627435797984935,-0.016643533519931621,
-0.0077852658033961877,-0.018821011296333928,
-0.0063872390128429787,-0.021564793362451307,
-0.0059055118110236228,-0.024606299212598427,
-0.006387239012842977,-0.027647805062745546,
-0.0077852658033961877,-0.030391587128862925,
-0.0099627435797984918,-0.032569064905265233,
-0.012706525645915873,-0.033967091695818442,
-0.015748031496062992,-0.034448818897637797,
-0.018789537346210118,-0.033967091695818442,
-0.02153331941232749,-0.032569064905265233,
-0.0237107971887298,-0.030391587128862928,
-0.025108823979283011,-0.027647805062745546,
-0.025590551181102365,-0.024606299212598427,
-0.025108823979283011,-0.021564793362451307,
-0.0237107971887298,-0.018821011296333928,
-0.021533319412327497,-0.016643533519931621,
-0.018789537346210118,-0.015245506729378409,
0*
4,1,19,
0.015748031496062995,-0.014763779527559057,
0.018789537346210115,-0.015245506729378409,
0.02153331941232749,-0.016643533519931621,
0.0237107971887298,-0.018821011296333928,
0.025108823979283011,-0.021564793362451307,
0.025590551181102365,-0.024606299212598427,
0.025108823979283011,-0.027647805062745546,
0.0237107971887298,-0.030391587128862925,
0.021533319412327497,-0.032569064905265233,
0.018789537346210115,-0.033967091695818442,
0.015748031496062995,-0.034448818897637797,
0.012706525645915871,-0.033967091695818442,
0.009962743579798497,-0.032569064905265233,
0.0077852658033961885,-0.030391587128862928,
0.0063872390128429787,-0.027647805062745546,
0.0059055118110236228,-0.024606299212598427,
0.006387239012842977,-0.021564793362451307,
0.0077852658033961868,-0.018821011296333928,
0.0099627435797984918,-0.016643533519931621,
0.012706525645915871,-0.015245506729378409,
0*
4,1,19,
0.015748031496062995,0.034448818897637797,
0.018789537346210115,0.033967091695818442,
0.02153331941232749,0.032569064905265233,
0.0237107971887298,0.030391587128862928,
0.025108823979283011,0.027647805062745546,
0.025590551181102365,0.024606299212598427,
0.025108823979283011,0.021564793362451307,
0.0237107971887298,0.018821011296333928,
0.021533319412327497,0.016643533519931621,
0.018789537346210115,0.015245506729378409,
0.015748031496062995,0.014763779527559057,
0.012706525645915871,0.015245506729378409,
0.009962743579798497,0.016643533519931621,
0.0077852658033961885,0.018821011296333925,
0.0063872390128429787,0.021564793362451307,
0.0059055118110236228,0.024606299212598427,
0.006387239012842977,0.027647805062745546,
0.0077852658033961868,0.030391587128862925,
0.0099627435797984918,0.032569064905265233,
0.012706525645915871,0.033967091695818442,
0*
4,1,19,
-0.015748031496062995,0.034448818897637797,
-0.012706525645915873,0.033967091695818442,
-0.0099627435797984935,0.032569064905265233,
-0.0077852658033961877,0.030391587128862928,
-0.0063872390128429787,0.027647805062745546,
-0.0059055118110236228,0.024606299212598427,
-0.006387239012842977,0.021564793362451307,
-0.0077852658033961877,0.018821011296333928,
-0.0099627435797984918,0.016643533519931621,
-0.012706525645915873,0.015245506729378409,
-0.015748031496062992,0.014763779527559057,
-0.018789537346210118,0.015245506729378409,
-0.02153331941232749,0.016643533519931621,
-0.0237107971887298,0.018821011296333925,
-0.025108823979283011,0.021564793362451307,
-0.025590551181102365,0.024606299212598427,
-0.025108823979283011,0.027647805062745546,
-0.0237107971887298,0.030391587128862925,
-0.021533319412327497,0.032569064905265233,
-0.018789537346210118,0.033967091695818442,
0*
4,1,3,
-0.015748031496062995,-0.034448818897637797,
-0.015748031496062995,-0.014763779527559057,
0.015748031496062995,-0.014763779527559057,
0.015748031496062995,-0.034448818897637797,
0*
4,1,3,
0.025590551181102365,-0.024606299212598427,
0.0059055118110236228,-0.024606299212598427,
0.0059055118110236228,0.024606299212598427,
0.025590551181102365,0.024606299212598427,
0*
4,1,3,
0.015748031496062995,0.034448818897637797,
0.015748031496062995,0.014763779527559057,
-0.015748031496062995,0.014763779527559057,
-0.015748031496062995,0.034448818897637797,
0*
4,1,3,
-0.025590551181102365,0.024606299212598427,
-0.0059055118110236228,0.024606299212598427,
-0.0059055118110236228,-0.024606299212598427,
-0.025590551181102365,-0.024606299212598427,
0*%
%AMCOMP200*
4,1,3,
0.015748031496062995,0.024606299212598427,
-0.015748031496062995,0.024606299212598427,
-0.015748031496062995,-0.024606299212598427,
0.015748031496062995,-0.024606299212598427,
0*
4,1,19,
0.015748031496062995,0.034448818897637797,
0.018789537346210115,0.033967091695818442,
0.02153331941232749,0.032569064905265233,
0.0237107971887298,0.030391587128862928,
0.025108823979283011,0.027647805062745546,
0.025590551181102365,0.024606299212598427,
0.025108823979283011,0.021564793362451307,
0.0237107971887298,0.018821011296333928,
0.021533319412327497,0.016643533519931621,
0.018789537346210115,0.015245506729378409,
0.015748031496062995,0.014763779527559057,
0.012706525645915871,0.015245506729378409,
0.009962743579798497,0.016643533519931621,
0.0077852658033961885,0.018821011296333925,
0.0063872390128429787,0.021564793362451307,
0.0059055118110236228,0.024606299212598427,
0.006387239012842977,0.027647805062745546,
0.0077852658033961868,0.030391587128862925,
0.0099627435797984918,0.032569064905265233,
0.012706525645915871,0.033967091695818442,
0*
4,1,19,
-0.015748031496062995,0.034448818897637797,
-0.012706525645915873,0.033967091695818442,
-0.0099627435797984935,0.032569064905265233,
-0.0077852658033961877,0.030391587128862928,
-0.0063872390128429787,0.027647805062745546,
-0.0059055118110236228,0.024606299212598427,
-0.006387239012842977,0.021564793362451307,
-0.0077852658033961877,0.018821011296333928,
-0.0099627435797984918,0.016643533519931621,
-0.012706525645915873,0.015245506729378409,
-0.015748031496062992,0.014763779527559057,
-0.018789537346210118,0.015245506729378409,
-0.02153331941232749,0.016643533519931621,
-0.0237107971887298,0.018821011296333925,
-0.025108823979283011,0.021564793362451307,
-0.025590551181102365,0.024606299212598427,
-0.025108823979283011,0.027647805062745546,
-0.0237107971887298,0.030391587128862925,
-0.021533319412327497,0.032569064905265233,
-0.018789537346210118,0.033967091695818442,
0*
4,1,19,
-0.015748031496062995,-0.014763779527559057,
-0.012706525645915873,-0.015245506729378409,
-0.0099627435797984935,-0.016643533519931621,
-0.0077852658033961877,-0.018821011296333928,
-0.0063872390128429787,-0.021564793362451307,
-0.0059055118110236228,-0.024606299212598427,
-0.006387239012842977,-0.027647805062745546,
-0.0077852658033961877,-0.030391587128862925,
-0.0099627435797984918,-0.032569064905265233,
-0.012706525645915873,-0.033967091695818442,
-0.015748031496062992,-0.034448818897637797,
-0.018789537346210118,-0.033967091695818442,
-0.02153331941232749,-0.032569064905265233,
-0.0237107971887298,-0.030391587128862928,
-0.025108823979283011,-0.027647805062745546,
-0.025590551181102365,-0.024606299212598427,
-0.025108823979283011,-0.021564793362451307,
-0.0237107971887298,-0.018821011296333928,
-0.021533319412327497,-0.016643533519931621,
-0.018789537346210118,-0.015245506729378409,
0*
4,1,19,
0.015748031496062995,-0.014763779527559057,
0.018789537346210115,-0.015245506729378409,
0.02153331941232749,-0.016643533519931621,
0.0237107971887298,-0.018821011296333928,
0.025108823979283011,-0.021564793362451307,
0.025590551181102365,-0.024606299212598427,
0.025108823979283011,-0.027647805062745546,
0.0237107971887298,-0.030391587128862925,
0.021533319412327497,-0.032569064905265233,
0.018789537346210115,-0.033967091695818442,
0.015748031496062995,-0.034448818897637797,
0.012706525645915871,-0.033967091695818442,
0.009962743579798497,-0.032569064905265233,
0.0077852658033961885,-0.030391587128862928,
0.0063872390128429787,-0.027647805062745546,
0.0059055118110236228,-0.024606299212598427,
0.006387239012842977,-0.021564793362451307,
0.0077852658033961868,-0.018821011296333928,
0.0099627435797984918,-0.016643533519931621,
0.012706525645915871,-0.015245506729378409,
0*
4,1,3,
0.015748031496062995,0.034448818897637797,
0.015748031496062995,0.014763779527559057,
-0.015748031496062995,0.014763779527559057,
-0.015748031496062995,0.034448818897637797,
0*
4,1,3,
-0.025590551181102365,0.024606299212598427,
-0.0059055118110236228,0.024606299212598427,
-0.0059055118110236228,-0.024606299212598427,
-0.025590551181102365,-0.024606299212598427,
0*
4,1,3,
-0.015748031496062995,-0.034448818897637797,
-0.015748031496062995,-0.014763779527559057,
0.015748031496062995,-0.014763779527559057,
0.015748031496062995,-0.034448818897637797,
0*
4,1,3,
0.025590551181102365,-0.024606299212598427,
0.0059055118110236228,-0.024606299212598427,
0.0059055118110236228,0.024606299212598427,
0.025590551181102365,0.024606299212598427,
0*%
%AMRoundRect0*
4,1,4,
0.07874015748031496,0.11811023622047245,
0.15748031496062992,0.19685039370078741,
0.23622047244094491,0.27559055118110237,
0.31496062992125984,0.35433070866141736,
0.07874015748031496,0.11811023622047245,
0*
1,1,$1,$2,$3*
1,1,$1,$2,$3*
1,1,$1,$2,$3*
1,1,$1,$2,$3*
20,1,$1,$2,$3,$4,$5,0*
20,1,$1,$2,$3,$4,$5,0*
20,1,$1,$2,$3,$4,$5,0*
20,1,$1,$2,$3,$4,$5,0*%
%AMCOMP270*
4,1,3,
-0.015748031496062995,-0.024606299212598427,
0.015748031496062995,-0.024606299212598427,
0.015748031496062995,0.024606299212598427,
-0.015748031496062995,0.024606299212598427,
0*
4,1,19,
-0.015748031496062995,-0.014763779527559057,
-0.012706525645915873,-0.015245506729378409,
-0.0099627435797984935,-0.016643533519931621,
-0.0077852658033961877,-0.018821011296333928,
-0.0063872390128429787,-0.021564793362451307,
-0.0059055118110236228,-0.024606299212598427,
-0.006387239012842977,-0.027647805062745546,
-0.0077852658033961877,-0.030391587128862925,
-0.0099627435797984918,-0.032569064905265233,
-0.012706525645915873,-0.033967091695818442,
-0.015748031496062992,-0.034448818897637797,
-0.018789537346210118,-0.033967091695818442,
-0.02153331941232749,-0.032569064905265233,
-0.0237107971887298,-0.030391587128862928,
-0.025108823979283011,-0.027647805062745546,
-0.025590551181102365,-0.024606299212598427,
-0.025108823979283011,-0.021564793362451307,
-0.0237107971887298,-0.018821011296333928,
-0.021533319412327497,-0.016643533519931621,
-0.018789537346210118,-0.015245506729378409,
0*
4,1,19,
0.015748031496062995,-0.014763779527559057,
0.018789537346210115,-0.015245506729378409,
0.02153331941232749,-0.016643533519931621,
0.0237107971887298,-0.018821011296333928,
0.025108823979283011,-0.021564793362451307,
0.025590551181102365,-0.024606299212598427,
0.025108823979283011,-0.027647805062745546,
0.0237107971887298,-0.030391587128862925,
0.021533319412327497,-0.032569064905265233,
0.018789537346210115,-0.033967091695818442,
0.015748031496062995,-0.034448818897637797,
0.012706525645915871,-0.033967091695818442,
0.009962743579798497,-0.032569064905265233,
0.0077852658033961885,-0.030391587128862928,
0.0063872390128429787,-0.027647805062745546,
0.0059055118110236228,-0.024606299212598427,
0.006387239012842977,-0.021564793362451307,
0.0077852658033961868,-0.018821011296333928,
0.0099627435797984918,-0.016643533519931621,
0.012706525645915871,-0.015245506729378409,
0*
4,1,19,
0.015748031496062995,0.034448818897637797,
0.018789537346210115,0.033967091695818442,
0.02153331941232749,0.032569064905265233,
0.0237107971887298,0.030391587128862928,
0.025108823979283011,0.027647805062745546,
0.025590551181102365,0.024606299212598427,
0.025108823979283011,0.021564793362451307,
0.0237107971887298,0.018821011296333928,
0.021533319412327497,0.016643533519931621,
0.018789537346210115,0.015245506729378409,
0.015748031496062995,0.014763779527559057,
0.012706525645915871,0.015245506729378409,
0.009962743579798497,0.016643533519931621,
0.0077852658033961885,0.018821011296333925,
0.0063872390128429787,0.021564793362451307,
0.0059055118110236228,0.024606299212598427,
0.006387239012842977,0.027647805062745546,
0.0077852658033961868,0.030391587128862925,
0.0099627435797984918,0.032569064905265233,
0.012706525645915871,0.033967091695818442,
0*
4,1,19,
-0.015748031496062995,0.034448818897637797,
-0.012706525645915873,0.033967091695818442,
-0.0099627435797984935,0.032569064905265233,
-0.0077852658033961877,0.030391587128862928,
-0.0063872390128429787,0.027647805062745546,
-0.0059055118110236228,0.024606299212598427,
-0.006387239012842977,0.021564793362451307,
-0.0077852658033961877,0.018821011296333928,
-0.0099627435797984918,0.016643533519931621,
-0.012706525645915873,0.015245506729378409,
-0.015748031496062992,0.014763779527559057,
-0.018789537346210118,0.015245506729378409,
-0.02153331941232749,0.016643533519931621,
-0.0237107971887298,0.018821011296333925,
-0.025108823979283011,0.021564793362451307,
-0.025590551181102365,0.024606299212598427,
-0.025108823979283011,0.027647805062745546,
-0.0237107971887298,0.030391587128862925,
-0.021533319412327497,0.032569064905265233,
-0.018789537346210118,0.033967091695818442,
0*
4,1,3,
-0.015748031496062995,-0.034448818897637797,
-0.015748031496062995,-0.014763779527559057,
0.015748031496062995,-0.014763779527559057,
0.015748031496062995,-0.034448818897637797,
0*
4,1,3,
0.025590551181102365,-0.024606299212598427,
0.0059055118110236228,-0.024606299212598427,
0.0059055118110236228,0.024606299212598427,
0.025590551181102365,0.024606299212598427,
0*
4,1,3,
0.015748031496062995,0.034448818897637797,
0.015748031496062995,0.014763779527559057,
-0.015748031496062995,0.014763779527559057,
-0.015748031496062995,0.034448818897637797,
0*
4,1,3,
-0.025590551181102365,0.024606299212598427,
-0.0059055118110236228,0.024606299212598427,
-0.0059055118110236228,-0.024606299212598427,
-0.025590551181102365,-0.024606299212598427,
0*%
%AMCOMP280*
4,1,3,
0.015748031496062995,0.024606299212598427,
-0.015748031496062995,0.024606299212598427,
-0.015748031496062995,-0.024606299212598427,
0.015748031496062995,-0.024606299212598427,
0*
4,1,19,
0.015748031496062995,0.034448818897637797,
0.018789537346210115,0.033967091695818442,
0.02153331941232749,0.032569064905265233,
0.0237107971887298,0.030391587128862928,
0.025108823979283011,0.027647805062745546,
0.025590551181102365,0.024606299212598427,
0.025108823979283011,0.021564793362451307,
0.0237107971887298,0.018821011296333928,
0.021533319412327497,0.016643533519931621,
0.018789537346210115,0.015245506729378409,
0.015748031496062995,0.014763779527559057,
0.012706525645915871,0.015245506729378409,
0.009962743579798497,0.016643533519931621,
0.0077852658033961885,0.018821011296333925,
0.0063872390128429787,0.021564793362451307,
0.0059055118110236228,0.024606299212598427,
0.006387239012842977,0.027647805062745546,
0.0077852658033961868,0.030391587128862925,
0.0099627435797984918,0.032569064905265233,
0.012706525645915871,0.033967091695818442,
0*
4,1,19,
-0.015748031496062995,0.034448818897637797,
-0.012706525645915873,0.033967091695818442,
-0.0099627435797984935,0.032569064905265233,
-0.0077852658033961877,0.030391587128862928,
-0.0063872390128429787,0.027647805062745546,
-0.0059055118110236228,0.024606299212598427,
-0.006387239012842977,0.021564793362451307,
-0.0077852658033961877,0.018821011296333928,
-0.0099627435797984918,0.016643533519931621,
-0.012706525645915873,0.015245506729378409,
-0.015748031496062992,0.014763779527559057,
-0.018789537346210118,0.015245506729378409,
-0.02153331941232749,0.016643533519931621,
-0.0237107971887298,0.018821011296333925,
-0.025108823979283011,0.021564793362451307,
-0.025590551181102365,0.024606299212598427,
-0.025108823979283011,0.027647805062745546,
-0.0237107971887298,0.030391587128862925,
-0.021533319412327497,0.032569064905265233,
-0.018789537346210118,0.033967091695818442,
0*
4,1,19,
-0.015748031496062995,-0.014763779527559057,
-0.012706525645915873,-0.015245506729378409,
-0.0099627435797984935,-0.016643533519931621,
-0.0077852658033961877,-0.018821011296333928,
-0.0063872390128429787,-0.021564793362451307,
-0.0059055118110236228,-0.024606299212598427,
-0.006387239012842977,-0.027647805062745546,
-0.0077852658033961877,-0.030391587128862925,
-0.0099627435797984918,-0.032569064905265233,
-0.012706525645915873,-0.033967091695818442,
-0.015748031496062992,-0.034448818897637797,
-0.018789537346210118,-0.033967091695818442,
-0.02153331941232749,-0.032569064905265233,
-0.0237107971887298,-0.030391587128862928,
-0.025108823979283011,-0.027647805062745546,
-0.025590551181102365,-0.024606299212598427,
-0.025108823979283011,-0.021564793362451307,
-0.0237107971887298,-0.018821011296333928,
-0.021533319412327497,-0.016643533519931621,
-0.018789537346210118,-0.015245506729378409,
0*
4,1,19,
0.015748031496062995,-0.014763779527559057,
0.018789537346210115,-0.015245506729378409,
0.02153331941232749,-0.016643533519931621,
0.0237107971887298,-0.018821011296333928,
0.025108823979283011,-0.021564793362451307,
0.025590551181102365,-0.024606299212598427,
0.025108823979283011,-0.027647805062745546,
0.0237107971887298,-0.030391587128862925,
0.021533319412327497,-0.032569064905265233,
0.018789537346210115,-0.033967091695818442,
0.015748031496062995,-0.034448818897637797,
0.012706525645915871,-0.033967091695818442,
0.009962743579798497,-0.032569064905265233,
0.0077852658033961885,-0.030391587128862928,
0.0063872390128429787,-0.027647805062745546,
0.0059055118110236228,-0.024606299212598427,
0.006387239012842977,-0.021564793362451307,
0.0077852658033961868,-0.018821011296333928,
0.0099627435797984918,-0.016643533519931621,
0.012706525645915871,-0.015245506729378409,
0*
4,1,3,
0.015748031496062995,0.034448818897637797,
0.015748031496062995,0.014763779527559057,
-0.015748031496062995,0.014763779527559057,
-0.015748031496062995,0.034448818897637797,
0*
4,1,3,
-0.025590551181102365,0.024606299212598427,
-0.0059055118110236228,0.024606299212598427,
-0.0059055118110236228,-0.024606299212598427,
-0.025590551181102365,-0.024606299212598427,
0*
4,1,3,
-0.015748031496062995,-0.034448818897637797,
-0.015748031496062995,-0.014763779527559057,
0.015748031496062995,-0.014763779527559057,
0.015748031496062995,-0.034448818897637797,
0*
4,1,3,
0.025590551181102365,-0.024606299212598427,
0.0059055118110236228,-0.024606299212598427,
0.0059055118110236228,0.024606299212598427,
0.025590551181102365,0.024606299212598427,
0*%
%AMRoundRect1*
4,1,4,
0.07874015748031496,0.11811023622047245,
0.15748031496062992,0.19685039370078741,
0.23622047244094491,0.27559055118110237,
0.31496062992125984,0.35433070866141736,
0.07874015748031496,0.11811023622047245,
0*
1,1,$1,$2,$3*
1,1,$1,$2,$3*
1,1,$1,$2,$3*
1,1,$1,$2,$3*
20,1,$1,$2,$3,$4,$5,0*
20,1,$1,$2,$3,$4,$5,0*
20,1,$1,$2,$3,$4,$5,0*
20,1,$1,$2,$3,$4,$5,0*%
%AMCOMP350*
4,1,3,
-0.015748031496062995,-0.024606299212598427,
0.015748031496062995,-0.024606299212598427,
0.015748031496062995,0.024606299212598427,
-0.015748031496062995,0.024606299212598427,
0*
4,1,19,
-0.015748031496062995,-0.014763779527559057,
-0.012706525645915873,-0.015245506729378409,
-0.0099627435797984935,-0.016643533519931621,
-0.0077852658033961877,-0.018821011296333928,
-0.0063872390128429787,-0.021564793362451307,
-0.0059055118110236228,-0.024606299212598427,
-0.006387239012842977,-0.027647805062745546,
-0.0077852658033961877,-0.030391587128862925,
-0.0099627435797984918,-0.032569064905265233,
-0.012706525645915873,-0.033967091695818442,
-0.015748031496062992,-0.034448818897637797,
-0.018789537346210118,-0.033967091695818442,
-0.02153331941232749,-0.032569064905265233,
-0.0237107971887298,-0.030391587128862928,
-0.025108823979283011,-0.027647805062745546,
-0.025590551181102365,-0.024606299212598427,
-0.025108823979283011,-0.021564793362451307,
-0.0237107971887298,-0.018821011296333928,
-0.021533319412327497,-0.016643533519931621,
-0.018789537346210118,-0.015245506729378409,
0*
4,1,19,
0.015748031496062995,-0.014763779527559057,
0.018789537346210115,-0.015245506729378409,
0.02153331941232749,-0.016643533519931621,
0.0237107971887298,-0.018821011296333928,
0.025108823979283011,-0.021564793362451307,
0.025590551181102365,-0.024606299212598427,
0.025108823979283011,-0.027647805062745546,
0.0237107971887298,-0.030391587128862925,
0.021533319412327497,-0.032569064905265233,
0.018789537346210115,-0.033967091695818442,
0.015748031496062995,-0.034448818897637797,
0.012706525645915871,-0.033967091695818442,
0.009962743579798497,-0.032569064905265233,
0.0077852658033961885,-0.030391587128862928,
0.0063872390128429787,-0.027647805062745546,
0.0059055118110236228,-0.024606299212598427,
0.006387239012842977,-0.021564793362451307,
0.0077852658033961868,-0.018821011296333928,
0.0099627435797984918,-0.016643533519931621,
0.012706525645915871,-0.015245506729378409,
0*
4,1,19,
0.015748031496062995,0.034448818897637797,
0.018789537346210115,0.033967091695818442,
0.02153331941232749,0.032569064905265233,
0.0237107971887298,0.030391587128862928,
0.025108823979283011,0.027647805062745546,
0.025590551181102365,0.024606299212598427,
0.025108823979283011,0.021564793362451307,
0.0237107971887298,0.018821011296333928,
0.021533319412327497,0.016643533519931621,
0.018789537346210115,0.015245506729378409,
0.015748031496062995,0.014763779527559057,
0.012706525645915871,0.015245506729378409,
0.009962743579798497,0.016643533519931621,
0.0077852658033961885,0.018821011296333925,
0.0063872390128429787,0.021564793362451307,
0.0059055118110236228,0.024606299212598427,
0.006387239012842977,0.027647805062745546,
0.0077852658033961868,0.030391587128862925,
0.0099627435797984918,0.032569064905265233,
0.012706525645915871,0.033967091695818442,
0*
4,1,19,
-0.015748031496062995,0.034448818897637797,
-0.012706525645915873,0.033967091695818442,
-0.0099627435797984935,0.032569064905265233,
-0.0077852658033961877,0.030391587128862928,
-0.0063872390128429787,0.027647805062745546,
-0.0059055118110236228,0.024606299212598427,
-0.006387239012842977,0.021564793362451307,
-0.0077852658033961877,0.018821011296333928,
-0.0099627435797984918,0.016643533519931621,
-0.012706525645915873,0.015245506729378409,
-0.015748031496062992,0.014763779527559057,
-0.018789537346210118,0.015245506729378409,
-0.02153331941232749,0.016643533519931621,
-0.0237107971887298,0.018821011296333925,
-0.025108823979283011,0.021564793362451307,
-0.025590551181102365,0.024606299212598427,
-0.025108823979283011,0.027647805062745546,
-0.0237107971887298,0.030391587128862925,
-0.021533319412327497,0.032569064905265233,
-0.018789537346210118,0.033967091695818442,
0*
4,1,3,
-0.015748031496062995,-0.034448818897637797,
-0.015748031496062995,-0.014763779527559057,
0.015748031496062995,-0.014763779527559057,
0.015748031496062995,-0.034448818897637797,
0*
4,1,3,
0.025590551181102365,-0.024606299212598427,
0.0059055118110236228,-0.024606299212598427,
0.0059055118110236228,0.024606299212598427,
0.025590551181102365,0.024606299212598427,
0*
4,1,3,
0.015748031496062995,0.034448818897637797,
0.015748031496062995,0.014763779527559057,
-0.015748031496062995,0.014763779527559057,
-0.015748031496062995,0.034448818897637797,
0*
4,1,3,
-0.025590551181102365,0.024606299212598427,
-0.0059055118110236228,0.024606299212598427,
-0.0059055118110236228,-0.024606299212598427,
-0.025590551181102365,-0.024606299212598427,
0*%
%AMCOMP360*
4,1,3,
0.015748031496062995,0.024606299212598427,
-0.015748031496062995,0.024606299212598427,
-0.015748031496062995,-0.024606299212598427,
0.015748031496062995,-0.024606299212598427,
0*
4,1,19,
0.015748031496062995,0.034448818897637797,
0.018789537346210115,0.033967091695818442,
0.02153331941232749,0.032569064905265233,
0.0237107971887298,0.030391587128862928,
0.025108823979283011,0.027647805062745546,
0.025590551181102365,0.024606299212598427,
0.025108823979283011,0.021564793362451307,
0.0237107971887298,0.018821011296333928,
0.021533319412327497,0.016643533519931621,
0.018789537346210115,0.015245506729378409,
0.015748031496062995,0.014763779527559057,
0.012706525645915871,0.015245506729378409,
0.009962743579798497,0.016643533519931621,
0.0077852658033961885,0.018821011296333925,
0.0063872390128429787,0.021564793362451307,
0.0059055118110236228,0.024606299212598427,
0.006387239012842977,0.027647805062745546,
0.0077852658033961868,0.030391587128862925,
0.0099627435797984918,0.032569064905265233,
0.012706525645915871,0.033967091695818442,
0*
4,1,19,
-0.015748031496062995,0.034448818897637797,
-0.012706525645915873,0.033967091695818442,
-0.0099627435797984935,0.032569064905265233,
-0.0077852658033961877,0.030391587128862928,
-0.0063872390128429787,0.027647805062745546,
-0.0059055118110236228,0.024606299212598427,
-0.006387239012842977,0.021564793362451307,
-0.0077852658033961877,0.018821011296333928,
-0.0099627435797984918,0.016643533519931621,
-0.012706525645915873,0.015245506729378409,
-0.015748031496062992,0.014763779527559057,
-0.018789537346210118,0.015245506729378409,
-0.02153331941232749,0.016643533519931621,
-0.0237107971887298,0.018821011296333925,
-0.025108823979283011,0.021564793362451307,
-0.025590551181102365,0.024606299212598427,
-0.025108823979283011,0.027647805062745546,
-0.0237107971887298,0.030391587128862925,
-0.021533319412327497,0.032569064905265233,
-0.018789537346210118,0.033967091695818442,
0*
4,1,19,
-0.015748031496062995,-0.014763779527559057,
-0.012706525645915873,-0.015245506729378409,
-0.0099627435797984935,-0.016643533519931621,
-0.0077852658033961877,-0.018821011296333928,
-0.0063872390128429787,-0.021564793362451307,
-0.0059055118110236228,-0.024606299212598427,
-0.006387239012842977,-0.027647805062745546,
-0.0077852658033961877,-0.030391587128862925,
-0.0099627435797984918,-0.032569064905265233,
-0.012706525645915873,-0.033967091695818442,
-0.015748031496062992,-0.034448818897637797,
-0.018789537346210118,-0.033967091695818442,
-0.02153331941232749,-0.032569064905265233,
-0.0237107971887298,-0.030391587128862928,
-0.025108823979283011,-0.027647805062745546,
-0.025590551181102365,-0.024606299212598427,
-0.025108823979283011,-0.021564793362451307,
-0.0237107971887298,-0.018821011296333928,
-0.021533319412327497,-0.016643533519931621,
-0.018789537346210118,-0.015245506729378409,
0*
4,1,19,
0.015748031496062995,-0.014763779527559057,
0.018789537346210115,-0.015245506729378409,
0.02153331941232749,-0.016643533519931621,
0.0237107971887298,-0.018821011296333928,
0.025108823979283011,-0.021564793362451307,
0.025590551181102365,-0.024606299212598427,
0.025108823979283011,-0.027647805062745546,
0.0237107971887298,-0.030391587128862925,
0.021533319412327497,-0.032569064905265233,
0.018789537346210115,-0.033967091695818442,
0.015748031496062995,-0.034448818897637797,
0.012706525645915871,-0.033967091695818442,
0.009962743579798497,-0.032569064905265233,
0.0077852658033961885,-0.030391587128862928,
0.0063872390128429787,-0.027647805062745546,
0.0059055118110236228,-0.024606299212598427,
0.006387239012842977,-0.021564793362451307,
0.0077852658033961868,-0.018821011296333928,
0.0099627435797984918,-0.016643533519931621,
0.012706525645915871,-0.015245506729378409,
0*
4,1,3,
0.015748031496062995,0.034448818897637797,
0.015748031496062995,0.014763779527559057,
-0.015748031496062995,0.014763779527559057,
-0.015748031496062995,0.034448818897637797,
0*
4,1,3,
-0.025590551181102365,0.024606299212598427,
-0.0059055118110236228,0.024606299212598427,
-0.0059055118110236228,-0.024606299212598427,
-0.025590551181102365,-0.024606299212598427,
0*
4,1,3,
-0.015748031496062995,-0.034448818897637797,
-0.015748031496062995,-0.014763779527559057,
0.015748031496062995,-0.014763779527559057,
0.015748031496062995,-0.034448818897637797,
0*
4,1,3,
0.025590551181102365,-0.024606299212598427,
0.0059055118110236228,-0.024606299212598427,
0.0059055118110236228,0.024606299212598427,
0.025590551181102365,0.024606299212598427,
0*%
%AMRoundRect0*
4,1,4,
0.07874015748031496,0.11811023622047245,
0.15748031496062992,0.19685039370078741,
0.23622047244094491,0.27559055118110237,
0.31496062992125984,0.35433070866141736,
0.07874015748031496,0.11811023622047245,
0*
1,1,$1,$2,$3*
1,1,$1,$2,$3*
1,1,$1,$2,$3*
1,1,$1,$2,$3*
20,1,$1,$2,$3,$4,$5,0*
20,1,$1,$2,$3,$4,$5,0*
20,1,$1,$2,$3,$4,$5,0*
20,1,$1,$2,$3,$4,$5,0*%
%AMCOMP430*
4,1,3,
-0.015748031496062995,-0.024606299212598427,
0.015748031496062995,-0.024606299212598427,
0.015748031496062995,0.024606299212598427,
-0.015748031496062995,0.024606299212598427,
0*
4,1,19,
-0.015748031496062995,-0.014763779527559057,
-0.012706525645915873,-0.015245506729378409,
-0.0099627435797984935,-0.016643533519931621,
-0.0077852658033961877,-0.018821011296333928,
-0.0063872390128429787,-0.021564793362451307,
-0.0059055118110236228,-0.024606299212598427,
-0.006387239012842977,-0.027647805062745546,
-0.0077852658033961877,-0.030391587128862925,
-0.0099627435797984918,-0.032569064905265233,
-0.012706525645915873,-0.033967091695818442,
-0.015748031496062992,-0.034448818897637797,
-0.018789537346210118,-0.033967091695818442,
-0.02153331941232749,-0.032569064905265233,
-0.0237107971887298,-0.030391587128862928,
-0.025108823979283011,-0.027647805062745546,
-0.025590551181102365,-0.024606299212598427,
-0.025108823979283011,-0.021564793362451307,
-0.0237107971887298,-0.018821011296333928,
-0.021533319412327497,-0.016643533519931621,
-0.018789537346210118,-0.015245506729378409,
0*
4,1,19,
0.015748031496062995,-0.014763779527559057,
0.018789537346210115,-0.015245506729378409,
0.02153331941232749,-0.016643533519931621,
0.0237107971887298,-0.018821011296333928,
0.025108823979283011,-0.021564793362451307,
0.025590551181102365,-0.024606299212598427,
0.025108823979283011,-0.027647805062745546,
0.0237107971887298,-0.030391587128862925,
0.021533319412327497,-0.032569064905265233,
0.018789537346210115,-0.033967091695818442,
0.015748031496062995,-0.034448818897637797,
0.012706525645915871,-0.033967091695818442,
0.009962743579798497,-0.032569064905265233,
0.0077852658033961885,-0.030391587128862928,
0.0063872390128429787,-0.027647805062745546,
0.0059055118110236228,-0.024606299212598427,
0.006387239012842977,-0.021564793362451307,
0.0077852658033961868,-0.018821011296333928,
0.0099627435797984918,-0.016643533519931621,
0.012706525645915871,-0.015245506729378409,
0*
4,1,19,
0.015748031496062995,0.034448818897637797,
0.018789537346210115,0.033967091695818442,
0.02153331941232749,0.032569064905265233,
0.0237107971887298,0.030391587128862928,
0.025108823979283011,0.027647805062745546,
0.025590551181102365,0.024606299212598427,
0.025108823979283011,0.021564793362451307,
0.0237107971887298,0.018821011296333928,
0.021533319412327497,0.016643533519931621,
0.018789537346210115,0.015245506729378409,
0.015748031496062995,0.014763779527559057,
0.012706525645915871,0.015245506729378409,
0.009962743579798497,0.016643533519931621,
0.0077852658033961885,0.018821011296333925,
0.0063872390128429787,0.021564793362451307,
0.0059055118110236228,0.024606299212598427,
0.006387239012842977,0.027647805062745546,
0.0077852658033961868,0.030391587128862925,
0.0099627435797984918,0.032569064905265233,
0.012706525645915871,0.033967091695818442,
0*
4,1,19,
-0.015748031496062995,0.034448818897637797,
-0.012706525645915873,0.033967091695818442,
-0.0099627435797984935,0.032569064905265233,
-0.0077852658033961877,0.030391587128862928,
-0.0063872390128429787,0.027647805062745546,
-0.0059055118110236228,0.024606299212598427,
-0.006387239012842977,0.021564793362451307,
-0.0077852658033961877,0.018821011296333928,
-0.0099627435797984918,0.016643533519931621,
-0.012706525645915873,0.015245506729378409,
-0.015748031496062992,0.014763779527559057,
-0.018789537346210118,0.015245506729378409,
-0.02153331941232749,0.016643533519931621,
-0.0237107971887298,0.018821011296333925,
-0.025108823979283011,0.021564793362451307,
-0.025590551181102365,0.024606299212598427,
-0.025108823979283011,0.027647805062745546,
-0.0237107971887298,0.030391587128862925,
-0.021533319412327497,0.032569064905265233,
-0.018789537346210118,0.033967091695818442,
0*
4,1,3,
-0.015748031496062995,-0.034448818897637797,
-0.015748031496062995,-0.014763779527559057,
0.015748031496062995,-0.014763779527559057,
0.015748031496062995,-0.034448818897637797,
0*
4,1,3,
0.025590551181102365,-0.024606299212598427,
0.0059055118110236228,-0.024606299212598427,
0.0059055118110236228,0.024606299212598427,
0.025590551181102365,0.024606299212598427,
0*
4,1,3,
0.015748031496062995,0.034448818897637797,
0.015748031496062995,0.014763779527559057,
-0.015748031496062995,0.014763779527559057,
-0.015748031496062995,0.034448818897637797,
0*
4,1,3,
-0.025590551181102365,0.024606299212598427,
-0.0059055118110236228,0.024606299212598427,
-0.0059055118110236228,-0.024606299212598427,
-0.025590551181102365,-0.024606299212598427,
0*%
%AMCOMP440*
4,1,3,
0.015748031496062995,0.024606299212598427,
-0.015748031496062995,0.024606299212598427,
-0.015748031496062995,-0.024606299212598427,
0.015748031496062995,-0.024606299212598427,
0*
4,1,19,
0.015748031496062995,0.034448818897637797,
0.018789537346210115,0.033967091695818442,
0.02153331941232749,0.032569064905265233,
0.0237107971887298,0.030391587128862928,
0.025108823979283011,0.027647805062745546,
0.025590551181102365,0.024606299212598427,
0.025108823979283011,0.021564793362451307,
0.0237107971887298,0.018821011296333928,
0.021533319412327497,0.016643533519931621,
0.018789537346210115,0.015245506729378409,
0.015748031496062995,0.014763779527559057,
0.012706525645915871,0.015245506729378409,
0.009962743579798497,0.016643533519931621,
0.0077852658033961885,0.018821011296333925,
0.0063872390128429787,0.021564793362451307,
0.0059055118110236228,0.024606299212598427,
0.006387239012842977,0.027647805062745546,
0.0077852658033961868,0.030391587128862925,
0.0099627435797984918,0.032569064905265233,
0.012706525645915871,0.033967091695818442,
0*
4,1,19,
-0.015748031496062995,0.034448818897637797,
-0.012706525645915873,0.033967091695818442,
-0.0099627435797984935,0.032569064905265233,
-0.0077852658033961877,0.030391587128862928,
-0.0063872390128429787,0.027647805062745546,
-0.0059055118110236228,0.024606299212598427,
-0.006387239012842977,0.021564793362451307,
-0.0077852658033961877,0.018821011296333928,
-0.0099627435797984918,0.016643533519931621,
-0.012706525645915873,0.015245506729378409,
-0.015748031496062992,0.014763779527559057,
-0.018789537346210118,0.015245506729378409,
-0.02153331941232749,0.016643533519931621,
-0.0237107971887298,0.018821011296333925,
-0.025108823979283011,0.021564793362451307,
-0.025590551181102365,0.024606299212598427,
-0.025108823979283011,0.027647805062745546,
-0.0237107971887298,0.030391587128862925,
-0.021533319412327497,0.032569064905265233,
-0.018789537346210118,0.033967091695818442,
0*
4,1,19,
-0.015748031496062995,-0.014763779527559057,
-0.012706525645915873,-0.015245506729378409,
-0.0099627435797984935,-0.016643533519931621,
-0.0077852658033961877,-0.018821011296333928,
-0.0063872390128429787,-0.021564793362451307,
-0.0059055118110236228,-0.024606299212598427,
-0.006387239012842977,-0.027647805062745546,
-0.0077852658033961877,-0.030391587128862925,
-0.0099627435797984918,-0.032569064905265233,
-0.012706525645915873,-0.033967091695818442,
-0.015748031496062992,-0.034448818897637797,
-0.018789537346210118,-0.033967091695818442,
-0.02153331941232749,-0.032569064905265233,
-0.0237107971887298,-0.030391587128862928,
-0.025108823979283011,-0.027647805062745546,
-0.025590551181102365,-0.024606299212598427,
-0.025108823979283011,-0.021564793362451307,
-0.0237107971887298,-0.018821011296333928,
-0.021533319412327497,-0.016643533519931621,
-0.018789537346210118,-0.015245506729378409,
0*
4,1,19,
0.015748031496062995,-0.014763779527559057,
0.018789537346210115,-0.015245506729378409,
0.02153331941232749,-0.016643533519931621,
0.0237107971887298,-0.018821011296333928,
0.025108823979283011,-0.021564793362451307,
0.025590551181102365,-0.024606299212598427,
0.025108823979283011,-0.027647805062745546,
0.0237107971887298,-0.030391587128862925,
0.021533319412327497,-0.032569064905265233,
0.018789537346210115,-0.033967091695818442,
0.015748031496062995,-0.034448818897637797,
0.012706525645915871,-0.033967091695818442,
0.009962743579798497,-0.032569064905265233,
0.0077852658033961885,-0.030391587128862928,
0.0063872390128429787,-0.027647805062745546,
0.0059055118110236228,-0.024606299212598427,
0.006387239012842977,-0.021564793362451307,
0.0077852658033961868,-0.018821011296333928,
0.0099627435797984918,-0.016643533519931621,
0.012706525645915871,-0.015245506729378409,
0*
4,1,3,
0.015748031496062995,0.034448818897637797,
0.015748031496062995,0.014763779527559057,
-0.015748031496062995,0.014763779527559057,
-0.015748031496062995,0.034448818897637797,
0*
4,1,3,
-0.025590551181102365,0.024606299212598427,
-0.0059055118110236228,0.024606299212598427,
-0.0059055118110236228,-0.024606299212598427,
-0.025590551181102365,-0.024606299212598427,
0*
4,1,3,
-0.015748031496062995,-0.034448818897637797,
-0.015748031496062995,-0.014763779527559057,
0.015748031496062995,-0.014763779527559057,
0.015748031496062995,-0.034448818897637797,
0*
4,1,3,
0.025590551181102365,-0.024606299212598427,
0.0059055118110236228,-0.024606299212598427,
0.0059055118110236228,0.024606299212598427,
0.025590551181102365,0.024606299212598427,
0*%
%AMRoundRect1*
4,1,4,
0.07874015748031496,0.11811023622047245,
0.15748031496062992,0.19685039370078741,
0.23622047244094491,0.27559055118110237,
0.31496062992125984,0.35433070866141736,
0.07874015748031496,0.11811023622047245,
0*
1,1,$1,$2,$3*
1,1,$1,$2,$3*
1,1,$1,$2,$3*
1,1,$1,$2,$3*
20,1,$1,$2,$3,$4,$5,0*
20,1,$1,$2,$3,$4,$5,0*
20,1,$1,$2,$3,$4,$5,0*
20,1,$1,$2,$3,$4,$5,0*%
%AMCOMP510*
4,1,3,
-0.015748031496062995,-0.024606299212598427,
0.015748031496062995,-0.024606299212598427,
0.015748031496062995,0.024606299212598427,
-0.015748031496062995,0.024606299212598427,
0*
4,1,19,
-0.015748031496062995,-0.014763779527559057,
-0.012706525645915873,-0.015245506729378409,
-0.0099627435797984935,-0.016643533519931621,
-0.0077852658033961877,-0.018821011296333928,
-0.0063872390128429787,-0.021564793362451307,
-0.0059055118110236228,-0.024606299212598427,
-0.006387239012842977,-0.027647805062745546,
-0.0077852658033961877,-0.030391587128862925,
-0.0099627435797984918,-0.032569064905265233,
-0.012706525645915873,-0.033967091695818442,
-0.015748031496062992,-0.034448818897637797,
-0.018789537346210118,-0.033967091695818442,
-0.02153331941232749,-0.032569064905265233,
-0.0237107971887298,-0.030391587128862928,
-0.025108823979283011,-0.027647805062745546,
-0.025590551181102365,-0.024606299212598427,
-0.025108823979283011,-0.021564793362451307,
-0.0237107971887298,-0.018821011296333928,
-0.021533319412327497,-0.016643533519931621,
-0.018789537346210118,-0.015245506729378409,
0*
4,1,19,
0.015748031496062995,-0.014763779527559057,
0.018789537346210115,-0.015245506729378409,
0.02153331941232749,-0.016643533519931621,
0.0237107971887298,-0.018821011296333928,
0.025108823979283011,-0.021564793362451307,
0.025590551181102365,-0.024606299212598427,
0.025108823979283011,-0.027647805062745546,
0.0237107971887298,-0.030391587128862925,
0.021533319412327497,-0.032569064905265233,
0.018789537346210115,-0.033967091695818442,
0.015748031496062995,-0.034448818897637797,
0.012706525645915871,-0.033967091695818442,
0.009962743579798497,-0.032569064905265233,
0.0077852658033961885,-0.030391587128862928,
0.0063872390128429787,-0.027647805062745546,
0.0059055118110236228,-0.024606299212598427,
0.006387239012842977,-0.021564793362451307,
0.0077852658033961868,-0.018821011296333928,
0.0099627435797984918,-0.016643533519931621,
0.012706525645915871,-0.015245506729378409,
0*
4,1,19,
0.015748031496062995,0.034448818897637797,
0.018789537346210115,0.033967091695818442,
0.02153331941232749,0.032569064905265233,
0.0237107971887298,0.030391587128862928,
0.025108823979283011,0.027647805062745546,
0.025590551181102365,0.024606299212598427,
0.025108823979283011,0.021564793362451307,
0.0237107971887298,0.018821011296333928,
0.021533319412327497,0.016643533519931621,
0.018789537346210115,0.015245506729378409,
0.015748031496062995,0.014763779527559057,
0.012706525645915871,0.015245506729378409,
0.009962743579798497,0.016643533519931621,
0.0077852658033961885,0.018821011296333925,
0.0063872390128429787,0.021564793362451307,
0.0059055118110236228,0.024606299212598427,
0.006387239012842977,0.027647805062745546,
0.0077852658033961868,0.030391587128862925,
0.0099627435797984918,0.032569064905265233,
0.012706525645915871,0.033967091695818442,
0*
4,1,19,
-0.015748031496062995,0.034448818897637797,
-0.012706525645915873,0.033967091695818442,
-0.0099627435797984935,0.032569064905265233,
-0.0077852658033961877,0.030391587128862928,
-0.0063872390128429787,0.027647805062745546,
-0.0059055118110236228,0.024606299212598427,
-0.006387239012842977,0.021564793362451307,
-0.0077852658033961877,0.018821011296333928,
-0.0099627435797984918,0.016643533519931621,
-0.012706525645915873,0.015245506729378409,
-0.015748031496062992,0.014763779527559057,
-0.018789537346210118,0.015245506729378409,
-0.02153331941232749,0.016643533519931621,
-0.0237107971887298,0.018821011296333925,
-0.025108823979283011,0.021564793362451307,
-0.025590551181102365,0.024606299212598427,
-0.025108823979283011,0.027647805062745546,
-0.0237107971887298,0.030391587128862925,
-0.021533319412327497,0.032569064905265233,
-0.018789537346210118,0.033967091695818442,
0*
4,1,3,
-0.015748031496062995,-0.034448818897637797,
-0.015748031496062995,-0.014763779527559057,
0.015748031496062995,-0.014763779527559057,
0.015748031496062995,-0.034448818897637797,
0*
4,1,3,
0.025590551181102365,-0.024606299212598427,
0.0059055118110236228,-0.024606299212598427,
0.0059055118110236228,0.024606299212598427,
0.025590551181102365,0.024606299212598427,
0*
4,1,3,
0.015748031496062995,0.034448818897637797,
0.015748031496062995,0.014763779527559057,
-0.015748031496062995,0.014763779527559057,
-0.015748031496062995,0.034448818897637797,
0*
4,1,3,
-0.025590551181102365,0.024606299212598427,
-0.0059055118110236228,0.024606299212598427,
-0.0059055118110236228,-0.024606299212598427,
-0.025590551181102365,-0.024606299212598427,
0*%
%AMCOMP520*
4,1,3,
0.015748031496062995,0.024606299212598427,
-0.015748031496062995,0.024606299212598427,
-0.015748031496062995,-0.024606299212598427,
0.015748031496062995,-0.024606299212598427,
0*
4,1,19,
0.015748031496062995,0.034448818897637797,
0.018789537346210115,0.033967091695818442,
0.02153331941232749,0.032569064905265233,
0.0237107971887298,0.030391587128862928,
0.025108823979283011,0.027647805062745546,
0.025590551181102365,0.024606299212598427,
0.025108823979283011,0.021564793362451307,
0.0237107971887298,0.018821011296333928,
0.021533319412327497,0.016643533519931621,
0.018789537346210115,0.015245506729378409,
0.015748031496062995,0.014763779527559057,
0.012706525645915871,0.015245506729378409,
0.009962743579798497,0.016643533519931621,
0.0077852658033961885,0.018821011296333925,
0.0063872390128429787,0.021564793362451307,
0.0059055118110236228,0.024606299212598427,
0.006387239012842977,0.027647805062745546,
0.0077852658033961868,0.030391587128862925,
0.0099627435797984918,0.032569064905265233,
0.012706525645915871,0.033967091695818442,
0*
4,1,19,
-0.015748031496062995,0.034448818897637797,
-0.012706525645915873,0.033967091695818442,
-0.0099627435797984935,0.032569064905265233,
-0.0077852658033961877,0.030391587128862928,
-0.0063872390128429787,0.027647805062745546,
-0.0059055118110236228,0.024606299212598427,
-0.006387239012842977,0.021564793362451307,
-0.0077852658033961877,0.018821011296333928,
-0.0099627435797984918,0.016643533519931621,
-0.012706525645915873,0.015245506729378409,
-0.015748031496062992,0.014763779527559057,
-0.018789537346210118,0.015245506729378409,
-0.02153331941232749,0.016643533519931621,
-0.0237107971887298,0.018821011296333925,
-0.025108823979283011,0.021564793362451307,
-0.025590551181102365,0.024606299212598427,
-0.025108823979283011,0.027647805062745546,
-0.0237107971887298,0.030391587128862925,
-0.021533319412327497,0.032569064905265233,
-0.018789537346210118,0.033967091695818442,
0*
4,1,19,
-0.015748031496062995,-0.014763779527559057,
-0.012706525645915873,-0.015245506729378409,
-0.0099627435797984935,-0.016643533519931621,
-0.0077852658033961877,-0.018821011296333928,
-0.0063872390128429787,-0.021564793362451307,
-0.0059055118110236228,-0.024606299212598427,
-0.006387239012842977,-0.027647805062745546,
-0.0077852658033961877,-0.030391587128862925,
-0.0099627435797984918,-0.032569064905265233,
-0.012706525645915873,-0.033967091695818442,
-0.015748031496062992,-0.034448818897637797,
-0.018789537346210118,-0.033967091695818442,
-0.02153331941232749,-0.032569064905265233,
-0.0237107971887298,-0.030391587128862928,
-0.025108823979283011,-0.027647805062745546,
-0.025590551181102365,-0.024606299212598427,
-0.025108823979283011,-0.021564793362451307,
-0.0237107971887298,-0.018821011296333928,
-0.021533319412327497,-0.016643533519931621,
-0.018789537346210118,-0.015245506729378409,
0*
4,1,19,
0.015748031496062995,-0.014763779527559057,
0.018789537346210115,-0.015245506729378409,
0.02153331941232749,-0.016643533519931621,
0.0237107971887298,-0.018821011296333928,
0.025108823979283011,-0.021564793362451307,
0.025590551181102365,-0.024606299212598427,
0.025108823979283011,-0.027647805062745546,
0.0237107971887298,-0.030391587128862925,
0.021533319412327497,-0.032569064905265233,
0.018789537346210115,-0.033967091695818442,
0.015748031496062995,-0.034448818897637797,
0.012706525645915871,-0.033967091695818442,
0.009962743579798497,-0.032569064905265233,
0.0077852658033961885,-0.030391587128862928,
0.0063872390128429787,-0.027647805062745546,
0.0059055118110236228,-0.024606299212598427,
0.006387239012842977,-0.021564793362451307,
0.0077852658033961868,-0.018821011296333928,
0.0099627435797984918,-0.016643533519931621,
0.012706525645915871,-0.015245506729378409,
0*
4,1,3,
0.015748031496062995,0.034448818897637797,
0.015748031496062995,0.014763779527559057,
-0.015748031496062995,0.014763779527559057,
-0.015748031496062995,0.034448818897637797,
0*
4,1,3,
-0.025590551181102365,0.024606299212598427,
-0.0059055118110236228,0.024606299212598427,
-0.0059055118110236228,-0.024606299212598427,
-0.025590551181102365,-0.024606299212598427,
0*
4,1,3,
-0.015748031496062995,-0.034448818897637797,
-0.015748031496062995,-0.014763779527559057,
0.015748031496062995,-0.014763779527559057,
0.015748031496062995,-0.034448818897637797,
0*
4,1,3,
0.025590551181102365,-0.024606299212598427,
0.0059055118110236228,-0.024606299212598427,
0.0059055118110236228,0.024606299212598427,
0.025590551181102365,0.024606299212598427,
0*%
%AMRoundRect0*
4,1,4,
0.07874015748031496,0.11811023622047245,
0.15748031496062992,0.19685039370078741,
0.23622047244094491,0.27559055118110237,
0.31496062992125984,0.35433070866141736,
0.07874015748031496,0.11811023622047245,
0*
1,1,$1,$2,$3*
1,1,$1,$2,$3*
1,1,$1,$2,$3*
1,1,$1,$2,$3*
20,1,$1,$2,$3,$4,$5,0*
20,1,$1,$2,$3,$4,$5,0*
20,1,$1,$2,$3,$4,$5,0*
20,1,$1,$2,$3,$4,$5,0*%
%AMCOMP590*
4,1,3,
-0.015748031496062995,-0.024606299212598427,
0.015748031496062995,-0.024606299212598427,
0.015748031496062995,0.024606299212598427,
-0.015748031496062995,0.024606299212598427,
0*
4,1,19,
-0.015748031496062995,-0.014763779527559057,
-0.012706525645915873,-0.015245506729378409,
-0.0099627435797984935,-0.016643533519931621,
-0.0077852658033961877,-0.018821011296333928,
-0.0063872390128429787,-0.021564793362451307,
-0.0059055118110236228,-0.024606299212598427,
-0.006387239012842977,-0.027647805062745546,
-0.0077852658033961877,-0.030391587128862925,
-0.0099627435797984918,-0.032569064905265233,
-0.012706525645915873,-0.033967091695818442,
-0.015748031496062992,-0.034448818897637797,
-0.018789537346210118,-0.033967091695818442,
-0.02153331941232749,-0.032569064905265233,
-0.0237107971887298,-0.030391587128862928,
-0.025108823979283011,-0.027647805062745546,
-0.025590551181102365,-0.024606299212598427,
-0.025108823979283011,-0.021564793362451307,
-0.0237107971887298,-0.018821011296333928,
-0.021533319412327497,-0.016643533519931621,
-0.018789537346210118,-0.015245506729378409,
0*
4,1,19,
0.015748031496062995,-0.014763779527559057,
0.018789537346210115,-0.015245506729378409,
0.02153331941232749,-0.016643533519931621,
0.0237107971887298,-0.018821011296333928,
0.025108823979283011,-0.021564793362451307,
0.025590551181102365,-0.024606299212598427,
0.025108823979283011,-0.027647805062745546,
0.0237107971887298,-0.030391587128862925,
0.021533319412327497,-0.032569064905265233,
0.018789537346210115,-0.033967091695818442,
0.015748031496062995,-0.034448818897637797,
0.012706525645915871,-0.033967091695818442,
0.009962743579798497,-0.032569064905265233,
0.0077852658033961885,-0.030391587128862928,
0.0063872390128429787,-0.027647805062745546,
0.0059055118110236228,-0.024606299212598427,
0.006387239012842977,-0.021564793362451307,
0.0077852658033961868,-0.018821011296333928,
0.0099627435797984918,-0.016643533519931621,
0.012706525645915871,-0.015245506729378409,
0*
4,1,19,
0.015748031496062995,0.034448818897637797,
0.018789537346210115,0.033967091695818442,
0.02153331941232749,0.032569064905265233,
0.0237107971887298,0.030391587128862928,
0.025108823979283011,0.027647805062745546,
0.025590551181102365,0.024606299212598427,
0.025108823979283011,0.021564793362451307,
0.0237107971887298,0.018821011296333928,
0.021533319412327497,0.016643533519931621,
0.018789537346210115,0.015245506729378409,
0.015748031496062995,0.014763779527559057,
0.012706525645915871,0.015245506729378409,
0.009962743579798497,0.016643533519931621,
0.0077852658033961885,0.018821011296333925,
0.0063872390128429787,0.021564793362451307,
0.0059055118110236228,0.024606299212598427,
0.006387239012842977,0.027647805062745546,
0.0077852658033961868,0.030391587128862925,
0.0099627435797984918,0.032569064905265233,
0.012706525645915871,0.033967091695818442,
0*
4,1,19,
-0.015748031496062995,0.034448818897637797,
-0.012706525645915873,0.033967091695818442,
-0.0099627435797984935,0.032569064905265233,
-0.0077852658033961877,0.030391587128862928,
-0.0063872390128429787,0.027647805062745546,
-0.0059055118110236228,0.024606299212598427,
-0.006387239012842977,0.021564793362451307,
-0.0077852658033961877,0.018821011296333928,
-0.0099627435797984918,0.016643533519931621,
-0.012706525645915873,0.015245506729378409,
-0.015748031496062992,0.014763779527559057,
-0.018789537346210118,0.015245506729378409,
-0.02153331941232749,0.016643533519931621,
-0.0237107971887298,0.018821011296333925,
-0.025108823979283011,0.021564793362451307,
-0.025590551181102365,0.024606299212598427,
-0.025108823979283011,0.027647805062745546,
-0.0237107971887298,0.030391587128862925,
-0.021533319412327497,0.032569064905265233,
-0.018789537346210118,0.033967091695818442,
0*
4,1,3,
-0.015748031496062995,-0.034448818897637797,
-0.015748031496062995,-0.014763779527559057,
0.015748031496062995,-0.014763779527559057,
0.015748031496062995,-0.034448818897637797,
0*
4,1,3,
0.025590551181102365,-0.024606299212598427,
0.0059055118110236228,-0.024606299212598427,
0.0059055118110236228,0.024606299212598427,
0.025590551181102365,0.024606299212598427,
0*
4,1,3,
0.015748031496062995,0.034448818897637797,
0.015748031496062995,0.014763779527559057,
-0.015748031496062995,0.014763779527559057,
-0.015748031496062995,0.034448818897637797,
0*
4,1,3,
-0.025590551181102365,0.024606299212598427,
-0.0059055118110236228,0.024606299212598427,
-0.0059055118110236228,-0.024606299212598427,
-0.025590551181102365,-0.024606299212598427,
0*%
%AMCOMP600*
4,1,3,
0.015748031496062995,0.024606299212598427,
-0.015748031496062995,0.024606299212598427,
-0.015748031496062995,-0.024606299212598427,
0.015748031496062995,-0.024606299212598427,
0*
4,1,19,
0.015748031496062995,0.034448818897637797,
0.018789537346210115,0.033967091695818442,
0.02153331941232749,0.032569064905265233,
0.0237107971887298,0.030391587128862928,
0.025108823979283011,0.027647805062745546,
0.025590551181102365,0.024606299212598427,
0.025108823979283011,0.021564793362451307,
0.0237107971887298,0.018821011296333928,
0.021533319412327497,0.016643533519931621,
0.018789537346210115,0.015245506729378409,
0.015748031496062995,0.014763779527559057,
0.012706525645915871,0.015245506729378409,
0.009962743579798497,0.016643533519931621,
0.0077852658033961885,0.018821011296333925,
0.0063872390128429787,0.021564793362451307,
0.0059055118110236228,0.024606299212598427,
0.006387239012842977,0.027647805062745546,
0.0077852658033961868,0.030391587128862925,
0.0099627435797984918,0.032569064905265233,
0.012706525645915871,0.033967091695818442,
0*
4,1,19,
-0.015748031496062995,0.034448818897637797,
-0.012706525645915873,0.033967091695818442,
-0.0099627435797984935,0.032569064905265233,
-0.0077852658033961877,0.030391587128862928,
-0.0063872390128429787,0.027647805062745546,
-0.0059055118110236228,0.024606299212598427,
-0.006387239012842977,0.021564793362451307,
-0.0077852658033961877,0.018821011296333928,
-0.0099627435797984918,0.016643533519931621,
-0.012706525645915873,0.015245506729378409,
-0.015748031496062992,0.014763779527559057,
-0.018789537346210118,0.015245506729378409,
-0.02153331941232749,0.016643533519931621,
-0.0237107971887298,0.018821011296333925,
-0.025108823979283011,0.021564793362451307,
-0.025590551181102365,0.024606299212598427,
-0.025108823979283011,0.027647805062745546,
-0.0237107971887298,0.030391587128862925,
-0.021533319412327497,0.032569064905265233,
-0.018789537346210118,0.033967091695818442,
0*
4,1,19,
-0.015748031496062995,-0.014763779527559057,
-0.012706525645915873,-0.015245506729378409,
-0.0099627435797984935,-0.016643533519931621,
-0.0077852658033961877,-0.018821011296333928,
-0.0063872390128429787,-0.021564793362451307,
-0.0059055118110236228,-0.024606299212598427,
-0.006387239012842977,-0.027647805062745546,
-0.0077852658033961877,-0.030391587128862925,
-0.0099627435797984918,-0.032569064905265233,
-0.012706525645915873,-0.033967091695818442,
-0.015748031496062992,-0.034448818897637797,
-0.018789537346210118,-0.033967091695818442,
-0.02153331941232749,-0.032569064905265233,
-0.0237107971887298,-0.030391587128862928,
-0.025108823979283011,-0.027647805062745546,
-0.025590551181102365,-0.024606299212598427,
-0.025108823979283011,-0.021564793362451307,
-0.0237107971887298,-0.018821011296333928,
-0.021533319412327497,-0.016643533519931621,
-0.018789537346210118,-0.015245506729378409,
0*
4,1,19,
0.015748031496062995,-0.014763779527559057,
0.018789537346210115,-0.015245506729378409,
0.02153331941232749,-0.016643533519931621,
0.0237107971887298,-0.018821011296333928,
0.025108823979283011,-0.021564793362451307,
0.025590551181102365,-0.024606299212598427,
0.025108823979283011,-0.027647805062745546,
0.0237107971887298,-0.030391587128862925,
0.021533319412327497,-0.032569064905265233,
0.018789537346210115,-0.033967091695818442,
0.015748031496062995,-0.034448818897637797,
0.012706525645915871,-0.033967091695818442,
0.009962743579798497,-0.032569064905265233,
0.0077852658033961885,-0.030391587128862928,
0.0063872390128429787,-0.027647805062745546,
0.0059055118110236228,-0.024606299212598427,
0.006387239012842977,-0.021564793362451307,
0.0077852658033961868,-0.018821011296333928,
0.0099627435797984918,-0.016643533519931621,
0.012706525645915871,-0.015245506729378409,
0*
4,1,3,
0.015748031496062995,0.034448818897637797,
0.015748031496062995,0.014763779527559057,
-0.015748031496062995,0.014763779527559057,
-0.015748031496062995,0.034448818897637797,
0*
4,1,3,
-0.025590551181102365,0.024606299212598427,
-0.0059055118110236228,0.024606299212598427,
-0.0059055118110236228,-0.024606299212598427,
-0.025590551181102365,-0.024606299212598427,
0*
4,1,3,
-0.015748031496062995,-0.034448818897637797,
-0.015748031496062995,-0.014763779527559057,
0.015748031496062995,-0.014763779527559057,
0.015748031496062995,-0.034448818897637797,
0*
4,1,3,
0.025590551181102365,-0.024606299212598427,
0.0059055118110236228,-0.024606299212598427,
0.0059055118110236228,0.024606299212598427,
0.025590551181102365,0.024606299212598427,
0*%
%AMRoundRect1*
4,1,4,
0.07874015748031496,0.11811023622047245,
0.15748031496062992,0.19685039370078741,
0.23622047244094491,0.27559055118110237,
0.31496062992125984,0.35433070866141736,
0.07874015748031496,0.11811023622047245,
0*
1,1,$1,$2,$3*
1,1,$1,$2,$3*
1,1,$1,$2,$3*
1,1,$1,$2,$3*
20,1,$1,$2,$3,$4,$5,0*
20,1,$1,$2,$3,$4,$5,0*
20,1,$1,$2,$3,$4,$5,0*
20,1,$1,$2,$3,$4,$5,0*%
%AMCOMP670*
4,1,3,
-0.015748031496062995,-0.024606299212598427,
0.015748031496062995,-0.024606299212598427,
0.015748031496062995,0.024606299212598427,
-0.015748031496062995,0.024606299212598427,
0*
4,1,19,
-0.015748031496062995,-0.014763779527559057,
-0.012706525645915873,-0.015245506729378409,
-0.0099627435797984935,-0.016643533519931621,
-0.0077852658033961877,-0.018821011296333928,
-0.0063872390128429787,-0.021564793362451307,
-0.0059055118110236228,-0.024606299212598427,
-0.006387239012842977,-0.027647805062745546,
-0.0077852658033961877,-0.030391587128862925,
-0.0099627435797984918,-0.032569064905265233,
-0.012706525645915873,-0.033967091695818442,
-0.015748031496062992,-0.034448818897637797,
-0.018789537346210118,-0.033967091695818442,
-0.02153331941232749,-0.032569064905265233,
-0.0237107971887298,-0.030391587128862928,
-0.025108823979283011,-0.027647805062745546,
-0.025590551181102365,-0.024606299212598427,
-0.025108823979283011,-0.021564793362451307,
-0.0237107971887298,-0.018821011296333928,
-0.021533319412327497,-0.016643533519931621,
-0.018789537346210118,-0.015245506729378409,
0*
4,1,19,
0.015748031496062995,-0.014763779527559057,
0.018789537346210115,-0.015245506729378409,
0.02153331941232749,-0.016643533519931621,
0.0237107971887298,-0.018821011296333928,
0.025108823979283011,-0.021564793362451307,
0.025590551181102365,-0.024606299212598427,
0.025108823979283011,-0.027647805062745546,
0.0237107971887298,-0.030391587128862925,
0.021533319412327497,-0.032569064905265233,
0.018789537346210115,-0.033967091695818442,
0.015748031496062995,-0.034448818897637797,
0.012706525645915871,-0.033967091695818442,
0.009962743579798497,-0.032569064905265233,
0.0077852658033961885,-0.030391587128862928,
0.0063872390128429787,-0.027647805062745546,
0.0059055118110236228,-0.024606299212598427,
0.006387239012842977,-0.021564793362451307,
0.0077852658033961868,-0.018821011296333928,
0.0099627435797984918,-0.016643533519931621,
0.012706525645915871,-0.015245506729378409,
0*
4,1,19,
0.015748031496062995,0.034448818897637797,
0.018789537346210115,0.033967091695818442,
0.02153331941232749,0.032569064905265233,
0.0237107971887298,0.030391587128862928,
0.025108823979283011,0.027647805062745546,
0.025590551181102365,0.024606299212598427,
0.025108823979283011,0.021564793362451307,
0.0237107971887298,0.018821011296333928,
0.021533319412327497,0.016643533519931621,
0.018789537346210115,0.015245506729378409,
0.015748031496062995,0.014763779527559057,
0.012706525645915871,0.015245506729378409,
0.009962743579798497,0.016643533519931621,
0.0077852658033961885,0.018821011296333925,
0.0063872390128429787,0.021564793362451307,
0.0059055118110236228,0.024606299212598427,
0.006387239012842977,0.027647805062745546,
0.0077852658033961868,0.030391587128862925,
0.0099627435797984918,0.032569064905265233,
0.012706525645915871,0.033967091695818442,
0*
4,1,19,
-0.015748031496062995,0.034448818897637797,
-0.012706525645915873,0.033967091695818442,
-0.0099627435797984935,0.032569064905265233,
-0.0077852658033961877,0.030391587128862928,
-0.0063872390128429787,0.027647805062745546,
-0.0059055118110236228,0.024606299212598427,
-0.006387239012842977,0.021564793362451307,
-0.0077852658033961877,0.018821011296333928,
-0.0099627435797984918,0.016643533519931621,
-0.012706525645915873,0.015245506729378409,
-0.015748031496062992,0.014763779527559057,
-0.018789537346210118,0.015245506729378409,
-0.02153331941232749,0.016643533519931621,
-0.0237107971887298,0.018821011296333925,
-0.025108823979283011,0.021564793362451307,
-0.025590551181102365,0.024606299212598427,
-0.025108823979283011,0.027647805062745546,
-0.0237107971887298,0.030391587128862925,
-0.021533319412327497,0.032569064905265233,
-0.018789537346210118,0.033967091695818442,
0*
4,1,3,
-0.015748031496062995,-0.034448818897637797,
-0.015748031496062995,-0.014763779527559057,
0.015748031496062995,-0.014763779527559057,
0.015748031496062995,-0.034448818897637797,
0*
4,1,3,
0.025590551181102365,-0.024606299212598427,
0.0059055118110236228,-0.024606299212598427,
0.0059055118110236228,0.024606299212598427,
0.025590551181102365,0.024606299212598427,
0*
4,1,3,
0.015748031496062995,0.034448818897637797,
0.015748031496062995,0.014763779527559057,
-0.015748031496062995,0.014763779527559057,
-0.015748031496062995,0.034448818897637797,
0*
4,1,3,
-0.025590551181102365,0.024606299212598427,
-0.0059055118110236228,0.024606299212598427,
-0.0059055118110236228,-0.024606299212598427,
-0.025590551181102365,-0.024606299212598427,
0*%
%AMCOMP680*
4,1,3,
0.015748031496062995,0.024606299212598427,
-0.015748031496062995,0.024606299212598427,
-0.015748031496062995,-0.024606299212598427,
0.015748031496062995,-0.024606299212598427,
0*
4,1,19,
0.015748031496062995,0.034448818897637797,
0.018789537346210115,0.033967091695818442,
0.02153331941232749,0.032569064905265233,
0.0237107971887298,0.030391587128862928,
0.025108823979283011,0.027647805062745546,
0.025590551181102365,0.024606299212598427,
0.025108823979283011,0.021564793362451307,
0.0237107971887298,0.018821011296333928,
0.021533319412327497,0.016643533519931621,
0.018789537346210115,0.015245506729378409,
0.015748031496062995,0.014763779527559057,
0.012706525645915871,0.015245506729378409,
0.009962743579798497,0.016643533519931621,
0.0077852658033961885,0.018821011296333925,
0.0063872390128429787,0.021564793362451307,
0.0059055118110236228,0.024606299212598427,
0.006387239012842977,0.027647805062745546,
0.0077852658033961868,0.030391587128862925,
0.0099627435797984918,0.032569064905265233,
0.012706525645915871,0.033967091695818442,
0*
4,1,19,
-0.015748031496062995,0.034448818897637797,
-0.012706525645915873,0.033967091695818442,
-0.0099627435797984935,0.032569064905265233,
-0.0077852658033961877,0.030391587128862928,
-0.0063872390128429787,0.027647805062745546,
-0.0059055118110236228,0.024606299212598427,
-0.006387239012842977,0.021564793362451307,
-0.0077852658033961877,0.018821011296333928,
-0.0099627435797984918,0.016643533519931621,
-0.012706525645915873,0.015245506729378409,
-0.015748031496062992,0.014763779527559057,
-0.018789537346210118,0.015245506729378409,
-0.02153331941232749,0.016643533519931621,
-0.0237107971887298,0.018821011296333925,
-0.025108823979283011,0.021564793362451307,
-0.025590551181102365,0.024606299212598427,
-0.025108823979283011,0.027647805062745546,
-0.0237107971887298,0.030391587128862925,
-0.021533319412327497,0.032569064905265233,
-0.018789537346210118,0.033967091695818442,
0*
4,1,19,
-0.015748031496062995,-0.014763779527559057,
-0.012706525645915873,-0.015245506729378409,
-0.0099627435797984935,-0.016643533519931621,
-0.0077852658033961877,-0.018821011296333928,
-0.0063872390128429787,-0.021564793362451307,
-0.0059055118110236228,-0.024606299212598427,
-0.006387239012842977,-0.027647805062745546,
-0.0077852658033961877,-0.030391587128862925,
-0.0099627435797984918,-0.032569064905265233,
-0.012706525645915873,-0.033967091695818442,
-0.015748031496062992,-0.034448818897637797,
-0.018789537346210118,-0.033967091695818442,
-0.02153331941232749,-0.032569064905265233,
-0.0237107971887298,-0.030391587128862928,
-0.025108823979283011,-0.027647805062745546,
-0.025590551181102365,-0.024606299212598427,
-0.025108823979283011,-0.021564793362451307,
-0.0237107971887298,-0.018821011296333928,
-0.021533319412327497,-0.016643533519931621,
-0.018789537346210118,-0.015245506729378409,
0*
4,1,19,
0.015748031496062995,-0.014763779527559057,
0.018789537346210115,-0.015245506729378409,
0.02153331941232749,-0.016643533519931621,
0.0237107971887298,-0.018821011296333928,
0.025108823979283011,-0.021564793362451307,
0.025590551181102365,-0.024606299212598427,
0.025108823979283011,-0.027647805062745546,
0.0237107971887298,-0.030391587128862925,
0.021533319412327497,-0.032569064905265233,
0.018789537346210115,-0.033967091695818442,
0.015748031496062995,-0.034448818897637797,
0.012706525645915871,-0.033967091695818442,
0.009962743579798497,-0.032569064905265233,
0.0077852658033961885,-0.030391587128862928,
0.0063872390128429787,-0.027647805062745546,
0.0059055118110236228,-0.024606299212598427,
0.006387239012842977,-0.021564793362451307,
0.0077852658033961868,-0.018821011296333928,
0.0099627435797984918,-0.016643533519931621,
0.012706525645915871,-0.015245506729378409,
0*
4,1,3,
0.015748031496062995,0.034448818897637797,
0.015748031496062995,0.014763779527559057,
-0.015748031496062995,0.014763779527559057,
-0.015748031496062995,0.034448818897637797,
0*
4,1,3,
-0.025590551181102365,0.024606299212598427,
-0.0059055118110236228,0.024606299212598427,
-0.0059055118110236228,-0.024606299212598427,
-0.025590551181102365,-0.024606299212598427,
0*
4,1,3,
-0.015748031496062995,-0.034448818897637797,
-0.015748031496062995,-0.014763779527559057,
0.015748031496062995,-0.014763779527559057,
0.015748031496062995,-0.034448818897637797,
0*
4,1,3,
0.025590551181102365,-0.024606299212598427,
0.0059055118110236228,-0.024606299212598427,
0.0059055118110236228,0.024606299212598427,
0.025590551181102365,0.024606299212598427,
0*%
%ADD10R,0.043307086614173235X0.043307086614173235*%
%ADD11C,0.22047244094488189*%
%ADD12R,0.066929133858267723X0.066929133858267723*%
%ADD13O,0.066929133858267723X0.066929133858267723*%
%ADD14R,0.074803149606299218X0.031496062992125991*%
%ADD15R,0.11811023622047245X0.11811023622047245*%
%ADD16C,0.11811023622047245*%
%AMCOMP73*
4,1,3,
-0.015748031496062995,-0.024606299212598427,
0.015748031496062995,-0.024606299212598427,
0.015748031496062995,0.024606299212598427,
-0.015748031496062995,0.024606299212598427,
0*
4,1,19,
-0.015748031496062995,-0.014763779527559057,
-0.012706525645915873,-0.015245506729378409,
-0.0099627435797984935,-0.016643533519931621,
-0.0077852658033961877,-0.018821011296333928,
-0.0063872390128429787,-0.021564793362451307,
-0.0059055118110236228,-0.024606299212598427,
-0.006387239012842977,-0.027647805062745546,
-0.0077852658033961877,-0.030391587128862925,
-0.0099627435797984918,-0.032569064905265233,
-0.012706525645915873,-0.033967091695818442,
-0.015748031496062992,-0.034448818897637797,
-0.018789537346210118,-0.033967091695818442,
-0.02153331941232749,-0.032569064905265233,
-0.0237107971887298,-0.030391587128862928,
-0.025108823979283011,-0.027647805062745546,
-0.025590551181102365,-0.024606299212598427,
-0.025108823979283011,-0.021564793362451307,
-0.0237107971887298,-0.018821011296333928,
-0.021533319412327497,-0.016643533519931621,
-0.018789537346210118,-0.015245506729378409,
0*
4,1,19,
0.015748031496062995,-0.014763779527559057,
0.018789537346210115,-0.015245506729378409,
0.02153331941232749,-0.016643533519931621,
0.0237107971887298,-0.018821011296333928,
0.025108823979283011,-0.021564793362451307,
0.025590551181102365,-0.024606299212598427,
0.025108823979283011,-0.027647805062745546,
0.0237107971887298,-0.030391587128862925,
0.021533319412327497,-0.032569064905265233,
0.018789537346210115,-0.033967091695818442,
0.015748031496062995,-0.034448818897637797,
0.012706525645915871,-0.033967091695818442,
0.009962743579798497,-0.032569064905265233,
0.0077852658033961885,-0.030391587128862928,
0.0063872390128429787,-0.027647805062745546,
0.0059055118110236228,-0.024606299212598427,
0.006387239012842977,-0.021564793362451307,
0.0077852658033961868,-0.018821011296333928,
0.0099627435797984918,-0.016643533519931621,
0.012706525645915871,-0.015245506729378409,
0*
4,1,19,
0.015748031496062995,0.034448818897637797,
0.018789537346210115,0.033967091695818442,
0.02153331941232749,0.032569064905265233,
0.0237107971887298,0.030391587128862928,
0.025108823979283011,0.027647805062745546,
0.025590551181102365,0.024606299212598427,
0.025108823979283011,0.021564793362451307,
0.0237107971887298,0.018821011296333928,
0.021533319412327497,0.016643533519931621,
0.018789537346210115,0.015245506729378409,
0.015748031496062995,0.014763779527559057,
0.012706525645915871,0.015245506729378409,
0.009962743579798497,0.016643533519931621,
0.0077852658033961885,0.018821011296333925,
0.0063872390128429787,0.021564793362451307,
0.0059055118110236228,0.024606299212598427,
0.006387239012842977,0.027647805062745546,
0.0077852658033961868,0.030391587128862925,
0.0099627435797984918,0.032569064905265233,
0.012706525645915871,0.033967091695818442,
0*
4,1,19,
-0.015748031496062995,0.034448818897637797,
-0.012706525645915873,0.033967091695818442,
-0.0099627435797984935,0.032569064905265233,
-0.0077852658033961877,0.030391587128862928,
-0.0063872390128429787,0.027647805062745546,
-0.0059055118110236228,0.024606299212598427,
-0.006387239012842977,0.021564793362451307,
-0.0077852658033961877,0.018821011296333928,
-0.0099627435797984918,0.016643533519931621,
-0.012706525645915873,0.015245506729378409,
-0.015748031496062992,0.014763779527559057,
-0.018789537346210118,0.015245506729378409,
-0.02153331941232749,0.016643533519931621,
-0.0237107971887298,0.018821011296333925,
-0.025108823979283011,0.021564793362451307,
-0.025590551181102365,0.024606299212598427,
-0.025108823979283011,0.027647805062745546,
-0.0237107971887298,0.030391587128862925,
-0.021533319412327497,0.032569064905265233,
-0.018789537346210118,0.033967091695818442,
0*
4,1,3,
-0.015748031496062995,-0.034448818897637797,
-0.015748031496062995,-0.014763779527559057,
0.015748031496062995,-0.014763779527559057,
0.015748031496062995,-0.034448818897637797,
0*
4,1,3,
0.025590551181102365,-0.024606299212598427,
0.0059055118110236228,-0.024606299212598427,
0.0059055118110236228,0.024606299212598427,
0.025590551181102365,0.024606299212598427,
0*
4,1,3,
0.015748031496062995,0.034448818897637797,
0.015748031496062995,0.014763779527559057,
-0.015748031496062995,0.014763779527559057,
-0.015748031496062995,0.034448818897637797,
0*
4,1,3,
-0.025590551181102365,0.024606299212598427,
-0.0059055118110236228,0.024606299212598427,
-0.0059055118110236228,-0.024606299212598427,
-0.025590551181102365,-0.024606299212598427,
0*%
%ADD17COMP73,0.25X-0.4X-0.625X0.4X-0.625X0.4X0.625X-0.4X0.625X0*%
%AMCOMP77*
4,1,3,
0.015748031496062995,0.024606299212598427,
-0.015748031496062995,0.024606299212598427,
-0.015748031496062995,-0.024606299212598427,
0.015748031496062995,-0.024606299212598427,
0*
4,1,19,
0.015748031496062995,0.034448818897637797,
0.018789537346210115,0.033967091695818442,
0.02153331941232749,0.032569064905265233,
0.0237107971887298,0.030391587128862928,
0.025108823979283011,0.027647805062745546,
0.025590551181102365,0.024606299212598427,
0.025108823979283011,0.021564793362451307,
0.0237107971887298,0.018821011296333928,
0.021533319412327497,0.016643533519931621,
0.018789537346210115,0.015245506729378409,
0.015748031496062995,0.014763779527559057,
0.012706525645915871,0.015245506729378409,
0.009962743579798497,0.016643533519931621,
0.0077852658033961885,0.018821011296333925,
0.0063872390128429787,0.021564793362451307,
0.0059055118110236228,0.024606299212598427,
0.006387239012842977,0.027647805062745546,
0.0077852658033961868,0.030391587128862925,
0.0099627435797984918,0.032569064905265233,
0.012706525645915871,0.033967091695818442,
0*
4,1,19,
-0.015748031496062995,0.034448818897637797,
-0.012706525645915873,0.033967091695818442,
-0.0099627435797984935,0.032569064905265233,
-0.0077852658033961877,0.030391587128862928,
-0.0063872390128429787,0.027647805062745546,
-0.0059055118110236228,0.024606299212598427,
-0.006387239012842977,0.021564793362451307,
-0.0077852658033961877,0.018821011296333928,
-0.0099627435797984918,0.016643533519931621,
-0.012706525645915873,0.015245506729378409,
-0.015748031496062992,0.014763779527559057,
-0.018789537346210118,0.015245506729378409,
-0.02153331941232749,0.016643533519931621,
-0.0237107971887298,0.018821011296333925,
-0.025108823979283011,0.021564793362451307,
-0.025590551181102365,0.024606299212598427,
-0.025108823979283011,0.027647805062745546,
-0.0237107971887298,0.030391587128862925,
-0.021533319412327497,0.032569064905265233,
-0.018789537346210118,0.033967091695818442,
0*
4,1,19,
-0.015748031496062995,-0.014763779527559057,
-0.012706525645915873,-0.015245506729378409,
-0.0099627435797984935,-0.016643533519931621,
-0.0077852658033961877,-0.018821011296333928,
-0.0063872390128429787,-0.021564793362451307,
-0.0059055118110236228,-0.024606299212598427,
-0.006387239012842977,-0.027647805062745546,
-0.0077852658033961877,-0.030391587128862925,
-0.0099627435797984918,-0.032569064905265233,
-0.012706525645915873,-0.033967091695818442,
-0.015748031496062992,-0.034448818897637797,
-0.018789537346210118,-0.033967091695818442,
-0.02153331941232749,-0.032569064905265233,
-0.0237107971887298,-0.030391587128862928,
-0.025108823979283011,-0.027647805062745546,
-0.025590551181102365,-0.024606299212598427,
-0.025108823979283011,-0.021564793362451307,
-0.0237107971887298,-0.018821011296333928,
-0.021533319412327497,-0.016643533519931621,
-0.018789537346210118,-0.015245506729378409,
0*
4,1,19,
0.015748031496062995,-0.014763779527559057,
0.018789537346210115,-0.015245506729378409,
0.02153331941232749,-0.016643533519931621,
0.0237107971887298,-0.018821011296333928,
0.025108823979283011,-0.021564793362451307,
0.025590551181102365,-0.024606299212598427,
0.025108823979283011,-0.027647805062745546,
0.0237107971887298,-0.030391587128862925,
0.021533319412327497,-0.032569064905265233,
0.018789537346210115,-0.033967091695818442,
0.015748031496062995,-0.034448818897637797,
0.012706525645915871,-0.033967091695818442,
0.009962743579798497,-0.032569064905265233,
0.0077852658033961885,-0.030391587128862928,
0.0063872390128429787,-0.027647805062745546,
0.0059055118110236228,-0.024606299212598427,
0.006387239012842977,-0.021564793362451307,
0.0077852658033961868,-0.018821011296333928,
0.0099627435797984918,-0.016643533519931621,
0.012706525645915871,-0.015245506729378409,
0*
4,1,3,
0.015748031496062995,0.034448818897637797,
0.015748031496062995,0.014763779527559057,
-0.015748031496062995,0.014763779527559057,
-0.015748031496062995,0.034448818897637797,
0*
4,1,3,
-0.025590551181102365,0.024606299212598427,
-0.0059055118110236228,0.024606299212598427,
-0.0059055118110236228,-0.024606299212598427,
-0.025590551181102365,-0.024606299212598427,
0*
4,1,3,
-0.015748031496062995,-0.034448818897637797,
-0.015748031496062995,-0.014763779527559057,
0.015748031496062995,-0.014763779527559057,
0.015748031496062995,-0.034448818897637797,
0*
4,1,3,
0.025590551181102365,-0.024606299212598427,
0.0059055118110236228,-0.024606299212598427,
0.0059055118110236228,0.024606299212598427,
0.025590551181102365,0.024606299212598427,
0*%
%ADD18COMP77,0.25X0.4X0.625X-0.4X0.625X-0.4X-0.625X0.4X-0.625X0*%
%ADD29R,0.043307086614173235X0.043307086614173235*%
%ADD30C,0.22047244094488189*%
%ADD31R,0.066929133858267723X0.066929133858267723*%
%ADD32O,0.066929133858267723X0.066929133858267723*%
%ADD33R,0.074803149606299218X0.031496062992125991*%
%ADD34R,0.11811023622047245X0.11811023622047245*%
%ADD35C,0.11811023622047245*%
%AMCOMP81*
4,1,3,
-0.015748031496062995,-0.024606299212598427,
0.015748031496062995,-0.024606299212598427,
0.015748031496062995,0.024606299212598427,
-0.015748031496062995,0.024606299212598427,
0*
4,1,19,
-0.015748031496062995,-0.014763779527559057,
-0.012706525645915873,-0.015245506729378409,
-0.0099627435797984935,-0.016643533519931621,
-0.0077852658033961877,-0.018821011296333928,
-0.0063872390128429787,-0.021564793362451307,
-0.0059055118110236228,-0.024606299212598427,
-0.006387239012842977,-0.027647805062745546,
-0.0077852658033961877,-0.030391587128862925,
-0.0099627435797984918,-0.032569064905265233,
-0.012706525645915873,-0.033967091695818442,
-0.015748031496062992,-0.034448818897637797,
-0.018789537346210118,-0.033967091695818442,
-0.02153331941232749,-0.032569064905265233,
-0.0237107971887298,-0.030391587128862928,
-0.025108823979283011,-0.027647805062745546,
-0.025590551181102365,-0.024606299212598427,
-0.025108823979283011,-0.021564793362451307,
-0.0237107971887298,-0.018821011296333928,
-0.021533319412327497,-0.016643533519931621,
-0.018789537346210118,-0.015245506729378409,
0*
4,1,19,
0.015748031496062995,-0.014763779527559057,
0.018789537346210115,-0.015245506729378409,
0.02153331941232749,-0.016643533519931621,
0.0237107971887298,-0.018821011296333928,
0.025108823979283011,-0.021564793362451307,
0.025590551181102365,-0.024606299212598427,
0.025108823979283011,-0.027647805062745546,
0.0237107971887298,-0.030391587128862925,
0.021533319412327497,-0.032569064905265233,
0.018789537346210115,-0.033967091695818442,
0.015748031496062995,-0.034448818897637797,
0.012706525645915871,-0.033967091695818442,
0.009962743579798497,-0.032569064905265233,
0.0077852658033961885,-0.030391587128862928,
0.0063872390128429787,-0.027647805062745546,
0.0059055118110236228,-0.024606299212598427,
0.006387239012842977,-0.021564793362451307,
0.0077852658033961868,-0.018821011296333928,
0.0099627435797984918,-0.016643533519931621,
0.012706525645915871,-0.015245506729378409,
0*
4,1,19,
0.015748031496062995,0.034448818897637797,
0.018789537346210115,0.033967091695818442,
0.02153331941232749,0.032569064905265233,
0.0237107971887298,0.030391587128862928,
0.025108823979283011,0.027647805062745546,
0.025590551181102365,0.024606299212598427,
0.025108823979283011,0.021564793362451307,
0.0237107971887298,0.018821011296333928,
0.021533319412327497,0.016643533519931621,
0.018789537346210115,0.015245506729378409,
0.015748031496062995,0.014763779527559057,
0.012706525645915871,0.015245506729378409,
0.009962743579798497,0.016643533519931621,
0.0077852658033961885,0.018821011296333925,
0.0063872390128429787,0.021564793362451307,
0.0059055118110236228,0.024606299212598427,
0.006387239012842977,0.027647805062745546,
0.0077852658033961868,0.030391587128862925,
0.0099627435797984918,0.032569064905265233,
0.012706525645915871,0.033967091695818442,
0*
4,1,19,
-0.015748031496062995,0.034448818897637797,
-0.012706525645915873,0.033967091695818442,
-0.0099627435797984935,0.032569064905265233,
-0.0077852658033961877,0.030391587128862928,
-0.0063872390128429787,0.027647805062745546,
-0.0059055118110236228,0.024606299212598427,
-0.006387239012842977,0.021564793362451307,
-0.0077852658033961877,0.018821011296333928,
-0.0099627435797984918,0.016643533519931621,
-0.012706525645915873,0.015245506729378409,
-0.015748031496062992,0.014763779527559057,
-0.018789537346210118,0.015245506729378409,
-0.02153331941232749,0.016643533519931621,
-0.0237107971887298,0.018821011296333925,
-0.025108823979283011,0.021564793362451307,
-0.025590551181102365,0.024606299212598427,
-0.025108823979283011,0.027647805062745546,
-0.0237107971887298,0.030391587128862925,
-0.021533319412327497,0.032569064905265233,
-0.018789537346210118,0.033967091695818442,
0*
4,1,3,
-0.015748031496062995,-0.034448818897637797,
-0.015748031496062995,-0.014763779527559057,
0.015748031496062995,-0.014763779527559057,
0.015748031496062995,-0.034448818897637797,
0*
4,1,3,
0.025590551181102365,-0.024606299212598427,
0.0059055118110236228,-0.024606299212598427,
0.0059055118110236228,0.024606299212598427,
0.025590551181102365,0.024606299212598427,
0*
4,1,3,
0.015748031496062995,0.034448818897637797,
0.015748031496062995,0.014763779527559057,
-0.015748031496062995,0.014763779527559057,
-0.015748031496062995,0.034448818897637797,
0*
4,1,3,
-0.025590551181102365,0.024606299212598427,
-0.0059055118110236228,0.024606299212598427,
-0.0059055118110236228,-0.024606299212598427,
-0.025590551181102365,-0.024606299212598427,
0*%
%ADD36COMP81,0.25X-0.4X-0.625X0.4X-0.625X0.4X0.625X-0.4X0.625X0*%
%AMCOMP85*
4,1,3,
0.015748031496062995,0.024606299212598427,
-0.015748031496062995,0.024606299212598427,
-0.015748031496062995,-0.024606299212598427,
0.015748031496062995,-0.024606299212598427,
0*
4,1,19,
0.015748031496062995,0.034448818897637797,
0.018789537346210115,0.033967091695818442,
0.02153331941232749,0.032569064905265233,
0.0237107971887298,0.030391587128862928,
0.025108823979283011,0.027647805062745546,
0.025590551181102365,0.024606299212598427,
0.025108823979283011,0.021564793362451307,
0.0237107971887298,0.018821011296333928,
0.021533319412327497,0.016643533519931621,
0.018789537346210115,0.015245506729378409,
0.015748031496062995,0.014763779527559057,
0.012706525645915871,0.015245506729378409,
0.009962743579798497,0.016643533519931621,
0.0077852658033961885,0.018821011296333925,
0.0063872390128429787,0.021564793362451307,
0.0059055118110236228,0.024606299212598427,
0.006387239012842977,0.027647805062745546,
0.0077852658033961868,0.030391587128862925,
0.0099627435797984918,0.032569064905265233,
0.012706525645915871,0.033967091695818442,
0*
4,1,19,
-0.015748031496062995,0.034448818897637797,
-0.012706525645915873,0.033967091695818442,
-0.0099627435797984935,0.032569064905265233,
-0.0077852658033961877,0.030391587128862928,
-0.0063872390128429787,0.027647805062745546,
-0.0059055118110236228,0.024606299212598427,
-0.006387239012842977,0.021564793362451307,
-0.0077852658033961877,0.018821011296333928,
-0.0099627435797984918,0.016643533519931621,
-0.012706525645915873,0.015245506729378409,
-0.015748031496062992,0.014763779527559057,
-0.018789537346210118,0.015245506729378409,
-0.02153331941232749,0.016643533519931621,
-0.0237107971887298,0.018821011296333925,
-0.025108823979283011,0.021564793362451307,
-0.025590551181102365,0.024606299212598427,
-0.025108823979283011,0.027647805062745546,
-0.0237107971887298,0.030391587128862925,
-0.021533319412327497,0.032569064905265233,
-0.018789537346210118,0.033967091695818442,
0*
4,1,19,
-0.015748031496062995,-0.014763779527559057,
-0.012706525645915873,-0.015245506729378409,
-0.0099627435797984935,-0.016643533519931621,
-0.0077852658033961877,-0.018821011296333928,
-0.0063872390128429787,-0.021564793362451307,
-0.0059055118110236228,-0.024606299212598427,
-0.006387239012842977,-0.027647805062745546,
-0.0077852658033961877,-0.030391587128862925,
-0.0099627435797984918,-0.032569064905265233,
-0.012706525645915873,-0.033967091695818442,
-0.015748031496062992,-0.034448818897637797,
-0.018789537346210118,-0.033967091695818442,
-0.02153331941232749,-0.032569064905265233,
-0.0237107971887298,-0.030391587128862928,
-0.025108823979283011,-0.027647805062745546,
-0.025590551181102365,-0.024606299212598427,
-0.025108823979283011,-0.021564793362451307,
-0.0237107971887298,-0.018821011296333928,
-0.021533319412327497,-0.016643533519931621,
-0.018789537346210118,-0.015245506729378409,
0*
4,1,19,
0.015748031496062995,-0.014763779527559057,
0.018789537346210115,-0.015245506729378409,
0.02153331941232749,-0.016643533519931621,
0.0237107971887298,-0.018821011296333928,
0.025108823979283011,-0.021564793362451307,
0.025590551181102365,-0.024606299212598427,
0.025108823979283011,-0.027647805062745546,
0.0237107971887298,-0.030391587128862925,
0.021533319412327497,-0.032569064905265233,
0.018789537346210115,-0.033967091695818442,
0.015748031496062995,-0.034448818897637797,
0.012706525645915871,-0.033967091695818442,
0.009962743579798497,-0.032569064905265233,
0.0077852658033961885,-0.030391587128862928,
0.0063872390128429787,-0.027647805062745546,
0.0059055118110236228,-0.024606299212598427,
0.006387239012842977,-0.021564793362451307,
0.0077852658033961868,-0.018821011296333928,
0.0099627435797984918,-0.016643533519931621,
0.012706525645915871,-0.015245506729378409,
0*
4,1,3,
0.015748031496062995,0.034448818897637797,
0.015748031496062995,0.014763779527559057,
-0.015748031496062995,0.014763779527559057,
-0.015748031496062995,0.034448818897637797,
0*
4,1,3,
-0.025590551181102365,0.024606299212598427,
-0.0059055118110236228,0.024606299212598427,
-0.0059055118110236228,-0.024606299212598427,
-0.025590551181102365,-0.024606299212598427,
0*
4,1,3,
-0.015748031496062995,-0.034448818897637797,
-0.015748031496062995,-0.014763779527559057,
0.015748031496062995,-0.014763779527559057,
0.015748031496062995,-0.034448818897637797,
0*
4,1,3,
0.025590551181102365,-0.024606299212598427,
0.0059055118110236228,-0.024606299212598427,
0.0059055118110236228,0.024606299212598427,
0.025590551181102365,0.024606299212598427,
0*%
%ADD37COMP85,0.25X0.4X0.625X-0.4X0.625X-0.4X-0.625X0.4X-0.625X0*%
%ADD38R,0.043307086614173235X0.043307086614173235*%
%ADD39C,0.22047244094488189*%
%ADD40R,0.066929133858267723X0.066929133858267723*%
%ADD41O,0.066929133858267723X0.066929133858267723*%
%ADD42R,0.074803149606299218X0.031496062992125991*%
%ADD43R,0.11811023622047245X0.11811023622047245*%
%ADD44C,0.11811023622047245*%
%AMCOMP89*
4,1,3,
-0.015748031496062995,-0.024606299212598427,
0.015748031496062995,-0.024606299212598427,
0.015748031496062995,0.024606299212598427,
-0.015748031496062995,0.024606299212598427,
0*
4,1,19,
-0.015748031496062995,-0.014763779527559057,
-0.012706525645915873,-0.015245506729378409,
-0.0099627435797984935,-0.016643533519931621,
-0.0077852658033961877,-0.018821011296333928,
-0.0063872390128429787,-0.021564793362451307,
-0.0059055118110236228,-0.024606299212598427,
-0.006387239012842977,-0.027647805062745546,
-0.0077852658033961877,-0.030391587128862925,
-0.0099627435797984918,-0.032569064905265233,
-0.012706525645915873,-0.033967091695818442,
-0.015748031496062992,-0.034448818897637797,
-0.018789537346210118,-0.033967091695818442,
-0.02153331941232749,-0.032569064905265233,
-0.0237107971887298,-0.030391587128862928,
-0.025108823979283011,-0.027647805062745546,
-0.025590551181102365,-0.024606299212598427,
-0.025108823979283011,-0.021564793362451307,
-0.0237107971887298,-0.018821011296333928,
-0.021533319412327497,-0.016643533519931621,
-0.018789537346210118,-0.015245506729378409,
0*
4,1,19,
0.015748031496062995,-0.014763779527559057,
0.018789537346210115,-0.015245506729378409,
0.02153331941232749,-0.016643533519931621,
0.0237107971887298,-0.018821011296333928,
0.025108823979283011,-0.021564793362451307,
0.025590551181102365,-0.024606299212598427,
0.025108823979283011,-0.027647805062745546,
0.0237107971887298,-0.030391587128862925,
0.021533319412327497,-0.032569064905265233,
0.018789537346210115,-0.033967091695818442,
0.015748031496062995,-0.034448818897637797,
0.012706525645915871,-0.033967091695818442,
0.009962743579798497,-0.032569064905265233,
0.0077852658033961885,-0.030391587128862928,
0.0063872390128429787,-0.027647805062745546,
0.0059055118110236228,-0.024606299212598427,
0.006387239012842977,-0.021564793362451307,
0.0077852658033961868,-0.018821011296333928,
0.0099627435797984918,-0.016643533519931621,
0.012706525645915871,-0.015245506729378409,
0*
4,1,19,
0.015748031496062995,0.034448818897637797,
0.018789537346210115,0.033967091695818442,
0.02153331941232749,0.032569064905265233,
0.0237107971887298,0.030391587128862928,
0.025108823979283011,0.027647805062745546,
0.025590551181102365,0.024606299212598427,
0.025108823979283011,0.021564793362451307,
0.0237107971887298,0.018821011296333928,
0.021533319412327497,0.016643533519931621,
0.018789537346210115,0.015245506729378409,
0.015748031496062995,0.014763779527559057,
0.012706525645915871,0.015245506729378409,
0.009962743579798497,0.016643533519931621,
0.0077852658033961885,0.018821011296333925,
0.0063872390128429787,0.021564793362451307,
0.0059055118110236228,0.024606299212598427,
0.006387239012842977,0.027647805062745546,
0.0077852658033961868,0.030391587128862925,
0.0099627435797984918,0.032569064905265233,
0.012706525645915871,0.033967091695818442,
0*
4,1,19,
-0.015748031496062995,0.034448818897637797,
-0.012706525645915873,0.033967091695818442,
-0.0099627435797984935,0.032569064905265233,
-0.0077852658033961877,0.030391587128862928,
-0.0063872390128429787,0.027647805062745546,
-0.0059055118110236228,0.024606299212598427,
-0.006387239012842977,0.021564793362451307,
-0.0077852658033961877,0.018821011296333928,
-0.0099627435797984918,0.016643533519931621,
-0.012706525645915873,0.015245506729378409,
-0.015748031496062992,0.014763779527559057,
-0.018789537346210118,0.015245506729378409,
-0.02153331941232749,0.016643533519931621,
-0.0237107971887298,0.018821011296333925,
-0.025108823979283011,0.021564793362451307,
-0.025590551181102365,0.024606299212598427,
-0.025108823979283011,0.027647805062745546,
-0.0237107971887298,0.030391587128862925,
-0.021533319412327497,0.032569064905265233,
-0.018789537346210118,0.033967091695818442,
0*
4,1,3,
-0.015748031496062995,-0.034448818897637797,
-0.015748031496062995,-0.014763779527559057,
0.015748031496062995,-0.014763779527559057,
0.015748031496062995,-0.034448818897637797,
0*
4,1,3,
0.025590551181102365,-0.024606299212598427,
0.0059055118110236228,-0.024606299212598427,
0.0059055118110236228,0.024606299212598427,
0.025590551181102365,0.024606299212598427,
0*
4,1,3,
0.015748031496062995,0.034448818897637797,
0.015748031496062995,0.014763779527559057,
-0.015748031496062995,0.014763779527559057,
-0.015748031496062995,0.034448818897637797,
0*
4,1,3,
-0.025590551181102365,0.024606299212598427,
-0.0059055118110236228,0.024606299212598427,
-0.0059055118110236228,-0.024606299212598427,
-0.025590551181102365,-0.024606299212598427,
0*%
%ADD45COMP89,0.25X-0.4X-0.625X0.4X-0.625X0.4X0.625X-0.4X0.625X0*%
%AMCOMP93*
4,1,3,
0.015748031496062995,0.024606299212598427,
-0.015748031496062995,0.024606299212598427,
-0.015748031496062995,-0.024606299212598427,
0.015748031496062995,-0.024606299212598427,
0*
4,1,19,
0.015748031496062995,0.034448818897637797,
0.018789537346210115,0.033967091695818442,
0.02153331941232749,0.032569064905265233,
0.0237107971887298,0.030391587128862928,
0.025108823979283011,0.027647805062745546,
0.025590551181102365,0.024606299212598427,
0.025108823979283011,0.021564793362451307,
0.0237107971887298,0.018821011296333928,
0.021533319412327497,0.016643533519931621,
0.018789537346210115,0.015245506729378409,
0.015748031496062995,0.014763779527559057,
0.012706525645915871,0.015245506729378409,
0.009962743579798497,0.016643533519931621,
0.0077852658033961885,0.018821011296333925,
0.0063872390128429787,0.021564793362451307,
0.0059055118110236228,0.024606299212598427,
0.006387239012842977,0.027647805062745546,
0.0077852658033961868,0.030391587128862925,
0.0099627435797984918,0.032569064905265233,
0.012706525645915871,0.033967091695818442,
0*
4,1,19,
-0.015748031496062995,0.034448818897637797,
-0.012706525645915873,0.033967091695818442,
-0.0099627435797984935,0.032569064905265233,
-0.0077852658033961877,0.030391587128862928,
-0.0063872390128429787,0.027647805062745546,
-0.0059055118110236228,0.024606299212598427,
-0.006387239012842977,0.021564793362451307,
-0.0077852658033961877,0.018821011296333928,
-0.0099627435797984918,0.016643533519931621,
-0.012706525645915873,0.015245506729378409,
-0.015748031496062992,0.014763779527559057,
-0.018789537346210118,0.015245506729378409,
-0.02153331941232749,0.016643533519931621,
-0.0237107971887298,0.018821011296333925,
-0.025108823979283011,0.021564793362451307,
-0.025590551181102365,0.024606299212598427,
-0.025108823979283011,0.027647805062745546,
-0.0237107971887298,0.030391587128862925,
-0.021533319412327497,0.032569064905265233,
-0.018789537346210118,0.033967091695818442,
0*
4,1,19,
-0.015748031496062995,-0.014763779527559057,
-0.012706525645915873,-0.015245506729378409,
-0.0099627435797984935,-0.016643533519931621,
-0.0077852658033961877,-0.018821011296333928,
-0.0063872390128429787,-0.021564793362451307,
-0.0059055118110236228,-0.024606299212598427,
-0.006387239012842977,-0.027647805062745546,
-0.0077852658033961877,-0.030391587128862925,
-0.0099627435797984918,-0.032569064905265233,
-0.012706525645915873,-0.033967091695818442,
-0.015748031496062992,-0.034448818897637797,
-0.018789537346210118,-0.033967091695818442,
-0.02153331941232749,-0.032569064905265233,
-0.0237107971887298,-0.030391587128862928,
-0.025108823979283011,-0.027647805062745546,
-0.025590551181102365,-0.024606299212598427,
-0.025108823979283011,-0.021564793362451307,
-0.0237107971887298,-0.018821011296333928,
-0.021533319412327497,-0.016643533519931621,
-0.018789537346210118,-0.015245506729378409,
0*
4,1,19,
0.015748031496062995,-0.014763779527559057,
0.018789537346210115,-0.015245506729378409,
0.02153331941232749,-0.016643533519931621,
0.0237107971887298,-0.018821011296333928,
0.025108823979283011,-0.021564793362451307,
0.025590551181102365,-0.024606299212598427,
0.025108823979283011,-0.027647805062745546,
0.0237107971887298,-0.030391587128862925,
0.021533319412327497,-0.032569064905265233,
0.018789537346210115,-0.033967091695818442,
0.015748031496062995,-0.034448818897637797,
0.012706525645915871,-0.033967091695818442,
0.009962743579798497,-0.032569064905265233,
0.0077852658033961885,-0.030391587128862928,
0.0063872390128429787,-0.027647805062745546,
0.0059055118110236228,-0.024606299212598427,
0.006387239012842977,-0.021564793362451307,
0.0077852658033961868,-0.018821011296333928,
0.0099627435797984918,-0.016643533519931621,
0.012706525645915871,-0.015245506729378409,
0*
4,1,3,
0.015748031496062995,0.034448818897637797,
0.015748031496062995,0.014763779527559057,
-0.015748031496062995,0.014763779527559057,
-0.015748031496062995,0.034448818897637797,
0*
4,1,3,
-0.025590551181102365,0.024606299212598427,
-0.0059055118110236228,0.024606299212598427,
-0.0059055118110236228,-0.024606299212598427,
-0.025590551181102365,-0.024606299212598427,
0*
4,1,3,
-0.015748031496062995,-0.034448818897637797,
-0.015748031496062995,-0.014763779527559057,
0.015748031496062995,-0.014763779527559057,
0.015748031496062995,-0.034448818897637797,
0*
4,1,3,
0.025590551181102365,-0.024606299212598427,
0.0059055118110236228,-0.024606299212598427,
0.0059055118110236228,0.024606299212598427,
0.025590551181102365,0.024606299212598427,
0*%
%ADD46COMP93,0.25X0.4X0.625X-0.4X0.625X-0.4X-0.625X0.4X-0.625X0*%
%ADD47R,0.043307086614173235X0.043307086614173235*%
%ADD48C,0.22047244094488189*%
%ADD49R,0.066929133858267723X0.066929133858267723*%
%ADD50O,0.066929133858267723X0.066929133858267723*%
%ADD51R,0.074803149606299218X0.031496062992125991*%
%ADD52R,0.11811023622047245X0.11811023622047245*%
%ADD53C,0.11811023622047245*%
%AMCOMP97*
4,1,3,
-0.015748031496062995,-0.024606299212598427,
0.015748031496062995,-0.024606299212598427,
0.015748031496062995,0.024606299212598427,
-0.015748031496062995,0.024606299212598427,
0*
4,1,19,
-0.015748031496062995,-0.014763779527559057,
-0.012706525645915873,-0.015245506729378409,
-0.0099627435797984935,-0.016643533519931621,
-0.0077852658033961877,-0.018821011296333928,
-0.0063872390128429787,-0.021564793362451307,
-0.0059055118110236228,-0.024606299212598427,
-0.006387239012842977,-0.027647805062745546,
-0.0077852658033961877,-0.030391587128862925,
-0.0099627435797984918,-0.032569064905265233,
-0.012706525645915873,-0.033967091695818442,
-0.015748031496062992,-0.034448818897637797,
-0.018789537346210118,-0.033967091695818442,
-0.02153331941232749,-0.032569064905265233,
-0.0237107971887298,-0.030391587128862928,
-0.025108823979283011,-0.027647805062745546,
-0.025590551181102365,-0.024606299212598427,
-0.025108823979283011,-0.021564793362451307,
-0.0237107971887298,-0.018821011296333928,
-0.021533319412327497,-0.016643533519931621,
-0.018789537346210118,-0.015245506729378409,
0*
4,1,19,
0.015748031496062995,-0.014763779527559057,
0.018789537346210115,-0.015245506729378409,
0.02153331941232749,-0.016643533519931621,
0.0237107971887298,-0.018821011296333928,
0.025108823979283011,-0.021564793362451307,
0.025590551181102365,-0.024606299212598427,
0.025108823979283011,-0.027647805062745546,
0.0237107971887298,-0.030391587128862925,
0.021533319412327497,-0.032569064905265233,
0.018789537346210115,-0.033967091695818442,
0.015748031496062995,-0.034448818897637797,
0.012706525645915871,-0.033967091695818442,
0.009962743579798497,-0.032569064905265233,
0.0077852658033961885,-0.030391587128862928,
0.0063872390128429787,-0.027647805062745546,
0.0059055118110236228,-0.024606299212598427,
0.006387239012842977,-0.021564793362451307,
0.0077852658033961868,-0.018821011296333928,
0.0099627435797984918,-0.016643533519931621,
0.012706525645915871,-0.015245506729378409,
0*
4,1,19,
0.015748031496062995,0.034448818897637797,
0.018789537346210115,0.033967091695818442,
0.02153331941232749,0.032569064905265233,
0.0237107971887298,0.030391587128862928,
0.025108823979283011,0.027647805062745546,
0.025590551181102365,0.024606299212598427,
0.025108823979283011,0.021564793362451307,
0.0237107971887298,0.018821011296333928,
0.021533319412327497,0.016643533519931621,
0.018789537346210115,0.015245506729378409,
0.015748031496062995,0.014763779527559057,
0.012706525645915871,0.015245506729378409,
0.009962743579798497,0.016643533519931621,
0.0077852658033961885,0.018821011296333925,
0.0063872390128429787,0.021564793362451307,
0.0059055118110236228,0.024606299212598427,
0.006387239012842977,0.027647805062745546,
0.0077852658033961868,0.030391587128862925,
0.0099627435797984918,0.032569064905265233,
0.012706525645915871,0.033967091695818442,
0*
4,1,19,
-0.015748031496062995,0.034448818897637797,
-0.012706525645915873,0.033967091695818442,
-0.0099627435797984935,0.032569064905265233,
-0.0077852658033961877,0.030391587128862928,
-0.0063872390128429787,0.027647805062745546,
-0.0059055118110236228,0.024606299212598427,
-0.006387239012842977,0.021564793362451307,
-0.0077852658033961877,0.018821011296333928,
-0.0099627435797984918,0.016643533519931621,
-0.012706525645915873,0.015245506729378409,
-0.015748031496062992,0.014763779527559057,
-0.018789537346210118,0.015245506729378409,
-0.02153331941232749,0.016643533519931621,
-0.0237107971887298,0.018821011296333925,
-0.025108823979283011,0.021564793362451307,
-0.025590551181102365,0.024606299212598427,
-0.025108823979283011,0.027647805062745546,
-0.0237107971887298,0.030391587128862925,
-0.021533319412327497,0.032569064905265233,
-0.018789537346210118,0.033967091695818442,
0*
4,1,3,
-0.015748031496062995,-0.034448818897637797,
-0.015748031496062995,-0.014763779527559057,
0.015748031496062995,-0.014763779527559057,
0.015748031496062995,-0.034448818897637797,
0*
4,1,3,
0.025590551181102365,-0.024606299212598427,
0.0059055118110236228,-0.024606299212598427,
0.0059055118110236228,0.024606299212598427,
0.025590551181102365,0.024606299212598427,
0*
4,1,3,
0.015748031496062995,0.034448818897637797,
0.015748031496062995,0.014763779527559057,
-0.015748031496062995,0.014763779527559057,
-0.015748031496062995,0.034448818897637797,
0*
4,1,3,
-0.025590551181102365,0.024606299212598427,
-0.0059055118110236228,0.024606299212598427,
-0.0059055118110236228,-0.024606299212598427,
-0.025590551181102365,-0.024606299212598427,
0*%
%ADD54COMP97,0.25X-0.4X-0.625X0.4X-0.625X0.4X0.625X-0.4X0.625X0*%
%AMCOMP101*
4,1,3,
0.015748031496062995,0.024606299212598427,
-0.015748031496062995,0.024606299212598427,
-0.015748031496062995,-0.024606299212598427,
0.015748031496062995,-0.024606299212598427,
0*
4,1,19,
0.015748031496062995,0.034448818897637797,
0.018789537346210115,0.033967091695818442,
0.02153331941232749,0.032569064905265233,
0.0237107971887298,0.030391587128862928,
0.025108823979283011,0.027647805062745546,
0.025590551181102365,0.024606299212598427,
0.025108823979283011,0.021564793362451307,
0.0237107971887298,0.018821011296333928,
0.021533319412327497,0.016643533519931621,
0.018789537346210115,0.015245506729378409,
0.015748031496062995,0.014763779527559057,
0.012706525645915871,0.015245506729378409,
0.009962743579798497,0.016643533519931621,
0.0077852658033961885,0.018821011296333925,
0.0063872390128429787,0.021564793362451307,
0.0059055118110236228,0.024606299212598427,
0.006387239012842977,0.027647805062745546,
0.0077852658033961868,0.030391587128862925,
0.0099627435797984918,0.032569064905265233,
0.012706525645915871,0.033967091695818442,
0*
4,1,19,
-0.015748031496062995,0.034448818897637797,
-0.012706525645915873,0.033967091695818442,
-0.0099627435797984935,0.032569064905265233,
-0.0077852658033961877,0.030391587128862928,
-0.0063872390128429787,0.027647805062745546,
-0.0059055118110236228,0.024606299212598427,
-0.006387239012842977,0.021564793362451307,
-0.0077852658033961877,0.018821011296333928,
-0.0099627435797984918,0.016643533519931621,
-0.012706525645915873,0.015245506729378409,
-0.015748031496062992,0.014763779527559057,
-0.018789537346210118,0.015245506729378409,
-0.02153331941232749,0.016643533519931621,
-0.0237107971887298,0.018821011296333925,
-0.025108823979283011,0.021564793362451307,
-0.025590551181102365,0.024606299212598427,
-0.025108823979283011,0.027647805062745546,
-0.0237107971887298,0.030391587128862925,
-0.021533319412327497,0.032569064905265233,
-0.018789537346210118,0.033967091695818442,
0*
4,1,19,
-0.015748031496062995,-0.014763779527559057,
-0.012706525645915873,-0.015245506729378409,
-0.0099627435797984935,-0.016643533519931621,
-0.0077852658033961877,-0.018821011296333928,
-0.0063872390128429787,-0.021564793362451307,
-0.0059055118110236228,-0.024606299212598427,
-0.006387239012842977,-0.027647805062745546,
-0.0077852658033961877,-0.030391587128862925,
-0.0099627435797984918,-0.032569064905265233,
-0.012706525645915873,-0.033967091695818442,
-0.015748031496062992,-0.034448818897637797,
-0.018789537346210118,-0.033967091695818442,
-0.02153331941232749,-0.032569064905265233,
-0.0237107971887298,-0.030391587128862928,
-0.025108823979283011,-0.027647805062745546,
-0.025590551181102365,-0.024606299212598427,
-0.025108823979283011,-0.021564793362451307,
-0.0237107971887298,-0.018821011296333928,
-0.021533319412327497,-0.016643533519931621,
-0.018789537346210118,-0.015245506729378409,
0*
4,1,19,
0.015748031496062995,-0.014763779527559057,
0.018789537346210115,-0.015245506729378409,
0.02153331941232749,-0.016643533519931621,
0.0237107971887298,-0.018821011296333928,
0.025108823979283011,-0.021564793362451307,
0.025590551181102365,-0.024606299212598427,
0.025108823979283011,-0.027647805062745546,
0.0237107971887298,-0.030391587128862925,
0.021533319412327497,-0.032569064905265233,
0.018789537346210115,-0.033967091695818442,
0.015748031496062995,-0.034448818897637797,
0.012706525645915871,-0.033967091695818442,
0.009962743579798497,-0.032569064905265233,
0.0077852658033961885,-0.030391587128862928,
0.0063872390128429787,-0.027647805062745546,
0.0059055118110236228,-0.024606299212598427,
0.006387239012842977,-0.021564793362451307,
0.0077852658033961868,-0.018821011296333928,
0.0099627435797984918,-0.016643533519931621,
0.012706525645915871,-0.015245506729378409,
0*
4,1,3,
0.015748031496062995,0.034448818897637797,
0.015748031496062995,0.014763779527559057,
-0.015748031496062995,0.014763779527559057,
-0.015748031496062995,0.034448818897637797,
0*
4,1,3,
-0.025590551181102365,0.024606299212598427,
-0.0059055118110236228,0.024606299212598427,
-0.0059055118110236228,-0.024606299212598427,
-0.025590551181102365,-0.024606299212598427,
0*
4,1,3,
-0.015748031496062995,-0.034448818897637797,
-0.015748031496062995,-0.014763779527559057,
0.015748031496062995,-0.014763779527559057,
0.015748031496062995,-0.034448818897637797,
0*
4,1,3,
0.025590551181102365,-0.024606299212598427,
0.0059055118110236228,-0.024606299212598427,
0.0059055118110236228,0.024606299212598427,
0.025590551181102365,0.024606299212598427,
0*%
%ADD55COMP101,0.25X0.4X0.625X-0.4X0.625X-0.4X-0.625X0.4X-0.625X0*%
%ADD56R,0.043307086614173235X0.043307086614173235*%
%ADD57C,0.22047244094488189*%
%ADD58R,0.066929133858267723X0.066929133858267723*%
%ADD59O,0.066929133858267723X0.066929133858267723*%
%ADD60R,0.074803149606299218X0.031496062992125991*%
%ADD61R,0.11811023622047245X0.11811023622047245*%
%ADD62C,0.11811023622047245*%
%AMCOMP105*
4,1,3,
-0.015748031496062995,-0.024606299212598427,
0.015748031496062995,-0.024606299212598427,
0.015748031496062995,0.024606299212598427,
-0.015748031496062995,0.024606299212598427,
0*
4,1,19,
-0.015748031496062995,-0.014763779527559057,
-0.012706525645915873,-0.015245506729378409,
-0.0099627435797984935,-0.016643533519931621,
-0.0077852658033961877,-0.018821011296333928,
-0.0063872390128429787,-0.021564793362451307,
-0.0059055118110236228,-0.024606299212598427,
-0.006387239012842977,-0.027647805062745546,
-0.0077852658033961877,-0.030391587128862925,
-0.0099627435797984918,-0.032569064905265233,
-0.012706525645915873,-0.033967091695818442,
-0.015748031496062992,-0.034448818897637797,
-0.018789537346210118,-0.033967091695818442,
-0.02153331941232749,-0.032569064905265233,
-0.0237107971887298,-0.030391587128862928,
-0.025108823979283011,-0.027647805062745546,
-0.025590551181102365,-0.024606299212598427,
-0.025108823979283011,-0.021564793362451307,
-0.0237107971887298,-0.018821011296333928,
-0.021533319412327497,-0.016643533519931621,
-0.018789537346210118,-0.015245506729378409,
0*
4,1,19,
0.015748031496062995,-0.014763779527559057,
0.018789537346210115,-0.015245506729378409,
0.02153331941232749,-0.016643533519931621,
0.0237107971887298,-0.018821011296333928,
0.025108823979283011,-0.021564793362451307,
0.025590551181102365,-0.024606299212598427,
0.025108823979283011,-0.027647805062745546,
0.0237107971887298,-0.030391587128862925,
0.021533319412327497,-0.032569064905265233,
0.018789537346210115,-0.033967091695818442,
0.015748031496062995,-0.034448818897637797,
0.012706525645915871,-0.033967091695818442,
0.009962743579798497,-0.032569064905265233,
0.0077852658033961885,-0.030391587128862928,
0.0063872390128429787,-0.027647805062745546,
0.0059055118110236228,-0.024606299212598427,
0.006387239012842977,-0.021564793362451307,
0.0077852658033961868,-0.018821011296333928,
0.0099627435797984918,-0.016643533519931621,
0.012706525645915871,-0.015245506729378409,
0*
4,1,19,
0.015748031496062995,0.034448818897637797,
0.018789537346210115,0.033967091695818442,
0.02153331941232749,0.032569064905265233,
0.0237107971887298,0.030391587128862928,
0.025108823979283011,0.027647805062745546,
0.025590551181102365,0.024606299212598427,
0.025108823979283011,0.021564793362451307,
0.0237107971887298,0.018821011296333928,
0.021533319412327497,0.016643533519931621,
0.018789537346210115,0.015245506729378409,
0.015748031496062995,0.014763779527559057,
0.012706525645915871,0.015245506729378409,
0.009962743579798497,0.016643533519931621,
0.0077852658033961885,0.018821011296333925,
0.0063872390128429787,0.021564793362451307,
0.0059055118110236228,0.024606299212598427,
0.006387239012842977,0.027647805062745546,
0.0077852658033961868,0.030391587128862925,
0.0099627435797984918,0.032569064905265233,
0.012706525645915871,0.033967091695818442,
0*
4,1,19,
-0.015748031496062995,0.034448818897637797,
-0.012706525645915873,0.033967091695818442,
-0.0099627435797984935,0.032569064905265233,
-0.0077852658033961877,0.030391587128862928,
-0.0063872390128429787,0.027647805062745546,
-0.0059055118110236228,0.024606299212598427,
-0.006387239012842977,0.021564793362451307,
-0.0077852658033961877,0.018821011296333928,
-0.0099627435797984918,0.016643533519931621,
-0.012706525645915873,0.015245506729378409,
-0.015748031496062992,0.014763779527559057,
-0.018789537346210118,0.015245506729378409,
-0.02153331941232749,0.016643533519931621,
-0.0237107971887298,0.018821011296333925,
-0.025108823979283011,0.021564793362451307,
-0.025590551181102365,0.024606299212598427,
-0.025108823979283011,0.027647805062745546,
-0.0237107971887298,0.030391587128862925,
-0.021533319412327497,0.032569064905265233,
-0.018789537346210118,0.033967091695818442,
0*
4,1,3,
-0.015748031496062995,-0.034448818897637797,
-0.015748031496062995,-0.014763779527559057,
0.015748031496062995,-0.014763779527559057,
0.015748031496062995,-0.034448818897637797,
0*
4,1,3,
0.025590551181102365,-0.024606299212598427,
0.0059055118110236228,-0.024606299212598427,
0.0059055118110236228,0.024606299212598427,
0.025590551181102365,0.024606299212598427,
0*
4,1,3,
0.015748031496062995,0.034448818897637797,
0.015748031496062995,0.014763779527559057,
-0.015748031496062995,0.014763779527559057,
-0.015748031496062995,0.034448818897637797,
0*
4,1,3,
-0.025590551181102365,0.024606299212598427,
-0.0059055118110236228,0.024606299212598427,
-0.0059055118110236228,-0.024606299212598427,
-0.025590551181102365,-0.024606299212598427,
0*%
%ADD63COMP105,0.25X-0.4X-0.625X0.4X-0.625X0.4X0.625X-0.4X0.625X0*%
%AMCOMP109*
4,1,3,
0.015748031496062995,0.024606299212598427,
-0.015748031496062995,0.024606299212598427,
-0.015748031496062995,-0.024606299212598427,
0.015748031496062995,-0.024606299212598427,
0*
4,1,19,
0.015748031496062995,0.034448818897637797,
0.018789537346210115,0.033967091695818442,
0.02153331941232749,0.032569064905265233,
0.0237107971887298,0.030391587128862928,
0.025108823979283011,0.027647805062745546,
0.025590551181102365,0.024606299212598427,
0.025108823979283011,0.021564793362451307,
0.0237107971887298,0.018821011296333928,
0.021533319412327497,0.016643533519931621,
0.018789537346210115,0.015245506729378409,
0.015748031496062995,0.014763779527559057,
0.012706525645915871,0.015245506729378409,
0.009962743579798497,0.016643533519931621,
0.0077852658033961885,0.018821011296333925,
0.0063872390128429787,0.021564793362451307,
0.0059055118110236228,0.024606299212598427,
0.006387239012842977,0.027647805062745546,
0.0077852658033961868,0.030391587128862925,
0.0099627435797984918,0.032569064905265233,
0.012706525645915871,0.033967091695818442,
0*
4,1,19,
-0.015748031496062995,0.034448818897637797,
-0.012706525645915873,0.033967091695818442,
-0.0099627435797984935,0.032569064905265233,
-0.0077852658033961877,0.030391587128862928,
-0.0063872390128429787,0.027647805062745546,
-0.0059055118110236228,0.024606299212598427,
-0.006387239012842977,0.021564793362451307,
-0.0077852658033961877,0.018821011296333928,
-0.0099627435797984918,0.016643533519931621,
-0.012706525645915873,0.015245506729378409,
-0.015748031496062992,0.014763779527559057,
-0.018789537346210118,0.015245506729378409,
-0.02153331941232749,0.016643533519931621,
-0.0237107971887298,0.018821011296333925,
-0.025108823979283011,0.021564793362451307,
-0.025590551181102365,0.024606299212598427,
-0.025108823979283011,0.027647805062745546,
-0.0237107971887298,0.030391587128862925,
-0.021533319412327497,0.032569064905265233,
-0.018789537346210118,0.033967091695818442,
0*
4,1,19,
-0.015748031496062995,-0.014763779527559057,
-0.012706525645915873,-0.015245506729378409,
-0.0099627435797984935,-0.016643533519931621,
-0.0077852658033961877,-0.018821011296333928,
-0.0063872390128429787,-0.021564793362451307,
-0.0059055118110236228,-0.024606299212598427,
-0.006387239012842977,-0.027647805062745546,
-0.0077852658033961877,-0.030391587128862925,
-0.0099627435797984918,-0.032569064905265233,
-0.012706525645915873,-0.033967091695818442,
-0.015748031496062992,-0.034448818897637797,
-0.018789537346210118,-0.033967091695818442,
-0.02153331941232749,-0.032569064905265233,
-0.0237107971887298,-0.030391587128862928,
-0.025108823979283011,-0.027647805062745546,
-0.025590551181102365,-0.024606299212598427,
-0.025108823979283011,-0.021564793362451307,
-0.0237107971887298,-0.018821011296333928,
-0.021533319412327497,-0.016643533519931621,
-0.018789537346210118,-0.015245506729378409,
0*
4,1,19,
0.015748031496062995,-0.014763779527559057,
0.018789537346210115,-0.015245506729378409,
0.02153331941232749,-0.016643533519931621,
0.0237107971887298,-0.018821011296333928,
0.025108823979283011,-0.021564793362451307,
0.025590551181102365,-0.024606299212598427,
0.025108823979283011,-0.027647805062745546,
0.0237107971887298,-0.030391587128862925,
0.021533319412327497,-0.032569064905265233,
0.018789537346210115,-0.033967091695818442,
0.015748031496062995,-0.034448818897637797,
0.012706525645915871,-0.033967091695818442,
0.009962743579798497,-0.032569064905265233,
0.0077852658033961885,-0.030391587128862928,
0.0063872390128429787,-0.027647805062745546,
0.0059055118110236228,-0.024606299212598427,
0.006387239012842977,-0.021564793362451307,
0.0077852658033961868,-0.018821011296333928,
0.0099627435797984918,-0.016643533519931621,
0.012706525645915871,-0.015245506729378409,
0*
4,1,3,
0.015748031496062995,0.034448818897637797,
0.015748031496062995,0.014763779527559057,
-0.015748031496062995,0.014763779527559057,
-0.015748031496062995,0.034448818897637797,
0*
4,1,3,
-0.025590551181102365,0.024606299212598427,
-0.0059055118110236228,0.024606299212598427,
-0.0059055118110236228,-0.024606299212598427,
-0.025590551181102365,-0.024606299212598427,
0*
4,1,3,
-0.015748031496062995,-0.034448818897637797,
-0.015748031496062995,-0.014763779527559057,
0.015748031496062995,-0.014763779527559057,
0.015748031496062995,-0.034448818897637797,
0*
4,1,3,
0.025590551181102365,-0.024606299212598427,
0.0059055118110236228,-0.024606299212598427,
0.0059055118110236228,0.024606299212598427,
0.025590551181102365,0.024606299212598427,
0*%
%ADD64COMP109,0.25X0.4X0.625X-0.4X0.625X-0.4X-0.625X0.4X-0.625X0*%
%ADD65R,0.043307086614173235X0.043307086614173235*%
%ADD66C,0.22047244094488189*%
%ADD67R,0.066929133858267723X0.066929133858267723*%
%ADD68O,0.066929133858267723X0.066929133858267723*%
%ADD69R,0.074803149606299218X0.031496062992125991*%
%ADD70R,0.11811023622047245X0.11811023622047245*%
%ADD71C,0.11811023622047245*%
%AMCOMP113*
4,1,3,
-0.015748031496062995,-0.024606299212598427,
0.015748031496062995,-0.024606299212598427,
0.015748031496062995,0.024606299212598427,
-0.015748031496062995,0.024606299212598427,
0*
4,1,19,
-0.015748031496062995,-0.014763779527559057,
-0.012706525645915873,-0.015245506729378409,
-0.0099627435797984935,-0.016643533519931621,
-0.0077852658033961877,-0.018821011296333928,
-0.0063872390128429787,-0.021564793362451307,
-0.0059055118110236228,-0.024606299212598427,
-0.006387239012842977,-0.027647805062745546,
-0.0077852658033961877,-0.030391587128862925,
-0.0099627435797984918,-0.032569064905265233,
-0.012706525645915873,-0.033967091695818442,
-0.015748031496062992,-0.034448818897637797,
-0.018789537346210118,-0.033967091695818442,
-0.02153331941232749,-0.032569064905265233,
-0.0237107971887298,-0.030391587128862928,
-0.025108823979283011,-0.027647805062745546,
-0.025590551181102365,-0.024606299212598427,
-0.025108823979283011,-0.021564793362451307,
-0.0237107971887298,-0.018821011296333928,
-0.021533319412327497,-0.016643533519931621,
-0.018789537346210118,-0.015245506729378409,
0*
4,1,19,
0.015748031496062995,-0.014763779527559057,
0.018789537346210115,-0.015245506729378409,
0.02153331941232749,-0.016643533519931621,
0.0237107971887298,-0.018821011296333928,
0.025108823979283011,-0.021564793362451307,
0.025590551181102365,-0.024606299212598427,
0.025108823979283011,-0.027647805062745546,
0.0237107971887298,-0.030391587128862925,
0.021533319412327497,-0.032569064905265233,
0.018789537346210115,-0.033967091695818442,
0.015748031496062995,-0.034448818897637797,
0.012706525645915871,-0.033967091695818442,
0.009962743579798497,-0.032569064905265233,
0.0077852658033961885,-0.030391587128862928,
0.0063872390128429787,-0.027647805062745546,
0.0059055118110236228,-0.024606299212598427,
0.006387239012842977,-0.021564793362451307,
0.0077852658033961868,-0.018821011296333928,
0.0099627435797984918,-0.016643533519931621,
0.012706525645915871,-0.015245506729378409,
0*
4,1,19,
0.015748031496062995,0.034448818897637797,
0.018789537346210115,0.033967091695818442,
0.02153331941232749,0.032569064905265233,
0.0237107971887298,0.030391587128862928,
0.025108823979283011,0.027647805062745546,
0.025590551181102365,0.024606299212598427,
0.025108823979283011,0.021564793362451307,
0.0237107971887298,0.018821011296333928,
0.021533319412327497,0.016643533519931621,
0.018789537346210115,0.015245506729378409,
0.015748031496062995,0.014763779527559057,
0.012706525645915871,0.015245506729378409,
0.009962743579798497,0.016643533519931621,
0.0077852658033961885,0.018821011296333925,
0.0063872390128429787,0.021564793362451307,
0.0059055118110236228,0.024606299212598427,
0.006387239012842977,0.027647805062745546,
0.0077852658033961868,0.030391587128862925,
0.0099627435797984918,0.032569064905265233,
0.012706525645915871,0.033967091695818442,
0*
4,1,19,
-0.015748031496062995,0.034448818897637797,
-0.012706525645915873,0.033967091695818442,
-0.0099627435797984935,0.032569064905265233,
-0.0077852658033961877,0.030391587128862928,
-0.0063872390128429787,0.027647805062745546,
-0.0059055118110236228,0.024606299212598427,
-0.006387239012842977,0.021564793362451307,
-0.0077852658033961877,0.018821011296333928,
-0.0099627435797984918,0.016643533519931621,
-0.012706525645915873,0.015245506729378409,
-0.015748031496062992,0.014763779527559057,
-0.018789537346210118,0.015245506729378409,
-0.02153331941232749,0.016643533519931621,
-0.0237107971887298,0.018821011296333925,
-0.025108823979283011,0.021564793362451307,
-0.025590551181102365,0.024606299212598427,
-0.025108823979283011,0.027647805062745546,
-0.0237107971887298,0.030391587128862925,
-0.021533319412327497,0.032569064905265233,
-0.018789537346210118,0.033967091695818442,
0*
4,1,3,
-0.015748031496062995,-0.034448818897637797,
-0.015748031496062995,-0.014763779527559057,
0.015748031496062995,-0.014763779527559057,
0.015748031496062995,-0.034448818897637797,
0*
4,1,3,
0.025590551181102365,-0.024606299212598427,
0.0059055118110236228,-0.024606299212598427,
0.0059055118110236228,0.024606299212598427,
0.025590551181102365,0.024606299212598427,
0*
4,1,3,
0.015748031496062995,0.034448818897637797,
0.015748031496062995,0.014763779527559057,
-0.015748031496062995,0.014763779527559057,
-0.015748031496062995,0.034448818897637797,
0*
4,1,3,
-0.025590551181102365,0.024606299212598427,
-0.0059055118110236228,0.024606299212598427,
-0.0059055118110236228,-0.024606299212598427,
-0.025590551181102365,-0.024606299212598427,
0*%
%ADD72COMP113,0.25X-0.4X-0.625X0.4X-0.625X0.4X0.625X-0.4X0.625X0*%
%AMCOMP117*
4,1,3,
0.015748031496062995,0.024606299212598427,
-0.015748031496062995,0.024606299212598427,
-0.015748031496062995,-0.024606299212598427,
0.015748031496062995,-0.024606299212598427,
0*
4,1,19,
0.015748031496062995,0.034448818897637797,
0.018789537346210115,0.033967091695818442,
0.02153331941232749,0.032569064905265233,
0.0237107971887298,0.030391587128862928,
0.025108823979283011,0.027647805062745546,
0.025590551181102365,0.024606299212598427,
0.025108823979283011,0.021564793362451307,
0.0237107971887298,0.018821011296333928,
0.021533319412327497,0.016643533519931621,
0.018789537346210115,0.015245506729378409,
0.015748031496062995,0.014763779527559057,
0.012706525645915871,0.015245506729378409,
0.009962743579798497,0.016643533519931621,
0.0077852658033961885,0.018821011296333925,
0.0063872390128429787,0.021564793362451307,
0.0059055118110236228,0.024606299212598427,
0.006387239012842977,0.027647805062745546,
0.0077852658033961868,0.030391587128862925,
0.0099627435797984918,0.032569064905265233,
0.012706525645915871,0.033967091695818442,
0*
4,1,19,
-0.015748031496062995,0.034448818897637797,
-0.012706525645915873,0.033967091695818442,
-0.0099627435797984935,0.032569064905265233,
-0.0077852658033961877,0.030391587128862928,
-0.0063872390128429787,0.027647805062745546,
-0.0059055118110236228,0.024606299212598427,
-0.006387239012842977,0.021564793362451307,
-0.0077852658033961877,0.018821011296333928,
-0.0099627435797984918,0.016643533519931621,
-0.012706525645915873,0.015245506729378409,
-0.015748031496062992,0.014763779527559057,
-0.018789537346210118,0.015245506729378409,
-0.02153331941232749,0.016643533519931621,
-0.0237107971887298,0.018821011296333925,
-0.025108823979283011,0.021564793362451307,
-0.025590551181102365,0.024606299212598427,
-0.025108823979283011,0.027647805062745546,
-0.0237107971887298,0.030391587128862925,
-0.021533319412327497,0.032569064905265233,
-0.018789537346210118,0.033967091695818442,
0*
4,1,19,
-0.015748031496062995,-0.014763779527559057,
-0.012706525645915873,-0.015245506729378409,
-0.0099627435797984935,-0.016643533519931621,
-0.0077852658033961877,-0.018821011296333928,
-0.0063872390128429787,-0.021564793362451307,
-0.0059055118110236228,-0.024606299212598427,
-0.006387239012842977,-0.027647805062745546,
-0.0077852658033961877,-0.030391587128862925,
-0.0099627435797984918,-0.032569064905265233,
-0.012706525645915873,-0.033967091695818442,
-0.015748031496062992,-0.034448818897637797,
-0.018789537346210118,-0.033967091695818442,
-0.02153331941232749,-0.032569064905265233,
-0.0237107971887298,-0.030391587128862928,
-0.025108823979283011,-0.027647805062745546,
-0.025590551181102365,-0.024606299212598427,
-0.025108823979283011,-0.021564793362451307,
-0.0237107971887298,-0.018821011296333928,
-0.021533319412327497,-0.016643533519931621,
-0.018789537346210118,-0.015245506729378409,
0*
4,1,19,
0.015748031496062995,-0.014763779527559057,
0.018789537346210115,-0.015245506729378409,
0.02153331941232749,-0.016643533519931621,
0.0237107971887298,-0.018821011296333928,
0.025108823979283011,-0.021564793362451307,
0.025590551181102365,-0.024606299212598427,
0.025108823979283011,-0.027647805062745546,
0.0237107971887298,-0.030391587128862925,
0.021533319412327497,-0.032569064905265233,
0.018789537346210115,-0.033967091695818442,
0.015748031496062995,-0.034448818897637797,
0.012706525645915871,-0.033967091695818442,
0.009962743579798497,-0.032569064905265233,
0.0077852658033961885,-0.030391587128862928,
0.0063872390128429787,-0.027647805062745546,
0.0059055118110236228,-0.024606299212598427,
0.006387239012842977,-0.021564793362451307,
0.0077852658033961868,-0.018821011296333928,
0.0099627435797984918,-0.016643533519931621,
0.012706525645915871,-0.015245506729378409,
0*
4,1,3,
0.015748031496062995,0.034448818897637797,
0.015748031496062995,0.014763779527559057,
-0.015748031496062995,0.014763779527559057,
-0.015748031496062995,0.034448818897637797,
0*
4,1,3,
-0.025590551181102365,0.024606299212598427,
-0.0059055118110236228,0.024606299212598427,
-0.0059055118110236228,-0.024606299212598427,
-0.025590551181102365,-0.024606299212598427,
0*
4,1,3,
-0.015748031496062995,-0.034448818897637797,
-0.015748031496062995,-0.014763779527559057,
0.015748031496062995,-0.014763779527559057,
0.015748031496062995,-0.034448818897637797,
0*
4,1,3,
0.025590551181102365,-0.024606299212598427,
0.0059055118110236228,-0.024606299212598427,
0.0059055118110236228,0.024606299212598427,
0.025590551181102365,0.024606299212598427,
0*%
%ADD73COMP117,0.25X0.4X0.625X-0.4X0.625X-0.4X-0.625X0.4X-0.625X0*%
%ADD74R,0.043307086614173235X0.043307086614173235*%
%ADD75C,0.22047244094488189*%
%ADD76R,0.066929133858267723X0.066929133858267723*%
%ADD77O,0.066929133858267723X0.066929133858267723*%
%ADD78R,0.074803149606299218X0.031496062992125991*%
%ADD79R,0.11811023622047245X0.11811023622047245*%
%ADD80C,0.11811023622047245*%
%AMCOMP121*
4,1,3,
-0.015748031496062995,-0.024606299212598427,
0.015748031496062995,-0.024606299212598427,
0.015748031496062995,0.024606299212598427,
-0.015748031496062995,0.024606299212598427,
0*
4,1,19,
-0.015748031496062995,-0.014763779527559057,
-0.012706525645915873,-0.015245506729378409,
-0.0099627435797984935,-0.016643533519931621,
-0.0077852658033961877,-0.018821011296333928,
-0.0063872390128429787,-0.021564793362451307,
-0.0059055118110236228,-0.024606299212598427,
-0.006387239012842977,-0.027647805062745546,
-0.0077852658033961877,-0.030391587128862925,
-0.0099627435797984918,-0.032569064905265233,
-0.012706525645915873,-0.033967091695818442,
-0.015748031496062992,-0.034448818897637797,
-0.018789537346210118,-0.033967091695818442,
-0.02153331941232749,-0.032569064905265233,
-0.0237107971887298,-0.030391587128862928,
-0.025108823979283011,-0.027647805062745546,
-0.025590551181102365,-0.024606299212598427,
-0.025108823979283011,-0.021564793362451307,
-0.0237107971887298,-0.018821011296333928,
-0.021533319412327497,-0.016643533519931621,
-0.018789537346210118,-0.015245506729378409,
0*
4,1,19,
0.015748031496062995,-0.014763779527559057,
0.018789537346210115,-0.015245506729378409,
0.02153331941232749,-0.016643533519931621,
0.0237107971887298,-0.018821011296333928,
0.025108823979283011,-0.021564793362451307,
0.025590551181102365,-0.024606299212598427,
0.025108823979283011,-0.027647805062745546,
0.0237107971887298,-0.030391587128862925,
0.021533319412327497,-0.032569064905265233,
0.018789537346210115,-0.033967091695818442,
0.015748031496062995,-0.034448818897637797,
0.012706525645915871,-0.033967091695818442,
0.009962743579798497,-0.032569064905265233,
0.0077852658033961885,-0.030391587128862928,
0.0063872390128429787,-0.027647805062745546,
0.0059055118110236228,-0.024606299212598427,
0.006387239012842977,-0.021564793362451307,
0.0077852658033961868,-0.018821011296333928,
0.0099627435797984918,-0.016643533519931621,
0.012706525645915871,-0.015245506729378409,
0*
4,1,19,
0.015748031496062995,0.034448818897637797,
0.018789537346210115,0.033967091695818442,
0.02153331941232749,0.032569064905265233,
0.0237107971887298,0.030391587128862928,
0.025108823979283011,0.027647805062745546,
0.025590551181102365,0.024606299212598427,
0.025108823979283011,0.021564793362451307,
0.0237107971887298,0.018821011296333928,
0.021533319412327497,0.016643533519931621,
0.018789537346210115,0.015245506729378409,
0.015748031496062995,0.014763779527559057,
0.012706525645915871,0.015245506729378409,
0.009962743579798497,0.016643533519931621,
0.0077852658033961885,0.018821011296333925,
0.0063872390128429787,0.021564793362451307,
0.0059055118110236228,0.024606299212598427,
0.006387239012842977,0.027647805062745546,
0.0077852658033961868,0.030391587128862925,
0.0099627435797984918,0.032569064905265233,
0.012706525645915871,0.033967091695818442,
0*
4,1,19,
-0.015748031496062995,0.034448818897637797,
-0.012706525645915873,0.033967091695818442,
-0.0099627435797984935,0.032569064905265233,
-0.0077852658033961877,0.030391587128862928,
-0.0063872390128429787,0.027647805062745546,
-0.0059055118110236228,0.024606299212598427,
-0.006387239012842977,0.021564793362451307,
-0.0077852658033961877,0.018821011296333928,
-0.0099627435797984918,0.016643533519931621,
-0.012706525645915873,0.015245506729378409,
-0.015748031496062992,0.014763779527559057,
-0.018789537346210118,0.015245506729378409,
-0.02153331941232749,0.016643533519931621,
-0.0237107971887298,0.018821011296333925,
-0.025108823979283011,0.021564793362451307,
-0.025590551181102365,0.024606299212598427,
-0.025108823979283011,0.027647805062745546,
-0.0237107971887298,0.030391587128862925,
-0.021533319412327497,0.032569064905265233,
-0.018789537346210118,0.033967091695818442,
0*
4,1,3,
-0.015748031496062995,-0.034448818897637797,
-0.015748031496062995,-0.014763779527559057,
0.015748031496062995,-0.014763779527559057,
0.015748031496062995,-0.034448818897637797,
0*
4,1,3,
0.025590551181102365,-0.024606299212598427,
0.0059055118110236228,-0.024606299212598427,
0.0059055118110236228,0.024606299212598427,
0.025590551181102365,0.024606299212598427,
0*
4,1,3,
0.015748031496062995,0.034448818897637797,
0.015748031496062995,0.014763779527559057,
-0.015748031496062995,0.014763779527559057,
-0.015748031496062995,0.034448818897637797,
0*
4,1,3,
-0.025590551181102365,0.024606299212598427,
-0.0059055118110236228,0.024606299212598427,
-0.0059055118110236228,-0.024606299212598427,
-0.025590551181102365,-0.024606299212598427,
0*%
%ADD81COMP121,0.25X-0.4X-0.625X0.4X-0.625X0.4X0.625X-0.4X0.625X0*%
%AMCOMP125*
4,1,3,
0.015748031496062995,0.024606299212598427,
-0.015748031496062995,0.024606299212598427,
-0.015748031496062995,-0.024606299212598427,
0.015748031496062995,-0.024606299212598427,
0*
4,1,19,
0.015748031496062995,0.034448818897637797,
0.018789537346210115,0.033967091695818442,
0.02153331941232749,0.032569064905265233,
0.0237107971887298,0.030391587128862928,
0.025108823979283011,0.027647805062745546,
0.025590551181102365,0.024606299212598427,
0.025108823979283011,0.021564793362451307,
0.0237107971887298,0.018821011296333928,
0.021533319412327497,0.016643533519931621,
0.018789537346210115,0.015245506729378409,
0.015748031496062995,0.014763779527559057,
0.012706525645915871,0.015245506729378409,
0.009962743579798497,0.016643533519931621,
0.0077852658033961885,0.018821011296333925,
0.0063872390128429787,0.021564793362451307,
0.0059055118110236228,0.024606299212598427,
0.006387239012842977,0.027647805062745546,
0.0077852658033961868,0.030391587128862925,
0.0099627435797984918,0.032569064905265233,
0.012706525645915871,0.033967091695818442,
0*
4,1,19,
-0.015748031496062995,0.034448818897637797,
-0.012706525645915873,0.033967091695818442,
-0.0099627435797984935,0.032569064905265233,
-0.0077852658033961877,0.030391587128862928,
-0.0063872390128429787,0.027647805062745546,
-0.0059055118110236228,0.024606299212598427,
-0.006387239012842977,0.021564793362451307,
-0.0077852658033961877,0.018821011296333928,
-0.0099627435797984918,0.016643533519931621,
-0.012706525645915873,0.015245506729378409,
-0.015748031496062992,0.014763779527559057,
-0.018789537346210118,0.015245506729378409,
-0.02153331941232749,0.016643533519931621,
-0.0237107971887298,0.018821011296333925,
-0.025108823979283011,0.021564793362451307,
-0.025590551181102365,0.024606299212598427,
-0.025108823979283011,0.027647805062745546,
-0.0237107971887298,0.030391587128862925,
-0.021533319412327497,0.032569064905265233,
-0.018789537346210118,0.033967091695818442,
0*
4,1,19,
-0.015748031496062995,-0.014763779527559057,
-0.012706525645915873,-0.015245506729378409,
-0.0099627435797984935,-0.016643533519931621,
-0.0077852658033961877,-0.018821011296333928,
-0.0063872390128429787,-0.021564793362451307,
-0.0059055118110236228,-0.024606299212598427,
-0.006387239012842977,-0.027647805062745546,
-0.0077852658033961877,-0.030391587128862925,
-0.0099627435797984918,-0.032569064905265233,
-0.012706525645915873,-0.033967091695818442,
-0.015748031496062992,-0.034448818897637797,
-0.018789537346210118,-0.033967091695818442,
-0.02153331941232749,-0.032569064905265233,
-0.0237107971887298,-0.030391587128862928,
-0.025108823979283011,-0.027647805062745546,
-0.025590551181102365,-0.024606299212598427,
-0.025108823979283011,-0.021564793362451307,
-0.0237107971887298,-0.018821011296333928,
-0.021533319412327497,-0.016643533519931621,
-0.018789537346210118,-0.015245506729378409,
0*
4,1,19,
0.015748031496062995,-0.014763779527559057,
0.018789537346210115,-0.015245506729378409,
0.02153331941232749,-0.016643533519931621,
0.0237107971887298,-0.018821011296333928,
0.025108823979283011,-0.021564793362451307,
0.025590551181102365,-0.024606299212598427,
0.025108823979283011,-0.027647805062745546,
0.0237107971887298,-0.030391587128862925,
0.021533319412327497,-0.032569064905265233,
0.018789537346210115,-0.033967091695818442,
0.015748031496062995,-0.034448818897637797,
0.012706525645915871,-0.033967091695818442,
0.009962743579798497,-0.032569064905265233,
0.0077852658033961885,-0.030391587128862928,
0.0063872390128429787,-0.027647805062745546,
0.0059055118110236228,-0.024606299212598427,
0.006387239012842977,-0.021564793362451307,
0.0077852658033961868,-0.018821011296333928,
0.0099627435797984918,-0.016643533519931621,
0.012706525645915871,-0.015245506729378409,
0*
4,1,3,
0.015748031496062995,0.034448818897637797,
0.015748031496062995,0.014763779527559057,
-0.015748031496062995,0.014763779527559057,
-0.015748031496062995,0.034448818897637797,
0*
4,1,3,
-0.025590551181102365,0.024606299212598427,
-0.0059055118110236228,0.024606299212598427,
-0.0059055118110236228,-0.024606299212598427,
-0.025590551181102365,-0.024606299212598427,
0*
4,1,3,
-0.015748031496062995,-0.034448818897637797,
-0.015748031496062995,-0.014763779527559057,
0.015748031496062995,-0.014763779527559057,
0.015748031496062995,-0.034448818897637797,
0*
4,1,3,
0.025590551181102365,-0.024606299212598427,
0.0059055118110236228,-0.024606299212598427,
0.0059055118110236228,0.024606299212598427,
0.025590551181102365,0.024606299212598427,
0*%
%ADD82COMP125,0.25X0.4X0.625X-0.4X0.625X-0.4X-0.625X0.4X-0.625X0*%
%ADD83R,0.043307086614173235X0.043307086614173235*%
%ADD84C,0.22047244094488189*%
%ADD85R,0.066929133858267723X0.066929133858267723*%
%ADD86O,0.066929133858267723X0.066929133858267723*%
%ADD87R,0.074803149606299218X0.031496062992125991*%
%ADD88R,0.11811023622047245X0.11811023622047245*%
%ADD89C,0.11811023622047245*%
%AMCOMP129*
4,1,3,
-0.015748031496062995,-0.024606299212598427,
0.015748031496062995,-0.024606299212598427,
0.015748031496062995,0.024606299212598427,
-0.015748031496062995,0.024606299212598427,
0*
4,1,19,
-0.015748031496062995,-0.014763779527559057,
-0.012706525645915873,-0.015245506729378409,
-0.0099627435797984935,-0.016643533519931621,
-0.0077852658033961877,-0.018821011296333928,
-0.0063872390128429787,-0.021564793362451307,
-0.0059055118110236228,-0.024606299212598427,
-0.006387239012842977,-0.027647805062745546,
-0.0077852658033961877,-0.030391587128862925,
-0.0099627435797984918,-0.032569064905265233,
-0.012706525645915873,-0.033967091695818442,
-0.015748031496062992,-0.034448818897637797,
-0.018789537346210118,-0.033967091695818442,
-0.02153331941232749,-0.032569064905265233,
-0.0237107971887298,-0.030391587128862928,
-0.025108823979283011,-0.027647805062745546,
-0.025590551181102365,-0.024606299212598427,
-0.025108823979283011,-0.021564793362451307,
-0.0237107971887298,-0.018821011296333928,
-0.021533319412327497,-0.016643533519931621,
-0.018789537346210118,-0.015245506729378409,
0*
4,1,19,
0.015748031496062995,-0.014763779527559057,
0.018789537346210115,-0.015245506729378409,
0.02153331941232749,-0.016643533519931621,
0.0237107971887298,-0.018821011296333928,
0.025108823979283011,-0.021564793362451307,
0.025590551181102365,-0.024606299212598427,
0.025108823979283011,-0.027647805062745546,
0.0237107971887298,-0.030391587128862925,
0.021533319412327497,-0.032569064905265233,
0.018789537346210115,-0.033967091695818442,
0.015748031496062995,-0.034448818897637797,
0.012706525645915871,-0.033967091695818442,
0.009962743579798497,-0.032569064905265233,
0.0077852658033961885,-0.030391587128862928,
0.0063872390128429787,-0.027647805062745546,
0.0059055118110236228,-0.024606299212598427,
0.006387239012842977,-0.021564793362451307,
0.0077852658033961868,-0.018821011296333928,
0.0099627435797984918,-0.016643533519931621,
0.012706525645915871,-0.015245506729378409,
0*
4,1,19,
0.015748031496062995,0.034448818897637797,
0.018789537346210115,0.033967091695818442,
0.02153331941232749,0.032569064905265233,
0.0237107971887298,0.030391587128862928,
0.025108823979283011,0.027647805062745546,
0.025590551181102365,0.024606299212598427,
0.025108823979283011,0.021564793362451307,
0.0237107971887298,0.018821011296333928,
0.021533319412327497,0.016643533519931621,
0.018789537346210115,0.015245506729378409,
0.015748031496062995,0.014763779527559057,
0.012706525645915871,0.015245506729378409,
0.009962743579798497,0.016643533519931621,
0.0077852658033961885,0.018821011296333925,
0.0063872390128429787,0.021564793362451307,
0.0059055118110236228,0.024606299212598427,
0.006387239012842977,0.027647805062745546,
0.0077852658033961868,0.030391587128862925,
0.0099627435797984918,0.032569064905265233,
0.012706525645915871,0.033967091695818442,
0*
4,1,19,
-0.015748031496062995,0.034448818897637797,
-0.012706525645915873,0.033967091695818442,
-0.0099627435797984935,0.032569064905265233,
-0.0077852658033961877,0.030391587128862928,
-0.0063872390128429787,0.027647805062745546,
-0.0059055118110236228,0.024606299212598427,
-0.006387239012842977,0.021564793362451307,
-0.0077852658033961877,0.018821011296333928,
-0.0099627435797984918,0.016643533519931621,
-0.012706525645915873,0.015245506729378409,
-0.015748031496062992,0.014763779527559057,
-0.018789537346210118,0.015245506729378409,
-0.02153331941232749,0.016643533519931621,
-0.0237107971887298,0.018821011296333925,
-0.025108823979283011,0.021564793362451307,
-0.025590551181102365,0.024606299212598427,
-0.025108823979283011,0.027647805062745546,
-0.0237107971887298,0.030391587128862925,
-0.021533319412327497,0.032569064905265233,
-0.018789537346210118,0.033967091695818442,
0*
4,1,3,
-0.015748031496062995,-0.034448818897637797,
-0.015748031496062995,-0.014763779527559057,
0.015748031496062995,-0.014763779527559057,
0.015748031496062995,-0.034448818897637797,
0*
4,1,3,
0.025590551181102365,-0.024606299212598427,
0.0059055118110236228,-0.024606299212598427,
0.0059055118110236228,0.024606299212598427,
0.025590551181102365,0.024606299212598427,
0*
4,1,3,
0.015748031496062995,0.034448818897637797,
0.015748031496062995,0.014763779527559057,
-0.015748031496062995,0.014763779527559057,
-0.015748031496062995,0.034448818897637797,
0*
4,1,3,
-0.025590551181102365,0.024606299212598427,
-0.0059055118110236228,0.024606299212598427,
-0.0059055118110236228,-0.024606299212598427,
-0.025590551181102365,-0.024606299212598427,
0*%
%ADD90COMP129,0.25X-0.4X-0.625X0.4X-0.625X0.4X0.625X-0.4X0.625X0*%
%AMCOMP133*
4,1,3,
0.015748031496062995,0.024606299212598427,
-0.015748031496062995,0.024606299212598427,
-0.015748031496062995,-0.024606299212598427,
0.015748031496062995,-0.024606299212598427,
0*
4,1,19,
0.015748031496062995,0.034448818897637797,
0.018789537346210115,0.033967091695818442,
0.02153331941232749,0.032569064905265233,
0.0237107971887298,0.030391587128862928,
0.025108823979283011,0.027647805062745546,
0.025590551181102365,0.024606299212598427,
0.025108823979283011,0.021564793362451307,
0.0237107971887298,0.018821011296333928,
0.021533319412327497,0.016643533519931621,
0.018789537346210115,0.015245506729378409,
0.015748031496062995,0.014763779527559057,
0.012706525645915871,0.015245506729378409,
0.009962743579798497,0.016643533519931621,
0.0077852658033961885,0.018821011296333925,
0.0063872390128429787,0.021564793362451307,
0.0059055118110236228,0.024606299212598427,
0.006387239012842977,0.027647805062745546,
0.0077852658033961868,0.030391587128862925,
0.0099627435797984918,0.032569064905265233,
0.012706525645915871,0.033967091695818442,
0*
4,1,19,
-0.015748031496062995,0.034448818897637797,
-0.012706525645915873,0.033967091695818442,
-0.0099627435797984935,0.032569064905265233,
-0.0077852658033961877,0.030391587128862928,
-0.0063872390128429787,0.027647805062745546,
-0.0059055118110236228,0.024606299212598427,
-0.006387239012842977,0.021564793362451307,
-0.0077852658033961877,0.018821011296333928,
-0.0099627435797984918,0.016643533519931621,
-0.012706525645915873,0.015245506729378409,
-0.015748031496062992,0.014763779527559057,
-0.018789537346210118,0.015245506729378409,
-0.02153331941232749,0.016643533519931621,
-0.0237107971887298,0.018821011296333925,
-0.025108823979283011,0.021564793362451307,
-0.025590551181102365,0.024606299212598427,
-0.025108823979283011,0.027647805062745546,
-0.0237107971887298,0.030391587128862925,
-0.021533319412327497,0.032569064905265233,
-0.018789537346210118,0.033967091695818442,
0*
4,1,19,
-0.015748031496062995,-0.014763779527559057,
-0.012706525645915873,-0.015245506729378409,
-0.0099627435797984935,-0.016643533519931621,
-0.0077852658033961877,-0.018821011296333928,
-0.0063872390128429787,-0.021564793362451307,
-0.0059055118110236228,-0.024606299212598427,
-0.006387239012842977,-0.027647805062745546,
-0.0077852658033961877,-0.030391587128862925,
-0.0099627435797984918,-0.032569064905265233,
-0.012706525645915873,-0.033967091695818442,
-0.015748031496062992,-0.034448818897637797,
-0.018789537346210118,-0.033967091695818442,
-0.02153331941232749,-0.032569064905265233,
-0.0237107971887298,-0.030391587128862928,
-0.025108823979283011,-0.027647805062745546,
-0.025590551181102365,-0.024606299212598427,
-0.025108823979283011,-0.021564793362451307,
-0.0237107971887298,-0.018821011296333928,
-0.021533319412327497,-0.016643533519931621,
-0.018789537346210118,-0.015245506729378409,
0*
4,1,19,
0.015748031496062995,-0.014763779527559057,
0.018789537346210115,-0.015245506729378409,
0.02153331941232749,-0.016643533519931621,
0.0237107971887298,-0.018821011296333928,
0.025108823979283011,-0.021564793362451307,
0.025590551181102365,-0.024606299212598427,
0.025108823979283011,-0.027647805062745546,
0.0237107971887298,-0.030391587128862925,
0.021533319412327497,-0.032569064905265233,
0.018789537346210115,-0.033967091695818442,
0.015748031496062995,-0.034448818897637797,
0.012706525645915871,-0.033967091695818442,
0.009962743579798497,-0.032569064905265233,
0.0077852658033961885,-0.030391587128862928,
0.0063872390128429787,-0.027647805062745546,
0.0059055118110236228,-0.024606299212598427,
0.006387239012842977,-0.021564793362451307,
0.0077852658033961868,-0.018821011296333928,
0.0099627435797984918,-0.016643533519931621,
0.012706525645915871,-0.015245506729378409,
0*
4,1,3,
0.015748031496062995,0.034448818897637797,
0.015748031496062995,0.014763779527559057,
-0.015748031496062995,0.014763779527559057,
-0.015748031496062995,0.034448818897637797,
0*
4,1,3,
-0.025590551181102365,0.024606299212598427,
-0.0059055118110236228,0.024606299212598427,
-0.0059055118110236228,-0.024606299212598427,
-0.025590551181102365,-0.024606299212598427,
0*
4,1,3,
-0.015748031496062995,-0.034448818897637797,
-0.015748031496062995,-0.014763779527559057,
0.015748031496062995,-0.014763779527559057,
0.015748031496062995,-0.034448818897637797,
0*
4,1,3,
0.025590551181102365,-0.024606299212598427,
0.0059055118110236228,-0.024606299212598427,
0.0059055118110236228,0.024606299212598427,
0.025590551181102365,0.024606299212598427,
0*%
%ADD91COMP133,0.25X0.4X0.625X-0.4X0.625X-0.4X-0.625X0.4X-0.625X0*%
%ADD92R,0.043307086614173235X0.043307086614173235*%
%ADD93C,0.22047244094488189*%
%ADD94R,0.066929133858267723X0.066929133858267723*%
%ADD95O,0.066929133858267723X0.066929133858267723*%
%ADD96R,0.074803149606299218X0.031496062992125991*%
%ADD97R,0.11811023622047245X0.11811023622047245*%
%ADD98C,0.11811023622047245*%
%AMCOMP137*
4,1,3,
-0.015748031496062995,-0.024606299212598427,
0.015748031496062995,-0.024606299212598427,
0.015748031496062995,0.024606299212598427,
-0.015748031496062995,0.024606299212598427,
0*
4,1,19,
-0.015748031496062995,-0.014763779527559057,
-0.012706525645915873,-0.015245506729378409,
-0.0099627435797984935,-0.016643533519931621,
-0.0077852658033961877,-0.018821011296333928,
-0.0063872390128429787,-0.021564793362451307,
-0.0059055118110236228,-0.024606299212598427,
-0.006387239012842977,-0.027647805062745546,
-0.0077852658033961877,-0.030391587128862925,
-0.0099627435797984918,-0.032569064905265233,
-0.012706525645915873,-0.033967091695818442,
-0.015748031496062992,-0.034448818897637797,
-0.018789537346210118,-0.033967091695818442,
-0.02153331941232749,-0.032569064905265233,
-0.0237107971887298,-0.030391587128862928,
-0.025108823979283011,-0.027647805062745546,
-0.025590551181102365,-0.024606299212598427,
-0.025108823979283011,-0.021564793362451307,
-0.0237107971887298,-0.018821011296333928,
-0.021533319412327497,-0.016643533519931621,
-0.018789537346210118,-0.015245506729378409,
0*
4,1,19,
0.015748031496062995,-0.014763779527559057,
0.018789537346210115,-0.015245506729378409,
0.02153331941232749,-0.016643533519931621,
0.0237107971887298,-0.018821011296333928,
0.025108823979283011,-0.021564793362451307,
0.025590551181102365,-0.024606299212598427,
0.025108823979283011,-0.027647805062745546,
0.0237107971887298,-0.030391587128862925,
0.021533319412327497,-0.032569064905265233,
0.018789537346210115,-0.033967091695818442,
0.015748031496062995,-0.034448818897637797,
0.012706525645915871,-0.033967091695818442,
0.009962743579798497,-0.032569064905265233,
0.0077852658033961885,-0.030391587128862928,
0.0063872390128429787,-0.027647805062745546,
0.0059055118110236228,-0.024606299212598427,
0.006387239012842977,-0.021564793362451307,
0.0077852658033961868,-0.018821011296333928,
0.0099627435797984918,-0.016643533519931621,
0.012706525645915871,-0.015245506729378409,
0*
4,1,19,
0.015748031496062995,0.034448818897637797,
0.018789537346210115,0.033967091695818442,
0.02153331941232749,0.032569064905265233,
0.0237107971887298,0.030391587128862928,
0.025108823979283011,0.027647805062745546,
0.025590551181102365,0.024606299212598427,
0.025108823979283011,0.021564793362451307,
0.0237107971887298,0.018821011296333928,
0.021533319412327497,0.016643533519931621,
0.018789537346210115,0.015245506729378409,
0.015748031496062995,0.014763779527559057,
0.012706525645915871,0.015245506729378409,
0.009962743579798497,0.016643533519931621,
0.0077852658033961885,0.018821011296333925,
0.0063872390128429787,0.021564793362451307,
0.0059055118110236228,0.024606299212598427,
0.006387239012842977,0.027647805062745546,
0.0077852658033961868,0.030391587128862925,
0.0099627435797984918,0.032569064905265233,
0.012706525645915871,0.033967091695818442,
0*
4,1,19,
-0.015748031496062995,0.034448818897637797,
-0.012706525645915873,0.033967091695818442,
-0.0099627435797984935,0.032569064905265233,
-0.0077852658033961877,0.030391587128862928,
-0.0063872390128429787,0.027647805062745546,
-0.0059055118110236228,0.024606299212598427,
-0.006387239012842977,0.021564793362451307,
-0.0077852658033961877,0.018821011296333928,
-0.0099627435797984918,0.016643533519931621,
-0.012706525645915873,0.015245506729378409,
-0.015748031496062992,0.014763779527559057,
-0.018789537346210118,0.015245506729378409,
-0.02153331941232749,0.016643533519931621,
-0.0237107971887298,0.018821011296333925,
-0.025108823979283011,0.021564793362451307,
-0.025590551181102365,0.024606299212598427,
-0.025108823979283011,0.027647805062745546,
-0.0237107971887298,0.030391587128862925,
-0.021533319412327497,0.032569064905265233,
-0.018789537346210118,0.033967091695818442,
0*
4,1,3,
-0.015748031496062995,-0.034448818897637797,
-0.015748031496062995,-0.014763779527559057,
0.015748031496062995,-0.014763779527559057,
0.015748031496062995,-0.034448818897637797,
0*
4,1,3,
0.025590551181102365,-0.024606299212598427,
0.0059055118110236228,-0.024606299212598427,
0.0059055118110236228,0.024606299212598427,
0.025590551181102365,0.024606299212598427,
0*
4,1,3,
0.015748031496062995,0.034448818897637797,
0.015748031496062995,0.014763779527559057,
-0.015748031496062995,0.014763779527559057,
-0.015748031496062995,0.034448818897637797,
0*
4,1,3,
-0.025590551181102365,0.024606299212598427,
-0.0059055118110236228,0.024606299212598427,
-0.0059055118110236228,-0.024606299212598427,
-0.025590551181102365,-0.024606299212598427,
0*%
%ADD99COMP137,0.25X-0.4X-0.625X0.4X-0.625X0.4X0.625X-0.4X0.625X0*%
%AMCOMP141*
4,1,3,
0.015748031496062995,0.024606299212598427,
-0.015748031496062995,0.024606299212598427,
-0.015748031496062995,-0.024606299212598427,
0.015748031496062995,-0.024606299212598427,
0*
4,1,19,
0.015748031496062995,0.034448818897637797,
0.018789537346210115,0.033967091695818442,
0.02153331941232749,0.032569064905265233,
0.0237107971887298,0.030391587128862928,
0.025108823979283011,0.027647805062745546,
0.025590551181102365,0.024606299212598427,
0.025108823979283011,0.021564793362451307,
0.0237107971887298,0.018821011296333928,
0.021533319412327497,0.016643533519931621,
0.018789537346210115,0.015245506729378409,
0.015748031496062995,0.014763779527559057,
0.012706525645915871,0.015245506729378409,
0.009962743579798497,0.016643533519931621,
0.0077852658033961885,0.018821011296333925,
0.0063872390128429787,0.021564793362451307,
0.0059055118110236228,0.024606299212598427,
0.006387239012842977,0.027647805062745546,
0.0077852658033961868,0.030391587128862925,
0.0099627435797984918,0.032569064905265233,
0.012706525645915871,0.033967091695818442,
0*
4,1,19,
-0.015748031496062995,0.034448818897637797,
-0.012706525645915873,0.033967091695818442,
-0.0099627435797984935,0.032569064905265233,
-0.0077852658033961877,0.030391587128862928,
-0.0063872390128429787,0.027647805062745546,
-0.0059055118110236228,0.024606299212598427,
-0.006387239012842977,0.021564793362451307,
-0.0077852658033961877,0.018821011296333928,
-0.0099627435797984918,0.016643533519931621,
-0.012706525645915873,0.015245506729378409,
-0.015748031496062992,0.014763779527559057,
-0.018789537346210118,0.015245506729378409,
-0.02153331941232749,0.016643533519931621,
-0.0237107971887298,0.018821011296333925,
-0.025108823979283011,0.021564793362451307,
-0.025590551181102365,0.024606299212598427,
-0.025108823979283011,0.027647805062745546,
-0.0237107971887298,0.030391587128862925,
-0.021533319412327497,0.032569064905265233,
-0.018789537346210118,0.033967091695818442,
0*
4,1,19,
-0.015748031496062995,-0.014763779527559057,
-0.012706525645915873,-0.015245506729378409,
-0.0099627435797984935,-0.016643533519931621,
-0.0077852658033961877,-0.018821011296333928,
-0.0063872390128429787,-0.021564793362451307,
-0.0059055118110236228,-0.024606299212598427,
-0.006387239012842977,-0.027647805062745546,
-0.0077852658033961877,-0.030391587128862925,
-0.0099627435797984918,-0.032569064905265233,
-0.012706525645915873,-0.033967091695818442,
-0.015748031496062992,-0.034448818897637797,
-0.018789537346210118,-0.033967091695818442,
-0.02153331941232749,-0.032569064905265233,
-0.0237107971887298,-0.030391587128862928,
-0.025108823979283011,-0.027647805062745546,
-0.025590551181102365,-0.024606299212598427,
-0.025108823979283011,-0.021564793362451307,
-0.0237107971887298,-0.018821011296333928,
-0.021533319412327497,-0.016643533519931621,
-0.018789537346210118,-0.015245506729378409,
0*
4,1,19,
0.015748031496062995,-0.014763779527559057,
0.018789537346210115,-0.015245506729378409,
0.02153331941232749,-0.016643533519931621,
0.0237107971887298,-0.018821011296333928,
0.025108823979283011,-0.021564793362451307,
0.025590551181102365,-0.024606299212598427,
0.025108823979283011,-0.027647805062745546,
0.0237107971887298,-0.030391587128862925,
0.021533319412327497,-0.032569064905265233,
0.018789537346210115,-0.033967091695818442,
0.015748031496062995,-0.034448818897637797,
0.012706525645915871,-0.033967091695818442,
0.009962743579798497,-0.032569064905265233,
0.0077852658033961885,-0.030391587128862928,
0.0063872390128429787,-0.027647805062745546,
0.0059055118110236228,-0.024606299212598427,
0.006387239012842977,-0.021564793362451307,
0.0077852658033961868,-0.018821011296333928,
0.0099627435797984918,-0.016643533519931621,
0.012706525645915871,-0.015245506729378409,
0*
4,1,3,
0.015748031496062995,0.034448818897637797,
0.015748031496062995,0.014763779527559057,
-0.015748031496062995,0.014763779527559057,
-0.015748031496062995,0.034448818897637797,
0*
4,1,3,
-0.025590551181102365,0.024606299212598427,
-0.0059055118110236228,0.024606299212598427,
-0.0059055118110236228,-0.024606299212598427,
-0.025590551181102365,-0.024606299212598427,
0*
4,1,3,
-0.015748031496062995,-0.034448818897637797,
-0.015748031496062995,-0.014763779527559057,
0.015748031496062995,-0.014763779527559057,
0.015748031496062995,-0.034448818897637797,
0*
4,1,3,
0.025590551181102365,-0.024606299212598427,
0.0059055118110236228,-0.024606299212598427,
0.0059055118110236228,0.024606299212598427,
0.025590551181102365,0.024606299212598427,
0*%
%ADD100COMP141,0.25X0.4X0.625X-0.4X0.625X-0.4X-0.625X0.4X-0.625X0*%
G01*
D10*
X-0004055118Y0008188976D02*
X0000397263Y0003418976D03*
X0000507499Y0003418976D03*
D11*
X0000972381Y0003788976D03*
X0000192381Y0003788976D03*
X0000972381Y0003103976D03*
D12*
X0000692381Y0003508976D03*
D13*
X0000692381Y0003408976D03*
D12*
X0000602381Y0003833976D03*
D13*
X0000502381Y0003833976D03*
D14*
X0000403326Y0003566377D03*
X0000403326Y0003491574D03*
X0000521437Y0003528976D03*
D15*
X0000947381Y0003346476D03*
D16*
X0000947381Y0003546476D03*
D11*
X0000187381Y0003113976D03*
D12*
X0000137381Y0003396476D03*
D13*
X0000137381Y0003496476D03*
D17*
X0000391358Y0003198976D03*
X0000513405Y0003198976D03*
D18*
X0000513405Y0003293976D03*
X0000391358Y0003293976D03*
G04 next file*
G04 #@! TF.GenerationSoftware,KiCad,Pcbnew,(6.0.5)*
G04 #@! TF.CreationDate,2022-08-01T19:03:23+01:00*
G04 #@! TF.ProjectId,PWM-TRANSISTOR-PCB,50574d2d-5452-4414-9e53-4953544f522d,rev?*
G04 #@! TF.SameCoordinates,Original*
G04 #@! TF.FileFunction,Soldermask,Top*
G04 #@! TF.FilePolarity,Negative*
G04 Gerber Fmt 4.6, Leading zero omitted, Abs format (unit mm)*
G04 Created by KiCad (PCBNEW (6.0.5)) date 2022-08-01 19:03:23*
G01*
G04 APERTURE LIST*
G04 Aperture macros list*
G04 Aperture macros list end*
G04 APERTURE END LIST*
D29*
X-0002913385Y0008188976D02*
X0001538996Y0003418976D03*
X0001649232Y0003418976D03*
D30*
X0002114114Y0003788976D03*
X0001334114Y0003788976D03*
X0002114114Y0003103976D03*
D31*
X0001834114Y0003508976D03*
D32*
X0001834114Y0003408976D03*
D31*
X0001744114Y0003833976D03*
D32*
X0001644114Y0003833976D03*
D33*
X0001545059Y0003566377D03*
X0001545059Y0003491574D03*
X0001663169Y0003528976D03*
D34*
X0002089114Y0003346476D03*
D35*
X0002089114Y0003546476D03*
D30*
X0001329114Y0003113976D03*
D31*
X0001279114Y0003396476D03*
D32*
X0001279114Y0003496476D03*
D36*
X0001533090Y0003198976D03*
X0001655137Y0003198976D03*
D37*
X0001655137Y0003293976D03*
X0001533090Y0003293976D03*
G04 next file*
G04 #@! TF.GenerationSoftware,KiCad,Pcbnew,(6.0.5)*
G04 #@! TF.CreationDate,2022-08-01T19:03:23+01:00*
G04 #@! TF.ProjectId,PWM-TRANSISTOR-PCB,50574d2d-5452-4414-9e53-4953544f522d,rev?*
G04 #@! TF.SameCoordinates,Original*
G04 #@! TF.FileFunction,Soldermask,Top*
G04 #@! TF.FilePolarity,Negative*
G04 Gerber Fmt 4.6, Leading zero omitted, Abs format (unit mm)*
G04 Created by KiCad (PCBNEW (6.0.5)) date 2022-08-01 19:03:23*
G01*
G04 APERTURE LIST*
G04 Aperture macros list*
G04 Aperture macros list end*
G04 APERTURE END LIST*
D38*
X-0001771653Y0008188976D02*
X0002680728Y0003418976D03*
X0002790964Y0003418976D03*
D39*
X0003255846Y0003788976D03*
X0002475846Y0003788976D03*
X0003255846Y0003103976D03*
D40*
X0002975846Y0003508976D03*
D41*
X0002975846Y0003408976D03*
D40*
X0002885846Y0003833976D03*
D41*
X0002785846Y0003833976D03*
D42*
X0002686791Y0003566377D03*
X0002686791Y0003491574D03*
X0002804901Y0003528976D03*
D43*
X0003230846Y0003346476D03*
D44*
X0003230846Y0003546476D03*
D39*
X0002470846Y0003113976D03*
D40*
X0002420846Y0003396476D03*
D41*
X0002420846Y0003496476D03*
D45*
X0002674822Y0003198976D03*
X0002796870Y0003198976D03*
D46*
X0002796870Y0003293976D03*
X0002674822Y0003293976D03*
G04 next file*
G04 #@! TF.GenerationSoftware,KiCad,Pcbnew,(6.0.5)*
G04 #@! TF.CreationDate,2022-08-01T19:03:23+01:00*
G04 #@! TF.ProjectId,PWM-TRANSISTOR-PCB,50574d2d-5452-4414-9e53-4953544f522d,rev?*
G04 #@! TF.SameCoordinates,Original*
G04 #@! TF.FileFunction,Soldermask,Top*
G04 #@! TF.FilePolarity,Negative*
G04 Gerber Fmt 4.6, Leading zero omitted, Abs format (unit mm)*
G04 Created by KiCad (PCBNEW (6.0.5)) date 2022-08-01 19:03:23*
G01*
G04 APERTURE LIST*
G04 Aperture macros list*
G04 Aperture macros list end*
G04 APERTURE END LIST*
D47*
X-0004055118Y0007165354D02*
X0000397263Y0002395354D03*
X0000507499Y0002395354D03*
D48*
X0000972381Y0002765354D03*
X0000192381Y0002765354D03*
X0000972381Y0002080354D03*
D49*
X0000692381Y0002485354D03*
D50*
X0000692381Y0002385354D03*
D49*
X0000602381Y0002810354D03*
D50*
X0000502381Y0002810354D03*
D51*
X0000403326Y0002542755D03*
X0000403326Y0002467952D03*
X0000521437Y0002505354D03*
D52*
X0000947381Y0002322854D03*
D53*
X0000947381Y0002522854D03*
D48*
X0000187381Y0002090354D03*
D49*
X0000137381Y0002372854D03*
D50*
X0000137381Y0002472854D03*
D54*
X0000391358Y0002175354D03*
X0000513405Y0002175354D03*
D55*
X0000513405Y0002270354D03*
X0000391358Y0002270354D03*
G04 next file*
G04 #@! TF.GenerationSoftware,KiCad,Pcbnew,(6.0.5)*
G04 #@! TF.CreationDate,2022-08-01T19:03:23+01:00*
G04 #@! TF.ProjectId,PWM-TRANSISTOR-PCB,50574d2d-5452-4414-9e53-4953544f522d,rev?*
G04 #@! TF.SameCoordinates,Original*
G04 #@! TF.FileFunction,Soldermask,Top*
G04 #@! TF.FilePolarity,Negative*
G04 Gerber Fmt 4.6, Leading zero omitted, Abs format (unit mm)*
G04 Created by KiCad (PCBNEW (6.0.5)) date 2022-08-01 19:03:23*
G01*
G04 APERTURE LIST*
G04 Aperture macros list*
G04 Aperture macros list end*
G04 APERTURE END LIST*
D56*
X-0002913385Y0007165354D02*
X0001538996Y0002395354D03*
X0001649232Y0002395354D03*
D57*
X0002114114Y0002765354D03*
X0001334114Y0002765354D03*
X0002114114Y0002080354D03*
D58*
X0001834114Y0002485354D03*
D59*
X0001834114Y0002385354D03*
D58*
X0001744114Y0002810354D03*
D59*
X0001644114Y0002810354D03*
D60*
X0001545059Y0002542755D03*
X0001545059Y0002467952D03*
X0001663169Y0002505354D03*
D61*
X0002089114Y0002322854D03*
D62*
X0002089114Y0002522854D03*
D57*
X0001329114Y0002090354D03*
D58*
X0001279114Y0002372854D03*
D59*
X0001279114Y0002472854D03*
D63*
X0001533090Y0002175354D03*
X0001655137Y0002175354D03*
D64*
X0001655137Y0002270354D03*
X0001533090Y0002270354D03*
G04 next file*
G04 #@! TF.GenerationSoftware,KiCad,Pcbnew,(6.0.5)*
G04 #@! TF.CreationDate,2022-08-01T19:03:23+01:00*
G04 #@! TF.ProjectId,PWM-TRANSISTOR-PCB,50574d2d-5452-4414-9e53-4953544f522d,rev?*
G04 #@! TF.SameCoordinates,Original*
G04 #@! TF.FileFunction,Soldermask,Top*
G04 #@! TF.FilePolarity,Negative*
G04 Gerber Fmt 4.6, Leading zero omitted, Abs format (unit mm)*
G04 Created by KiCad (PCBNEW (6.0.5)) date 2022-08-01 19:03:23*
G01*
G04 APERTURE LIST*
G04 Aperture macros list*
G04 Aperture macros list end*
G04 APERTURE END LIST*
D65*
X-0001771653Y0007165354D02*
X0002680728Y0002395354D03*
X0002790964Y0002395354D03*
D66*
X0003255846Y0002765354D03*
X0002475846Y0002765354D03*
X0003255846Y0002080354D03*
D67*
X0002975846Y0002485354D03*
D68*
X0002975846Y0002385354D03*
D67*
X0002885846Y0002810354D03*
D68*
X0002785846Y0002810354D03*
D69*
X0002686791Y0002542755D03*
X0002686791Y0002467952D03*
X0002804901Y0002505354D03*
D70*
X0003230846Y0002322854D03*
D71*
X0003230846Y0002522854D03*
D66*
X0002470846Y0002090354D03*
D67*
X0002420846Y0002372854D03*
D68*
X0002420846Y0002472854D03*
D72*
X0002674822Y0002175354D03*
X0002796870Y0002175354D03*
D73*
X0002796870Y0002270354D03*
X0002674822Y0002270354D03*
G04 next file*
G04 #@! TF.GenerationSoftware,KiCad,Pcbnew,(6.0.5)*
G04 #@! TF.CreationDate,2022-08-01T19:03:23+01:00*
G04 #@! TF.ProjectId,PWM-TRANSISTOR-PCB,50574d2d-5452-4414-9e53-4953544f522d,rev?*
G04 #@! TF.SameCoordinates,Original*
G04 #@! TF.FileFunction,Soldermask,Top*
G04 #@! TF.FilePolarity,Negative*
G04 Gerber Fmt 4.6, Leading zero omitted, Abs format (unit mm)*
G04 Created by KiCad (PCBNEW (6.0.5)) date 2022-08-01 19:03:23*
G01*
G04 APERTURE LIST*
G04 Aperture macros list*
G04 Aperture macros list end*
G04 APERTURE END LIST*
D74*
X-0004055118Y0006141732D02*
X0000397263Y0001371732D03*
X0000507499Y0001371732D03*
D75*
X0000972381Y0001741732D03*
X0000192381Y0001741732D03*
X0000972381Y0001056732D03*
D76*
X0000692381Y0001461732D03*
D77*
X0000692381Y0001361732D03*
D76*
X0000602381Y0001786732D03*
D77*
X0000502381Y0001786732D03*
D78*
X0000403326Y0001519133D03*
X0000403326Y0001444330D03*
X0000521437Y0001481732D03*
D79*
X0000947381Y0001299232D03*
D80*
X0000947381Y0001499232D03*
D75*
X0000187381Y0001066732D03*
D76*
X0000137381Y0001349232D03*
D77*
X0000137381Y0001449232D03*
D81*
X0000391358Y0001151732D03*
X0000513405Y0001151732D03*
D82*
X0000513405Y0001246732D03*
X0000391358Y0001246732D03*
G04 next file*
G04 #@! TF.GenerationSoftware,KiCad,Pcbnew,(6.0.5)*
G04 #@! TF.CreationDate,2022-08-01T19:03:23+01:00*
G04 #@! TF.ProjectId,PWM-TRANSISTOR-PCB,50574d2d-5452-4414-9e53-4953544f522d,rev?*
G04 #@! TF.SameCoordinates,Original*
G04 #@! TF.FileFunction,Soldermask,Top*
G04 #@! TF.FilePolarity,Negative*
G04 Gerber Fmt 4.6, Leading zero omitted, Abs format (unit mm)*
G04 Created by KiCad (PCBNEW (6.0.5)) date 2022-08-01 19:03:23*
G01*
G04 APERTURE LIST*
G04 Aperture macros list*
G04 Aperture macros list end*
G04 APERTURE END LIST*
D83*
X-0002913385Y0006141732D02*
X0001538996Y0001371732D03*
X0001649232Y0001371732D03*
D84*
X0002114114Y0001741732D03*
X0001334114Y0001741732D03*
X0002114114Y0001056732D03*
D85*
X0001834114Y0001461732D03*
D86*
X0001834114Y0001361732D03*
D85*
X0001744114Y0001786732D03*
D86*
X0001644114Y0001786732D03*
D87*
X0001545059Y0001519133D03*
X0001545059Y0001444330D03*
X0001663169Y0001481732D03*
D88*
X0002089114Y0001299232D03*
D89*
X0002089114Y0001499232D03*
D84*
X0001329114Y0001066732D03*
D85*
X0001279114Y0001349232D03*
D86*
X0001279114Y0001449232D03*
D90*
X0001533090Y0001151732D03*
X0001655137Y0001151732D03*
D91*
X0001655137Y0001246732D03*
X0001533090Y0001246732D03*
G04 next file*
G04 #@! TF.GenerationSoftware,KiCad,Pcbnew,(6.0.5)*
G04 #@! TF.CreationDate,2022-08-01T19:03:23+01:00*
G04 #@! TF.ProjectId,PWM-TRANSISTOR-PCB,50574d2d-5452-4414-9e53-4953544f522d,rev?*
G04 #@! TF.SameCoordinates,Original*
G04 #@! TF.FileFunction,Soldermask,Top*
G04 #@! TF.FilePolarity,Negative*
G04 Gerber Fmt 4.6, Leading zero omitted, Abs format (unit mm)*
G04 Created by KiCad (PCBNEW (6.0.5)) date 2022-08-01 19:03:23*
G01*
G04 APERTURE LIST*
G04 Aperture macros list*
G04 Aperture macros list end*
G04 APERTURE END LIST*
D92*
X-0001771653Y0006141732D02*
X0002680728Y0001371732D03*
X0002790964Y0001371732D03*
D93*
X0003255846Y0001741732D03*
X0002475846Y0001741732D03*
X0003255846Y0001056732D03*
D94*
X0002975846Y0001461732D03*
D95*
X0002975846Y0001361732D03*
D94*
X0002885846Y0001786732D03*
D95*
X0002785846Y0001786732D03*
D96*
X0002686791Y0001519133D03*
X0002686791Y0001444330D03*
X0002804901Y0001481732D03*
D97*
X0003230846Y0001299232D03*
D98*
X0003230846Y0001499232D03*
D93*
X0002470846Y0001066732D03*
D94*
X0002420846Y0001349232D03*
D95*
X0002420846Y0001449232D03*
D99*
X0002674822Y0001151732D03*
X0002796870Y0001151732D03*
D100*
X0002796870Y0001246732D03*
X0002674822Y0001246732D03*
M02*