%MOIN*%
%OFA0B0*%
%FSLAX36Y36*%
%IPPOS*%
%LPD*%
%ADD10C,0*%
D10*
X001547809Y001952174D02*
X001547809Y001952174D01*
X001814912Y001951304D01*
X001819334Y001951040D01*
X001823698Y001950282D01*
X001827950Y001949037D01*
X001832035Y001947323D01*
X001835901Y001945161D01*
X001839500Y001942578D01*
X001842787Y001939608D01*
X001845718Y001936287D01*
X001848258Y001932657D01*
X001850374Y001928765D01*
X001852040Y001924660D01*
X001853234Y001920394D01*
X001853941Y001916021D01*
X001854152Y001911596D01*
X001853865Y001907176D01*
X001853083Y001902815D01*
X001851816Y001898570D01*
X001850081Y001894495D01*
X001847898Y001890640D01*
X001845296Y001887055D01*
X001842579Y001883722D01*
X001841446Y001882394D01*
X001840256Y001881118D01*
X001839010Y001879896D01*
X001837711Y001878730D01*
X001836362Y001877622D01*
X001834965Y001876576D01*
X001833523Y001875592D01*
X001832039Y001874674D01*
X001830515Y001873822D01*
X001828956Y001873038D01*
X001827363Y001872325D01*
X001825740Y001871683D01*
X001824090Y001871113D01*
X001822417Y001870617D01*
X001820723Y001870195D01*
X001819012Y001869849D01*
X001817288Y001869580D01*
X001815553Y001869386D01*
X001813812Y001869270D01*
X001812067Y001869232D01*
X001554361Y001869232D01*
X001553256Y001869247D01*
X001552152Y001869294D01*
X001551050Y001869371D01*
X001549950Y001869480D01*
X001548853Y001869619D01*
X001547761Y001869789D01*
X001546674Y001869990D01*
X001545594Y001870221D01*
X001544520Y001870482D01*
X001543453Y001870773D01*
X001542396Y001871094D01*
X001541348Y001871445D01*
X001540310Y001871825D01*
X001539283Y001872234D01*
X001538268Y001872671D01*
X001537266Y001873137D01*
X001536277Y001873631D01*
X001535303Y001874152D01*
X001534343Y001874701D01*
X001533400Y001875276D01*
X001526719Y001879478D01*
X001522601Y001882456D01*
X001518901Y001885939D01*
X001515680Y001889870D01*
X001512993Y001894183D01*
X001510883Y001898807D01*
X001509387Y001903663D01*
X001508528Y001908672D01*
X001508322Y001913750D01*
X001508772Y001918812D01*
X001509870Y001923774D01*
X001511598Y001928553D01*
X001513927Y001933069D01*
X001516819Y001937248D01*
X001520224Y001941020D01*
X001524088Y001944322D01*
X001528344Y001947098D01*
X001532922Y001949303D01*
X001537747Y001950900D01*
X001542737Y001951862D01*
X001547809Y001952174D01*
X000393976Y001952213D02*
X000393976Y001952213D01*
X000693146Y001951239D01*
X000697577Y001950974D01*
X000701951Y001950212D01*
X000706211Y001948963D01*
X000710303Y001947242D01*
X000714176Y001945071D01*
X000717779Y001942478D01*
X000721067Y001939495D01*
X000723999Y001936162D01*
X000726537Y001932519D01*
X000728649Y001928614D01*
X000730308Y001924497D01*
X000731492Y001920218D01*
X000732188Y001915833D01*
X000732385Y001911398D01*
X000732082Y001906969D01*
X000731282Y001902603D01*
X000729995Y001898354D01*
X000728239Y001894277D01*
X000726034Y001890423D01*
X000723410Y001886843D01*
X000720719Y001883575D01*
X000719587Y001882260D01*
X000718397Y001880996D01*
X000717153Y001879785D01*
X000715857Y001878631D01*
X000714511Y001877535D01*
X000713118Y001876499D01*
X000711680Y001875525D01*
X000710201Y001874616D01*
X000708684Y001873773D01*
X000707131Y001872998D01*
X000705545Y001872292D01*
X000703930Y001871656D01*
X000702288Y001871093D01*
X000700623Y001870602D01*
X000698937Y001870185D01*
X000697236Y001869843D01*
X000695520Y001869576D01*
X000693795Y001869385D01*
X000692063Y001869270D01*
X000690327Y001869232D01*
X000383801Y001869232D01*
X000378421Y001869601D01*
X000373141Y001870703D01*
X000368061Y001872515D01*
X000363276Y001875005D01*
X000358877Y001878126D01*
X000354946Y001881818D01*
X000351556Y001886014D01*
X000348771Y001890633D01*
X000346644Y001895589D01*
X000345214Y001900790D01*
X000344509Y001906137D01*
X000344540Y001911530D01*
X000345309Y001916869D01*
X000346800Y001922052D01*
X000348986Y001926983D01*
X000351825Y001931569D01*
X000355264Y001935724D01*
X000359239Y001939370D01*
X000363674Y001942438D01*
X000368488Y001944872D01*
X000378534Y001949113D01*
X000379267Y001949414D01*
X000380007Y001949700D01*
X000380752Y001949972D01*
X000381502Y001950228D01*
X000382257Y001950469D01*
X000383017Y001950695D01*
X000383782Y001950905D01*
X000384550Y001951100D01*
X000385322Y001951279D01*
X000386098Y001951443D01*
X000386877Y001951592D01*
X000387659Y001951724D01*
X000388443Y001951841D01*
X000389229Y001951942D01*
X000390017Y001952027D01*
X000390807Y001952096D01*
X000391598Y001952149D01*
X000392390Y001952187D01*
X000393183Y001952208D01*
X000393976Y001952213D01*
X000406111Y002975796D02*
X000406111Y002975796D01*
X000695655Y002974853D01*
X000698140Y002974766D01*
X000700615Y002974523D01*
X000703069Y002974124D01*
X000705494Y002973570D01*
X000707878Y002972865D01*
X000710214Y002972011D01*
X000712490Y002971011D01*
X000714699Y002969869D01*
X000716832Y002968590D01*
X000718880Y002967179D01*
X000720834Y002965641D01*
X000722687Y002963984D01*
X000724433Y002962212D01*
X000726062Y002960334D01*
X000727570Y002958357D01*
X000728950Y002956288D01*
X000730197Y002954136D01*
X000731306Y002951910D01*
X000732271Y002949619D01*
X000733090Y002947271D01*
X000734113Y002944012D01*
X000735052Y002940444D01*
X000735652Y002936804D01*
X000735909Y002933123D01*
X000735820Y002929435D01*
X000735387Y002925771D01*
X000734612Y002922164D01*
X000733504Y002918645D01*
X000732070Y002915246D01*
X000730325Y002911995D01*
X000728283Y002908923D01*
X000725963Y002906054D01*
X000723384Y002903416D01*
X000720570Y002901031D01*
X000717544Y002898919D01*
X000714334Y002897100D01*
X000710969Y002895589D01*
X000707476Y002894401D01*
X000703888Y002893544D01*
X000700235Y002893027D01*
X000696549Y002892854D01*
X000408886Y002892854D01*
X000406984Y002892900D01*
X000405088Y002893037D01*
X000403199Y002893267D01*
X000401325Y002893587D01*
X000399468Y002893997D01*
X000397632Y002894496D01*
X000395823Y002895084D01*
X000394045Y002895758D01*
X000392301Y002896517D01*
X000390596Y002897360D01*
X000388934Y002898284D01*
X000387318Y002899287D01*
X000385752Y002900367D01*
X000384241Y002901522D01*
X000382787Y002902748D01*
X000381394Y002904042D01*
X000380065Y002905403D01*
X000378803Y002906826D01*
X000377612Y002908309D01*
X000376493Y002909847D01*
X000373591Y002914049D01*
X000371350Y002917703D01*
X000369520Y002921579D01*
X000368122Y002925631D01*
X000367173Y002929811D01*
X000366684Y002934070D01*
X000366660Y002938356D01*
X000367103Y002942620D01*
X000368007Y002946810D01*
X000369361Y002950877D01*
X000371149Y002954772D01*
X000373350Y002958451D01*
X000375938Y002961868D01*
X000378882Y002964983D01*
X000382147Y002967760D01*
X000385695Y002970166D01*
X000389483Y002972172D01*
X000393467Y002973753D01*
X000397599Y002974893D01*
X000401830Y002975576D01*
X000406111Y002975796D01*
X002680250Y001869232D02*
X002680250Y001869232D01*
X002675856Y001869478D01*
X002671518Y001870212D01*
X002667288Y001871427D01*
X002663220Y001873105D01*
X002659365Y001875228D01*
X002655771Y001877767D01*
X002652483Y001880691D01*
X002649542Y001883964D01*
X002646984Y001887545D01*
X002644842Y001891389D01*
X002643142Y001895448D01*
X002641906Y001899671D01*
X002641149Y001904006D01*
X002640880Y001908399D01*
X002641104Y001912793D01*
X002641816Y001917136D01*
X002643008Y001921372D01*
X002644666Y001925448D01*
X002646768Y001929314D01*
X002649289Y001932921D01*
X002652605Y001937142D01*
X002653740Y001938523D01*
X002654938Y001939850D01*
X002656194Y001941122D01*
X002657507Y001942335D01*
X002658874Y001943488D01*
X002660291Y001944577D01*
X002661757Y001945601D01*
X002663267Y001946557D01*
X002664820Y001947444D01*
X002666411Y001948259D01*
X002668037Y001949001D01*
X002669695Y001949669D01*
X002671382Y001950261D01*
X002673094Y001950775D01*
X002674828Y001951211D01*
X002676580Y001951568D01*
X002678346Y001951846D01*
X002680122Y001952042D01*
X002681906Y001952158D01*
X002683694Y001952193D01*
X002957102Y001951302D01*
X002959851Y001951197D01*
X002962586Y001950901D01*
X002965293Y001950414D01*
X002967960Y001949739D01*
X002970573Y001948879D01*
X002973120Y001947839D01*
X002975588Y001946624D01*
X002977965Y001945240D01*
X002980239Y001943693D01*
X002982400Y001941991D01*
X002984437Y001940142D01*
X002986340Y001938155D01*
X002988100Y001936040D01*
X002989707Y001933808D01*
X002991155Y001931469D01*
X002992435Y001929034D01*
X002993543Y001926516D01*
X002994472Y001923927D01*
X002995218Y001921279D01*
X002995777Y001918586D01*
X002996349Y001915255D01*
X002996780Y001911857D01*
X002996914Y001908434D01*
X002996751Y001905013D01*
X002996291Y001901619D01*
X002995537Y001898277D01*
X002994496Y001895014D01*
X002993175Y001891854D01*
X002991584Y001888820D01*
X002989736Y001885936D01*
X002987644Y001883224D01*
X002985324Y001880704D01*
X002982794Y001878395D01*
X002980073Y001876314D01*
X002977181Y001874478D01*
X002974141Y001872901D01*
X002970975Y001871593D01*
X002967707Y001870566D01*
X002964363Y001869827D01*
X002960967Y001869381D01*
X002957545Y001869232D01*
X002680250Y001869232D01*
X002241581Y001551412D02*
X002241581Y001551412D01*
X002241700Y001554472D01*
X002242057Y001557513D01*
X002242650Y001560517D01*
X002243474Y001563466D01*
X002244525Y001566343D01*
X002245796Y001569129D01*
X002247280Y001571807D01*
X002248967Y001574362D01*
X002250848Y001576779D01*
X002252911Y001579042D01*
X002255144Y001581137D01*
X002257533Y001583053D01*
X002260063Y001584777D01*
X002262720Y001586300D01*
X002265487Y001587611D01*
X002268348Y001588703D01*
X002271285Y001589570D01*
X002274280Y001590206D01*
X002277316Y001590607D01*
X002280374Y001590771D01*
X002303486Y001591109D01*
X002306605Y001591032D01*
X002309709Y001590707D01*
X002312777Y001590137D01*
X002315790Y001589326D01*
X002318730Y001588280D01*
X002321578Y001587003D01*
X002324315Y001585505D01*
X002326925Y001583795D01*
X002329392Y001581884D01*
X002331699Y001579783D01*
X002333833Y001577506D01*
X002335780Y001575068D01*
X002337528Y001572482D01*
X002339065Y001569767D01*
X002340383Y001566938D01*
X002341472Y001564014D01*
X002342326Y001561013D01*
X002342940Y001557953D01*
X002343310Y001554855D01*
X002343433Y001551736D01*
X002343386Y001292340D01*
X002343232Y001288874D01*
X002342774Y001285434D01*
X002342015Y001282048D01*
X002340960Y001278742D01*
X002339619Y001275542D01*
X002338001Y001272473D01*
X002336119Y001269557D01*
X002333987Y001266819D01*
X002331623Y001264279D01*
X002329045Y001261957D01*
X002326272Y001259872D01*
X002323326Y001258038D01*
X002320230Y001256471D01*
X002317008Y001255183D01*
X002313685Y001254183D01*
X002310287Y001253480D01*
X002306840Y001253079D01*
X002303372Y001252983D01*
X002299908Y001253192D01*
X002296477Y001253706D01*
X002273366Y001258215D01*
X002270723Y001258826D01*
X002268129Y001259617D01*
X002265595Y001260585D01*
X002263133Y001261725D01*
X002260756Y001263033D01*
X002258475Y001264500D01*
X002256300Y001266122D01*
X002254242Y001267889D01*
X002252311Y001269794D01*
X002250515Y001271827D01*
X002248864Y001273979D01*
X002247365Y001276240D01*
X002246025Y001278598D01*
X002244850Y001281043D01*
X002243847Y001283564D01*
X002243020Y001286147D01*
X002242372Y001288781D01*
X002241907Y001291454D01*
X002241628Y001294152D01*
X002241535Y001296863D01*
X002241581Y001551412D01*
X002345679Y001763433D02*
X002345679Y001763433D01*
X002345062Y001760710D01*
X002344253Y001758038D01*
X002343257Y001755429D01*
X002342078Y001752898D01*
X002340723Y001750457D01*
X002339198Y001748118D01*
X002337511Y001745892D01*
X002335671Y001743792D01*
X002333687Y001741828D01*
X002331568Y001740009D01*
X002329326Y001738345D01*
X002326972Y001736844D01*
X002324517Y001735514D01*
X002321974Y001734361D01*
X002319355Y001733392D01*
X002316675Y001732610D01*
X002313946Y001732020D01*
X002311181Y001731625D01*
X002308396Y001731427D01*
X002305604Y001731427D01*
X002276379Y001732464D01*
X002273770Y001732643D01*
X002271179Y001732996D01*
X002268617Y001733519D01*
X002266095Y001734211D01*
X002263625Y001735070D01*
X002261217Y001736090D01*
X002258883Y001737268D01*
X002256631Y001738598D01*
X002254473Y001740075D01*
X002252418Y001741692D01*
X002250475Y001743441D01*
X002248652Y001745316D01*
X002246957Y001747308D01*
X002245399Y001749408D01*
X002243983Y001751606D01*
X002242717Y001753894D01*
X002241605Y001756261D01*
X002240652Y001758696D01*
X002239864Y001761189D01*
X002239242Y001763729D01*
X002239242Y001763729D01*
X002237479Y001772138D01*
X002233654Y001784301D01*
X002228656Y001796031D01*
X002222533Y001807217D01*
X002215345Y001817748D01*
X002207160Y001827526D01*
X002198058Y001836455D01*
X002188125Y001844451D01*
X002177458Y001851435D01*
X002166157Y001857342D01*
X002154333Y001862114D01*
X002142099Y001865706D01*
X002129571Y001868083D01*
X002116871Y001869222D01*
X002104120Y001869112D01*
X002104114Y001869232D01*
X002036265Y001869232D01*
X002034743Y001869261D01*
X002033224Y001869349D01*
X002031708Y001869496D01*
X002030200Y001869702D01*
X002028701Y001869965D01*
X002027213Y001870287D01*
X002025738Y001870665D01*
X002024280Y001871100D01*
X002022839Y001871592D01*
X002021418Y001872139D01*
X002020020Y001872740D01*
X002018646Y001873395D01*
X002017298Y001874102D01*
X002015978Y001874861D01*
X002014689Y001875670D01*
X002013432Y001876529D01*
X002012209Y001877436D01*
X002011023Y001878389D01*
X002009873Y001879387D01*
X002008764Y001880429D01*
X002006080Y001883049D01*
X002002941Y001886500D01*
X002000231Y001890299D01*
X001997990Y001894391D01*
X001996249Y001898719D01*
X001995033Y001903223D01*
X001994357Y001907840D01*
X001994232Y001912504D01*
X001994660Y001917150D01*
X001995635Y001921712D01*
X001997142Y001926128D01*
X001999162Y001930334D01*
X002001664Y001934271D01*
X002004615Y001937885D01*
X002007973Y001941125D01*
X002011690Y001943944D01*
X002015715Y001946304D01*
X002019990Y001948171D01*
X002024457Y001949520D01*
X002029052Y001950330D01*
X002033710Y001950591D01*
X002106614Y001950354D01*
X002119364Y001950489D01*
X002132040Y001951871D01*
X002144519Y001954488D01*
X002156683Y001958314D01*
X002168413Y001963312D01*
X002179598Y001969435D01*
X002190130Y001976622D01*
X002199907Y001984808D01*
X002208837Y001993909D01*
X002216832Y002003843D01*
X002223817Y002014510D01*
X002229724Y002025810D01*
X002234495Y002037635D01*
X002238087Y002049869D01*
X002240464Y002062397D01*
X002241603Y002075097D01*
X002241493Y002087847D01*
X002241493Y002087937D01*
X002241614Y002091004D01*
X002241972Y002094053D01*
X002242567Y002097064D01*
X002243395Y002100019D01*
X002244451Y002102901D01*
X002245728Y002105692D01*
X002247218Y002108376D01*
X002248913Y002110934D01*
X002250802Y002113353D01*
X002252874Y002115618D01*
X002255116Y002117714D01*
X002257515Y002119629D01*
X002260055Y002121352D01*
X002262722Y002122871D01*
X002265499Y002124179D01*
X002268369Y002125265D01*
X002271316Y002126125D01*
X002274320Y002126753D01*
X002277364Y002127145D01*
X002280430Y002127298D01*
X002303540Y002127553D01*
X002306652Y002127464D01*
X002309748Y002127129D01*
X002312807Y002126551D01*
X002315811Y002125733D01*
X002318741Y002124681D01*
X002321579Y002123400D01*
X002324306Y002121899D01*
X002326906Y002120187D01*
X002329363Y002118274D01*
X002331662Y002116174D01*
X002333787Y002113899D01*
X002335725Y002111463D01*
X002337465Y002108881D01*
X002338996Y002106170D01*
X002340308Y002103346D01*
X002341392Y002100428D01*
X002342242Y002097433D01*
X002342854Y002094380D01*
X002343222Y002091289D01*
X002343344Y002088178D01*
X002343344Y002087734D01*
X002343479Y002074984D01*
X002344862Y002062308D01*
X002347479Y002049829D01*
X002351305Y002037665D01*
X002356303Y002025935D01*
X002362426Y002014750D01*
X002369614Y002004218D01*
X002377798Y001994440D01*
X002386901Y001985511D01*
X002396834Y001977516D01*
X002407502Y001970531D01*
X002418802Y001964624D01*
X002430626Y001959852D01*
X002442861Y001956260D01*
X002455388Y001953883D01*
X002459730Y001953494D01*
X002461908Y001953237D01*
X002464069Y001952860D01*
X002466205Y001952362D01*
X002468311Y001951747D01*
X002470378Y001951015D01*
X002472402Y001950169D01*
X002474375Y001949212D01*
X002476293Y001948146D01*
X002478147Y001946975D01*
X002479934Y001945703D01*
X002481647Y001944333D01*
X002483281Y001942870D01*
X002484831Y001941318D01*
X002486293Y001939683D01*
X002487661Y001937968D01*
X002488931Y001936180D01*
X002490100Y001934324D01*
X002491163Y001932406D01*
X002492119Y001930431D01*
X002492962Y001928406D01*
X002495398Y001922068D01*
X002496535Y001918653D01*
X002497355Y001915149D01*
X002497851Y001911584D01*
X002498020Y001907988D01*
X002497859Y001904392D01*
X002497371Y001900826D01*
X002496559Y001897320D01*
X002495431Y001893902D01*
X002493995Y001890602D01*
X002492263Y001887446D01*
X002490251Y001884462D01*
X002487974Y001881674D01*
X002485453Y001879106D01*
X002482707Y001876778D01*
X002479760Y001874711D01*
X002476637Y001872922D01*
X002473363Y001871426D01*
X002469967Y001870235D01*
X002466476Y001869359D01*
X002462919Y001868805D01*
X002452920Y001867714D01*
X002440440Y001865098D01*
X002428277Y001861272D01*
X002416546Y001856274D01*
X002405361Y001850151D01*
X002394829Y001842963D01*
X002385052Y001834779D01*
X002376123Y001825677D01*
X002368127Y001815744D01*
X002361142Y001805076D01*
X002355236Y001793776D01*
X002350464Y001781952D01*
X002346872Y001769717D01*
X002345679Y001763433D01*
X001099850Y001559282D02*
X001099850Y001559282D01*
X001100015Y001562874D01*
X001100507Y001566436D01*
X001101322Y001569939D01*
X001102453Y001573352D01*
X001103891Y001576648D01*
X001105623Y001579800D01*
X001107636Y001582779D01*
X001109913Y001585563D01*
X001112434Y001588128D01*
X001115178Y001590452D01*
X001118123Y001592515D01*
X001121244Y001594301D01*
X001124515Y001595796D01*
X001127909Y001596985D01*
X001131397Y001597860D01*
X001134950Y001598413D01*
X001138539Y001598639D01*
X001142134Y001598537D01*
X001145704Y001598107D01*
X001149220Y001597354D01*
X001172331Y001591284D01*
X001174810Y001590545D01*
X001177235Y001589645D01*
X001179595Y001588588D01*
X001181881Y001587378D01*
X001184083Y001586021D01*
X001186190Y001584522D01*
X001188195Y001582887D01*
X001190088Y001581125D01*
X001191862Y001579242D01*
X001193508Y001577247D01*
X001195019Y001575148D01*
X001196389Y001572954D01*
X001197612Y001570676D01*
X001198683Y001568321D01*
X001199597Y001565902D01*
X001200351Y001563427D01*
X001200940Y001560909D01*
X001201362Y001558357D01*
X001201616Y001555783D01*
X001201701Y001553198D01*
X001201648Y001265642D01*
X001201369Y001260964D01*
X001200535Y001256352D01*
X001199159Y001251871D01*
X001197260Y001247586D01*
X001194866Y001243557D01*
X001192010Y001239842D01*
X001188733Y001236491D01*
X001185080Y001233554D01*
X001181105Y001231072D01*
X001176863Y001229080D01*
X001172414Y001227606D01*
X001167821Y001226671D01*
X001163150Y001226289D01*
X001158467Y001226464D01*
X001153837Y001227195D01*
X001149327Y001228470D01*
X001145001Y001230273D01*
X001140920Y001232576D01*
X001137141Y001235349D01*
X001133718Y001238551D01*
X001110612Y001262904D01*
X001109604Y001264007D01*
X001108638Y001265148D01*
X001107717Y001266325D01*
X001106841Y001267536D01*
X001106011Y001268780D01*
X001105230Y001270054D01*
X001104497Y001271356D01*
X001103814Y001272686D01*
X001103182Y001274040D01*
X001102603Y001275418D01*
X001102075Y001276816D01*
X001101602Y001278234D01*
X001101182Y001279669D01*
X001100817Y001281118D01*
X001100507Y001282580D01*
X001100254Y001284053D01*
X001100056Y001285535D01*
X001099914Y001287023D01*
X001099830Y001288515D01*
X001099802Y001290009D01*
X001099850Y001559282D01*
X001334267Y001952812D02*
X001334267Y001952812D01*
X001339319Y001952530D01*
X001344294Y001951602D01*
X001349109Y001950044D01*
X001353684Y001947881D01*
X001357943Y001945150D01*
X001361817Y001941894D01*
X001365242Y001938168D01*
X001368160Y001934034D01*
X001370524Y001929560D01*
X001372295Y001924819D01*
X001373443Y001919891D01*
X001373949Y001914856D01*
X001373805Y001909797D01*
X001373013Y001904799D01*
X001371587Y001899944D01*
X001369550Y001895311D01*
X001366936Y001890979D01*
X001363787Y001887017D01*
X001360156Y001883492D01*
X001356103Y001880462D01*
X001348524Y001875521D01*
X001347581Y001874925D01*
X001346620Y001874356D01*
X001345644Y001873814D01*
X001344653Y001873300D01*
X001343648Y001872814D01*
X001342630Y001872357D01*
X001341598Y001871929D01*
X001340556Y001871531D01*
X001339502Y001871162D01*
X001338438Y001870823D01*
X001337365Y001870515D01*
X001336284Y001870237D01*
X001335195Y001869990D01*
X001334100Y001869774D01*
X001332999Y001869589D01*
X001331894Y001869435D01*
X001330784Y001869313D01*
X001329671Y001869222D01*
X001328556Y001869163D01*
X001327440Y001869135D01*
X001327440Y001869135D01*
X001323863Y001869097D01*
X001311187Y001867714D01*
X001298708Y001865098D01*
X001286544Y001861272D01*
X001274814Y001856274D01*
X001263629Y001850151D01*
X001253097Y001842963D01*
X001243320Y001834779D01*
X001234390Y001825677D01*
X001226395Y001815744D01*
X001219410Y001805076D01*
X001213503Y001793776D01*
X001208731Y001781952D01*
X001205339Y001770397D01*
X001204731Y001768505D01*
X001204029Y001766646D01*
X001203234Y001764825D01*
X001202348Y001763046D01*
X001201373Y001761315D01*
X001200312Y001759635D01*
X001199168Y001758010D01*
X001197943Y001756445D01*
X001196641Y001754944D01*
X001195265Y001753511D01*
X001193818Y001752149D01*
X001192304Y001750862D01*
X001190728Y001749652D01*
X001189092Y001748524D01*
X001187401Y001747480D01*
X001185660Y001746522D01*
X001183873Y001745654D01*
X001182044Y001744877D01*
X001180179Y001744193D01*
X001178281Y001743604D01*
X001146609Y001734643D01*
X001143471Y001733893D01*
X001140281Y001733402D01*
X001137062Y001733174D01*
X001133835Y001733210D01*
X001130622Y001733510D01*
X001127445Y001734073D01*
X001124324Y001734894D01*
X001121281Y001735968D01*
X001118336Y001737287D01*
X001115509Y001738844D01*
X001112819Y001740626D01*
X001110283Y001742623D01*
X001107920Y001744821D01*
X001105745Y001747204D01*
X001103773Y001749758D01*
X001102016Y001752465D01*
X001100487Y001755307D01*
X001099196Y001758265D01*
X001098151Y001761318D01*
X001097360Y001764447D01*
X001095747Y001772138D01*
X001091921Y001784301D01*
X001086923Y001796031D01*
X001080801Y001807217D01*
X001073613Y001817748D01*
X001065428Y001827526D01*
X001056326Y001836455D01*
X001046393Y001844451D01*
X001035725Y001851435D01*
X001024425Y001857342D01*
X001012601Y001862114D01*
X001000366Y001865706D01*
X000987838Y001868083D01*
X000975139Y001869222D01*
X000962388Y001869112D01*
X000962382Y001869232D01*
X000914526Y001869232D01*
X000913019Y001869261D01*
X000911514Y001869347D01*
X000910014Y001869491D01*
X000908521Y001869693D01*
X000907036Y001869951D01*
X000905562Y001870266D01*
X000904101Y001870637D01*
X000902656Y001871064D01*
X000901228Y001871546D01*
X000899819Y001872082D01*
X000898432Y001872671D01*
X000897069Y001873314D01*
X000895731Y001874008D01*
X000894421Y001874752D01*
X000893140Y001875547D01*
X000891890Y001876389D01*
X000890674Y001877279D01*
X000889493Y001878215D01*
X000888348Y001879196D01*
X000887242Y001880219D01*
X000884585Y001882773D01*
X000881409Y001886212D01*
X000878664Y001890003D01*
X000876388Y001894094D01*
X000874614Y001898425D01*
X000873366Y001902936D01*
X000872663Y001907564D01*
X000872514Y001912242D01*
X000872921Y001916905D01*
X000873878Y001921487D01*
X000875373Y001925922D01*
X000877383Y001930149D01*
X000879881Y001934108D01*
X000882831Y001937742D01*
X000886191Y001941000D01*
X000889914Y001943837D01*
X000893948Y001946211D01*
X000898235Y001948090D01*
X000902715Y001949447D01*
X000907324Y001950263D01*
X000911997Y001950526D01*
X000964882Y001950354D01*
X000977631Y001950489D01*
X000990308Y001951871D01*
X001002787Y001954488D01*
X001014950Y001958314D01*
X001026681Y001963312D01*
X001037866Y001969435D01*
X001048397Y001976622D01*
X001058175Y001984808D01*
X001067104Y001993909D01*
X001075100Y002003843D01*
X001082084Y002014510D01*
X001087991Y002025810D01*
X001092763Y002037635D01*
X001096355Y002049869D01*
X001098732Y002062397D01*
X001099871Y002075097D01*
X001099761Y002087847D01*
X001099767Y002123263D01*
X001099831Y002125487D01*
X001100019Y002127704D01*
X001100333Y002129906D01*
X001100771Y002132087D01*
X001101331Y002134240D01*
X001102011Y002136358D01*
X001102811Y002138434D01*
X001103726Y002140461D01*
X001104754Y002142434D01*
X001105892Y002144346D01*
X001107136Y002146190D01*
X001108483Y002147960D01*
X001109927Y002149652D01*
X001111465Y002151260D01*
X001113090Y002152778D01*
X001114800Y002154202D01*
X001116586Y002155528D01*
X001118445Y002156750D01*
X001120370Y002157865D01*
X001122355Y002158870D01*
X001145467Y002169762D01*
X001149127Y002171267D01*
X001152920Y002172397D01*
X001156808Y002173140D01*
X001160750Y002173490D01*
X001164707Y002173441D01*
X001168640Y002172996D01*
X001172508Y002172158D01*
X001176272Y002170937D01*
X001179895Y002169343D01*
X001183339Y002167393D01*
X001186571Y002165108D01*
X001189556Y002162510D01*
X001192266Y002159625D01*
X001194672Y002156483D01*
X001196750Y002153115D01*
X001198480Y002149555D01*
X001199844Y002145840D01*
X001200828Y002142007D01*
X001201422Y002138094D01*
X001201620Y002134141D01*
X001201612Y002087734D01*
X001201747Y002074984D01*
X001203129Y002062308D01*
X001205746Y002049829D01*
X001209572Y002037665D01*
X001214571Y002025935D01*
X001220693Y002014750D01*
X001227881Y002004218D01*
X001236066Y001994440D01*
X001245168Y001985511D01*
X001255102Y001977516D01*
X001265769Y001970531D01*
X001277069Y001964624D01*
X001288893Y001959852D01*
X001301129Y001956260D01*
X001313656Y001953883D01*
X001326356Y001952744D01*
X001334267Y001952812D01*
X001099846Y002562177D02*
X001099846Y002562177D01*
X001099909Y002564395D01*
X001100097Y002566606D01*
X001100409Y002568804D01*
X001100845Y002570980D01*
X001101402Y002573128D01*
X001102079Y002575241D01*
X001102875Y002577313D01*
X001103786Y002579336D01*
X001104809Y002581305D01*
X001105942Y002583214D01*
X001107181Y002585055D01*
X001108521Y002586824D01*
X001109959Y002588514D01*
X001111490Y002590121D01*
X001113109Y002591639D01*
X001114811Y002593063D01*
X001116590Y002594389D01*
X001118442Y002595613D01*
X001120359Y002596730D01*
X001122336Y002597738D01*
X001145450Y002608707D01*
X001149111Y002610224D01*
X001152907Y002611365D01*
X001156797Y002612119D01*
X001160744Y002612477D01*
X001164707Y002612438D01*
X001168646Y002611999D01*
X001172521Y002611168D01*
X001176292Y002609950D01*
X001179922Y002608360D01*
X001183374Y002606413D01*
X001186613Y002604129D01*
X001189605Y002601531D01*
X001192321Y002598645D01*
X001194733Y002595500D01*
X001196817Y002592130D01*
X001198552Y002588566D01*
X001199919Y002584847D01*
X001200906Y002581008D01*
X001201501Y002577090D01*
X001201700Y002573132D01*
X001201657Y002334893D01*
X001201457Y002330941D01*
X001200862Y002327028D01*
X001199876Y002323195D01*
X001198511Y002319480D01*
X001196780Y002315921D01*
X001194700Y002312554D01*
X001192293Y002309413D01*
X001189582Y002306529D01*
X001186596Y002303932D01*
X001183364Y002301648D01*
X001179919Y002299700D01*
X001176296Y002298107D01*
X001172531Y002296887D01*
X001168663Y002296050D01*
X001164730Y002295606D01*
X001160773Y002295560D01*
X001156830Y002295910D01*
X001152943Y002296655D01*
X001149151Y002297787D01*
X001145491Y002299293D01*
X001122382Y002310193D01*
X001120397Y002311199D01*
X001118473Y002312315D01*
X001116615Y002313537D01*
X001114828Y002314863D01*
X001113120Y002316288D01*
X001111495Y002317807D01*
X001109958Y002319415D01*
X001108514Y002321108D01*
X001107168Y002322879D01*
X001105925Y002324724D01*
X001104787Y002326635D01*
X001103760Y002328608D01*
X001102845Y002330636D01*
X001102047Y002332713D01*
X001101367Y002334831D01*
X001100807Y002336984D01*
X001100371Y002339165D01*
X001100058Y002341368D01*
X001099870Y002343584D01*
X001099807Y002345808D01*
X001099846Y002562177D01*
X001202111Y002773551D02*
X001202111Y002773551D01*
X001201562Y002769642D01*
X001200624Y002765807D01*
X001199306Y002762086D01*
X001197623Y002758515D01*
X001195590Y002755130D01*
X001193229Y002751967D01*
X001190562Y002749055D01*
X001187618Y002746426D01*
X001184424Y002744104D01*
X001181015Y002742114D01*
X001177423Y002740475D01*
X001173685Y002739205D01*
X001169839Y002738315D01*
X001165923Y002737814D01*
X001161976Y002737709D01*
X001158039Y002737999D01*
X001154151Y002738682D01*
X001150350Y002739751D01*
X001146676Y002741196D01*
X001143165Y002743001D01*
X001116979Y002758169D01*
X001115567Y002759027D01*
X001114193Y002759943D01*
X001112858Y002760916D01*
X001111565Y002761944D01*
X001110317Y002763025D01*
X001109115Y002764158D01*
X001107962Y002765340D01*
X001106859Y002766570D01*
X001105809Y002767844D01*
X001104813Y002769162D01*
X001103873Y002770520D01*
X001102991Y002771917D01*
X001102169Y002773349D01*
X001101407Y002774814D01*
X001100707Y002776310D01*
X001100071Y002777834D01*
X001099499Y002779384D01*
X001098993Y002780956D01*
X001098553Y002782548D01*
X001098180Y002784157D01*
X001095747Y002795760D01*
X001091921Y002807923D01*
X001086923Y002819653D01*
X001080801Y002830839D01*
X001073613Y002841370D01*
X001065428Y002851148D01*
X001056326Y002860077D01*
X001046393Y002868073D01*
X001035725Y002875057D01*
X001024425Y002880964D01*
X001012601Y002885736D01*
X001000366Y002889328D01*
X000987838Y002891705D01*
X000975139Y002892844D01*
X000962388Y002892734D01*
X000962382Y002892854D01*
X000917171Y002892854D01*
X000913330Y002893042D01*
X000909525Y002893603D01*
X000905793Y002894534D01*
X000902170Y002895824D01*
X000898690Y002897461D01*
X000895387Y002899430D01*
X000892291Y002901712D01*
X000889432Y002904286D01*
X000886839Y002907126D01*
X000884535Y002910205D01*
X000882542Y002913495D01*
X000880880Y002916963D01*
X000879564Y002920577D01*
X000878607Y002924302D01*
X000878018Y002928102D01*
X000877802Y002931942D01*
X000877963Y002935785D01*
X000878497Y002939594D01*
X000879401Y002943332D01*
X000880665Y002946964D01*
X000881688Y002949498D01*
X000882630Y002951644D01*
X000883697Y002953729D01*
X000884886Y002955747D01*
X000886194Y002957691D01*
X000887615Y002959554D01*
X000889144Y002961329D01*
X000890775Y002963010D01*
X000892504Y002964591D01*
X000894324Y002966066D01*
X000896229Y002967430D01*
X000898211Y002968679D01*
X000900264Y002969808D01*
X000902381Y002970812D01*
X000904553Y002971689D01*
X000906774Y002972435D01*
X000909035Y002973047D01*
X000911329Y002973524D01*
X000913647Y002973864D01*
X000915981Y002974065D01*
X000918323Y002974128D01*
X000964882Y002973976D01*
X000977631Y002974111D01*
X000990308Y002975493D01*
X001002787Y002978110D01*
X001014950Y002981936D01*
X001026681Y002986934D01*
X001037866Y002993057D01*
X001048397Y003000244D01*
X001058175Y003008430D01*
X001067104Y003017531D01*
X001075100Y003027465D01*
X001082084Y003038132D01*
X001087991Y003049432D01*
X001092763Y003061257D01*
X001096355Y003073491D01*
X001098732Y003086019D01*
X001099871Y003098719D01*
X001099761Y003111469D01*
X001099761Y003113655D01*
X001099799Y003115356D01*
X001099909Y003117053D01*
X001100093Y003118744D01*
X001100349Y003120425D01*
X001100678Y003122094D01*
X001101079Y003123747D01*
X001101550Y003125381D01*
X001102092Y003126993D01*
X001102703Y003128580D01*
X001103382Y003130140D01*
X001104128Y003131668D01*
X001104938Y003133163D01*
X001105813Y003134622D01*
X001106750Y003136041D01*
X001107748Y003137419D01*
X001108803Y003138752D01*
X001109916Y003140039D01*
X001111083Y003141276D01*
X001112302Y003142462D01*
X001113572Y003143593D01*
X001136686Y003163322D01*
X001140254Y003166033D01*
X001144107Y003168320D01*
X001148195Y003170155D01*
X001152465Y003171513D01*
X001156862Y003172378D01*
X001161329Y003172737D01*
X001165807Y003172586D01*
X001170239Y003171927D01*
X001174568Y003170769D01*
X001178737Y003169127D01*
X001182692Y003167022D01*
X001186383Y003164480D01*
X001189761Y003161536D01*
X001192782Y003158227D01*
X001195408Y003154596D01*
X001197605Y003150691D01*
X001199343Y003146561D01*
X001200601Y003142260D01*
X001201362Y003137844D01*
X001201616Y003133370D01*
X001201612Y003111356D01*
X001201747Y003098606D01*
X001203129Y003085930D01*
X001205746Y003073451D01*
X001209572Y003061287D01*
X001214571Y003049557D01*
X001220693Y003038372D01*
X001227881Y003027840D01*
X001236066Y003018062D01*
X001245168Y003009133D01*
X001255102Y003001138D01*
X001265769Y002994153D01*
X001277069Y002988247D01*
X001288893Y002983474D01*
X001301129Y002979882D01*
X001313656Y002977505D01*
X001326356Y002976366D01*
X001339114Y002976476D01*
X001361285Y002976403D01*
X001364182Y002976287D01*
X001367062Y002975958D01*
X001369910Y002975418D01*
X001372711Y002974670D01*
X001375450Y002973718D01*
X001378110Y002972566D01*
X001380679Y002971222D01*
X001383142Y002969693D01*
X001385486Y002967987D01*
X001387698Y002966112D01*
X001389765Y002964080D01*
X001391678Y002961902D01*
X001393425Y002959588D01*
X001394998Y002957153D01*
X001396387Y002954608D01*
X001397584Y002951968D01*
X001398584Y002949246D01*
X001399382Y002946459D01*
X001399972Y002943621D01*
X001400351Y002940746D01*
X001400807Y002935937D01*
X001400980Y002932664D01*
X001400880Y002929389D01*
X001400508Y002926133D01*
X001399867Y002922919D01*
X001398960Y002919770D01*
X001397795Y002916707D01*
X001396380Y002913751D01*
X001394723Y002910924D01*
X001392837Y002908244D01*
X001390734Y002905730D01*
X001388430Y002903400D01*
X001385940Y002901270D01*
X001383281Y002899354D01*
X001380472Y002897665D01*
X001377533Y002896217D01*
X001374483Y002895017D01*
X001371344Y002894076D01*
X001368138Y002893398D01*
X001364886Y002892990D01*
X001361612Y002892854D01*
X001336613Y002892854D01*
X001323863Y002892719D01*
X001311187Y002891336D01*
X001298708Y002888720D01*
X001286544Y002884894D01*
X001274814Y002879896D01*
X001263629Y002873773D01*
X001253097Y002866585D01*
X001243320Y002858401D01*
X001234390Y002849299D01*
X001226395Y002839366D01*
X001219410Y002828698D01*
X001213503Y002817398D01*
X001208731Y002805574D01*
X001205140Y002793339D01*
X001202762Y002780811D01*
X001202111Y002773551D01*
X002241581Y002575849D02*
X002241581Y002575849D01*
X002241761Y002579603D01*
X002242298Y002583324D01*
X002243188Y002586976D01*
X002244422Y002590527D01*
X002245990Y002593944D01*
X002247876Y002597196D01*
X002250063Y002600253D01*
X002252532Y002603088D01*
X002255260Y002605674D01*
X002258223Y002607988D01*
X002261392Y002610010D01*
X002264740Y002611719D01*
X002268236Y002613102D01*
X002271847Y002614145D01*
X002275542Y002614838D01*
X002279286Y002615176D01*
X002283045Y002615156D01*
X002286785Y002614777D01*
X002290472Y002614043D01*
X002294072Y002612961D01*
X002317182Y002604792D01*
X002319441Y002603914D01*
X002321642Y002602899D01*
X002323776Y002601751D01*
X002325835Y002600474D01*
X002327812Y002599072D01*
X002329698Y002597551D01*
X002331488Y002595917D01*
X002333174Y002594177D01*
X002334749Y002592335D01*
X002336208Y002590401D01*
X002337546Y002588380D01*
X002338756Y002586281D01*
X002339835Y002584111D01*
X002340779Y002581879D01*
X002341583Y002579593D01*
X002342246Y002577262D01*
X002342763Y002574895D01*
X002343134Y002572500D01*
X002343357Y002570087D01*
X002343431Y002567665D01*
X002343383Y002301053D01*
X002343259Y002297942D01*
X002342890Y002294851D01*
X002342278Y002291798D01*
X002341426Y002288804D01*
X002340341Y002285886D01*
X002339028Y002283063D01*
X002337497Y002280352D01*
X002335756Y002277771D01*
X002333816Y002275336D01*
X002331690Y002273061D01*
X002329391Y002270962D01*
X002326934Y002269050D01*
X002324333Y002267339D01*
X002321605Y002265839D01*
X002318767Y002264559D01*
X002315836Y002263507D01*
X002312832Y002262691D01*
X002309772Y002262114D01*
X002306677Y002261780D01*
X002303565Y002261693D01*
X002280454Y002261956D01*
X002277388Y002262110D01*
X002274344Y002262503D01*
X002271340Y002263132D01*
X002268394Y002263993D01*
X002265524Y002265081D01*
X002262747Y002266389D01*
X002260081Y002267909D01*
X002257541Y002269632D01*
X002255144Y002271549D01*
X002252903Y002273646D01*
X002250831Y002275911D01*
X002248943Y002278331D01*
X002247249Y002280890D01*
X002245760Y002283574D01*
X002244484Y002286365D01*
X002243429Y002289248D01*
X002242602Y002292204D01*
X002242008Y002295215D01*
X002241651Y002298263D01*
X002241532Y002301330D01*
X002241581Y002575849D01*
X002695725Y002892854D02*
X002695725Y002892854D01*
X002690596Y002893189D01*
X002685554Y002894190D01*
X002680686Y002895839D01*
X002676074Y002898108D01*
X002671798Y002900959D01*
X002667928Y002904342D01*
X002664533Y002908201D01*
X002661669Y002912469D01*
X002659386Y002917074D01*
X002657722Y002921937D01*
X002656706Y002926975D01*
X002656355Y002932103D01*
X002656675Y002937233D01*
X002657660Y002942278D01*
X002659294Y002947151D01*
X002661549Y002951769D01*
X002664387Y002956055D01*
X002667758Y002959935D01*
X002671606Y002963342D01*
X002675866Y002966218D01*
X002682984Y002970377D01*
X002683895Y002970893D01*
X002684820Y002971385D01*
X002685757Y002971852D01*
X002686706Y002972293D01*
X002687667Y002972710D01*
X002688639Y002973101D01*
X002689620Y002973465D01*
X002690611Y002973804D01*
X002691611Y002974116D01*
X002692618Y002974401D01*
X002693633Y002974660D01*
X002694654Y002974891D01*
X002695681Y002975095D01*
X002696713Y002975272D01*
X002697750Y002975422D01*
X002698790Y002975543D01*
X002699833Y002975637D01*
X002700878Y002975703D01*
X002701924Y002975742D01*
X002702971Y002975752D01*
X002975144Y002974866D01*
X002975708Y002974860D01*
X002976272Y002974846D01*
X002976836Y002974824D01*
X002977399Y002974794D01*
X002977962Y002974756D01*
X002978524Y002974709D01*
X002979085Y002974655D01*
X002979646Y002974593D01*
X002980206Y002974522D01*
X002980764Y002974444D01*
X002981322Y002974358D01*
X002981878Y002974263D01*
X002982432Y002974161D01*
X002982985Y002974051D01*
X002983537Y002973933D01*
X002984087Y002973807D01*
X002984635Y002973673D01*
X002985181Y002973531D01*
X002985724Y002973382D01*
X002986266Y002973224D01*
X002997239Y002969952D01*
X003002487Y002967971D01*
X003007399Y002965264D01*
X003011877Y002961886D01*
X003015829Y002957906D01*
X003019176Y002953405D01*
X003021849Y002948474D01*
X003023795Y002943213D01*
X003024973Y002937729D01*
X003025359Y002932133D01*
X003024947Y002926539D01*
X003023744Y002921061D01*
X003021774Y002915809D01*
X003019078Y002910890D01*
X003015711Y002906405D01*
X003011740Y002902443D01*
X003007247Y002899086D01*
X003002322Y002896401D01*
X002997065Y002894444D01*
X002991584Y002893253D01*
X002985989Y002892854D01*
X002695725Y002892854D01*
X002127222Y002891916D02*
X002127222Y002891916D01*
X002123596Y002892412D01*
X002120031Y002893242D01*
X002116559Y002894401D01*
X002113209Y002895876D01*
X002110011Y002897657D01*
X002106992Y002899726D01*
X002104178Y002902067D01*
X002101594Y002904660D01*
X002099262Y002907481D01*
X002097202Y002910506D01*
X002095432Y002913710D01*
X002093967Y002917064D01*
X002092819Y002920540D01*
X002092000Y002924108D01*
X002091515Y002927736D01*
X002091370Y002931393D01*
X002091565Y002935048D01*
X002092098Y002938669D01*
X002092965Y002942226D01*
X002094159Y002945686D01*
X002096081Y002950515D01*
X002096923Y002952474D01*
X002097870Y002954385D01*
X002098918Y002956242D01*
X002100066Y002958039D01*
X002101310Y002959772D01*
X002102645Y002961434D01*
X002104068Y002963022D01*
X002105576Y002964530D01*
X002107163Y002965955D01*
X002108824Y002967292D01*
X002110556Y002968536D01*
X002112352Y002969685D01*
X002114208Y002970736D01*
X002116118Y002971684D01*
X002118077Y002972527D01*
X002120078Y002973263D01*
X002122117Y002973889D01*
X002124186Y002974405D01*
X002126280Y002974807D01*
X002128393Y002975096D01*
X002132040Y002975493D01*
X002144519Y002978110D01*
X002156683Y002981936D01*
X002168413Y002986934D01*
X002179598Y002993057D01*
X002190130Y003000244D01*
X002199907Y003008430D01*
X002208837Y003017531D01*
X002216832Y003027465D01*
X002223817Y003038132D01*
X002229724Y003049432D01*
X002234495Y003061257D01*
X002238087Y003073491D01*
X002240464Y003086019D01*
X002241603Y003098719D01*
X002241493Y003111469D01*
X002241505Y003174860D01*
X002241577Y003177235D01*
X002241792Y003179602D01*
X002242150Y003181952D01*
X002242649Y003184276D01*
X002243287Y003186565D01*
X002244062Y003188812D01*
X002244972Y003191007D01*
X002246012Y003193144D01*
X002247179Y003195215D01*
X002248469Y003197211D01*
X002249877Y003199125D01*
X002251398Y003200951D01*
X002253027Y003202683D01*
X002254757Y003204312D01*
X002256582Y003205834D01*
X002258496Y003207244D01*
X002260491Y003208535D01*
X002262561Y003209704D01*
X002264697Y003210745D01*
X002266892Y003211656D01*
X002290004Y003220437D01*
X002293623Y003221615D01*
X002297339Y003222439D01*
X002301116Y003222899D01*
X002304921Y003222993D01*
X002308717Y003222719D01*
X002312469Y003222080D01*
X002316141Y003221081D01*
X002319700Y003219733D01*
X002323112Y003218047D01*
X002326345Y003216039D01*
X002329369Y003213729D01*
X002332157Y003211138D01*
X002334681Y003208290D01*
X002336918Y003205211D01*
X002338847Y003201931D01*
X002340451Y003198479D01*
X002341714Y003194889D01*
X002342624Y003191194D01*
X002343174Y003187428D01*
X002343357Y003183627D01*
X002343344Y003111356D01*
X002343479Y003098606D01*
X002344862Y003085930D01*
X002347479Y003073451D01*
X002351305Y003061287D01*
X002356303Y003049557D01*
X002362426Y003038372D01*
X002369614Y003027840D01*
X002377798Y003018062D01*
X002386901Y003009133D01*
X002396834Y003001138D01*
X002407502Y002994153D01*
X002418802Y002988247D01*
X002430626Y002983474D01*
X002442861Y002979882D01*
X002455388Y002977505D01*
X002468089Y002976366D01*
X002475679Y002976431D01*
X002476924Y002976422D01*
X002478169Y002976374D01*
X002479412Y002976286D01*
X002480651Y002976159D01*
X002481886Y002975993D01*
X002483114Y002975788D01*
X002484336Y002975544D01*
X002485549Y002975261D01*
X002486753Y002974940D01*
X002487946Y002974582D01*
X002489127Y002974186D01*
X002490295Y002973752D01*
X002491448Y002973282D01*
X002492587Y002972776D01*
X002493708Y002972234D01*
X002494812Y002971656D01*
X002495897Y002971044D01*
X002496962Y002970398D01*
X002498006Y002969719D01*
X002499028Y002969007D01*
X002505745Y002964168D01*
X002509573Y002961027D01*
X002512977Y002957430D01*
X002515902Y002953434D01*
X002518302Y002949102D01*
X002520139Y002944503D01*
X002521385Y002939711D01*
X002522019Y002934799D01*
X002522031Y002929847D01*
X002521422Y002924933D01*
X002520201Y002920134D01*
X002518387Y002915526D01*
X002516008Y002911182D01*
X002513104Y002907171D01*
X002509719Y002903557D01*
X002505906Y002900396D01*
X002501728Y002897739D01*
X002497248Y002895627D01*
X002492539Y002894095D01*
X002487675Y002893165D01*
X002482733Y002892854D01*
X002478346Y002892854D01*
X002465595Y002892719D01*
X002452920Y002891336D01*
X002440440Y002888720D01*
X002428277Y002884894D01*
X002416546Y002879896D01*
X002405361Y002873773D01*
X002394829Y002866585D01*
X002385052Y002858401D01*
X002376123Y002849299D01*
X002368127Y002839366D01*
X002361142Y002828698D01*
X002355236Y002817398D01*
X002350464Y002805574D01*
X002346872Y002793339D01*
X002345714Y002787237D01*
X002345298Y002785309D01*
X002344786Y002783405D01*
X002344179Y002781528D01*
X002343479Y002779684D01*
X002342687Y002777878D01*
X002341806Y002776113D01*
X002340838Y002774395D01*
X002339785Y002772727D01*
X002338650Y002771115D01*
X002337435Y002769561D01*
X002336144Y002768070D01*
X002334780Y002766645D01*
X002333346Y002765291D01*
X002331847Y002764010D01*
X002330285Y002762805D01*
X002328664Y002761681D01*
X002326990Y002760639D01*
X002325265Y002759682D01*
X002323495Y002758813D01*
X002321683Y002758033D01*
X002294313Y002747062D01*
X002290887Y002745869D01*
X002287366Y002744996D01*
X002283780Y002744451D01*
X002280159Y002744238D01*
X002276533Y002744360D01*
X002272934Y002744814D01*
X002269393Y002745598D01*
X002265938Y002746705D01*
X002262600Y002748125D01*
X002259407Y002749846D01*
X002256386Y002751854D01*
X002253562Y002754131D01*
X002250960Y002756659D01*
X002248602Y002759415D01*
X002246507Y002762377D01*
X002244694Y002765519D01*
X002243178Y002768814D01*
X002241971Y002772235D01*
X002241085Y002775753D01*
X002240526Y002779337D01*
X002240096Y002783280D01*
X002237479Y002795760D01*
X002233654Y002807923D01*
X002228656Y002819653D01*
X002222533Y002830839D01*
X002215345Y002841370D01*
X002207160Y002851148D01*
X002198058Y002860077D01*
X002188125Y002868073D01*
X002177458Y002875057D01*
X002166157Y002880964D01*
X002154333Y002885736D01*
X002142099Y002889328D01*
X002129571Y002891705D01*
X002127222Y002891916D01*
X001905989Y002974629D02*
X001905989Y002974629D01*
X001908388Y002974548D01*
X001910776Y002974322D01*
X001913147Y002973950D01*
X001915491Y002973434D01*
X001917798Y002972776D01*
X001920062Y002971979D01*
X001922272Y002971046D01*
X001924422Y002969980D01*
X001926503Y002968784D01*
X001928507Y002967465D01*
X001930427Y002966025D01*
X001932255Y002964472D01*
X001933986Y002962809D01*
X001935612Y002961045D01*
X001937128Y002959184D01*
X001938527Y002957235D01*
X001939805Y002955204D01*
X001940957Y002953099D01*
X001941979Y002950928D01*
X001942866Y002948698D01*
X001943969Y002945663D01*
X001945086Y002942056D01*
X001945853Y002938358D01*
X001946262Y002934604D01*
X001946309Y002930827D01*
X001945994Y002927064D01*
X001945320Y002923348D01*
X001944293Y002919714D01*
X001942923Y002916195D01*
X001941222Y002912824D01*
X001939206Y002909631D01*
X001936893Y002906645D01*
X001934304Y002903896D01*
X001931464Y002901406D01*
X001928399Y002899201D01*
X001925136Y002897299D01*
X001921707Y002895719D01*
X001918141Y002894474D01*
X001914473Y002893577D01*
X001910736Y002893035D01*
X001906964Y002892854D01*
X001582234Y002892854D01*
X001578923Y002892993D01*
X001575634Y002893411D01*
X001572393Y002894104D01*
X001569221Y002895067D01*
X001566142Y002896293D01*
X001563177Y002897774D01*
X001560346Y002899499D01*
X001557671Y002901456D01*
X001555170Y002903631D01*
X001552861Y002906009D01*
X001550760Y002908573D01*
X001548882Y002911304D01*
X001547241Y002914184D01*
X001545847Y002917191D01*
X001544712Y002920305D01*
X001543842Y002923504D01*
X001543245Y002926764D01*
X001542924Y002930063D01*
X001542881Y002933378D01*
X001543118Y002936684D01*
X001543584Y002940772D01*
X001544013Y002943614D01*
X001544649Y002946417D01*
X001545488Y002949167D01*
X001546525Y002951847D01*
X001547755Y002954445D01*
X001549171Y002956947D01*
X001550766Y002959338D01*
X001552531Y002961607D01*
X001554457Y002963740D01*
X001556534Y002965728D01*
X001558750Y002967559D01*
X001561093Y002969223D01*
X001563552Y002970712D01*
X001566113Y002972017D01*
X001568762Y002973132D01*
X001571486Y002974051D01*
X001574269Y002974769D01*
X001577098Y002975281D01*
X001579956Y002975586D01*
X001582829Y002975682D01*
X001905989Y002974629D01*
X002241585Y003619982D02*
X002241585Y003619982D01*
X002241678Y003622686D01*
X002241957Y003625377D01*
X002242420Y003628043D01*
X002243065Y003630670D01*
X002243889Y003633247D01*
X002244888Y003635762D01*
X002246058Y003638202D01*
X002247392Y003640555D01*
X002248885Y003642812D01*
X002250529Y003644961D01*
X002252317Y003646991D01*
X002254240Y003648895D01*
X002256290Y003650661D01*
X002258456Y003652283D01*
X002260728Y003653752D01*
X002263096Y003655061D01*
X002265548Y003656205D01*
X002268072Y003657178D01*
X002270658Y003657974D01*
X002273292Y003658592D01*
X002296405Y003663178D01*
X002299842Y003663703D01*
X002303312Y003663924D01*
X002306788Y003663837D01*
X002310242Y003663444D01*
X002313649Y003662747D01*
X002316981Y003661753D01*
X002320212Y003660469D01*
X002323317Y003658904D01*
X002326272Y003657072D01*
X002329054Y003654986D01*
X002331640Y003652663D01*
X002334012Y003650121D01*
X002336151Y003647379D01*
X002338039Y003644459D01*
X002339662Y003641385D01*
X002341007Y003638179D01*
X002342065Y003634866D01*
X002342826Y003631474D01*
X002343285Y003628027D01*
X002343438Y003624554D01*
X002343394Y003387007D01*
X002343210Y003383206D01*
X002342659Y003379440D01*
X002341747Y003375745D01*
X002340483Y003372156D01*
X002338878Y003368705D01*
X002336947Y003365426D01*
X002334709Y003362348D01*
X002332184Y003359500D01*
X002329396Y003356910D01*
X002326371Y003354601D01*
X002323136Y003352595D01*
X002319724Y003350910D01*
X002316165Y003349563D01*
X002312492Y003348566D01*
X002308740Y003347928D01*
X002304944Y003347655D01*
X002301140Y003347750D01*
X002297362Y003348212D01*
X002293647Y003349037D01*
X002290028Y003350216D01*
X002266919Y003359006D01*
X002264724Y003359917D01*
X002262588Y003360960D01*
X002260519Y003362129D01*
X002258524Y003363421D01*
X002256611Y003364831D01*
X002254786Y003366354D01*
X002253057Y003367984D01*
X002251429Y003369716D01*
X002249908Y003371542D01*
X002248501Y003373458D01*
X002247212Y003375454D01*
X002246045Y003377525D01*
X002245006Y003379662D01*
X002244097Y003381858D01*
X002243323Y003384105D01*
X002242685Y003386395D01*
X002242187Y003388719D01*
X002241830Y003391068D01*
X002241616Y003393435D01*
X002241544Y003395811D01*
X002241585Y003619982D01*
X001099846Y003583172D02*
X001099846Y003583172D01*
X001099980Y003586415D01*
X001100381Y003589635D01*
X001101046Y003592812D01*
X001101971Y003595924D01*
X001103148Y003598948D01*
X001104571Y003601866D01*
X001106229Y003604656D01*
X001108111Y003607300D01*
X001110205Y003609780D01*
X001112496Y003612079D01*
X001114969Y003614182D01*
X001117606Y003616074D01*
X001120390Y003617742D01*
X001123303Y003619175D01*
X001126323Y003620364D01*
X001129431Y003621299D01*
X001132606Y003621976D01*
X001135825Y003622388D01*
X001139067Y003622534D01*
X001142311Y003622413D01*
X001165422Y003620590D01*
X001168340Y003620250D01*
X001171223Y003619694D01*
X001174057Y003618924D01*
X001176826Y003617945D01*
X001179515Y003616762D01*
X001182107Y003615382D01*
X001184590Y003613813D01*
X001186948Y003612063D01*
X001189170Y003610142D01*
X001191242Y003608061D01*
X001193154Y003605832D01*
X001194893Y003603466D01*
X001196452Y003600976D01*
X001197821Y003598378D01*
X001198992Y003595685D01*
X001199959Y003592912D01*
X001200717Y003590074D01*
X001201261Y003587188D01*
X001201588Y003584270D01*
X001201697Y003581335D01*
X001201650Y003321982D01*
X001201394Y003317508D01*
X001200632Y003313093D01*
X001199373Y003308793D01*
X001197633Y003304663D01*
X001195435Y003300758D01*
X001192808Y003297128D01*
X001189785Y003293821D01*
X001186406Y003290878D01*
X001182715Y003288338D01*
X001178759Y003286234D01*
X001174589Y003284593D01*
X001170260Y003283436D01*
X001165827Y003282779D01*
X001161349Y003282630D01*
X001156883Y003282991D01*
X001152486Y003283857D01*
X001148217Y003285216D01*
X001144129Y003287053D01*
X001140277Y003289341D01*
X001136710Y003292053D01*
X001113602Y003311791D01*
X001112333Y003312923D01*
X001111114Y003314109D01*
X001109948Y003315347D01*
X001108835Y003316633D01*
X001107780Y003317967D01*
X001106783Y003319345D01*
X001105847Y003320765D01*
X001104972Y003322224D01*
X001104162Y003323719D01*
X001103417Y003325248D01*
X001102739Y003326808D01*
X001102128Y003328395D01*
X001101587Y003330008D01*
X001101116Y003331642D01*
X001100716Y003333295D01*
X001100388Y003334964D01*
X001100132Y003336645D01*
X001099949Y003338336D01*
X001099839Y003340033D01*
X001099802Y003341734D01*
X001099846Y003583172D01*
X000188097Y002976396D02*
X000188097Y002976396D01*
X000192481Y002976189D01*
X000196815Y002975495D01*
X000201045Y002974323D01*
X000205118Y002972688D01*
X000208983Y002970609D01*
X000212594Y002968113D01*
X000215904Y002965231D01*
X000218872Y002961998D01*
X000221463Y002958455D01*
X000223642Y002954645D01*
X000225385Y002950617D01*
X000226668Y002946419D01*
X000227476Y002942105D01*
X000227798Y002937728D01*
X000227631Y002933342D01*
X000226978Y002929002D01*
X000225845Y002924762D01*
X000224247Y002920674D01*
X000222204Y002916789D01*
X000219742Y002913156D01*
X000215999Y002908247D01*
X000214882Y002906850D01*
X000213703Y002905504D01*
X000212464Y002904214D01*
X000211168Y002902981D01*
X000209817Y002901809D01*
X000208414Y002900698D01*
X000206963Y002899653D01*
X000205465Y002898675D01*
X000203924Y002897766D01*
X000202344Y002896928D01*
X000200727Y002896162D01*
X000199078Y002895471D01*
X000197398Y002894855D01*
X000195692Y002894317D01*
X000193964Y002893856D01*
X000192216Y002893474D01*
X000190453Y002893172D01*
X000188678Y002892951D01*
X000186895Y002892810D01*
X000185107Y002892751D01*
X000182131Y002892719D01*
X000169455Y002891336D01*
X000156975Y002888720D01*
X000144812Y002884894D01*
X000133082Y002879896D01*
X000121897Y002873773D01*
X000111365Y002866585D01*
X000101587Y002858401D01*
X000092658Y002849299D01*
X000084662Y002839366D01*
X000077678Y002828698D01*
X000071771Y002817398D01*
X000066999Y002805574D01*
X000063407Y002793339D01*
X000061030Y002780811D01*
X000059891Y002768111D01*
X000060001Y002755361D01*
X000059879Y002087734D01*
X000060015Y002074984D01*
X000061397Y002062308D01*
X000064014Y002049829D01*
X000067840Y002037665D01*
X000072839Y002025935D01*
X000078961Y002014750D01*
X000086149Y002004218D01*
X000094334Y001994440D01*
X000103436Y001985511D01*
X000113369Y001977516D01*
X000124037Y001970531D01*
X000135337Y001964624D01*
X000147161Y001959852D01*
X000159396Y001956260D01*
X000165269Y001955146D01*
X000166078Y001954984D01*
X000166883Y001954805D01*
X000167684Y001954609D01*
X000168480Y001954396D01*
X000169272Y001954167D01*
X000170059Y001953921D01*
X000170841Y001953659D01*
X000171617Y001953380D01*
X000172388Y001953085D01*
X000173151Y001952774D01*
X000173908Y001952448D01*
X000174659Y001952105D01*
X000175401Y001951747D01*
X000176136Y001951373D01*
X000176864Y001950984D01*
X000177582Y001950580D01*
X000178293Y001950161D01*
X000178994Y001949727D01*
X000179686Y001949278D01*
X000180368Y001948816D01*
X000193331Y001939824D01*
X000197081Y001936871D01*
X000200446Y001933485D01*
X000203377Y001929717D01*
X000205830Y001925622D01*
X000207769Y001921260D01*
X000209167Y001916696D01*
X000210001Y001911995D01*
X000210261Y001907229D01*
X000209942Y001902466D01*
X000209049Y001897777D01*
X000207594Y001893230D01*
X000205601Y001888893D01*
X000203097Y001884829D01*
X000200119Y001881097D01*
X000196712Y001877754D01*
X000192925Y001874848D01*
X000188814Y001872421D01*
X000184440Y001870509D01*
X000179867Y001869141D01*
X000175161Y001868337D01*
X000169455Y001867714D01*
X000156975Y001865098D01*
X000144812Y001861272D01*
X000133082Y001856274D01*
X000121897Y001850151D01*
X000111365Y001842963D01*
X000101587Y001834779D01*
X000092658Y001825677D01*
X000084662Y001815744D01*
X000077678Y001805076D01*
X000071771Y001793776D01*
X000066999Y001781952D01*
X000063407Y001769717D01*
X000061030Y001757189D01*
X000059891Y001744489D01*
X000060001Y001731739D01*
X000059879Y001064112D01*
X000060015Y001051362D01*
X000061397Y001038686D01*
X000064014Y001026207D01*
X000067840Y001014043D01*
X000072839Y001002313D01*
X000078961Y000991128D01*
X000086149Y000980596D01*
X000094334Y000970818D01*
X000103436Y000961889D01*
X000113369Y000953894D01*
X000124037Y000946909D01*
X000135337Y000941002D01*
X000147161Y000936230D01*
X000159396Y000932638D01*
X000171923Y000930261D01*
X000184624Y000929122D01*
X000197381Y000929232D01*
X000964882Y000926732D01*
X000977631Y000926867D01*
X000990308Y000928249D01*
X001002787Y000930866D01*
X001014950Y000934692D01*
X001026681Y000939690D01*
X001037866Y000945813D01*
X001048397Y000953000D01*
X001058175Y000961185D01*
X001067104Y000970287D01*
X001075100Y000980221D01*
X001082084Y000990888D01*
X001087991Y001002188D01*
X001092763Y001014013D01*
X001096355Y001026247D01*
X001098732Y001038775D01*
X001099871Y001051475D01*
X001099800Y001059715D01*
X001099816Y001061239D01*
X001099892Y001062761D01*
X001100026Y001064279D01*
X001100219Y001065791D01*
X001100470Y001067294D01*
X001100779Y001068786D01*
X001101146Y001070266D01*
X001101570Y001071730D01*
X001102050Y001073176D01*
X001102585Y001074603D01*
X001103176Y001076008D01*
X001103820Y001077389D01*
X001104518Y001078744D01*
X001105267Y001080071D01*
X001106067Y001081368D01*
X001106917Y001082634D01*
X001107815Y001083865D01*
X001108760Y001085061D01*
X001109750Y001086219D01*
X001110785Y001087338D01*
X001133862Y001111345D01*
X001137296Y001114517D01*
X001141081Y001117259D01*
X001145165Y001119534D01*
X001149490Y001121308D01*
X001153995Y001122557D01*
X001158616Y001123264D01*
X001163288Y001123418D01*
X001167946Y001123017D01*
X001172523Y001122066D01*
X001176955Y001120580D01*
X001181180Y001118579D01*
X001185137Y001116092D01*
X001188773Y001113153D01*
X001192034Y001109803D01*
X001194875Y001106091D01*
X001197256Y001102068D01*
X001199144Y001097792D01*
X001200511Y001093321D01*
X001201339Y001088721D01*
X001201615Y001084054D01*
X001201612Y001064112D01*
X001201747Y001051362D01*
X001203129Y001038686D01*
X001205746Y001026207D01*
X001209572Y001014043D01*
X001214571Y001002313D01*
X001220693Y000991128D01*
X001227881Y000980596D01*
X001236066Y000970818D01*
X001245168Y000961889D01*
X001255102Y000953894D01*
X001265769Y000946909D01*
X001277069Y000941002D01*
X001288893Y000936230D01*
X001301129Y000932638D01*
X001313656Y000930261D01*
X001326356Y000929122D01*
X001339114Y000929232D01*
X002106614Y000926732D01*
X002119364Y000926867D01*
X002132040Y000928249D01*
X002144519Y000930866D01*
X002156683Y000934692D01*
X002168413Y000939690D01*
X002179598Y000945813D01*
X002190130Y000953000D01*
X002199907Y000961185D01*
X002208837Y000970287D01*
X002216832Y000980221D01*
X002223817Y000990888D01*
X002229724Y001002188D01*
X002234495Y001014013D01*
X002238087Y001026247D01*
X002240464Y001038775D01*
X002241603Y001051475D01*
X002241493Y001064225D01*
X002241496Y001079479D01*
X002241590Y001082190D01*
X002241870Y001084889D01*
X002242336Y001087561D01*
X002242984Y001090195D01*
X002243813Y001092778D01*
X002244817Y001095298D01*
X002245992Y001097743D01*
X002247333Y001100101D01*
X002248833Y001102361D01*
X002250485Y001104512D01*
X002252282Y001106545D01*
X002254214Y001108449D01*
X002256272Y001110216D01*
X002258448Y001111836D01*
X002260730Y001113303D01*
X002263107Y001114609D01*
X002265569Y001115749D01*
X002268103Y001116716D01*
X002270698Y001117507D01*
X002273341Y001118117D01*
X002296452Y001122617D01*
X002299884Y001123130D01*
X002303348Y001123338D01*
X002306817Y001123240D01*
X002310263Y001122838D01*
X002313661Y001122133D01*
X002316983Y001121133D01*
X002320205Y001119843D01*
X002323300Y001118275D01*
X002326245Y001116440D01*
X002329018Y001114354D01*
X002331595Y001112031D01*
X002333959Y001109490D01*
X002336089Y001106751D01*
X002337970Y001103835D01*
X002339587Y001100765D01*
X002340927Y001097564D01*
X002341980Y001094258D01*
X002342738Y001090872D01*
X002343195Y001087432D01*
X002343348Y001083966D01*
X002343344Y001064112D01*
X002343479Y001051362D01*
X002344862Y001038686D01*
X002347479Y001026207D01*
X002351305Y001014043D01*
X002356303Y001002313D01*
X002362426Y000991128D01*
X002369614Y000980596D01*
X002377798Y000970818D01*
X002386901Y000961889D01*
X002396834Y000953894D01*
X002407502Y000946909D01*
X002418802Y000941002D01*
X002430626Y000936230D01*
X002442861Y000932638D01*
X002455388Y000930261D01*
X002468089Y000929122D01*
X002480846Y000929232D01*
X003248346Y000926732D01*
X003261096Y000926867D01*
X003273772Y000928249D01*
X003286251Y000930866D01*
X003298415Y000934692D01*
X003310145Y000939690D01*
X003321330Y000945813D01*
X003331862Y000953000D01*
X003341639Y000961185D01*
X003350569Y000970287D01*
X003358565Y000980221D01*
X003365549Y000990888D01*
X003371456Y001002188D01*
X003376228Y001014013D01*
X003379819Y001026247D01*
X003382197Y001038775D01*
X003383336Y001051475D01*
X003383226Y001064225D01*
X003383346Y001734232D01*
X003383211Y001746982D01*
X003381828Y001759658D01*
X003379212Y001772138D01*
X003375386Y001784301D01*
X003370388Y001796031D01*
X003364265Y001807217D01*
X003357077Y001817748D01*
X003348892Y001827526D01*
X003339790Y001836455D01*
X003329857Y001844451D01*
X003319190Y001851435D01*
X003307889Y001857342D01*
X003296066Y001862114D01*
X003283831Y001865706D01*
X003271303Y001868083D01*
X003258603Y001869222D01*
X003245853Y001869112D01*
X003245846Y001869232D01*
X003178603Y001869232D01*
X003175088Y001869389D01*
X003171601Y001869860D01*
X003168170Y001870639D01*
X003164822Y001871723D01*
X003161584Y001873101D01*
X003158482Y001874762D01*
X003155541Y001876694D01*
X003152784Y001878880D01*
X003150234Y001881304D01*
X003147910Y001883946D01*
X003145831Y001886785D01*
X003144014Y001889799D01*
X003142473Y001892962D01*
X003141221Y001896251D01*
X003140267Y001899638D01*
X003139620Y001903096D01*
X003139284Y001906599D01*
X003139262Y001910118D01*
X003139555Y001913624D01*
X003140159Y001917091D01*
X003140735Y001919698D01*
X003141399Y001922284D01*
X003142236Y001924820D01*
X003143244Y001927292D01*
X003144417Y001929691D01*
X003145750Y001932005D01*
X003147236Y001934223D01*
X003148870Y001936336D01*
X003150643Y001938332D01*
X003152547Y001940204D01*
X003154573Y001941943D01*
X003156713Y001943540D01*
X003158957Y001944988D01*
X003161293Y001946281D01*
X003163711Y001947413D01*
X003166201Y001948378D01*
X003168750Y001949173D01*
X003171348Y001949792D01*
X003173981Y001950234D01*
X003176638Y001950497D01*
X003179307Y001950579D01*
X003248346Y001950354D01*
X003261096Y001950489D01*
X003273772Y001951871D01*
X003286251Y001954488D01*
X003298415Y001958314D01*
X003310145Y001963312D01*
X003321330Y001969435D01*
X003331862Y001976622D01*
X003341639Y001984808D01*
X003350569Y001993909D01*
X003358565Y002003843D01*
X003365549Y002014510D01*
X003371456Y002025810D01*
X003376228Y002037635D01*
X003379819Y002049869D01*
X003382197Y002062397D01*
X003383336Y002075097D01*
X003383226Y002087847D01*
X003383346Y002757854D01*
X003383211Y002770604D01*
X003381828Y002783280D01*
X003379212Y002795760D01*
X003375386Y002807923D01*
X003370388Y002819653D01*
X003364265Y002830839D01*
X003357077Y002841370D01*
X003348892Y002851148D01*
X003339790Y002860077D01*
X003329857Y002868073D01*
X003319190Y002875057D01*
X003307889Y002880964D01*
X003296066Y002885736D01*
X003283831Y002889328D01*
X003271303Y002891705D01*
X003258603Y002892844D01*
X003245853Y002892734D01*
X003245846Y002892854D01*
X003194496Y002892854D01*
X003188780Y002893271D01*
X003183186Y002894514D01*
X003177830Y002896555D01*
X003172829Y002899353D01*
X003168286Y002902847D01*
X003164298Y002906964D01*
X003160951Y002911615D01*
X003158314Y002916704D01*
X003156444Y002922122D01*
X003155381Y002927753D01*
X003155146Y002933479D01*
X003155745Y002939179D01*
X003157166Y002944731D01*
X003159377Y002950019D01*
X003162333Y002954929D01*
X003165970Y002959358D01*
X003170212Y002963212D01*
X003174968Y002966409D01*
X003180138Y002968882D01*
X003185612Y002970579D01*
X003196499Y002973100D01*
X003196943Y002973200D01*
X003197387Y002973295D01*
X003197833Y002973385D01*
X003198279Y002973469D01*
X003198726Y002973549D01*
X003199175Y002973623D01*
X003199624Y002973692D01*
X003200074Y002973756D01*
X003200525Y002973815D01*
X003200976Y002973868D01*
X003201428Y002973916D01*
X003201880Y002973960D01*
X003202333Y002973997D01*
X003202786Y002974030D01*
X003203240Y002974057D01*
X003203694Y002974079D01*
X003204148Y002974096D01*
X003204602Y002974108D01*
X003205057Y002974114D01*
X003205511Y002974115D01*
X003248346Y002973976D01*
X003261096Y002974111D01*
X003273772Y002975493D01*
X003286251Y002978110D01*
X003298415Y002981936D01*
X003310145Y002986934D01*
X003321330Y002993057D01*
X003331862Y003000244D01*
X003341639Y003008430D01*
X003350569Y003017531D01*
X003358565Y003027465D01*
X003365549Y003038132D01*
X003371456Y003049432D01*
X003376228Y003061257D01*
X003379819Y003073491D01*
X003382197Y003086019D01*
X003383336Y003098719D01*
X003383226Y003111469D01*
X003383346Y003781476D01*
X003383211Y003794226D01*
X003381828Y003806902D01*
X003379212Y003819382D01*
X003375386Y003831545D01*
X003370388Y003843275D01*
X003364265Y003854461D01*
X003357077Y003864992D01*
X003348892Y003874770D01*
X003339790Y003883699D01*
X003329857Y003891695D01*
X003319190Y003898679D01*
X003307889Y003904586D01*
X003296066Y003909358D01*
X003283831Y003912950D01*
X003271303Y003915327D01*
X003258603Y003916466D01*
X003245853Y003916356D01*
X003245846Y003916476D01*
X002478346Y003916476D01*
X002465595Y003916341D01*
X002452920Y003914958D01*
X002440440Y003912342D01*
X002428277Y003908516D01*
X002416546Y003903518D01*
X002405361Y003897395D01*
X002394829Y003890207D01*
X002385052Y003882023D01*
X002376123Y003872921D01*
X002368127Y003862988D01*
X002361142Y003852320D01*
X002355236Y003841020D01*
X002350464Y003829196D01*
X002350360Y003828843D01*
X002349433Y003826070D01*
X002348303Y003823374D01*
X002346976Y003820770D01*
X002345459Y003818271D01*
X002343761Y003815891D01*
X002341892Y003813645D01*
X002339860Y003811542D01*
X002337679Y003809597D01*
X002335359Y003807819D01*
X002332913Y003806217D01*
X002330356Y003804802D01*
X002327700Y003803580D01*
X002324961Y003802559D01*
X002322154Y003801743D01*
X002319294Y003801139D01*
X002316397Y003800748D01*
X002313479Y003800573D01*
X002310557Y003800615D01*
X002307645Y003800874D01*
X002304760Y003801348D01*
X002261296Y003810161D01*
X002259438Y003810585D01*
X002257603Y003811098D01*
X002255796Y003811699D01*
X002254019Y003812387D01*
X002252278Y003813160D01*
X002250576Y003814017D01*
X002248917Y003814954D01*
X002247306Y003815971D01*
X002245746Y003817065D01*
X002244241Y003818233D01*
X002242794Y003819472D01*
X002241408Y003820780D01*
X002240088Y003822154D01*
X002238835Y003823589D01*
X002237654Y003825084D01*
X002236546Y003826634D01*
X002235514Y003828235D01*
X002234561Y003829885D01*
X002233689Y003831579D01*
X002232900Y003833313D01*
X002232900Y003833313D01*
X002228656Y003843275D01*
X002222533Y003854461D01*
X002215345Y003864992D01*
X002207160Y003874770D01*
X002198058Y003883699D01*
X002188125Y003891695D01*
X002177458Y003898679D01*
X002166157Y003904586D01*
X002154333Y003909358D01*
X002142099Y003912950D01*
X002129571Y003915327D01*
X002116871Y003916466D01*
X002104120Y003916356D01*
X002104114Y003916476D01*
X001336613Y003916476D01*
X001323863Y003916341D01*
X001311187Y003914958D01*
X001298708Y003912342D01*
X001286544Y003908516D01*
X001274814Y003903518D01*
X001263629Y003897395D01*
X001253097Y003890207D01*
X001243320Y003882023D01*
X001234390Y003872921D01*
X001226395Y003862988D01*
X001219410Y003852320D01*
X001213503Y003841020D01*
X001208731Y003829196D01*
X001205140Y003816961D01*
X001202762Y003804433D01*
X001202017Y003796117D01*
X001201662Y003793306D01*
X001201106Y003790528D01*
X001200352Y003787797D01*
X001199404Y003785127D01*
X001198265Y003782532D01*
X001196943Y003780026D01*
X001195445Y003777621D01*
X001193777Y003775330D01*
X001191949Y003773166D01*
X001189969Y003771138D01*
X001187850Y003769258D01*
X001185600Y003767535D01*
X001183232Y003765979D01*
X001180759Y003764597D01*
X001178192Y003763396D01*
X001175546Y003762383D01*
X001172834Y003761563D01*
X001170070Y003760940D01*
X001167268Y003760518D01*
X001164443Y003760298D01*
X001140507Y003759301D01*
X001137548Y003759289D01*
X001134596Y003759499D01*
X001131668Y003759931D01*
X001128781Y003760581D01*
X001125950Y003761447D01*
X001123193Y003762522D01*
X001120524Y003763802D01*
X001117960Y003765278D01*
X001115513Y003766943D01*
X001113198Y003768787D01*
X001111028Y003770800D01*
X001109016Y003772970D01*
X001107172Y003775285D01*
X001105507Y003777732D01*
X001104031Y003780297D01*
X001102752Y003782966D01*
X001101677Y003785723D01*
X001100812Y003788554D01*
X001100162Y003791441D01*
X001099731Y003794369D01*
X001098364Y003806902D01*
X001095747Y003819382D01*
X001091921Y003831545D01*
X001086923Y003843275D01*
X001080801Y003854461D01*
X001073613Y003864992D01*
X001065428Y003874770D01*
X001056326Y003883699D01*
X001046393Y003891695D01*
X001035725Y003898679D01*
X001024425Y003904586D01*
X001012601Y003909358D01*
X001000366Y003912950D01*
X000987838Y003915327D01*
X000975139Y003916466D01*
X000962388Y003916356D01*
X000962382Y003916476D01*
X000194881Y003916476D01*
X000182131Y003916341D01*
X000169455Y003914958D01*
X000156975Y003912342D01*
X000144812Y003908516D01*
X000133082Y003903518D01*
X000121897Y003897395D01*
X000111365Y003890207D01*
X000101587Y003882023D01*
X000092658Y003872921D01*
X000084662Y003862988D01*
X000077678Y003852320D01*
X000071771Y003841020D01*
X000066999Y003829196D01*
X000063407Y003816961D01*
X000061030Y003804433D01*
X000059891Y003791733D01*
X000060001Y003778983D01*
X000059879Y003111356D01*
X000060015Y003098606D01*
X000061397Y003085930D01*
X000064014Y003073451D01*
X000067840Y003061287D01*
X000072839Y003049557D01*
X000078961Y003038372D01*
X000086149Y003027840D01*
X000094334Y003018062D01*
X000103436Y003009133D01*
X000113369Y003001138D01*
X000124037Y002994153D01*
X000135337Y002988247D01*
X000147161Y002983474D01*
X000159396Y002979882D01*
X000171923Y002977505D01*
X000184624Y002976366D01*
X000188097Y002976396D01*
M02*