%
M48
METRIC,000.000
T10C0.40
T11C1.00
T12C1.52
T13C3.20
%
T10
X007744Y090589
X009584Y094907
X009649Y097574
X015491Y082143
X015491Y080492
X015491Y078841
X015491Y077190
X016760Y083731
X017331Y082207
X017331Y080556
X017331Y078905
X017331Y077253
X018920Y094907
X018983Y097574
X019174Y082207
X019174Y080556
X019174Y078905
X019174Y077253
X036744Y090589
X038584Y094907
X038649Y097574
X044491Y082143
X044491Y080492
X044491Y078841
X044491Y077190
X045760Y083731
X046331Y082207
X046331Y080556
X046331Y078905
X046331Y077253
X047920Y094907
X047983Y097574
X048174Y082207
X048174Y080556
X048174Y078905
X048174Y077253
X065744Y090589
X067585Y094907
X067649Y097574
X073491Y082143
X073491Y080492
X073491Y078841
X073491Y077190
X074761Y083731
X075332Y082207
X075332Y080556
X075332Y078905
X075332Y077253
X076920Y094907
X076983Y097574
X077174Y082207
X077174Y080556
X077174Y078905
X077174Y077253
X007744Y064589
X009584Y068907
X009649Y071574
X015491Y056143
X015491Y054492
X015491Y052841
X015491Y051190
X016760Y057730
X017331Y056206
X017331Y054556
X017331Y052905
X017331Y051253
X018920Y068907
X018983Y071574
X019174Y056206
X019174Y054556
X019174Y052905
X019174Y051253
X036744Y064589
X038584Y068907
X038649Y071574
X044491Y056143
X044491Y054492
X044491Y052841
X044491Y051190
X045760Y057730
X046331Y056206
X046331Y054556
X046331Y052905
X046331Y051253
X047920Y068907
X047983Y071574
X048174Y056206
X048174Y054556
X048174Y052905
X048174Y051253
X065744Y064589
X067585Y068907
X067649Y071574
X073491Y056143
X073491Y054492
X073491Y052841
X073491Y051190
X074761Y057730
X075332Y056206
X075332Y054556
X075332Y052905
X075332Y051253
X076920Y068907
X076983Y071574
X077174Y056206
X077174Y054556
X077174Y052905
X077174Y051253
X007744Y038589
X009584Y042907
X009649Y045574
X015491Y030143
X015491Y028492
X015491Y026841
X015491Y025189
X016760Y031730
X017331Y030206
X017331Y028555
X017331Y026905
X017331Y025253
X018920Y042907
X018983Y045574
X019174Y030206
X019174Y028555
X019174Y026905
X019174Y025253
X036744Y038589
X038584Y042907
X038649Y045574
X044491Y030143
X044491Y028492
X044491Y026841
X044491Y025189
X045760Y031730
X046331Y030206
X046331Y028555
X046331Y026905
X046331Y025253
X047920Y042907
X047983Y045574
X048174Y030206
X048174Y028555
X048174Y026905
X048174Y025253
X065744Y038589
X067585Y042907
X067649Y045574
X073491Y030143
X073491Y028492
X073491Y026841
X073491Y025189
X074761Y031730
X075332Y030206
X075332Y028555
X075332Y026905
X075332Y025253
X076920Y042907
X076983Y045574
X077174Y030206
X077174Y028555
X077174Y026905
X077174Y025253
T11
X003489Y088811
X003489Y086270
X012760Y097383
X015299Y097383
X017587Y089128
X017587Y086588
X032488Y088811
X032488Y086270
X041760Y097383
X044300Y097383
X046587Y089128
X046587Y086588
X061489Y088811
X061489Y086270
X070760Y097383
X073300Y097383
X075587Y089128
X075587Y086588
X003489Y062811
X003489Y060269
X012760Y071383
X015299Y071383
X017587Y063128
X017587Y060587
X032488Y062811
X032488Y060269
X041760Y071383
X044300Y071383
X046587Y063128
X046587Y060587
X061489Y062811
X061489Y060269
X070760Y071383
X073300Y071383
X075587Y063128
X075587Y060587
X003489Y036811
X003489Y034269
X012760Y045382
X015299Y045382
X017587Y037128
X017587Y034587
X032488Y036811
X032488Y034269
X041760Y045382
X044300Y045382
X046587Y037128
X046587Y034587
X061489Y036811
X061489Y034269
X070760Y045382
X073300Y045382
X075587Y037128
X075587Y034587
T12
X024063Y090081
X024063Y085001
X053063Y090081
X053063Y085001
X082063Y090081
X082063Y085001
X024063Y064081
X024063Y059001
X053063Y064081
X053063Y059001
X082063Y064081
X082063Y059001
X024063Y038081
X024063Y033001
X053063Y038081
X053063Y033001
X082063Y038081
X082063Y033001
T13
X004759Y079095
X004885Y096240
X024697Y096240
X024697Y078841
X033759Y079095
X033885Y096240
X053697Y096240
X053697Y078841
X062759Y079095
X062885Y096240
X082698Y096240
X082698Y078841
X004759Y053095
X004885Y070240
X024697Y070240
X024697Y052841
X033759Y053095
X033885Y070240
X053697Y070240
X053697Y052841
X062759Y053095
X062885Y070240
X082698Y070240
X082698Y052841
X004759Y027095
X004885Y044239
X024697Y044239
X024697Y026841
X033759Y027095
X033885Y044239
X053697Y044239
X053697Y026841
X062759Y027095
X062885Y044239
X082698Y044239
X082698Y026841
M30