%MOIN*%
%OFA0B0*%
%FSLAX46Y46*%
%IPPOS*%
%LPD*%
%AMRoundRect*
4,1,4,
0.07874015748031496,0.11811023622047245,
0.15748031496062992,0.19685039370078741,
0.23622047244094491,0.27559055118110237,
0.31496062992125984,0.35433070866141736,
0.07874015748031496,0.11811023622047245,
0*
1,1,$1,$2,$3*
1,1,$1,$2,$3*
1,1,$1,$2,$3*
1,1,$1,$2,$3*
20,1,$1,$2,$3,$4,$5,0*
20,1,$1,$2,$3,$4,$5,0*
20,1,$1,$2,$3,$4,$5,0*
20,1,$1,$2,$3,$4,$5,0*%
%AMCOMP5*
4,1,3,
-0.015748031496062995,-0.024606299212598427,
0.015748031496062995,-0.024606299212598427,
0.015748031496062995,0.024606299212598427,
-0.015748031496062995,0.024606299212598427,
0*
4,1,19,
-0.015748031496062995,-0.014763779527559057,
-0.012706525645915873,-0.015245506729378409,
-0.0099627435797984935,-0.016643533519931621,
-0.0077852658033961877,-0.018821011296333928,
-0.0063872390128429787,-0.021564793362451307,
-0.0059055118110236228,-0.024606299212598427,
-0.006387239012842977,-0.027647805062745546,
-0.0077852658033961877,-0.030391587128862925,
-0.0099627435797984918,-0.032569064905265233,
-0.012706525645915873,-0.033967091695818442,
-0.015748031496062992,-0.034448818897637797,
-0.018789537346210118,-0.033967091695818442,
-0.02153331941232749,-0.032569064905265233,
-0.0237107971887298,-0.030391587128862928,
-0.025108823979283011,-0.027647805062745546,
-0.025590551181102365,-0.024606299212598427,
-0.025108823979283011,-0.021564793362451307,
-0.0237107971887298,-0.018821011296333928,
-0.021533319412327497,-0.016643533519931621,
-0.018789537346210118,-0.015245506729378409,
0*
4,1,19,
0.015748031496062995,-0.014763779527559057,
0.018789537346210115,-0.015245506729378409,
0.02153331941232749,-0.016643533519931621,
0.0237107971887298,-0.018821011296333928,
0.025108823979283011,-0.021564793362451307,
0.025590551181102365,-0.024606299212598427,
0.025108823979283011,-0.027647805062745546,
0.0237107971887298,-0.030391587128862925,
0.021533319412327497,-0.032569064905265233,
0.018789537346210115,-0.033967091695818442,
0.015748031496062995,-0.034448818897637797,
0.012706525645915871,-0.033967091695818442,
0.009962743579798497,-0.032569064905265233,
0.0077852658033961885,-0.030391587128862928,
0.0063872390128429787,-0.027647805062745546,
0.0059055118110236228,-0.024606299212598427,
0.006387239012842977,-0.021564793362451307,
0.0077852658033961868,-0.018821011296333928,
0.0099627435797984918,-0.016643533519931621,
0.012706525645915871,-0.015245506729378409,
0*
4,1,19,
0.015748031496062995,0.034448818897637797,
0.018789537346210115,0.033967091695818442,
0.02153331941232749,0.032569064905265233,
0.0237107971887298,0.030391587128862928,
0.025108823979283011,0.027647805062745546,
0.025590551181102365,0.024606299212598427,
0.025108823979283011,0.021564793362451307,
0.0237107971887298,0.018821011296333928,
0.021533319412327497,0.016643533519931621,
0.018789537346210115,0.015245506729378409,
0.015748031496062995,0.014763779527559057,
0.012706525645915871,0.015245506729378409,
0.009962743579798497,0.016643533519931621,
0.0077852658033961885,0.018821011296333925,
0.0063872390128429787,0.021564793362451307,
0.0059055118110236228,0.024606299212598427,
0.006387239012842977,0.027647805062745546,
0.0077852658033961868,0.030391587128862925,
0.0099627435797984918,0.032569064905265233,
0.012706525645915871,0.033967091695818442,
0*
4,1,19,
-0.015748031496062995,0.034448818897637797,
-0.012706525645915873,0.033967091695818442,
-0.0099627435797984935,0.032569064905265233,
-0.0077852658033961877,0.030391587128862928,
-0.0063872390128429787,0.027647805062745546,
-0.0059055118110236228,0.024606299212598427,
-0.006387239012842977,0.021564793362451307,
-0.0077852658033961877,0.018821011296333928,
-0.0099627435797984918,0.016643533519931621,
-0.012706525645915873,0.015245506729378409,
-0.015748031496062992,0.014763779527559057,
-0.018789537346210118,0.015245506729378409,
-0.02153331941232749,0.016643533519931621,
-0.0237107971887298,0.018821011296333925,
-0.025108823979283011,0.021564793362451307,
-0.025590551181102365,0.024606299212598427,
-0.025108823979283011,0.027647805062745546,
-0.0237107971887298,0.030391587128862925,
-0.021533319412327497,0.032569064905265233,
-0.018789537346210118,0.033967091695818442,
0*
4,1,3,
-0.015748031496062995,-0.034448818897637797,
-0.015748031496062995,-0.014763779527559057,
0.015748031496062995,-0.014763779527559057,
0.015748031496062995,-0.034448818897637797,
0*
4,1,3,
0.025590551181102365,-0.024606299212598427,
0.0059055118110236228,-0.024606299212598427,
0.0059055118110236228,0.024606299212598427,
0.025590551181102365,0.024606299212598427,
0*
4,1,3,
0.015748031496062995,0.034448818897637797,
0.015748031496062995,0.014763779527559057,
-0.015748031496062995,0.014763779527559057,
-0.015748031496062995,0.034448818897637797,
0*
4,1,3,
-0.025590551181102365,0.024606299212598427,
-0.0059055118110236228,0.024606299212598427,
-0.0059055118110236228,-0.024606299212598427,
-0.025590551181102365,-0.024606299212598427,
0*%
%AMCOMP6*
4,1,3,
0.015748031496062995,0.024606299212598427,
-0.015748031496062995,0.024606299212598427,
-0.015748031496062995,-0.024606299212598427,
0.015748031496062995,-0.024606299212598427,
0*
4,1,19,
0.015748031496062995,0.034448818897637797,
0.018789537346210115,0.033967091695818442,
0.02153331941232749,0.032569064905265233,
0.0237107971887298,0.030391587128862928,
0.025108823979283011,0.027647805062745546,
0.025590551181102365,0.024606299212598427,
0.025108823979283011,0.021564793362451307,
0.0237107971887298,0.018821011296333928,
0.021533319412327497,0.016643533519931621,
0.018789537346210115,0.015245506729378409,
0.015748031496062995,0.014763779527559057,
0.012706525645915871,0.015245506729378409,
0.009962743579798497,0.016643533519931621,
0.0077852658033961885,0.018821011296333925,
0.0063872390128429787,0.021564793362451307,
0.0059055118110236228,0.024606299212598427,
0.006387239012842977,0.027647805062745546,
0.0077852658033961868,0.030391587128862925,
0.0099627435797984918,0.032569064905265233,
0.012706525645915871,0.033967091695818442,
0*
4,1,19,
-0.015748031496062995,0.034448818897637797,
-0.012706525645915873,0.033967091695818442,
-0.0099627435797984935,0.032569064905265233,
-0.0077852658033961877,0.030391587128862928,
-0.0063872390128429787,0.027647805062745546,
-0.0059055118110236228,0.024606299212598427,
-0.006387239012842977,0.021564793362451307,
-0.0077852658033961877,0.018821011296333928,
-0.0099627435797984918,0.016643533519931621,
-0.012706525645915873,0.015245506729378409,
-0.015748031496062992,0.014763779527559057,
-0.018789537346210118,0.015245506729378409,
-0.02153331941232749,0.016643533519931621,
-0.0237107971887298,0.018821011296333925,
-0.025108823979283011,0.021564793362451307,
-0.025590551181102365,0.024606299212598427,
-0.025108823979283011,0.027647805062745546,
-0.0237107971887298,0.030391587128862925,
-0.021533319412327497,0.032569064905265233,
-0.018789537346210118,0.033967091695818442,
0*
4,1,19,
-0.015748031496062995,-0.014763779527559057,
-0.012706525645915873,-0.015245506729378409,
-0.0099627435797984935,-0.016643533519931621,
-0.0077852658033961877,-0.018821011296333928,
-0.0063872390128429787,-0.021564793362451307,
-0.0059055118110236228,-0.024606299212598427,
-0.006387239012842977,-0.027647805062745546,
-0.0077852658033961877,-0.030391587128862925,
-0.0099627435797984918,-0.032569064905265233,
-0.012706525645915873,-0.033967091695818442,
-0.015748031496062992,-0.034448818897637797,
-0.018789537346210118,-0.033967091695818442,
-0.02153331941232749,-0.032569064905265233,
-0.0237107971887298,-0.030391587128862928,
-0.025108823979283011,-0.027647805062745546,
-0.025590551181102365,-0.024606299212598427,
-0.025108823979283011,-0.021564793362451307,
-0.0237107971887298,-0.018821011296333928,
-0.021533319412327497,-0.016643533519931621,
-0.018789537346210118,-0.015245506729378409,
0*
4,1,19,
0.015748031496062995,-0.014763779527559057,
0.018789537346210115,-0.015245506729378409,
0.02153331941232749,-0.016643533519931621,
0.0237107971887298,-0.018821011296333928,
0.025108823979283011,-0.021564793362451307,
0.025590551181102365,-0.024606299212598427,
0.025108823979283011,-0.027647805062745546,
0.0237107971887298,-0.030391587128862925,
0.021533319412327497,-0.032569064905265233,
0.018789537346210115,-0.033967091695818442,
0.015748031496062995,-0.034448818897637797,
0.012706525645915871,-0.033967091695818442,
0.009962743579798497,-0.032569064905265233,
0.0077852658033961885,-0.030391587128862928,
0.0063872390128429787,-0.027647805062745546,
0.0059055118110236228,-0.024606299212598427,
0.006387239012842977,-0.021564793362451307,
0.0077852658033961868,-0.018821011296333928,
0.0099627435797984918,-0.016643533519931621,
0.012706525645915871,-0.015245506729378409,
0*
4,1,3,
0.015748031496062995,0.034448818897637797,
0.015748031496062995,0.014763779527559057,
-0.015748031496062995,0.014763779527559057,
-0.015748031496062995,0.034448818897637797,
0*
4,1,3,
-0.025590551181102365,0.024606299212598427,
-0.0059055118110236228,0.024606299212598427,
-0.0059055118110236228,-0.024606299212598427,
-0.025590551181102365,-0.024606299212598427,
0*
4,1,3,
-0.015748031496062995,-0.034448818897637797,
-0.015748031496062995,-0.014763779527559057,
0.015748031496062995,-0.014763779527559057,
0.015748031496062995,-0.034448818897637797,
0*
4,1,3,
0.025590551181102365,-0.024606299212598427,
0.0059055118110236228,-0.024606299212598427,
0.0059055118110236228,0.024606299212598427,
0.025590551181102365,0.024606299212598427,
0*%
%AMRoundRect0*
4,1,4,
0.07874015748031496,0.11811023622047245,
0.15748031496062992,0.19685039370078741,
0.23622047244094491,0.27559055118110237,
0.31496062992125984,0.35433070866141736,
0.07874015748031496,0.11811023622047245,
0*
1,1,$1,$2,$3*
1,1,$1,$2,$3*
1,1,$1,$2,$3*
1,1,$1,$2,$3*
20,1,$1,$2,$3,$4,$5,0*
20,1,$1,$2,$3,$4,$5,0*
20,1,$1,$2,$3,$4,$5,0*
20,1,$1,$2,$3,$4,$5,0*%
%AMCOMP130*
4,1,3,
-0.015748031496062995,-0.024606299212598427,
0.015748031496062995,-0.024606299212598427,
0.015748031496062995,0.024606299212598427,
-0.015748031496062995,0.024606299212598427,
0*
4,1,19,
-0.015748031496062995,-0.014763779527559057,
-0.012706525645915873,-0.015245506729378409,
-0.0099627435797984935,-0.016643533519931621,
-0.0077852658033961877,-0.018821011296333928,
-0.0063872390128429787,-0.021564793362451307,
-0.0059055118110236228,-0.024606299212598427,
-0.006387239012842977,-0.027647805062745546,
-0.0077852658033961877,-0.030391587128862925,
-0.0099627435797984918,-0.032569064905265233,
-0.012706525645915873,-0.033967091695818442,
-0.015748031496062992,-0.034448818897637797,
-0.018789537346210118,-0.033967091695818442,
-0.02153331941232749,-0.032569064905265233,
-0.0237107971887298,-0.030391587128862928,
-0.025108823979283011,-0.027647805062745546,
-0.025590551181102365,-0.024606299212598427,
-0.025108823979283011,-0.021564793362451307,
-0.0237107971887298,-0.018821011296333928,
-0.021533319412327497,-0.016643533519931621,
-0.018789537346210118,-0.015245506729378409,
0*
4,1,19,
0.015748031496062995,-0.014763779527559057,
0.018789537346210115,-0.015245506729378409,
0.02153331941232749,-0.016643533519931621,
0.0237107971887298,-0.018821011296333928,
0.025108823979283011,-0.021564793362451307,
0.025590551181102365,-0.024606299212598427,
0.025108823979283011,-0.027647805062745546,
0.0237107971887298,-0.030391587128862925,
0.021533319412327497,-0.032569064905265233,
0.018789537346210115,-0.033967091695818442,
0.015748031496062995,-0.034448818897637797,
0.012706525645915871,-0.033967091695818442,
0.009962743579798497,-0.032569064905265233,
0.0077852658033961885,-0.030391587128862928,
0.0063872390128429787,-0.027647805062745546,
0.0059055118110236228,-0.024606299212598427,
0.006387239012842977,-0.021564793362451307,
0.0077852658033961868,-0.018821011296333928,
0.0099627435797984918,-0.016643533519931621,
0.012706525645915871,-0.015245506729378409,
0*
4,1,19,
0.015748031496062995,0.034448818897637797,
0.018789537346210115,0.033967091695818442,
0.02153331941232749,0.032569064905265233,
0.0237107971887298,0.030391587128862928,
0.025108823979283011,0.027647805062745546,
0.025590551181102365,0.024606299212598427,
0.025108823979283011,0.021564793362451307,
0.0237107971887298,0.018821011296333928,
0.021533319412327497,0.016643533519931621,
0.018789537346210115,0.015245506729378409,
0.015748031496062995,0.014763779527559057,
0.012706525645915871,0.015245506729378409,
0.009962743579798497,0.016643533519931621,
0.0077852658033961885,0.018821011296333925,
0.0063872390128429787,0.021564793362451307,
0.0059055118110236228,0.024606299212598427,
0.006387239012842977,0.027647805062745546,
0.0077852658033961868,0.030391587128862925,
0.0099627435797984918,0.032569064905265233,
0.012706525645915871,0.033967091695818442,
0*
4,1,19,
-0.015748031496062995,0.034448818897637797,
-0.012706525645915873,0.033967091695818442,
-0.0099627435797984935,0.032569064905265233,
-0.0077852658033961877,0.030391587128862928,
-0.0063872390128429787,0.027647805062745546,
-0.0059055118110236228,0.024606299212598427,
-0.006387239012842977,0.021564793362451307,
-0.0077852658033961877,0.018821011296333928,
-0.0099627435797984918,0.016643533519931621,
-0.012706525645915873,0.015245506729378409,
-0.015748031496062992,0.014763779527559057,
-0.018789537346210118,0.015245506729378409,
-0.02153331941232749,0.016643533519931621,
-0.0237107971887298,0.018821011296333925,
-0.025108823979283011,0.021564793362451307,
-0.025590551181102365,0.024606299212598427,
-0.025108823979283011,0.027647805062745546,
-0.0237107971887298,0.030391587128862925,
-0.021533319412327497,0.032569064905265233,
-0.018789537346210118,0.033967091695818442,
0*
4,1,3,
-0.015748031496062995,-0.034448818897637797,
-0.015748031496062995,-0.014763779527559057,
0.015748031496062995,-0.014763779527559057,
0.015748031496062995,-0.034448818897637797,
0*
4,1,3,
0.025590551181102365,-0.024606299212598427,
0.0059055118110236228,-0.024606299212598427,
0.0059055118110236228,0.024606299212598427,
0.025590551181102365,0.024606299212598427,
0*
4,1,3,
0.015748031496062995,0.034448818897637797,
0.015748031496062995,0.014763779527559057,
-0.015748031496062995,0.014763779527559057,
-0.015748031496062995,0.034448818897637797,
0*
4,1,3,
-0.025590551181102365,0.024606299212598427,
-0.0059055118110236228,0.024606299212598427,
-0.0059055118110236228,-0.024606299212598427,
-0.025590551181102365,-0.024606299212598427,
0*%
%AMCOMP140*
4,1,3,
0.015748031496062995,0.024606299212598427,
-0.015748031496062995,0.024606299212598427,
-0.015748031496062995,-0.024606299212598427,
0.015748031496062995,-0.024606299212598427,
0*
4,1,19,
0.015748031496062995,0.034448818897637797,
0.018789537346210115,0.033967091695818442,
0.02153331941232749,0.032569064905265233,
0.0237107971887298,0.030391587128862928,
0.025108823979283011,0.027647805062745546,
0.025590551181102365,0.024606299212598427,
0.025108823979283011,0.021564793362451307,
0.0237107971887298,0.018821011296333928,
0.021533319412327497,0.016643533519931621,
0.018789537346210115,0.015245506729378409,
0.015748031496062995,0.014763779527559057,
0.012706525645915871,0.015245506729378409,
0.009962743579798497,0.016643533519931621,
0.0077852658033961885,0.018821011296333925,
0.0063872390128429787,0.021564793362451307,
0.0059055118110236228,0.024606299212598427,
0.006387239012842977,0.027647805062745546,
0.0077852658033961868,0.030391587128862925,
0.0099627435797984918,0.032569064905265233,
0.012706525645915871,0.033967091695818442,
0*
4,1,19,
-0.015748031496062995,0.034448818897637797,
-0.012706525645915873,0.033967091695818442,
-0.0099627435797984935,0.032569064905265233,
-0.0077852658033961877,0.030391587128862928,
-0.0063872390128429787,0.027647805062745546,
-0.0059055118110236228,0.024606299212598427,
-0.006387239012842977,0.021564793362451307,
-0.0077852658033961877,0.018821011296333928,
-0.0099627435797984918,0.016643533519931621,
-0.012706525645915873,0.015245506729378409,
-0.015748031496062992,0.014763779527559057,
-0.018789537346210118,0.015245506729378409,
-0.02153331941232749,0.016643533519931621,
-0.0237107971887298,0.018821011296333925,
-0.025108823979283011,0.021564793362451307,
-0.025590551181102365,0.024606299212598427,
-0.025108823979283011,0.027647805062745546,
-0.0237107971887298,0.030391587128862925,
-0.021533319412327497,0.032569064905265233,
-0.018789537346210118,0.033967091695818442,
0*
4,1,19,
-0.015748031496062995,-0.014763779527559057,
-0.012706525645915873,-0.015245506729378409,
-0.0099627435797984935,-0.016643533519931621,
-0.0077852658033961877,-0.018821011296333928,
-0.0063872390128429787,-0.021564793362451307,
-0.0059055118110236228,-0.024606299212598427,
-0.006387239012842977,-0.027647805062745546,
-0.0077852658033961877,-0.030391587128862925,
-0.0099627435797984918,-0.032569064905265233,
-0.012706525645915873,-0.033967091695818442,
-0.015748031496062992,-0.034448818897637797,
-0.018789537346210118,-0.033967091695818442,
-0.02153331941232749,-0.032569064905265233,
-0.0237107971887298,-0.030391587128862928,
-0.025108823979283011,-0.027647805062745546,
-0.025590551181102365,-0.024606299212598427,
-0.025108823979283011,-0.021564793362451307,
-0.0237107971887298,-0.018821011296333928,
-0.021533319412327497,-0.016643533519931621,
-0.018789537346210118,-0.015245506729378409,
0*
4,1,19,
0.015748031496062995,-0.014763779527559057,
0.018789537346210115,-0.015245506729378409,
0.02153331941232749,-0.016643533519931621,
0.0237107971887298,-0.018821011296333928,
0.025108823979283011,-0.021564793362451307,
0.025590551181102365,-0.024606299212598427,
0.025108823979283011,-0.027647805062745546,
0.0237107971887298,-0.030391587128862925,
0.021533319412327497,-0.032569064905265233,
0.018789537346210115,-0.033967091695818442,
0.015748031496062995,-0.034448818897637797,
0.012706525645915871,-0.033967091695818442,
0.009962743579798497,-0.032569064905265233,
0.0077852658033961885,-0.030391587128862928,
0.0063872390128429787,-0.027647805062745546,
0.0059055118110236228,-0.024606299212598427,
0.006387239012842977,-0.021564793362451307,
0.0077852658033961868,-0.018821011296333928,
0.0099627435797984918,-0.016643533519931621,
0.012706525645915871,-0.015245506729378409,
0*
4,1,3,
0.015748031496062995,0.034448818897637797,
0.015748031496062995,0.014763779527559057,
-0.015748031496062995,0.014763779527559057,
-0.015748031496062995,0.034448818897637797,
0*
4,1,3,
-0.025590551181102365,0.024606299212598427,
-0.0059055118110236228,0.024606299212598427,
-0.0059055118110236228,-0.024606299212598427,
-0.025590551181102365,-0.024606299212598427,
0*
4,1,3,
-0.015748031496062995,-0.034448818897637797,
-0.015748031496062995,-0.014763779527559057,
0.015748031496062995,-0.014763779527559057,
0.015748031496062995,-0.034448818897637797,
0*
4,1,3,
0.025590551181102365,-0.024606299212598427,
0.0059055118110236228,-0.024606299212598427,
0.0059055118110236228,0.024606299212598427,
0.025590551181102365,0.024606299212598427,
0*%
%AMRoundRect1*
4,1,4,
0.07874015748031496,0.11811023622047245,
0.15748031496062992,0.19685039370078741,
0.23622047244094491,0.27559055118110237,
0.31496062992125984,0.35433070866141736,
0.07874015748031496,0.11811023622047245,
0*
1,1,$1,$2,$3*
1,1,$1,$2,$3*
1,1,$1,$2,$3*
1,1,$1,$2,$3*
20,1,$1,$2,$3,$4,$5,0*
20,1,$1,$2,$3,$4,$5,0*
20,1,$1,$2,$3,$4,$5,0*
20,1,$1,$2,$3,$4,$5,0*%
%AMCOMP210*
4,1,3,
-0.015748031496062995,-0.024606299212598427,
0.015748031496062995,-0.024606299212598427,
0.015748031496062995,0.024606299212598427,
-0.015748031496062995,0.024606299212598427,
0*
4,1,19,
-0.015748031496062995,-0.014763779527559057,
-0.012706525645915873,-0.015245506729378409,
-0.0099627435797984935,-0.016643533519931621,
-0.0077852658033961877,-0.018821011296333928,
-0.0063872390128429787,-0.021564793362451307,
-0.0059055118110236228,-0.024606299212598427,
-0.006387239012842977,-0.027647805062745546,
-0.0077852658033961877,-0.030391587128862925,
-0.0099627435797984918,-0.032569064905265233,
-0.012706525645915873,-0.033967091695818442,
-0.015748031496062992,-0.034448818897637797,
-0.018789537346210118,-0.033967091695818442,
-0.02153331941232749,-0.032569064905265233,
-0.0237107971887298,-0.030391587128862928,
-0.025108823979283011,-0.027647805062745546,
-0.025590551181102365,-0.024606299212598427,
-0.025108823979283011,-0.021564793362451307,
-0.0237107971887298,-0.018821011296333928,
-0.021533319412327497,-0.016643533519931621,
-0.018789537346210118,-0.015245506729378409,
0*
4,1,19,
0.015748031496062995,-0.014763779527559057,
0.018789537346210115,-0.015245506729378409,
0.02153331941232749,-0.016643533519931621,
0.0237107971887298,-0.018821011296333928,
0.025108823979283011,-0.021564793362451307,
0.025590551181102365,-0.024606299212598427,
0.025108823979283011,-0.027647805062745546,
0.0237107971887298,-0.030391587128862925,
0.021533319412327497,-0.032569064905265233,
0.018789537346210115,-0.033967091695818442,
0.015748031496062995,-0.034448818897637797,
0.012706525645915871,-0.033967091695818442,
0.009962743579798497,-0.032569064905265233,
0.0077852658033961885,-0.030391587128862928,
0.0063872390128429787,-0.027647805062745546,
0.0059055118110236228,-0.024606299212598427,
0.006387239012842977,-0.021564793362451307,
0.0077852658033961868,-0.018821011296333928,
0.0099627435797984918,-0.016643533519931621,
0.012706525645915871,-0.015245506729378409,
0*
4,1,19,
0.015748031496062995,0.034448818897637797,
0.018789537346210115,0.033967091695818442,
0.02153331941232749,0.032569064905265233,
0.0237107971887298,0.030391587128862928,
0.025108823979283011,0.027647805062745546,
0.025590551181102365,0.024606299212598427,
0.025108823979283011,0.021564793362451307,
0.0237107971887298,0.018821011296333928,
0.021533319412327497,0.016643533519931621,
0.018789537346210115,0.015245506729378409,
0.015748031496062995,0.014763779527559057,
0.012706525645915871,0.015245506729378409,
0.009962743579798497,0.016643533519931621,
0.0077852658033961885,0.018821011296333925,
0.0063872390128429787,0.021564793362451307,
0.0059055118110236228,0.024606299212598427,
0.006387239012842977,0.027647805062745546,
0.0077852658033961868,0.030391587128862925,
0.0099627435797984918,0.032569064905265233,
0.012706525645915871,0.033967091695818442,
0*
4,1,19,
-0.015748031496062995,0.034448818897637797,
-0.012706525645915873,0.033967091695818442,
-0.0099627435797984935,0.032569064905265233,
-0.0077852658033961877,0.030391587128862928,
-0.0063872390128429787,0.027647805062745546,
-0.0059055118110236228,0.024606299212598427,
-0.006387239012842977,0.021564793362451307,
-0.0077852658033961877,0.018821011296333928,
-0.0099627435797984918,0.016643533519931621,
-0.012706525645915873,0.015245506729378409,
-0.015748031496062992,0.014763779527559057,
-0.018789537346210118,0.015245506729378409,
-0.02153331941232749,0.016643533519931621,
-0.0237107971887298,0.018821011296333925,
-0.025108823979283011,0.021564793362451307,
-0.025590551181102365,0.024606299212598427,
-0.025108823979283011,0.027647805062745546,
-0.0237107971887298,0.030391587128862925,
-0.021533319412327497,0.032569064905265233,
-0.018789537346210118,0.033967091695818442,
0*
4,1,3,
-0.015748031496062995,-0.034448818897637797,
-0.015748031496062995,-0.014763779527559057,
0.015748031496062995,-0.014763779527559057,
0.015748031496062995,-0.034448818897637797,
0*
4,1,3,
0.025590551181102365,-0.024606299212598427,
0.0059055118110236228,-0.024606299212598427,
0.0059055118110236228,0.024606299212598427,
0.025590551181102365,0.024606299212598427,
0*
4,1,3,
0.015748031496062995,0.034448818897637797,
0.015748031496062995,0.014763779527559057,
-0.015748031496062995,0.014763779527559057,
-0.015748031496062995,0.034448818897637797,
0*
4,1,3,
-0.025590551181102365,0.024606299212598427,
-0.0059055118110236228,0.024606299212598427,
-0.0059055118110236228,-0.024606299212598427,
-0.025590551181102365,-0.024606299212598427,
0*%
%AMCOMP220*
4,1,3,
0.015748031496062995,0.024606299212598427,
-0.015748031496062995,0.024606299212598427,
-0.015748031496062995,-0.024606299212598427,
0.015748031496062995,-0.024606299212598427,
0*
4,1,19,
0.015748031496062995,0.034448818897637797,
0.018789537346210115,0.033967091695818442,
0.02153331941232749,0.032569064905265233,
0.0237107971887298,0.030391587128862928,
0.025108823979283011,0.027647805062745546,
0.025590551181102365,0.024606299212598427,
0.025108823979283011,0.021564793362451307,
0.0237107971887298,0.018821011296333928,
0.021533319412327497,0.016643533519931621,
0.018789537346210115,0.015245506729378409,
0.015748031496062995,0.014763779527559057,
0.012706525645915871,0.015245506729378409,
0.009962743579798497,0.016643533519931621,
0.0077852658033961885,0.018821011296333925,
0.0063872390128429787,0.021564793362451307,
0.0059055118110236228,0.024606299212598427,
0.006387239012842977,0.027647805062745546,
0.0077852658033961868,0.030391587128862925,
0.0099627435797984918,0.032569064905265233,
0.012706525645915871,0.033967091695818442,
0*
4,1,19,
-0.015748031496062995,0.034448818897637797,
-0.012706525645915873,0.033967091695818442,
-0.0099627435797984935,0.032569064905265233,
-0.0077852658033961877,0.030391587128862928,
-0.0063872390128429787,0.027647805062745546,
-0.0059055118110236228,0.024606299212598427,
-0.006387239012842977,0.021564793362451307,
-0.0077852658033961877,0.018821011296333928,
-0.0099627435797984918,0.016643533519931621,
-0.012706525645915873,0.015245506729378409,
-0.015748031496062992,0.014763779527559057,
-0.018789537346210118,0.015245506729378409,
-0.02153331941232749,0.016643533519931621,
-0.0237107971887298,0.018821011296333925,
-0.025108823979283011,0.021564793362451307,
-0.025590551181102365,0.024606299212598427,
-0.025108823979283011,0.027647805062745546,
-0.0237107971887298,0.030391587128862925,
-0.021533319412327497,0.032569064905265233,
-0.018789537346210118,0.033967091695818442,
0*
4,1,19,
-0.015748031496062995,-0.014763779527559057,
-0.012706525645915873,-0.015245506729378409,
-0.0099627435797984935,-0.016643533519931621,
-0.0077852658033961877,-0.018821011296333928,
-0.0063872390128429787,-0.021564793362451307,
-0.0059055118110236228,-0.024606299212598427,
-0.006387239012842977,-0.027647805062745546,
-0.0077852658033961877,-0.030391587128862925,
-0.0099627435797984918,-0.032569064905265233,
-0.012706525645915873,-0.033967091695818442,
-0.015748031496062992,-0.034448818897637797,
-0.018789537346210118,-0.033967091695818442,
-0.02153331941232749,-0.032569064905265233,
-0.0237107971887298,-0.030391587128862928,
-0.025108823979283011,-0.027647805062745546,
-0.025590551181102365,-0.024606299212598427,
-0.025108823979283011,-0.021564793362451307,
-0.0237107971887298,-0.018821011296333928,
-0.021533319412327497,-0.016643533519931621,
-0.018789537346210118,-0.015245506729378409,
0*
4,1,19,
0.015748031496062995,-0.014763779527559057,
0.018789537346210115,-0.015245506729378409,
0.02153331941232749,-0.016643533519931621,
0.0237107971887298,-0.018821011296333928,
0.025108823979283011,-0.021564793362451307,
0.025590551181102365,-0.024606299212598427,
0.025108823979283011,-0.027647805062745546,
0.0237107971887298,-0.030391587128862925,
0.021533319412327497,-0.032569064905265233,
0.018789537346210115,-0.033967091695818442,
0.015748031496062995,-0.034448818897637797,
0.012706525645915871,-0.033967091695818442,
0.009962743579798497,-0.032569064905265233,
0.0077852658033961885,-0.030391587128862928,
0.0063872390128429787,-0.027647805062745546,
0.0059055118110236228,-0.024606299212598427,
0.006387239012842977,-0.021564793362451307,
0.0077852658033961868,-0.018821011296333928,
0.0099627435797984918,-0.016643533519931621,
0.012706525645915871,-0.015245506729378409,
0*
4,1,3,
0.015748031496062995,0.034448818897637797,
0.015748031496062995,0.014763779527559057,
-0.015748031496062995,0.014763779527559057,
-0.015748031496062995,0.034448818897637797,
0*
4,1,3,
-0.025590551181102365,0.024606299212598427,
-0.0059055118110236228,0.024606299212598427,
-0.0059055118110236228,-0.024606299212598427,
-0.025590551181102365,-0.024606299212598427,
0*
4,1,3,
-0.015748031496062995,-0.034448818897637797,
-0.015748031496062995,-0.014763779527559057,
0.015748031496062995,-0.014763779527559057,
0.015748031496062995,-0.034448818897637797,
0*
4,1,3,
0.025590551181102365,-0.024606299212598427,
0.0059055118110236228,-0.024606299212598427,
0.0059055118110236228,0.024606299212598427,
0.025590551181102365,0.024606299212598427,
0*%
%AMRoundRect0*
4,1,4,
0.07874015748031496,0.11811023622047245,
0.15748031496062992,0.19685039370078741,
0.23622047244094491,0.27559055118110237,
0.31496062992125984,0.35433070866141736,
0.07874015748031496,0.11811023622047245,
0*
1,1,$1,$2,$3*
1,1,$1,$2,$3*
1,1,$1,$2,$3*
1,1,$1,$2,$3*
20,1,$1,$2,$3,$4,$5,0*
20,1,$1,$2,$3,$4,$5,0*
20,1,$1,$2,$3,$4,$5,0*
20,1,$1,$2,$3,$4,$5,0*%
%AMCOMP290*
4,1,3,
-0.015748031496062995,-0.024606299212598427,
0.015748031496062995,-0.024606299212598427,
0.015748031496062995,0.024606299212598427,
-0.015748031496062995,0.024606299212598427,
0*
4,1,19,
-0.015748031496062995,-0.014763779527559057,
-0.012706525645915873,-0.015245506729378409,
-0.0099627435797984935,-0.016643533519931621,
-0.0077852658033961877,-0.018821011296333928,
-0.0063872390128429787,-0.021564793362451307,
-0.0059055118110236228,-0.024606299212598427,
-0.006387239012842977,-0.027647805062745546,
-0.0077852658033961877,-0.030391587128862925,
-0.0099627435797984918,-0.032569064905265233,
-0.012706525645915873,-0.033967091695818442,
-0.015748031496062992,-0.034448818897637797,
-0.018789537346210118,-0.033967091695818442,
-0.02153331941232749,-0.032569064905265233,
-0.0237107971887298,-0.030391587128862928,
-0.025108823979283011,-0.027647805062745546,
-0.025590551181102365,-0.024606299212598427,
-0.025108823979283011,-0.021564793362451307,
-0.0237107971887298,-0.018821011296333928,
-0.021533319412327497,-0.016643533519931621,
-0.018789537346210118,-0.015245506729378409,
0*
4,1,19,
0.015748031496062995,-0.014763779527559057,
0.018789537346210115,-0.015245506729378409,
0.02153331941232749,-0.016643533519931621,
0.0237107971887298,-0.018821011296333928,
0.025108823979283011,-0.021564793362451307,
0.025590551181102365,-0.024606299212598427,
0.025108823979283011,-0.027647805062745546,
0.0237107971887298,-0.030391587128862925,
0.021533319412327497,-0.032569064905265233,
0.018789537346210115,-0.033967091695818442,
0.015748031496062995,-0.034448818897637797,
0.012706525645915871,-0.033967091695818442,
0.009962743579798497,-0.032569064905265233,
0.0077852658033961885,-0.030391587128862928,
0.0063872390128429787,-0.027647805062745546,
0.0059055118110236228,-0.024606299212598427,
0.006387239012842977,-0.021564793362451307,
0.0077852658033961868,-0.018821011296333928,
0.0099627435797984918,-0.016643533519931621,
0.012706525645915871,-0.015245506729378409,
0*
4,1,19,
0.015748031496062995,0.034448818897637797,
0.018789537346210115,0.033967091695818442,
0.02153331941232749,0.032569064905265233,
0.0237107971887298,0.030391587128862928,
0.025108823979283011,0.027647805062745546,
0.025590551181102365,0.024606299212598427,
0.025108823979283011,0.021564793362451307,
0.0237107971887298,0.018821011296333928,
0.021533319412327497,0.016643533519931621,
0.018789537346210115,0.015245506729378409,
0.015748031496062995,0.014763779527559057,
0.012706525645915871,0.015245506729378409,
0.009962743579798497,0.016643533519931621,
0.0077852658033961885,0.018821011296333925,
0.0063872390128429787,0.021564793362451307,
0.0059055118110236228,0.024606299212598427,
0.006387239012842977,0.027647805062745546,
0.0077852658033961868,0.030391587128862925,
0.0099627435797984918,0.032569064905265233,
0.012706525645915871,0.033967091695818442,
0*
4,1,19,
-0.015748031496062995,0.034448818897637797,
-0.012706525645915873,0.033967091695818442,
-0.0099627435797984935,0.032569064905265233,
-0.0077852658033961877,0.030391587128862928,
-0.0063872390128429787,0.027647805062745546,
-0.0059055118110236228,0.024606299212598427,
-0.006387239012842977,0.021564793362451307,
-0.0077852658033961877,0.018821011296333928,
-0.0099627435797984918,0.016643533519931621,
-0.012706525645915873,0.015245506729378409,
-0.015748031496062992,0.014763779527559057,
-0.018789537346210118,0.015245506729378409,
-0.02153331941232749,0.016643533519931621,
-0.0237107971887298,0.018821011296333925,
-0.025108823979283011,0.021564793362451307,
-0.025590551181102365,0.024606299212598427,
-0.025108823979283011,0.027647805062745546,
-0.0237107971887298,0.030391587128862925,
-0.021533319412327497,0.032569064905265233,
-0.018789537346210118,0.033967091695818442,
0*
4,1,3,
-0.015748031496062995,-0.034448818897637797,
-0.015748031496062995,-0.014763779527559057,
0.015748031496062995,-0.014763779527559057,
0.015748031496062995,-0.034448818897637797,
0*
4,1,3,
0.025590551181102365,-0.024606299212598427,
0.0059055118110236228,-0.024606299212598427,
0.0059055118110236228,0.024606299212598427,
0.025590551181102365,0.024606299212598427,
0*
4,1,3,
0.015748031496062995,0.034448818897637797,
0.015748031496062995,0.014763779527559057,
-0.015748031496062995,0.014763779527559057,
-0.015748031496062995,0.034448818897637797,
0*
4,1,3,
-0.025590551181102365,0.024606299212598427,
-0.0059055118110236228,0.024606299212598427,
-0.0059055118110236228,-0.024606299212598427,
-0.025590551181102365,-0.024606299212598427,
0*%
%AMCOMP300*
4,1,3,
0.015748031496062995,0.024606299212598427,
-0.015748031496062995,0.024606299212598427,
-0.015748031496062995,-0.024606299212598427,
0.015748031496062995,-0.024606299212598427,
0*
4,1,19,
0.015748031496062995,0.034448818897637797,
0.018789537346210115,0.033967091695818442,
0.02153331941232749,0.032569064905265233,
0.0237107971887298,0.030391587128862928,
0.025108823979283011,0.027647805062745546,
0.025590551181102365,0.024606299212598427,
0.025108823979283011,0.021564793362451307,
0.0237107971887298,0.018821011296333928,
0.021533319412327497,0.016643533519931621,
0.018789537346210115,0.015245506729378409,
0.015748031496062995,0.014763779527559057,
0.012706525645915871,0.015245506729378409,
0.009962743579798497,0.016643533519931621,
0.0077852658033961885,0.018821011296333925,
0.0063872390128429787,0.021564793362451307,
0.0059055118110236228,0.024606299212598427,
0.006387239012842977,0.027647805062745546,
0.0077852658033961868,0.030391587128862925,
0.0099627435797984918,0.032569064905265233,
0.012706525645915871,0.033967091695818442,
0*
4,1,19,
-0.015748031496062995,0.034448818897637797,
-0.012706525645915873,0.033967091695818442,
-0.0099627435797984935,0.032569064905265233,
-0.0077852658033961877,0.030391587128862928,
-0.0063872390128429787,0.027647805062745546,
-0.0059055118110236228,0.024606299212598427,
-0.006387239012842977,0.021564793362451307,
-0.0077852658033961877,0.018821011296333928,
-0.0099627435797984918,0.016643533519931621,
-0.012706525645915873,0.015245506729378409,
-0.015748031496062992,0.014763779527559057,
-0.018789537346210118,0.015245506729378409,
-0.02153331941232749,0.016643533519931621,
-0.0237107971887298,0.018821011296333925,
-0.025108823979283011,0.021564793362451307,
-0.025590551181102365,0.024606299212598427,
-0.025108823979283011,0.027647805062745546,
-0.0237107971887298,0.030391587128862925,
-0.021533319412327497,0.032569064905265233,
-0.018789537346210118,0.033967091695818442,
0*
4,1,19,
-0.015748031496062995,-0.014763779527559057,
-0.012706525645915873,-0.015245506729378409,
-0.0099627435797984935,-0.016643533519931621,
-0.0077852658033961877,-0.018821011296333928,
-0.0063872390128429787,-0.021564793362451307,
-0.0059055118110236228,-0.024606299212598427,
-0.006387239012842977,-0.027647805062745546,
-0.0077852658033961877,-0.030391587128862925,
-0.0099627435797984918,-0.032569064905265233,
-0.012706525645915873,-0.033967091695818442,
-0.015748031496062992,-0.034448818897637797,
-0.018789537346210118,-0.033967091695818442,
-0.02153331941232749,-0.032569064905265233,
-0.0237107971887298,-0.030391587128862928,
-0.025108823979283011,-0.027647805062745546,
-0.025590551181102365,-0.024606299212598427,
-0.025108823979283011,-0.021564793362451307,
-0.0237107971887298,-0.018821011296333928,
-0.021533319412327497,-0.016643533519931621,
-0.018789537346210118,-0.015245506729378409,
0*
4,1,19,
0.015748031496062995,-0.014763779527559057,
0.018789537346210115,-0.015245506729378409,
0.02153331941232749,-0.016643533519931621,
0.0237107971887298,-0.018821011296333928,
0.025108823979283011,-0.021564793362451307,
0.025590551181102365,-0.024606299212598427,
0.025108823979283011,-0.027647805062745546,
0.0237107971887298,-0.030391587128862925,
0.021533319412327497,-0.032569064905265233,
0.018789537346210115,-0.033967091695818442,
0.015748031496062995,-0.034448818897637797,
0.012706525645915871,-0.033967091695818442,
0.009962743579798497,-0.032569064905265233,
0.0077852658033961885,-0.030391587128862928,
0.0063872390128429787,-0.027647805062745546,
0.0059055118110236228,-0.024606299212598427,
0.006387239012842977,-0.021564793362451307,
0.0077852658033961868,-0.018821011296333928,
0.0099627435797984918,-0.016643533519931621,
0.012706525645915871,-0.015245506729378409,
0*
4,1,3,
0.015748031496062995,0.034448818897637797,
0.015748031496062995,0.014763779527559057,
-0.015748031496062995,0.014763779527559057,
-0.015748031496062995,0.034448818897637797,
0*
4,1,3,
-0.025590551181102365,0.024606299212598427,
-0.0059055118110236228,0.024606299212598427,
-0.0059055118110236228,-0.024606299212598427,
-0.025590551181102365,-0.024606299212598427,
0*
4,1,3,
-0.015748031496062995,-0.034448818897637797,
-0.015748031496062995,-0.014763779527559057,
0.015748031496062995,-0.014763779527559057,
0.015748031496062995,-0.034448818897637797,
0*
4,1,3,
0.025590551181102365,-0.024606299212598427,
0.0059055118110236228,-0.024606299212598427,
0.0059055118110236228,0.024606299212598427,
0.025590551181102365,0.024606299212598427,
0*%
%AMRoundRect1*
4,1,4,
0.07874015748031496,0.11811023622047245,
0.15748031496062992,0.19685039370078741,
0.23622047244094491,0.27559055118110237,
0.31496062992125984,0.35433070866141736,
0.07874015748031496,0.11811023622047245,
0*
1,1,$1,$2,$3*
1,1,$1,$2,$3*
1,1,$1,$2,$3*
1,1,$1,$2,$3*
20,1,$1,$2,$3,$4,$5,0*
20,1,$1,$2,$3,$4,$5,0*
20,1,$1,$2,$3,$4,$5,0*
20,1,$1,$2,$3,$4,$5,0*%
%AMCOMP370*
4,1,3,
-0.015748031496062995,-0.024606299212598427,
0.015748031496062995,-0.024606299212598427,
0.015748031496062995,0.024606299212598427,
-0.015748031496062995,0.024606299212598427,
0*
4,1,19,
-0.015748031496062995,-0.014763779527559057,
-0.012706525645915873,-0.015245506729378409,
-0.0099627435797984935,-0.016643533519931621,
-0.0077852658033961877,-0.018821011296333928,
-0.0063872390128429787,-0.021564793362451307,
-0.0059055118110236228,-0.024606299212598427,
-0.006387239012842977,-0.027647805062745546,
-0.0077852658033961877,-0.030391587128862925,
-0.0099627435797984918,-0.032569064905265233,
-0.012706525645915873,-0.033967091695818442,
-0.015748031496062992,-0.034448818897637797,
-0.018789537346210118,-0.033967091695818442,
-0.02153331941232749,-0.032569064905265233,
-0.0237107971887298,-0.030391587128862928,
-0.025108823979283011,-0.027647805062745546,
-0.025590551181102365,-0.024606299212598427,
-0.025108823979283011,-0.021564793362451307,
-0.0237107971887298,-0.018821011296333928,
-0.021533319412327497,-0.016643533519931621,
-0.018789537346210118,-0.015245506729378409,
0*
4,1,19,
0.015748031496062995,-0.014763779527559057,
0.018789537346210115,-0.015245506729378409,
0.02153331941232749,-0.016643533519931621,
0.0237107971887298,-0.018821011296333928,
0.025108823979283011,-0.021564793362451307,
0.025590551181102365,-0.024606299212598427,
0.025108823979283011,-0.027647805062745546,
0.0237107971887298,-0.030391587128862925,
0.021533319412327497,-0.032569064905265233,
0.018789537346210115,-0.033967091695818442,
0.015748031496062995,-0.034448818897637797,
0.012706525645915871,-0.033967091695818442,
0.009962743579798497,-0.032569064905265233,
0.0077852658033961885,-0.030391587128862928,
0.0063872390128429787,-0.027647805062745546,
0.0059055118110236228,-0.024606299212598427,
0.006387239012842977,-0.021564793362451307,
0.0077852658033961868,-0.018821011296333928,
0.0099627435797984918,-0.016643533519931621,
0.012706525645915871,-0.015245506729378409,
0*
4,1,19,
0.015748031496062995,0.034448818897637797,
0.018789537346210115,0.033967091695818442,
0.02153331941232749,0.032569064905265233,
0.0237107971887298,0.030391587128862928,
0.025108823979283011,0.027647805062745546,
0.025590551181102365,0.024606299212598427,
0.025108823979283011,0.021564793362451307,
0.0237107971887298,0.018821011296333928,
0.021533319412327497,0.016643533519931621,
0.018789537346210115,0.015245506729378409,
0.015748031496062995,0.014763779527559057,
0.012706525645915871,0.015245506729378409,
0.009962743579798497,0.016643533519931621,
0.0077852658033961885,0.018821011296333925,
0.0063872390128429787,0.021564793362451307,
0.0059055118110236228,0.024606299212598427,
0.006387239012842977,0.027647805062745546,
0.0077852658033961868,0.030391587128862925,
0.0099627435797984918,0.032569064905265233,
0.012706525645915871,0.033967091695818442,
0*
4,1,19,
-0.015748031496062995,0.034448818897637797,
-0.012706525645915873,0.033967091695818442,
-0.0099627435797984935,0.032569064905265233,
-0.0077852658033961877,0.030391587128862928,
-0.0063872390128429787,0.027647805062745546,
-0.0059055118110236228,0.024606299212598427,
-0.006387239012842977,0.021564793362451307,
-0.0077852658033961877,0.018821011296333928,
-0.0099627435797984918,0.016643533519931621,
-0.012706525645915873,0.015245506729378409,
-0.015748031496062992,0.014763779527559057,
-0.018789537346210118,0.015245506729378409,
-0.02153331941232749,0.016643533519931621,
-0.0237107971887298,0.018821011296333925,
-0.025108823979283011,0.021564793362451307,
-0.025590551181102365,0.024606299212598427,
-0.025108823979283011,0.027647805062745546,
-0.0237107971887298,0.030391587128862925,
-0.021533319412327497,0.032569064905265233,
-0.018789537346210118,0.033967091695818442,
0*
4,1,3,
-0.015748031496062995,-0.034448818897637797,
-0.015748031496062995,-0.014763779527559057,
0.015748031496062995,-0.014763779527559057,
0.015748031496062995,-0.034448818897637797,
0*
4,1,3,
0.025590551181102365,-0.024606299212598427,
0.0059055118110236228,-0.024606299212598427,
0.0059055118110236228,0.024606299212598427,
0.025590551181102365,0.024606299212598427,
0*
4,1,3,
0.015748031496062995,0.034448818897637797,
0.015748031496062995,0.014763779527559057,
-0.015748031496062995,0.014763779527559057,
-0.015748031496062995,0.034448818897637797,
0*
4,1,3,
-0.025590551181102365,0.024606299212598427,
-0.0059055118110236228,0.024606299212598427,
-0.0059055118110236228,-0.024606299212598427,
-0.025590551181102365,-0.024606299212598427,
0*%
%AMCOMP380*
4,1,3,
0.015748031496062995,0.024606299212598427,
-0.015748031496062995,0.024606299212598427,
-0.015748031496062995,-0.024606299212598427,
0.015748031496062995,-0.024606299212598427,
0*
4,1,19,
0.015748031496062995,0.034448818897637797,
0.018789537346210115,0.033967091695818442,
0.02153331941232749,0.032569064905265233,
0.0237107971887298,0.030391587128862928,
0.025108823979283011,0.027647805062745546,
0.025590551181102365,0.024606299212598427,
0.025108823979283011,0.021564793362451307,
0.0237107971887298,0.018821011296333928,
0.021533319412327497,0.016643533519931621,
0.018789537346210115,0.015245506729378409,
0.015748031496062995,0.014763779527559057,
0.012706525645915871,0.015245506729378409,
0.009962743579798497,0.016643533519931621,
0.0077852658033961885,0.018821011296333925,
0.0063872390128429787,0.021564793362451307,
0.0059055118110236228,0.024606299212598427,
0.006387239012842977,0.027647805062745546,
0.0077852658033961868,0.030391587128862925,
0.0099627435797984918,0.032569064905265233,
0.012706525645915871,0.033967091695818442,
0*
4,1,19,
-0.015748031496062995,0.034448818897637797,
-0.012706525645915873,0.033967091695818442,
-0.0099627435797984935,0.032569064905265233,
-0.0077852658033961877,0.030391587128862928,
-0.0063872390128429787,0.027647805062745546,
-0.0059055118110236228,0.024606299212598427,
-0.006387239012842977,0.021564793362451307,
-0.0077852658033961877,0.018821011296333928,
-0.0099627435797984918,0.016643533519931621,
-0.012706525645915873,0.015245506729378409,
-0.015748031496062992,0.014763779527559057,
-0.018789537346210118,0.015245506729378409,
-0.02153331941232749,0.016643533519931621,
-0.0237107971887298,0.018821011296333925,
-0.025108823979283011,0.021564793362451307,
-0.025590551181102365,0.024606299212598427,
-0.025108823979283011,0.027647805062745546,
-0.0237107971887298,0.030391587128862925,
-0.021533319412327497,0.032569064905265233,
-0.018789537346210118,0.033967091695818442,
0*
4,1,19,
-0.015748031496062995,-0.014763779527559057,
-0.012706525645915873,-0.015245506729378409,
-0.0099627435797984935,-0.016643533519931621,
-0.0077852658033961877,-0.018821011296333928,
-0.0063872390128429787,-0.021564793362451307,
-0.0059055118110236228,-0.024606299212598427,
-0.006387239012842977,-0.027647805062745546,
-0.0077852658033961877,-0.030391587128862925,
-0.0099627435797984918,-0.032569064905265233,
-0.012706525645915873,-0.033967091695818442,
-0.015748031496062992,-0.034448818897637797,
-0.018789537346210118,-0.033967091695818442,
-0.02153331941232749,-0.032569064905265233,
-0.0237107971887298,-0.030391587128862928,
-0.025108823979283011,-0.027647805062745546,
-0.025590551181102365,-0.024606299212598427,
-0.025108823979283011,-0.021564793362451307,
-0.0237107971887298,-0.018821011296333928,
-0.021533319412327497,-0.016643533519931621,
-0.018789537346210118,-0.015245506729378409,
0*
4,1,19,
0.015748031496062995,-0.014763779527559057,
0.018789537346210115,-0.015245506729378409,
0.02153331941232749,-0.016643533519931621,
0.0237107971887298,-0.018821011296333928,
0.025108823979283011,-0.021564793362451307,
0.025590551181102365,-0.024606299212598427,
0.025108823979283011,-0.027647805062745546,
0.0237107971887298,-0.030391587128862925,
0.021533319412327497,-0.032569064905265233,
0.018789537346210115,-0.033967091695818442,
0.015748031496062995,-0.034448818897637797,
0.012706525645915871,-0.033967091695818442,
0.009962743579798497,-0.032569064905265233,
0.0077852658033961885,-0.030391587128862928,
0.0063872390128429787,-0.027647805062745546,
0.0059055118110236228,-0.024606299212598427,
0.006387239012842977,-0.021564793362451307,
0.0077852658033961868,-0.018821011296333928,
0.0099627435797984918,-0.016643533519931621,
0.012706525645915871,-0.015245506729378409,
0*
4,1,3,
0.015748031496062995,0.034448818897637797,
0.015748031496062995,0.014763779527559057,
-0.015748031496062995,0.014763779527559057,
-0.015748031496062995,0.034448818897637797,
0*
4,1,3,
-0.025590551181102365,0.024606299212598427,
-0.0059055118110236228,0.024606299212598427,
-0.0059055118110236228,-0.024606299212598427,
-0.025590551181102365,-0.024606299212598427,
0*
4,1,3,
-0.015748031496062995,-0.034448818897637797,
-0.015748031496062995,-0.014763779527559057,
0.015748031496062995,-0.014763779527559057,
0.015748031496062995,-0.034448818897637797,
0*
4,1,3,
0.025590551181102365,-0.024606299212598427,
0.0059055118110236228,-0.024606299212598427,
0.0059055118110236228,0.024606299212598427,
0.025590551181102365,0.024606299212598427,
0*%
%AMRoundRect0*
4,1,4,
0.07874015748031496,0.11811023622047245,
0.15748031496062992,0.19685039370078741,
0.23622047244094491,0.27559055118110237,
0.31496062992125984,0.35433070866141736,
0.07874015748031496,0.11811023622047245,
0*
1,1,$1,$2,$3*
1,1,$1,$2,$3*
1,1,$1,$2,$3*
1,1,$1,$2,$3*
20,1,$1,$2,$3,$4,$5,0*
20,1,$1,$2,$3,$4,$5,0*
20,1,$1,$2,$3,$4,$5,0*
20,1,$1,$2,$3,$4,$5,0*%
%AMCOMP450*
4,1,3,
-0.015748031496062995,-0.024606299212598427,
0.015748031496062995,-0.024606299212598427,
0.015748031496062995,0.024606299212598427,
-0.015748031496062995,0.024606299212598427,
0*
4,1,19,
-0.015748031496062995,-0.014763779527559057,
-0.012706525645915873,-0.015245506729378409,
-0.0099627435797984935,-0.016643533519931621,
-0.0077852658033961877,-0.018821011296333928,
-0.0063872390128429787,-0.021564793362451307,
-0.0059055118110236228,-0.024606299212598427,
-0.006387239012842977,-0.027647805062745546,
-0.0077852658033961877,-0.030391587128862925,
-0.0099627435797984918,-0.032569064905265233,
-0.012706525645915873,-0.033967091695818442,
-0.015748031496062992,-0.034448818897637797,
-0.018789537346210118,-0.033967091695818442,
-0.02153331941232749,-0.032569064905265233,
-0.0237107971887298,-0.030391587128862928,
-0.025108823979283011,-0.027647805062745546,
-0.025590551181102365,-0.024606299212598427,
-0.025108823979283011,-0.021564793362451307,
-0.0237107971887298,-0.018821011296333928,
-0.021533319412327497,-0.016643533519931621,
-0.018789537346210118,-0.015245506729378409,
0*
4,1,19,
0.015748031496062995,-0.014763779527559057,
0.018789537346210115,-0.015245506729378409,
0.02153331941232749,-0.016643533519931621,
0.0237107971887298,-0.018821011296333928,
0.025108823979283011,-0.021564793362451307,
0.025590551181102365,-0.024606299212598427,
0.025108823979283011,-0.027647805062745546,
0.0237107971887298,-0.030391587128862925,
0.021533319412327497,-0.032569064905265233,
0.018789537346210115,-0.033967091695818442,
0.015748031496062995,-0.034448818897637797,
0.012706525645915871,-0.033967091695818442,
0.009962743579798497,-0.032569064905265233,
0.0077852658033961885,-0.030391587128862928,
0.0063872390128429787,-0.027647805062745546,
0.0059055118110236228,-0.024606299212598427,
0.006387239012842977,-0.021564793362451307,
0.0077852658033961868,-0.018821011296333928,
0.0099627435797984918,-0.016643533519931621,
0.012706525645915871,-0.015245506729378409,
0*
4,1,19,
0.015748031496062995,0.034448818897637797,
0.018789537346210115,0.033967091695818442,
0.02153331941232749,0.032569064905265233,
0.0237107971887298,0.030391587128862928,
0.025108823979283011,0.027647805062745546,
0.025590551181102365,0.024606299212598427,
0.025108823979283011,0.021564793362451307,
0.0237107971887298,0.018821011296333928,
0.021533319412327497,0.016643533519931621,
0.018789537346210115,0.015245506729378409,
0.015748031496062995,0.014763779527559057,
0.012706525645915871,0.015245506729378409,
0.009962743579798497,0.016643533519931621,
0.0077852658033961885,0.018821011296333925,
0.0063872390128429787,0.021564793362451307,
0.0059055118110236228,0.024606299212598427,
0.006387239012842977,0.027647805062745546,
0.0077852658033961868,0.030391587128862925,
0.0099627435797984918,0.032569064905265233,
0.012706525645915871,0.033967091695818442,
0*
4,1,19,
-0.015748031496062995,0.034448818897637797,
-0.012706525645915873,0.033967091695818442,
-0.0099627435797984935,0.032569064905265233,
-0.0077852658033961877,0.030391587128862928,
-0.0063872390128429787,0.027647805062745546,
-0.0059055118110236228,0.024606299212598427,
-0.006387239012842977,0.021564793362451307,
-0.0077852658033961877,0.018821011296333928,
-0.0099627435797984918,0.016643533519931621,
-0.012706525645915873,0.015245506729378409,
-0.015748031496062992,0.014763779527559057,
-0.018789537346210118,0.015245506729378409,
-0.02153331941232749,0.016643533519931621,
-0.0237107971887298,0.018821011296333925,
-0.025108823979283011,0.021564793362451307,
-0.025590551181102365,0.024606299212598427,
-0.025108823979283011,0.027647805062745546,
-0.0237107971887298,0.030391587128862925,
-0.021533319412327497,0.032569064905265233,
-0.018789537346210118,0.033967091695818442,
0*
4,1,3,
-0.015748031496062995,-0.034448818897637797,
-0.015748031496062995,-0.014763779527559057,
0.015748031496062995,-0.014763779527559057,
0.015748031496062995,-0.034448818897637797,
0*
4,1,3,
0.025590551181102365,-0.024606299212598427,
0.0059055118110236228,-0.024606299212598427,
0.0059055118110236228,0.024606299212598427,
0.025590551181102365,0.024606299212598427,
0*
4,1,3,
0.015748031496062995,0.034448818897637797,
0.015748031496062995,0.014763779527559057,
-0.015748031496062995,0.014763779527559057,
-0.015748031496062995,0.034448818897637797,
0*
4,1,3,
-0.025590551181102365,0.024606299212598427,
-0.0059055118110236228,0.024606299212598427,
-0.0059055118110236228,-0.024606299212598427,
-0.025590551181102365,-0.024606299212598427,
0*%
%AMCOMP460*
4,1,3,
0.015748031496062995,0.024606299212598427,
-0.015748031496062995,0.024606299212598427,
-0.015748031496062995,-0.024606299212598427,
0.015748031496062995,-0.024606299212598427,
0*
4,1,19,
0.015748031496062995,0.034448818897637797,
0.018789537346210115,0.033967091695818442,
0.02153331941232749,0.032569064905265233,
0.0237107971887298,0.030391587128862928,
0.025108823979283011,0.027647805062745546,
0.025590551181102365,0.024606299212598427,
0.025108823979283011,0.021564793362451307,
0.0237107971887298,0.018821011296333928,
0.021533319412327497,0.016643533519931621,
0.018789537346210115,0.015245506729378409,
0.015748031496062995,0.014763779527559057,
0.012706525645915871,0.015245506729378409,
0.009962743579798497,0.016643533519931621,
0.0077852658033961885,0.018821011296333925,
0.0063872390128429787,0.021564793362451307,
0.0059055118110236228,0.024606299212598427,
0.006387239012842977,0.027647805062745546,
0.0077852658033961868,0.030391587128862925,
0.0099627435797984918,0.032569064905265233,
0.012706525645915871,0.033967091695818442,
0*
4,1,19,
-0.015748031496062995,0.034448818897637797,
-0.012706525645915873,0.033967091695818442,
-0.0099627435797984935,0.032569064905265233,
-0.0077852658033961877,0.030391587128862928,
-0.0063872390128429787,0.027647805062745546,
-0.0059055118110236228,0.024606299212598427,
-0.006387239012842977,0.021564793362451307,
-0.0077852658033961877,0.018821011296333928,
-0.0099627435797984918,0.016643533519931621,
-0.012706525645915873,0.015245506729378409,
-0.015748031496062992,0.014763779527559057,
-0.018789537346210118,0.015245506729378409,
-0.02153331941232749,0.016643533519931621,
-0.0237107971887298,0.018821011296333925,
-0.025108823979283011,0.021564793362451307,
-0.025590551181102365,0.024606299212598427,
-0.025108823979283011,0.027647805062745546,
-0.0237107971887298,0.030391587128862925,
-0.021533319412327497,0.032569064905265233,
-0.018789537346210118,0.033967091695818442,
0*
4,1,19,
-0.015748031496062995,-0.014763779527559057,
-0.012706525645915873,-0.015245506729378409,
-0.0099627435797984935,-0.016643533519931621,
-0.0077852658033961877,-0.018821011296333928,
-0.0063872390128429787,-0.021564793362451307,
-0.0059055118110236228,-0.024606299212598427,
-0.006387239012842977,-0.027647805062745546,
-0.0077852658033961877,-0.030391587128862925,
-0.0099627435797984918,-0.032569064905265233,
-0.012706525645915873,-0.033967091695818442,
-0.015748031496062992,-0.034448818897637797,
-0.018789537346210118,-0.033967091695818442,
-0.02153331941232749,-0.032569064905265233,
-0.0237107971887298,-0.030391587128862928,
-0.025108823979283011,-0.027647805062745546,
-0.025590551181102365,-0.024606299212598427,
-0.025108823979283011,-0.021564793362451307,
-0.0237107971887298,-0.018821011296333928,
-0.021533319412327497,-0.016643533519931621,
-0.018789537346210118,-0.015245506729378409,
0*
4,1,19,
0.015748031496062995,-0.014763779527559057,
0.018789537346210115,-0.015245506729378409,
0.02153331941232749,-0.016643533519931621,
0.0237107971887298,-0.018821011296333928,
0.025108823979283011,-0.021564793362451307,
0.025590551181102365,-0.024606299212598427,
0.025108823979283011,-0.027647805062745546,
0.0237107971887298,-0.030391587128862925,
0.021533319412327497,-0.032569064905265233,
0.018789537346210115,-0.033967091695818442,
0.015748031496062995,-0.034448818897637797,
0.012706525645915871,-0.033967091695818442,
0.009962743579798497,-0.032569064905265233,
0.0077852658033961885,-0.030391587128862928,
0.0063872390128429787,-0.027647805062745546,
0.0059055118110236228,-0.024606299212598427,
0.006387239012842977,-0.021564793362451307,
0.0077852658033961868,-0.018821011296333928,
0.0099627435797984918,-0.016643533519931621,
0.012706525645915871,-0.015245506729378409,
0*
4,1,3,
0.015748031496062995,0.034448818897637797,
0.015748031496062995,0.014763779527559057,
-0.015748031496062995,0.014763779527559057,
-0.015748031496062995,0.034448818897637797,
0*
4,1,3,
-0.025590551181102365,0.024606299212598427,
-0.0059055118110236228,0.024606299212598427,
-0.0059055118110236228,-0.024606299212598427,
-0.025590551181102365,-0.024606299212598427,
0*
4,1,3,
-0.015748031496062995,-0.034448818897637797,
-0.015748031496062995,-0.014763779527559057,
0.015748031496062995,-0.014763779527559057,
0.015748031496062995,-0.034448818897637797,
0*
4,1,3,
0.025590551181102365,-0.024606299212598427,
0.0059055118110236228,-0.024606299212598427,
0.0059055118110236228,0.024606299212598427,
0.025590551181102365,0.024606299212598427,
0*%
%AMRoundRect1*
4,1,4,
0.07874015748031496,0.11811023622047245,
0.15748031496062992,0.19685039370078741,
0.23622047244094491,0.27559055118110237,
0.31496062992125984,0.35433070866141736,
0.07874015748031496,0.11811023622047245,
0*
1,1,$1,$2,$3*
1,1,$1,$2,$3*
1,1,$1,$2,$3*
1,1,$1,$2,$3*
20,1,$1,$2,$3,$4,$5,0*
20,1,$1,$2,$3,$4,$5,0*
20,1,$1,$2,$3,$4,$5,0*
20,1,$1,$2,$3,$4,$5,0*%
%AMCOMP530*
4,1,3,
-0.015748031496062995,-0.024606299212598427,
0.015748031496062995,-0.024606299212598427,
0.015748031496062995,0.024606299212598427,
-0.015748031496062995,0.024606299212598427,
0*
4,1,19,
-0.015748031496062995,-0.014763779527559057,
-0.012706525645915873,-0.015245506729378409,
-0.0099627435797984935,-0.016643533519931621,
-0.0077852658033961877,-0.018821011296333928,
-0.0063872390128429787,-0.021564793362451307,
-0.0059055118110236228,-0.024606299212598427,
-0.006387239012842977,-0.027647805062745546,
-0.0077852658033961877,-0.030391587128862925,
-0.0099627435797984918,-0.032569064905265233,
-0.012706525645915873,-0.033967091695818442,
-0.015748031496062992,-0.034448818897637797,
-0.018789537346210118,-0.033967091695818442,
-0.02153331941232749,-0.032569064905265233,
-0.0237107971887298,-0.030391587128862928,
-0.025108823979283011,-0.027647805062745546,
-0.025590551181102365,-0.024606299212598427,
-0.025108823979283011,-0.021564793362451307,
-0.0237107971887298,-0.018821011296333928,
-0.021533319412327497,-0.016643533519931621,
-0.018789537346210118,-0.015245506729378409,
0*
4,1,19,
0.015748031496062995,-0.014763779527559057,
0.018789537346210115,-0.015245506729378409,
0.02153331941232749,-0.016643533519931621,
0.0237107971887298,-0.018821011296333928,
0.025108823979283011,-0.021564793362451307,
0.025590551181102365,-0.024606299212598427,
0.025108823979283011,-0.027647805062745546,
0.0237107971887298,-0.030391587128862925,
0.021533319412327497,-0.032569064905265233,
0.018789537346210115,-0.033967091695818442,
0.015748031496062995,-0.034448818897637797,
0.012706525645915871,-0.033967091695818442,
0.009962743579798497,-0.032569064905265233,
0.0077852658033961885,-0.030391587128862928,
0.0063872390128429787,-0.027647805062745546,
0.0059055118110236228,-0.024606299212598427,
0.006387239012842977,-0.021564793362451307,
0.0077852658033961868,-0.018821011296333928,
0.0099627435797984918,-0.016643533519931621,
0.012706525645915871,-0.015245506729378409,
0*
4,1,19,
0.015748031496062995,0.034448818897637797,
0.018789537346210115,0.033967091695818442,
0.02153331941232749,0.032569064905265233,
0.0237107971887298,0.030391587128862928,
0.025108823979283011,0.027647805062745546,
0.025590551181102365,0.024606299212598427,
0.025108823979283011,0.021564793362451307,
0.0237107971887298,0.018821011296333928,
0.021533319412327497,0.016643533519931621,
0.018789537346210115,0.015245506729378409,
0.015748031496062995,0.014763779527559057,
0.012706525645915871,0.015245506729378409,
0.009962743579798497,0.016643533519931621,
0.0077852658033961885,0.018821011296333925,
0.0063872390128429787,0.021564793362451307,
0.0059055118110236228,0.024606299212598427,
0.006387239012842977,0.027647805062745546,
0.0077852658033961868,0.030391587128862925,
0.0099627435797984918,0.032569064905265233,
0.012706525645915871,0.033967091695818442,
0*
4,1,19,
-0.015748031496062995,0.034448818897637797,
-0.012706525645915873,0.033967091695818442,
-0.0099627435797984935,0.032569064905265233,
-0.0077852658033961877,0.030391587128862928,
-0.0063872390128429787,0.027647805062745546,
-0.0059055118110236228,0.024606299212598427,
-0.006387239012842977,0.021564793362451307,
-0.0077852658033961877,0.018821011296333928,
-0.0099627435797984918,0.016643533519931621,
-0.012706525645915873,0.015245506729378409,
-0.015748031496062992,0.014763779527559057,
-0.018789537346210118,0.015245506729378409,
-0.02153331941232749,0.016643533519931621,
-0.0237107971887298,0.018821011296333925,
-0.025108823979283011,0.021564793362451307,
-0.025590551181102365,0.024606299212598427,
-0.025108823979283011,0.027647805062745546,
-0.0237107971887298,0.030391587128862925,
-0.021533319412327497,0.032569064905265233,
-0.018789537346210118,0.033967091695818442,
0*
4,1,3,
-0.015748031496062995,-0.034448818897637797,
-0.015748031496062995,-0.014763779527559057,
0.015748031496062995,-0.014763779527559057,
0.015748031496062995,-0.034448818897637797,
0*
4,1,3,
0.025590551181102365,-0.024606299212598427,
0.0059055118110236228,-0.024606299212598427,
0.0059055118110236228,0.024606299212598427,
0.025590551181102365,0.024606299212598427,
0*
4,1,3,
0.015748031496062995,0.034448818897637797,
0.015748031496062995,0.014763779527559057,
-0.015748031496062995,0.014763779527559057,
-0.015748031496062995,0.034448818897637797,
0*
4,1,3,
-0.025590551181102365,0.024606299212598427,
-0.0059055118110236228,0.024606299212598427,
-0.0059055118110236228,-0.024606299212598427,
-0.025590551181102365,-0.024606299212598427,
0*%
%AMCOMP540*
4,1,3,
0.015748031496062995,0.024606299212598427,
-0.015748031496062995,0.024606299212598427,
-0.015748031496062995,-0.024606299212598427,
0.015748031496062995,-0.024606299212598427,
0*
4,1,19,
0.015748031496062995,0.034448818897637797,
0.018789537346210115,0.033967091695818442,
0.02153331941232749,0.032569064905265233,
0.0237107971887298,0.030391587128862928,
0.025108823979283011,0.027647805062745546,
0.025590551181102365,0.024606299212598427,
0.025108823979283011,0.021564793362451307,
0.0237107971887298,0.018821011296333928,
0.021533319412327497,0.016643533519931621,
0.018789537346210115,0.015245506729378409,
0.015748031496062995,0.014763779527559057,
0.012706525645915871,0.015245506729378409,
0.009962743579798497,0.016643533519931621,
0.0077852658033961885,0.018821011296333925,
0.0063872390128429787,0.021564793362451307,
0.0059055118110236228,0.024606299212598427,
0.006387239012842977,0.027647805062745546,
0.0077852658033961868,0.030391587128862925,
0.0099627435797984918,0.032569064905265233,
0.012706525645915871,0.033967091695818442,
0*
4,1,19,
-0.015748031496062995,0.034448818897637797,
-0.012706525645915873,0.033967091695818442,
-0.0099627435797984935,0.032569064905265233,
-0.0077852658033961877,0.030391587128862928,
-0.0063872390128429787,0.027647805062745546,
-0.0059055118110236228,0.024606299212598427,
-0.006387239012842977,0.021564793362451307,
-0.0077852658033961877,0.018821011296333928,
-0.0099627435797984918,0.016643533519931621,
-0.012706525645915873,0.015245506729378409,
-0.015748031496062992,0.014763779527559057,
-0.018789537346210118,0.015245506729378409,
-0.02153331941232749,0.016643533519931621,
-0.0237107971887298,0.018821011296333925,
-0.025108823979283011,0.021564793362451307,
-0.025590551181102365,0.024606299212598427,
-0.025108823979283011,0.027647805062745546,
-0.0237107971887298,0.030391587128862925,
-0.021533319412327497,0.032569064905265233,
-0.018789537346210118,0.033967091695818442,
0*
4,1,19,
-0.015748031496062995,-0.014763779527559057,
-0.012706525645915873,-0.015245506729378409,
-0.0099627435797984935,-0.016643533519931621,
-0.0077852658033961877,-0.018821011296333928,
-0.0063872390128429787,-0.021564793362451307,
-0.0059055118110236228,-0.024606299212598427,
-0.006387239012842977,-0.027647805062745546,
-0.0077852658033961877,-0.030391587128862925,
-0.0099627435797984918,-0.032569064905265233,
-0.012706525645915873,-0.033967091695818442,
-0.015748031496062992,-0.034448818897637797,
-0.018789537346210118,-0.033967091695818442,
-0.02153331941232749,-0.032569064905265233,
-0.0237107971887298,-0.030391587128862928,
-0.025108823979283011,-0.027647805062745546,
-0.025590551181102365,-0.024606299212598427,
-0.025108823979283011,-0.021564793362451307,
-0.0237107971887298,-0.018821011296333928,
-0.021533319412327497,-0.016643533519931621,
-0.018789537346210118,-0.015245506729378409,
0*
4,1,19,
0.015748031496062995,-0.014763779527559057,
0.018789537346210115,-0.015245506729378409,
0.02153331941232749,-0.016643533519931621,
0.0237107971887298,-0.018821011296333928,
0.025108823979283011,-0.021564793362451307,
0.025590551181102365,-0.024606299212598427,
0.025108823979283011,-0.027647805062745546,
0.0237107971887298,-0.030391587128862925,
0.021533319412327497,-0.032569064905265233,
0.018789537346210115,-0.033967091695818442,
0.015748031496062995,-0.034448818897637797,
0.012706525645915871,-0.033967091695818442,
0.009962743579798497,-0.032569064905265233,
0.0077852658033961885,-0.030391587128862928,
0.0063872390128429787,-0.027647805062745546,
0.0059055118110236228,-0.024606299212598427,
0.006387239012842977,-0.021564793362451307,
0.0077852658033961868,-0.018821011296333928,
0.0099627435797984918,-0.016643533519931621,
0.012706525645915871,-0.015245506729378409,
0*
4,1,3,
0.015748031496062995,0.034448818897637797,
0.015748031496062995,0.014763779527559057,
-0.015748031496062995,0.014763779527559057,
-0.015748031496062995,0.034448818897637797,
0*
4,1,3,
-0.025590551181102365,0.024606299212598427,
-0.0059055118110236228,0.024606299212598427,
-0.0059055118110236228,-0.024606299212598427,
-0.025590551181102365,-0.024606299212598427,
0*
4,1,3,
-0.015748031496062995,-0.034448818897637797,
-0.015748031496062995,-0.014763779527559057,
0.015748031496062995,-0.014763779527559057,
0.015748031496062995,-0.034448818897637797,
0*
4,1,3,
0.025590551181102365,-0.024606299212598427,
0.0059055118110236228,-0.024606299212598427,
0.0059055118110236228,0.024606299212598427,
0.025590551181102365,0.024606299212598427,
0*%
%AMRoundRect0*
4,1,4,
0.07874015748031496,0.11811023622047245,
0.15748031496062992,0.19685039370078741,
0.23622047244094491,0.27559055118110237,
0.31496062992125984,0.35433070866141736,
0.07874015748031496,0.11811023622047245,
0*
1,1,$1,$2,$3*
1,1,$1,$2,$3*
1,1,$1,$2,$3*
1,1,$1,$2,$3*
20,1,$1,$2,$3,$4,$5,0*
20,1,$1,$2,$3,$4,$5,0*
20,1,$1,$2,$3,$4,$5,0*
20,1,$1,$2,$3,$4,$5,0*%
%AMCOMP610*
4,1,3,
-0.015748031496062995,-0.024606299212598427,
0.015748031496062995,-0.024606299212598427,
0.015748031496062995,0.024606299212598427,
-0.015748031496062995,0.024606299212598427,
0*
4,1,19,
-0.015748031496062995,-0.014763779527559057,
-0.012706525645915873,-0.015245506729378409,
-0.0099627435797984935,-0.016643533519931621,
-0.0077852658033961877,-0.018821011296333928,
-0.0063872390128429787,-0.021564793362451307,
-0.0059055118110236228,-0.024606299212598427,
-0.006387239012842977,-0.027647805062745546,
-0.0077852658033961877,-0.030391587128862925,
-0.0099627435797984918,-0.032569064905265233,
-0.012706525645915873,-0.033967091695818442,
-0.015748031496062992,-0.034448818897637797,
-0.018789537346210118,-0.033967091695818442,
-0.02153331941232749,-0.032569064905265233,
-0.0237107971887298,-0.030391587128862928,
-0.025108823979283011,-0.027647805062745546,
-0.025590551181102365,-0.024606299212598427,
-0.025108823979283011,-0.021564793362451307,
-0.0237107971887298,-0.018821011296333928,
-0.021533319412327497,-0.016643533519931621,
-0.018789537346210118,-0.015245506729378409,
0*
4,1,19,
0.015748031496062995,-0.014763779527559057,
0.018789537346210115,-0.015245506729378409,
0.02153331941232749,-0.016643533519931621,
0.0237107971887298,-0.018821011296333928,
0.025108823979283011,-0.021564793362451307,
0.025590551181102365,-0.024606299212598427,
0.025108823979283011,-0.027647805062745546,
0.0237107971887298,-0.030391587128862925,
0.021533319412327497,-0.032569064905265233,
0.018789537346210115,-0.033967091695818442,
0.015748031496062995,-0.034448818897637797,
0.012706525645915871,-0.033967091695818442,
0.009962743579798497,-0.032569064905265233,
0.0077852658033961885,-0.030391587128862928,
0.0063872390128429787,-0.027647805062745546,
0.0059055118110236228,-0.024606299212598427,
0.006387239012842977,-0.021564793362451307,
0.0077852658033961868,-0.018821011296333928,
0.0099627435797984918,-0.016643533519931621,
0.012706525645915871,-0.015245506729378409,
0*
4,1,19,
0.015748031496062995,0.034448818897637797,
0.018789537346210115,0.033967091695818442,
0.02153331941232749,0.032569064905265233,
0.0237107971887298,0.030391587128862928,
0.025108823979283011,0.027647805062745546,
0.025590551181102365,0.024606299212598427,
0.025108823979283011,0.021564793362451307,
0.0237107971887298,0.018821011296333928,
0.021533319412327497,0.016643533519931621,
0.018789537346210115,0.015245506729378409,
0.015748031496062995,0.014763779527559057,
0.012706525645915871,0.015245506729378409,
0.009962743579798497,0.016643533519931621,
0.0077852658033961885,0.018821011296333925,
0.0063872390128429787,0.021564793362451307,
0.0059055118110236228,0.024606299212598427,
0.006387239012842977,0.027647805062745546,
0.0077852658033961868,0.030391587128862925,
0.0099627435797984918,0.032569064905265233,
0.012706525645915871,0.033967091695818442,
0*
4,1,19,
-0.015748031496062995,0.034448818897637797,
-0.012706525645915873,0.033967091695818442,
-0.0099627435797984935,0.032569064905265233,
-0.0077852658033961877,0.030391587128862928,
-0.0063872390128429787,0.027647805062745546,
-0.0059055118110236228,0.024606299212598427,
-0.006387239012842977,0.021564793362451307,
-0.0077852658033961877,0.018821011296333928,
-0.0099627435797984918,0.016643533519931621,
-0.012706525645915873,0.015245506729378409,
-0.015748031496062992,0.014763779527559057,
-0.018789537346210118,0.015245506729378409,
-0.02153331941232749,0.016643533519931621,
-0.0237107971887298,0.018821011296333925,
-0.025108823979283011,0.021564793362451307,
-0.025590551181102365,0.024606299212598427,
-0.025108823979283011,0.027647805062745546,
-0.0237107971887298,0.030391587128862925,
-0.021533319412327497,0.032569064905265233,
-0.018789537346210118,0.033967091695818442,
0*
4,1,3,
-0.015748031496062995,-0.034448818897637797,
-0.015748031496062995,-0.014763779527559057,
0.015748031496062995,-0.014763779527559057,
0.015748031496062995,-0.034448818897637797,
0*
4,1,3,
0.025590551181102365,-0.024606299212598427,
0.0059055118110236228,-0.024606299212598427,
0.0059055118110236228,0.024606299212598427,
0.025590551181102365,0.024606299212598427,
0*
4,1,3,
0.015748031496062995,0.034448818897637797,
0.015748031496062995,0.014763779527559057,
-0.015748031496062995,0.014763779527559057,
-0.015748031496062995,0.034448818897637797,
0*
4,1,3,
-0.025590551181102365,0.024606299212598427,
-0.0059055118110236228,0.024606299212598427,
-0.0059055118110236228,-0.024606299212598427,
-0.025590551181102365,-0.024606299212598427,
0*%
%AMCOMP620*
4,1,3,
0.015748031496062995,0.024606299212598427,
-0.015748031496062995,0.024606299212598427,
-0.015748031496062995,-0.024606299212598427,
0.015748031496062995,-0.024606299212598427,
0*
4,1,19,
0.015748031496062995,0.034448818897637797,
0.018789537346210115,0.033967091695818442,
0.02153331941232749,0.032569064905265233,
0.0237107971887298,0.030391587128862928,
0.025108823979283011,0.027647805062745546,
0.025590551181102365,0.024606299212598427,
0.025108823979283011,0.021564793362451307,
0.0237107971887298,0.018821011296333928,
0.021533319412327497,0.016643533519931621,
0.018789537346210115,0.015245506729378409,
0.015748031496062995,0.014763779527559057,
0.012706525645915871,0.015245506729378409,
0.009962743579798497,0.016643533519931621,
0.0077852658033961885,0.018821011296333925,
0.0063872390128429787,0.021564793362451307,
0.0059055118110236228,0.024606299212598427,
0.006387239012842977,0.027647805062745546,
0.0077852658033961868,0.030391587128862925,
0.0099627435797984918,0.032569064905265233,
0.012706525645915871,0.033967091695818442,
0*
4,1,19,
-0.015748031496062995,0.034448818897637797,
-0.012706525645915873,0.033967091695818442,
-0.0099627435797984935,0.032569064905265233,
-0.0077852658033961877,0.030391587128862928,
-0.0063872390128429787,0.027647805062745546,
-0.0059055118110236228,0.024606299212598427,
-0.006387239012842977,0.021564793362451307,
-0.0077852658033961877,0.018821011296333928,
-0.0099627435797984918,0.016643533519931621,
-0.012706525645915873,0.015245506729378409,
-0.015748031496062992,0.014763779527559057,
-0.018789537346210118,0.015245506729378409,
-0.02153331941232749,0.016643533519931621,
-0.0237107971887298,0.018821011296333925,
-0.025108823979283011,0.021564793362451307,
-0.025590551181102365,0.024606299212598427,
-0.025108823979283011,0.027647805062745546,
-0.0237107971887298,0.030391587128862925,
-0.021533319412327497,0.032569064905265233,
-0.018789537346210118,0.033967091695818442,
0*
4,1,19,
-0.015748031496062995,-0.014763779527559057,
-0.012706525645915873,-0.015245506729378409,
-0.0099627435797984935,-0.016643533519931621,
-0.0077852658033961877,-0.018821011296333928,
-0.0063872390128429787,-0.021564793362451307,
-0.0059055118110236228,-0.024606299212598427,
-0.006387239012842977,-0.027647805062745546,
-0.0077852658033961877,-0.030391587128862925,
-0.0099627435797984918,-0.032569064905265233,
-0.012706525645915873,-0.033967091695818442,
-0.015748031496062992,-0.034448818897637797,
-0.018789537346210118,-0.033967091695818442,
-0.02153331941232749,-0.032569064905265233,
-0.0237107971887298,-0.030391587128862928,
-0.025108823979283011,-0.027647805062745546,
-0.025590551181102365,-0.024606299212598427,
-0.025108823979283011,-0.021564793362451307,
-0.0237107971887298,-0.018821011296333928,
-0.021533319412327497,-0.016643533519931621,
-0.018789537346210118,-0.015245506729378409,
0*
4,1,19,
0.015748031496062995,-0.014763779527559057,
0.018789537346210115,-0.015245506729378409,
0.02153331941232749,-0.016643533519931621,
0.0237107971887298,-0.018821011296333928,
0.025108823979283011,-0.021564793362451307,
0.025590551181102365,-0.024606299212598427,
0.025108823979283011,-0.027647805062745546,
0.0237107971887298,-0.030391587128862925,
0.021533319412327497,-0.032569064905265233,
0.018789537346210115,-0.033967091695818442,
0.015748031496062995,-0.034448818897637797,
0.012706525645915871,-0.033967091695818442,
0.009962743579798497,-0.032569064905265233,
0.0077852658033961885,-0.030391587128862928,
0.0063872390128429787,-0.027647805062745546,
0.0059055118110236228,-0.024606299212598427,
0.006387239012842977,-0.021564793362451307,
0.0077852658033961868,-0.018821011296333928,
0.0099627435797984918,-0.016643533519931621,
0.012706525645915871,-0.015245506729378409,
0*
4,1,3,
0.015748031496062995,0.034448818897637797,
0.015748031496062995,0.014763779527559057,
-0.015748031496062995,0.014763779527559057,
-0.015748031496062995,0.034448818897637797,
0*
4,1,3,
-0.025590551181102365,0.024606299212598427,
-0.0059055118110236228,0.024606299212598427,
-0.0059055118110236228,-0.024606299212598427,
-0.025590551181102365,-0.024606299212598427,
0*
4,1,3,
-0.015748031496062995,-0.034448818897637797,
-0.015748031496062995,-0.014763779527559057,
0.015748031496062995,-0.014763779527559057,
0.015748031496062995,-0.034448818897637797,
0*
4,1,3,
0.025590551181102365,-0.024606299212598427,
0.0059055118110236228,-0.024606299212598427,
0.0059055118110236228,0.024606299212598427,
0.025590551181102365,0.024606299212598427,
0*%
%AMRoundRect1*
4,1,4,
0.07874015748031496,0.11811023622047245,
0.15748031496062992,0.19685039370078741,
0.23622047244094491,0.27559055118110237,
0.31496062992125984,0.35433070866141736,
0.07874015748031496,0.11811023622047245,
0*
1,1,$1,$2,$3*
1,1,$1,$2,$3*
1,1,$1,$2,$3*
1,1,$1,$2,$3*
20,1,$1,$2,$3,$4,$5,0*
20,1,$1,$2,$3,$4,$5,0*
20,1,$1,$2,$3,$4,$5,0*
20,1,$1,$2,$3,$4,$5,0*%
%AMCOMP690*
4,1,3,
-0.015748031496062995,-0.024606299212598427,
0.015748031496062995,-0.024606299212598427,
0.015748031496062995,0.024606299212598427,
-0.015748031496062995,0.024606299212598427,
0*
4,1,19,
-0.015748031496062995,-0.014763779527559057,
-0.012706525645915873,-0.015245506729378409,
-0.0099627435797984935,-0.016643533519931621,
-0.0077852658033961877,-0.018821011296333928,
-0.0063872390128429787,-0.021564793362451307,
-0.0059055118110236228,-0.024606299212598427,
-0.006387239012842977,-0.027647805062745546,
-0.0077852658033961877,-0.030391587128862925,
-0.0099627435797984918,-0.032569064905265233,
-0.012706525645915873,-0.033967091695818442,
-0.015748031496062992,-0.034448818897637797,
-0.018789537346210118,-0.033967091695818442,
-0.02153331941232749,-0.032569064905265233,
-0.0237107971887298,-0.030391587128862928,
-0.025108823979283011,-0.027647805062745546,
-0.025590551181102365,-0.024606299212598427,
-0.025108823979283011,-0.021564793362451307,
-0.0237107971887298,-0.018821011296333928,
-0.021533319412327497,-0.016643533519931621,
-0.018789537346210118,-0.015245506729378409,
0*
4,1,19,
0.015748031496062995,-0.014763779527559057,
0.018789537346210115,-0.015245506729378409,
0.02153331941232749,-0.016643533519931621,
0.0237107971887298,-0.018821011296333928,
0.025108823979283011,-0.021564793362451307,
0.025590551181102365,-0.024606299212598427,
0.025108823979283011,-0.027647805062745546,
0.0237107971887298,-0.030391587128862925,
0.021533319412327497,-0.032569064905265233,
0.018789537346210115,-0.033967091695818442,
0.015748031496062995,-0.034448818897637797,
0.012706525645915871,-0.033967091695818442,
0.009962743579798497,-0.032569064905265233,
0.0077852658033961885,-0.030391587128862928,
0.0063872390128429787,-0.027647805062745546,
0.0059055118110236228,-0.024606299212598427,
0.006387239012842977,-0.021564793362451307,
0.0077852658033961868,-0.018821011296333928,
0.0099627435797984918,-0.016643533519931621,
0.012706525645915871,-0.015245506729378409,
0*
4,1,19,
0.015748031496062995,0.034448818897637797,
0.018789537346210115,0.033967091695818442,
0.02153331941232749,0.032569064905265233,
0.0237107971887298,0.030391587128862928,
0.025108823979283011,0.027647805062745546,
0.025590551181102365,0.024606299212598427,
0.025108823979283011,0.021564793362451307,
0.0237107971887298,0.018821011296333928,
0.021533319412327497,0.016643533519931621,
0.018789537346210115,0.015245506729378409,
0.015748031496062995,0.014763779527559057,
0.012706525645915871,0.015245506729378409,
0.009962743579798497,0.016643533519931621,
0.0077852658033961885,0.018821011296333925,
0.0063872390128429787,0.021564793362451307,
0.0059055118110236228,0.024606299212598427,
0.006387239012842977,0.027647805062745546,
0.0077852658033961868,0.030391587128862925,
0.0099627435797984918,0.032569064905265233,
0.012706525645915871,0.033967091695818442,
0*
4,1,19,
-0.015748031496062995,0.034448818897637797,
-0.012706525645915873,0.033967091695818442,
-0.0099627435797984935,0.032569064905265233,
-0.0077852658033961877,0.030391587128862928,
-0.0063872390128429787,0.027647805062745546,
-0.0059055118110236228,0.024606299212598427,
-0.006387239012842977,0.021564793362451307,
-0.0077852658033961877,0.018821011296333928,
-0.0099627435797984918,0.016643533519931621,
-0.012706525645915873,0.015245506729378409,
-0.015748031496062992,0.014763779527559057,
-0.018789537346210118,0.015245506729378409,
-0.02153331941232749,0.016643533519931621,
-0.0237107971887298,0.018821011296333925,
-0.025108823979283011,0.021564793362451307,
-0.025590551181102365,0.024606299212598427,
-0.025108823979283011,0.027647805062745546,
-0.0237107971887298,0.030391587128862925,
-0.021533319412327497,0.032569064905265233,
-0.018789537346210118,0.033967091695818442,
0*
4,1,3,
-0.015748031496062995,-0.034448818897637797,
-0.015748031496062995,-0.014763779527559057,
0.015748031496062995,-0.014763779527559057,
0.015748031496062995,-0.034448818897637797,
0*
4,1,3,
0.025590551181102365,-0.024606299212598427,
0.0059055118110236228,-0.024606299212598427,
0.0059055118110236228,0.024606299212598427,
0.025590551181102365,0.024606299212598427,
0*
4,1,3,
0.015748031496062995,0.034448818897637797,
0.015748031496062995,0.014763779527559057,
-0.015748031496062995,0.014763779527559057,
-0.015748031496062995,0.034448818897637797,
0*
4,1,3,
-0.025590551181102365,0.024606299212598427,
-0.0059055118110236228,0.024606299212598427,
-0.0059055118110236228,-0.024606299212598427,
-0.025590551181102365,-0.024606299212598427,
0*%
%AMCOMP700*
4,1,3,
0.015748031496062995,0.024606299212598427,
-0.015748031496062995,0.024606299212598427,
-0.015748031496062995,-0.024606299212598427,
0.015748031496062995,-0.024606299212598427,
0*
4,1,19,
0.015748031496062995,0.034448818897637797,
0.018789537346210115,0.033967091695818442,
0.02153331941232749,0.032569064905265233,
0.0237107971887298,0.030391587128862928,
0.025108823979283011,0.027647805062745546,
0.025590551181102365,0.024606299212598427,
0.025108823979283011,0.021564793362451307,
0.0237107971887298,0.018821011296333928,
0.021533319412327497,0.016643533519931621,
0.018789537346210115,0.015245506729378409,
0.015748031496062995,0.014763779527559057,
0.012706525645915871,0.015245506729378409,
0.009962743579798497,0.016643533519931621,
0.0077852658033961885,0.018821011296333925,
0.0063872390128429787,0.021564793362451307,
0.0059055118110236228,0.024606299212598427,
0.006387239012842977,0.027647805062745546,
0.0077852658033961868,0.030391587128862925,
0.0099627435797984918,0.032569064905265233,
0.012706525645915871,0.033967091695818442,
0*
4,1,19,
-0.015748031496062995,0.034448818897637797,
-0.012706525645915873,0.033967091695818442,
-0.0099627435797984935,0.032569064905265233,
-0.0077852658033961877,0.030391587128862928,
-0.0063872390128429787,0.027647805062745546,
-0.0059055118110236228,0.024606299212598427,
-0.006387239012842977,0.021564793362451307,
-0.0077852658033961877,0.018821011296333928,
-0.0099627435797984918,0.016643533519931621,
-0.012706525645915873,0.015245506729378409,
-0.015748031496062992,0.014763779527559057,
-0.018789537346210118,0.015245506729378409,
-0.02153331941232749,0.016643533519931621,
-0.0237107971887298,0.018821011296333925,
-0.025108823979283011,0.021564793362451307,
-0.025590551181102365,0.024606299212598427,
-0.025108823979283011,0.027647805062745546,
-0.0237107971887298,0.030391587128862925,
-0.021533319412327497,0.032569064905265233,
-0.018789537346210118,0.033967091695818442,
0*
4,1,19,
-0.015748031496062995,-0.014763779527559057,
-0.012706525645915873,-0.015245506729378409,
-0.0099627435797984935,-0.016643533519931621,
-0.0077852658033961877,-0.018821011296333928,
-0.0063872390128429787,-0.021564793362451307,
-0.0059055118110236228,-0.024606299212598427,
-0.006387239012842977,-0.027647805062745546,
-0.0077852658033961877,-0.030391587128862925,
-0.0099627435797984918,-0.032569064905265233,
-0.012706525645915873,-0.033967091695818442,
-0.015748031496062992,-0.034448818897637797,
-0.018789537346210118,-0.033967091695818442,
-0.02153331941232749,-0.032569064905265233,
-0.0237107971887298,-0.030391587128862928,
-0.025108823979283011,-0.027647805062745546,
-0.025590551181102365,-0.024606299212598427,
-0.025108823979283011,-0.021564793362451307,
-0.0237107971887298,-0.018821011296333928,
-0.021533319412327497,-0.016643533519931621,
-0.018789537346210118,-0.015245506729378409,
0*
4,1,19,
0.015748031496062995,-0.014763779527559057,
0.018789537346210115,-0.015245506729378409,
0.02153331941232749,-0.016643533519931621,
0.0237107971887298,-0.018821011296333928,
0.025108823979283011,-0.021564793362451307,
0.025590551181102365,-0.024606299212598427,
0.025108823979283011,-0.027647805062745546,
0.0237107971887298,-0.030391587128862925,
0.021533319412327497,-0.032569064905265233,
0.018789537346210115,-0.033967091695818442,
0.015748031496062995,-0.034448818897637797,
0.012706525645915871,-0.033967091695818442,
0.009962743579798497,-0.032569064905265233,
0.0077852658033961885,-0.030391587128862928,
0.0063872390128429787,-0.027647805062745546,
0.0059055118110236228,-0.024606299212598427,
0.006387239012842977,-0.021564793362451307,
0.0077852658033961868,-0.018821011296333928,
0.0099627435797984918,-0.016643533519931621,
0.012706525645915871,-0.015245506729378409,
0*
4,1,3,
0.015748031496062995,0.034448818897637797,
0.015748031496062995,0.014763779527559057,
-0.015748031496062995,0.014763779527559057,
-0.015748031496062995,0.034448818897637797,
0*
4,1,3,
-0.025590551181102365,0.024606299212598427,
-0.0059055118110236228,0.024606299212598427,
-0.0059055118110236228,-0.024606299212598427,
-0.025590551181102365,-0.024606299212598427,
0*
4,1,3,
-0.015748031496062995,-0.034448818897637797,
-0.015748031496062995,-0.014763779527559057,
0.015748031496062995,-0.014763779527559057,
0.015748031496062995,-0.034448818897637797,
0*
4,1,3,
0.025590551181102365,-0.024606299212598427,
0.0059055118110236228,-0.024606299212598427,
0.0059055118110236228,0.024606299212598427,
0.025590551181102365,0.024606299212598427,
0*%
%ADD10R,0.043307086614173235X0.043307086614173235*%
%ADD11R,0.074803149606299218X0.031496062992125991*%
%AMCOMP74*
4,1,3,
-0.015748031496062995,-0.024606299212598427,
0.015748031496062995,-0.024606299212598427,
0.015748031496062995,0.024606299212598427,
-0.015748031496062995,0.024606299212598427,
0*
4,1,19,
-0.015748031496062995,-0.014763779527559057,
-0.012706525645915873,-0.015245506729378409,
-0.0099627435797984935,-0.016643533519931621,
-0.0077852658033961877,-0.018821011296333928,
-0.0063872390128429787,-0.021564793362451307,
-0.0059055118110236228,-0.024606299212598427,
-0.006387239012842977,-0.027647805062745546,
-0.0077852658033961877,-0.030391587128862925,
-0.0099627435797984918,-0.032569064905265233,
-0.012706525645915873,-0.033967091695818442,
-0.015748031496062992,-0.034448818897637797,
-0.018789537346210118,-0.033967091695818442,
-0.02153331941232749,-0.032569064905265233,
-0.0237107971887298,-0.030391587128862928,
-0.025108823979283011,-0.027647805062745546,
-0.025590551181102365,-0.024606299212598427,
-0.025108823979283011,-0.021564793362451307,
-0.0237107971887298,-0.018821011296333928,
-0.021533319412327497,-0.016643533519931621,
-0.018789537346210118,-0.015245506729378409,
0*
4,1,19,
0.015748031496062995,-0.014763779527559057,
0.018789537346210115,-0.015245506729378409,
0.02153331941232749,-0.016643533519931621,
0.0237107971887298,-0.018821011296333928,
0.025108823979283011,-0.021564793362451307,
0.025590551181102365,-0.024606299212598427,
0.025108823979283011,-0.027647805062745546,
0.0237107971887298,-0.030391587128862925,
0.021533319412327497,-0.032569064905265233,
0.018789537346210115,-0.033967091695818442,
0.015748031496062995,-0.034448818897637797,
0.012706525645915871,-0.033967091695818442,
0.009962743579798497,-0.032569064905265233,
0.0077852658033961885,-0.030391587128862928,
0.0063872390128429787,-0.027647805062745546,
0.0059055118110236228,-0.024606299212598427,
0.006387239012842977,-0.021564793362451307,
0.0077852658033961868,-0.018821011296333928,
0.0099627435797984918,-0.016643533519931621,
0.012706525645915871,-0.015245506729378409,
0*
4,1,19,
0.015748031496062995,0.034448818897637797,
0.018789537346210115,0.033967091695818442,
0.02153331941232749,0.032569064905265233,
0.0237107971887298,0.030391587128862928,
0.025108823979283011,0.027647805062745546,
0.025590551181102365,0.024606299212598427,
0.025108823979283011,0.021564793362451307,
0.0237107971887298,0.018821011296333928,
0.021533319412327497,0.016643533519931621,
0.018789537346210115,0.015245506729378409,
0.015748031496062995,0.014763779527559057,
0.012706525645915871,0.015245506729378409,
0.009962743579798497,0.016643533519931621,
0.0077852658033961885,0.018821011296333925,
0.0063872390128429787,0.021564793362451307,
0.0059055118110236228,0.024606299212598427,
0.006387239012842977,0.027647805062745546,
0.0077852658033961868,0.030391587128862925,
0.0099627435797984918,0.032569064905265233,
0.012706525645915871,0.033967091695818442,
0*
4,1,19,
-0.015748031496062995,0.034448818897637797,
-0.012706525645915873,0.033967091695818442,
-0.0099627435797984935,0.032569064905265233,
-0.0077852658033961877,0.030391587128862928,
-0.0063872390128429787,0.027647805062745546,
-0.0059055118110236228,0.024606299212598427,
-0.006387239012842977,0.021564793362451307,
-0.0077852658033961877,0.018821011296333928,
-0.0099627435797984918,0.016643533519931621,
-0.012706525645915873,0.015245506729378409,
-0.015748031496062992,0.014763779527559057,
-0.018789537346210118,0.015245506729378409,
-0.02153331941232749,0.016643533519931621,
-0.0237107971887298,0.018821011296333925,
-0.025108823979283011,0.021564793362451307,
-0.025590551181102365,0.024606299212598427,
-0.025108823979283011,0.027647805062745546,
-0.0237107971887298,0.030391587128862925,
-0.021533319412327497,0.032569064905265233,
-0.018789537346210118,0.033967091695818442,
0*
4,1,3,
-0.015748031496062995,-0.034448818897637797,
-0.015748031496062995,-0.014763779527559057,
0.015748031496062995,-0.014763779527559057,
0.015748031496062995,-0.034448818897637797,
0*
4,1,3,
0.025590551181102365,-0.024606299212598427,
0.0059055118110236228,-0.024606299212598427,
0.0059055118110236228,0.024606299212598427,
0.025590551181102365,0.024606299212598427,
0*
4,1,3,
0.015748031496062995,0.034448818897637797,
0.015748031496062995,0.014763779527559057,
-0.015748031496062995,0.014763779527559057,
-0.015748031496062995,0.034448818897637797,
0*
4,1,3,
-0.025590551181102365,0.024606299212598427,
-0.0059055118110236228,0.024606299212598427,
-0.0059055118110236228,-0.024606299212598427,
-0.025590551181102365,-0.024606299212598427,
0*%
%ADD12COMP74,0.25X-0.4X-0.625X0.4X-0.625X0.4X0.625X-0.4X0.625X0*%
%AMCOMP78*
4,1,3,
0.015748031496062995,0.024606299212598427,
-0.015748031496062995,0.024606299212598427,
-0.015748031496062995,-0.024606299212598427,
0.015748031496062995,-0.024606299212598427,
0*
4,1,19,
0.015748031496062995,0.034448818897637797,
0.018789537346210115,0.033967091695818442,
0.02153331941232749,0.032569064905265233,
0.0237107971887298,0.030391587128862928,
0.025108823979283011,0.027647805062745546,
0.025590551181102365,0.024606299212598427,
0.025108823979283011,0.021564793362451307,
0.0237107971887298,0.018821011296333928,
0.021533319412327497,0.016643533519931621,
0.018789537346210115,0.015245506729378409,
0.015748031496062995,0.014763779527559057,
0.012706525645915871,0.015245506729378409,
0.009962743579798497,0.016643533519931621,
0.0077852658033961885,0.018821011296333925,
0.0063872390128429787,0.021564793362451307,
0.0059055118110236228,0.024606299212598427,
0.006387239012842977,0.027647805062745546,
0.0077852658033961868,0.030391587128862925,
0.0099627435797984918,0.032569064905265233,
0.012706525645915871,0.033967091695818442,
0*
4,1,19,
-0.015748031496062995,0.034448818897637797,
-0.012706525645915873,0.033967091695818442,
-0.0099627435797984935,0.032569064905265233,
-0.0077852658033961877,0.030391587128862928,
-0.0063872390128429787,0.027647805062745546,
-0.0059055118110236228,0.024606299212598427,
-0.006387239012842977,0.021564793362451307,
-0.0077852658033961877,0.018821011296333928,
-0.0099627435797984918,0.016643533519931621,
-0.012706525645915873,0.015245506729378409,
-0.015748031496062992,0.014763779527559057,
-0.018789537346210118,0.015245506729378409,
-0.02153331941232749,0.016643533519931621,
-0.0237107971887298,0.018821011296333925,
-0.025108823979283011,0.021564793362451307,
-0.025590551181102365,0.024606299212598427,
-0.025108823979283011,0.027647805062745546,
-0.0237107971887298,0.030391587128862925,
-0.021533319412327497,0.032569064905265233,
-0.018789537346210118,0.033967091695818442,
0*
4,1,19,
-0.015748031496062995,-0.014763779527559057,
-0.012706525645915873,-0.015245506729378409,
-0.0099627435797984935,-0.016643533519931621,
-0.0077852658033961877,-0.018821011296333928,
-0.0063872390128429787,-0.021564793362451307,
-0.0059055118110236228,-0.024606299212598427,
-0.006387239012842977,-0.027647805062745546,
-0.0077852658033961877,-0.030391587128862925,
-0.0099627435797984918,-0.032569064905265233,
-0.012706525645915873,-0.033967091695818442,
-0.015748031496062992,-0.034448818897637797,
-0.018789537346210118,-0.033967091695818442,
-0.02153331941232749,-0.032569064905265233,
-0.0237107971887298,-0.030391587128862928,
-0.025108823979283011,-0.027647805062745546,
-0.025590551181102365,-0.024606299212598427,
-0.025108823979283011,-0.021564793362451307,
-0.0237107971887298,-0.018821011296333928,
-0.021533319412327497,-0.016643533519931621,
-0.018789537346210118,-0.015245506729378409,
0*
4,1,19,
0.015748031496062995,-0.014763779527559057,
0.018789537346210115,-0.015245506729378409,
0.02153331941232749,-0.016643533519931621,
0.0237107971887298,-0.018821011296333928,
0.025108823979283011,-0.021564793362451307,
0.025590551181102365,-0.024606299212598427,
0.025108823979283011,-0.027647805062745546,
0.0237107971887298,-0.030391587128862925,
0.021533319412327497,-0.032569064905265233,
0.018789537346210115,-0.033967091695818442,
0.015748031496062995,-0.034448818897637797,
0.012706525645915871,-0.033967091695818442,
0.009962743579798497,-0.032569064905265233,
0.0077852658033961885,-0.030391587128862928,
0.0063872390128429787,-0.027647805062745546,
0.0059055118110236228,-0.024606299212598427,
0.006387239012842977,-0.021564793362451307,
0.0077852658033961868,-0.018821011296333928,
0.0099627435797984918,-0.016643533519931621,
0.012706525645915871,-0.015245506729378409,
0*
4,1,3,
0.015748031496062995,0.034448818897637797,
0.015748031496062995,0.014763779527559057,
-0.015748031496062995,0.014763779527559057,
-0.015748031496062995,0.034448818897637797,
0*
4,1,3,
-0.025590551181102365,0.024606299212598427,
-0.0059055118110236228,0.024606299212598427,
-0.0059055118110236228,-0.024606299212598427,
-0.025590551181102365,-0.024606299212598427,
0*
4,1,3,
-0.015748031496062995,-0.034448818897637797,
-0.015748031496062995,-0.014763779527559057,
0.015748031496062995,-0.014763779527559057,
0.015748031496062995,-0.034448818897637797,
0*
4,1,3,
0.025590551181102365,-0.024606299212598427,
0.0059055118110236228,-0.024606299212598427,
0.0059055118110236228,0.024606299212598427,
0.025590551181102365,0.024606299212598427,
0*%
%ADD13COMP78,0.25X0.4X0.625X-0.4X0.625X-0.4X-0.625X0.4X-0.625X0*%
%ADD24R,0.043307086614173235X0.043307086614173235*%
%ADD25R,0.074803149606299218X0.031496062992125991*%
%AMCOMP82*
4,1,3,
-0.015748031496062995,-0.024606299212598427,
0.015748031496062995,-0.024606299212598427,
0.015748031496062995,0.024606299212598427,
-0.015748031496062995,0.024606299212598427,
0*
4,1,19,
-0.015748031496062995,-0.014763779527559057,
-0.012706525645915873,-0.015245506729378409,
-0.0099627435797984935,-0.016643533519931621,
-0.0077852658033961877,-0.018821011296333928,
-0.0063872390128429787,-0.021564793362451307,
-0.0059055118110236228,-0.024606299212598427,
-0.006387239012842977,-0.027647805062745546,
-0.0077852658033961877,-0.030391587128862925,
-0.0099627435797984918,-0.032569064905265233,
-0.012706525645915873,-0.033967091695818442,
-0.015748031496062992,-0.034448818897637797,
-0.018789537346210118,-0.033967091695818442,
-0.02153331941232749,-0.032569064905265233,
-0.0237107971887298,-0.030391587128862928,
-0.025108823979283011,-0.027647805062745546,
-0.025590551181102365,-0.024606299212598427,
-0.025108823979283011,-0.021564793362451307,
-0.0237107971887298,-0.018821011296333928,
-0.021533319412327497,-0.016643533519931621,
-0.018789537346210118,-0.015245506729378409,
0*
4,1,19,
0.015748031496062995,-0.014763779527559057,
0.018789537346210115,-0.015245506729378409,
0.02153331941232749,-0.016643533519931621,
0.0237107971887298,-0.018821011296333928,
0.025108823979283011,-0.021564793362451307,
0.025590551181102365,-0.024606299212598427,
0.025108823979283011,-0.027647805062745546,
0.0237107971887298,-0.030391587128862925,
0.021533319412327497,-0.032569064905265233,
0.018789537346210115,-0.033967091695818442,
0.015748031496062995,-0.034448818897637797,
0.012706525645915871,-0.033967091695818442,
0.009962743579798497,-0.032569064905265233,
0.0077852658033961885,-0.030391587128862928,
0.0063872390128429787,-0.027647805062745546,
0.0059055118110236228,-0.024606299212598427,
0.006387239012842977,-0.021564793362451307,
0.0077852658033961868,-0.018821011296333928,
0.0099627435797984918,-0.016643533519931621,
0.012706525645915871,-0.015245506729378409,
0*
4,1,19,
0.015748031496062995,0.034448818897637797,
0.018789537346210115,0.033967091695818442,
0.02153331941232749,0.032569064905265233,
0.0237107971887298,0.030391587128862928,
0.025108823979283011,0.027647805062745546,
0.025590551181102365,0.024606299212598427,
0.025108823979283011,0.021564793362451307,
0.0237107971887298,0.018821011296333928,
0.021533319412327497,0.016643533519931621,
0.018789537346210115,0.015245506729378409,
0.015748031496062995,0.014763779527559057,
0.012706525645915871,0.015245506729378409,
0.009962743579798497,0.016643533519931621,
0.0077852658033961885,0.018821011296333925,
0.0063872390128429787,0.021564793362451307,
0.0059055118110236228,0.024606299212598427,
0.006387239012842977,0.027647805062745546,
0.0077852658033961868,0.030391587128862925,
0.0099627435797984918,0.032569064905265233,
0.012706525645915871,0.033967091695818442,
0*
4,1,19,
-0.015748031496062995,0.034448818897637797,
-0.012706525645915873,0.033967091695818442,
-0.0099627435797984935,0.032569064905265233,
-0.0077852658033961877,0.030391587128862928,
-0.0063872390128429787,0.027647805062745546,
-0.0059055118110236228,0.024606299212598427,
-0.006387239012842977,0.021564793362451307,
-0.0077852658033961877,0.018821011296333928,
-0.0099627435797984918,0.016643533519931621,
-0.012706525645915873,0.015245506729378409,
-0.015748031496062992,0.014763779527559057,
-0.018789537346210118,0.015245506729378409,
-0.02153331941232749,0.016643533519931621,
-0.0237107971887298,0.018821011296333925,
-0.025108823979283011,0.021564793362451307,
-0.025590551181102365,0.024606299212598427,
-0.025108823979283011,0.027647805062745546,
-0.0237107971887298,0.030391587128862925,
-0.021533319412327497,0.032569064905265233,
-0.018789537346210118,0.033967091695818442,
0*
4,1,3,
-0.015748031496062995,-0.034448818897637797,
-0.015748031496062995,-0.014763779527559057,
0.015748031496062995,-0.014763779527559057,
0.015748031496062995,-0.034448818897637797,
0*
4,1,3,
0.025590551181102365,-0.024606299212598427,
0.0059055118110236228,-0.024606299212598427,
0.0059055118110236228,0.024606299212598427,
0.025590551181102365,0.024606299212598427,
0*
4,1,3,
0.015748031496062995,0.034448818897637797,
0.015748031496062995,0.014763779527559057,
-0.015748031496062995,0.014763779527559057,
-0.015748031496062995,0.034448818897637797,
0*
4,1,3,
-0.025590551181102365,0.024606299212598427,
-0.0059055118110236228,0.024606299212598427,
-0.0059055118110236228,-0.024606299212598427,
-0.025590551181102365,-0.024606299212598427,
0*%
%ADD26COMP82,0.25X-0.4X-0.625X0.4X-0.625X0.4X0.625X-0.4X0.625X0*%
%AMCOMP86*
4,1,3,
0.015748031496062995,0.024606299212598427,
-0.015748031496062995,0.024606299212598427,
-0.015748031496062995,-0.024606299212598427,
0.015748031496062995,-0.024606299212598427,
0*
4,1,19,
0.015748031496062995,0.034448818897637797,
0.018789537346210115,0.033967091695818442,
0.02153331941232749,0.032569064905265233,
0.0237107971887298,0.030391587128862928,
0.025108823979283011,0.027647805062745546,
0.025590551181102365,0.024606299212598427,
0.025108823979283011,0.021564793362451307,
0.0237107971887298,0.018821011296333928,
0.021533319412327497,0.016643533519931621,
0.018789537346210115,0.015245506729378409,
0.015748031496062995,0.014763779527559057,
0.012706525645915871,0.015245506729378409,
0.009962743579798497,0.016643533519931621,
0.0077852658033961885,0.018821011296333925,
0.0063872390128429787,0.021564793362451307,
0.0059055118110236228,0.024606299212598427,
0.006387239012842977,0.027647805062745546,
0.0077852658033961868,0.030391587128862925,
0.0099627435797984918,0.032569064905265233,
0.012706525645915871,0.033967091695818442,
0*
4,1,19,
-0.015748031496062995,0.034448818897637797,
-0.012706525645915873,0.033967091695818442,
-0.0099627435797984935,0.032569064905265233,
-0.0077852658033961877,0.030391587128862928,
-0.0063872390128429787,0.027647805062745546,
-0.0059055118110236228,0.024606299212598427,
-0.006387239012842977,0.021564793362451307,
-0.0077852658033961877,0.018821011296333928,
-0.0099627435797984918,0.016643533519931621,
-0.012706525645915873,0.015245506729378409,
-0.015748031496062992,0.014763779527559057,
-0.018789537346210118,0.015245506729378409,
-0.02153331941232749,0.016643533519931621,
-0.0237107971887298,0.018821011296333925,
-0.025108823979283011,0.021564793362451307,
-0.025590551181102365,0.024606299212598427,
-0.025108823979283011,0.027647805062745546,
-0.0237107971887298,0.030391587128862925,
-0.021533319412327497,0.032569064905265233,
-0.018789537346210118,0.033967091695818442,
0*
4,1,19,
-0.015748031496062995,-0.014763779527559057,
-0.012706525645915873,-0.015245506729378409,
-0.0099627435797984935,-0.016643533519931621,
-0.0077852658033961877,-0.018821011296333928,
-0.0063872390128429787,-0.021564793362451307,
-0.0059055118110236228,-0.024606299212598427,
-0.006387239012842977,-0.027647805062745546,
-0.0077852658033961877,-0.030391587128862925,
-0.0099627435797984918,-0.032569064905265233,
-0.012706525645915873,-0.033967091695818442,
-0.015748031496062992,-0.034448818897637797,
-0.018789537346210118,-0.033967091695818442,
-0.02153331941232749,-0.032569064905265233,
-0.0237107971887298,-0.030391587128862928,
-0.025108823979283011,-0.027647805062745546,
-0.025590551181102365,-0.024606299212598427,
-0.025108823979283011,-0.021564793362451307,
-0.0237107971887298,-0.018821011296333928,
-0.021533319412327497,-0.016643533519931621,
-0.018789537346210118,-0.015245506729378409,
0*
4,1,19,
0.015748031496062995,-0.014763779527559057,
0.018789537346210115,-0.015245506729378409,
0.02153331941232749,-0.016643533519931621,
0.0237107971887298,-0.018821011296333928,
0.025108823979283011,-0.021564793362451307,
0.025590551181102365,-0.024606299212598427,
0.025108823979283011,-0.027647805062745546,
0.0237107971887298,-0.030391587128862925,
0.021533319412327497,-0.032569064905265233,
0.018789537346210115,-0.033967091695818442,
0.015748031496062995,-0.034448818897637797,
0.012706525645915871,-0.033967091695818442,
0.009962743579798497,-0.032569064905265233,
0.0077852658033961885,-0.030391587128862928,
0.0063872390128429787,-0.027647805062745546,
0.0059055118110236228,-0.024606299212598427,
0.006387239012842977,-0.021564793362451307,
0.0077852658033961868,-0.018821011296333928,
0.0099627435797984918,-0.016643533519931621,
0.012706525645915871,-0.015245506729378409,
0*
4,1,3,
0.015748031496062995,0.034448818897637797,
0.015748031496062995,0.014763779527559057,
-0.015748031496062995,0.014763779527559057,
-0.015748031496062995,0.034448818897637797,
0*
4,1,3,
-0.025590551181102365,0.024606299212598427,
-0.0059055118110236228,0.024606299212598427,
-0.0059055118110236228,-0.024606299212598427,
-0.025590551181102365,-0.024606299212598427,
0*
4,1,3,
-0.015748031496062995,-0.034448818897637797,
-0.015748031496062995,-0.014763779527559057,
0.015748031496062995,-0.014763779527559057,
0.015748031496062995,-0.034448818897637797,
0*
4,1,3,
0.025590551181102365,-0.024606299212598427,
0.0059055118110236228,-0.024606299212598427,
0.0059055118110236228,0.024606299212598427,
0.025590551181102365,0.024606299212598427,
0*%
%ADD27COMP86,0.25X0.4X0.625X-0.4X0.625X-0.4X-0.625X0.4X-0.625X0*%
%ADD28R,0.043307086614173235X0.043307086614173235*%
%ADD29R,0.074803149606299218X0.031496062992125991*%
%AMCOMP90*
4,1,3,
-0.015748031496062995,-0.024606299212598427,
0.015748031496062995,-0.024606299212598427,
0.015748031496062995,0.024606299212598427,
-0.015748031496062995,0.024606299212598427,
0*
4,1,19,
-0.015748031496062995,-0.014763779527559057,
-0.012706525645915873,-0.015245506729378409,
-0.0099627435797984935,-0.016643533519931621,
-0.0077852658033961877,-0.018821011296333928,
-0.0063872390128429787,-0.021564793362451307,
-0.0059055118110236228,-0.024606299212598427,
-0.006387239012842977,-0.027647805062745546,
-0.0077852658033961877,-0.030391587128862925,
-0.0099627435797984918,-0.032569064905265233,
-0.012706525645915873,-0.033967091695818442,
-0.015748031496062992,-0.034448818897637797,
-0.018789537346210118,-0.033967091695818442,
-0.02153331941232749,-0.032569064905265233,
-0.0237107971887298,-0.030391587128862928,
-0.025108823979283011,-0.027647805062745546,
-0.025590551181102365,-0.024606299212598427,
-0.025108823979283011,-0.021564793362451307,
-0.0237107971887298,-0.018821011296333928,
-0.021533319412327497,-0.016643533519931621,
-0.018789537346210118,-0.015245506729378409,
0*
4,1,19,
0.015748031496062995,-0.014763779527559057,
0.018789537346210115,-0.015245506729378409,
0.02153331941232749,-0.016643533519931621,
0.0237107971887298,-0.018821011296333928,
0.025108823979283011,-0.021564793362451307,
0.025590551181102365,-0.024606299212598427,
0.025108823979283011,-0.027647805062745546,
0.0237107971887298,-0.030391587128862925,
0.021533319412327497,-0.032569064905265233,
0.018789537346210115,-0.033967091695818442,
0.015748031496062995,-0.034448818897637797,
0.012706525645915871,-0.033967091695818442,
0.009962743579798497,-0.032569064905265233,
0.0077852658033961885,-0.030391587128862928,
0.0063872390128429787,-0.027647805062745546,
0.0059055118110236228,-0.024606299212598427,
0.006387239012842977,-0.021564793362451307,
0.0077852658033961868,-0.018821011296333928,
0.0099627435797984918,-0.016643533519931621,
0.012706525645915871,-0.015245506729378409,
0*
4,1,19,
0.015748031496062995,0.034448818897637797,
0.018789537346210115,0.033967091695818442,
0.02153331941232749,0.032569064905265233,
0.0237107971887298,0.030391587128862928,
0.025108823979283011,0.027647805062745546,
0.025590551181102365,0.024606299212598427,
0.025108823979283011,0.021564793362451307,
0.0237107971887298,0.018821011296333928,
0.021533319412327497,0.016643533519931621,
0.018789537346210115,0.015245506729378409,
0.015748031496062995,0.014763779527559057,
0.012706525645915871,0.015245506729378409,
0.009962743579798497,0.016643533519931621,
0.0077852658033961885,0.018821011296333925,
0.0063872390128429787,0.021564793362451307,
0.0059055118110236228,0.024606299212598427,
0.006387239012842977,0.027647805062745546,
0.0077852658033961868,0.030391587128862925,
0.0099627435797984918,0.032569064905265233,
0.012706525645915871,0.033967091695818442,
0*
4,1,19,
-0.015748031496062995,0.034448818897637797,
-0.012706525645915873,0.033967091695818442,
-0.0099627435797984935,0.032569064905265233,
-0.0077852658033961877,0.030391587128862928,
-0.0063872390128429787,0.027647805062745546,
-0.0059055118110236228,0.024606299212598427,
-0.006387239012842977,0.021564793362451307,
-0.0077852658033961877,0.018821011296333928,
-0.0099627435797984918,0.016643533519931621,
-0.012706525645915873,0.015245506729378409,
-0.015748031496062992,0.014763779527559057,
-0.018789537346210118,0.015245506729378409,
-0.02153331941232749,0.016643533519931621,
-0.0237107971887298,0.018821011296333925,
-0.025108823979283011,0.021564793362451307,
-0.025590551181102365,0.024606299212598427,
-0.025108823979283011,0.027647805062745546,
-0.0237107971887298,0.030391587128862925,
-0.021533319412327497,0.032569064905265233,
-0.018789537346210118,0.033967091695818442,
0*
4,1,3,
-0.015748031496062995,-0.034448818897637797,
-0.015748031496062995,-0.014763779527559057,
0.015748031496062995,-0.014763779527559057,
0.015748031496062995,-0.034448818897637797,
0*
4,1,3,
0.025590551181102365,-0.024606299212598427,
0.0059055118110236228,-0.024606299212598427,
0.0059055118110236228,0.024606299212598427,
0.025590551181102365,0.024606299212598427,
0*
4,1,3,
0.015748031496062995,0.034448818897637797,
0.015748031496062995,0.014763779527559057,
-0.015748031496062995,0.014763779527559057,
-0.015748031496062995,0.034448818897637797,
0*
4,1,3,
-0.025590551181102365,0.024606299212598427,
-0.0059055118110236228,0.024606299212598427,
-0.0059055118110236228,-0.024606299212598427,
-0.025590551181102365,-0.024606299212598427,
0*%
%ADD30COMP90,0.25X-0.4X-0.625X0.4X-0.625X0.4X0.625X-0.4X0.625X0*%
%AMCOMP94*
4,1,3,
0.015748031496062995,0.024606299212598427,
-0.015748031496062995,0.024606299212598427,
-0.015748031496062995,-0.024606299212598427,
0.015748031496062995,-0.024606299212598427,
0*
4,1,19,
0.015748031496062995,0.034448818897637797,
0.018789537346210115,0.033967091695818442,
0.02153331941232749,0.032569064905265233,
0.0237107971887298,0.030391587128862928,
0.025108823979283011,0.027647805062745546,
0.025590551181102365,0.024606299212598427,
0.025108823979283011,0.021564793362451307,
0.0237107971887298,0.018821011296333928,
0.021533319412327497,0.016643533519931621,
0.018789537346210115,0.015245506729378409,
0.015748031496062995,0.014763779527559057,
0.012706525645915871,0.015245506729378409,
0.009962743579798497,0.016643533519931621,
0.0077852658033961885,0.018821011296333925,
0.0063872390128429787,0.021564793362451307,
0.0059055118110236228,0.024606299212598427,
0.006387239012842977,0.027647805062745546,
0.0077852658033961868,0.030391587128862925,
0.0099627435797984918,0.032569064905265233,
0.012706525645915871,0.033967091695818442,
0*
4,1,19,
-0.015748031496062995,0.034448818897637797,
-0.012706525645915873,0.033967091695818442,
-0.0099627435797984935,0.032569064905265233,
-0.0077852658033961877,0.030391587128862928,
-0.0063872390128429787,0.027647805062745546,
-0.0059055118110236228,0.024606299212598427,
-0.006387239012842977,0.021564793362451307,
-0.0077852658033961877,0.018821011296333928,
-0.0099627435797984918,0.016643533519931621,
-0.012706525645915873,0.015245506729378409,
-0.015748031496062992,0.014763779527559057,
-0.018789537346210118,0.015245506729378409,
-0.02153331941232749,0.016643533519931621,
-0.0237107971887298,0.018821011296333925,
-0.025108823979283011,0.021564793362451307,
-0.025590551181102365,0.024606299212598427,
-0.025108823979283011,0.027647805062745546,
-0.0237107971887298,0.030391587128862925,
-0.021533319412327497,0.032569064905265233,
-0.018789537346210118,0.033967091695818442,
0*
4,1,19,
-0.015748031496062995,-0.014763779527559057,
-0.012706525645915873,-0.015245506729378409,
-0.0099627435797984935,-0.016643533519931621,
-0.0077852658033961877,-0.018821011296333928,
-0.0063872390128429787,-0.021564793362451307,
-0.0059055118110236228,-0.024606299212598427,
-0.006387239012842977,-0.027647805062745546,
-0.0077852658033961877,-0.030391587128862925,
-0.0099627435797984918,-0.032569064905265233,
-0.012706525645915873,-0.033967091695818442,
-0.015748031496062992,-0.034448818897637797,
-0.018789537346210118,-0.033967091695818442,
-0.02153331941232749,-0.032569064905265233,
-0.0237107971887298,-0.030391587128862928,
-0.025108823979283011,-0.027647805062745546,
-0.025590551181102365,-0.024606299212598427,
-0.025108823979283011,-0.021564793362451307,
-0.0237107971887298,-0.018821011296333928,
-0.021533319412327497,-0.016643533519931621,
-0.018789537346210118,-0.015245506729378409,
0*
4,1,19,
0.015748031496062995,-0.014763779527559057,
0.018789537346210115,-0.015245506729378409,
0.02153331941232749,-0.016643533519931621,
0.0237107971887298,-0.018821011296333928,
0.025108823979283011,-0.021564793362451307,
0.025590551181102365,-0.024606299212598427,
0.025108823979283011,-0.027647805062745546,
0.0237107971887298,-0.030391587128862925,
0.021533319412327497,-0.032569064905265233,
0.018789537346210115,-0.033967091695818442,
0.015748031496062995,-0.034448818897637797,
0.012706525645915871,-0.033967091695818442,
0.009962743579798497,-0.032569064905265233,
0.0077852658033961885,-0.030391587128862928,
0.0063872390128429787,-0.027647805062745546,
0.0059055118110236228,-0.024606299212598427,
0.006387239012842977,-0.021564793362451307,
0.0077852658033961868,-0.018821011296333928,
0.0099627435797984918,-0.016643533519931621,
0.012706525645915871,-0.015245506729378409,
0*
4,1,3,
0.015748031496062995,0.034448818897637797,
0.015748031496062995,0.014763779527559057,
-0.015748031496062995,0.014763779527559057,
-0.015748031496062995,0.034448818897637797,
0*
4,1,3,
-0.025590551181102365,0.024606299212598427,
-0.0059055118110236228,0.024606299212598427,
-0.0059055118110236228,-0.024606299212598427,
-0.025590551181102365,-0.024606299212598427,
0*
4,1,3,
-0.015748031496062995,-0.034448818897637797,
-0.015748031496062995,-0.014763779527559057,
0.015748031496062995,-0.014763779527559057,
0.015748031496062995,-0.034448818897637797,
0*
4,1,3,
0.025590551181102365,-0.024606299212598427,
0.0059055118110236228,-0.024606299212598427,
0.0059055118110236228,0.024606299212598427,
0.025590551181102365,0.024606299212598427,
0*%
%ADD31COMP94,0.25X0.4X0.625X-0.4X0.625X-0.4X-0.625X0.4X-0.625X0*%
%ADD32R,0.043307086614173235X0.043307086614173235*%
%ADD33R,0.074803149606299218X0.031496062992125991*%
%AMCOMP98*
4,1,3,
-0.015748031496062995,-0.024606299212598427,
0.015748031496062995,-0.024606299212598427,
0.015748031496062995,0.024606299212598427,
-0.015748031496062995,0.024606299212598427,
0*
4,1,19,
-0.015748031496062995,-0.014763779527559057,
-0.012706525645915873,-0.015245506729378409,
-0.0099627435797984935,-0.016643533519931621,
-0.0077852658033961877,-0.018821011296333928,
-0.0063872390128429787,-0.021564793362451307,
-0.0059055118110236228,-0.024606299212598427,
-0.006387239012842977,-0.027647805062745546,
-0.0077852658033961877,-0.030391587128862925,
-0.0099627435797984918,-0.032569064905265233,
-0.012706525645915873,-0.033967091695818442,
-0.015748031496062992,-0.034448818897637797,
-0.018789537346210118,-0.033967091695818442,
-0.02153331941232749,-0.032569064905265233,
-0.0237107971887298,-0.030391587128862928,
-0.025108823979283011,-0.027647805062745546,
-0.025590551181102365,-0.024606299212598427,
-0.025108823979283011,-0.021564793362451307,
-0.0237107971887298,-0.018821011296333928,
-0.021533319412327497,-0.016643533519931621,
-0.018789537346210118,-0.015245506729378409,
0*
4,1,19,
0.015748031496062995,-0.014763779527559057,
0.018789537346210115,-0.015245506729378409,
0.02153331941232749,-0.016643533519931621,
0.0237107971887298,-0.018821011296333928,
0.025108823979283011,-0.021564793362451307,
0.025590551181102365,-0.024606299212598427,
0.025108823979283011,-0.027647805062745546,
0.0237107971887298,-0.030391587128862925,
0.021533319412327497,-0.032569064905265233,
0.018789537346210115,-0.033967091695818442,
0.015748031496062995,-0.034448818897637797,
0.012706525645915871,-0.033967091695818442,
0.009962743579798497,-0.032569064905265233,
0.0077852658033961885,-0.030391587128862928,
0.0063872390128429787,-0.027647805062745546,
0.0059055118110236228,-0.024606299212598427,
0.006387239012842977,-0.021564793362451307,
0.0077852658033961868,-0.018821011296333928,
0.0099627435797984918,-0.016643533519931621,
0.012706525645915871,-0.015245506729378409,
0*
4,1,19,
0.015748031496062995,0.034448818897637797,
0.018789537346210115,0.033967091695818442,
0.02153331941232749,0.032569064905265233,
0.0237107971887298,0.030391587128862928,
0.025108823979283011,0.027647805062745546,
0.025590551181102365,0.024606299212598427,
0.025108823979283011,0.021564793362451307,
0.0237107971887298,0.018821011296333928,
0.021533319412327497,0.016643533519931621,
0.018789537346210115,0.015245506729378409,
0.015748031496062995,0.014763779527559057,
0.012706525645915871,0.015245506729378409,
0.009962743579798497,0.016643533519931621,
0.0077852658033961885,0.018821011296333925,
0.0063872390128429787,0.021564793362451307,
0.0059055118110236228,0.024606299212598427,
0.006387239012842977,0.027647805062745546,
0.0077852658033961868,0.030391587128862925,
0.0099627435797984918,0.032569064905265233,
0.012706525645915871,0.033967091695818442,
0*
4,1,19,
-0.015748031496062995,0.034448818897637797,
-0.012706525645915873,0.033967091695818442,
-0.0099627435797984935,0.032569064905265233,
-0.0077852658033961877,0.030391587128862928,
-0.0063872390128429787,0.027647805062745546,
-0.0059055118110236228,0.024606299212598427,
-0.006387239012842977,0.021564793362451307,
-0.0077852658033961877,0.018821011296333928,
-0.0099627435797984918,0.016643533519931621,
-0.012706525645915873,0.015245506729378409,
-0.015748031496062992,0.014763779527559057,
-0.018789537346210118,0.015245506729378409,
-0.02153331941232749,0.016643533519931621,
-0.0237107971887298,0.018821011296333925,
-0.025108823979283011,0.021564793362451307,
-0.025590551181102365,0.024606299212598427,
-0.025108823979283011,0.027647805062745546,
-0.0237107971887298,0.030391587128862925,
-0.021533319412327497,0.032569064905265233,
-0.018789537346210118,0.033967091695818442,
0*
4,1,3,
-0.015748031496062995,-0.034448818897637797,
-0.015748031496062995,-0.014763779527559057,
0.015748031496062995,-0.014763779527559057,
0.015748031496062995,-0.034448818897637797,
0*
4,1,3,
0.025590551181102365,-0.024606299212598427,
0.0059055118110236228,-0.024606299212598427,
0.0059055118110236228,0.024606299212598427,
0.025590551181102365,0.024606299212598427,
0*
4,1,3,
0.015748031496062995,0.034448818897637797,
0.015748031496062995,0.014763779527559057,
-0.015748031496062995,0.014763779527559057,
-0.015748031496062995,0.034448818897637797,
0*
4,1,3,
-0.025590551181102365,0.024606299212598427,
-0.0059055118110236228,0.024606299212598427,
-0.0059055118110236228,-0.024606299212598427,
-0.025590551181102365,-0.024606299212598427,
0*%
%ADD34COMP98,0.25X-0.4X-0.625X0.4X-0.625X0.4X0.625X-0.4X0.625X0*%
%AMCOMP102*
4,1,3,
0.015748031496062995,0.024606299212598427,
-0.015748031496062995,0.024606299212598427,
-0.015748031496062995,-0.024606299212598427,
0.015748031496062995,-0.024606299212598427,
0*
4,1,19,
0.015748031496062995,0.034448818897637797,
0.018789537346210115,0.033967091695818442,
0.02153331941232749,0.032569064905265233,
0.0237107971887298,0.030391587128862928,
0.025108823979283011,0.027647805062745546,
0.025590551181102365,0.024606299212598427,
0.025108823979283011,0.021564793362451307,
0.0237107971887298,0.018821011296333928,
0.021533319412327497,0.016643533519931621,
0.018789537346210115,0.015245506729378409,
0.015748031496062995,0.014763779527559057,
0.012706525645915871,0.015245506729378409,
0.009962743579798497,0.016643533519931621,
0.0077852658033961885,0.018821011296333925,
0.0063872390128429787,0.021564793362451307,
0.0059055118110236228,0.024606299212598427,
0.006387239012842977,0.027647805062745546,
0.0077852658033961868,0.030391587128862925,
0.0099627435797984918,0.032569064905265233,
0.012706525645915871,0.033967091695818442,
0*
4,1,19,
-0.015748031496062995,0.034448818897637797,
-0.012706525645915873,0.033967091695818442,
-0.0099627435797984935,0.032569064905265233,
-0.0077852658033961877,0.030391587128862928,
-0.0063872390128429787,0.027647805062745546,
-0.0059055118110236228,0.024606299212598427,
-0.006387239012842977,0.021564793362451307,
-0.0077852658033961877,0.018821011296333928,
-0.0099627435797984918,0.016643533519931621,
-0.012706525645915873,0.015245506729378409,
-0.015748031496062992,0.014763779527559057,
-0.018789537346210118,0.015245506729378409,
-0.02153331941232749,0.016643533519931621,
-0.0237107971887298,0.018821011296333925,
-0.025108823979283011,0.021564793362451307,
-0.025590551181102365,0.024606299212598427,
-0.025108823979283011,0.027647805062745546,
-0.0237107971887298,0.030391587128862925,
-0.021533319412327497,0.032569064905265233,
-0.018789537346210118,0.033967091695818442,
0*
4,1,19,
-0.015748031496062995,-0.014763779527559057,
-0.012706525645915873,-0.015245506729378409,
-0.0099627435797984935,-0.016643533519931621,
-0.0077852658033961877,-0.018821011296333928,
-0.0063872390128429787,-0.021564793362451307,
-0.0059055118110236228,-0.024606299212598427,
-0.006387239012842977,-0.027647805062745546,
-0.0077852658033961877,-0.030391587128862925,
-0.0099627435797984918,-0.032569064905265233,
-0.012706525645915873,-0.033967091695818442,
-0.015748031496062992,-0.034448818897637797,
-0.018789537346210118,-0.033967091695818442,
-0.02153331941232749,-0.032569064905265233,
-0.0237107971887298,-0.030391587128862928,
-0.025108823979283011,-0.027647805062745546,
-0.025590551181102365,-0.024606299212598427,
-0.025108823979283011,-0.021564793362451307,
-0.0237107971887298,-0.018821011296333928,
-0.021533319412327497,-0.016643533519931621,
-0.018789537346210118,-0.015245506729378409,
0*
4,1,19,
0.015748031496062995,-0.014763779527559057,
0.018789537346210115,-0.015245506729378409,
0.02153331941232749,-0.016643533519931621,
0.0237107971887298,-0.018821011296333928,
0.025108823979283011,-0.021564793362451307,
0.025590551181102365,-0.024606299212598427,
0.025108823979283011,-0.027647805062745546,
0.0237107971887298,-0.030391587128862925,
0.021533319412327497,-0.032569064905265233,
0.018789537346210115,-0.033967091695818442,
0.015748031496062995,-0.034448818897637797,
0.012706525645915871,-0.033967091695818442,
0.009962743579798497,-0.032569064905265233,
0.0077852658033961885,-0.030391587128862928,
0.0063872390128429787,-0.027647805062745546,
0.0059055118110236228,-0.024606299212598427,
0.006387239012842977,-0.021564793362451307,
0.0077852658033961868,-0.018821011296333928,
0.0099627435797984918,-0.016643533519931621,
0.012706525645915871,-0.015245506729378409,
0*
4,1,3,
0.015748031496062995,0.034448818897637797,
0.015748031496062995,0.014763779527559057,
-0.015748031496062995,0.014763779527559057,
-0.015748031496062995,0.034448818897637797,
0*
4,1,3,
-0.025590551181102365,0.024606299212598427,
-0.0059055118110236228,0.024606299212598427,
-0.0059055118110236228,-0.024606299212598427,
-0.025590551181102365,-0.024606299212598427,
0*
4,1,3,
-0.015748031496062995,-0.034448818897637797,
-0.015748031496062995,-0.014763779527559057,
0.015748031496062995,-0.014763779527559057,
0.015748031496062995,-0.034448818897637797,
0*
4,1,3,
0.025590551181102365,-0.024606299212598427,
0.0059055118110236228,-0.024606299212598427,
0.0059055118110236228,0.024606299212598427,
0.025590551181102365,0.024606299212598427,
0*%
%ADD35COMP102,0.25X0.4X0.625X-0.4X0.625X-0.4X-0.625X0.4X-0.625X0*%
%ADD36R,0.043307086614173235X0.043307086614173235*%
%ADD37R,0.074803149606299218X0.031496062992125991*%
%AMCOMP106*
4,1,3,
-0.015748031496062995,-0.024606299212598427,
0.015748031496062995,-0.024606299212598427,
0.015748031496062995,0.024606299212598427,
-0.015748031496062995,0.024606299212598427,
0*
4,1,19,
-0.015748031496062995,-0.014763779527559057,
-0.012706525645915873,-0.015245506729378409,
-0.0099627435797984935,-0.016643533519931621,
-0.0077852658033961877,-0.018821011296333928,
-0.0063872390128429787,-0.021564793362451307,
-0.0059055118110236228,-0.024606299212598427,
-0.006387239012842977,-0.027647805062745546,
-0.0077852658033961877,-0.030391587128862925,
-0.0099627435797984918,-0.032569064905265233,
-0.012706525645915873,-0.033967091695818442,
-0.015748031496062992,-0.034448818897637797,
-0.018789537346210118,-0.033967091695818442,
-0.02153331941232749,-0.032569064905265233,
-0.0237107971887298,-0.030391587128862928,
-0.025108823979283011,-0.027647805062745546,
-0.025590551181102365,-0.024606299212598427,
-0.025108823979283011,-0.021564793362451307,
-0.0237107971887298,-0.018821011296333928,
-0.021533319412327497,-0.016643533519931621,
-0.018789537346210118,-0.015245506729378409,
0*
4,1,19,
0.015748031496062995,-0.014763779527559057,
0.018789537346210115,-0.015245506729378409,
0.02153331941232749,-0.016643533519931621,
0.0237107971887298,-0.018821011296333928,
0.025108823979283011,-0.021564793362451307,
0.025590551181102365,-0.024606299212598427,
0.025108823979283011,-0.027647805062745546,
0.0237107971887298,-0.030391587128862925,
0.021533319412327497,-0.032569064905265233,
0.018789537346210115,-0.033967091695818442,
0.015748031496062995,-0.034448818897637797,
0.012706525645915871,-0.033967091695818442,
0.009962743579798497,-0.032569064905265233,
0.0077852658033961885,-0.030391587128862928,
0.0063872390128429787,-0.027647805062745546,
0.0059055118110236228,-0.024606299212598427,
0.006387239012842977,-0.021564793362451307,
0.0077852658033961868,-0.018821011296333928,
0.0099627435797984918,-0.016643533519931621,
0.012706525645915871,-0.015245506729378409,
0*
4,1,19,
0.015748031496062995,0.034448818897637797,
0.018789537346210115,0.033967091695818442,
0.02153331941232749,0.032569064905265233,
0.0237107971887298,0.030391587128862928,
0.025108823979283011,0.027647805062745546,
0.025590551181102365,0.024606299212598427,
0.025108823979283011,0.021564793362451307,
0.0237107971887298,0.018821011296333928,
0.021533319412327497,0.016643533519931621,
0.018789537346210115,0.015245506729378409,
0.015748031496062995,0.014763779527559057,
0.012706525645915871,0.015245506729378409,
0.009962743579798497,0.016643533519931621,
0.0077852658033961885,0.018821011296333925,
0.0063872390128429787,0.021564793362451307,
0.0059055118110236228,0.024606299212598427,
0.006387239012842977,0.027647805062745546,
0.0077852658033961868,0.030391587128862925,
0.0099627435797984918,0.032569064905265233,
0.012706525645915871,0.033967091695818442,
0*
4,1,19,
-0.015748031496062995,0.034448818897637797,
-0.012706525645915873,0.033967091695818442,
-0.0099627435797984935,0.032569064905265233,
-0.0077852658033961877,0.030391587128862928,
-0.0063872390128429787,0.027647805062745546,
-0.0059055118110236228,0.024606299212598427,
-0.006387239012842977,0.021564793362451307,
-0.0077852658033961877,0.018821011296333928,
-0.0099627435797984918,0.016643533519931621,
-0.012706525645915873,0.015245506729378409,
-0.015748031496062992,0.014763779527559057,
-0.018789537346210118,0.015245506729378409,
-0.02153331941232749,0.016643533519931621,
-0.0237107971887298,0.018821011296333925,
-0.025108823979283011,0.021564793362451307,
-0.025590551181102365,0.024606299212598427,
-0.025108823979283011,0.027647805062745546,
-0.0237107971887298,0.030391587128862925,
-0.021533319412327497,0.032569064905265233,
-0.018789537346210118,0.033967091695818442,
0*
4,1,3,
-0.015748031496062995,-0.034448818897637797,
-0.015748031496062995,-0.014763779527559057,
0.015748031496062995,-0.014763779527559057,
0.015748031496062995,-0.034448818897637797,
0*
4,1,3,
0.025590551181102365,-0.024606299212598427,
0.0059055118110236228,-0.024606299212598427,
0.0059055118110236228,0.024606299212598427,
0.025590551181102365,0.024606299212598427,
0*
4,1,3,
0.015748031496062995,0.034448818897637797,
0.015748031496062995,0.014763779527559057,
-0.015748031496062995,0.014763779527559057,
-0.015748031496062995,0.034448818897637797,
0*
4,1,3,
-0.025590551181102365,0.024606299212598427,
-0.0059055118110236228,0.024606299212598427,
-0.0059055118110236228,-0.024606299212598427,
-0.025590551181102365,-0.024606299212598427,
0*%
%ADD38COMP106,0.25X-0.4X-0.625X0.4X-0.625X0.4X0.625X-0.4X0.625X0*%
%AMCOMP110*
4,1,3,
0.015748031496062995,0.024606299212598427,
-0.015748031496062995,0.024606299212598427,
-0.015748031496062995,-0.024606299212598427,
0.015748031496062995,-0.024606299212598427,
0*
4,1,19,
0.015748031496062995,0.034448818897637797,
0.018789537346210115,0.033967091695818442,
0.02153331941232749,0.032569064905265233,
0.0237107971887298,0.030391587128862928,
0.025108823979283011,0.027647805062745546,
0.025590551181102365,0.024606299212598427,
0.025108823979283011,0.021564793362451307,
0.0237107971887298,0.018821011296333928,
0.021533319412327497,0.016643533519931621,
0.018789537346210115,0.015245506729378409,
0.015748031496062995,0.014763779527559057,
0.012706525645915871,0.015245506729378409,
0.009962743579798497,0.016643533519931621,
0.0077852658033961885,0.018821011296333925,
0.0063872390128429787,0.021564793362451307,
0.0059055118110236228,0.024606299212598427,
0.006387239012842977,0.027647805062745546,
0.0077852658033961868,0.030391587128862925,
0.0099627435797984918,0.032569064905265233,
0.012706525645915871,0.033967091695818442,
0*
4,1,19,
-0.015748031496062995,0.034448818897637797,
-0.012706525645915873,0.033967091695818442,
-0.0099627435797984935,0.032569064905265233,
-0.0077852658033961877,0.030391587128862928,
-0.0063872390128429787,0.027647805062745546,
-0.0059055118110236228,0.024606299212598427,
-0.006387239012842977,0.021564793362451307,
-0.0077852658033961877,0.018821011296333928,
-0.0099627435797984918,0.016643533519931621,
-0.012706525645915873,0.015245506729378409,
-0.015748031496062992,0.014763779527559057,
-0.018789537346210118,0.015245506729378409,
-0.02153331941232749,0.016643533519931621,
-0.0237107971887298,0.018821011296333925,
-0.025108823979283011,0.021564793362451307,
-0.025590551181102365,0.024606299212598427,
-0.025108823979283011,0.027647805062745546,
-0.0237107971887298,0.030391587128862925,
-0.021533319412327497,0.032569064905265233,
-0.018789537346210118,0.033967091695818442,
0*
4,1,19,
-0.015748031496062995,-0.014763779527559057,
-0.012706525645915873,-0.015245506729378409,
-0.0099627435797984935,-0.016643533519931621,
-0.0077852658033961877,-0.018821011296333928,
-0.0063872390128429787,-0.021564793362451307,
-0.0059055118110236228,-0.024606299212598427,
-0.006387239012842977,-0.027647805062745546,
-0.0077852658033961877,-0.030391587128862925,
-0.0099627435797984918,-0.032569064905265233,
-0.012706525645915873,-0.033967091695818442,
-0.015748031496062992,-0.034448818897637797,
-0.018789537346210118,-0.033967091695818442,
-0.02153331941232749,-0.032569064905265233,
-0.0237107971887298,-0.030391587128862928,
-0.025108823979283011,-0.027647805062745546,
-0.025590551181102365,-0.024606299212598427,
-0.025108823979283011,-0.021564793362451307,
-0.0237107971887298,-0.018821011296333928,
-0.021533319412327497,-0.016643533519931621,
-0.018789537346210118,-0.015245506729378409,
0*
4,1,19,
0.015748031496062995,-0.014763779527559057,
0.018789537346210115,-0.015245506729378409,
0.02153331941232749,-0.016643533519931621,
0.0237107971887298,-0.018821011296333928,
0.025108823979283011,-0.021564793362451307,
0.025590551181102365,-0.024606299212598427,
0.025108823979283011,-0.027647805062745546,
0.0237107971887298,-0.030391587128862925,
0.021533319412327497,-0.032569064905265233,
0.018789537346210115,-0.033967091695818442,
0.015748031496062995,-0.034448818897637797,
0.012706525645915871,-0.033967091695818442,
0.009962743579798497,-0.032569064905265233,
0.0077852658033961885,-0.030391587128862928,
0.0063872390128429787,-0.027647805062745546,
0.0059055118110236228,-0.024606299212598427,
0.006387239012842977,-0.021564793362451307,
0.0077852658033961868,-0.018821011296333928,
0.0099627435797984918,-0.016643533519931621,
0.012706525645915871,-0.015245506729378409,
0*
4,1,3,
0.015748031496062995,0.034448818897637797,
0.015748031496062995,0.014763779527559057,
-0.015748031496062995,0.014763779527559057,
-0.015748031496062995,0.034448818897637797,
0*
4,1,3,
-0.025590551181102365,0.024606299212598427,
-0.0059055118110236228,0.024606299212598427,
-0.0059055118110236228,-0.024606299212598427,
-0.025590551181102365,-0.024606299212598427,
0*
4,1,3,
-0.015748031496062995,-0.034448818897637797,
-0.015748031496062995,-0.014763779527559057,
0.015748031496062995,-0.014763779527559057,
0.015748031496062995,-0.034448818897637797,
0*
4,1,3,
0.025590551181102365,-0.024606299212598427,
0.0059055118110236228,-0.024606299212598427,
0.0059055118110236228,0.024606299212598427,
0.025590551181102365,0.024606299212598427,
0*%
%ADD39COMP110,0.25X0.4X0.625X-0.4X0.625X-0.4X-0.625X0.4X-0.625X0*%
%ADD40R,0.043307086614173235X0.043307086614173235*%
%ADD41R,0.074803149606299218X0.031496062992125991*%
%AMCOMP114*
4,1,3,
-0.015748031496062995,-0.024606299212598427,
0.015748031496062995,-0.024606299212598427,
0.015748031496062995,0.024606299212598427,
-0.015748031496062995,0.024606299212598427,
0*
4,1,19,
-0.015748031496062995,-0.014763779527559057,
-0.012706525645915873,-0.015245506729378409,
-0.0099627435797984935,-0.016643533519931621,
-0.0077852658033961877,-0.018821011296333928,
-0.0063872390128429787,-0.021564793362451307,
-0.0059055118110236228,-0.024606299212598427,
-0.006387239012842977,-0.027647805062745546,
-0.0077852658033961877,-0.030391587128862925,
-0.0099627435797984918,-0.032569064905265233,
-0.012706525645915873,-0.033967091695818442,
-0.015748031496062992,-0.034448818897637797,
-0.018789537346210118,-0.033967091695818442,
-0.02153331941232749,-0.032569064905265233,
-0.0237107971887298,-0.030391587128862928,
-0.025108823979283011,-0.027647805062745546,
-0.025590551181102365,-0.024606299212598427,
-0.025108823979283011,-0.021564793362451307,
-0.0237107971887298,-0.018821011296333928,
-0.021533319412327497,-0.016643533519931621,
-0.018789537346210118,-0.015245506729378409,
0*
4,1,19,
0.015748031496062995,-0.014763779527559057,
0.018789537346210115,-0.015245506729378409,
0.02153331941232749,-0.016643533519931621,
0.0237107971887298,-0.018821011296333928,
0.025108823979283011,-0.021564793362451307,
0.025590551181102365,-0.024606299212598427,
0.025108823979283011,-0.027647805062745546,
0.0237107971887298,-0.030391587128862925,
0.021533319412327497,-0.032569064905265233,
0.018789537346210115,-0.033967091695818442,
0.015748031496062995,-0.034448818897637797,
0.012706525645915871,-0.033967091695818442,
0.009962743579798497,-0.032569064905265233,
0.0077852658033961885,-0.030391587128862928,
0.0063872390128429787,-0.027647805062745546,
0.0059055118110236228,-0.024606299212598427,
0.006387239012842977,-0.021564793362451307,
0.0077852658033961868,-0.018821011296333928,
0.0099627435797984918,-0.016643533519931621,
0.012706525645915871,-0.015245506729378409,
0*
4,1,19,
0.015748031496062995,0.034448818897637797,
0.018789537346210115,0.033967091695818442,
0.02153331941232749,0.032569064905265233,
0.0237107971887298,0.030391587128862928,
0.025108823979283011,0.027647805062745546,
0.025590551181102365,0.024606299212598427,
0.025108823979283011,0.021564793362451307,
0.0237107971887298,0.018821011296333928,
0.021533319412327497,0.016643533519931621,
0.018789537346210115,0.015245506729378409,
0.015748031496062995,0.014763779527559057,
0.012706525645915871,0.015245506729378409,
0.009962743579798497,0.016643533519931621,
0.0077852658033961885,0.018821011296333925,
0.0063872390128429787,0.021564793362451307,
0.0059055118110236228,0.024606299212598427,
0.006387239012842977,0.027647805062745546,
0.0077852658033961868,0.030391587128862925,
0.0099627435797984918,0.032569064905265233,
0.012706525645915871,0.033967091695818442,
0*
4,1,19,
-0.015748031496062995,0.034448818897637797,
-0.012706525645915873,0.033967091695818442,
-0.0099627435797984935,0.032569064905265233,
-0.0077852658033961877,0.030391587128862928,
-0.0063872390128429787,0.027647805062745546,
-0.0059055118110236228,0.024606299212598427,
-0.006387239012842977,0.021564793362451307,
-0.0077852658033961877,0.018821011296333928,
-0.0099627435797984918,0.016643533519931621,
-0.012706525645915873,0.015245506729378409,
-0.015748031496062992,0.014763779527559057,
-0.018789537346210118,0.015245506729378409,
-0.02153331941232749,0.016643533519931621,
-0.0237107971887298,0.018821011296333925,
-0.025108823979283011,0.021564793362451307,
-0.025590551181102365,0.024606299212598427,
-0.025108823979283011,0.027647805062745546,
-0.0237107971887298,0.030391587128862925,
-0.021533319412327497,0.032569064905265233,
-0.018789537346210118,0.033967091695818442,
0*
4,1,3,
-0.015748031496062995,-0.034448818897637797,
-0.015748031496062995,-0.014763779527559057,
0.015748031496062995,-0.014763779527559057,
0.015748031496062995,-0.034448818897637797,
0*
4,1,3,
0.025590551181102365,-0.024606299212598427,
0.0059055118110236228,-0.024606299212598427,
0.0059055118110236228,0.024606299212598427,
0.025590551181102365,0.024606299212598427,
0*
4,1,3,
0.015748031496062995,0.034448818897637797,
0.015748031496062995,0.014763779527559057,
-0.015748031496062995,0.014763779527559057,
-0.015748031496062995,0.034448818897637797,
0*
4,1,3,
-0.025590551181102365,0.024606299212598427,
-0.0059055118110236228,0.024606299212598427,
-0.0059055118110236228,-0.024606299212598427,
-0.025590551181102365,-0.024606299212598427,
0*%
%ADD42COMP114,0.25X-0.4X-0.625X0.4X-0.625X0.4X0.625X-0.4X0.625X0*%
%AMCOMP118*
4,1,3,
0.015748031496062995,0.024606299212598427,
-0.015748031496062995,0.024606299212598427,
-0.015748031496062995,-0.024606299212598427,
0.015748031496062995,-0.024606299212598427,
0*
4,1,19,
0.015748031496062995,0.034448818897637797,
0.018789537346210115,0.033967091695818442,
0.02153331941232749,0.032569064905265233,
0.0237107971887298,0.030391587128862928,
0.025108823979283011,0.027647805062745546,
0.025590551181102365,0.024606299212598427,
0.025108823979283011,0.021564793362451307,
0.0237107971887298,0.018821011296333928,
0.021533319412327497,0.016643533519931621,
0.018789537346210115,0.015245506729378409,
0.015748031496062995,0.014763779527559057,
0.012706525645915871,0.015245506729378409,
0.009962743579798497,0.016643533519931621,
0.0077852658033961885,0.018821011296333925,
0.0063872390128429787,0.021564793362451307,
0.0059055118110236228,0.024606299212598427,
0.006387239012842977,0.027647805062745546,
0.0077852658033961868,0.030391587128862925,
0.0099627435797984918,0.032569064905265233,
0.012706525645915871,0.033967091695818442,
0*
4,1,19,
-0.015748031496062995,0.034448818897637797,
-0.012706525645915873,0.033967091695818442,
-0.0099627435797984935,0.032569064905265233,
-0.0077852658033961877,0.030391587128862928,
-0.0063872390128429787,0.027647805062745546,
-0.0059055118110236228,0.024606299212598427,
-0.006387239012842977,0.021564793362451307,
-0.0077852658033961877,0.018821011296333928,
-0.0099627435797984918,0.016643533519931621,
-0.012706525645915873,0.015245506729378409,
-0.015748031496062992,0.014763779527559057,
-0.018789537346210118,0.015245506729378409,
-0.02153331941232749,0.016643533519931621,
-0.0237107971887298,0.018821011296333925,
-0.025108823979283011,0.021564793362451307,
-0.025590551181102365,0.024606299212598427,
-0.025108823979283011,0.027647805062745546,
-0.0237107971887298,0.030391587128862925,
-0.021533319412327497,0.032569064905265233,
-0.018789537346210118,0.033967091695818442,
0*
4,1,19,
-0.015748031496062995,-0.014763779527559057,
-0.012706525645915873,-0.015245506729378409,
-0.0099627435797984935,-0.016643533519931621,
-0.0077852658033961877,-0.018821011296333928,
-0.0063872390128429787,-0.021564793362451307,
-0.0059055118110236228,-0.024606299212598427,
-0.006387239012842977,-0.027647805062745546,
-0.0077852658033961877,-0.030391587128862925,
-0.0099627435797984918,-0.032569064905265233,
-0.012706525645915873,-0.033967091695818442,
-0.015748031496062992,-0.034448818897637797,
-0.018789537346210118,-0.033967091695818442,
-0.02153331941232749,-0.032569064905265233,
-0.0237107971887298,-0.030391587128862928,
-0.025108823979283011,-0.027647805062745546,
-0.025590551181102365,-0.024606299212598427,
-0.025108823979283011,-0.021564793362451307,
-0.0237107971887298,-0.018821011296333928,
-0.021533319412327497,-0.016643533519931621,
-0.018789537346210118,-0.015245506729378409,
0*
4,1,19,
0.015748031496062995,-0.014763779527559057,
0.018789537346210115,-0.015245506729378409,
0.02153331941232749,-0.016643533519931621,
0.0237107971887298,-0.018821011296333928,
0.025108823979283011,-0.021564793362451307,
0.025590551181102365,-0.024606299212598427,
0.025108823979283011,-0.027647805062745546,
0.0237107971887298,-0.030391587128862925,
0.021533319412327497,-0.032569064905265233,
0.018789537346210115,-0.033967091695818442,
0.015748031496062995,-0.034448818897637797,
0.012706525645915871,-0.033967091695818442,
0.009962743579798497,-0.032569064905265233,
0.0077852658033961885,-0.030391587128862928,
0.0063872390128429787,-0.027647805062745546,
0.0059055118110236228,-0.024606299212598427,
0.006387239012842977,-0.021564793362451307,
0.0077852658033961868,-0.018821011296333928,
0.0099627435797984918,-0.016643533519931621,
0.012706525645915871,-0.015245506729378409,
0*
4,1,3,
0.015748031496062995,0.034448818897637797,
0.015748031496062995,0.014763779527559057,
-0.015748031496062995,0.014763779527559057,
-0.015748031496062995,0.034448818897637797,
0*
4,1,3,
-0.025590551181102365,0.024606299212598427,
-0.0059055118110236228,0.024606299212598427,
-0.0059055118110236228,-0.024606299212598427,
-0.025590551181102365,-0.024606299212598427,
0*
4,1,3,
-0.015748031496062995,-0.034448818897637797,
-0.015748031496062995,-0.014763779527559057,
0.015748031496062995,-0.014763779527559057,
0.015748031496062995,-0.034448818897637797,
0*
4,1,3,
0.025590551181102365,-0.024606299212598427,
0.0059055118110236228,-0.024606299212598427,
0.0059055118110236228,0.024606299212598427,
0.025590551181102365,0.024606299212598427,
0*%
%ADD43COMP118,0.25X0.4X0.625X-0.4X0.625X-0.4X-0.625X0.4X-0.625X0*%
%ADD44R,0.043307086614173235X0.043307086614173235*%
%ADD45R,0.074803149606299218X0.031496062992125991*%
%AMCOMP122*
4,1,3,
-0.015748031496062995,-0.024606299212598427,
0.015748031496062995,-0.024606299212598427,
0.015748031496062995,0.024606299212598427,
-0.015748031496062995,0.024606299212598427,
0*
4,1,19,
-0.015748031496062995,-0.014763779527559057,
-0.012706525645915873,-0.015245506729378409,
-0.0099627435797984935,-0.016643533519931621,
-0.0077852658033961877,-0.018821011296333928,
-0.0063872390128429787,-0.021564793362451307,
-0.0059055118110236228,-0.024606299212598427,
-0.006387239012842977,-0.027647805062745546,
-0.0077852658033961877,-0.030391587128862925,
-0.0099627435797984918,-0.032569064905265233,
-0.012706525645915873,-0.033967091695818442,
-0.015748031496062992,-0.034448818897637797,
-0.018789537346210118,-0.033967091695818442,
-0.02153331941232749,-0.032569064905265233,
-0.0237107971887298,-0.030391587128862928,
-0.025108823979283011,-0.027647805062745546,
-0.025590551181102365,-0.024606299212598427,
-0.025108823979283011,-0.021564793362451307,
-0.0237107971887298,-0.018821011296333928,
-0.021533319412327497,-0.016643533519931621,
-0.018789537346210118,-0.015245506729378409,
0*
4,1,19,
0.015748031496062995,-0.014763779527559057,
0.018789537346210115,-0.015245506729378409,
0.02153331941232749,-0.016643533519931621,
0.0237107971887298,-0.018821011296333928,
0.025108823979283011,-0.021564793362451307,
0.025590551181102365,-0.024606299212598427,
0.025108823979283011,-0.027647805062745546,
0.0237107971887298,-0.030391587128862925,
0.021533319412327497,-0.032569064905265233,
0.018789537346210115,-0.033967091695818442,
0.015748031496062995,-0.034448818897637797,
0.012706525645915871,-0.033967091695818442,
0.009962743579798497,-0.032569064905265233,
0.0077852658033961885,-0.030391587128862928,
0.0063872390128429787,-0.027647805062745546,
0.0059055118110236228,-0.024606299212598427,
0.006387239012842977,-0.021564793362451307,
0.0077852658033961868,-0.018821011296333928,
0.0099627435797984918,-0.016643533519931621,
0.012706525645915871,-0.015245506729378409,
0*
4,1,19,
0.015748031496062995,0.034448818897637797,
0.018789537346210115,0.033967091695818442,
0.02153331941232749,0.032569064905265233,
0.0237107971887298,0.030391587128862928,
0.025108823979283011,0.027647805062745546,
0.025590551181102365,0.024606299212598427,
0.025108823979283011,0.021564793362451307,
0.0237107971887298,0.018821011296333928,
0.021533319412327497,0.016643533519931621,
0.018789537346210115,0.015245506729378409,
0.015748031496062995,0.014763779527559057,
0.012706525645915871,0.015245506729378409,
0.009962743579798497,0.016643533519931621,
0.0077852658033961885,0.018821011296333925,
0.0063872390128429787,0.021564793362451307,
0.0059055118110236228,0.024606299212598427,
0.006387239012842977,0.027647805062745546,
0.0077852658033961868,0.030391587128862925,
0.0099627435797984918,0.032569064905265233,
0.012706525645915871,0.033967091695818442,
0*
4,1,19,
-0.015748031496062995,0.034448818897637797,
-0.012706525645915873,0.033967091695818442,
-0.0099627435797984935,0.032569064905265233,
-0.0077852658033961877,0.030391587128862928,
-0.0063872390128429787,0.027647805062745546,
-0.0059055118110236228,0.024606299212598427,
-0.006387239012842977,0.021564793362451307,
-0.0077852658033961877,0.018821011296333928,
-0.0099627435797984918,0.016643533519931621,
-0.012706525645915873,0.015245506729378409,
-0.015748031496062992,0.014763779527559057,
-0.018789537346210118,0.015245506729378409,
-0.02153331941232749,0.016643533519931621,
-0.0237107971887298,0.018821011296333925,
-0.025108823979283011,0.021564793362451307,
-0.025590551181102365,0.024606299212598427,
-0.025108823979283011,0.027647805062745546,
-0.0237107971887298,0.030391587128862925,
-0.021533319412327497,0.032569064905265233,
-0.018789537346210118,0.033967091695818442,
0*
4,1,3,
-0.015748031496062995,-0.034448818897637797,
-0.015748031496062995,-0.014763779527559057,
0.015748031496062995,-0.014763779527559057,
0.015748031496062995,-0.034448818897637797,
0*
4,1,3,
0.025590551181102365,-0.024606299212598427,
0.0059055118110236228,-0.024606299212598427,
0.0059055118110236228,0.024606299212598427,
0.025590551181102365,0.024606299212598427,
0*
4,1,3,
0.015748031496062995,0.034448818897637797,
0.015748031496062995,0.014763779527559057,
-0.015748031496062995,0.014763779527559057,
-0.015748031496062995,0.034448818897637797,
0*
4,1,3,
-0.025590551181102365,0.024606299212598427,
-0.0059055118110236228,0.024606299212598427,
-0.0059055118110236228,-0.024606299212598427,
-0.025590551181102365,-0.024606299212598427,
0*%
%ADD46COMP122,0.25X-0.4X-0.625X0.4X-0.625X0.4X0.625X-0.4X0.625X0*%
%AMCOMP126*
4,1,3,
0.015748031496062995,0.024606299212598427,
-0.015748031496062995,0.024606299212598427,
-0.015748031496062995,-0.024606299212598427,
0.015748031496062995,-0.024606299212598427,
0*
4,1,19,
0.015748031496062995,0.034448818897637797,
0.018789537346210115,0.033967091695818442,
0.02153331941232749,0.032569064905265233,
0.0237107971887298,0.030391587128862928,
0.025108823979283011,0.027647805062745546,
0.025590551181102365,0.024606299212598427,
0.025108823979283011,0.021564793362451307,
0.0237107971887298,0.018821011296333928,
0.021533319412327497,0.016643533519931621,
0.018789537346210115,0.015245506729378409,
0.015748031496062995,0.014763779527559057,
0.012706525645915871,0.015245506729378409,
0.009962743579798497,0.016643533519931621,
0.0077852658033961885,0.018821011296333925,
0.0063872390128429787,0.021564793362451307,
0.0059055118110236228,0.024606299212598427,
0.006387239012842977,0.027647805062745546,
0.0077852658033961868,0.030391587128862925,
0.0099627435797984918,0.032569064905265233,
0.012706525645915871,0.033967091695818442,
0*
4,1,19,
-0.015748031496062995,0.034448818897637797,
-0.012706525645915873,0.033967091695818442,
-0.0099627435797984935,0.032569064905265233,
-0.0077852658033961877,0.030391587128862928,
-0.0063872390128429787,0.027647805062745546,
-0.0059055118110236228,0.024606299212598427,
-0.006387239012842977,0.021564793362451307,
-0.0077852658033961877,0.018821011296333928,
-0.0099627435797984918,0.016643533519931621,
-0.012706525645915873,0.015245506729378409,
-0.015748031496062992,0.014763779527559057,
-0.018789537346210118,0.015245506729378409,
-0.02153331941232749,0.016643533519931621,
-0.0237107971887298,0.018821011296333925,
-0.025108823979283011,0.021564793362451307,
-0.025590551181102365,0.024606299212598427,
-0.025108823979283011,0.027647805062745546,
-0.0237107971887298,0.030391587128862925,
-0.021533319412327497,0.032569064905265233,
-0.018789537346210118,0.033967091695818442,
0*
4,1,19,
-0.015748031496062995,-0.014763779527559057,
-0.012706525645915873,-0.015245506729378409,
-0.0099627435797984935,-0.016643533519931621,
-0.0077852658033961877,-0.018821011296333928,
-0.0063872390128429787,-0.021564793362451307,
-0.0059055118110236228,-0.024606299212598427,
-0.006387239012842977,-0.027647805062745546,
-0.0077852658033961877,-0.030391587128862925,
-0.0099627435797984918,-0.032569064905265233,
-0.012706525645915873,-0.033967091695818442,
-0.015748031496062992,-0.034448818897637797,
-0.018789537346210118,-0.033967091695818442,
-0.02153331941232749,-0.032569064905265233,
-0.0237107971887298,-0.030391587128862928,
-0.025108823979283011,-0.027647805062745546,
-0.025590551181102365,-0.024606299212598427,
-0.025108823979283011,-0.021564793362451307,
-0.0237107971887298,-0.018821011296333928,
-0.021533319412327497,-0.016643533519931621,
-0.018789537346210118,-0.015245506729378409,
0*
4,1,19,
0.015748031496062995,-0.014763779527559057,
0.018789537346210115,-0.015245506729378409,
0.02153331941232749,-0.016643533519931621,
0.0237107971887298,-0.018821011296333928,
0.025108823979283011,-0.021564793362451307,
0.025590551181102365,-0.024606299212598427,
0.025108823979283011,-0.027647805062745546,
0.0237107971887298,-0.030391587128862925,
0.021533319412327497,-0.032569064905265233,
0.018789537346210115,-0.033967091695818442,
0.015748031496062995,-0.034448818897637797,
0.012706525645915871,-0.033967091695818442,
0.009962743579798497,-0.032569064905265233,
0.0077852658033961885,-0.030391587128862928,
0.0063872390128429787,-0.027647805062745546,
0.0059055118110236228,-0.024606299212598427,
0.006387239012842977,-0.021564793362451307,
0.0077852658033961868,-0.018821011296333928,
0.0099627435797984918,-0.016643533519931621,
0.012706525645915871,-0.015245506729378409,
0*
4,1,3,
0.015748031496062995,0.034448818897637797,
0.015748031496062995,0.014763779527559057,
-0.015748031496062995,0.014763779527559057,
-0.015748031496062995,0.034448818897637797,
0*
4,1,3,
-0.025590551181102365,0.024606299212598427,
-0.0059055118110236228,0.024606299212598427,
-0.0059055118110236228,-0.024606299212598427,
-0.025590551181102365,-0.024606299212598427,
0*
4,1,3,
-0.015748031496062995,-0.034448818897637797,
-0.015748031496062995,-0.014763779527559057,
0.015748031496062995,-0.014763779527559057,
0.015748031496062995,-0.034448818897637797,
0*
4,1,3,
0.025590551181102365,-0.024606299212598427,
0.0059055118110236228,-0.024606299212598427,
0.0059055118110236228,0.024606299212598427,
0.025590551181102365,0.024606299212598427,
0*%
%ADD47COMP126,0.25X0.4X0.625X-0.4X0.625X-0.4X-0.625X0.4X-0.625X0*%
%ADD48R,0.043307086614173235X0.043307086614173235*%
%ADD49R,0.074803149606299218X0.031496062992125991*%
%AMCOMP130*
4,1,3,
-0.015748031496062995,-0.024606299212598427,
0.015748031496062995,-0.024606299212598427,
0.015748031496062995,0.024606299212598427,
-0.015748031496062995,0.024606299212598427,
0*
4,1,19,
-0.015748031496062995,-0.014763779527559057,
-0.012706525645915873,-0.015245506729378409,
-0.0099627435797984935,-0.016643533519931621,
-0.0077852658033961877,-0.018821011296333928,
-0.0063872390128429787,-0.021564793362451307,
-0.0059055118110236228,-0.024606299212598427,
-0.006387239012842977,-0.027647805062745546,
-0.0077852658033961877,-0.030391587128862925,
-0.0099627435797984918,-0.032569064905265233,
-0.012706525645915873,-0.033967091695818442,
-0.015748031496062992,-0.034448818897637797,
-0.018789537346210118,-0.033967091695818442,
-0.02153331941232749,-0.032569064905265233,
-0.0237107971887298,-0.030391587128862928,
-0.025108823979283011,-0.027647805062745546,
-0.025590551181102365,-0.024606299212598427,
-0.025108823979283011,-0.021564793362451307,
-0.0237107971887298,-0.018821011296333928,
-0.021533319412327497,-0.016643533519931621,
-0.018789537346210118,-0.015245506729378409,
0*
4,1,19,
0.015748031496062995,-0.014763779527559057,
0.018789537346210115,-0.015245506729378409,
0.02153331941232749,-0.016643533519931621,
0.0237107971887298,-0.018821011296333928,
0.025108823979283011,-0.021564793362451307,
0.025590551181102365,-0.024606299212598427,
0.025108823979283011,-0.027647805062745546,
0.0237107971887298,-0.030391587128862925,
0.021533319412327497,-0.032569064905265233,
0.018789537346210115,-0.033967091695818442,
0.015748031496062995,-0.034448818897637797,
0.012706525645915871,-0.033967091695818442,
0.009962743579798497,-0.032569064905265233,
0.0077852658033961885,-0.030391587128862928,
0.0063872390128429787,-0.027647805062745546,
0.0059055118110236228,-0.024606299212598427,
0.006387239012842977,-0.021564793362451307,
0.0077852658033961868,-0.018821011296333928,
0.0099627435797984918,-0.016643533519931621,
0.012706525645915871,-0.015245506729378409,
0*
4,1,19,
0.015748031496062995,0.034448818897637797,
0.018789537346210115,0.033967091695818442,
0.02153331941232749,0.032569064905265233,
0.0237107971887298,0.030391587128862928,
0.025108823979283011,0.027647805062745546,
0.025590551181102365,0.024606299212598427,
0.025108823979283011,0.021564793362451307,
0.0237107971887298,0.018821011296333928,
0.021533319412327497,0.016643533519931621,
0.018789537346210115,0.015245506729378409,
0.015748031496062995,0.014763779527559057,
0.012706525645915871,0.015245506729378409,
0.009962743579798497,0.016643533519931621,
0.0077852658033961885,0.018821011296333925,
0.0063872390128429787,0.021564793362451307,
0.0059055118110236228,0.024606299212598427,
0.006387239012842977,0.027647805062745546,
0.0077852658033961868,0.030391587128862925,
0.0099627435797984918,0.032569064905265233,
0.012706525645915871,0.033967091695818442,
0*
4,1,19,
-0.015748031496062995,0.034448818897637797,
-0.012706525645915873,0.033967091695818442,
-0.0099627435797984935,0.032569064905265233,
-0.0077852658033961877,0.030391587128862928,
-0.0063872390128429787,0.027647805062745546,
-0.0059055118110236228,0.024606299212598427,
-0.006387239012842977,0.021564793362451307,
-0.0077852658033961877,0.018821011296333928,
-0.0099627435797984918,0.016643533519931621,
-0.012706525645915873,0.015245506729378409,
-0.015748031496062992,0.014763779527559057,
-0.018789537346210118,0.015245506729378409,
-0.02153331941232749,0.016643533519931621,
-0.0237107971887298,0.018821011296333925,
-0.025108823979283011,0.021564793362451307,
-0.025590551181102365,0.024606299212598427,
-0.025108823979283011,0.027647805062745546,
-0.0237107971887298,0.030391587128862925,
-0.021533319412327497,0.032569064905265233,
-0.018789537346210118,0.033967091695818442,
0*
4,1,3,
-0.015748031496062995,-0.034448818897637797,
-0.015748031496062995,-0.014763779527559057,
0.015748031496062995,-0.014763779527559057,
0.015748031496062995,-0.034448818897637797,
0*
4,1,3,
0.025590551181102365,-0.024606299212598427,
0.0059055118110236228,-0.024606299212598427,
0.0059055118110236228,0.024606299212598427,
0.025590551181102365,0.024606299212598427,
0*
4,1,3,
0.015748031496062995,0.034448818897637797,
0.015748031496062995,0.014763779527559057,
-0.015748031496062995,0.014763779527559057,
-0.015748031496062995,0.034448818897637797,
0*
4,1,3,
-0.025590551181102365,0.024606299212598427,
-0.0059055118110236228,0.024606299212598427,
-0.0059055118110236228,-0.024606299212598427,
-0.025590551181102365,-0.024606299212598427,
0*%
%ADD50COMP130,0.25X-0.4X-0.625X0.4X-0.625X0.4X0.625X-0.4X0.625X0*%
%AMCOMP134*
4,1,3,
0.015748031496062995,0.024606299212598427,
-0.015748031496062995,0.024606299212598427,
-0.015748031496062995,-0.024606299212598427,
0.015748031496062995,-0.024606299212598427,
0*
4,1,19,
0.015748031496062995,0.034448818897637797,
0.018789537346210115,0.033967091695818442,
0.02153331941232749,0.032569064905265233,
0.0237107971887298,0.030391587128862928,
0.025108823979283011,0.027647805062745546,
0.025590551181102365,0.024606299212598427,
0.025108823979283011,0.021564793362451307,
0.0237107971887298,0.018821011296333928,
0.021533319412327497,0.016643533519931621,
0.018789537346210115,0.015245506729378409,
0.015748031496062995,0.014763779527559057,
0.012706525645915871,0.015245506729378409,
0.009962743579798497,0.016643533519931621,
0.0077852658033961885,0.018821011296333925,
0.0063872390128429787,0.021564793362451307,
0.0059055118110236228,0.024606299212598427,
0.006387239012842977,0.027647805062745546,
0.0077852658033961868,0.030391587128862925,
0.0099627435797984918,0.032569064905265233,
0.012706525645915871,0.033967091695818442,
0*
4,1,19,
-0.015748031496062995,0.034448818897637797,
-0.012706525645915873,0.033967091695818442,
-0.0099627435797984935,0.032569064905265233,
-0.0077852658033961877,0.030391587128862928,
-0.0063872390128429787,0.027647805062745546,
-0.0059055118110236228,0.024606299212598427,
-0.006387239012842977,0.021564793362451307,
-0.0077852658033961877,0.018821011296333928,
-0.0099627435797984918,0.016643533519931621,
-0.012706525645915873,0.015245506729378409,
-0.015748031496062992,0.014763779527559057,
-0.018789537346210118,0.015245506729378409,
-0.02153331941232749,0.016643533519931621,
-0.0237107971887298,0.018821011296333925,
-0.025108823979283011,0.021564793362451307,
-0.025590551181102365,0.024606299212598427,
-0.025108823979283011,0.027647805062745546,
-0.0237107971887298,0.030391587128862925,
-0.021533319412327497,0.032569064905265233,
-0.018789537346210118,0.033967091695818442,
0*
4,1,19,
-0.015748031496062995,-0.014763779527559057,
-0.012706525645915873,-0.015245506729378409,
-0.0099627435797984935,-0.016643533519931621,
-0.0077852658033961877,-0.018821011296333928,
-0.0063872390128429787,-0.021564793362451307,
-0.0059055118110236228,-0.024606299212598427,
-0.006387239012842977,-0.027647805062745546,
-0.0077852658033961877,-0.030391587128862925,
-0.0099627435797984918,-0.032569064905265233,
-0.012706525645915873,-0.033967091695818442,
-0.015748031496062992,-0.034448818897637797,
-0.018789537346210118,-0.033967091695818442,
-0.02153331941232749,-0.032569064905265233,
-0.0237107971887298,-0.030391587128862928,
-0.025108823979283011,-0.027647805062745546,
-0.025590551181102365,-0.024606299212598427,
-0.025108823979283011,-0.021564793362451307,
-0.0237107971887298,-0.018821011296333928,
-0.021533319412327497,-0.016643533519931621,
-0.018789537346210118,-0.015245506729378409,
0*
4,1,19,
0.015748031496062995,-0.014763779527559057,
0.018789537346210115,-0.015245506729378409,
0.02153331941232749,-0.016643533519931621,
0.0237107971887298,-0.018821011296333928,
0.025108823979283011,-0.021564793362451307,
0.025590551181102365,-0.024606299212598427,
0.025108823979283011,-0.027647805062745546,
0.0237107971887298,-0.030391587128862925,
0.021533319412327497,-0.032569064905265233,
0.018789537346210115,-0.033967091695818442,
0.015748031496062995,-0.034448818897637797,
0.012706525645915871,-0.033967091695818442,
0.009962743579798497,-0.032569064905265233,
0.0077852658033961885,-0.030391587128862928,
0.0063872390128429787,-0.027647805062745546,
0.0059055118110236228,-0.024606299212598427,
0.006387239012842977,-0.021564793362451307,
0.0077852658033961868,-0.018821011296333928,
0.0099627435797984918,-0.016643533519931621,
0.012706525645915871,-0.015245506729378409,
0*
4,1,3,
0.015748031496062995,0.034448818897637797,
0.015748031496062995,0.014763779527559057,
-0.015748031496062995,0.014763779527559057,
-0.015748031496062995,0.034448818897637797,
0*
4,1,3,
-0.025590551181102365,0.024606299212598427,
-0.0059055118110236228,0.024606299212598427,
-0.0059055118110236228,-0.024606299212598427,
-0.025590551181102365,-0.024606299212598427,
0*
4,1,3,
-0.015748031496062995,-0.034448818897637797,
-0.015748031496062995,-0.014763779527559057,
0.015748031496062995,-0.014763779527559057,
0.015748031496062995,-0.034448818897637797,
0*
4,1,3,
0.025590551181102365,-0.024606299212598427,
0.0059055118110236228,-0.024606299212598427,
0.0059055118110236228,0.024606299212598427,
0.025590551181102365,0.024606299212598427,
0*%
%ADD51COMP134,0.25X0.4X0.625X-0.4X0.625X-0.4X-0.625X0.4X-0.625X0*%
%ADD52R,0.043307086614173235X0.043307086614173235*%
%ADD53R,0.074803149606299218X0.031496062992125991*%
%AMCOMP138*
4,1,3,
-0.015748031496062995,-0.024606299212598427,
0.015748031496062995,-0.024606299212598427,
0.015748031496062995,0.024606299212598427,
-0.015748031496062995,0.024606299212598427,
0*
4,1,19,
-0.015748031496062995,-0.014763779527559057,
-0.012706525645915873,-0.015245506729378409,
-0.0099627435797984935,-0.016643533519931621,
-0.0077852658033961877,-0.018821011296333928,
-0.0063872390128429787,-0.021564793362451307,
-0.0059055118110236228,-0.024606299212598427,
-0.006387239012842977,-0.027647805062745546,
-0.0077852658033961877,-0.030391587128862925,
-0.0099627435797984918,-0.032569064905265233,
-0.012706525645915873,-0.033967091695818442,
-0.015748031496062992,-0.034448818897637797,
-0.018789537346210118,-0.033967091695818442,
-0.02153331941232749,-0.032569064905265233,
-0.0237107971887298,-0.030391587128862928,
-0.025108823979283011,-0.027647805062745546,
-0.025590551181102365,-0.024606299212598427,
-0.025108823979283011,-0.021564793362451307,
-0.0237107971887298,-0.018821011296333928,
-0.021533319412327497,-0.016643533519931621,
-0.018789537346210118,-0.015245506729378409,
0*
4,1,19,
0.015748031496062995,-0.014763779527559057,
0.018789537346210115,-0.015245506729378409,
0.02153331941232749,-0.016643533519931621,
0.0237107971887298,-0.018821011296333928,
0.025108823979283011,-0.021564793362451307,
0.025590551181102365,-0.024606299212598427,
0.025108823979283011,-0.027647805062745546,
0.0237107971887298,-0.030391587128862925,
0.021533319412327497,-0.032569064905265233,
0.018789537346210115,-0.033967091695818442,
0.015748031496062995,-0.034448818897637797,
0.012706525645915871,-0.033967091695818442,
0.009962743579798497,-0.032569064905265233,
0.0077852658033961885,-0.030391587128862928,
0.0063872390128429787,-0.027647805062745546,
0.0059055118110236228,-0.024606299212598427,
0.006387239012842977,-0.021564793362451307,
0.0077852658033961868,-0.018821011296333928,
0.0099627435797984918,-0.016643533519931621,
0.012706525645915871,-0.015245506729378409,
0*
4,1,19,
0.015748031496062995,0.034448818897637797,
0.018789537346210115,0.033967091695818442,
0.02153331941232749,0.032569064905265233,
0.0237107971887298,0.030391587128862928,
0.025108823979283011,0.027647805062745546,
0.025590551181102365,0.024606299212598427,
0.025108823979283011,0.021564793362451307,
0.0237107971887298,0.018821011296333928,
0.021533319412327497,0.016643533519931621,
0.018789537346210115,0.015245506729378409,
0.015748031496062995,0.014763779527559057,
0.012706525645915871,0.015245506729378409,
0.009962743579798497,0.016643533519931621,
0.0077852658033961885,0.018821011296333925,
0.0063872390128429787,0.021564793362451307,
0.0059055118110236228,0.024606299212598427,
0.006387239012842977,0.027647805062745546,
0.0077852658033961868,0.030391587128862925,
0.0099627435797984918,0.032569064905265233,
0.012706525645915871,0.033967091695818442,
0*
4,1,19,
-0.015748031496062995,0.034448818897637797,
-0.012706525645915873,0.033967091695818442,
-0.0099627435797984935,0.032569064905265233,
-0.0077852658033961877,0.030391587128862928,
-0.0063872390128429787,0.027647805062745546,
-0.0059055118110236228,0.024606299212598427,
-0.006387239012842977,0.021564793362451307,
-0.0077852658033961877,0.018821011296333928,
-0.0099627435797984918,0.016643533519931621,
-0.012706525645915873,0.015245506729378409,
-0.015748031496062992,0.014763779527559057,
-0.018789537346210118,0.015245506729378409,
-0.02153331941232749,0.016643533519931621,
-0.0237107971887298,0.018821011296333925,
-0.025108823979283011,0.021564793362451307,
-0.025590551181102365,0.024606299212598427,
-0.025108823979283011,0.027647805062745546,
-0.0237107971887298,0.030391587128862925,
-0.021533319412327497,0.032569064905265233,
-0.018789537346210118,0.033967091695818442,
0*
4,1,3,
-0.015748031496062995,-0.034448818897637797,
-0.015748031496062995,-0.014763779527559057,
0.015748031496062995,-0.014763779527559057,
0.015748031496062995,-0.034448818897637797,
0*
4,1,3,
0.025590551181102365,-0.024606299212598427,
0.0059055118110236228,-0.024606299212598427,
0.0059055118110236228,0.024606299212598427,
0.025590551181102365,0.024606299212598427,
0*
4,1,3,
0.015748031496062995,0.034448818897637797,
0.015748031496062995,0.014763779527559057,
-0.015748031496062995,0.014763779527559057,
-0.015748031496062995,0.034448818897637797,
0*
4,1,3,
-0.025590551181102365,0.024606299212598427,
-0.0059055118110236228,0.024606299212598427,
-0.0059055118110236228,-0.024606299212598427,
-0.025590551181102365,-0.024606299212598427,
0*%
%ADD54COMP138,0.25X-0.4X-0.625X0.4X-0.625X0.4X0.625X-0.4X0.625X0*%
%AMCOMP142*
4,1,3,
0.015748031496062995,0.024606299212598427,
-0.015748031496062995,0.024606299212598427,
-0.015748031496062995,-0.024606299212598427,
0.015748031496062995,-0.024606299212598427,
0*
4,1,19,
0.015748031496062995,0.034448818897637797,
0.018789537346210115,0.033967091695818442,
0.02153331941232749,0.032569064905265233,
0.0237107971887298,0.030391587128862928,
0.025108823979283011,0.027647805062745546,
0.025590551181102365,0.024606299212598427,
0.025108823979283011,0.021564793362451307,
0.0237107971887298,0.018821011296333928,
0.021533319412327497,0.016643533519931621,
0.018789537346210115,0.015245506729378409,
0.015748031496062995,0.014763779527559057,
0.012706525645915871,0.015245506729378409,
0.009962743579798497,0.016643533519931621,
0.0077852658033961885,0.018821011296333925,
0.0063872390128429787,0.021564793362451307,
0.0059055118110236228,0.024606299212598427,
0.006387239012842977,0.027647805062745546,
0.0077852658033961868,0.030391587128862925,
0.0099627435797984918,0.032569064905265233,
0.012706525645915871,0.033967091695818442,
0*
4,1,19,
-0.015748031496062995,0.034448818897637797,
-0.012706525645915873,0.033967091695818442,
-0.0099627435797984935,0.032569064905265233,
-0.0077852658033961877,0.030391587128862928,
-0.0063872390128429787,0.027647805062745546,
-0.0059055118110236228,0.024606299212598427,
-0.006387239012842977,0.021564793362451307,
-0.0077852658033961877,0.018821011296333928,
-0.0099627435797984918,0.016643533519931621,
-0.012706525645915873,0.015245506729378409,
-0.015748031496062992,0.014763779527559057,
-0.018789537346210118,0.015245506729378409,
-0.02153331941232749,0.016643533519931621,
-0.0237107971887298,0.018821011296333925,
-0.025108823979283011,0.021564793362451307,
-0.025590551181102365,0.024606299212598427,
-0.025108823979283011,0.027647805062745546,
-0.0237107971887298,0.030391587128862925,
-0.021533319412327497,0.032569064905265233,
-0.018789537346210118,0.033967091695818442,
0*
4,1,19,
-0.015748031496062995,-0.014763779527559057,
-0.012706525645915873,-0.015245506729378409,
-0.0099627435797984935,-0.016643533519931621,
-0.0077852658033961877,-0.018821011296333928,
-0.0063872390128429787,-0.021564793362451307,
-0.0059055118110236228,-0.024606299212598427,
-0.006387239012842977,-0.027647805062745546,
-0.0077852658033961877,-0.030391587128862925,
-0.0099627435797984918,-0.032569064905265233,
-0.012706525645915873,-0.033967091695818442,
-0.015748031496062992,-0.034448818897637797,
-0.018789537346210118,-0.033967091695818442,
-0.02153331941232749,-0.032569064905265233,
-0.0237107971887298,-0.030391587128862928,
-0.025108823979283011,-0.027647805062745546,
-0.025590551181102365,-0.024606299212598427,
-0.025108823979283011,-0.021564793362451307,
-0.0237107971887298,-0.018821011296333928,
-0.021533319412327497,-0.016643533519931621,
-0.018789537346210118,-0.015245506729378409,
0*
4,1,19,
0.015748031496062995,-0.014763779527559057,
0.018789537346210115,-0.015245506729378409,
0.02153331941232749,-0.016643533519931621,
0.0237107971887298,-0.018821011296333928,
0.025108823979283011,-0.021564793362451307,
0.025590551181102365,-0.024606299212598427,
0.025108823979283011,-0.027647805062745546,
0.0237107971887298,-0.030391587128862925,
0.021533319412327497,-0.032569064905265233,
0.018789537346210115,-0.033967091695818442,
0.015748031496062995,-0.034448818897637797,
0.012706525645915871,-0.033967091695818442,
0.009962743579798497,-0.032569064905265233,
0.0077852658033961885,-0.030391587128862928,
0.0063872390128429787,-0.027647805062745546,
0.0059055118110236228,-0.024606299212598427,
0.006387239012842977,-0.021564793362451307,
0.0077852658033961868,-0.018821011296333928,
0.0099627435797984918,-0.016643533519931621,
0.012706525645915871,-0.015245506729378409,
0*
4,1,3,
0.015748031496062995,0.034448818897637797,
0.015748031496062995,0.014763779527559057,
-0.015748031496062995,0.014763779527559057,
-0.015748031496062995,0.034448818897637797,
0*
4,1,3,
-0.025590551181102365,0.024606299212598427,
-0.0059055118110236228,0.024606299212598427,
-0.0059055118110236228,-0.024606299212598427,
-0.025590551181102365,-0.024606299212598427,
0*
4,1,3,
-0.015748031496062995,-0.034448818897637797,
-0.015748031496062995,-0.014763779527559057,
0.015748031496062995,-0.014763779527559057,
0.015748031496062995,-0.034448818897637797,
0*
4,1,3,
0.025590551181102365,-0.024606299212598427,
0.0059055118110236228,-0.024606299212598427,
0.0059055118110236228,0.024606299212598427,
0.025590551181102365,0.024606299212598427,
0*%
%ADD55COMP142,0.25X0.4X0.625X-0.4X0.625X-0.4X-0.625X0.4X-0.625X0*%
G01*
D10*
X-0004055118Y0008188976D02*
X0000397263Y0003418976D03*
X0000507499Y0003418976D03*
D11*
X0000403326Y0003566377D03*
X0000403326Y0003491574D03*
X0000521437Y0003528976D03*
D12*
X0000391358Y0003198976D03*
X0000513405Y0003198976D03*
D13*
X0000513405Y0003293976D03*
X0000391358Y0003293976D03*
G04 next file*
G04 #@! TF.GenerationSoftware,KiCad,Pcbnew,(6.0.5)*
G04 #@! TF.CreationDate,2022-08-01T19:03:23+01:00*
G04 #@! TF.ProjectId,PWM-TRANSISTOR-PCB,50574d2d-5452-4414-9e53-4953544f522d,rev?*
G04 #@! TF.SameCoordinates,Original*
G04 #@! TF.FileFunction,Paste,Top*
G04 #@! TF.FilePolarity,Positive*
G04 Gerber Fmt 4.6, Leading zero omitted, Abs format (unit mm)*
G04 Created by KiCad (PCBNEW (6.0.5)) date 2022-08-01 19:03:23*
G01*
G04 APERTURE LIST*
G04 Aperture macros list*
G04 Aperture macros list end*
G04 APERTURE END LIST*
D24*
X-0002913385Y0008188976D02*
X0001538996Y0003418976D03*
X0001649232Y0003418976D03*
D25*
X0001545059Y0003566377D03*
X0001545059Y0003491574D03*
X0001663169Y0003528976D03*
D26*
X0001533090Y0003198976D03*
X0001655137Y0003198976D03*
D27*
X0001655137Y0003293976D03*
X0001533090Y0003293976D03*
G04 next file*
G04 #@! TF.GenerationSoftware,KiCad,Pcbnew,(6.0.5)*
G04 #@! TF.CreationDate,2022-08-01T19:03:23+01:00*
G04 #@! TF.ProjectId,PWM-TRANSISTOR-PCB,50574d2d-5452-4414-9e53-4953544f522d,rev?*
G04 #@! TF.SameCoordinates,Original*
G04 #@! TF.FileFunction,Paste,Top*
G04 #@! TF.FilePolarity,Positive*
G04 Gerber Fmt 4.6, Leading zero omitted, Abs format (unit mm)*
G04 Created by KiCad (PCBNEW (6.0.5)) date 2022-08-01 19:03:23*
G01*
G04 APERTURE LIST*
G04 Aperture macros list*
G04 Aperture macros list end*
G04 APERTURE END LIST*
D28*
X-0001771653Y0008188976D02*
X0002680728Y0003418976D03*
X0002790964Y0003418976D03*
D29*
X0002686791Y0003566377D03*
X0002686791Y0003491574D03*
X0002804901Y0003528976D03*
D30*
X0002674822Y0003198976D03*
X0002796870Y0003198976D03*
D31*
X0002796870Y0003293976D03*
X0002674822Y0003293976D03*
G04 next file*
G04 #@! TF.GenerationSoftware,KiCad,Pcbnew,(6.0.5)*
G04 #@! TF.CreationDate,2022-08-01T19:03:23+01:00*
G04 #@! TF.ProjectId,PWM-TRANSISTOR-PCB,50574d2d-5452-4414-9e53-4953544f522d,rev?*
G04 #@! TF.SameCoordinates,Original*
G04 #@! TF.FileFunction,Paste,Top*
G04 #@! TF.FilePolarity,Positive*
G04 Gerber Fmt 4.6, Leading zero omitted, Abs format (unit mm)*
G04 Created by KiCad (PCBNEW (6.0.5)) date 2022-08-01 19:03:23*
G01*
G04 APERTURE LIST*
G04 Aperture macros list*
G04 Aperture macros list end*
G04 APERTURE END LIST*
D32*
X-0004055118Y0007165354D02*
X0000397263Y0002395354D03*
X0000507499Y0002395354D03*
D33*
X0000403326Y0002542755D03*
X0000403326Y0002467952D03*
X0000521437Y0002505354D03*
D34*
X0000391358Y0002175354D03*
X0000513405Y0002175354D03*
D35*
X0000513405Y0002270354D03*
X0000391358Y0002270354D03*
G04 next file*
G04 #@! TF.GenerationSoftware,KiCad,Pcbnew,(6.0.5)*
G04 #@! TF.CreationDate,2022-08-01T19:03:23+01:00*
G04 #@! TF.ProjectId,PWM-TRANSISTOR-PCB,50574d2d-5452-4414-9e53-4953544f522d,rev?*
G04 #@! TF.SameCoordinates,Original*
G04 #@! TF.FileFunction,Paste,Top*
G04 #@! TF.FilePolarity,Positive*
G04 Gerber Fmt 4.6, Leading zero omitted, Abs format (unit mm)*
G04 Created by KiCad (PCBNEW (6.0.5)) date 2022-08-01 19:03:23*
G01*
G04 APERTURE LIST*
G04 Aperture macros list*
G04 Aperture macros list end*
G04 APERTURE END LIST*
D36*
X-0002913385Y0007165354D02*
X0001538996Y0002395354D03*
X0001649232Y0002395354D03*
D37*
X0001545059Y0002542755D03*
X0001545059Y0002467952D03*
X0001663169Y0002505354D03*
D38*
X0001533090Y0002175354D03*
X0001655137Y0002175354D03*
D39*
X0001655137Y0002270354D03*
X0001533090Y0002270354D03*
G04 next file*
G04 #@! TF.GenerationSoftware,KiCad,Pcbnew,(6.0.5)*
G04 #@! TF.CreationDate,2022-08-01T19:03:23+01:00*
G04 #@! TF.ProjectId,PWM-TRANSISTOR-PCB,50574d2d-5452-4414-9e53-4953544f522d,rev?*
G04 #@! TF.SameCoordinates,Original*
G04 #@! TF.FileFunction,Paste,Top*
G04 #@! TF.FilePolarity,Positive*
G04 Gerber Fmt 4.6, Leading zero omitted, Abs format (unit mm)*
G04 Created by KiCad (PCBNEW (6.0.5)) date 2022-08-01 19:03:23*
G01*
G04 APERTURE LIST*
G04 Aperture macros list*
G04 Aperture macros list end*
G04 APERTURE END LIST*
D40*
X-0001771653Y0007165354D02*
X0002680728Y0002395354D03*
X0002790964Y0002395354D03*
D41*
X0002686791Y0002542755D03*
X0002686791Y0002467952D03*
X0002804901Y0002505354D03*
D42*
X0002674822Y0002175354D03*
X0002796870Y0002175354D03*
D43*
X0002796870Y0002270354D03*
X0002674822Y0002270354D03*
G04 next file*
G04 #@! TF.GenerationSoftware,KiCad,Pcbnew,(6.0.5)*
G04 #@! TF.CreationDate,2022-08-01T19:03:23+01:00*
G04 #@! TF.ProjectId,PWM-TRANSISTOR-PCB,50574d2d-5452-4414-9e53-4953544f522d,rev?*
G04 #@! TF.SameCoordinates,Original*
G04 #@! TF.FileFunction,Paste,Top*
G04 #@! TF.FilePolarity,Positive*
G04 Gerber Fmt 4.6, Leading zero omitted, Abs format (unit mm)*
G04 Created by KiCad (PCBNEW (6.0.5)) date 2022-08-01 19:03:23*
G01*
G04 APERTURE LIST*
G04 Aperture macros list*
G04 Aperture macros list end*
G04 APERTURE END LIST*
D44*
X-0004055118Y0006141732D02*
X0000397263Y0001371732D03*
X0000507499Y0001371732D03*
D45*
X0000403326Y0001519133D03*
X0000403326Y0001444330D03*
X0000521437Y0001481732D03*
D46*
X0000391358Y0001151732D03*
X0000513405Y0001151732D03*
D47*
X0000513405Y0001246732D03*
X0000391358Y0001246732D03*
G04 next file*
G04 #@! TF.GenerationSoftware,KiCad,Pcbnew,(6.0.5)*
G04 #@! TF.CreationDate,2022-08-01T19:03:23+01:00*
G04 #@! TF.ProjectId,PWM-TRANSISTOR-PCB,50574d2d-5452-4414-9e53-4953544f522d,rev?*
G04 #@! TF.SameCoordinates,Original*
G04 #@! TF.FileFunction,Paste,Top*
G04 #@! TF.FilePolarity,Positive*
G04 Gerber Fmt 4.6, Leading zero omitted, Abs format (unit mm)*
G04 Created by KiCad (PCBNEW (6.0.5)) date 2022-08-01 19:03:23*
G01*
G04 APERTURE LIST*
G04 Aperture macros list*
G04 Aperture macros list end*
G04 APERTURE END LIST*
D48*
X-0002913385Y0006141732D02*
X0001538996Y0001371732D03*
X0001649232Y0001371732D03*
D49*
X0001545059Y0001519133D03*
X0001545059Y0001444330D03*
X0001663169Y0001481732D03*
D50*
X0001533090Y0001151732D03*
X0001655137Y0001151732D03*
D51*
X0001655137Y0001246732D03*
X0001533090Y0001246732D03*
G04 next file*
G04 #@! TF.GenerationSoftware,KiCad,Pcbnew,(6.0.5)*
G04 #@! TF.CreationDate,2022-08-01T19:03:23+01:00*
G04 #@! TF.ProjectId,PWM-TRANSISTOR-PCB,50574d2d-5452-4414-9e53-4953544f522d,rev?*
G04 #@! TF.SameCoordinates,Original*
G04 #@! TF.FileFunction,Paste,Top*
G04 #@! TF.FilePolarity,Positive*
G04 Gerber Fmt 4.6, Leading zero omitted, Abs format (unit mm)*
G04 Created by KiCad (PCBNEW (6.0.5)) date 2022-08-01 19:03:23*
G01*
G04 APERTURE LIST*
G04 Aperture macros list*
G04 Aperture macros list end*
G04 APERTURE END LIST*
D52*
X-0001771653Y0006141732D02*
X0002680728Y0001371732D03*
X0002790964Y0001371732D03*
D53*
X0002686791Y0001519133D03*
X0002686791Y0001444330D03*
X0002804901Y0001481732D03*
D54*
X0002674822Y0001151732D03*
X0002796870Y0001151732D03*
D55*
X0002796870Y0001246732D03*
X0002674822Y0001246732D03*
M02*