%
M48
METRIC,000.000
T01C0.50
%
T01
X055070Y051319
X054070Y051319
X053070Y051319
X052070Y051319
X051070Y051319
X050883Y054864
X051883Y054866
X052883Y054869
X053883Y054871
X054883Y054874
X032070Y051319
X031070Y051319
X030070Y051319
X029070Y051319
X028070Y051319
X027883Y054807
X028883Y054809
X029883Y054812
X030883Y054814
X031883Y054816
X009070Y051319
X008070Y051319
X007070Y051319
X006070Y051319
X005070Y051311
X005883Y054752
X006883Y054754
X007883Y054757
X008883Y054759
M30