%
M48
METRIC,000.000
T10C0.40
T11C0.80
T12C0.90
T13C1.00
T14C1.50
T15C2.00
T16C3.20
%
T10
X003739Y035575
X003739Y033203
X003739Y030834
X003739Y028462
X003739Y026092
X003739Y023721
X003739Y021351
X006025Y035575
X006025Y033203
X006025Y030834
X006025Y028462
X006025Y026092
X006025Y023721
X006025Y021351
X007930Y035575
X007930Y033203
X007930Y030834
X007930Y028462
X007930Y026092
X007930Y023721
X007930Y021351
X009962Y035575
X009962Y033203
X009962Y030834
X009962Y028462
X009962Y026092
X009962Y023721
X009962Y021351
X025711Y039638
X030664Y034305
X030664Y032019
X030664Y029352
X030664Y026811
X030664Y024399
X030664Y022113
X030664Y019572
X030664Y016778
X032314Y042687
X032314Y040909
X032314Y039004
X033458Y034305
X033458Y032019
X033458Y029352
X033458Y026811
X033458Y024399
X033458Y022113
X033458Y019572
X033458Y016778
X034601Y042687
X034601Y040909
X034601Y039004
X036125Y034305
X036125Y032019
X036125Y029352
X036125Y026811
X036125Y024399
X036125Y022113
X036887Y042687
X036887Y040909
X036887Y039004
X039173Y042687
X039173Y040909
X039173Y039004
X039300Y034305
X039300Y032019
X039300Y029352
X039300Y026811
X039300Y024399
X041331Y015509
X041459Y042687
X041459Y040909
X041459Y039004
X043745Y042687
X043745Y040909
X043745Y039004
X046031Y042687
X046031Y040909
X046031Y039004
X048316Y042687
X048316Y040909
X048316Y039004
X003739Y083575
X003739Y081204
X003739Y078834
X003739Y076463
X003739Y074092
X003739Y071722
X003739Y069351
X006025Y083575
X006025Y081204
X006025Y078834
X006025Y076463
X006025Y074092
X006025Y071722
X006025Y069351
X007930Y083575
X007930Y081204
X007930Y078834
X007930Y076463
X007930Y074092
X007930Y071722
X007930Y069351
X009962Y083575
X009962Y081204
X009962Y078834
X009962Y076463
X009962Y074092
X009962Y071722
X009962Y069351
X025711Y087639
X030664Y082305
X030664Y080019
X030664Y077352
X030664Y074812
X030664Y072399
X030664Y070113
X030664Y067573
X030664Y064779
X032314Y090687
X032314Y088909
X032314Y087004
X033458Y082305
X033458Y080019
X033458Y077352
X033458Y074812
X033458Y072399
X033458Y070113
X033458Y067573
X033458Y064779
X034601Y090687
X034601Y088909
X034601Y087004
X036125Y082305
X036125Y080019
X036125Y077352
X036125Y074812
X036125Y072399
X036125Y070113
X036887Y090687
X036887Y088909
X036887Y087004
X039173Y090687
X039173Y088909
X039173Y087004
X039300Y082305
X039300Y080019
X039300Y077352
X039300Y074812
X039300Y072399
X041331Y063509
X041459Y090687
X041459Y088909
X041459Y087004
X043745Y090687
X043745Y088909
X043745Y087004
X046031Y090687
X046031Y088909
X046031Y087004
X048316Y090687
X048316Y088909
X048316Y087004
T11
X027489Y031891
X027489Y023141
X042388Y031891
X042388Y023141
X027489Y079892
X027489Y071142
X042388Y079892
X042388Y071142
T12
X022409Y008778
X024948Y008778
X031299Y008778
X033839Y008778
X022409Y056778
X024948Y056778
X031299Y056778
X033839Y056778
T13
X014408Y036083
X014408Y018302
X014789Y012460
X014789Y009921
X017583Y012460
X017583Y009921
X029902Y048147
X029902Y045480
X032441Y048147
X032441Y045480
X034982Y048147
X034982Y045480
X037522Y048147
X037522Y045480
X040062Y048147
X040062Y045480
X042602Y048147
X042602Y045480
X045141Y048147
X045141Y045480
X047682Y048147
X047682Y045480
X050221Y048147
X050221Y045480
X050602Y012968
X050602Y010429
X055048Y036083
X055048Y018302
X014408Y084083
X014408Y066303
X014789Y060461
X014789Y057921
X017583Y060461
X017583Y057921
X029902Y096148
X029902Y093481
X032441Y096148
X032441Y093481
X034982Y096148
X034982Y093481
X037522Y096148
X037522Y093481
X040062Y096148
X040062Y093481
X042602Y096148
X042602Y093481
X045141Y096148
X045141Y093481
X047682Y096148
X047682Y093481
X050221Y096148
X050221Y093481
X050602Y060968
X050602Y058429
X055048Y084083
X055048Y066303
T14
X006406Y039632
X006406Y017033
X006406Y087633
X006406Y065033
T15
X014787Y044282G85X014787Y043282
X019988Y046782G85X018988Y046782
X019988Y040782G85X018988Y040782
X014787Y092282G85X014787Y091282
X019988Y094782G85X018988Y094782
X019988Y088782G85X018988Y088782
T16
X004882Y046751
X005010Y010936
X055682Y047004
X055682Y011191
X004882Y094751
X005010Y058937
X055682Y095005
X055682Y059191
M30