G04 #@! TF.GenerationSoftware,KiCad,Pcbnew,(6.0.5)*
G04 #@! TF.CreationDate,2022-07-15T19:10:50+01:00*
G04 #@! TF.ProjectId,PWM-TRANSISTOR-PCB,50574d2d-5452-4414-9e53-4953544f522d,rev?*
G04 #@! TF.SameCoordinates,Original*
G04 #@! TF.FileFunction,Legend,Bot*
G04 #@! TF.FilePolarity,Positive*
%FSLAX46Y46*%
G04 Gerber Fmt 4.6, Leading zero omitted, Abs format (unit mm)*
G04 Created by KiCad (PCBNEW (6.0.5)) date 2022-07-15 19:10:50*
%MOMM*%
%LPD*%
G01*
G04 APERTURE LIST*
%ADD10O,1.700000X1.700000*%
%ADD11R,1.700000X1.700000*%
%ADD12C,3.000000*%
%ADD13R,3.000000X3.000000*%
%ADD14C,5.600000*%
G04 APERTURE END LIST*
G04 #@! TO.C,G\u002A\u002A\u002A*
G36*
X118821105Y-120494151D02*
G01*
X118878941Y-120515634D01*
X118957401Y-120563670D01*
X119020043Y-120626198D01*
X119065833Y-120699760D01*
X119093740Y-120780901D01*
X119102728Y-120866164D01*
X119091765Y-120952092D01*
X119059818Y-121035230D01*
X119005852Y-121112120D01*
X118974614Y-121144048D01*
X118902355Y-121197426D01*
X118822944Y-121228273D01*
X118732816Y-121238234D01*
X118670499Y-121235246D01*
X118590375Y-121218147D01*
X118520272Y-121183550D01*
X118453413Y-121128798D01*
X118386007Y-121063173D01*
X116229277Y-121063173D01*
X116063371Y-121063166D01*
X115798463Y-121063143D01*
X115556754Y-121063136D01*
X115337101Y-121063184D01*
X115138358Y-121063323D01*
X114959381Y-121063593D01*
X114799025Y-121064030D01*
X114656147Y-121064672D01*
X114529601Y-121065558D01*
X114418243Y-121066725D01*
X114320929Y-121068210D01*
X114236514Y-121070052D01*
X114163854Y-121072289D01*
X114101804Y-121074957D01*
X114049220Y-121078096D01*
X114004957Y-121081742D01*
X113967871Y-121085934D01*
X113936817Y-121090709D01*
X113910652Y-121096106D01*
X113888230Y-121102161D01*
X113868406Y-121108913D01*
X113850038Y-121116399D01*
X113831979Y-121124658D01*
X113813086Y-121133727D01*
X113792214Y-121143643D01*
X113734475Y-121173129D01*
X113615253Y-121253340D01*
X113513087Y-121350578D01*
X113429339Y-121462824D01*
X113365373Y-121588059D01*
X113322551Y-121724265D01*
X113302236Y-121869423D01*
X113301177Y-121953523D01*
X113313659Y-122063271D01*
X113343805Y-122171949D01*
X113393228Y-122286967D01*
X113459388Y-122398265D01*
X113550549Y-122506749D01*
X113658453Y-122598154D01*
X113780830Y-122670588D01*
X113915408Y-122722158D01*
X114013906Y-122750673D01*
X118409076Y-122750673D01*
X118463044Y-122700874D01*
X118497442Y-122672858D01*
X118579237Y-122628534D01*
X118669268Y-122605291D01*
X118762676Y-122604060D01*
X118854603Y-122625772D01*
X118867140Y-122630714D01*
X118948810Y-122677237D01*
X119015013Y-122740701D01*
X119063900Y-122817428D01*
X119093621Y-122903738D01*
X119102325Y-122995952D01*
X119088164Y-123090389D01*
X119069724Y-123137997D01*
X119026233Y-123206745D01*
X118968457Y-123268970D01*
X118902356Y-123318599D01*
X118833886Y-123349559D01*
X118784551Y-123359928D01*
X118695284Y-123361362D01*
X118607053Y-123343105D01*
X118525092Y-123307089D01*
X118454632Y-123255249D01*
X118400906Y-123189520D01*
X118369815Y-123138173D01*
X116187317Y-123138008D01*
X115933124Y-123137983D01*
X115680776Y-123137934D01*
X115451226Y-123137853D01*
X115243322Y-123137726D01*
X115055912Y-123137543D01*
X114887845Y-123137291D01*
X114737968Y-123136957D01*
X114605132Y-123136531D01*
X114488182Y-123136000D01*
X114385969Y-123135351D01*
X114297341Y-123134574D01*
X114221145Y-123133656D01*
X114156231Y-123132585D01*
X114101446Y-123131349D01*
X114055640Y-123129937D01*
X114017659Y-123128335D01*
X113986354Y-123126532D01*
X113960571Y-123124517D01*
X113939160Y-123122277D01*
X113920969Y-123119800D01*
X113904847Y-123117074D01*
X113889640Y-123114087D01*
X113805031Y-123093428D01*
X113647646Y-123036760D01*
X113502309Y-122960311D01*
X113370190Y-122866073D01*
X113252460Y-122756038D01*
X113150287Y-122632198D01*
X113064841Y-122496545D01*
X112997293Y-122351072D01*
X112948812Y-122197770D01*
X112920567Y-122038631D01*
X112913729Y-121875648D01*
X112929466Y-121710812D01*
X112968950Y-121546116D01*
X112978725Y-121516418D01*
X113046353Y-121356123D01*
X113133945Y-121209030D01*
X113239704Y-121076667D01*
X113361833Y-120960559D01*
X113498535Y-120862232D01*
X113648011Y-120783212D01*
X113808466Y-120725027D01*
X113978101Y-120689201D01*
X113989984Y-120688053D01*
X114027294Y-120686177D01*
X114085940Y-120684462D01*
X114166227Y-120682906D01*
X114268462Y-120681507D01*
X114392951Y-120680263D01*
X114540000Y-120679172D01*
X114709917Y-120678232D01*
X114903007Y-120677442D01*
X115119576Y-120676800D01*
X115359933Y-120676304D01*
X115624381Y-120675952D01*
X115913229Y-120675742D01*
X116226782Y-120675673D01*
X118378152Y-120675673D01*
X118433806Y-120613802D01*
X118471972Y-120576273D01*
X118551226Y-120522284D01*
X118638175Y-120489878D01*
X118729306Y-120480138D01*
X118821105Y-120494151D01*
G37*
G36*
X108405479Y-115646371D02*
G01*
X108446975Y-115651960D01*
X108485090Y-115664851D01*
X108531417Y-115687904D01*
X108573687Y-115713586D01*
X108614611Y-115744252D01*
X108642026Y-115771387D01*
X108673305Y-115812376D01*
X110488643Y-115816378D01*
X110732996Y-115816933D01*
X110960617Y-115817495D01*
X111165753Y-115818067D01*
X111349686Y-115818664D01*
X111513696Y-115819305D01*
X111659064Y-115820006D01*
X111787072Y-115820784D01*
X111898999Y-115821657D01*
X111996128Y-115822641D01*
X112079739Y-115823754D01*
X112151114Y-115825013D01*
X112211532Y-115826434D01*
X112262276Y-115828036D01*
X112304625Y-115829835D01*
X112339862Y-115831848D01*
X112369266Y-115834093D01*
X112394119Y-115836586D01*
X112415702Y-115839345D01*
X112435296Y-115842387D01*
X112577023Y-115868767D01*
X112839293Y-115933016D01*
X113086790Y-116015253D01*
X113322117Y-116116401D01*
X113547873Y-116237383D01*
X113752698Y-116369572D01*
X113968777Y-116535880D01*
X114167953Y-116718985D01*
X114349370Y-116917530D01*
X114512176Y-117130158D01*
X114655515Y-117355513D01*
X114778536Y-117592236D01*
X114880382Y-117838970D01*
X114960202Y-118094360D01*
X115017141Y-118357046D01*
X115050345Y-118625673D01*
X115052407Y-118651790D01*
X115057662Y-118714748D01*
X115062464Y-118767457D01*
X115066351Y-118805021D01*
X115068864Y-118822548D01*
X115069600Y-118823352D01*
X115078019Y-118825586D01*
X115096591Y-118827598D01*
X115126378Y-118829400D01*
X115168441Y-118831001D01*
X115223840Y-118832410D01*
X115293639Y-118833639D01*
X115378897Y-118834696D01*
X115480677Y-118835591D01*
X115600039Y-118836336D01*
X115738045Y-118836938D01*
X115895757Y-118837409D01*
X116074236Y-118837758D01*
X116274542Y-118837995D01*
X116497738Y-118838130D01*
X116744885Y-118838173D01*
X118416460Y-118838172D01*
X118466469Y-118793014D01*
X118543117Y-118738509D01*
X118627661Y-118704916D01*
X118715179Y-118692783D01*
X118802194Y-118701344D01*
X118885229Y-118729833D01*
X118960808Y-118777484D01*
X119025454Y-118843531D01*
X119075689Y-118927208D01*
X119093260Y-118986400D01*
X119100467Y-119059715D01*
X119096502Y-119135798D01*
X119081167Y-119204623D01*
X119052026Y-119263079D01*
X119004890Y-119324173D01*
X118947209Y-119378424D01*
X118885739Y-119418443D01*
X118825756Y-119439563D01*
X118745910Y-119450760D01*
X118662520Y-119448031D01*
X118584993Y-119430984D01*
X118547301Y-119414253D01*
X118486947Y-119374077D01*
X118432836Y-119323544D01*
X118394098Y-119270339D01*
X118369646Y-119224956D01*
X116549911Y-119229049D01*
X114730176Y-119233141D01*
X114574699Y-119266643D01*
X114488703Y-119286285D01*
X114250790Y-119353670D01*
X114027903Y-119437614D01*
X113815958Y-119539791D01*
X113610875Y-119661875D01*
X113604873Y-119665817D01*
X113536440Y-119713091D01*
X113461561Y-119768290D01*
X113387123Y-119826080D01*
X113320016Y-119881126D01*
X113267127Y-119928092D01*
X113229437Y-119963758D01*
X113321819Y-119925969D01*
X113421065Y-119887769D01*
X113615100Y-119827777D01*
X113812936Y-119786850D01*
X114022538Y-119763136D01*
X114036786Y-119762327D01*
X114084030Y-119760711D01*
X114154049Y-119759179D01*
X114245333Y-119757741D01*
X114356375Y-119756407D01*
X114485666Y-119755189D01*
X114631700Y-119754096D01*
X114792967Y-119753141D01*
X114967959Y-119752332D01*
X115155170Y-119751681D01*
X115353090Y-119751199D01*
X115560212Y-119750896D01*
X115775028Y-119750782D01*
X117357645Y-119750673D01*
X117404684Y-119702524D01*
X117409237Y-119697909D01*
X117466912Y-119648525D01*
X117526897Y-119616658D01*
X117596150Y-119599599D01*
X117681628Y-119594637D01*
X117709828Y-119595082D01*
X117783080Y-119602187D01*
X117842689Y-119620372D01*
X117896483Y-119652754D01*
X117952290Y-119702452D01*
X118001345Y-119763199D01*
X118039593Y-119842689D01*
X118057553Y-119927209D01*
X118056166Y-120013068D01*
X118036370Y-120096575D01*
X117999103Y-120174037D01*
X117945305Y-120241764D01*
X117875914Y-120296063D01*
X117791869Y-120333244D01*
X117765506Y-120340113D01*
X117674152Y-120348937D01*
X117583895Y-120336529D01*
X117499519Y-120304526D01*
X117425810Y-120254560D01*
X117367554Y-120188269D01*
X117334385Y-120138172D01*
X115730331Y-120138173D01*
X115705555Y-120138173D01*
X115462101Y-120138211D01*
X115242151Y-120138338D01*
X115044329Y-120138590D01*
X114867262Y-120139000D01*
X114709572Y-120139604D01*
X114569885Y-120140437D01*
X114446825Y-120141534D01*
X114339017Y-120142928D01*
X114245086Y-120144656D01*
X114163656Y-120146752D01*
X114093351Y-120149250D01*
X114032797Y-120152187D01*
X113980618Y-120155595D01*
X113935438Y-120159512D01*
X113895882Y-120163970D01*
X113860575Y-120169005D01*
X113828142Y-120174653D01*
X113797207Y-120180947D01*
X113766394Y-120187922D01*
X113634455Y-120224317D01*
X113441792Y-120298057D01*
X113260117Y-120392791D01*
X113091208Y-120507105D01*
X112936842Y-120639588D01*
X112798795Y-120788827D01*
X112678844Y-120953409D01*
X112578767Y-121131923D01*
X112572930Y-121144042D01*
X112515086Y-121273151D01*
X112471195Y-121392391D01*
X112439723Y-121508575D01*
X112419140Y-121628516D01*
X112407914Y-121759028D01*
X112404512Y-121906923D01*
X112406574Y-122021970D01*
X112416568Y-122160333D01*
X112436199Y-122286663D01*
X112466947Y-122407807D01*
X112510292Y-122530611D01*
X112567715Y-122661925D01*
X112659787Y-122832530D01*
X112777449Y-123001261D01*
X112913284Y-123153845D01*
X113066091Y-123289346D01*
X113234670Y-123406826D01*
X113417821Y-123505349D01*
X113614343Y-123583977D01*
X113823035Y-123641774D01*
X113837828Y-123644959D01*
X113855033Y-123648350D01*
X113873382Y-123651397D01*
X113894201Y-123654124D01*
X113918817Y-123656553D01*
X113948554Y-123658705D01*
X113984740Y-123660603D01*
X114028700Y-123662269D01*
X114081760Y-123663726D01*
X114145247Y-123664994D01*
X114220486Y-123666098D01*
X114308802Y-123667057D01*
X114411524Y-123667896D01*
X114529975Y-123668636D01*
X114665483Y-123669299D01*
X114819373Y-123669907D01*
X114992971Y-123670483D01*
X115187603Y-123671049D01*
X115404596Y-123671626D01*
X115645275Y-123672237D01*
X115874469Y-123672809D01*
X116092345Y-123673330D01*
X116287634Y-123673755D01*
X116461577Y-123674070D01*
X116615419Y-123674258D01*
X116750402Y-123674307D01*
X116867769Y-123674201D01*
X116968763Y-123673925D01*
X117054627Y-123673466D01*
X117126603Y-123672807D01*
X117185936Y-123671936D01*
X117233867Y-123670836D01*
X117271640Y-123669493D01*
X117300498Y-123667893D01*
X117321683Y-123666021D01*
X117336439Y-123663862D01*
X117346008Y-123661402D01*
X117351633Y-123658626D01*
X117354558Y-123655520D01*
X117356025Y-123652068D01*
X117361449Y-123640723D01*
X117386369Y-123609582D01*
X117424334Y-123573985D01*
X117469333Y-123539260D01*
X117515358Y-123510739D01*
X117563044Y-123493222D01*
X117631604Y-123482223D01*
X117706306Y-123481014D01*
X117778105Y-123489665D01*
X117837955Y-123508246D01*
X117862959Y-123521509D01*
X117926803Y-123569290D01*
X117984145Y-123630665D01*
X118027090Y-123697725D01*
X118035367Y-123716821D01*
X118053193Y-123788913D01*
X118057427Y-123869572D01*
X118048121Y-123949344D01*
X118025326Y-124018780D01*
X118022144Y-124025221D01*
X117969652Y-124103971D01*
X117902913Y-124165034D01*
X117825623Y-124207775D01*
X117741478Y-124231559D01*
X117654177Y-124235750D01*
X117567416Y-124219715D01*
X117484892Y-124182816D01*
X117410303Y-124124421D01*
X117350103Y-124064251D01*
X115639943Y-124059680D01*
X115407181Y-124059052D01*
X115188824Y-124058440D01*
X114992856Y-124057844D01*
X114817941Y-124057242D01*
X114662742Y-124056612D01*
X114525924Y-124055931D01*
X114406151Y-124055177D01*
X114302086Y-124054326D01*
X114212394Y-124053356D01*
X114135737Y-124052244D01*
X114070781Y-124050968D01*
X114016188Y-124049506D01*
X113970623Y-124047833D01*
X113932750Y-124045929D01*
X113901233Y-124043770D01*
X113874735Y-124041333D01*
X113851920Y-124038596D01*
X113831452Y-124035536D01*
X113811996Y-124032131D01*
X113792214Y-124028357D01*
X113701848Y-124009389D01*
X113507248Y-123957458D01*
X113333487Y-123894315D01*
X113229437Y-123850556D01*
X113285715Y-123900872D01*
X113304379Y-123917402D01*
X113503434Y-124076022D01*
X113716674Y-124215680D01*
X113941388Y-124334923D01*
X114174869Y-124432297D01*
X114414406Y-124506349D01*
X114453447Y-124516376D01*
X114492933Y-124526400D01*
X114530222Y-124535444D01*
X114566675Y-124543561D01*
X114603651Y-124550799D01*
X114642513Y-124557210D01*
X114684619Y-124562843D01*
X114731331Y-124567748D01*
X114784009Y-124571976D01*
X114844014Y-124575578D01*
X114912705Y-124578602D01*
X114991444Y-124581100D01*
X115081590Y-124583122D01*
X115184505Y-124584718D01*
X115301548Y-124585938D01*
X115434080Y-124586832D01*
X115583462Y-124587451D01*
X115751054Y-124587845D01*
X115938217Y-124588063D01*
X116146310Y-124588157D01*
X116376695Y-124588177D01*
X116630732Y-124588173D01*
X118386186Y-124588173D01*
X118412412Y-124545758D01*
X118417625Y-124537909D01*
X118448362Y-124501266D01*
X118483693Y-124468997D01*
X118507702Y-124452013D01*
X118590680Y-124410742D01*
X118676931Y-124391026D01*
X118763190Y-124391441D01*
X118846191Y-124410564D01*
X118922668Y-124446969D01*
X118989356Y-124499232D01*
X119042987Y-124565929D01*
X119080298Y-124645636D01*
X119098021Y-124736928D01*
X119098970Y-124753065D01*
X119095474Y-124837220D01*
X119074980Y-124911229D01*
X119035249Y-124983889D01*
X119008714Y-125017603D01*
X118954711Y-125068325D01*
X118893365Y-125110695D01*
X118833886Y-125137681D01*
X118804306Y-125143068D01*
X118757935Y-125146534D01*
X118707133Y-125146772D01*
X118689165Y-125145859D01*
X118598014Y-125129110D01*
X118517970Y-125091207D01*
X118444879Y-125030307D01*
X118392381Y-124976318D01*
X116567532Y-124972474D01*
X116362042Y-124972056D01*
X116126286Y-124971593D01*
X115913116Y-124971144D01*
X115721183Y-124970657D01*
X115549139Y-124970077D01*
X115395633Y-124969348D01*
X115259317Y-124968418D01*
X115138844Y-124967231D01*
X115032863Y-124965732D01*
X114940026Y-124963869D01*
X114858984Y-124961585D01*
X114788389Y-124958827D01*
X114726892Y-124955541D01*
X114673143Y-124951671D01*
X114625794Y-124947163D01*
X114583496Y-124941964D01*
X114544901Y-124936019D01*
X114508660Y-124929272D01*
X114473423Y-124921670D01*
X114437842Y-124913159D01*
X114400568Y-124903684D01*
X114360253Y-124893190D01*
X114315548Y-124881624D01*
X114087869Y-124813497D01*
X113836402Y-124714348D01*
X113594908Y-124593383D01*
X113364914Y-124451748D01*
X113147948Y-124290591D01*
X112945536Y-124111057D01*
X112759206Y-123914295D01*
X112590484Y-123701451D01*
X112440898Y-123473671D01*
X112424451Y-123445658D01*
X112296553Y-123200867D01*
X112192242Y-122947900D01*
X112111445Y-122686523D01*
X112054087Y-122416503D01*
X112020096Y-122137608D01*
X112005423Y-121951403D01*
X108656009Y-121950387D01*
X108633008Y-121979613D01*
X108611085Y-121999754D01*
X108574294Y-122025620D01*
X108531047Y-122051139D01*
X108490867Y-122071428D01*
X108452320Y-122085570D01*
X108411985Y-122092018D01*
X108358290Y-122093617D01*
X108287460Y-122088213D01*
X108196358Y-122061703D01*
X108117559Y-122013676D01*
X108052040Y-121944780D01*
X108000779Y-121855668D01*
X107997808Y-121848796D01*
X107975532Y-121773773D01*
X107973272Y-121697389D01*
X107990732Y-121612447D01*
X108005873Y-121569765D01*
X108053012Y-121486295D01*
X108116694Y-121419903D01*
X108194359Y-121372367D01*
X108283448Y-121345467D01*
X108381400Y-121340982D01*
X108420636Y-121345869D01*
X108505567Y-121370809D01*
X108581488Y-121412478D01*
X108643431Y-121467741D01*
X108686427Y-121533461D01*
X108699971Y-121563173D01*
X112029726Y-121563173D01*
X112045324Y-121447010D01*
X112050959Y-121409700D01*
X112063949Y-121337406D01*
X112079864Y-121259574D01*
X112096450Y-121187635D01*
X112109534Y-121132547D01*
X112119824Y-121084397D01*
X112125841Y-121050188D01*
X112126573Y-121035048D01*
X112124681Y-121034560D01*
X112103090Y-121033247D01*
X112058828Y-121032002D01*
X111993619Y-121030838D01*
X111909183Y-121029768D01*
X111807243Y-121028804D01*
X111689521Y-121027961D01*
X111557738Y-121027250D01*
X111413616Y-121026685D01*
X111258878Y-121026278D01*
X111095245Y-121026044D01*
X110924440Y-121025994D01*
X109727714Y-121026315D01*
X109667186Y-121088016D01*
X109658686Y-121096437D01*
X109581707Y-121154071D01*
X109494503Y-121188953D01*
X109398059Y-121200673D01*
X109355450Y-121198964D01*
X109274032Y-121182663D01*
X109201912Y-121146931D01*
X109132745Y-121089099D01*
X109090363Y-121041596D01*
X109049989Y-120975243D01*
X109027859Y-120901379D01*
X109021116Y-120812942D01*
X109021151Y-120804997D01*
X109024659Y-120751231D01*
X109036280Y-120705283D01*
X109059360Y-120653170D01*
X109079047Y-120617114D01*
X109121211Y-120560744D01*
X109174651Y-120516311D01*
X109246227Y-120477363D01*
X109296106Y-120458970D01*
X109385703Y-120445108D01*
X109476219Y-120452628D01*
X109560567Y-120481438D01*
X109608259Y-120508205D01*
X109673904Y-120559661D01*
X109716645Y-120616298D01*
X109734609Y-120650673D01*
X112278969Y-120649333D01*
X112346699Y-120511787D01*
X112368655Y-120468834D01*
X112411080Y-120391168D01*
X112456911Y-120312202D01*
X112499440Y-120243707D01*
X112584452Y-120113173D01*
X110637078Y-120113258D01*
X108689703Y-120113343D01*
X108659293Y-120157969D01*
X108629651Y-120193962D01*
X108565601Y-120245708D01*
X108488465Y-120284781D01*
X108405183Y-120307108D01*
X108316874Y-120308735D01*
X108232456Y-120288716D01*
X108155159Y-120250000D01*
X108087962Y-120195576D01*
X108033846Y-120128432D01*
X107995789Y-120051557D01*
X107976773Y-119967937D01*
X107979778Y-119880561D01*
X107983003Y-119862870D01*
X108005743Y-119781603D01*
X108040979Y-119714772D01*
X108092615Y-119654560D01*
X108151326Y-119608682D01*
X108231795Y-119571382D01*
X108318494Y-119553666D01*
X108406860Y-119555360D01*
X108492333Y-119576291D01*
X108570350Y-119616286D01*
X108636349Y-119675173D01*
X108679596Y-119725672D01*
X110798190Y-119725164D01*
X112916783Y-119724655D01*
X113004326Y-119643092D01*
X113050032Y-119602071D01*
X113134609Y-119531832D01*
X113228901Y-119459041D01*
X113328229Y-119386955D01*
X113427919Y-119318831D01*
X113523292Y-119257927D01*
X113609672Y-119207500D01*
X113682382Y-119170808D01*
X113692993Y-119165806D01*
X113719915Y-119148530D01*
X113739222Y-119125042D01*
X113753027Y-119090649D01*
X113763440Y-119040658D01*
X113772575Y-118970374D01*
X113777598Y-118891894D01*
X113767994Y-118752873D01*
X113735627Y-118618934D01*
X113681926Y-118492574D01*
X113608318Y-118376291D01*
X113516231Y-118272582D01*
X113407093Y-118183945D01*
X113282333Y-118112878D01*
X113280905Y-118112212D01*
X113260358Y-118102297D01*
X113242259Y-118093236D01*
X113225464Y-118084988D01*
X113208827Y-118077515D01*
X113191206Y-118070777D01*
X113171455Y-118064732D01*
X113148431Y-118059342D01*
X113120990Y-118054567D01*
X113087987Y-118050367D01*
X113048279Y-118046701D01*
X113000720Y-118043530D01*
X112944168Y-118040814D01*
X112877477Y-118038514D01*
X112799505Y-118036588D01*
X112709105Y-118034998D01*
X112605136Y-118033703D01*
X112486451Y-118032664D01*
X112351907Y-118031841D01*
X112200361Y-118031194D01*
X112030667Y-118030682D01*
X111841682Y-118030266D01*
X111632262Y-118029907D01*
X111401261Y-118029563D01*
X111147537Y-118029196D01*
X110869945Y-118028765D01*
X108685540Y-118025181D01*
X108627080Y-118075753D01*
X108582880Y-118111388D01*
X108518302Y-118151214D01*
X108452346Y-118174634D01*
X108377049Y-118185131D01*
X108306394Y-118183443D01*
X108216236Y-118161970D01*
X108136674Y-118120615D01*
X108070377Y-118061905D01*
X108020013Y-117988368D01*
X107988251Y-117902531D01*
X107977760Y-117806923D01*
X107979399Y-117773665D01*
X107999093Y-117680099D01*
X108039034Y-117597923D01*
X108096760Y-117529601D01*
X108169811Y-117477596D01*
X108255724Y-117444371D01*
X108352037Y-117432390D01*
X108352445Y-117432388D01*
X108448659Y-117442962D01*
X108535233Y-117474481D01*
X108608990Y-117525314D01*
X108666751Y-117593833D01*
X108702209Y-117649760D01*
X110867262Y-117650216D01*
X110899692Y-117650223D01*
X111176068Y-117650274D01*
X111428720Y-117650333D01*
X111658807Y-117650430D01*
X111867485Y-117650598D01*
X112055915Y-117650867D01*
X112225254Y-117651269D01*
X112376661Y-117651836D01*
X112511295Y-117652599D01*
X112630313Y-117653590D01*
X112734874Y-117654841D01*
X112826137Y-117656382D01*
X112905260Y-117658246D01*
X112973401Y-117660464D01*
X113031719Y-117663067D01*
X113081373Y-117666087D01*
X113123520Y-117669556D01*
X113159319Y-117673504D01*
X113189930Y-117677965D01*
X113216509Y-117682968D01*
X113240216Y-117688546D01*
X113262208Y-117694730D01*
X113283645Y-117701552D01*
X113305685Y-117709044D01*
X113329486Y-117717236D01*
X113337583Y-117720030D01*
X113494711Y-117787658D01*
X113638872Y-117875286D01*
X113768592Y-117980859D01*
X113882399Y-118102325D01*
X113978818Y-118237629D01*
X114056376Y-118384719D01*
X114113599Y-118541540D01*
X114149013Y-118706040D01*
X114161146Y-118876164D01*
X114161146Y-118973381D01*
X114239309Y-118949587D01*
X114272455Y-118940334D01*
X114326232Y-118926959D01*
X114389411Y-118912397D01*
X114456373Y-118897831D01*
X114521502Y-118884442D01*
X114579180Y-118873414D01*
X114623790Y-118865930D01*
X114649713Y-118863173D01*
X114662155Y-118862263D01*
X114670925Y-118856123D01*
X114675253Y-118839812D01*
X114676333Y-118808391D01*
X114675355Y-118756923D01*
X114668187Y-118663152D01*
X114646691Y-118535073D01*
X114612948Y-118400302D01*
X114568792Y-118265958D01*
X114516061Y-118139162D01*
X114515318Y-118137575D01*
X114417023Y-117956903D01*
X114298386Y-117789218D01*
X114161375Y-117636271D01*
X114007957Y-117499816D01*
X113840101Y-117381605D01*
X113659775Y-117283388D01*
X113468946Y-117206920D01*
X113439569Y-117197047D01*
X113407057Y-117186057D01*
X113376912Y-117176167D01*
X113347766Y-117167317D01*
X113318250Y-117159445D01*
X113286994Y-117152492D01*
X113252629Y-117146394D01*
X113213787Y-117141093D01*
X113169099Y-117136526D01*
X113117196Y-117132634D01*
X113056708Y-117129354D01*
X112986267Y-117126627D01*
X112904504Y-117124390D01*
X112810049Y-117122584D01*
X112701534Y-117121147D01*
X112577591Y-117120019D01*
X112436848Y-117119138D01*
X112277939Y-117118443D01*
X112099494Y-117117874D01*
X111900143Y-117117369D01*
X111678519Y-117116868D01*
X111433251Y-117116310D01*
X109749621Y-117112341D01*
X109669093Y-117192829D01*
X109640679Y-117220382D01*
X109599314Y-117255292D01*
X109561934Y-117277967D01*
X109521429Y-117293245D01*
X109480461Y-117303762D01*
X109382543Y-117313903D01*
X109292332Y-117300346D01*
X109209258Y-117262956D01*
X109132745Y-117201599D01*
X109091916Y-117156070D01*
X109050650Y-117089224D01*
X109028043Y-117015071D01*
X109021238Y-116926571D01*
X109022848Y-116891246D01*
X109043064Y-116799150D01*
X109085248Y-116717295D01*
X109147889Y-116648094D01*
X109229475Y-116593961D01*
X109256730Y-116580869D01*
X109297552Y-116566056D01*
X109340184Y-116559029D01*
X109396154Y-116557251D01*
X109432944Y-116558692D01*
X109527445Y-116577816D01*
X109610479Y-116619141D01*
X109681948Y-116682624D01*
X109730867Y-116738172D01*
X111417621Y-116738246D01*
X111457741Y-116738248D01*
X111700920Y-116738259D01*
X111920674Y-116738306D01*
X112118375Y-116738433D01*
X112295397Y-116738688D01*
X112453112Y-116739116D01*
X112592893Y-116739763D01*
X112716114Y-116740676D01*
X112824146Y-116741900D01*
X112918364Y-116743481D01*
X113000140Y-116745465D01*
X113070847Y-116747898D01*
X113131857Y-116750827D01*
X113184544Y-116754297D01*
X113230280Y-116758354D01*
X113270439Y-116763044D01*
X113306394Y-116768414D01*
X113339516Y-116774509D01*
X113371180Y-116781375D01*
X113402758Y-116789059D01*
X113435623Y-116797606D01*
X113471147Y-116807062D01*
X113497920Y-116814517D01*
X113569586Y-116836534D01*
X113646188Y-116862258D01*
X113715148Y-116887540D01*
X113842239Y-116936916D01*
X113779708Y-116879210D01*
X113757850Y-116859619D01*
X113688409Y-116802112D01*
X113606373Y-116739259D01*
X113518456Y-116675951D01*
X113431373Y-116617080D01*
X113351837Y-116567537D01*
X113283472Y-116528638D01*
X113055281Y-116416943D01*
X112817002Y-116327456D01*
X112567506Y-116259795D01*
X112305664Y-116213578D01*
X112285785Y-116211962D01*
X112237925Y-116210005D01*
X112165493Y-116208226D01*
X112068740Y-116206627D01*
X111947914Y-116205208D01*
X111803265Y-116203972D01*
X111635042Y-116202922D01*
X111443495Y-116202057D01*
X111228873Y-116201381D01*
X110991426Y-116200894D01*
X110731403Y-116200599D01*
X110449054Y-116200498D01*
X110345215Y-116200498D01*
X110110167Y-116200518D01*
X109898409Y-116200579D01*
X109708719Y-116200696D01*
X109539878Y-116200882D01*
X109390665Y-116201155D01*
X109259861Y-116201528D01*
X109146243Y-116202018D01*
X109048593Y-116202638D01*
X108965689Y-116203405D01*
X108896311Y-116204333D01*
X108839240Y-116205438D01*
X108793254Y-116206735D01*
X108757132Y-116208238D01*
X108729656Y-116209963D01*
X108709604Y-116211925D01*
X108695755Y-116214140D01*
X108686891Y-116216621D01*
X108681789Y-116219386D01*
X108679230Y-116222448D01*
X108665688Y-116244864D01*
X108613626Y-116302130D01*
X108545055Y-116348978D01*
X108465728Y-116382019D01*
X108381400Y-116397863D01*
X108320817Y-116397935D01*
X108228077Y-116379744D01*
X108145995Y-116340333D01*
X108077023Y-116281482D01*
X108023615Y-116204970D01*
X107988224Y-116112579D01*
X107975391Y-116018334D01*
X107986633Y-115926835D01*
X108022315Y-115840341D01*
X108082327Y-115759268D01*
X108108401Y-115733360D01*
X108179922Y-115683421D01*
X108262199Y-115654466D01*
X108358290Y-115645228D01*
X108405479Y-115646371D01*
G37*
G04 #@! TD*
%LPC*%
D10*
G04 #@! TO.C,J4*
X115760500Y-110617000D03*
D11*
X118300500Y-110617000D03*
G04 #@! TD*
D10*
G04 #@! TO.C,J3*
X106489500Y-119189500D03*
D11*
X106489500Y-121729500D03*
G04 #@! TD*
D12*
G04 #@! TO.C,J2*
X127063500Y-117919500D03*
D13*
X127063500Y-122999500D03*
G04 #@! TD*
D10*
G04 #@! TO.C,J1*
X120586500Y-121412000D03*
D11*
X120586500Y-118872000D03*
G04 #@! TD*
D14*
G04 #@! TO.C,H4*
X107759500Y-128905000D03*
G04 #@! TD*
G04 #@! TO.C,H3*
X127698500Y-129159000D03*
G04 #@! TD*
G04 #@! TO.C,H2*
X107886500Y-111760000D03*
G04 #@! TD*
G04 #@! TO.C,H1*
X127698500Y-111760000D03*
G04 #@! TD*
M02*
