M48
; DRILL file {KiCad (6.0.5)} date Fri Jul 15 19:11:05 2022
; FORMAT={-:-/ absolute / metric / decimal}
; #@! TF.CreationDate,2022-07-15T19:11:05+01:00
; #@! TF.GenerationSoftware,Kicad,Pcbnew,(6.0.5)
; #@! TF.FileFunction,Plated,1,2,PTH
FMAT,2
METRIC
; #@! TA.AperFunction,Plated,PTH,ViaDrill
T1C0.400
; #@! TA.AperFunction,Plated,PTH,ComponentDrill
T2C1.000
; #@! TA.AperFunction,Plated,PTH,ComponentDrill
T3C1.520
; #@! TA.AperFunction,Plated,PTH,ComponentDrill
T4C3.200
%
G90
G05
T1
X110.744Y-117.411
X112.585Y-113.093
X112.649Y-110.426
X118.491Y-125.857
X118.491Y-127.508
X118.491Y-129.159
X118.491Y-130.81
X119.761Y-124.269
X120.332Y-125.793
X120.332Y-127.444
X120.332Y-129.095
X120.332Y-130.746
X121.92Y-113.093
X121.983Y-110.426
X122.174Y-125.793
X122.174Y-127.444
X122.174Y-129.095
X122.174Y-130.746
T2
X106.489Y-119.189
X106.489Y-121.73
X115.76Y-110.617
X118.3Y-110.617
X120.587Y-118.872
X120.587Y-121.412
T3
X127.063Y-117.919
X127.063Y-122.999
T4
X107.759Y-128.905
X107.886Y-111.76
X127.698Y-111.76
X127.698Y-129.159
T0
M30
